<svg width="44" height="45" viewBox="0 0 44 45" fill="none" xmlns="http://www.w3.org/2000/svg">
<g filter="url(#filter0_b_430_454)">
<circle cx="21.7866" cy="22.5503" r="21.7866" fill="#333437" fill-opacity="0.7"/>
</g>
<g clip-path="url(#clip0_430_454)">
<rect x="13.7982" y="13.6416" width="17.4777" height="17.4777" fill="white"/>
<path fill-rule="evenodd" clip-rule="evenodd" d="M14.1924 11.8022C13.356 11.8022 12.5538 12.1345 11.9623 12.726C11.3709 13.3175 11.0386 14.1197 11.0386 14.9561V30.7255C11.0386 31.5619 11.3709 32.3641 11.9623 32.9556C12.5538 33.5471 13.356 33.8794 14.1924 33.8794H29.9618C30.7983 33.8794 31.6005 33.5471 32.1919 32.9556C32.7834 32.3641 33.1157 31.5619 33.1157 30.7255V14.9561C33.1157 14.1197 32.7834 13.3175 32.1919 12.726C31.6005 12.1345 30.7983 11.8022 29.9618 11.8022H14.1924ZM15.9302 18.5783C16.43 18.5783 16.9093 18.3798 17.2627 18.0264C17.6161 17.673 17.8147 17.1937 17.8147 16.6939C17.8147 16.1941 17.6161 15.7148 17.2627 15.3614C16.9093 15.008 16.43 14.8095 15.9302 14.8095C15.4304 14.8095 14.9511 15.008 14.5977 15.3614C14.2443 15.7148 14.0458 16.1941 14.0458 16.6939C14.0458 17.1937 14.2443 17.673 14.5977 18.0264C14.9511 18.3798 15.4304 18.5783 15.9302 18.5783ZM17.5072 30.4306V20.0559H14.3533V30.4306H17.5072ZM19.6013 20.0559H22.7552V21.4452C23.2204 20.7167 24.2423 19.7358 26.1425 19.7358C28.4101 19.7358 29.6417 21.2386 29.6417 24.0976C29.6417 24.2348 29.6543 24.8609 29.6543 24.8609V30.429H26.5004V24.8624C26.5004 24.0976 26.3396 22.5948 24.6397 22.5948C22.9381 22.5948 22.7946 24.484 22.7552 25.7203V30.429H19.6013V20.0559Z" fill="#575757"/>
</g>
<defs>
<filter id="filter0_b_430_454" x="-41.4817" y="-40.7181" width="126.537" height="126.537" filterUnits="userSpaceOnUse" color-interpolation-filters="sRGB">
<feFlood flood-opacity="0" result="BackgroundImageFix"/>
<feGaussianBlur in="BackgroundImageFix" stdDeviation="20.7409"/>
<feComposite in2="SourceAlpha" operator="in" result="effect1_backgroundBlur_430_454"/>
<feBlend mode="normal" in="SourceGraphic" in2="effect1_backgroundBlur_430_454" result="shape"/>
</filter>
<clipPath id="clip0_430_454">
<rect width="22.0771" height="22.0771" fill="white" transform="translate(11.0386 11.8022)"/>
</clipPath>
</defs>
</svg>
