<svg width="416" height="222" viewBox="0 0 416 222" fill="none" xmlns="http://www.w3.org/2000/svg">
<g clip-path="url(#clip0_226_2)">
<path d="M399.879 1.5H14.8794C9.63269 1.5 5.37939 5.75329 5.37939 11V206C5.37939 211.247 9.63269 215.5 14.8794 215.5H399.879C405.126 215.5 409.379 211.247 409.379 206V11C409.379 5.75329 405.126 1.5 399.879 1.5Z" fill="url(#paint0_radial_226_2)"/>
<path d="M399.879 1.5H14.8794C9.63269 1.5 5.37939 5.75329 5.37939 11V206C5.37939 211.247 9.63269 215.5 14.8794 215.5H399.879C405.126 215.5 409.379 211.247 409.379 206V11C409.379 5.75329 405.126 1.5 399.879 1.5Z" stroke="url(#paint1_linear_226_2)"/>
<g filter="url(#filter0_d_226_2)">
<path d="M20.8794 27C20.8794 21.4771 25.3565 17 30.8794 17H171.879C177.402 17 181.879 21.4772 181.879 27V213H20.8794V27Z" fill="white"/>
<path d="M37.9995 50.0005V38.4805H42.7595C42.8715 38.4805 43.0155 38.4858 43.1915 38.4965C43.3675 38.5018 43.5302 38.5178 43.6795 38.5445C44.3462 38.6458 44.8955 38.8672 45.3275 39.2085C45.7648 39.5498 46.0875 39.9818 46.2955 40.5045C46.5088 41.0218 46.6155 41.5978 46.6155 42.2325C46.6155 43.1712 46.3782 43.9792 45.9035 44.6565C45.4288 45.3285 44.7008 45.7445 43.7195 45.9045L42.8955 45.9765H39.9275V50.0005H37.9995ZM44.6155 50.0005L42.3435 45.3125L44.3035 44.8805L46.7995 50.0005H44.6155ZM39.9275 44.1765H42.6795C42.7862 44.1765 42.9062 44.1712 43.0395 44.1605C43.1728 44.1498 43.2955 44.1285 43.4075 44.0965C43.7275 44.0165 43.9782 43.8752 44.1595 43.6725C44.3462 43.4698 44.4768 43.2405 44.5515 42.9845C44.6315 42.7285 44.6715 42.4778 44.6715 42.2325C44.6715 41.9872 44.6315 41.7365 44.5515 41.4805C44.4768 41.2192 44.3462 40.9872 44.1595 40.7845C43.9782 40.5818 43.7275 40.4405 43.4075 40.3605C43.2955 40.3285 43.1728 40.3098 43.0395 40.3045C42.9062 40.2938 42.7862 40.2885 42.6795 40.2885H39.9275V44.1765ZM51.69 50.2405C50.8153 50.2405 50.0473 50.0512 49.386 49.6725C48.7247 49.2938 48.2073 48.7685 47.834 48.0965C47.466 47.4245 47.282 46.6512 47.282 45.7765C47.282 44.8325 47.4633 44.0138 47.826 43.3205C48.1887 42.6218 48.6927 42.0805 49.338 41.6965C49.9833 41.3125 50.73 41.1205 51.578 41.1205C52.474 41.1205 53.234 41.3312 53.858 41.7525C54.4873 42.1685 54.954 42.7578 55.258 43.5205C55.562 44.2832 55.6767 45.1818 55.602 46.2165H53.69V45.5125C53.6847 44.5738 53.5193 43.8885 53.194 43.4565C52.8687 43.0245 52.3567 42.8085 51.658 42.8085C50.8687 42.8085 50.282 43.0538 49.898 43.5445C49.514 44.0298 49.322 44.7418 49.322 45.6805C49.322 46.5552 49.514 47.2325 49.898 47.7125C50.282 48.1925 50.842 48.4325 51.578 48.4325C52.0527 48.4325 52.4607 48.3285 52.802 48.1205C53.1487 47.9072 53.4153 47.6005 53.602 47.2005L55.506 47.7765C55.1753 48.5552 54.6633 49.1605 53.97 49.5925C53.282 50.0245 52.522 50.2405 51.69 50.2405ZM48.714 46.2165V44.7605H54.658V46.2165H48.714ZM58.6105 50.0005L55.4745 41.3605H57.4025L59.5785 47.6245L61.7465 41.3605H63.6825L60.5465 50.0005H58.6105ZM67.9337 50.2405C67.0591 50.2405 66.2911 50.0512 65.6297 49.6725C64.9684 49.2938 64.4511 48.7685 64.0777 48.0965C63.7097 47.4245 63.5257 46.6512 63.5257 45.7765C63.5257 44.8325 63.7071 44.0138 64.0697 43.3205C64.4324 42.6218 64.9364 42.0805 65.5817 41.6965C66.2271 41.3125 66.9737 41.1205 67.8217 41.1205C68.7177 41.1205 69.4777 41.3312 70.1017 41.7525C70.7311 42.1685 71.1977 42.7578 71.5017 43.5205C71.8057 44.2832 71.9204 45.1818 71.8457 46.2165H69.9337V45.5125C69.9284 44.5738 69.7631 43.8885 69.4377 43.4565C69.1124 43.0245 68.6004 42.8085 67.9017 42.8085C67.1124 42.8085 66.5257 43.0538 66.1417 43.5445C65.7577 44.0298 65.5657 44.7418 65.5657 45.6805C65.5657 46.5552 65.7577 47.2325 66.1417 47.7125C66.5257 48.1925 67.0857 48.4325 67.8217 48.4325C68.2964 48.4325 68.7044 48.3285 69.0457 48.1205C69.3924 47.9072 69.6591 47.6005 69.8457 47.2005L71.7497 47.7765C71.4191 48.5552 70.9071 49.1605 70.2137 49.5925C69.5257 50.0245 68.7657 50.2405 67.9337 50.2405ZM64.9577 46.2165V44.7605H70.9017V46.2165H64.9577ZM78.5724 50.0005V45.8405C78.5724 45.5685 78.5537 45.2672 78.5164 44.9365C78.479 44.6058 78.391 44.2885 78.2524 43.9845C78.119 43.6752 77.9164 43.4218 77.6444 43.2245C77.3777 43.0272 77.015 42.9285 76.5564 42.9285C76.311 42.9285 76.0684 42.9685 75.8284 43.0485C75.5884 43.1285 75.3697 43.2672 75.1724 43.4645C74.9804 43.6565 74.8257 43.9232 74.7084 44.2645C74.591 44.6005 74.5324 45.0325 74.5324 45.5605L73.3884 45.0725C73.3884 44.3365 73.5297 43.6698 73.8124 43.0725C74.1004 42.4752 74.5217 42.0005 75.0764 41.6485C75.631 41.2912 76.3137 41.1125 77.1244 41.1125C77.7644 41.1125 78.2924 41.2192 78.7084 41.4325C79.1244 41.6458 79.455 41.9178 79.7004 42.2485C79.9457 42.5792 80.1271 42.9312 80.2441 43.3045C80.3621 43.6778 80.4361 44.0325 80.4681 44.3685C80.5061 44.6992 80.5241 44.9685 80.5241 45.1765V50.0005H78.5724ZM72.5804 50.0005V41.3605H74.3004V44.0405H74.5324V50.0005H72.5804ZM85.0521 50.2485C84.4121 50.2485 83.8841 50.1418 83.4681 49.9285C83.0521 49.7152 82.7211 49.4432 82.4761 49.1125C82.2311 48.7818 82.0491 48.4298 81.9321 48.0565C81.8151 47.6832 81.7371 47.3312 81.7001 47.0005C81.6681 46.6645 81.6521 46.3925 81.6521 46.1845V41.3605H83.6041V45.5205C83.6041 45.7872 83.6231 46.0885 83.6601 46.4245C83.6971 46.7552 83.7831 47.0752 83.9161 47.3845C84.0551 47.6885 84.2571 47.9392 84.5241 48.1365C84.7961 48.3338 85.1611 48.4325 85.6201 48.4325C85.8651 48.4325 86.1081 48.3925 86.3481 48.3125C86.5881 48.2325 86.8041 48.0965 86.9961 47.9045C87.1931 47.7072 87.3511 47.4378 87.4681 47.0965C87.5851 46.7552 87.6441 46.3232 87.6441 45.8005L88.7881 46.2885C88.7881 47.0245 88.6441 47.6912 88.3561 48.2885C88.0731 48.8858 87.6551 49.3632 87.1001 49.7205C86.5451 50.0725 85.8631 50.2485 85.0521 50.2485ZM87.8761 50.0005V47.3205H87.6441V41.3605H89.5801V50.0005H87.8761ZM94.9561 50.2405C94.0811 50.2405 93.3131 50.0512 92.6521 49.6725C91.9901 49.2938 91.4731 48.7685 91.1001 48.0965C90.7321 47.4245 90.5481 46.6512 90.5481 45.7765C90.5481 44.8325 90.7291 44.0138 91.0921 43.3205C91.4541 42.6218 91.9581 42.0805 92.6041 41.6965C93.2491 41.3125 93.9961 41.1205 94.8441 41.1205C95.7401 41.1205 96.5001 41.3312 97.1241 41.7525C97.7531 42.1685 98.2201 42.7578 98.5241 43.5205C98.8281 44.2832 98.9421 45.1818 98.8681 46.2165H96.9561V45.5125C96.9501 44.5738 96.7851 43.8885 96.4601 43.4565C96.1341 43.0245 95.6221 42.8085 94.9241 42.8085C94.1341 42.8085 93.5481 43.0538 93.1641 43.5445C92.7801 44.0298 92.5881 44.7418 92.5881 45.6805C92.5881 46.5552 92.7801 47.2325 93.1641 47.7125C93.5481 48.1925 94.1081 48.4325 94.8441 48.4325C95.3181 48.4325 95.7261 48.3285 96.0681 48.1205C96.4141 47.9072 96.6811 47.6005 96.8681 47.2005L98.7721 47.7765C98.4411 48.5552 97.9291 49.1605 97.2361 49.5925C96.5481 50.0245 95.7881 50.2405 94.9561 50.2405ZM91.9801 46.2165V44.7605H97.9241V46.2165H91.9801Z" fill="#3F0B50"/>
<path d="M36.8794 64.5H165.879" stroke="#D9D9D9"/>
<path d="M41.0156 93.5925V91.6965H42.9436V93.5925H41.0156ZM41.0156 80.7925V78.8965H42.9436V80.7925H41.0156ZM42.0236 92.2405C41.2129 92.2405 40.4876 92.0915 39.8476 91.7925C39.2076 91.4935 38.6823 91.0725 38.2716 90.5285C37.8663 89.9845 37.6076 89.3395 37.4956 88.5925L39.3996 88.2885C39.5489 88.9445 39.8689 89.4675 40.3596 89.8565C40.8556 90.2405 41.4476 90.4325 42.1356 90.4325C42.7969 90.4325 43.3409 90.2775 43.7676 89.9685C44.1943 89.6535 44.4076 89.2565 44.4076 88.7765C44.4076 88.4405 44.3063 88.1685 44.1036 87.9605C43.9009 87.7475 43.5756 87.5715 43.1276 87.4325L40.3516 86.5685C38.7356 86.0675 37.9276 85.0855 37.9276 83.6245C37.9276 82.9415 38.0903 82.3475 38.4156 81.8405C38.7463 81.3285 39.2103 80.9365 39.8076 80.6645C40.4049 80.3872 41.1089 80.2512 41.9196 80.2565C42.6716 80.2618 43.3409 80.3978 43.9276 80.6645C44.5196 80.9312 45.0103 81.3155 45.3996 81.8165C45.7943 82.3175 46.0743 82.9205 46.2396 83.6245L44.2636 83.9845C44.1889 83.6055 44.0423 83.2725 43.8236 82.9845C43.6049 82.6965 43.3303 82.4725 42.9996 82.3125C42.6689 82.1525 42.3009 82.0675 41.8956 82.0565C41.5063 82.0515 41.1569 82.1125 40.8476 82.2405C40.5383 82.3635 40.2929 82.5395 40.1116 82.7685C39.9303 82.9925 39.8396 83.2455 39.8396 83.5285C39.8396 83.8435 39.9649 84.1125 40.2156 84.3365C40.4716 84.5605 40.8743 84.7525 41.4236 84.9125L43.4956 85.5125C44.4929 85.8005 45.2103 86.1925 45.6476 86.6885C46.0903 87.1795 46.3116 87.8325 46.3116 88.6485C46.3116 89.3635 46.1329 89.9895 45.7756 90.5285C45.4183 91.0675 44.9169 91.4885 44.2716 91.7925C43.6263 92.0915 42.8769 92.2405 42.0236 92.2405ZM49.2465 92.0005V82.5845L47.0865 83.9045V81.7765L49.2465 80.4805H51.2145V92.0005H49.2465ZM53.1415 92.0005V90.0245H55.1175V92.0005H53.1415ZM60.2968 92.2405C59.7102 92.2405 59.1635 92.1205 58.6568 91.8805C58.1502 91.6355 57.7128 91.2995 57.3448 90.8725C56.9822 90.4455 56.7208 89.9495 56.5608 89.3845L58.4168 88.8885C58.4915 89.1975 58.6275 89.4645 58.8248 89.6885C59.0275 89.9125 59.2622 90.0855 59.5288 90.2085C59.8008 90.3315 60.0808 90.3925 60.3688 90.3925C60.7422 90.3925 61.0835 90.3015 61.3928 90.1205C61.7022 89.9395 61.9475 89.6965 62.1288 89.3925C62.3102 89.0835 62.4008 88.7415 62.4008 88.3685C62.4008 87.9955 62.3075 87.6565 62.1208 87.3525C61.9395 87.0435 61.6942 86.8005 61.3848 86.6245C61.0755 86.4435 60.7368 86.3525 60.3688 86.3525C59.9262 86.3525 59.5582 86.4325 59.2648 86.5925C58.9768 86.7525 58.7555 86.9235 58.6008 87.1045L56.9528 86.5765L57.3048 80.4805H63.5608V82.2885H58.3368L59.0568 81.6085L58.8008 85.8485L58.4488 85.4165C58.7475 85.1445 59.0942 84.9415 59.4888 84.8085C59.8835 84.6755 60.2648 84.6085 60.6328 84.6085C61.3528 84.6085 61.9902 84.7735 62.5448 85.1045C63.1048 85.4295 63.5422 85.8755 63.8568 86.4405C64.1768 87.0055 64.3368 87.6485 64.3368 88.3685C64.3368 89.0885 64.1502 89.7415 63.7768 90.3285C63.4035 90.9095 62.9102 91.3735 62.2968 91.7205C61.6888 92.0675 61.0222 92.2405 60.2968 92.2405ZM67.859 92.0005V80.4805H69.595L73.579 88.6405L77.563 80.4805H79.299V92.0005H77.499V84.6165L73.963 92.0005H73.195L69.667 84.6165V92.0005H67.859Z" fill="#212121"/>
<path d="M160.879 76H108.879C106.67 76 104.879 77.7909 104.879 80V92C104.879 94.2091 106.67 96 108.879 96H160.879C163.088 96 164.879 94.2091 164.879 92V80C164.879 77.7909 163.088 76 160.879 76Z" fill="#1DBDD3"/>
<path d="M111.891 89.4097V87.1177H109.599V86.2357H111.891V83.9497H112.773V86.2357H115.059V87.1177H112.773V89.4097H111.891ZM117.528 90.9997V83.5417L115.902 84.5257V83.3317L117.528 82.3597H118.614V90.9997H117.528ZM122.853 91.1797C122.409 91.1797 121.995 91.0877 121.611 90.9037C121.231 90.7197 120.905 90.4677 120.633 90.1477C120.365 89.8237 120.173 89.4517 120.057 89.0317L121.083 88.7557C121.155 89.0397 121.283 89.2857 121.467 89.4937C121.651 89.6977 121.865 89.8577 122.109 89.9737C122.357 90.0857 122.615 90.1417 122.883 90.1417C123.235 90.1417 123.551 90.0577 123.831 89.8897C124.115 89.7177 124.339 89.4917 124.503 89.2117C124.667 88.9277 124.749 88.6177 124.749 88.2817C124.749 87.9337 124.663 87.6197 124.491 87.3397C124.323 87.0557 124.097 86.8317 123.813 86.6677C123.529 86.5037 123.219 86.4217 122.883 86.4217C122.503 86.4217 122.177 86.5017 121.905 86.6617C121.637 86.8177 121.425 87.0097 121.269 87.2377L120.321 86.8777L120.585 82.3597H125.223V83.3737H121.101L121.575 82.9297L121.353 86.5477L121.119 86.2417C121.359 85.9857 121.645 85.7877 121.977 85.6477C122.313 85.5077 122.655 85.4377 123.003 85.4377C123.539 85.4377 124.019 85.5637 124.443 85.8157C124.867 86.0637 125.203 86.4037 125.451 86.8357C125.699 87.2637 125.823 87.7457 125.823 88.2817C125.823 88.8137 125.687 89.2997 125.415 89.7397C125.143 90.1757 124.781 90.5257 124.329 90.7897C123.881 91.0497 123.389 91.1797 122.853 91.1797ZM126.85 90.9997V89.8237H128.026V90.9997H126.85ZM132.238 91.1797C131.69 91.1797 131.192 91.0477 130.744 90.7837C130.3 90.5197 129.946 90.1597 129.682 89.7037C129.422 89.2437 129.292 88.7257 129.292 88.1497V85.2757C129.292 84.6717 129.422 84.1377 129.682 83.6737C129.946 83.2057 130.306 82.8417 130.762 82.5817C131.222 82.3177 131.746 82.1857 132.334 82.1857C132.81 82.1857 133.252 82.2837 133.66 82.4797C134.072 82.6717 134.418 82.9497 134.698 83.3137L133.9 84.0217C133.728 83.7697 133.504 83.5697 133.228 83.4217C132.952 83.2737 132.654 83.1997 132.334 83.1997C131.954 83.1997 131.616 83.2917 131.32 83.4757C131.028 83.6557 130.798 83.8957 130.63 84.1957C130.462 84.4917 130.378 84.8117 130.378 85.1557V86.8897L130.144 86.6257C130.396 86.2657 130.716 85.9777 131.104 85.7617C131.492 85.5457 131.912 85.4377 132.364 85.4377C132.9 85.4377 133.38 85.5637 133.804 85.8157C134.232 86.0677 134.568 86.4097 134.812 86.8417C135.06 87.2697 135.184 87.7517 135.184 88.2877C135.184 88.8237 135.05 89.3097 134.782 89.7457C134.514 90.1817 134.156 90.5297 133.708 90.7897C133.264 91.0497 132.774 91.1797 132.238 91.1797ZM132.238 90.1477C132.582 90.1477 132.896 90.0657 133.18 89.9017C133.464 89.7337 133.688 89.5097 133.852 89.2297C134.02 88.9457 134.104 88.6317 134.104 88.2877C134.104 87.9437 134.02 87.6297 133.852 87.3457C133.688 87.0617 133.464 86.8377 133.18 86.6737C132.9 86.5057 132.588 86.4217 132.244 86.4217C131.9 86.4217 131.586 86.5057 131.302 86.6737C131.022 86.8377 130.798 87.0617 130.63 87.3457C130.462 87.6297 130.378 87.9437 130.378 88.2877C130.378 88.6277 130.46 88.9397 130.624 89.2237C130.792 89.5037 131.016 89.7277 131.296 89.8957C131.58 90.0637 131.894 90.1477 132.238 90.1477ZM137.105 90.9997L136.385 90.2797L144.317 82.3597L145.037 83.0797L137.105 90.9997ZM143.237 91.1797C142.841 91.1797 142.479 91.0837 142.151 90.8917C141.827 90.6957 141.567 90.4357 141.371 90.1117C141.175 89.7837 141.077 89.4197 141.077 89.0197C141.077 88.6277 141.177 88.2677 141.377 87.9397C141.577 87.6117 141.841 87.3497 142.169 87.1537C142.497 86.9577 142.853 86.8597 143.237 86.8597C143.633 86.8597 143.995 86.9577 144.323 87.1537C144.651 87.3457 144.911 87.6057 145.103 87.9337C145.299 88.2577 145.397 88.6197 145.397 89.0197C145.397 89.4197 145.299 89.7837 145.103 90.1117C144.911 90.4357 144.651 90.6957 144.323 90.8917C143.995 91.0837 143.633 91.1797 143.237 91.1797ZM143.237 90.2377C143.457 90.2377 143.659 90.1817 143.843 90.0697C144.031 89.9577 144.179 89.8097 144.287 89.6257C144.399 89.4417 144.455 89.2397 144.455 89.0197C144.455 88.7997 144.399 88.5977 144.287 88.4137C144.179 88.2257 144.031 88.0777 143.843 87.9697C143.659 87.8577 143.457 87.8017 143.237 87.8017C143.017 87.8017 142.815 87.8577 142.631 87.9697C142.447 88.0777 142.299 88.2257 142.187 88.4137C142.075 88.5977 142.019 88.7997 142.019 89.0197C142.019 89.2397 142.075 89.4417 142.187 89.6257C142.299 89.8097 142.447 89.9577 142.631 90.0697C142.815 90.1817 143.017 90.2377 143.237 90.2377ZM138.185 86.4997C137.789 86.4997 137.427 86.4037 137.099 86.2117C136.771 86.0157 136.509 85.7557 136.313 85.4317C136.121 85.1037 136.025 84.7397 136.025 84.3397C136.025 83.9477 136.125 83.5877 136.325 83.2597C136.525 82.9317 136.789 82.6697 137.117 82.4737C137.445 82.2777 137.801 82.1797 138.185 82.1797C138.581 82.1797 138.941 82.2777 139.265 82.4737C139.593 82.6657 139.855 82.9257 140.051 83.2537C140.247 83.5777 140.345 83.9397 140.345 84.3397C140.345 84.7397 140.247 85.1037 140.051 85.4317C139.855 85.7557 139.593 86.0157 139.265 86.2117C138.941 86.4037 138.581 86.4997 138.185 86.4997ZM138.185 85.5577C138.405 85.5577 138.607 85.5017 138.791 85.3897C138.979 85.2777 139.127 85.1297 139.235 84.9457C139.347 84.7617 139.403 84.5597 139.403 84.3397C139.403 84.1197 139.347 83.9177 139.235 83.7337C139.127 83.5457 138.979 83.3977 138.791 83.2897C138.607 83.1777 138.405 83.1217 138.185 83.1217C137.965 83.1217 137.763 83.1777 137.579 83.2897C137.395 83.3977 137.247 83.5457 137.135 83.7337C137.023 83.9177 136.967 84.1197 136.967 84.3397C136.967 84.5597 137.023 84.7617 137.135 84.9457C137.247 85.1297 137.395 85.2777 137.579 85.3897C137.763 85.5017 137.965 85.5577 138.185 85.5577Z" fill="white"/>
<path d="M151.359 83.8103L154.356 80.8134C154.533 80.6361 154.811 80.6198 155.006 80.7647L155.062 80.813L158.066 83.8093C158.261 84.0053 158.262 84.3213 158.066 84.5173C157.889 84.6943 157.611 84.7113 157.416 84.5663L157.359 84.5173L155.211 82.3733V90.8373C155.211 91.0903 155.023 91.2993 154.779 91.3323L154.711 91.3373C154.458 91.3373 154.249 91.1493 154.216 90.9043L154.211 90.8373V82.3713L152.066 84.5173C151.889 84.6943 151.611 84.7113 151.415 84.5653L151.359 84.5173C151.182 84.3393 151.166 84.0623 151.311 83.8663L151.359 83.8103Z" fill="white"/>
<path d="M36.6294 129.826L38.7836 130.818C40.9377 131.81 45.2461 133.794 49.5544 131.669C53.8627 129.544 58.1711 123.309 62.4794 122.976C66.7877 122.642 71.0961 128.211 75.4044 130.764C79.7127 133.318 84.021 132.858 88.329 132.898C92.638 132.939 96.946 133.481 101.254 131.576C105.563 129.671 109.871 125.319 114.179 124.475C118.488 123.631 122.796 126.295 127.104 126.115C131.413 125.934 135.721 122.91 140.029 120.342C144.338 117.775 148.646 115.665 152.954 114.518C157.263 113.37 161.571 113.185 163.725 113.093L165.879 113" stroke="#1DBDD3" stroke-width="1.5"/>
<path d="M38.7836 130.749L36.6294 129.761V159H165.879V113L163.725 113.092C161.571 113.184 157.263 113.369 152.954 114.512C148.646 115.655 144.338 117.757 140.029 120.314C135.721 122.871 131.413 125.884 127.104 126.064C122.796 126.244 118.488 123.59 114.179 124.43C109.871 125.271 105.563 129.606 101.254 131.504C96.946 133.402 92.638 132.862 88.329 132.821C84.021 132.781 79.7127 133.24 75.4044 130.696C71.0961 128.152 66.7877 122.605 62.4794 122.937C58.1711 123.269 53.8627 129.48 49.5544 131.597C45.2461 133.714 40.9377 131.738 38.7836 130.749Z" fill="url(#paint2_linear_226_2)"/>
<path d="M40.3352 192L37.1992 183.36H38.3912L40.9432 190.464L43.4792 183.36H44.6872L41.5512 192H40.3352ZM48.2357 192.232C47.2224 192.232 46.3877 192.013 45.7317 191.576C45.081 191.139 44.681 190.531 44.5317 189.752L45.7317 189.552C45.8597 190.043 46.1504 190.435 46.6037 190.728C47.0624 191.016 47.6277 191.16 48.2997 191.16C48.9557 191.16 49.473 191.024 49.8517 190.752C50.2304 190.475 50.4197 190.099 50.4197 189.624C50.4197 189.357 50.3584 189.141 50.2357 188.976C50.1184 188.805 49.8757 188.648 49.5077 188.504C49.1397 188.36 48.5904 188.189 47.8597 187.992C47.0757 187.779 46.4624 187.565 46.0197 187.352C45.577 187.139 45.2624 186.893 45.0757 186.616C44.889 186.333 44.7957 185.989 44.7957 185.584C44.7957 185.093 44.9344 184.664 45.2117 184.296C45.489 183.923 45.873 183.635 46.3637 183.432C46.8544 183.224 47.425 183.12 48.0757 183.12C48.7264 183.12 49.3077 183.227 49.8197 183.44C50.337 183.648 50.753 183.941 51.0677 184.32C51.3824 184.699 51.569 185.139 51.6277 185.64L50.4277 185.856C50.3477 185.349 50.0944 184.949 49.6677 184.656C49.2464 184.357 48.7104 184.203 48.0597 184.192C47.4464 184.176 46.9477 184.293 46.5637 184.544C46.1797 184.789 45.9877 185.117 45.9877 185.528C45.9877 185.757 46.057 185.955 46.1957 186.12C46.3344 186.28 46.585 186.432 46.9477 186.576C47.3157 186.72 47.8384 186.877 48.5157 187.048C49.3104 187.251 49.9344 187.464 50.3877 187.688C50.841 187.912 51.1637 188.176 51.3557 188.48C51.5477 188.784 51.6437 189.16 51.6437 189.608C51.6437 190.424 51.3397 191.067 50.7317 191.536C50.129 192 49.297 192.232 48.2357 192.232ZM55.1811 192V180.24H56.3571V192H55.1811ZM60.4274 192.24C59.7768 192.24 59.2301 192.123 58.7874 191.888C58.3501 191.653 58.0221 191.341 57.8034 190.952C57.5848 190.563 57.4754 190.139 57.4754 189.68C57.4754 189.211 57.5688 188.811 57.7554 188.48C57.9474 188.144 58.2061 187.869 58.5314 187.656C58.8621 187.443 59.2434 187.28 59.6754 187.168C60.1128 187.061 60.5954 186.968 61.1234 186.888C61.6568 186.803 62.1768 186.731 62.6834 186.672C63.1954 186.608 63.6434 186.547 64.0274 186.488L63.6114 186.744C63.6274 185.891 63.4621 185.259 63.1154 184.848C62.7688 184.437 62.1661 184.232 61.3074 184.232C60.7154 184.232 60.2141 184.365 59.8034 184.632C59.3981 184.899 59.1128 185.32 58.9474 185.896L57.8034 185.56C58.0008 184.787 58.3981 184.187 58.9954 183.76C59.5928 183.333 60.3688 183.12 61.3234 183.12C62.1128 183.12 62.7821 183.269 63.3314 183.568C63.8861 183.861 64.2781 184.288 64.5074 184.848C64.6141 185.099 64.6834 185.379 64.7154 185.688C64.7474 185.997 64.7634 186.312 64.7634 186.632V192H63.7154V189.832L64.0194 189.96C63.7261 190.701 63.2701 191.267 62.6514 191.656C62.0328 192.045 61.2914 192.24 60.4274 192.24ZM60.5634 191.224C61.1128 191.224 61.5928 191.125 62.0034 190.928C62.4141 190.731 62.7448 190.461 62.9954 190.12C63.2461 189.773 63.4088 189.384 63.4834 188.952C63.5474 188.675 63.5821 188.371 63.5874 188.04C63.5928 187.704 63.5954 187.453 63.5954 187.288L64.0434 187.52C63.6434 187.573 63.2088 187.627 62.7394 187.68C62.2754 187.733 61.8168 187.795 61.3634 187.864C60.9154 187.933 60.5101 188.016 60.1474 188.112C59.9021 188.181 59.6648 188.28 59.4354 188.408C59.2061 188.531 59.0168 188.696 58.8674 188.904C58.7234 189.112 58.6514 189.371 58.6514 189.68C58.6514 189.931 58.7128 190.173 58.8354 190.408C58.9634 190.643 59.1661 190.837 59.4434 190.992C59.7261 191.147 60.0994 191.224 60.5634 191.224ZM69.2701 192.232C68.2567 192.232 67.4221 192.013 66.7661 191.576C66.1154 191.139 65.7154 190.531 65.5661 189.752L66.7661 189.552C66.8941 190.043 67.1847 190.435 67.6381 190.728C68.0967 191.016 68.6621 191.16 69.3341 191.16C69.9901 191.16 70.5074 191.024 70.8861 190.752C71.2647 190.475 71.4541 190.099 71.4541 189.624C71.4541 189.357 71.3927 189.141 71.2701 188.976C71.1527 188.805 70.9101 188.648 70.5421 188.504C70.1741 188.36 69.6247 188.189 68.8941 187.992C68.1101 187.779 67.4967 187.565 67.0541 187.352C66.6114 187.139 66.2967 186.893 66.1101 186.616C65.9234 186.333 65.8301 185.989 65.8301 185.584C65.8301 185.093 65.9687 184.664 66.2461 184.296C66.5234 183.923 66.9074 183.635 67.3981 183.432C67.8887 183.224 68.4594 183.12 69.1101 183.12C69.7607 183.12 70.3421 183.227 70.8541 183.44C71.3714 183.648 71.7874 183.941 72.1021 184.32C72.4167 184.699 72.6034 185.139 72.6621 185.64L71.4621 185.856C71.3821 185.349 71.1287 184.949 70.7021 184.656C70.2807 184.357 69.7447 184.203 69.0941 184.192C68.4807 184.176 67.9821 184.293 67.5981 184.544C67.2141 184.789 67.0221 185.117 67.0221 185.528C67.0221 185.757 67.0914 185.955 67.2301 186.12C67.3687 186.28 67.6194 186.432 67.9821 186.576C68.3501 186.72 68.8727 186.877 69.5501 187.048C70.3447 187.251 70.9687 187.464 71.4221 187.688C71.8754 187.912 72.1981 188.176 72.3901 188.48C72.5821 188.784 72.6781 189.16 72.6781 189.608C72.6781 190.424 72.3741 191.067 71.7661 191.536C71.1634 192 70.3314 192.232 69.2701 192.232ZM78.3563 192C77.871 192.101 77.391 192.141 76.9163 192.12C76.447 192.099 76.0257 191.997 75.6523 191.816C75.2843 191.635 75.0043 191.352 74.8123 190.968C74.6577 190.648 74.5723 190.325 74.5563 190C74.5457 189.669 74.5403 189.293 74.5403 188.872V180.96H75.7083V188.824C75.7083 189.187 75.711 189.491 75.7163 189.736C75.727 189.976 75.783 190.189 75.8843 190.376C76.0763 190.733 76.3803 190.947 76.7963 191.016C77.2177 191.085 77.7377 191.069 78.3563 190.968V192ZM72.6923 184.368V183.36H78.3563V184.368H72.6923ZM91.9658 192L91.9738 186.328C91.9738 185.661 91.7868 185.139 91.4138 184.76C91.0458 184.376 90.5768 184.184 90.0058 184.184C89.6808 184.184 89.3628 184.259 89.0538 184.408C88.7448 184.557 88.4888 184.797 88.2858 185.128C88.0888 185.459 87.9898 185.891 87.9898 186.424L87.2938 186.224C87.2778 185.605 87.3978 185.064 87.6538 184.6C87.9148 184.136 88.2728 183.776 88.7258 183.52C89.1848 183.259 89.7018 183.128 90.2778 183.128C91.1468 183.128 91.8428 183.397 92.3658 183.936C92.8888 184.469 93.1498 185.192 93.1498 186.104L93.1418 192H91.9658ZM81.6538 192V183.36H82.7098V185.488H82.8378V192H81.6538ZM86.8218 192L86.8298 186.408C86.8298 185.72 86.6458 185.179 86.2778 184.784C85.9148 184.384 85.4348 184.184 84.8378 184.184C84.2408 184.184 83.7578 184.389 83.3898 184.8C83.0218 185.205 82.8378 185.747 82.8378 186.424L82.1338 186.04C82.1338 185.485 82.2648 184.989 82.5258 184.552C82.7868 184.109 83.1448 183.763 83.5978 183.512C84.0508 183.256 84.5658 183.128 85.1418 183.128C85.6908 183.128 86.1788 183.245 86.6058 183.48C87.0378 183.715 87.3768 184.056 87.6218 184.504C87.8668 184.952 87.9898 185.496 87.9898 186.136L87.9818 192H86.8218ZM97.9858 192.24C97.1268 192.24 96.3938 192.045 95.7858 191.656C95.1778 191.267 94.7108 190.728 94.3858 190.04C94.0598 189.352 93.8978 188.563 93.8978 187.672C93.8978 186.765 94.0628 185.971 94.3938 185.288C94.7238 184.605 95.1938 184.075 95.8018 183.696C96.4148 183.312 97.1428 183.12 97.9858 183.12C98.8498 183.12 99.5858 183.315 100.194 183.704C100.807 184.088 101.274 184.624 101.594 185.312C101.919 185.995 102.082 186.781 102.082 187.672C102.082 188.579 101.919 189.376 101.594 190.064C101.268 190.747 100.799 191.28 100.186 191.664C99.5718 192.048 98.8388 192.24 97.9858 192.24ZM97.9858 191.112C98.9458 191.112 99.6598 190.795 100.13 190.16C100.599 189.52 100.834 188.691 100.834 187.672C100.834 186.627 100.596 185.795 100.122 185.176C99.6518 184.557 98.9398 184.248 97.9858 184.248C97.3398 184.248 96.8068 184.395 96.3858 184.688C95.9698 184.976 95.6578 185.379 95.4498 185.896C95.2468 186.408 95.1458 187 95.1458 187.672C95.1458 188.712 95.3858 189.547 95.8658 190.176C96.3458 190.8 97.0518 191.112 97.9858 191.112ZM109.286 192V187.592C109.286 187.112 109.241 186.672 109.15 186.272C109.06 185.867 108.913 185.515 108.71 185.216C108.513 184.912 108.254 184.677 107.934 184.512C107.62 184.347 107.236 184.264 106.782 184.264C106.366 184.264 105.998 184.336 105.678 184.48C105.364 184.624 105.097 184.832 104.878 185.104C104.665 185.371 104.502 185.696 104.39 186.08C104.278 186.464 104.222 186.901 104.222 187.392L103.39 187.208C103.39 186.323 103.545 185.579 103.854 184.976C104.164 184.373 104.59 183.917 105.134 183.608C105.678 183.299 106.302 183.144 107.006 183.144C107.524 183.144 107.974 183.224 108.358 183.384C108.748 183.544 109.076 183.76 109.342 184.032C109.614 184.304 109.833 184.616 109.998 184.968C110.164 185.315 110.284 185.685 110.358 186.08C110.433 186.469 110.47 186.859 110.47 187.248V192H109.286ZM103.038 192V183.36H104.102V185.488H104.222V192H103.038ZM116.45 192C115.965 192.101 115.485 192.141 115.01 192.12C114.541 192.099 114.12 191.997 113.746 191.816C113.378 191.635 113.098 191.352 112.906 190.968C112.752 190.648 112.666 190.325 112.65 190C112.64 189.669 112.634 189.293 112.634 188.872V180.96H113.802V188.824C113.802 189.187 113.805 189.491 113.81 189.736C113.821 189.976 113.877 190.189 113.978 190.376C114.17 190.733 114.474 190.947 114.89 191.016C115.312 191.085 115.832 191.069 116.45 190.968V192ZM110.786 184.368V183.36H116.45V184.368H110.786ZM123.593 192V187.592C123.593 187.112 123.547 186.672 123.457 186.272C123.366 185.867 123.219 185.515 123.017 185.216C122.819 184.912 122.561 184.677 122.241 184.512C121.926 184.347 121.542 184.264 121.089 184.264C120.673 184.264 120.305 184.336 119.985 184.48C119.67 184.624 119.403 184.832 119.185 185.104C118.971 185.371 118.809 185.696 118.697 186.08C118.585 186.464 118.529 186.901 118.529 187.392L117.697 187.208C117.697 186.323 117.851 185.579 118.161 184.976C118.47 184.373 118.897 183.917 119.441 183.608C119.985 183.299 120.609 183.144 121.313 183.144C121.83 183.144 122.281 183.224 122.665 183.384C123.054 183.544 123.382 183.76 123.649 184.032C123.921 184.304 124.139 184.616 124.305 184.968C124.47 185.315 124.59 185.685 124.665 186.08C124.739 186.469 124.777 186.859 124.777 187.248V192H123.593ZM117.345 192V180.48H118.409V186.984H118.529V192H117.345Z" fill="#212121"/>
</g>
<g filter="url(#filter1_d_226_2)">
<path d="M197.879 27C197.879 21.4772 202.357 17 207.879 17H383.879C389.402 17 393.879 21.4772 393.879 27V216H197.879V27Z" fill="white"/>
<path d="M214.999 50.0002V38.4802H219.551C219.663 38.4802 219.797 38.4855 219.951 38.4962C220.106 38.5015 220.255 38.5175 220.399 38.5442C221.023 38.6402 221.546 38.8535 221.967 39.1842C222.394 39.5149 222.714 39.9335 222.927 40.4402C223.141 40.9415 223.247 41.4989 223.247 42.1122C223.247 42.7202 223.138 43.2775 222.919 43.7842C222.706 44.2855 222.386 44.7042 221.959 45.0402C221.538 45.3709 221.018 45.5842 220.399 45.6802C220.255 45.7015 220.106 45.7175 219.951 45.7282C219.797 45.7389 219.663 45.7442 219.551 45.7442H216.423V50.0002H214.999ZM216.423 44.3922H219.503C219.605 44.3922 219.719 44.3869 219.847 44.3762C219.981 44.3655 220.106 44.3469 220.223 44.3202C220.591 44.2349 220.89 44.0802 221.119 43.8562C221.354 43.6269 221.525 43.3602 221.631 43.0562C221.738 42.7469 221.791 42.4322 221.791 42.1122C221.791 41.7922 221.738 41.4802 221.631 41.1762C221.525 40.8669 221.354 40.5975 221.119 40.3682C220.89 40.1389 220.591 39.9842 220.223 39.9042C220.106 39.8722 219.981 39.8535 219.847 39.8482C219.719 39.8375 219.605 39.8322 219.503 39.8322H216.423V44.3922ZM224.843 50.0002V41.3602H226.115V43.4482L225.907 43.1762C226.008 42.9095 226.139 42.6642 226.299 42.4402C226.464 42.2162 226.648 42.0322 226.851 41.8882C227.075 41.7069 227.328 41.5682 227.611 41.4722C227.894 41.3762 228.182 41.3202 228.475 41.3042C228.768 41.2829 229.043 41.3015 229.299 41.3602V42.6962C229 42.6162 228.672 42.5949 228.315 42.6322C227.958 42.6695 227.627 42.8002 227.323 43.0242C227.046 43.2215 226.83 43.4615 226.675 43.7442C226.526 44.0269 226.422 44.3335 226.363 44.6642C226.304 44.9895 226.275 45.3229 226.275 45.6642V50.0002H224.843ZM234.336 50.2402C233.477 50.2402 232.736 50.0455 232.112 49.6562C231.493 49.2669 231.016 48.7282 230.68 48.0402C230.344 47.3522 230.176 46.5629 230.176 45.6722C230.176 44.7655 230.346 43.9709 230.688 43.2882C231.029 42.6055 231.512 42.0749 232.136 41.6962C232.76 41.3122 233.493 41.1202 234.336 41.1202C235.2 41.1202 235.944 41.3149 236.568 41.7042C237.192 42.0882 237.669 42.6242 238 43.3122C238.336 43.9949 238.504 44.7815 238.504 45.6722C238.504 46.5735 238.336 47.3682 238 48.0562C237.664 48.7389 237.184 49.2749 236.56 49.6642C235.936 50.0482 235.194 50.2402 234.336 50.2402ZM234.336 48.8882C235.232 48.8882 235.898 48.5895 236.336 47.9922C236.773 47.3949 236.992 46.6215 236.992 45.6722C236.992 44.6962 236.77 43.9202 236.328 43.3442C235.885 42.7629 235.221 42.4722 234.336 42.4722C233.733 42.4722 233.237 42.6082 232.848 42.8802C232.458 43.1522 232.168 43.5282 231.976 44.0082C231.784 44.4882 231.688 45.0429 231.688 45.6722C231.688 46.6429 231.912 47.4215 232.36 48.0082C232.808 48.5949 233.466 48.8882 234.336 48.8882ZM238.985 53.8402V52.4802H239.449C239.865 52.4802 240.182 52.3762 240.401 52.1682C240.62 51.9602 240.729 51.6295 240.729 51.1762V41.3602H242.153V51.6642C242.153 52.3735 241.969 52.9122 241.601 53.2802C241.238 53.6535 240.7 53.8402 239.985 53.8402H238.985ZM240.729 39.8322V38.3602H242.153V39.8322H240.729ZM248.212 50.2402C247.364 50.2402 246.623 50.0535 245.988 49.6802C245.359 49.3015 244.868 48.7762 244.516 48.1042C244.164 47.4269 243.988 46.6375 243.988 45.7362C243.988 44.7922 244.161 43.9762 244.508 43.2882C244.855 42.5949 245.337 42.0615 245.956 41.6882C246.58 41.3095 247.311 41.1202 248.148 41.1202C249.017 41.1202 249.756 41.3202 250.364 41.7202C250.977 42.1202 251.436 42.6909 251.74 43.4322C252.049 44.1735 252.183 45.0562 252.14 46.0802H250.7V45.5682C250.684 44.5069 250.468 43.7149 250.052 43.1922C249.636 42.6642 249.017 42.4002 248.196 42.4002C247.316 42.4002 246.647 42.6829 246.188 43.2482C245.729 43.8135 245.5 44.6242 245.5 45.6802C245.5 46.6989 245.729 47.4882 246.188 48.0482C246.647 48.6082 247.3 48.8882 248.148 48.8882C248.719 48.8882 249.215 48.7575 249.636 48.4962C250.057 48.2349 250.388 47.8589 250.628 47.3682L251.996 47.8402C251.66 48.6029 251.153 49.1949 250.476 49.6162C249.804 50.0322 249.049 50.2402 248.212 50.2402ZM245.02 46.0802V44.9362H251.404V46.0802H245.02ZM257.561 50.2402C256.687 50.2402 255.943 50.0455 255.329 49.6562C254.721 49.2615 254.257 48.7202 253.937 48.0322C253.617 47.3442 253.452 46.5602 253.441 45.6802C253.452 44.7789 253.62 43.9869 253.945 43.3042C254.276 42.6162 254.748 42.0802 255.361 41.6962C255.975 41.3122 256.713 41.1202 257.577 41.1202C258.489 41.1202 259.273 41.3442 259.929 41.7922C260.591 42.2402 261.033 42.8535 261.257 43.6322L259.849 44.0562C259.668 43.5549 259.372 43.1655 258.961 42.8882C258.556 42.6109 258.089 42.4722 257.561 42.4722C256.969 42.4722 256.481 42.6109 256.097 42.8882C255.713 43.1602 255.428 43.5389 255.241 44.0242C255.055 44.5042 254.959 45.0562 254.953 45.6802C254.964 46.6402 255.185 47.4162 255.617 48.0082C256.055 48.5949 256.703 48.8882 257.561 48.8882C258.127 48.8882 258.596 48.7602 258.969 48.5042C259.343 48.2429 259.625 47.8669 259.817 47.3762L261.257 47.7522C260.959 48.5575 260.492 49.1735 259.857 49.6002C259.223 50.0269 258.457 50.2402 257.561 50.2402ZM267.714 50.0002C267.202 50.1015 266.695 50.1415 266.194 50.1202C265.698 50.1042 265.255 50.0055 264.866 49.8242C264.477 49.6375 264.181 49.3495 263.978 48.9602C263.807 48.6189 263.714 48.2749 263.698 47.9282C263.687 47.5762 263.682 47.1789 263.682 46.7362V38.9602H265.106V46.6722C265.106 47.0242 265.109 47.3255 265.114 47.5762C265.125 47.8269 265.181 48.0429 265.282 48.2242C265.474 48.5655 265.778 48.7655 266.194 48.8242C266.615 48.8829 267.122 48.8669 267.714 48.7762V50.0002ZM261.93 42.5362V41.3602H267.714V42.5362H261.93ZM272.853 50.2402C272.005 50.2402 271.263 50.0535 270.629 49.6802C269.999 49.3015 269.509 48.7762 269.157 48.1042C268.805 47.4269 268.629 46.6375 268.629 45.7362C268.629 44.7922 268.802 43.9762 269.149 43.2882C269.495 42.5949 269.978 42.0615 270.597 41.6882C271.221 41.3095 271.951 41.1202 272.789 41.1202C273.658 41.1202 274.397 41.3202 275.005 41.7202C275.618 42.1202 276.077 42.6909 276.381 43.4322C276.69 44.1735 276.823 45.0562 276.781 46.0802H275.341V45.5682C275.325 44.5069 275.109 43.7149 274.693 43.1922C274.277 42.6642 273.658 42.4002 272.837 42.4002C271.957 42.4002 271.287 42.6829 270.829 43.2482C270.37 43.8135 270.141 44.6242 270.141 45.6802C270.141 46.6989 270.37 47.4882 270.829 48.0482C271.287 48.6082 271.941 48.8882 272.789 48.8882C273.359 48.8882 273.855 48.7575 274.277 48.4962C274.698 48.2349 275.029 47.8589 275.269 47.3682L276.637 47.8402C276.301 48.6029 275.794 49.1949 275.117 49.6162C274.445 50.0322 273.69 50.2402 272.853 50.2402ZM269.661 46.0802V44.9362H276.045V46.0802H269.661ZM281.954 50.2402C281.149 50.2402 280.458 50.0402 279.882 49.6402C279.306 49.2349 278.861 48.6882 278.546 48.0002C278.237 47.3122 278.082 46.5362 278.082 45.6722C278.082 44.8082 278.237 44.0322 278.546 43.3442C278.861 42.6562 279.306 42.1149 279.882 41.7202C280.458 41.3202 281.146 41.1202 281.946 41.1202C282.762 41.1202 283.447 41.3175 284.002 41.7122C284.557 42.1069 284.975 42.6482 285.258 43.3362C285.546 44.0242 285.69 44.8029 285.69 45.6722C285.69 46.5309 285.546 47.3069 285.258 48.0002C284.975 48.6882 284.557 49.2349 284.002 49.6402C283.447 50.0402 282.765 50.2402 281.954 50.2402ZM282.13 48.9362C282.711 48.9362 283.189 48.7975 283.562 48.5202C283.935 48.2375 284.21 47.8509 284.386 47.3602C284.567 46.8642 284.658 46.3015 284.658 45.6722C284.658 45.0322 284.567 44.4695 284.386 43.9842C284.21 43.4935 283.938 43.1122 283.57 42.8402C283.202 42.5629 282.735 42.4242 282.17 42.4242C281.583 42.4242 281.098 42.5682 280.714 42.8562C280.335 43.1442 280.053 43.5335 279.866 44.0242C279.685 44.5149 279.594 45.0642 279.594 45.6722C279.594 46.2855 279.687 46.8402 279.874 47.3362C280.061 47.8269 280.341 48.2162 280.714 48.5042C281.093 48.7922 281.565 48.9362 282.13 48.9362ZM284.658 50.0002V43.6402H284.498V38.4802H285.93V50.0002H284.658ZM291.374 50.0002V41.3602H292.646V43.4482L292.438 43.1762C292.54 42.9095 292.67 42.6642 292.83 42.4402C292.996 42.2162 293.18 42.0322 293.382 41.8882C293.606 41.7069 293.86 41.5682 294.142 41.4722C294.425 41.3762 294.713 41.3202 295.006 41.3042C295.3 41.2829 295.574 41.3015 295.83 41.3602V42.6962C295.532 42.6162 295.204 42.5949 294.846 42.6322C294.489 42.6695 294.158 42.8002 293.854 43.0242C293.577 43.2215 293.361 43.4615 293.206 43.7442C293.057 44.0269 292.953 44.3335 292.894 44.6642C292.836 44.9895 292.806 45.3229 292.806 45.6642V50.0002H291.374ZM300.931 50.2402C300.083 50.2402 299.342 50.0535 298.707 49.6802C298.078 49.3015 297.587 48.7762 297.235 48.1042C296.883 47.4269 296.707 46.6375 296.707 45.7362C296.707 44.7922 296.88 43.9762 297.227 43.2882C297.574 42.5949 298.056 42.0615 298.675 41.6882C299.299 41.3095 300.03 41.1202 300.867 41.1202C301.736 41.1202 302.475 41.3202 303.083 41.7202C303.696 42.1202 304.155 42.6909 304.459 43.4322C304.768 44.1735 304.902 45.0562 304.859 46.0802H303.419V45.5682C303.403 44.5069 303.187 43.7149 302.771 43.1922C302.355 42.6642 301.736 42.4002 300.915 42.4002C300.035 42.4002 299.366 42.6829 298.907 43.2482C298.448 43.8135 298.219 44.6242 298.219 45.6802C298.219 46.6989 298.448 47.4882 298.907 48.0482C299.366 48.6082 300.019 48.8882 300.867 48.8882C301.438 48.8882 301.934 48.7575 302.355 48.4962C302.776 48.2349 303.107 47.8589 303.347 47.3682L304.715 47.8402C304.379 48.6029 303.872 49.1949 303.195 49.6162C302.523 50.0322 301.768 50.2402 300.931 50.2402ZM297.739 46.0802V44.9362H304.123V46.0802H297.739ZM308.664 50.0002L305.528 41.3602H306.968L309.392 48.1842L311.808 41.3602H313.256L310.12 50.0002H308.664ZM318.134 50.2402C317.286 50.2402 316.545 50.0535 315.91 49.6802C315.281 49.3015 314.79 48.7762 314.438 48.1042C314.086 47.4269 313.91 46.6375 313.91 45.7362C313.91 44.7922 314.083 43.9762 314.43 43.2882C314.777 42.5949 315.259 42.0615 315.878 41.6882C316.502 41.3095 317.233 41.1202 318.07 41.1202C318.939 41.1202 319.678 41.3202 320.286 41.7202C320.899 42.1202 321.358 42.6909 321.662 43.4322C321.971 44.1735 322.105 45.0562 322.062 46.0802H320.622V45.5682C320.606 44.5069 320.39 43.7149 319.974 43.1922C319.558 42.6642 318.939 42.4002 318.118 42.4002C317.238 42.4002 316.569 42.6829 316.11 43.2482C315.651 43.8135 315.422 44.6242 315.422 45.6802C315.422 46.6989 315.651 47.4882 316.11 48.0482C316.569 48.6082 317.222 48.8882 318.07 48.8882C318.641 48.8882 319.137 48.7575 319.558 48.4962C319.979 48.2349 320.31 47.8589 320.55 47.3682L321.918 47.8402C321.582 48.6029 321.075 49.1949 320.398 49.6162C319.726 50.0322 318.971 50.2402 318.134 50.2402ZM314.942 46.0802V44.9362H321.326V46.0802H314.942ZM329.761 50.0002V45.6722C329.761 45.2615 329.723 44.8669 329.649 44.4882C329.579 44.1095 329.454 43.7709 329.273 43.4722C329.097 43.1682 328.857 42.9282 328.553 42.7522C328.254 42.5762 327.875 42.4882 327.417 42.4882C327.059 42.4882 326.734 42.5495 326.441 42.6722C326.153 42.7895 325.905 42.9709 325.697 43.2162C325.489 43.4615 325.326 43.7709 325.209 44.1442C325.097 44.5122 325.041 44.9469 325.041 45.4482L324.105 45.1602C324.105 44.3229 324.254 43.6055 324.553 43.0082C324.857 42.4055 325.281 41.9442 325.825 41.6242C326.374 41.2989 327.019 41.1362 327.761 41.1362C328.321 41.1362 328.798 41.2242 329.193 41.4002C329.587 41.5762 329.915 41.8109 330.177 42.1042C330.438 42.3922 330.643 42.7175 330.793 43.0802C330.942 43.4375 331.046 43.8029 331.105 44.1762C331.169 44.5442 331.201 44.8935 331.201 45.2242V50.0002H329.761ZM323.601 50.0002V41.3602H324.881V43.6722H325.041V50.0002H323.601ZM336.561 50.2242C336.006 50.2242 335.529 50.1362 335.129 49.9602C334.734 49.7842 334.406 49.5495 334.145 49.2562C333.883 48.9629 333.678 48.6375 333.529 48.2802C333.379 47.9229 333.273 47.5575 333.209 47.1842C333.15 46.8109 333.121 46.4615 333.121 46.1362V41.3602H334.561V45.6882C334.561 46.0935 334.598 46.4855 334.673 46.8642C334.747 47.2429 334.873 47.5842 335.049 47.8882C335.23 48.1922 335.47 48.4322 335.769 48.6082C336.073 48.7842 336.451 48.8722 336.905 48.8722C337.262 48.8722 337.587 48.8109 337.881 48.6882C338.174 48.5655 338.425 48.3842 338.633 48.1442C338.841 47.8989 339.001 47.5895 339.113 47.2162C339.225 46.8429 339.281 46.4082 339.281 45.9122L340.217 46.2002C340.217 47.0322 340.065 47.7495 339.761 48.3522C339.462 48.9549 339.038 49.4189 338.489 49.7442C337.945 50.0642 337.302 50.2242 336.561 50.2242ZM339.441 50.0002V47.6882H339.281V41.3602H340.713V50.0002H339.441ZM346.697 50.2402C345.849 50.2402 345.107 50.0535 344.473 49.6802C343.843 49.3015 343.353 48.7762 343.001 48.1042C342.649 47.4269 342.473 46.6375 342.473 45.7362C342.473 44.7922 342.646 43.9762 342.993 43.2882C343.339 42.5949 343.822 42.0615 344.441 41.6882C345.065 41.3095 345.795 41.1202 346.633 41.1202C347.502 41.1202 348.241 41.3202 348.849 41.7202C349.462 42.1202 349.921 42.6909 350.225 43.4322C350.534 44.1735 350.667 45.0562 350.625 46.0802H349.185V45.5682C349.169 44.5069 348.953 43.7149 348.537 43.1922C348.121 42.6642 347.502 42.4002 346.681 42.4002C345.801 42.4002 345.131 42.6829 344.673 43.2482C344.214 43.8135 343.985 44.6242 343.985 45.6802C343.985 46.6989 344.214 47.4882 344.673 48.0482C345.131 48.6082 345.785 48.8882 346.633 48.8882C347.203 48.8882 347.699 48.7575 348.121 48.4962C348.542 48.2349 348.873 47.8589 349.113 47.3682L350.481 47.8402C350.145 48.6029 349.638 49.1949 348.961 49.6162C348.289 50.0322 347.534 50.2402 346.697 50.2402ZM343.505 46.0802V44.9362H349.889V46.0802H343.505ZM356.433 50.0002V40.8882C356.433 40.6642 356.443 40.4375 356.465 40.2082C356.486 39.9735 356.534 39.7469 356.609 39.5282C356.683 39.3042 356.806 39.0989 356.977 38.9122C357.174 38.6935 357.39 38.5389 357.625 38.4482C357.859 38.3522 358.097 38.2935 358.337 38.2722C358.582 38.2509 358.814 38.2402 359.033 38.2402H360.129V39.4242H359.113C358.691 39.4242 358.377 39.5282 358.169 39.7362C357.961 39.9389 357.857 40.2482 357.857 40.6642V50.0002H356.433ZM354.969 42.5362V41.3602H360.129V42.5362H354.969ZM364.773 50.2402C363.914 50.2402 363.173 50.0455 362.549 49.6562C361.93 49.2669 361.453 48.7282 361.117 48.0402C360.781 47.3522 360.613 46.5629 360.613 45.6722C360.613 44.7655 360.784 43.9709 361.125 43.2882C361.466 42.6055 361.949 42.0749 362.573 41.6962C363.197 41.3122 363.93 41.1202 364.773 41.1202C365.637 41.1202 366.381 41.3149 367.005 41.7042C367.629 42.0882 368.106 42.6242 368.437 43.3122C368.773 43.9949 368.941 44.7815 368.941 45.6722C368.941 46.5735 368.773 47.3682 368.437 48.0562C368.101 48.7389 367.621 49.2749 366.997 49.6642C366.373 50.0482 365.632 50.2402 364.773 50.2402ZM364.773 48.8882C365.669 48.8882 366.336 48.5895 366.773 47.9922C367.21 47.3949 367.429 46.6215 367.429 45.6722C367.429 44.6962 367.208 43.9202 366.765 43.3442C366.322 42.7629 365.658 42.4722 364.773 42.4722C364.17 42.4722 363.674 42.6082 363.285 42.8802C362.896 43.1522 362.605 43.5282 362.413 44.0082C362.221 44.4882 362.125 45.0429 362.125 45.6722C362.125 46.6429 362.349 47.4215 362.797 48.0082C363.245 48.5949 363.904 48.8882 364.773 48.8882ZM370.703 50.0002V41.3602H371.975V43.4482L371.767 43.1762C371.868 42.9095 371.999 42.6642 372.159 42.4402C372.324 42.2162 372.508 42.0322 372.711 41.8882C372.935 41.7069 373.188 41.5682 373.471 41.4722C373.753 41.3762 374.041 41.3202 374.335 41.3042C374.628 41.2829 374.903 41.3015 375.159 41.3602V42.6962C374.86 42.6162 374.532 42.5949 374.175 42.6322C373.817 42.6695 373.487 42.8002 373.183 43.0242C372.905 43.2215 372.689 43.4615 372.535 43.7442C372.385 44.0269 372.281 44.3335 372.223 44.6642C372.164 44.9895 372.135 45.3229 372.135 45.6642V50.0002H370.703ZM219.823 72.0002C219.311 72.1015 218.805 72.1415 218.303 72.1202C217.807 72.1042 217.365 72.0055 216.975 71.8242C216.586 71.6375 216.29 71.3495 216.087 70.9602C215.917 70.6189 215.823 70.2749 215.807 69.9282C215.797 69.5762 215.791 69.1789 215.791 68.7362V60.9602H217.215V68.6722C217.215 69.0242 217.218 69.3255 217.223 69.5762C217.234 69.8269 217.29 70.0429 217.391 70.2242C217.583 70.5655 217.887 70.7655 218.303 70.8242C218.725 70.8829 219.231 70.8669 219.823 70.7762V72.0002ZM214.039 64.5362V63.3602H219.823V64.5362H214.039ZM227.73 72.0002V67.6722C227.73 67.2615 227.692 66.8669 227.618 66.4882C227.548 66.1095 227.423 65.7709 227.242 65.4722C227.066 65.1682 226.826 64.9282 226.522 64.7522C226.223 64.5762 225.844 64.4882 225.386 64.4882C225.028 64.4882 224.703 64.5495 224.41 64.6722C224.122 64.7895 223.874 64.9709 223.666 65.2162C223.458 65.4615 223.295 65.7709 223.178 66.1442C223.066 66.5122 223.01 66.9469 223.01 67.4482L222.074 67.1602C222.074 66.3229 222.223 65.6055 222.522 65.0082C222.826 64.4055 223.25 63.9442 223.794 63.6242C224.343 63.2989 224.988 63.1362 225.73 63.1362C226.29 63.1362 226.767 63.2242 227.162 63.4002C227.556 63.5762 227.884 63.8109 228.146 64.1042C228.407 64.3922 228.612 64.7175 228.762 65.0802C228.911 65.4375 229.015 65.8029 229.074 66.1762C229.138 66.5442 229.17 66.8935 229.17 67.2242V72.0002H227.73ZM221.57 72.0002V60.4802H222.85V66.8402H223.01V72.0002H221.57ZM234.993 72.2402C234.145 72.2402 233.404 72.0535 232.769 71.6802C232.14 71.3015 231.649 70.7762 231.297 70.1042C230.945 69.4269 230.769 68.6375 230.769 67.7362C230.769 66.7922 230.943 65.9762 231.289 65.2882C231.636 64.5949 232.119 64.0615 232.737 63.6882C233.361 63.3095 234.092 63.1202 234.929 63.1202C235.799 63.1202 236.537 63.3202 237.145 63.7202C237.759 64.1202 238.217 64.6909 238.521 65.4322C238.831 66.1735 238.964 67.0562 238.921 68.0802H237.481V67.5682C237.465 66.5069 237.249 65.7149 236.833 65.1922C236.417 64.6642 235.799 64.4002 234.977 64.4002C234.097 64.4002 233.428 64.6829 232.969 65.2482C232.511 65.8135 232.281 66.6242 232.281 67.6802C232.281 68.6989 232.511 69.4882 232.969 70.0482C233.428 70.6082 234.081 70.8882 234.929 70.8882C235.5 70.8882 235.996 70.7575 236.417 70.4962C236.839 70.2349 237.169 69.8589 237.409 69.3682L238.777 69.8402C238.441 70.6029 237.935 71.1949 237.257 71.6162C236.585 72.0322 235.831 72.2402 234.993 72.2402ZM231.801 68.0802V66.9362H238.185V68.0802H231.801ZM250.058 72.0002V67.6722C250.058 67.2615 250.02 66.8669 249.946 66.4882C249.876 66.1095 249.751 65.7709 249.57 65.4722C249.394 65.1682 249.154 64.9282 248.85 64.7522C248.551 64.5762 248.172 64.4882 247.714 64.4882C247.356 64.4882 247.031 64.5495 246.738 64.6722C246.45 64.7895 246.202 64.9709 245.994 65.2162C245.786 65.4615 245.623 65.7709 245.506 66.1442C245.394 66.5122 245.338 66.9469 245.338 67.4482L244.402 67.1602C244.402 66.3229 244.551 65.6055 244.85 65.0082C245.154 64.4055 245.578 63.9442 246.122 63.6242C246.671 63.2989 247.316 63.1362 248.058 63.1362C248.618 63.1362 249.095 63.2242 249.49 63.4002C249.884 63.5762 250.212 63.8109 250.474 64.1042C250.735 64.3922 250.94 64.7175 251.09 65.0802C251.239 65.4375 251.343 65.8029 251.402 66.1762C251.466 66.5442 251.498 66.8935 251.498 67.2242V72.0002H250.058ZM243.898 72.0002V63.3602H245.178V65.6722H245.338V72.0002H243.898ZM257.243 72.2402C256.395 72.2402 255.654 72.0535 255.019 71.6802C254.39 71.3015 253.899 70.7762 253.547 70.1042C253.195 69.4269 253.019 68.6375 253.019 67.7362C253.019 66.7922 253.193 65.9762 253.539 65.2882C253.886 64.5949 254.369 64.0615 254.987 63.6882C255.611 63.3095 256.342 63.1202 257.179 63.1202C258.049 63.1202 258.787 63.3202 259.395 63.7202C260.009 64.1202 260.467 64.6909 260.771 65.4322C261.081 66.1735 261.214 67.0562 261.171 68.0802H259.731V67.5682C259.715 66.5069 259.499 65.7149 259.083 65.1922C258.667 64.6642 258.049 64.4002 257.227 64.4002C256.347 64.4002 255.678 64.6829 255.219 65.2482C254.761 65.8135 254.531 66.6242 254.531 67.6802C254.531 68.6989 254.761 69.4882 255.219 70.0482C255.678 70.6082 256.331 70.8882 257.179 70.8882C257.75 70.8882 258.246 70.7575 258.667 70.4962C259.089 70.2349 259.419 69.8589 259.659 69.3682L261.027 69.8402C260.691 70.6029 260.185 71.1949 259.507 71.6162C258.835 72.0322 258.081 72.2402 257.243 72.2402ZM254.051 68.0802V66.9362H260.435V68.0802H254.051ZM261.68 72.0002L264.984 67.6322L261.752 63.3602H263.448L265.816 66.5282L268.16 63.3602H269.856L266.624 67.6322L269.936 72.0002H268.232L265.816 68.7362L263.384 72.0002H261.68ZM276.042 72.0002C275.53 72.1015 275.023 72.1415 274.522 72.1202C274.026 72.1042 273.583 72.0055 273.194 71.8242C272.805 71.6375 272.509 71.3495 272.306 70.9602C272.135 70.6189 272.042 70.2749 272.026 69.9282C272.015 69.5762 272.01 69.1789 272.01 68.7362V60.9602H273.434V68.6722C273.434 69.0242 273.437 69.3255 273.442 69.5762C273.453 69.8269 273.509 70.0429 273.61 70.2242C273.802 70.5655 274.106 70.7655 274.522 70.8242C274.943 70.8829 275.45 70.8669 276.042 70.7762V72.0002ZM270.258 64.5362V63.3602H276.042V64.5362H270.258ZM291.327 72.0002L291.335 66.4722C291.335 65.8269 291.162 65.3229 290.815 64.9602C290.474 64.5922 290.029 64.4082 289.479 64.4082C289.159 64.4082 288.855 64.4829 288.567 64.6322C288.279 64.7762 288.045 65.0055 287.863 65.3202C287.682 65.6295 287.591 66.0269 287.591 66.5122L286.839 66.2082C286.829 65.5949 286.954 65.0589 287.215 64.6002C287.482 64.1362 287.845 63.7762 288.303 63.5202C288.762 63.2642 289.279 63.1362 289.855 63.1362C290.757 63.1362 291.466 63.4109 291.983 63.9602C292.501 64.5042 292.759 65.2375 292.759 66.1602L292.751 72.0002H291.327ZM280.991 72.0002V63.3602H282.263V65.6722H282.423V72.0002H280.991ZM286.167 72.0002L286.175 66.5282C286.175 65.8669 286.005 65.3495 285.663 64.9762C285.322 64.5975 284.869 64.4082 284.303 64.4082C283.743 64.4082 283.29 64.6002 282.943 64.9842C282.597 65.3682 282.423 65.8775 282.423 66.5122L281.671 66.0642C281.671 65.5042 281.805 65.0029 282.071 64.5602C282.338 64.1175 282.701 63.7709 283.159 63.5202C283.618 63.2642 284.138 63.1362 284.719 63.1362C285.301 63.1362 285.807 63.2589 286.239 63.5042C286.671 63.7495 287.005 64.1015 287.239 64.5602C287.474 65.0135 287.591 65.5549 287.591 66.1842L287.583 72.0002H286.167ZM298.445 72.2402C297.586 72.2402 296.845 72.0455 296.221 71.6562C295.602 71.2669 295.125 70.7282 294.789 70.0402C294.453 69.3522 294.285 68.5629 294.285 67.6722C294.285 66.7655 294.456 65.9709 294.797 65.2882C295.138 64.6055 295.621 64.0749 296.245 63.6962C296.869 63.3122 297.602 63.1202 298.445 63.1202C299.309 63.1202 300.053 63.3149 300.677 63.7042C301.301 64.0882 301.778 64.6242 302.109 65.3122C302.445 65.9949 302.613 66.7815 302.613 67.6722C302.613 68.5735 302.445 69.3682 302.109 70.0562C301.773 70.7389 301.293 71.2749 300.669 71.6642C300.045 72.0482 299.304 72.2402 298.445 72.2402ZM298.445 70.8882C299.341 70.8882 300.008 70.5895 300.445 69.9922C300.882 69.3949 301.101 68.6215 301.101 67.6722C301.101 66.6962 300.88 65.9202 300.437 65.3442C299.994 64.7629 299.33 64.4722 298.445 64.4722C297.842 64.4722 297.346 64.6082 296.957 64.8802C296.568 65.1522 296.277 65.5282 296.085 66.0082C295.893 66.4882 295.797 67.0429 295.797 67.6722C295.797 68.6429 296.021 69.4215 296.469 70.0082C296.917 70.5949 297.576 70.8882 298.445 70.8882ZM310.526 72.0002V67.6722C310.526 67.2615 310.489 66.8669 310.414 66.4882C310.345 66.1095 310.22 65.7709 310.038 65.4722C309.862 65.1682 309.622 64.9282 309.318 64.7522C309.02 64.5762 308.641 64.4882 308.182 64.4882C307.825 64.4882 307.5 64.5495 307.206 64.6722C306.918 64.7895 306.67 64.9709 306.462 65.2162C306.254 65.4615 306.092 65.7709 305.974 66.1442C305.862 66.5122 305.806 66.9469 305.806 67.4482L304.87 67.1602C304.87 66.3229 305.02 65.6055 305.318 65.0082C305.622 64.4055 306.046 63.9442 306.59 63.6242C307.14 63.2989 307.785 63.1362 308.526 63.1362C309.086 63.1362 309.564 63.2242 309.958 63.4002C310.353 63.5762 310.681 63.8109 310.942 64.1042C311.204 64.3922 311.409 64.7175 311.558 65.0802C311.708 65.4375 311.812 65.8029 311.87 66.1762C311.934 66.5442 311.966 66.8935 311.966 67.2242V72.0002H310.526ZM304.366 72.0002V63.3602H305.646V65.6722H305.806V72.0002H304.366ZM318.87 72.0002C318.358 72.1015 317.852 72.1415 317.35 72.1202C316.854 72.1042 316.412 72.0055 316.022 71.8242C315.633 71.6375 315.337 71.3495 315.134 70.9602C314.964 70.6189 314.87 70.2749 314.854 69.9282C314.844 69.5762 314.838 69.1789 314.838 68.7362V60.9602H316.262V68.6722C316.262 69.0242 316.265 69.3255 316.27 69.5762C316.281 69.8269 316.337 70.0429 316.438 70.2242C316.63 70.5655 316.934 70.7655 317.35 70.8242C317.772 70.8829 318.278 70.8669 318.87 70.7762V72.0002ZM313.086 64.5362V63.3602H318.87V64.5362H313.086ZM326.776 72.0002V67.6722C326.776 67.2615 326.739 66.8669 326.664 66.4882C326.595 66.1095 326.47 65.7709 326.288 65.4722C326.112 65.1682 325.872 64.9282 325.568 64.7522C325.27 64.5762 324.891 64.4882 324.432 64.4882C324.075 64.4882 323.75 64.5495 323.456 64.6722C323.168 64.7895 322.92 64.9709 322.712 65.2162C322.504 65.4615 322.342 65.7709 322.224 66.1442C322.112 66.5122 322.056 66.9469 322.056 67.4482L321.12 67.1602C321.12 66.3229 321.27 65.6055 321.568 65.0082C321.872 64.4055 322.296 63.9442 322.84 63.6242C323.39 63.2989 324.035 63.1362 324.776 63.1362C325.336 63.1362 325.814 63.2242 326.208 63.4002C326.603 63.5762 326.931 63.8109 327.192 64.1042C327.454 64.3922 327.659 64.7175 327.808 65.0802C327.958 65.4375 328.062 65.8029 328.12 66.1762C328.184 66.5442 328.216 66.8935 328.216 67.2242V72.0002H326.776ZM320.616 72.0002V60.4802H321.896V66.8402H322.056V72.0002H320.616Z" fill="#212121"/>
<path d="M286.639 130V125.24H273.879V120.74L283.099 101.2H288.599L279.379 120.74H286.639V113.24H291.519V120.74H294.219V125.24H291.519V130H286.639ZM293.834 130L303.594 115.44L294.114 101.2H300.014L306.574 111.34L313.074 101.2H319.014L309.534 115.44L319.254 130H313.354L306.574 119.54L299.774 130H293.834Z" fill="black"/>
<path d="M286.639 130V125.24H273.879V120.74L283.099 101.2H288.599L279.379 120.74H286.639V113.24H291.519V120.74H294.219V125.24H291.519V130H286.639ZM293.834 130L303.594 115.44L294.114 101.2H300.014L306.574 111.34L313.074 101.2H319.014L309.534 115.44L319.254 130H313.354L306.574 119.54L299.774 130H293.834Z" fill="url(#paint3_linear_226_2)"/>
<path d="M214.859 167V156.92H220.83V158.383H216.322V161.225H219.99V162.695H216.322V167H214.859ZM224.54 167.21C223.788 167.21 223.128 167.047 222.559 166.72C221.994 166.389 221.553 165.929 221.236 165.341C220.923 164.748 220.767 164.062 220.767 163.283C220.767 162.457 220.921 161.741 221.229 161.134C221.541 160.527 221.975 160.058 222.531 159.727C223.086 159.396 223.732 159.23 224.47 159.23C225.24 159.23 225.895 159.41 226.437 159.769C226.978 160.124 227.382 160.63 227.648 161.288C227.918 161.946 228.026 162.728 227.97 163.633H226.507V163.101C226.497 162.224 226.329 161.575 226.003 161.155C225.681 160.735 225.188 160.525 224.526 160.525C223.793 160.525 223.242 160.756 222.874 161.218C222.505 161.68 222.321 162.347 222.321 163.22C222.321 164.051 222.505 164.695 222.874 165.152C223.242 165.605 223.774 165.831 224.47 165.831C224.927 165.831 225.321 165.728 225.653 165.523C225.989 165.313 226.25 165.014 226.437 164.627L227.872 165.082C227.578 165.759 227.132 166.284 226.535 166.657C225.937 167.026 225.272 167.21 224.54 167.21ZM221.845 163.633V162.492H227.242V163.633H221.845ZM232.389 167.21C231.666 167.21 231.059 167.035 230.569 166.685C230.079 166.33 229.708 165.852 229.456 165.25C229.204 164.648 229.078 163.969 229.078 163.213C229.078 162.457 229.202 161.778 229.449 161.176C229.701 160.574 230.07 160.1 230.555 159.755C231.045 159.405 231.647 159.23 232.361 159.23C233.071 159.23 233.682 159.405 234.195 159.755C234.713 160.1 235.112 160.574 235.392 161.176C235.672 161.773 235.812 162.452 235.812 163.213C235.812 163.969 235.672 164.65 235.392 165.257C235.117 165.859 234.723 166.335 234.209 166.685C233.701 167.035 233.094 167.21 232.389 167.21ZM228.833 167V156.92H230.303V161.561H230.135V167H228.833ZM232.186 165.887C232.653 165.887 233.038 165.768 233.341 165.53C233.649 165.292 233.878 164.972 234.027 164.571C234.181 164.165 234.258 163.712 234.258 163.213C234.258 162.718 234.181 162.27 234.027 161.869C233.878 161.468 233.647 161.148 233.334 160.91C233.022 160.672 232.623 160.553 232.137 160.553C231.68 160.553 231.302 160.665 231.003 160.889C230.709 161.113 230.49 161.426 230.345 161.827C230.205 162.228 230.135 162.69 230.135 163.213C230.135 163.736 230.205 164.198 230.345 164.599C230.485 165 230.707 165.315 231.01 165.544C231.314 165.773 231.706 165.887 232.186 165.887Z" fill="black"/>
<path d="M244.879 153.907V169.093H275.847V153.907H244.879Z" fill="#E2ECFF"/>
<path d="M286.584 167V158.53L284.687 159.685V158.054L286.584 156.92H288.075V167H286.584ZM289.725 167V165.453H291.272V167H289.725ZM295.768 167.21C295.25 167.21 294.767 167.105 294.319 166.895C293.876 166.68 293.495 166.386 293.178 166.013C292.861 165.635 292.634 165.201 292.499 164.711L293.906 164.333C293.985 164.632 294.121 164.891 294.312 165.11C294.508 165.329 294.737 165.5 294.998 165.621C295.259 165.738 295.53 165.796 295.81 165.796C296.179 165.796 296.512 165.707 296.811 165.53C297.114 165.353 297.352 165.115 297.525 164.816C297.702 164.517 297.791 164.188 297.791 163.829C297.791 163.46 297.7 163.127 297.518 162.828C297.341 162.529 297.1 162.294 296.797 162.121C296.498 161.944 296.169 161.855 295.81 161.855C295.399 161.855 295.052 161.937 294.767 162.1C294.482 162.263 294.261 162.452 294.102 162.667L292.828 162.219L293.136 156.92H298.575V158.299H293.885L294.48 157.746L294.235 161.715L293.948 161.344C294.214 161.078 294.531 160.875 294.9 160.735C295.269 160.595 295.635 160.525 295.999 160.525C296.624 160.525 297.182 160.67 297.672 160.959C298.167 161.248 298.556 161.643 298.841 162.142C299.126 162.637 299.268 163.199 299.268 163.829C299.268 164.454 299.107 165.024 298.785 165.537C298.463 166.046 298.036 166.452 297.504 166.755C296.972 167.058 296.393 167.21 295.768 167.21ZM302.344 167V156.92H303.667L307.321 164.501L310.954 156.92H312.291V166.993H310.905V160.098L307.65 167H306.985L303.723 160.098V167H302.344Z" fill="black"/>
<path d="M214.859 196V185.92H216.182L219.836 193.501L223.469 185.92H224.806V195.993H223.42V189.098L220.165 196H219.5L216.238 189.098V196H214.859ZM228.203 196.21C227.643 196.21 227.174 196.107 226.796 195.902C226.418 195.692 226.131 195.417 225.935 195.076C225.743 194.731 225.648 194.353 225.648 193.942C225.648 193.559 225.715 193.223 225.851 192.934C225.986 192.645 226.187 192.4 226.453 192.199C226.719 191.994 227.045 191.828 227.433 191.702C227.769 191.604 228.149 191.518 228.574 191.443C228.998 191.368 229.444 191.298 229.911 191.233C230.382 191.168 230.849 191.102 231.311 191.037L230.779 191.331C230.788 190.738 230.662 190.3 230.401 190.015C230.144 189.726 229.701 189.581 229.071 189.581C228.674 189.581 228.31 189.674 227.979 189.861C227.647 190.043 227.416 190.346 227.286 190.771L225.921 190.351C226.107 189.702 226.462 189.187 226.985 188.804C227.512 188.421 228.212 188.23 229.085 188.23C229.761 188.23 230.349 188.347 230.849 188.58C231.353 188.809 231.721 189.173 231.955 189.672C232.076 189.919 232.151 190.181 232.179 190.456C232.207 190.731 232.221 191.028 232.221 191.345V196H230.926V194.271L231.178 194.495C230.865 195.074 230.466 195.505 229.981 195.79C229.5 196.07 228.907 196.21 228.203 196.21ZM228.462 195.013C228.877 195.013 229.234 194.941 229.533 194.796C229.831 194.647 230.072 194.458 230.254 194.229C230.436 194 230.555 193.762 230.611 193.515C230.69 193.291 230.734 193.039 230.744 192.759C230.758 192.479 230.765 192.255 230.765 192.087L231.241 192.262C230.779 192.332 230.359 192.395 229.981 192.451C229.603 192.507 229.26 192.563 228.952 192.619C228.648 192.67 228.378 192.733 228.14 192.808C227.939 192.878 227.759 192.962 227.601 193.06C227.447 193.158 227.323 193.277 227.23 193.417C227.141 193.557 227.097 193.727 227.097 193.928C227.097 194.124 227.146 194.306 227.244 194.474C227.342 194.637 227.491 194.768 227.692 194.866C227.892 194.964 228.149 195.013 228.462 195.013ZM233.338 196V188.44H234.64V190.274L234.458 190.036C234.552 189.793 234.673 189.572 234.822 189.371C234.972 189.166 235.144 188.998 235.34 188.867C235.532 188.727 235.744 188.62 235.977 188.545C236.215 188.466 236.458 188.419 236.705 188.405C236.953 188.386 237.191 188.398 237.419 188.44V189.812C237.172 189.747 236.897 189.728 236.593 189.756C236.295 189.784 236.019 189.88 235.767 190.043C235.529 190.197 235.34 190.384 235.2 190.603C235.065 190.822 234.967 191.067 234.906 191.338C234.846 191.604 234.815 191.886 234.815 192.185V196H233.338Z" fill="black"/>
<path d="M245.879 183V198H352.879V183H245.879Z" fill="#1DBDD3"/>
<path d="M365.324 196.21C364.671 196.21 364.083 196.056 363.56 195.748C363.038 195.435 362.622 195.008 362.314 194.467C362.011 193.926 361.859 193.31 361.859 192.619V189.406C361.859 188.673 362.011 188.029 362.314 187.474C362.622 186.919 363.047 186.487 363.588 186.179C364.134 185.871 364.762 185.717 365.471 185.717C366.003 185.717 366.503 185.817 366.969 186.018C367.436 186.219 367.84 186.517 368.18 186.914L367.109 187.915C366.918 187.668 366.678 187.472 366.388 187.327C366.104 187.178 365.798 187.103 365.471 187.103C365.051 187.103 364.683 187.203 364.365 187.404C364.048 187.6 363.798 187.859 363.616 188.181C363.439 188.503 363.35 188.848 363.35 189.217V191.065L363.063 190.743C363.353 190.365 363.712 190.066 364.141 189.847C364.571 189.628 365.03 189.518 365.52 189.518C366.146 189.518 366.703 189.665 367.193 189.959C367.688 190.248 368.075 190.643 368.355 191.142C368.64 191.641 368.782 192.204 368.782 192.829C368.782 193.459 368.624 194.031 368.306 194.544C367.994 195.053 367.574 195.459 367.046 195.762C366.524 196.061 365.95 196.21 365.324 196.21ZM365.324 194.803C365.688 194.803 366.02 194.714 366.318 194.537C366.617 194.36 366.855 194.122 367.032 193.823C367.21 193.524 367.298 193.193 367.298 192.829C367.298 192.465 367.21 192.134 367.032 191.835C366.86 191.536 366.624 191.298 366.325 191.121C366.027 190.944 365.695 190.855 365.331 190.855C364.967 190.855 364.634 190.944 364.33 191.121C364.032 191.298 363.794 191.536 363.616 191.835C363.439 192.134 363.35 192.465 363.35 192.829C363.35 193.188 363.439 193.517 363.616 193.816C363.794 194.115 364.032 194.355 364.33 194.537C364.629 194.714 364.96 194.803 365.324 194.803ZM371.957 196V185.92H373.28L376.934 193.501L380.567 185.92H381.904V195.993H380.518V189.098L377.263 196H376.598L373.336 189.098V196H371.957Z" fill="black"/>
</g>
</g>
<defs>
<filter id="filter0_d_226_2" x="-19.1206" y="-19" width="241" height="276" filterUnits="userSpaceOnUse" color-interpolation-filters="sRGB">
<feFlood flood-opacity="0" result="BackgroundImageFix"/>
<feColorMatrix in="SourceAlpha" type="matrix" values="0 0 0 0 0 0 0 0 0 0 0 0 0 0 0 0 0 0 127 0" result="hardAlpha"/>
<feOffset dy="4"/>
<feGaussianBlur stdDeviation="20"/>
<feComposite in2="hardAlpha" operator="out"/>
<feColorMatrix type="matrix" values="0 0 0 0 0 0 0 0 0 0 0 0 0 0 0 0 0 0 0.05 0"/>
<feBlend mode="normal" in2="BackgroundImageFix" result="effect1_dropShadow_226_2"/>
<feBlend mode="normal" in="SourceGraphic" in2="effect1_dropShadow_226_2" result="shape"/>
</filter>
<filter id="filter1_d_226_2" x="157.879" y="-19" width="276" height="279" filterUnits="userSpaceOnUse" color-interpolation-filters="sRGB">
<feFlood flood-opacity="0" result="BackgroundImageFix"/>
<feColorMatrix in="SourceAlpha" type="matrix" values="0 0 0 0 0 0 0 0 0 0 0 0 0 0 0 0 0 0 127 0" result="hardAlpha"/>
<feOffset dy="4"/>
<feGaussianBlur stdDeviation="20"/>
<feComposite in2="hardAlpha" operator="out"/>
<feColorMatrix type="matrix" values="0 0 0 0 0 0 0 0 0 0 0 0 0 0 0 0 0 0 0.05 0"/>
<feBlend mode="normal" in2="BackgroundImageFix" result="effect1_dropShadow_226_2"/>
<feBlend mode="normal" in="SourceGraphic" in2="effect1_dropShadow_226_2" result="shape"/>
</filter>
<radialGradient id="paint0_radial_226_2" cx="0" cy="0" r="1" gradientUnits="userSpaceOnUse" gradientTransform="translate(230.87 242.948) rotate(-90) scale(271.642 536.643)">
<stop stop-color="#F1F1F1"/>
<stop offset="0.63194" stop-color="white"/>
</radialGradient>
<linearGradient id="paint1_linear_226_2" x1="207.379" y1="1" x2="207.379" y2="216" gradientUnits="userSpaceOnUse">
<stop stop-color="#3F0B50" stop-opacity="0.5"/>
<stop offset="1" stop-opacity="0"/>
</linearGradient>
<linearGradient id="paint2_linear_226_2" x1="101.254" y1="113" x2="101.254" y2="159" gradientUnits="userSpaceOnUse">
<stop stop-color="#1DBDD3" stop-opacity="0.2"/>
<stop offset="1" stop-color="#82E672" stop-opacity="0"/>
</linearGradient>
<linearGradient id="paint3_linear_226_2" x1="295.879" y1="87.0002" x2="295.879" y2="142" gradientUnits="userSpaceOnUse">
<stop stop-color="#FF5E00"/>
<stop offset="0.979167" stop-color="#FF9E01"/>
<stop offset="1" stop-color="#E46B05" stop-opacity="0"/>
</linearGradient>
<clipPath id="clip0_226_2">
<rect width="416" height="222" fill="white"/>
</clipPath>
</defs>
</svg>
