<svg cache-id="d30f7a8f7a7d403d9452bf6dfba89986" id="e5u60dNbxQG1" xmlns="http://www.w3.org/2000/svg" xmlns:xlink="http://www.w3.org/1999/xlink" viewBox="0 0 376 223" shape-rendering="geometricPrecision" text-rendering="geometricPrecision" style="background-color:transparent"><defs><radialGradient id="e5u60dNbxQG4-fill" cx="0" cy="0" r="1" spreadMethod="pad" gradientUnits="userSpaceOnUse" gradientTransform="matrix(0 -281.749 467.741 0 196.975244 250.951)"><stop id="e5u60dNbxQG4-fill-0" offset="0%" stop-color="#f1f1f1"/><stop id="e5u60dNbxQG4-fill-1" offset="63.194%" stop-color="#fff"/></radialGradient><filter id="e5u60dNbxQG5-filter" x="-150%" width="400%" y="-150%" height="400%"><feGaussianBlur id="e5u60dNbxQG5-filter-drop-shadow-0-blur" in="SourceAlpha" stdDeviation="10,12"/><feOffset id="e5u60dNbxQG5-filter-drop-shadow-0-offset" dx="0" dy="4" result="tmp"/><feFlood id="e5u60dNbxQG5-filter-drop-shadow-0-flood" flood-color="rgba(0,0,0,0.12)"/><feComposite id="e5u60dNbxQG5-filter-drop-shadow-0-composite" operator="in" in2="tmp"/><feMerge id="e5u60dNbxQG5-filter-drop-shadow-0-merge" result="result"><feMergeNode id="e5u60dNbxQG5-filter-drop-shadow-0-merge-node-1"/><feMergeNode id="e5u60dNbxQG5-filter-drop-shadow-0-merge-node-2" in="SourceGraphic"/></feMerge></filter><linearGradient id="e5u60dNbxQG12-fill" x1="179.875" y1="112.858" x2="179.875" y2="268.858" spreadMethod="pad" gradientUnits="userSpaceOnUse" gradientTransform="translate(0 0)"><stop id="e5u60dNbxQG12-fill-0" offset="0%" stop-color="rgba(29,189,211,0.2)"/><stop id="e5u60dNbxQG12-fill-1" offset="100%" stop-color="rgba(130,230,114,0)"/></linearGradient><linearGradient id="e5u60dNbxQG33-stroke" x1="176.000244" y1="-0.5" x2="176.000244" y2="222.5" spreadMethod="pad" gradientUnits="userSpaceOnUse" gradientTransform="translate(0 0)"><stop id="e5u60dNbxQG33-stroke-0" offset="0%" stop-color="rgba(63,11,80,0.5)"/><stop id="e5u60dNbxQG33-stroke-1" offset="100%" stop-color="rgba(0,0,0,0)"/></linearGradient></defs><g clip-path="url(#e5u60dNbxQG31)"><g><rect width="353" height="223" rx="10" ry="10" transform="translate(-.000244 0)" fill="url(#e5u60dNbxQG4-fill)"/><g filter="url(#e5u60dNbxQG5-filter)"><path d="M15.9998,26c0-5.5228,4.4771-10,10-10L327,16c5.523,0,10,4.4772,10,10v197h-321.0002v-197Z" fill="#fff"/><path d="M37.9918,49.24c-1.152,0-2.1387-.2507-2.96-.752-.8214-.5067-1.4534-1.2107-1.896-2.112-.4374-.9013-.656-1.9467-.656-3.136s.2186-2.2347.656-3.136c.4426-.9013,1.0746-1.6027,1.896-2.104.8213-.5067,1.808-.76,2.96-.76c1.328,0,2.4346.3333,3.32,1c.8853.6613,1.5066,1.5547,1.864,2.68l-1.944.536c-.224-.752-.6054-1.3387-1.144-1.76-.5387-.4267-1.2374-.64-2.096-.64-.7734,0-1.4187.1733-1.936.52-.512.3467-.8987.8347-1.16,1.464-.256.624-.3867,1.3573-.392,2.2c0,.8427.128,1.5787.384,2.208.2613.624.6506,1.1093,1.168,1.456s1.1626.52,1.936.52c.8586,0,1.5573-.2133,2.096-.64.5386-.4267.92-1.0133,1.144-1.76l1.944.536c-.3574,1.1253-.9787,2.0213-1.864,2.688-.8854.6613-1.992.992-3.32.992Zm9.3565,0c-.624,0-1.152-.1173-1.584-.352-.432-.24-.76-.5573-.984-.952-.2187-.3947-.328-.8293-.328-1.304c0-.416.0693-.7893.208-1.12.1386-.336.352-.624.64-.864.288-.2453.6613-.4453,1.12-.6.3466-.112.752-.2133,1.216-.304.4693-.0907.976-.1733,1.52-.248.5493-.08,1.1226-.1653,1.72-.256l-.688.392c.0053-.5973-.128-1.0373-.4-1.32s-.7307-.424-1.376-.424c-.3894,0-.7654.0907-1.128.272-.3627.1813-.616.4933-.76.936l-1.76-.552c.2133-.7307.6186-1.3173,1.216-1.76.6026-.4427,1.4133-.664,2.432-.664.768,0,1.4426.1253,2.024.376.5866.2507,1.0213.6613,1.304,1.232.1546.304.248.616.28.936.032.3147.048.6587.048,1.032v5.304h-1.688v-1.872l.28.304c-.3894.624-.8454,1.0827-1.368,1.376-.5174.288-1.1654.432-1.944.432Zm.384-1.536c.4373,0,.8106-.0773,1.12-.232s.5546-.344.736-.568c.1866-.224.312-.4347.376-.632.1013-.2453.1573-.5253.168-.84.016-.32.024-.5787.024-.776l.592.176c-.5814.0907-1.08.1707-1.496.24s-.7734.136-1.072.2c-.2987.0587-.5627.1253-.792.2-.224.08-.4134.1733-.568.28-.1547.1067-.2747.2293-.36.368-.08.1387-.12.3013-.12.488c0,.2133.0533.4027.16.568.1066.16.2613.288.464.384.208.096.464.144.768.144ZM57.487,49.24c-1.0667,0-1.9333-.24-2.6-.72s-1.072-1.1547-1.216-2.024l1.968-.304c.1013.4267.3253.7627.672,1.008s.784.368,1.312.368c.464,0,.8213-.0907,1.072-.272.256-.1867.384-.44.384-.76c0-.1973-.048-.3547-.144-.472-.0907-.1227-.2933-.24-.608-.352s-.7973-.2533-1.448-.424c-.7253-.192-1.3013-.3973-1.728-.616-.4267-.224-.7333-.488-.92-.792s-.28-.672-.28-1.104c0-.5387.1413-1.008.424-1.408s.6773-.7067,1.184-.92c.5067-.2187,1.104-.328,1.792-.328.672,0,1.2667.104,1.784.312.5227.208.944.504,1.264.888s.5173.8347.592,1.352l-1.968.352c-.048-.368-.216-.6587-.504-.872-.2827-.2133-.6613-.3333-1.136-.36-.4533-.0267-.8187.0427-1.096.208-.2773.16-.416.3867-.416.68c0,.1653.056.3067.168.424s.336.2347.672.352c.3413.1173.848.2613,1.52.432.688.176,1.2373.3787,1.648.608.416.224.7147.4933.896.808.1867.3147.28.696.28,1.144c0,.8693-.3173,1.552-.952,2.048-.6293.496-1.5013.744-2.616.744ZM68.7833,49v-4.16c0-.272-.0187-.5733-.056-.904-.0374-.3307-.1254-.648-.264-.952-.1334-.3093-.336-.5627-.608-.76-.2667-.1973-.6294-.296-1.088-.296-.2454,0-.488.04-.728.12s-.4587.2187-.656.416c-.192.192-.3467.4587-.464.8-.1174.336-.176.768-.176,1.296l-1.144-.488c0-.736.1413-1.4027.424-2c.288-.5973.7093-1.072,1.264-1.424.5546-.3573,1.2373-.536,2.048-.536.64,0,1.168.1067,1.584.32s.7466.4853.992.816c.2453.3307.4266.6827.544,1.056s.192.728.224,1.064c.0373.3307.056.6.056.808v4.824h-1.952Zm-5.992,0v-11.52h1.72v6.064h.232v5.456h-1.952ZM76.026,49v-11.52h6.936v1.928h-5.008v2.872h4.048v1.92h-4.048v4.8h-1.928Zm8.535,0v-11.76h1.928v11.76h-1.928Zm8.1404.24c-.864,0-1.6187-.1947-2.264-.584s-1.1467-.9253-1.504-1.608c-.352-.688-.528-1.4773-.528-2.368c0-.9067.1813-1.7013.544-2.384.3626-.6827.8666-1.216,1.512-1.6s1.392-.576,2.24-.576c.8693,0,1.6266.1947,2.272.584s1.1466.928,1.504,1.616c.3573.6827.536,1.4693.536,2.36c0,.896-.1814,1.688-.544,2.376-.3574.6827-.8587,1.2187-1.504,1.608-.6454.384-1.4.576-2.264.576Zm0-1.808c.768,0,1.3386-.256,1.712-.768s.56-1.1733.56-1.984c0-.8373-.1894-1.504-.568-2-.3787-.5013-.9467-.752-1.704-.752-.5174,0-.944.1173-1.28.352-.3307.2293-.576.552-.736.968-.16.4107-.24.888-.24,1.432c0,.8373.1893,1.5067.568,2.008.384.496.9466.744,1.688.744ZM100.304,49l-2.6405-8.656l1.888.016l1.6885,5.544l1.712-5.544h1.624l1.704,5.544l1.696-5.544h1.888L107.224,49h-1.504l-1.96-5.944L101.808,49h-1.504Z" fill="#3f0b50"/><path d="M232.16,49.232l-3.144-3.128.936-.936l3.128,3.128-.92.936Zm-4.304.008c-1.147,0-2.12-.2533-2.92-.76s-1.411-1.2107-1.832-2.112c-.416-.9013-.624-1.944-.624-3.128s.208-2.2267.624-3.128c.421-.9013,1.032-1.6053,1.832-2.112s1.773-.76,2.92-.76c1.152,0,2.128.2533,2.928.76s1.408,1.2107,1.824,2.112.624,1.944.624,3.128-.208,2.2267-.624,3.128-1.024,1.6053-1.824,2.112-1.776.76-2.928.76Zm0-1.36c.858.0053,1.573-.1867,2.144-.576.576-.3947,1.005-.9413,1.288-1.64.288-.6987.432-1.5067.432-2.424c0-.9227-.144-1.7307-.432-2.424-.283-.6933-.712-1.2347-1.288-1.624-.571-.3893-1.286-.5867-2.144-.592-.859-.0053-1.574.1867-2.144.576-.566.3893-.992.9333-1.28,1.632s-.435,1.5093-.44,2.432c-.006.9173.136,1.7227.424,2.416s.717,1.2373,1.288,1.632c.576.3893,1.293.5867,2.152.592Zm10.263,1.344c-.555,0-1.032-.088-1.432-.264-.395-.176-.723-.4107-.984-.704-.262-.2933-.467-.6187-.616-.976-.15-.3573-.256-.7227-.32-1.096-.059-.3733-.088-.7227-.088-1.048v-4.776h1.44v4.328c0,.4053.037.7973.112,1.176.074.3787.2.72.376,1.024.181.304.421.544.72.72.304.176.682.264,1.136.264.357,0,.682-.0613.976-.184.293-.1227.544-.304.752-.544.208-.2453.368-.5547.48-.928s.168-.808.168-1.304l.936.288c0,.832-.152,1.5493-.456,2.152-.299.6027-.723,1.0667-1.272,1.392-.544.32-1.187.48-1.928.48Zm2.88-.224v-2.312h-.16v-6.328h1.432v8.64h-1.272Zm5.967.24c-.645,0-1.186-.1173-1.624-.352-.432-.24-.76-.5547-.984-.944-.218-.3893-.328-.816-.328-1.28c0-.4533.086-.8453.256-1.176.176-.336.422-.6133.736-.832.315-.224.691-.4,1.128-.528.411-.112.87-.208,1.376-.288.512-.0853,1.03-.1627,1.552-.232.523-.0693,1.011-.136,1.464-.2l-.512.296c.016-.768-.138-1.336-.464-1.704-.32-.368-.874-.552-1.664-.552-.522,0-.981.12-1.376.36-.389.2347-.664.6187-.824,1.152l-1.352-.408c.208-.7573.611-1.352,1.208-1.784.598-.432,1.384-.648,2.36-.648.784,0,1.456.1413,2.016.424.566.2773.971.6987,1.216,1.264.123.2667.2.5573.232.872.032.3093.048.6347.048.976v5.344h-1.264v-2.072l.296.192c-.325.6987-.781,1.2267-1.368,1.584-.581.3573-1.29.536-2.128.536Zm.216-1.192c.512,0,.955-.0907,1.328-.272.379-.1867.683-.4293.912-.728.23-.304.379-.6347.448-.992.08-.2667.123-.5627.128-.888.011-.3307.016-.584.016-.76l.496.216c-.464.064-.92.1253-1.368.184s-.872.1227-1.272.192c-.4.064-.76.1413-1.08.232-.234.0747-.456.1707-.664.288-.202.1173-.368.2693-.496.456-.122.1813-.184.408-.184.68c0,.2347.059.4587.176.672.123.2133.31.3867.56.52.256.1333.59.2,1,.2ZM253.51,49v-8.64h1.272v2.088l-.208-.272c.102-.2667.232-.512.392-.736.166-.224.35-.408.552-.552.224-.1813.478-.32.76-.416.283-.096.571-.152.864-.168.294-.0213.568-.0027.824.056v1.336c-.298-.08-.626-.1013-.984-.064-.357.0373-.688.168-.992.392-.277.1973-.493.4373-.648.72-.149.2827-.253.5893-.312.92-.058.3253-.088.6587-.088,1v4.336h-1.432Zm10.793,0c-.512.1013-1.019.1413-1.52.12-.496-.016-.939-.1147-1.328-.296-.389-.1867-.685-.4747-.888-.864-.171-.3413-.264-.6853-.28-1.032-.011-.352-.016-.7493-.016-1.192v-7.776h1.424v7.712c0,.352.003.6533.008.904.011.2507.067.4667.168.648.192.3413.496.5413.912.6.421.0587.928.0427,1.52-.048v1.224Zm-5.784-7.464v-1.176h5.784v1.176h-5.784Zm10.923,7.704c-.848,0-1.589-.1867-2.224-.56-.629-.3787-1.12-.904-1.472-1.576-.352-.6773-.528-1.4667-.528-2.368c0-.944.173-1.76.52-2.448.347-.6933.829-1.2267,1.448-1.6.624-.3787,1.355-.568,2.192-.568.869,0,1.608.2,2.216.6.613.4,1.072.9707,1.376,1.712.309.7413.443,1.624.4,2.648h-1.44v-.512c-.016-1.0613-.232-1.8533-.648-2.376-.416-.528-1.035-.792-1.856-.792-.88,0-1.549.2827-2.008.848s-.688,1.376-.688,2.432c0,1.0187.229,1.808.688,2.368s1.112.84,1.96.84c.571,0,1.067-.1307,1.488-.392s.752-.6373.992-1.128l1.368.472c-.336.7627-.843,1.3547-1.52,1.776-.672.416-1.427.624-2.264.624Zm-3.192-4.16v-1.144h6.384v1.144h-6.384ZM275.151,49v-8.64h1.272v2.088l-.208-.272c.101-.2667.232-.512.392-.736.165-.224.349-.408.552-.552.224-.1813.477-.32.76-.416s.571-.152.864-.168c.293-.0213.568-.0027.824.056v1.336c-.299-.08-.627-.1013-.984-.064s-.688.168-.992.392c-.277.1973-.493.4373-.648.72-.149.2827-.253.5893-.312.92-.059.3253-.088.6587-.088,1v4.336h-1.432Zm6.129,0v-11.76h1.424v11.76h-1.424Zm5.024,3.84l1.672-4.544L288,49.64l-3.776-9.28h1.496l2.96,7.464h-.512l2.776-7.464h1.448l-4.704,12.48h-1.384Z"/><path d="M313.59,40.59L309,45.17l-4.59-4.58L303,42l6,6l6-6-1.41-1.41Z"/><line x1="31.9998" y1="65.5" x2="321" y2="65.5" fill="none" stroke="#d9d9d9"/><path d="M31.7498,171.179l4.9375,3.439c4.9375,3.438,14.8125,10.316,24.6875,2.95c9.875-7.367,19.75-28.978,29.625-30.133c9.8752-1.155,19.7502,18.145,29.6252,26.997s19.75,7.255,29.625,7.396s19.75,2.02,29.625-4.583c9.875-6.604,19.75-21.689,29.625-24.614c9.875-2.926,19.75,6.309,29.625,5.684s19.75-11.109,29.625-20.008s19.75-16.212,29.625-20.189s19.75-4.619,24.687-4.939l4.938-.321" fill="none" stroke="#1dbdd3" stroke-width="1.5"/><path d="M36.6873,173.051l-4.9375-3.352v99.159h296.2502v-156l-4.938.312c-4.937.313-14.812.938-24.687,4.814-9.875,3.877-19.75,11.005-29.625,19.678s-19.75,18.891-29.625,19.5-19.75-8.391-29.625-5.54-19.75,17.553-29.625,23.989-19.75,4.605-29.625,4.467c-9.875-.137-19.75,1.419-29.625-7.208s-19.75-27.438-29.6252-26.312c-9.875,1.126-19.75,22.188-29.625,29.368s-19.75.476-24.6875-2.875Z" fill="url(#e5u60dNbxQG12-fill)"/><g><path id="e5u60dNbxQG14" d="M33.033,147.095l30.302,13.842l13.8294,4.951c10.6648,3.818,22.31,3.902,33.0286.238l12.846-4.392c9.368-3.203,19.474-3.552,29.041-1.005l29.216,7.779c12.411,3.305,25.617,1.707,36.882-4.462l19.732-10.805c7.362-4.032,15.622-6.146,24.016-6.146h10.618c19.47,0,37.169-11.302,45.36-28.966l8.542-18.4197" transform="matrix(1 0 0 0 1 135.120113)" opacity="0" fill="none" stroke="#21bfcf" stroke-dasharray="2,2"/><path id="e5u60dNbxQG15" d="M38.08,140.116l-1.572-1.564.468-.468l1.564,1.564-.46.468Zm-2.152.004c-.5733,0-1.06-.127-1.46-.38s-.7053-.605-.916-1.056c-.208-.451-.312-.972-.312-1.564s.104-1.113.312-1.564c.2107-.451.516-.803.916-1.056s.8867-.38,1.46-.38c.576,0,1.064.127,1.464.38s.704.605.912,1.056.312.972.312,1.564-.104,1.113-.312,1.564-.512.803-.912,1.056-.888.38-1.464.38Zm0-.68c.4293.003.7867-.093,1.072-.288.288-.197.5027-.471.644-.82.144-.349.216-.753.216-1.212c0-.461-.072-.865-.216-1.212-.1413-.347-.356-.617-.644-.812-.2853-.195-.6427-.293-1.072-.296s-.7867.093-1.072.288c-.2827.195-.496.467-.64.816s-.2173.755-.22,1.216c-.0027.459.068.861.212,1.208s.3587.619.644.816c.288.195.6467.293,1.076.296Zm4.4954.56v-4.972l-1.084.656v-.796l1.084-.648h.724v5.76h-.724Z" transform="translate(1 0)" opacity="0" fill="#a5aeaf"/><path id="e5u60dNbxQG16" d="M142.08,150.116l-1.572-1.564.468-.468l1.564,1.564-.46.468Zm-2.152.004c-.573,0-1.06-.127-1.46-.38s-.705-.605-.916-1.056c-.208-.451-.312-.972-.312-1.564s.104-1.113.312-1.564c.211-.451.516-.803.916-1.056s.887-.38,1.46-.38c.576,0,1.064.127,1.464.38s.704.605.912,1.056.312.972.312,1.564-.104,1.113-.312,1.564-.512.803-.912,1.056-.888.38-1.464.38Zm0-.68c.429.003.787-.093,1.072-.288.288-.197.503-.471.644-.82.144-.349.216-.753.216-1.212c0-.461-.072-.865-.216-1.212-.141-.347-.356-.617-.644-.812-.285-.195-.643-.293-1.072-.296s-.787.093-1.072.288c-.283.195-.496.467-.64.816s-.217.755-.22,1.216c-.003.459.068.861.212,1.208s.359.619.644.816c.288.195.647.293,1.076.296Zm3.331.556l.004-.64l2.556-2.3c.214-.192.356-.373.428-.544.075-.173.112-.351.112-.532c0-.221-.05-.421-.152-.6-.101-.179-.24-.32-.416-.424-.173-.104-.37-.156-.592-.156-.229,0-.433.055-.612.164-.178.107-.32.249-.424.428-.101.179-.15.373-.148.584h-.728c0-.363.084-.683.252-.96.168-.28.396-.499.684-.656.291-.16.62-.24.988-.24.358,0,.678.083.96.248.283.163.506.385.668.668.166.28.248.597.248.952c0,.251-.032.468-.096.652-.061.184-.157.355-.288.512-.13.155-.294.32-.492.496l-2.124,1.908-.092-.24h3.092v.68h-3.828Z" transform="translate(1 0)" opacity="0" fill="#a5aeaf"/><path id="e5u60dNbxQG17" d="M245.08,141.116l-1.572-1.564.468-.468l1.564,1.564-.46.468Zm-2.152.004c-.573,0-1.06-.127-1.46-.38s-.705-.605-.916-1.056c-.208-.451-.312-.972-.312-1.564s.104-1.113.312-1.564c.211-.451.516-.803.916-1.056s.887-.38,1.46-.38c.576,0,1.064.127,1.464.38s.704.605.912,1.056.312.972.312,1.564-.104,1.113-.312,1.564-.512.803-.912,1.056-.888.38-1.464.38Zm0-.68c.429.003.787-.093,1.072-.288.288-.197.503-.471.644-.82.144-.349.216-.753.216-1.212c0-.461-.072-.865-.216-1.212-.141-.347-.356-.617-.644-.812-.285-.195-.643-.293-1.072-.296s-.787.093-1.072.288c-.283.195-.496.467-.64.816s-.217.755-.22,1.216c-.003.459.068.861.212,1.208s.359.619.644.816c.288.195.647.293,1.076.296Zm5.071.672c-.285,0-.55-.052-.796-.156-.245-.107-.457-.256-.636-.448-.176-.195-.305-.425-.388-.692l.684-.196c.088.267.235.469.44.608.206.139.436.207.692.204.235-.005.438-.059.608-.16.174-.104.307-.245.4-.424.096-.179.144-.385.144-.62c0-.357-.106-.647-.32-.868-.213-.224-.493-.336-.84-.336-.096,0-.197.013-.304.04-.104.027-.201.064-.292.112l-.344-.564l2.136-1.932.092.24h-2.868v-.68h3.396v.684l-1.82,1.744-.008-.252c.382-.027.715.036,1,.188.286.152.507.369.664.652.16.283.24.607.24.972c0,.368-.082.693-.248.976-.165.283-.389.505-.672.668-.282.16-.602.24-.96.24Z" transform="translate(1 0)" opacity="0" fill="#a5aeaf"/><path id="e5u60dNbxQG18" d="M324.08,92.116l-1.572-1.564.468-.468l1.564,1.564-.46.468Zm-2.152.004c-.573,0-1.06-.1267-1.46-.38s-.705-.6053-.916-1.056c-.208-.4507-.312-.972-.312-1.564s.104-1.1133.312-1.564c.211-.4507.516-.8027.916-1.056s.887-.38,1.46-.38c.576,0,1.064.1267,1.464.38s.704.6053.912,1.056.312.972.312,1.564-.104,1.1133-.312,1.564-.512.8027-.912,1.056-.888.38-1.464.38Zm0-.68c.429.0027.787-.0933,1.072-.288.288-.1973.503-.4707.644-.82.144-.3493.216-.7533.216-1.212c0-.4613-.072-.8653-.216-1.212-.141-.3467-.356-.6173-.644-.812-.285-.1947-.643-.2933-1.072-.296s-.787.0933-1.072.288c-.283.1947-.496.4667-.64.816s-.217.7547-.22,1.216c-.003.4587.068.8613.212,1.208s.359.6187.644.816c.288.1947.647.2933,1.076.296Zm5.823.56v-1.06h-2.648v-.676l1.9-4.024h.808l-1.9,4.024h1.84v-1.62h.72v1.62h.6v.676h-.6v1.06h-.72Z" transform="translate(1 0)" opacity="0" fill="#a5aeaf"/><circle id="e5u60dNbxQG19" r="2.88272" transform="translate(38.6151 149.108563)" opacity="0" fill="#fff" stroke="#22bfce"/><circle id="e5u60dNbxQG20" r="2.88272" transform="translate(141.106 159.152)" opacity="0" fill="#fff" stroke="#22bfce"/><circle id="e5u60dNbxQG21" r="2.88272" transform="translate(246.318 148.939)" opacity="0" fill="#fff" stroke="#22bfce"/><circle id="e5u60dNbxQG22" r="2.88272" transform="translate(326.457 100.427)" opacity="0" fill="#fff" stroke="#22bfce"/></g><line x1="31.9998" y1="82" x2="57.2346" y2="82" fill="none" stroke="#21bfce" stroke-width="5"/><path d="M65.5146,90l3.374-10.08h1.736L73.9986,90h-1.295l-3.157-9.352h.392L66.8096,90h-1.295Zm1.624-2.359v-1.169h5.236v1.169h-5.236ZM78.4367,90.21c-.7653,0-1.4163-.1703-1.953-.511-.532-.3453-.938-.819-1.218-1.421s-.4246-1.288-.434-2.058c.0094-.7887.1564-1.4817.441-2.079.2894-.602.7024-1.071,1.239-1.407s1.183-.504,1.939-.504c.798,0,1.484.196,2.058.588.5787.392.966.9287,1.162,1.61l-1.232.371c-.1586-.4387-.4176-.7793-.777-1.022-.3546-.2427-.763-.364-1.225-.364-.518,0-.945.1213-1.281.364-.336.238-.5856.5693-.749.994-.1633.42-.2473.903-.252,1.449.0094.84.203,1.519.581,2.037.3827.5133.9497.77,1.701.77.4947,0,.9054-.112,1.232-.336.3267-.2287.574-.5577.742-.987l1.26.329c-.2613.7047-.6696,1.2437-1.225,1.617s-1.225.56-2.009.56ZM87.3204,90c-.448.0887-.8913.1237-1.33.105-.434-.014-.8213-.1003-1.162-.259-.3407-.1633-.5997-.4153-.777-.756-.1493-.2987-.231-.5997-.245-.903-.0093-.308-.014-.6557-.014-1.043v-6.804h1.246v6.748c0,.308.0023.5717.007.791.0093.2193.0583.4083.147.567.168.2987.434.4737.798.525.3687.0513.812.0373,1.33-.042v1.071Zm-5.061-6.531v-1.029h5.061v1.029h-5.061Zm9.4658,6.727c-.4853,0-.903-.077-1.253-.231-.3453-.154-.6323-.3593-.861-.616-.2286-.2567-.4083-.5413-.539-.854-.1306-.3127-.224-.6323-.28-.959-.0513-.3267-.077-.6323-.077-.917v-4.179h1.26v3.787c0,.3547.0327.6977.098,1.029.0654.3313.175.63.329.896.1587.266.3687.476.63.63.266.154.5974.231.994.231.3127,0,.5974-.0537.854-.161s.476-.266.658-.476c.182-.2147.322-.4853.42-.812s.147-.707.147-1.141l.819.252c0,.728-.133,1.3557-.399,1.883-.2613.5273-.6323.9333-1.113,1.218-.476.28-1.0383.42-1.687.42Zm2.52-.196v-2.023h-.14v-5.537h1.253v7.56h-1.113Zm5.2219.21c-.5646,0-1.0383-.1027-1.421-.308-.378-.21-.665-.4853-.861-.826-.1913-.3407-.287-.714-.287-1.12c0-.3967.0747-.7397.224-1.029.154-.294.3687-.5367.644-.728.2754-.196.6044-.35.987-.462.3594-.098.7607-.182,1.204-.252.4479-.0747.9009-.1423,1.3579-.203s.884-.119,1.281-.175l-.448.259c.014-.672-.121-1.169-.406-1.491-.28-.322-.765-.483-1.456-.483-.4572,0-.8585.105-1.2039.315-.3406.2053-.581.5413-.721,1.008l-1.183-.357c.182-.6627.5344-1.183,1.057-1.561.5227-.378,1.211-.567,2.0649-.567.686,0,1.274.1237,1.764.371.495.2427.849.6113,1.064,1.106.107.2333.175.4877.203.763.028.2707.042.5553.042.854v4.676h-1.106v-1.813l.259.168c-.285.6113-.684,1.0733-1.197,1.386-.509.3127-1.129.469-1.8619.469Zm.189-1.043c.4479,0,.8349-.0793,1.1619-.238.331-.1633.597-.3757.798-.637.201-.266.331-.5553.392-.868.07-.2333.107-.4923.112-.777.009-.2893.014-.511.014-.665l.434.189c-.406.056-.805.1097-1.197.161s-.763.1073-1.113.168c-.3499.056-.6649.1237-.9449.203-.2053.0653-.399.1493-.581.252-.1773.1027-.322.2357-.434.399-.1073.1587-.161.357-.161.595c0,.2053.0514.4013.154.588.1074.1867.2707.3383.49.455.224.1167.5157.175.875.175ZM105.333,90v-10.29h1.246v10.29h-1.246Zm6.202.203c-.9,0-1.64-.196-2.219-.588-.574-.3967-.926-.9497-1.057-1.659l1.274-.203c.103.4107.339.7373.707.98.369.238.826.357,1.372.357.518,0,.924-.1073,1.218-.322s.441-.5063.441-.875c0-.2147-.049-.3873-.147-.518-.098-.1353-.301-.2613-.609-.378-.303-.1167-.763-.2567-1.379-.42-.667-.1773-1.192-.3617-1.575-.553-.382-.1913-.655-.413-.819-.665-.163-.252-.245-.5577-.245-.917c0-.4433.122-.8307.364-1.162.243-.336.581-.595,1.015-.777.439-.182.948-.273,1.526-.273.574,0,1.088.091,1.54.273.453.182.817.441,1.092.777.28.3313.446.7187.497,1.162l-1.274.231c-.06-.406-.256-.7257-.588-.959-.326-.2333-.749-.357-1.267-.371-.49-.0187-.889.0677-1.197.259-.303.1913-.455.4503-.455.777c0,.182.056.3383.168.469.117.1307.329.2543.637.371.313.1167.766.2497,1.358.399.668.168,1.193.3523,1.575.553.388.196.663.4293.826.7.164.266.245.595.245.987c0,.728-.268,1.302-.805,1.722-.536.4153-1.276.623-2.219.623Z"/><line x1="31.9998" y1="105" x2="35.0308" y2="105" fill="none" stroke="#21bfcf" stroke-width="5"/><line x1="43.0308" y1="105" x2="46.0618" y2="105" fill="none" stroke="#21bfcf" stroke-width="5"/><line x1="48.1702" y1="105" x2="51.2012" y2="105" fill="none" stroke="#21bfcf" stroke-width="5"/><line x1="37.7595" y1="105" x2="40.7905" y2="105" fill="none" stroke="#21bfcf" stroke-width="5"/><line x1="54.0618" y1="105" x2="57.0928" y2="105" fill="none" stroke="#21bfcf" stroke-width="5"/><path d="M66.0728,113v-10.08h5.88v1.246h-4.634v3.171h3.794v1.246h-3.794v4.417h-1.246Zm10.1516.21c-.7513,0-1.4-.17-1.946-.511-.5413-.341-.959-.812-1.253-1.414s-.441-1.293-.441-2.072c0-.793.1493-1.489.448-2.086s.721-1.062,1.267-1.393c.546-.336,1.1877-.504,1.925-.504.756,0,1.407.17,1.953.511.546.336.9637.805,1.253,1.407.294.597.441,1.286.441,2.065c0,.789-.147,1.484-.441,2.086-.294.597-.714,1.066-1.26,1.407-.546.336-1.1947.504-1.946.504Zm0-1.183c.784,0,1.3673-.261,1.75-.784s.574-1.199.574-2.03c0-.854-.1937-1.533-.581-2.037-.3873-.509-.9683-.763-1.743-.763-.5273,0-.9613.119-1.302.357s-.595.567-.763.987-.252.905-.252,1.456c0,.849.196,1.531.588,2.044s.9683.77,1.729.77Zm5.1882.973v-7.56h1.113v1.827l-.182-.238c.0887-.233.203-.448.343-.644.1447-.196.3057-.357.483-.483.196-.159.4177-.28.665-.364.2474-.084.4994-.133.756-.147.2567-.019.497-.002.721.049v1.169c-.2613-.07-.5483-.089-.861-.056-.3126.033-.602.147-.868.343-.2426.173-.4316.383-.567.63-.1306.247-.2216.516-.273.805-.0513.285-.077.576-.077.875v3.794h-1.253Zm8.362.21c-.742,0-1.3907-.163-1.946-.49-.5507-.331-.98-.791-1.288-1.379-.308-.593-.462-1.283-.462-2.072c0-.826.1516-1.54.455-2.142.3033-.607.7256-1.073,1.267-1.4.546-.331,1.1853-.497,1.918-.497.7606,0,1.407.175,1.939.525.5366.35.938.849,1.204,1.498.2706.649.3873,1.421.35,2.317h-1.26v-.448c-.014-.929-.203-1.622-.567-2.079-.364-.462-.9054-.693-1.624-.693-.77,0-1.3557.247-1.757.742-.4014.495-.602,1.204-.602,2.128c0,.891.2006,1.582.602,2.072.4013.49.973.735,1.715.735.4993,0,.9333-.114,1.302-.343.3686-.229.658-.558.868-.987l1.197.413c-.294.667-.7374,1.185-1.33,1.554-.588.364-1.2484.546-1.981.546Zm-2.793-3.64v-1.001h5.586v1.001h-5.586Zm10.9734,3.64c-.7653,0-1.4163-.17-1.953-.511-.532-.345-.938-.819-1.218-1.421s-.4246-1.288-.434-2.058c.0094-.789.1564-1.482.441-2.079.2894-.602.7024-1.071,1.239-1.407s1.183-.504,1.939-.504c.798,0,1.484.196,2.058.588.579.392.966.929,1.162,1.61l-1.232.371c-.1586-.439-.4176-.779-.777-1.022-.3546-.243-.763-.364-1.225-.364-.518,0-.945.121-1.281.364-.336.238-.5856.569-.749.994-.1633.42-.2473.903-.252,1.449.0094.84.203,1.519.581,2.037.3827.513.9497.77,1.701.77.4947,0,.9054-.112,1.232-.336.3267-.229.574-.558.742-.987l1.26.329c-.261.705-.67,1.244-1.225,1.617-.5553.373-1.225.56-2.009.56Zm6.743,0c-.564,0-1.038-.103-1.421-.308-.378-.21-.665-.485-.861-.826-.191-.341-.287-.714-.287-1.12c0-.397.075-.74.224-1.029.154-.294.369-.537.644-.728.276-.196.605-.35.987-.462.36-.098.761-.182,1.204-.252.448-.075.901-.142,1.358-.203.458-.061.885-.119,1.281-.175l-.448.259c.014-.672-.121-1.169-.406-1.491-.28-.322-.765-.483-1.456-.483-.457,0-.858.105-1.204.315-.34.205-.581.541-.721,1.008l-1.183-.357c.182-.663.535-1.183,1.057-1.561.523-.378,1.211-.567,2.065-.567.686,0,1.274.124,1.764.371.495.243.85.611,1.064,1.106.108.233.175.488.203.763.028.271.042.555.042.854v4.676h-1.106v-1.813l.259.168c-.284.611-.683,1.073-1.197,1.386-.508.313-1.129.469-1.862.469Zm.189-1.043c.448,0,.836-.079,1.162-.238.332-.163.598-.376.798-.637.201-.266.332-.555.392-.868.07-.233.108-.492.112-.777.01-.289.014-.511.014-.665l.434.189c-.406.056-.805.11-1.197.161s-.763.107-1.113.168c-.35.056-.665.124-.945.203-.205.065-.399.149-.581.252-.177.103-.322.236-.434.399-.107.159-.161.357-.161.595c0,.205.052.401.154.588.108.187.271.338.49.455.224.117.516.175.875.175Zm8.393,1.036c-.9,0-1.64-.196-2.219-.588-.574-.397-.926-.95-1.057-1.659l1.274-.203c.103.411.339.737.707.98.369.238.826.357,1.372.357.518,0,.924-.107,1.218-.322s.441-.506.441-.875c0-.215-.049-.387-.147-.518-.098-.135-.301-.261-.609-.378-.303-.117-.763-.257-1.379-.42-.667-.177-1.192-.362-1.575-.553-.382-.191-.655-.413-.819-.665-.163-.252-.245-.558-.245-.917c0-.443.122-.831.364-1.162.243-.336.581-.595,1.015-.777.439-.182.948-.273,1.526-.273.574,0,1.088.091,1.54.273.453.182.817.441,1.092.777.28.331.446.719.497,1.162l-1.274.231c-.06-.406-.256-.726-.588-.959-.326-.233-.749-.357-1.267-.371-.49-.019-.889.068-1.197.259-.303.191-.455.45-.455.777c0,.182.056.338.168.469.117.131.329.254.637.371.313.117.766.25,1.358.399.668.168,1.193.352,1.575.553.388.196.663.429.826.7.164.266.245.595.245.987c0,.728-.268,1.302-.805,1.722-.536.415-1.276.623-2.219.623Zm8.789-.203c-.448.089-.891.124-1.33.105-.434-.014-.821-.1-1.162-.259-.341-.163-.6-.415-.777-.756-.149-.299-.231-.6-.245-.903-.009-.308-.014-.656-.014-1.043v-6.804h1.246v6.748c0,.308.002.572.007.791.009.219.058.408.147.567.168.299.434.474.798.525.369.051.812.037,1.33-.042v1.071Zm-5.061-6.531v-1.029h5.061v1.029h-5.061Z"/></g></g><clipPath id="e5u60dNbxQG31"><rect width="353" height="223" rx="10" ry="10" transform="translate(-.000244 0)" fill="#fff"/></clipPath></g><rect width="352" height="222" rx="9.5" ry="9.5" transform="translate(.499756 0.5)" fill="none" stroke="url(#e5u60dNbxQG33-stroke)"/><g id="e5u60dNbxQG34" transform="matrix(0 0 0 0 271.935005 37)"><path d="M166.166,17c0-5.5228,4.477-10,10-10h189.538c5.523,0,10,4.4772,10,10v40c0,5.5228-4.477,10-10,10h-189.538c-5.523,0-10-4.4772-10-10v-40Z" fill="#44255c"/><path d="M190.166,49c1.576,0,3.137-.3104,4.592-.9134c1.456-.6031,2.779-1.487,3.894-2.6013c1.114-1.1143,1.998-2.4372,2.601-3.8931s.913-3.0163.913-4.5922-.31-3.1363-.913-4.5922-1.487-2.7788-2.601-3.8931c-1.115-1.1143-2.438-1.9982-3.894-2.6013-1.455-.603-3.016-.9134-4.592-.9134-3.182,0-6.235,1.2643-8.485,3.5147s-3.515,5.3027-3.515,8.4853s1.265,6.2348,3.515,8.4853C183.931,47.7357,186.984,49,190.166,49Zm-.309-7.1467l6.667-8-2.048-1.7066-5.734,6.8786-2.966-2.968-1.886,1.8854l4,4l1.032,1.032.935-1.1214Z" clip-rule="evenodd" fill="#fff" fill-rule="evenodd"/><path d="M211.561,31v-4.193l-3.395-5.887h1.449l2.576,4.459l2.569-4.459h1.449l-3.388,5.887v4.193h-1.26Zm7.723.21c-.751,0-1.4-.1703-1.946-.511-.541-.3407-.959-.812-1.253-1.414s-.441-1.2927-.441-2.072c0-.7933.15-1.4887.448-2.086.299-.5973.721-1.0617,1.267-1.393.546-.336,1.188-.504,1.925-.504.756,0,1.407.1703,1.953.511.546.336.964.805,1.253,1.407.294.5973.441,1.2857.441,2.065c0,.7887-.147,1.484-.441,2.086-.294.5973-.714,1.0663-1.26,1.407-.546.336-1.194.504-1.946.504Zm0-1.183c.784,0,1.368-.2613,1.75-.784.383-.5227.574-1.1993.574-2.03c0-.854-.193-1.533-.581-2.037-.387-.5087-.968-.763-1.743-.763-.527,0-.961.119-1.302.357-.34.238-.595.567-.763.987s-.252.9053-.252,1.456c0,.8493.196,1.5307.588,2.044s.969.77,1.729.77Zm8.058,1.169c-.485,0-.903-.077-1.253-.231-.345-.154-.632-.3593-.861-.616-.228-.2567-.408-.5413-.539-.854-.13-.3127-.224-.6323-.28-.959-.051-.3267-.077-.6323-.077-.917v-4.179h1.26v3.787c0,.3547.033.6977.098,1.029.066.3313.175.63.329.896.159.266.369.476.63.63.266.154.598.231.994.231.313,0,.598-.0537.854-.161.257-.1073.476-.266.658-.476.182-.2147.322-.4853.42-.812s.147-.707.147-1.141l.819.252c0,.728-.133,1.3557-.399,1.883-.261.5273-.632.9333-1.113,1.218-.476.28-1.038.42-1.687.42Zm2.52-.196v-2.023h-.14v-5.537h1.253v7.56h-1.113Zm3.073,0v-7.56h1.113v1.827l-.182-.238c.089-.2333.203-.448.343-.644.145-.196.306-.357.483-.483.196-.1587.418-.28.665-.364.248-.084.5-.133.756-.147.257-.0187.497-.0023.721.049v1.169c-.261-.07-.548-.0887-.861-.056-.312.0327-.602.147-.868.343-.242.1727-.431.3827-.567.63-.13.2473-.221.5157-.273.805-.051.2847-.077.5763-.077.875v3.794h-1.253Zm11.486,0v-7.679c0-.1913.007-.4013.021-.63.014-.2333.054-.4643.119-.693.066-.2287.185-.4363.357-.623.215-.238.446-.4013.693-.49.252-.0933.5-.1447.742-.154.243-.014.455-.021.637-.021h.945v1.372h-.875c-.322,0-.562.0817-.721.245-.154.1587-.231.3687-.231.63v8.043h-1.687Zm-1.218-6.237v-1.323h4.732v1.323h-4.732Zm8.917,6.447c-.756,0-1.416-.1703-1.981-.511s-1.003-.8097-1.316-1.407c-.308-.602-.462-1.2927-.462-2.072c0-.7933.159-1.4887.476-2.086s.758-1.064,1.323-1.4s1.218-.504,1.96-.504c.761,0,1.423.1703,1.988.511s1.003.812,1.316,1.414c.313.5973.469,1.2857.469,2.065c0,.784-.159,1.477-.476,2.079-.313.5973-.751,1.0663-1.316,1.407-.565.336-1.225.504-1.981.504Zm0-1.582c.672,0,1.171-.224,1.498-.672s.49-1.0267.49-1.736c0-.7327-.166-1.316-.497-1.75-.331-.4387-.828-.658-1.491-.658-.453,0-.826.1027-1.12.308-.289.2007-.504.483-.644.847-.14.3593-.21.777-.21,1.253c0,.7327.166,1.3183.497,1.757.336.434.828.651,1.477.651ZM257.435,31v-7.56h1.491v1.841l-.182-.238c.094-.252.217-.4807.371-.686.159-.21.348-.3827.567-.518.187-.126.392-.224.616-.294.229-.0747.462-.119.7-.133.238-.0187.469-.0093.693.028v1.575c-.224-.0653-.483-.0863-.777-.063-.289.0233-.55.105-.784.245-.233.126-.424.287-.574.483-.144.196-.252.42-.322.672-.07.2473-.105.5157-.105.805v3.843h-1.694Zm8.892.21c-.765,0-1.437-.1657-2.016-.497-.578-.3313-1.031-.791-1.358-1.379-.322-.588-.483-1.2647-.483-2.03c0-.826.159-1.5423.476-2.149.318-.6113.759-1.085,1.323-1.421.565-.336,1.218-.504,1.96-.504.784,0,1.449.1843,1.995.553.551.364.959.8797,1.225,1.547s.367,1.4537.301,2.359h-1.673v-.616c-.004-.8213-.149-1.421-.434-1.799-.284-.378-.732-.567-1.344-.567-.69,0-1.204.2147-1.54.644-.336.4247-.504,1.0477-.504,1.869c0,.7653.168,1.358.504,1.778s.826.63,1.47.63c.416,0,.773-.091,1.071-.273.304-.1867.537-.455.7-.805l1.666.504c-.289.6813-.737,1.211-1.344,1.589-.602.378-1.267.567-1.995.567Zm-2.604-3.521v-1.274h5.201v1.274h-5.201Zm10.872,3.521c-.779,0-1.444-.1727-1.995-.518-.55-.35-.973-.826-1.267-1.428-.289-.602-.436-1.2833-.441-2.044.005-.7747.157-1.4607.455-2.058.304-.602.733-1.0733,1.288-1.414.556-.3453,1.216-.518,1.981-.518.859,0,1.585.217,2.177.651.598.4293.987,1.0173,1.169,1.764l-1.68.455c-.13-.406-.347-.721-.651-.945-.303-.2287-.648-.343-1.036-.343-.438,0-.8.105-1.085.315-.284.2053-.494.49-.63.854-.135.364-.203.777-.203,1.239c0,.7187.161,1.2997.483,1.743s.801.665,1.435.665c.448,0,.801-.1027,1.057-.308.262-.2053.458-.5017.588-.889l1.722.385c-.233.77-.641,1.3627-1.225,1.778-.583.4107-1.297.616-2.142.616Zm6.761,0c-.546,0-1.008-.1027-1.386-.308-.378-.21-.665-.4877-.861-.833-.191-.3453-.287-.7257-.287-1.141c0-.364.061-.6907.182-.98.121-.294.308-.546.56-.756.252-.2147.579-.3897.98-.525.303-.098.658-.1867,1.064-.266.411-.0793.854-.1517,1.33-.217.481-.07.982-.1447,1.505-.224l-.602.343c.005-.5227-.112-.9077-.35-1.155s-.639-.371-1.204-.371c-.341,0-.67.0793-.987.238s-.539.4317-.665.819l-1.54-.483c.187-.6393.541-1.1527,1.064-1.54.527-.3873,1.237-.581,2.128-.581.672,0,1.262.1097,1.771.329.513.2193.894.5787,1.141,1.078.135.266.217.539.245.819.028.2753.042.5763.042.903v4.641h-1.477v-1.638l.245.266c-.341.546-.74.9473-1.197,1.204-.453.252-1.02.378-1.701.378Zm.336-1.344c.383,0,.709-.0677.98-.203s.485-.301.644-.497c.163-.196.273-.3803.329-.553.089-.2147.138-.4597.147-.735.014-.28.021-.5063.021-.679l.518.154c-.509.0793-.945.1493-1.309.21s-.677.119-.938.175c-.261.0513-.492.1097-.693.175-.196.07-.362.1517-.497.245s-.24.2007-.315.322c-.07.1213-.105.2637-.105.427c0,.1867.047.3523.14.497.093.14.229.252.406.336.182.084.406.126.672.126Zm8.535,1.344c-.933,0-1.691-.21-2.275-.63-.583-.42-.938-1.0103-1.064-1.771l1.722-.266c.089.3733.285.6673.588.882.304.2147.686.322,1.148.322.406,0,.719-.0793.938-.238.224-.1633.336-.385.336-.665c0-.1727-.042-.3103-.126-.413-.079-.1073-.256-.21-.532-.308-.275-.098-.697-.2217-1.267-.371-.634-.168-1.138-.3477-1.512-.539-.373-.196-.641-.427-.805-.693-.163-.266-.245-.588-.245-.966c0-.4713.124-.882.371-1.232.248-.35.593-.6183,1.036-.805.444-.1913.966-.287,1.568-.287.588,0,1.109.091,1.561.273.458.182.826.441,1.106.777s.453.7303.518,1.183l-1.722.308c-.042-.322-.189-.5763-.441-.763-.247-.1867-.578-.2917-.994-.315-.396-.0233-.716.0373-.959.182-.242.14-.364.3383-.364.595c0,.1447.049.2683.147.371s.294.2053.588.308c.299.1027.742.2287,1.33.378.602.154,1.083.3313,1.442.532.364.196.626.4317.784.707.164.2753.245.609.245,1.001c0,.7607-.277,1.358-.833,1.792-.55.434-1.313.651-2.289.651Zm9.087-.21c-.5.0933-.99.133-1.47.119-.476-.0093-.903-.0957-1.281-.259-.378-.168-.665-.4317-.861-.791-.173-.3267-.264-.6603-.273-1.001-.01-.3407-.014-.7257-.014-1.155v-6.573h1.68v6.475c0,.3033.002.5693.007.798.009.2287.058.4153.147.56.168.28.436.4363.805.469.368.0327.788.014,1.26-.056v1.414Zm-5.271-6.237v-1.323h5.271v1.323h-5.271ZM304.491,31v-8.12c0-.196.009-.3897.028-.581.023-.1913.068-.3733.133-.546.065-.1773.168-.3407.308-.49.154-.168.322-.2893.504-.364.182-.0793.371-.1307.567-.154.201-.0233.397-.035.588-.035h.966v.868h-.896c-.392,0-.686.0957-.882.287-.191.1913-.287.4923-.287.903v8.232h-1.029Zm-1.309-6.678v-.882h4.403v.882h-4.403Zm8.406,6.888c-.751,0-1.393-.1703-1.925-.511s-.94-.812-1.225-1.414c-.284-.602-.427-1.2927-.427-2.072c0-.7933.145-1.4887.434-2.086.29-.5973.7-1.0617,1.232-1.393.537-.336,1.174-.504,1.911-.504.756,0,1.4.1703,1.932.511.537.336.945.805,1.225,1.407.285.5973.427,1.2857.427,2.065c0,.7933-.142,1.491-.427,2.093-.284.5973-.695,1.064-1.232,1.4-.536.336-1.178.504-1.925.504Zm0-.987c.84,0,1.466-.2777,1.876-.833.411-.56.616-1.2857.616-2.177c0-.9147-.207-1.6427-.623-2.184-.41-.5413-1.033-.812-1.869-.812-.564,0-1.031.1283-1.4.385-.364.252-.637.6043-.819,1.057-.177.448-.266.966-.266,1.554c0,.91.21,1.6403.63,2.191.42.546,1.039.819,1.855.819Zm5.129.777v-7.56h.924v1.82l-.182-.238c.084-.224.193-.4293.329-.616.135-.1913.282-.3477.441-.469.196-.1727.424-.3033.686-.392.261-.0933.525-.147.791-.161.266-.0187.508,0,.728.056v.966c-.276-.07-.577-.0863-.903-.049-.327.0373-.628.168-.903.392-.252.196-.441.4317-.567.707-.126.2707-.21.56-.252.868-.042.3033-.063.6043-.063.903v3.773h-1.029Zm10.983.21c-.76,0-1.404-.1703-1.932-.511-.527-.3407-.928-.8097-1.204-1.407-.27-.602-.41-1.2927-.42-2.072.01-.7933.154-1.4887.434-2.086.28-.602.684-1.0687,1.211-1.4.528-.336,1.167-.504,1.918-.504.766,0,1.431.1867,1.995.56.57.3733.959.8843,1.169,1.533l-1.008.322c-.177-.4527-.459-.8027-.847-1.05-.382-.252-.821-.378-1.316-.378-.555,0-1.015.1283-1.379.385-.364.252-.634.6043-.812,1.057-.177.4527-.268.973-.273,1.561.01.9053.22,1.6333.63,2.184.411.546,1.022.819,1.834.819.514,0,.95-.1167,1.309-.35.364-.238.64-.5833.826-1.036l1.036.308c-.28.672-.69,1.1853-1.232,1.54-.541.35-1.187.525-1.939.525Zm6.738,0c-.569,0-1.048-.1027-1.435-.308-.383-.2053-.67-.4783-.861-.819s-.287-.7117-.287-1.113c0-.4107.082-.7607.245-1.05.168-.294.394-.5343.679-.721.289-.1867.623-.329,1.001-.427.383-.0933.805-.175,1.267-.245.467-.0747.922-.1377,1.365-.189.448-.056.84-.1097,1.176-.161l-.364.224c.014-.7467-.131-1.2997-.434-1.659s-.831-.539-1.582-.539c-.518,0-.957.1167-1.316.35-.355.2333-.604.602-.749,1.106l-1.001-.294c.173-.6767.52-1.2017,1.043-1.575s1.202-.56,2.037-.56c.691,0,1.276.1307,1.757.392.485.2567.828.63,1.029,1.12.093.2193.154.4643.182.735s.042.546.042.826v4.697h-.917v-1.897l.266.112c-.257.6487-.656,1.1433-1.197,1.484s-1.19.511-1.946.511Zm.119-.889c.481,0,.901-.0863,1.26-.259s.649-.4083.868-.707c.219-.3033.362-.644.427-1.022.056-.2427.086-.5087.091-.798.005-.294.007-.5133.007-.658l.392.203c-.35.0467-.73.0933-1.141.14-.406.0467-.807.1003-1.204.161-.392.0607-.747.133-1.064.217-.215.0607-.422.147-.623.259-.201.1073-.366.252-.497.434-.126.182-.189.4083-.189.679c0,.2193.054.4317.161.637.112.2053.289.3757.532.511.247.1353.574.203.98.203Zm8.318.882c-.886,0-1.617-.1913-2.191-.574-.569-.3827-.919-.9147-1.05-1.596l1.05-.175c.112.4293.367.7723.763,1.029.402.252.896.378,1.484.378.574,0,1.027-.119,1.358-.357.332-.2427.497-.5717.497-.987c0-.2333-.053-.4223-.161-.567-.102-.1493-.315-.287-.637-.413s-.802-.2753-1.442-.448c-.686-.1867-1.222-.3733-1.61-.56-.387-.1867-.662-.4013-.826-.644-.163-.2473-.245-.5483-.245-.903c0-.4293.122-.805.364-1.127.243-.3267.579-.5787,1.008-.756.43-.182.929-.273,1.498-.273.57,0,1.078.0933,1.526.28.453.182.817.4387,1.092.77.276.3313.439.7163.49,1.155l-1.05.189c-.07-.4433-.291-.7933-.665-1.05-.368-.2613-.837-.3967-1.407-.406-.536-.014-.973.0887-1.309.308-.336.2147-.504.5017-.504.861c0,.2007.061.3733.182.518.122.14.341.273.658.399.322.126.78.2637,1.372.413.696.1773,1.242.364,1.638.56.397.196.679.427.847.693s.252.595.252.987c0,.714-.266,1.2763-.798,1.687-.527.406-1.255.609-2.184.609ZM352.87,31v-3.857c0-.42-.04-.805-.119-1.155-.079-.3547-.208-.6627-.385-.924-.173-.266-.399-.4713-.679-.616-.275-.1447-.611-.217-1.008-.217-.364,0-.686.063-.966.189-.275.126-.509.308-.7.546-.187.2333-.329.518-.427.854s-.147.7187-.147,1.148l-.728-.161c0-.7747.135-1.4257.406-1.953s.644-.9263,1.12-1.197s1.022-.406,1.638-.406c.453,0,.847.07,1.183.21.341.14.628.329.861.567.238.238.429.511.574.819.145.3033.25.6277.315.973.065.3407.098.6813.098,1.022v4.158h-1.036Zm-5.467,0v-10.08h.931v5.691h.105v4.389h-1.036ZM212.779,46.322v-.882h2.1v.882h-2.1ZM209.895,53v-8.12c0-.196.01-.3897.028-.581.024-.1913.068-.3733.133-.546.066-.1773.168-.3407.308-.49.154-.168.322-.2893.504-.364.182-.0793.371-.1307.567-.154.201-.0233.397-.035.588-.035h.966v.868h-.896c-.392,0-.686.0957-.882.287-.191.1913-.287.4923-.287.903v8.232h-1.029Zm-1.309-6.678v-.882h4.403v.882h-4.403ZM214.76,53v-10.29h1.029v10.29h-1.029Zm6.28.21c-.752,0-1.393-.1703-1.925-.511s-.941-.812-1.225-1.414c-.285-.602-.427-1.2927-.427-2.072c0-.7933.144-1.4887.434-2.086.289-.5973.7-1.0617,1.232-1.393.536-.336,1.173-.504,1.911-.504.756,0,1.4.1703,1.932.511.536.336.945.805,1.225,1.407.284.5973.427,1.2857.427,2.065c0,.7933-.143,1.491-.427,2.093-.285.5973-.696,1.064-1.232,1.4-.537.336-1.179.504-1.925.504Zm0-.987c.84,0,1.465-.2777,1.876-.833.41-.56.616-1.2857.616-2.177c0-.9147-.208-1.6427-.623-2.184-.411-.5413-1.034-.812-1.869-.812-.565,0-1.032.1283-1.4.385-.364.252-.637.6043-.819,1.057-.178.448-.266.966-.266,1.554c0,.91.21,1.6403.63,2.191.42.546,1.038.819,1.855.819Zm6.464.777l-2.31-7.567l1.029.007l1.792,5.873l1.799-5.873h.938l1.799,5.873l1.806-5.873h1.022L233.069,53h-.896l-1.89-6.02L228.4,53h-.896Zm12.079-8.995v-1.155h1.029v1.155h-1.029Zm0,8.995v-7.56h1.029v7.56h-1.029Zm5.949.203c-.887,0-1.617-.1913-2.191-.574-.57-.3827-.92-.9147-1.05-1.596l1.05-.175c.112.4293.366.7723.763,1.029.401.252.896.378,1.484.378.574,0,1.026-.119,1.358-.357.331-.2427.497-.5717.497-.987c0-.2333-.054-.4223-.161-.567-.103-.1493-.315-.287-.637-.413s-.803-.2753-1.442-.448c-.686-.1867-1.223-.3733-1.61-.56-.388-.1867-.663-.4013-.826-.644-.164-.2473-.245-.5483-.245-.903c0-.4293.121-.805.364-1.127.242-.3267.578-.5787,1.008-.756.429-.182.928-.273,1.498-.273.569,0,1.078.0933,1.526.28.452.182.816.4387,1.092.77.275.3313.438.7163.49,1.155l-1.05.189c-.07-.4433-.292-.7933-.665-1.05-.369-.2613-.838-.3967-1.407-.406-.537-.014-.973.0887-1.309.308-.336.2147-.504.5017-.504.861c0,.2007.06.3733.182.518.121.14.34.273.658.399.322.126.779.2637,1.372.413.695.1773,1.241.364,1.638.56.396.196.679.427.847.693s.252.595.252.987c0,.714-.266,1.2763-.798,1.687-.528.406-1.256.609-2.184.609ZM252.869,53v-7.56h.924v1.82l-.182-.238c.084-.224.194-.4293.329-.616.135-.1913.282-.3477.441-.469.196-.1727.425-.3033.686-.392.261-.0933.525-.147.791-.161.266-.0187.509,0,.728.056v.966c-.275-.07-.576-.0863-.903-.049s-.628.168-.903.392c-.252.196-.441.4317-.567.707-.126.2707-.21.56-.252.868-.042.3033-.063.6043-.063.903v3.773h-1.029Zm8.107.21c-.737,0-1.377-.1633-1.918-.49-.537-.3267-.954-.7863-1.253-1.379s-.448-1.288-.448-2.086c0-.826.147-1.54.441-2.142s.707-1.0663,1.239-1.393c.537-.3267,1.169-.49,1.897-.49.747,0,1.384.1727,1.911.518.527.3407.926.8307,1.197,1.47s.394,1.4023.371,2.289h-1.05v-.364c-.019-.98-.231-1.7197-.637-2.219-.401-.4993-.989-.749-1.764-.749-.812,0-1.435.2637-1.869.791-.429.5273-.644,1.2787-.644,2.254c0,.952.215,1.6917.644,2.219.434.5227,1.048.784,1.841.784.541,0,1.013-.1237,1.414-.371.406-.252.726-.6137.959-1.085l.959.371c-.299.658-.74,1.169-1.323,1.533-.579.3593-1.234.539-1.967.539Zm-2.891-3.703v-.861h5.775v.861h-5.775Zm9.908,3.703c-.569,0-1.048-.1027-1.435-.308-.383-.2053-.67-.4783-.861-.819s-.287-.7117-.287-1.113c0-.4107.082-.7607.245-1.05.168-.294.394-.5343.679-.721.289-.1867.623-.329,1.001-.427.383-.0933.805-.175,1.267-.245.467-.0747.922-.1377,1.365-.189.448-.056.84-.1097,1.176-.161l-.364.224c.014-.7467-.131-1.2997-.434-1.659s-.831-.539-1.582-.539c-.518,0-.957.1167-1.316.35-.355.2333-.604.602-.749,1.106l-1.001-.294c.173-.6767.52-1.2017,1.043-1.575s1.202-.56,2.037-.56c.691,0,1.276.1307,1.757.392.485.2567.828.63,1.029,1.12.093.2193.154.4643.182.735s.042.546.042.826v4.697h-.917v-1.897l.266.112c-.257.6487-.656,1.1433-1.197,1.484s-1.19.511-1.946.511Zm.119-.889c.481,0,.901-.0863,1.26-.259s.649-.4083.868-.707c.219-.3033.362-.644.427-1.022.056-.2427.086-.5087.091-.798.005-.294.007-.5133.007-.658l.392.203c-.35.0467-.73.0933-1.141.14-.406.0467-.807.1003-1.204.161-.392.0607-.747.133-1.064.217-.215.0607-.422.147-.623.259-.201.1073-.366.252-.497.434-.126.182-.189.4083-.189.679c0,.2193.054.4317.161.637.112.2053.289.3757.532.511.247.1353.574.203.98.203Zm8.43.889c-.705,0-1.307-.175-1.806-.525-.499-.3547-.882-.833-1.148-1.435s-.399-1.281-.399-2.037c0-.7513.131-1.428.392-2.03.266-.602.646-1.078,1.141-1.428s1.087-.525,1.778-.525c.709,0,1.307.1727,1.792.518s.852.819,1.099,1.421c.252.5973.378,1.2787.378,2.044c0,.7513-.124,1.4303-.371,2.037-.247.602-.611,1.0803-1.092,1.435-.481.35-1.069.525-1.764.525Zm.105-.959c.537,0,.98-.1307,1.33-.392s.611-.6207.784-1.078c.173-.462.259-.9847.259-1.568c0-.5927-.086-1.1153-.259-1.568-.173-.4573-.434-.8143-.784-1.071-.345-.2567-.782-.385-1.309-.385-.541,0-.989.133-1.344.399s-.618.6277-.791,1.085c-.168.4573-.252.9707-.252,1.54c0,.574.086,1.092.259,1.554.177.4573.441.819.791,1.085s.789.399,1.316.399ZM279.02,53v-5.691h-.112v-4.389h1.036v10.08h-.924Zm3.966,3.36l1.463-3.969.021,1.176-3.311-8.127h1.092l2.716,6.797h-.448l2.506-6.797h1.05l-4.06,10.92h-1.029ZM296.21,53c-.425.0887-.845.1237-1.26.105-.411-.0187-.78-.1073-1.106-.266-.322-.1587-.567-.406-.735-.742-.136-.28-.21-.5623-.224-.847-.01-.2893-.014-.6183-.014-.987v-6.923h1.022v6.881c0,.3173.002.5833.007.798.009.21.058.3967.147.56.168.3127.434.4993.798.56.368.0607.823.0467,1.365-.042v.903Zm-4.956-6.678v-.882h4.956v.882h-4.956Zm9.329,6.888c-.752,0-1.393-.1703-1.925-.511s-.941-.812-1.225-1.414c-.285-.602-.427-1.2927-.427-2.072c0-.7933.144-1.4887.434-2.086.289-.5973.7-1.0617,1.232-1.393.536-.336,1.173-.504,1.911-.504.756,0,1.4.1703,1.932.511.536.336.945.805,1.225,1.407.284.5973.427,1.2857.427,2.065c0,.7933-.143,1.491-.427,2.093-.285.5973-.696,1.064-1.232,1.4-.537.336-1.179.504-1.925.504Zm0-.987c.84,0,1.465-.2777,1.876-.833.41-.56.616-1.2857.616-2.177c0-.9147-.208-1.6427-.623-2.184-.411-.5413-1.034-.812-1.869-.812-.565,0-1.032.1283-1.4.385-.364.252-.637.6043-.819,1.057-.178.448-.266.966-.266,1.554c0,.91.21,1.6403.63,2.191.42.546,1.038.819,1.855.819Zm9.974.777l-2.744-7.56h1.043l2.233,6.216l2.219-6.216h1.057L311.621,53h-1.064Zm5.206-8.995v-1.155h1.029v1.155h-1.029Zm0,8.995v-7.56h1.029v7.56h-1.029Zm6.326.21c-.737,0-1.376-.1633-1.918-.49-.536-.3267-.954-.7863-1.253-1.379-.298-.5927-.448-1.288-.448-2.086c0-.826.147-1.54.441-2.142s.707-1.0663,1.239-1.393c.537-.3267,1.169-.49,1.897-.49.747,0,1.384.1727,1.911.518.528.3407.927.8307,1.197,1.47.271.6393.395,1.4023.371,2.289h-1.05v-.364c-.018-.98-.231-1.7197-.637-2.219-.401-.4993-.989-.749-1.764-.749-.812,0-1.435.2637-1.869.791-.429.5273-.644,1.2787-.644,2.254c0,.952.215,1.6917.644,2.219.434.5227,1.048.784,1.841.784.542,0,1.013-.1237,1.414-.371.406-.252.726-.6137.959-1.085l.959.371c-.298.658-.739,1.169-1.323,1.533-.578.3593-1.234.539-1.967.539Zm-2.891-3.703v-.861h5.775v.861h-5.775ZM328.416,53l-2.31-7.567l1.029.007l1.792,5.873l1.799-5.873h.938l1.799,5.873l1.806-5.873h1.022L333.981,53h-.896c0,0-1.421-6.02-1.89-6.02-.469.068-1.883,6.02-1.883,6.02h-.896Z" fill="#fff"/></g>
<script><![CDATA[
!function(t,e){"object"==typeof exports&&"undefined"!=typeof module?module.exports=e():"function"==typeof __SVGATOR_DEFINE__&&__SVGATOR_DEFINE__.amd?__SVGATOR_DEFINE__(e):((t="undefined"!=typeof globalThis?globalThis:t||self).__SVGATOR_PLAYER__=t.__SVGATOR_PLAYER__||{},t.__SVGATOR_PLAYER__["91c80d77"]=e())}(this,(function(){"use strict";function t(t,e){var n=Object.keys(t);if(Object.getOwnPropertySymbols){var r=Object.getOwnPropertySymbols(t);e&&(r=r.filter((function(e){return Object.getOwnPropertyDescriptor(t,e).enumerable}))),n.push.apply(n,r)}return n}function e(e){for(var n=1;n<arguments.length;n++){var r=null!=arguments[n]?arguments[n]:{};n%2?t(Object(r),!0).forEach((function(t){u(e,t,r[t])})):Object.getOwnPropertyDescriptors?Object.defineProperties(e,Object.getOwnPropertyDescriptors(r)):t(Object(r)).forEach((function(t){Object.defineProperty(e,t,Object.getOwnPropertyDescriptor(r,t))}))}return e}function n(t){return(n="function"==typeof Symbol&&"symbol"==typeof Symbol.iterator?function(t){return typeof t}:function(t){return t&&"function"==typeof Symbol&&t.constructor===Symbol&&t!==Symbol.prototype?"symbol":typeof t})(t)}function r(t,e){if(!(t instanceof e))throw new TypeError("Cannot call a class as a function")}function i(t,e){for(var n=0;n<e.length;n++){var r=e[n];r.enumerable=r.enumerable||!1,r.configurable=!0,"value"in r&&(r.writable=!0),Object.defineProperty(t,r.key,r)}}function o(t,e,n){return e&&i(t.prototype,e),n&&i(t,n),t}function u(t,e,n){return e in t?Object.defineProperty(t,e,{value:n,enumerable:!0,configurable:!0,writable:!0}):t[e]=n,t}function a(t){return(a=Object.setPrototypeOf?Object.getPrototypeOf:function(t){return t.__proto__||Object.getPrototypeOf(t)})(t)}function l(t,e){return(l=Object.setPrototypeOf||function(t,e){return t.__proto__=e,t})(t,e)}function s(){if("undefined"==typeof Reflect||!Reflect.construct)return!1;if(Reflect.construct.sham)return!1;if("function"==typeof Proxy)return!0;try{return Boolean.prototype.valueOf.call(Reflect.construct(Boolean,[],(function(){}))),!0}catch(t){return!1}}function f(t,e,n){return(f=s()?Reflect.construct:function(t,e,n){var r=[null];r.push.apply(r,e);var i=new(Function.bind.apply(t,r));return n&&l(i,n.prototype),i}).apply(null,arguments)}function c(t,e){if(e&&("object"==typeof e||"function"==typeof e))return e;if(void 0!==e)throw new TypeError("Derived constructors may only return object or undefined");return function(t){if(void 0===t)throw new ReferenceError("this hasn't been initialised - super() hasn't been called");return t}(t)}function h(t,e,n){return(h="undefined"!=typeof Reflect&&Reflect.get?Reflect.get:function(t,e,n){var r=function(t,e){for(;!Object.prototype.hasOwnProperty.call(t,e)&&null!==(t=a(t)););return t}(t,e);if(r){var i=Object.getOwnPropertyDescriptor(r,e);return i.get?i.get.call(n):i.value}})(t,e,n||t)}function v(t){return function(t){if(Array.isArray(t))return d(t)}(t)||function(t){if("undefined"!=typeof Symbol&&null!=t[Symbol.iterator]||null!=t["@@iterator"])return Array.from(t)}(t)||function(t,e){if(!t)return;if("string"==typeof t)return d(t,e);var n=Object.prototype.toString.call(t).slice(8,-1);"Object"===n&&t.constructor&&(n=t.constructor.name);if("Map"===n||"Set"===n)return Array.from(t);if("Arguments"===n||/^(?:Ui|I)nt(?:8|16|32)(?:Clamped)?Array$/.test(n))return d(t,e)}(t)||function(){throw new TypeError("Invalid attempt to spread non-iterable instance.\nIn order to be iterable, non-array objects must have a [Symbol.iterator]() method.")}()}function d(t,e){(null==e||e>t.length)&&(e=t.length);for(var n=0,r=new Array(e);n<e;n++)r[n]=t[n];return r}function y(t,e,n){if(Number.isInteger(t))return t;var r=Math.pow(10,e);return Math[n]((+t+Number.EPSILON)*r)/r}Number.isInteger||(Number.isInteger=function(t){return"number"==typeof t&&isFinite(t)&&Math.floor(t)===t}),Number.EPSILON||(Number.EPSILON=2220446049250313e-31);var g=p(Math.pow(10,-6));function p(t){var e=arguments.length>1&&void 0!==arguments[1]?arguments[1]:6;return y(t,e,"round")}function m(t,e){var n=arguments.length>2&&void 0!==arguments[2]?arguments[2]:g;return Math.abs(t-e)<n}p(Math.pow(10,-2)),p(Math.pow(10,-4));var b=Math.PI/180;function w(t){return t}function k(t,e,n){var r=1-n;return 3*n*r*(t*r+e*n)+n*n*n}function _(){var t=arguments.length>0&&void 0!==arguments[0]?arguments[0]:0,e=arguments.length>1&&void 0!==arguments[1]?arguments[1]:0,n=arguments.length>2&&void 0!==arguments[2]?arguments[2]:1,r=arguments.length>3&&void 0!==arguments[3]?arguments[3]:1;return t<0||t>1||n<0||n>1?null:m(t,e)&&m(n,r)?w:function(i){if(i<=0)return t>0?i*e/t:0===e&&n>0?i*r/n:0;if(i>=1)return n<1?1+(i-1)*(r-1)/(n-1):1===n&&t<1?1+(i-1)*(e-1)/(t-1):1;for(var o,u=0,a=1;u<a;){var l=k(t,n,o=(u+a)/2);if(m(i,l))break;l<i?u=o:a=o}return k(e,r,o)}}function A(){return 1}function x(t){return 1===t?1:0}function O(){var t=arguments.length>0&&void 0!==arguments[0]?arguments[0]:1,e=arguments.length>1&&void 0!==arguments[1]?arguments[1]:0;if(1===t){if(0===e)return x;if(1===e)return A}var n=1/t;return function(t){return t>=1?1:(t+=e*n)-t%n}}var S=Math.sin,E=Math.cos,j=Math.acos,M=Math.asin,P=Math.tan,B=Math.atan2,I=Math.PI/180,T=180/Math.PI,N=Math.sqrt,R=function(){function t(){var e=arguments.length>0&&void 0!==arguments[0]?arguments[0]:1,n=arguments.length>1&&void 0!==arguments[1]?arguments[1]:0,i=arguments.length>2&&void 0!==arguments[2]?arguments[2]:0,o=arguments.length>3&&void 0!==arguments[3]?arguments[3]:1,u=arguments.length>4&&void 0!==arguments[4]?arguments[4]:0,a=arguments.length>5&&void 0!==arguments[5]?arguments[5]:0;r(this,t),this.m=[e,n,i,o,u,a],this.i=null,this.w=null,this.s=null}return o(t,[{key:"determinant",get:function(){var t=this.m;return t[0]*t[3]-t[1]*t[2]}},{key:"isIdentity",get:function(){if(null===this.i){var t=this.m;this.i=1===t[0]&&0===t[1]&&0===t[2]&&1===t[3]&&0===t[4]&&0===t[5]}return this.i}},{key:"point",value:function(t,e){var n=this.m;return{x:n[0]*t+n[2]*e+n[4],y:n[1]*t+n[3]*e+n[5]}}},{key:"translateSelf",value:function(){var t=arguments.length>0&&void 0!==arguments[0]?arguments[0]:0,e=arguments.length>1&&void 0!==arguments[1]?arguments[1]:0;if(!t&&!e)return this;var n=this.m;return n[4]+=n[0]*t+n[2]*e,n[5]+=n[1]*t+n[3]*e,this.w=this.s=this.i=null,this}},{key:"rotateSelf",value:function(){var t=arguments.length>0&&void 0!==arguments[0]?arguments[0]:0;if(t%=360){var e=S(t*=I),n=E(t),r=this.m,i=r[0],o=r[1];r[0]=i*n+r[2]*e,r[1]=o*n+r[3]*e,r[2]=r[2]*n-i*e,r[3]=r[3]*n-o*e,this.w=this.s=this.i=null}return this}},{key:"scaleSelf",value:function(){var t=arguments.length>0&&void 0!==arguments[0]?arguments[0]:1,e=arguments.length>1&&void 0!==arguments[1]?arguments[1]:1;if(1!==t||1!==e){var n=this.m;n[0]*=t,n[1]*=t,n[2]*=e,n[3]*=e,this.w=this.s=this.i=null}return this}},{key:"skewSelf",value:function(t,e){if(e%=360,(t%=360)||e){var n=this.m,r=n[0],i=n[1],o=n[2],u=n[3];t&&(t=P(t*I),n[2]+=r*t,n[3]+=i*t),e&&(e=P(e*I),n[0]+=o*e,n[1]+=u*e),this.w=this.s=this.i=null}return this}},{key:"resetSelf",value:function(){var t=arguments.length>0&&void 0!==arguments[0]?arguments[0]:1,e=arguments.length>1&&void 0!==arguments[1]?arguments[1]:0,n=arguments.length>2&&void 0!==arguments[2]?arguments[2]:0,r=arguments.length>3&&void 0!==arguments[3]?arguments[3]:1,i=arguments.length>4&&void 0!==arguments[4]?arguments[4]:0,o=arguments.length>5&&void 0!==arguments[5]?arguments[5]:0,u=this.m;return u[0]=t,u[1]=e,u[2]=n,u[3]=r,u[4]=i,u[5]=o,this.w=this.s=this.i=null,this}},{key:"recomposeSelf",value:function(){var t=arguments.length>0&&void 0!==arguments[0]?arguments[0]:null,e=arguments.length>1&&void 0!==arguments[1]?arguments[1]:null,n=arguments.length>2&&void 0!==arguments[2]?arguments[2]:null,r=arguments.length>3&&void 0!==arguments[3]?arguments[3]:null,i=arguments.length>4&&void 0!==arguments[4]?arguments[4]:null;return this.isIdentity||this.resetSelf(),t&&(t.x||t.y)&&this.translateSelf(t.x,t.y),e&&this.rotateSelf(e),n&&(n.x&&this.skewSelf(n.x,0),n.y&&this.skewSelf(0,n.y)),!r||1===r.x&&1===r.y||this.scaleSelf(r.x,r.y),i&&(i.x||i.y)&&this.translateSelf(i.x,i.y),this}},{key:"decompose",value:function(){var t=arguments.length>0&&void 0!==arguments[0]?arguments[0]:0,e=arguments.length>1&&void 0!==arguments[1]?arguments[1]:0,n=this.m,r=n[0]*n[0]+n[1]*n[1],i=[[n[0],n[1]],[n[2],n[3]]],o=N(r);if(0===o)return{origin:{x:p(n[4]),y:p(n[5])},translate:{x:p(t),y:p(e)},scale:{x:0,y:0},skew:{x:0,y:0},rotate:0};i[0][0]/=o,i[0][1]/=o;var u=n[0]*n[3]-n[1]*n[2]<0;u&&(o=-o);var a=i[0][0]*i[1][0]+i[0][1]*i[1][1];i[1][0]-=i[0][0]*a,i[1][1]-=i[0][1]*a;var l=N(i[1][0]*i[1][0]+i[1][1]*i[1][1]);if(0===l)return{origin:{x:p(n[4]),y:p(n[5])},translate:{x:p(t),y:p(e)},scale:{x:p(o),y:0},skew:{x:0,y:0},rotate:0};i[1][0]/=l,i[1][1]/=l,a/=l;var s=0;return i[1][1]<0?(s=j(i[1][1])*T,i[0][1]<0&&(s=360-s)):s=M(i[0][1])*T,u&&(s=-s),a=B(a,N(i[0][0]*i[0][0]+i[0][1]*i[0][1]))*T,u&&(a=-a),{origin:{x:p(n[4]),y:p(n[5])},translate:{x:p(t),y:p(e)},scale:{x:p(o),y:p(l)},skew:{x:p(a),y:0},rotate:p(s)}}},{key:"clone",value:function(){var t=this.m;return new this.constructor(t[0],t[1],t[2],t[3],t[4],t[5])}},{key:"toString",value:function(){var t=arguments.length>0&&void 0!==arguments[0]?arguments[0]:" ";if(null===this.s){var e=this.m.map((function(t){return p(t)}));1===e[0]&&0===e[1]&&0===e[2]&&1===e[3]?this.s="translate("+e[4]+t+e[5]+")":this.s="matrix("+e.join(t)+")"}return this.s}}],[{key:"create",value:function(t){return t?Array.isArray(t)?f(this,v(t)):t instanceof this?t.clone():(new this).recomposeSelf(t.origin,t.rotate,t.skew,t.scale,t.translate):new this}}]),t}();function F(t,e,n){return t>=.5?n:e}function D(t,e,n){return 0===t||e===n?e:t*(n-e)+e}function C(t,e,n){var r=D(t,e,n);return r<=0?0:r}function q(t,e,n){var r=D(t,e,n);return r<=0?0:r>=1?1:r}function L(t,e,n){return 0===t?e:1===t?n:{x:D(t,e.x,n.x),y:D(t,e.y,n.y)}}function V(t,e,n){return 0===t?e:1===t?n:{x:C(t,e.x,n.x),y:C(t,e.y,n.y)}}function G(t,e,n){var r=function(t,e,n){return Math.round(D(t,e,n))}(t,e,n);return r<=0?0:r>=255?255:r}function z(t,e,n){return 0===t?e:1===t?n:{r:G(t,e.r,n.r),g:G(t,e.g,n.g),b:G(t,e.b,n.b),a:D(t,null==e.a?1:e.a,null==n.a?1:n.a)}}function Y(t,e,n){var r=e.length;if(r!==n.length)return F(t,e,n);for(var i=new Array(r),o=0;o<r;o++)i[o]=D(t,e[o],n[o]);return i}function U(t,e){for(var n=[],r=0;r<t;r++)n.push(e);return n}function W(t,e){if(--e<=0)return t;var n=(t=Object.assign([],t)).length;do{for(var r=0;r<n;r++)t.push(t[r])}while(--e>0);return t}var $,H=function(){function t(e){r(this,t),this.list=e,this.length=e.length}return o(t,[{key:"setAttribute",value:function(t,e){for(var n=this.list,r=0;r<this.length;r++)n[r].setAttribute(t,e)}},{key:"removeAttribute",value:function(t){for(var e=this.list,n=0;n<this.length;n++)e[n].removeAttribute(t)}},{key:"style",value:function(t,e){for(var n=this.list,r=0;r<this.length;r++)n[r].style[t]=e}}]),t}(),Q=/-./g,X=function(t,e){return e.toUpperCase()};function J(t){return"function"==typeof t?t:F}function K(t){return t?"function"==typeof t?t:Array.isArray(t)?function(t){var e=arguments.length>1&&void 0!==arguments[1]?arguments[1]:w;if(!Array.isArray(t))return e;switch(t.length){case 1:return O(t[0])||e;case 2:return O(t[0],t[1])||e;case 4:return _(t[0],t[1],t[2],t[3])||e}return e}(t,null):function(t,e){var n=arguments.length>2&&void 0!==arguments[2]?arguments[2]:w;switch(t){case"linear":return w;case"steps":return O(e.steps||1,e.jump||0)||n;case"bezier":case"cubic-bezier":return _(e.x1||0,e.y1||0,e.x2||0,e.y2||0)||n}return n}(t.type,t.value,null):null}function Z(t,e,n){var r=arguments.length>3&&void 0!==arguments[3]&&arguments[3],i=e.length-1;if(t<=e[0].t)return r?[0,0,e[0].v]:e[0].v;if(t>=e[i].t)return r?[i,1,e[i].v]:e[i].v;var o,u=e[0],a=null;for(o=1;o<=i;o++){if(!(t>e[o].t)){a=e[o];break}u=e[o]}return null==a?r?[i,1,e[i].v]:e[i].v:u.t===a.t?r?[o,1,a.v]:a.v:(t=(t-u.t)/(a.t-u.t),u.e&&(t=u.e(t)),r?[o,t,n(t,u.v,a.v)]:n(t,u.v,a.v))}function tt(t,e){var n=arguments.length>2&&void 0!==arguments[2]?arguments[2]:null;return t&&t.length?"function"!=typeof e?null:("function"!=typeof n&&(n=null),function(r){var i=Z(r,t,e);return null!=i&&n&&(i=n(i)),i}):null}function et(t,e){return t.t-e.t}function nt(t,e,r,i,o){var u,a="@"===r[0],l="#"===r[0],s=$[r],f=F;switch(a?(u=r.substr(1),r=u.replace(Q,X)):l&&(r=r.substr(1)),n(s)){case"function":if(f=s(i,o,Z,K,r,a,e,t),l)return f;break;case"string":f=tt(i,J(s));break;case"object":if((f=tt(i,J(s.i),s.f))&&"function"==typeof s.u)return s.u(e,f,r,a,t)}return f?function(t,e,n){if(arguments.length>3&&void 0!==arguments[3]&&arguments[3])return t instanceof H?function(r){return t.style(e,n(r))}:function(r){return t.style[e]=n(r)};if(Array.isArray(e)){var r=e.length;return function(i){var o=n(i);if(null==o)for(var u=0;u<r;u++)t[u].removeAttribute(e);else for(var a=0;a<r;a++)t[a].setAttribute(e,o)}}return function(r){var i=n(r);null==i?t.removeAttribute(e):t.setAttribute(e,i)}}(e,r,f,a):null}function rt(t,e,r,i){if(!i||"object"!==n(i))return null;var o=null,u=null;return Array.isArray(i)?u=function(t){if(!t||!t.length)return null;for(var e=0;e<t.length;e++)t[e].e&&(t[e].e=K(t[e].e));return t.sort(et)}(i):(u=i.keys,o=i.data||null),u?nt(t,e,r,u,o):null}function it(t,e,n){if(!n)return null;var r=[];for(var i in n)if(n.hasOwnProperty(i)){var o=rt(t,e,i,n[i]);o&&r.push(o)}return r.length?r:null}function ot(t,e){if(!e.settings.duration||e.settings.duration<0)return null;var n,r,i,o,u,a=function(t,e){if(!e)return null;var n=[];if(Array.isArray(e))for(var r=e.length,i=0;i<r;i++){var o=e[i];if(2===o.length){var u=null;if("string"==typeof o[0])u=t.getElementById(o[0]);else if(Array.isArray(o[0])){u=[];for(var a=0;a<o[0].length;a++)if("string"==typeof o[0][a]){var l=t.getElementById(o[0][a]);l&&u.push(l)}u=u.length?1===u.length?u[0]:new H(u):null}if(u){var s=it(t,u,o[1]);s&&(n=n.concat(s))}}}else for(var f in e)if(e.hasOwnProperty(f)){var c=t.getElementById(f);if(c){var h=it(t,c,e[f]);h&&(n=n.concat(h))}}return n.length?n:null}(t,e.elements);return a?(n=a,r=e.settings,i=r.duration,o=n.length,u=null,function(t,e){var a=r.iterations||1/0,l=(r.alternate&&a%2==0)^r.direction>0?i:0,s=t%i,f=1+(t-s)/i;e*=r.direction,r.alternate&&f%2==0&&(e=-e);var c=!1;if(f>a)s=l,c=!0,-1===r.fill&&(s=r.direction>0?0:i);else if(e<0&&(s=i-s),s===u)return!1;u=s;for(var h=0;h<o;h++)n[h](s);return c}):null}function ut(t,e){for(var n=e.querySelectorAll("svg"),r=0;r<n.length;r++)if(n[r].id===t.root&&!n[r].svgatorAnimation)return n[r].svgatorAnimation=!0,n[r];return null}function at(t){var e=function(t){return t.shadowRoot};return document?Array.from(t.querySelectorAll(":not("+["a","area","audio","br","canvas","circle","datalist","embed","g","head","hr","iframe","img","input","link","object","path","polygon","rect","script","source","style","svg","title","track","video"].join()+")")).filter(e).map(e):[]}function lt(t){var e=arguments.length>1&&void 0!==arguments[1]?arguments[1]:document,n=arguments.length>2&&void 0!==arguments[2]?arguments[2]:0,r=ut(t,e);if(r)return r;if(n>=20)return null;for(var i=at(e),o=0;o<i.length;o++){var u=lt(t,i[o],n+1);if(u)return u}return null}function st(t,e){if($=e,!t||!t.root||!Array.isArray(t.animations))return null;var n=lt(t);if(!n)return null;var r=t.animations.map((function(t){return ot(n,t)})).filter((function(t){return!!t}));return r.length?{svg:n,animations:r,animationSettings:t.animationSettings,options:t.options||void 0}:null}function ft(t){var e=arguments.length>1&&void 0!==arguments[1]?arguments[1]:null,n=arguments.length>2&&void 0!==arguments[2]?arguments[2]:Number,r=arguments.length>3&&void 0!==arguments[3]?arguments[3]:"undefined"!=typeof BigInt&&BigInt,i="0x"+(t.replace(/[^0-9a-fA-F]+/g,"")||27);return e&&r&&n.isSafeInteger&&!n.isSafeInteger(+i)?n(r(i))%e+e:+i}function ct(t,e,n){return!t||!n||e>t.length?t:t.substring(0,e)+ct(t.substring(e+1),n,n)}function ht(t){var e=arguments.length>1&&void 0!==arguments[1]?arguments[1]:27;return!t||t%e?t%e:[0,1].includes(e)?e:ht(t/e,e)}function vt(t,e,n){if(t&&t.length){var r=ft(n),i=ht(r)+5,o=ct(t,ht(r,5),i);return o=o.replace(/\x7c$/g,"==").replace(/\x2f$/g,"="),o=function(t,e,n){var r=+("0x"+t.substring(0,4));t=t.substring(4);for(var i=ft(e,r)%r+n%27,o=[],u=0;u<t.length;u+=2)if("|"!==t[u]){var a=+("0x"+t[u]+t[u+1])-i;o.push(a)}else{var l=+("0x"+t.substring(u+1,u+1+4))-i;u+=3,o.push(l)}return String.fromCharCode.apply(String,o)}(o=(o=atob(o)).replace(/[\x41-\x5A]/g,""),e,r),o=JSON.parse(o)}}var dt=[{key:"alternate",def:!1},{key:"fill",def:1},{key:"iterations",def:0},{key:"direction",def:1},{key:"speed",def:1},{key:"fps",def:100}],yt=function(){function t(e,n){var i=this,o=arguments.length>2&&void 0!==arguments[2]?arguments[2]:null;r(this,t),this._id=0,this._running=!1,this._rollingBack=!1,this._animations=e,this._settings=n,(!o||o<"2022-05-02")&&delete this._settings.speed,dt.forEach((function(t){i._settings[t.key]=i._settings[t.key]||t.def})),this.duration=n.duration,this.offset=n.offset||0,this.rollbackStartOffset=0}return o(t,[{key:"alternate",get:function(){return this._settings.alternate}},{key:"fill",get:function(){return this._settings.fill}},{key:"iterations",get:function(){return this._settings.iterations}},{key:"direction",get:function(){return this._settings.direction}},{key:"speed",get:function(){return this._settings.speed}},{key:"fps",get:function(){return this._settings.fps}},{key:"maxFiniteDuration",get:function(){return this.iterations>0?this.iterations*this.duration:this.duration}},{key:"_apply",value:function(t){for(var e=arguments.length>1&&void 0!==arguments[1]?arguments[1]:{},n=this._animations,r=n.length,i=0,o=0;o<r;o++)e[o]?i++:(e[o]=n[o](t,1),e[o]&&i++);return i}},{key:"_rollback",value:function(t){var e=this,n=1/0,r=null;this.rollbackStartOffset=t,this._rollingBack=!0,this._running=!0;this._id=window.requestAnimationFrame((function i(o){if(e._rollingBack){null==r&&(r=o);var u=Math.round(t-(o-r)*e.speed);if(u>e.duration&&n!==1/0){var a=!!e.alternate&&u/e.duration%2>1,l=u%e.duration;u=(l+=a?e.duration:0)||e.duration}var s=(e.fps?1e3/e.fps:0)*e.speed,f=Math.max(0,u);f<=n-s&&(e.offset=f,n=f,e._apply(f));var c=e.iterations>0&&-1===e.fill&&u>=e.maxFiniteDuration;(u<=0||e.offset<u||c)&&e.stop(),e._id=window.requestAnimationFrame(i)}}))}},{key:"_start",value:function(){var t=this,e=arguments.length>0&&void 0!==arguments[0]?arguments[0]:0,n=-1/0,r=null,i={};this._running=!0;var o=function o(u){null==r&&(r=u);var a=Math.round((u-r)*t.speed+e),l=(t.fps?1e3/t.fps:0)*t.speed;if(a>=n+l&&!t._rollingBack&&(t.offset=a,n=a,t._apply(a,i)===t._animations.length))return void t.pause(!0);t._id=window.requestAnimationFrame(o)};this._id=window.requestAnimationFrame(o)}},{key:"_pause",value:function(){this._id&&window.cancelAnimationFrame(this._id),this._running=!1}},{key:"play",value:function(){if(!this._running)return this._rollingBack?this._rollback(this.offset):this._start(this.offset)}},{key:"stop",value:function(){this._pause(),this.offset=0,this.rollbackStartOffset=0,this._rollingBack=!1,this._apply(0)}},{key:"reachedToEnd",value:function(){return this.iterations>0&&this.offset>=this.iterations*this.duration}},{key:"restart",value:function(){var t=arguments.length>0&&void 0!==arguments[0]&&arguments[0];this.stop(t),this.play(t)}},{key:"pause",value:function(){this._pause()}},{key:"reverse",value:function(){this.direction=-this.direction}}],[{key:"build",value:function(t,e){delete t.animationSettings,t.options=vt(t.options,t.root,"91c80d77"),t.animations.map((function(e){e.settings=vt(e.s,t.root,"91c80d77"),delete e.s,t.animationSettings||(t.animationSettings=e.settings)}));var n=t.version;if(!(t=st(t,e)))return null;var r=t.options||{},i=new this(t.animations,t.animationSettings,n);return{el:t.svg,options:r,player:i}}},{key:"push",value:function(t){return this.build(t)}},{key:"init",value:function(){var t=this,e=window.__SVGATOR_PLAYER__&&window.__SVGATOR_PLAYER__["91c80d77"];Array.isArray(e)&&e.splice(0).forEach((function(e){return t.build(e)}))}}]),t}();!function(){for(var t=0,e=["ms","moz","webkit","o"],n=0;n<e.length&&!window.requestAnimationFrame;++n)window.requestAnimationFrame=window[e[n]+"RequestAnimationFrame"],window.cancelAnimationFrame=window[e[n]+"CancelAnimationFrame"]||window[e[n]+"CancelRequestAnimationFrame"];window.requestAnimationFrame||(window.requestAnimationFrame=function(e){var n=Date.now(),r=Math.max(0,16-(n-t)),i=window.setTimeout((function(){e(n+r)}),r);return t=n+r,i},window.cancelAnimationFrame=window.clearTimeout)}();var gt=function(){function t(e,n,i){r(this,t);var o=function(t){var e,n,r,i=t&&1===(null===(e=t.ownerDocument)||void 0===e||null===(n=e.childNodes)||void 0===n?void 0:n.length)&&window.parent!==window,o={el:t,window:window};if(!i)return o;try{r=window.parent.document}catch(t){return o}return o.window=window.parent,o.el=Array.from(r.querySelectorAll("iframe,object")).filter((function(t){return t.contentWindow===window}))[0]||o.el,o}(e);n=Math.max(1,n||1),n=Math.min(n,100),this.el=o.el,this._handlers=[],this.onThresholdChange=i&&i.call?i:function(){},this.thresholdPercent=n||1,this.currentVisibility=null,this.visibilityCalculator=function(t,e){var n=arguments.length>2&&void 0!==arguments[2]?arguments[2]:n,r=!1,i=null,o=function(){for(var o=0,u=n.innerHeight,a=0,l=n.innerWidth,s=t.parentNode;s instanceof Element;){var f=n.getComputedStyle(s);if("visible"!==f.overflowY||"visible"!==f.overflowX){var c=s.getBoundingClientRect();"visible"!==f.overflowY&&(o=Math.max(o,c.top),u=Math.min(u,c.bottom)),"visible"!==f.overflowX&&(a=Math.max(a,c.left),l=Math.min(l,c.right))}if(s===s.parentNode)break;s=s.parentNode}r=!1;var h=t.getBoundingClientRect(),v=Math.min(h.height,Math.max(0,o-h.top)),d=Math.min(h.height,Math.max(0,h.bottom-u)),y=Math.min(h.width,Math.max(0,a-h.left)),g=Math.min(h.width,Math.max(0,h.right-l)),p=(h.height-v-d)/h.height,m=(h.width-y-g)/h.width,b=Math.round(p*m*100);null!==i&&i===b||(i=b,e(b))};return function(t){r&&clearTimeout(r),r=setTimeout((function(){return o()}),100)}}(this.el,this.onVisibilityUpdate.bind(this),o.window),this.bindScrollWatchers(),this.visibilityCalculator()}return o(t,[{key:"bindScrollWatchers",value:function(){for(var t=this.el.parentNode;t&&(this._handlers.push({element:t,event:"scroll",handler:this.visibilityCalculator}),t.addEventListener("scroll",this.visibilityCalculator),t!==t.parentNode&&t!==document);)t=t.parentNode}},{key:"onVisibilityUpdate",value:function(t){var e=this.currentVisibility>=this.thresholdPercent,n=t>=this.thresholdPercent;if(null===this.currentVisibility||e!==n)return this.currentVisibility=t,void this.onThresholdChange(n);this.currentVisibility=t}},{key:"destruct",value:function(){this._handlers.forEach((function(t){t.element.removeEventListener(t.event,t.handler)}))}}]),t}();function pt(t){return p(t)+""}function mt(t){var e=arguments.length>1&&void 0!==arguments[1]?arguments[1]:" ";return t&&t.length?t.map(pt).join(e):""}function bt(t){return pt(t.x)+","+pt(t.y)}function wt(t){if(!t)return"transparent";if(null==t.a||t.a>=1){var e=function(t){return 1===(t=parseInt(t).toString(16)).length?"0"+t:t},n=function(t){return t.charAt(0)===t.charAt(1)},r=e(t.r),i=e(t.g),o=e(t.b);return n(r)&&n(i)&&n(o)&&(r=r.charAt(0),i=i.charAt(0),o=o.charAt(0)),"#"+r+i+o}return"rgba("+t.r+","+t.g+","+t.b+","+t.a+")"}function kt(t){return t?"url(#"+t+")":"none"}var _t={f:null,i:V,u:function(t,e){return function(n){var r=e(n);t.setAttribute("rx",pt(r.x)),t.setAttribute("ry",pt(r.y))}}},At={f:null,i:function(t,e,n){return 0===t?e:1===t?n:{width:C(t,e.width,n.width),height:C(t,e.height,n.height)}},u:function(t,e){return function(n){var r=e(n);t.setAttribute("width",pt(r.width)),t.setAttribute("height",pt(r.height))}}};Object.freeze({M:2,L:2,Z:0,H:1,V:1,C:6,Q:4,T:2,S:4,A:7});var xt={},Ot=null;function St(t){var e=function(){if(Ot)return Ot;if("object"!==("undefined"==typeof document?"undefined":n(document))||!document.createElementNS)return{};var t=document.createElementNS("http://www.w3.org/2000/svg","svg");return t&&t.style?(t.style.position="absolute",t.style.opacity="0.01",t.style.zIndex="-9999",t.style.left="-9999px",t.style.width="1px",t.style.height="1px",Ot={svg:t}):{}}().svg;if(!e)return function(t){return null};var r=document.createElementNS(e.namespaceURI,"path");r.setAttributeNS(null,"d",t),r.setAttributeNS(null,"fill","none"),r.setAttributeNS(null,"stroke","none"),e.appendChild(r);var i=r.getTotalLength();return function(t){var e=r.getPointAtLength(i*t);return{x:e.x,y:e.y}}}function Et(t){return xt[t]?xt[t]:xt[t]=St(t)}function jt(t,e,n,r){if(!t||!r)return!1;var i=["M",t.x,t.y];if(e&&n&&(i.push("C"),i.push(e.x),i.push(e.y),i.push(n.x),i.push(n.y)),e?!n:n){var o=e||n;i.push("Q"),i.push(o.x),i.push(o.y)}return e||n||i.push("L"),i.push(r.x),i.push(r.y),i.join(" ")}function Mt(t,e,n,r){var i=arguments.length>4&&void 0!==arguments[4]?arguments[4]:1,o=jt(t,e,n,r),u=Et(o);try{return u(i)}catch(t){return null}}function Pt(t,e,n){return t+(e-t)*n}function Bt(t,e,n){var r=arguments.length>3&&void 0!==arguments[3]&&arguments[3],i={x:Pt(t.x,e.x,n),y:Pt(t.y,e.y,n)};return r&&(i.a=It(t,e)),i}function It(t,e){return Math.atan2(e.y-t.y,e.x-t.x)}function Tt(t,e,n,r){var i=1-r;return i*i*t+2*i*r*e+r*r*n}function Nt(t,e,n,r){return 2*(1-r)*(e-t)+2*r*(n-e)}function Rt(t,e,n,r){var i=arguments.length>4&&void 0!==arguments[4]&&arguments[4],o=Mt(t,e,null,n,r);return o||(o={x:Tt(t.x,e.x,n.x,r),y:Tt(t.y,e.y,n.y,r)}),i&&(o.a=Ft(t,e,n,r)),o}function Ft(t,e,n,r){return Math.atan2(Nt(t.y,e.y,n.y,r),Nt(t.x,e.x,n.x,r))}function Dt(t,e,n,r,i){var o=i*i;return i*o*(r-t+3*(e-n))+3*o*(t+n-2*e)+3*i*(e-t)+t}function Ct(t,e,n,r,i){var o=1-i;return 3*(o*o*(e-t)+2*o*i*(n-e)+i*i*(r-n))}function qt(t,e,n,r,i){var o=arguments.length>5&&void 0!==arguments[5]&&arguments[5],u=Mt(t,e,n,r,i);return u||(u={x:Dt(t.x,e.x,n.x,r.x,i),y:Dt(t.y,e.y,n.y,r.y,i)}),o&&(u.a=Lt(t,e,n,r,i)),u}function Lt(t,e,n,r,i){return Math.atan2(Ct(t.y,e.y,n.y,r.y,i),Ct(t.x,e.x,n.x,r.x,i))}function Vt(t,e,n){var r=arguments.length>3&&void 0!==arguments[3]&&arguments[3];if(zt(e)){if(Yt(n))return Rt(e,n.start,n,t,r)}else if(zt(n)){if(Ut(e))return Rt(e,e.end,n,t,r)}else{if(Ut(e))return Yt(n)?qt(e,e.end,n.start,n,t,r):Rt(e,e.end,n,t,r);if(Yt(n))return Rt(e,n.start,n,t,r)}return Bt(e,n,t,r)}function Gt(t,e,n){var r=Vt(t,e,n,!0);return r.a=function(t){return arguments.length>1&&void 0!==arguments[1]&&arguments[1]?t+Math.PI:t}(r.a)/b,r}function zt(t){return!t.type||"corner"===t.type}function Yt(t){return null!=t.start&&!zt(t)}function Ut(t){return null!=t.end&&!zt(t)}var Wt=new R;var $t={f:function(t){return t?t.join(" "):""},i:function(t,e,r){if(0===t)return e;if(1===t)return r;var i=e.length;if(i!==r.length)return F(t,e,r);for(var o,u=new Array(i),a=0;a<i;a++){if((o=n(e[a]))!==n(r[a]))return F(t,e,r);if("number"===o)u[a]=D(t,e[a],r[a]);else{if(e[a]!==r[a])return F(t,e,r);u[a]=e[a]}}return u}},Ht={f:null,i:Y,u:function(t,e){return function(n){var r=e(n);t.setAttribute("x1",pt(r[0])),t.setAttribute("y1",pt(r[1])),t.setAttribute("x2",pt(r[2])),t.setAttribute("y2",pt(r[3]))}}},Qt={f:pt,i:D},Xt={f:pt,i:q},Jt={f:function(t){var e=arguments.length>1&&void 0!==arguments[1]?arguments[1]:" ";return t&&t.length>0&&(t=t.map((function(t){return p(t,4)}))),mt(t,e)},i:function(t,e,n){var r,i,o,u=e.length,a=n.length;if(u!==a)if(0===u)e=U(u=a,0);else if(0===a)a=u,n=U(u,0);else{var l=(o=(r=u)*(i=a)/function(t,e){for(var n;e;)n=e,e=t%e,t=n;return t||1}(r,i))<0?-o:o;e=W(e,Math.floor(l/u)),n=W(n,Math.floor(l/a)),u=a=l}for(var s=[],f=0;f<u;f++)s.push(p(C(t,e[f],n[f])));return s}};function Kt(t,e,n){return t.map((function(t){return function(t,e,n){var r=t.v;if(!r||"g"!==r.t||r.s||!r.v||!r.r)return t;var i=n.getElementById(r.r),o=i&&i.querySelectorAll("stop")||[];return r.s=r.v.map((function(t,e){var n=o[e]&&o[e].getAttribute("offset");return{c:t,o:n=p(parseInt(n)/100)}})),delete r.v,t}(t,0,n)}))}var Zt={gt:"gradientTransform",c:{x:"cx",y:"cy"},rd:"r",f:{x:"x1",y:"y1"},to:{x:"x2",y:"y2"}};function te(t,e,r,i,o,u,a,l){return Kt(t,0,l),e=function(t,e,n){for(var r,i,o,u=t.length-1,a={},l=0;l<=u;l++)(r=t[l]).e&&(r.e=e(r.e)),r.v&&"g"===(i=r.v).t&&i.r&&(o=n.getElementById(i.r))&&(a[i.r]={e:o,s:o.querySelectorAll("stop")});return a}(t,i,l),function(i){var o=r(i,t,ee);if(!o)return"none";if("c"===o.t)return wt(o.v);if("g"===o.t){if(!e[o.r])return kt(o.r);var u=e[o.r];return function(t,e){for(var n=t.s,r=n.length;r<e.length;r++){var i=n[n.length-1].cloneNode();i.id=ie(i.id),t.e.appendChild(i),n=t.s=t.e.querySelectorAll("stop")}for(var o=0,u=n.length,a=e.length-1;o<u;o++)n[o].setAttribute("stop-color",wt(e[Math.min(o,a)].c)),n[o].setAttribute("offset",e[Math.min(o,a)].o)}(u,o.s),Object.keys(Zt).forEach((function(t){if(void 0!==o[t])if("object"!==n(Zt[t])){var e,r="gt"===t?(e=o[t],Array.isArray(e)?"matrix("+e.join(" ")+")":""):o[t],i=Zt[t];u.e.setAttribute(i,r)}else Object.keys(Zt[t]).forEach((function(e){if(void 0!==o[t][e]){var n=o[t][e],r=Zt[t][e];u.e.setAttribute(r,n)}}))})),kt(o.r)}return"none"}}function ee(t,n,r){if(0===t)return n;if(1===t)return r;if(n&&r){var i=n.t;if(i===r.t)switch(n.t){case"c":return{t:i,v:z(t,n.v,r.v)};case"g":if(n.r===r.r){var o={t:i,s:ne(t,n.s,r.s),r:n.r};return n.gt&&r.gt&&(o.gt=Y(t,n.gt,r.gt)),n.c?(o.c=L(t,n.c,r.c),o.rd=C(t,n.rd,r.rd)):n.f&&(o.f=L(t,n.f,r.f),o.to=L(t,n.to,r.to)),o}}if("c"===n.t&&"g"===r.t||"c"===r.t&&"g"===n.t){var u="c"===n.t?n:r,a="g"===n.t?e({},n):e({},r),l=a.s.map((function(t){return{c:u.v,o:t.o}}));return a.s="c"===n.t?ne(t,l,a.s):ne(t,a.s,l),a}}return F(t,n,r)}function ne(t,e,n){if(e.length===n.length)return e.map((function(e,r){return re(t,e,n[r])}));for(var r=Math.max(e.length,n.length),i=[],o=0;o<r;o++){var u=re(t,e[Math.min(o,e.length-1)],n[Math.min(o,n.length-1)]);i.push(u)}return i}function re(t,e,n){return{o:q(t,e.o,n.o||0),c:z(t,e.c,n.c||{})}}function ie(t){return t.replace(/-fill-([0-9]+)$/,(function(t,e){return"-fill-"+(+e+1)}))}function oe(t,e,n){return 0===t?e:1===t?n:{blur:V(t,e.blur,n.blur),offset:L(t,e.offset,n.offset),color:z(t,e.color,n.color)}}var ue={blur:V,brightness:C,contrast:C,"drop-shadow":oe,"inner-shadow":oe,grayscale:C,"hue-rotate":D,invert:C,opacity:C,saturate:C,sepia:C};function ae(t,e,n){if(0===t)return e;if(1===t)return n;var r=e.length;if(r!==n.length)return F(t,e,n);for(var i,o=[],u=0;u<r;u++){if(e[u].type!==n[u].type)return e;if(!(i=ue[e[u].type]))return F(t,e,n);o.push({type:e.type,value:i(t,e[u].value,n[u].value)})}return o}var le={blur:function(t){return t?function(e){t.setAttribute("stdDeviation",bt(e))}:null},brightness:function(t,e,n){return(t=fe(n,e))?function(e){e=pt(e),t.map((function(t){return t.setAttribute("slope",e)}))}:null},contrast:function(t,e,n){return(t=fe(n,e))?function(e){var n=pt((1-e)/2);e=pt(e),t.map((function(t){t.setAttribute("slope",e),t.setAttribute("intercept",n)}))}:null},"drop-shadow":function(t,e,n){var r=n.getElementById(e+"-blur");if(!r)return null;var i=n.getElementById(e+"-offset");if(!i)return null;var o=n.getElementById(e+"-flood");return o?function(t){r.setAttribute("stdDeviation",bt(t.blur)),i.setAttribute("dx",pt(t.offset.x)),i.setAttribute("dy",pt(t.offset.y)),o.setAttribute("flood-color",wt(t.color))}:null},"inner-shadow":function(t,e,n){var r=n.getElementById(e+"-blur");if(!r)return null;var i=n.getElementById(e+"-offset");if(!i)return null;var o=n.getElementById(e+"-color-matrix");return o?function(t){r.setAttribute("stdDeviation",bt(t.blur)),i.setAttribute("dx",pt(t.offset.x)),i.setAttribute("dy",pt(t.offset.y));var e=[0,0,0,0,t.color.r/255,0,0,0,0,t.color.g/255,0,0,0,0,t.color.b/255,0,0,0,t.color.a,0];o.setAttribute("values",mt(e))}:null},grayscale:function(t){return t?function(e){t.setAttribute("values",mt(function(t){return[.2126+.7874*(t=1-t),.7152-.7152*t,.0722-.0722*t,0,0,.2126-.2126*t,.7152+.2848*t,.0722-.0722*t,0,0,.2126-.2126*t,.7152-.7152*t,.0722+.9278*t,0,0,0,0,0,1,0]}(e)))}:null},"hue-rotate":function(t){return t?function(e){return t.setAttribute("values",pt(e))}:null},invert:function(t,e,n){return(t=fe(n,e))?function(e){e=pt(e)+" "+pt(1-e),t.map((function(t){return t.setAttribute("tableValues",e)}))}:null},opacity:function(t,e,n){return(t=n.getElementById(e+"-A"))?function(e){return t.setAttribute("tableValues","0 "+pt(e))}:null},saturate:function(t){return t?function(e){return t.setAttribute("values",pt(e))}:null},sepia:function(t){return t?function(e){return t.setAttribute("values",mt(function(t){return[.393+.607*(t=1-t),.769-.769*t,.189-.189*t,0,0,.349-.349*t,.686+.314*t,.168-.168*t,0,0,.272-.272*t,.534-.534*t,.131+.869*t,0,0,0,0,0,1,0]}(e)))}:null}};var se=["R","G","B"];function fe(t,e){var n=se.map((function(n){return t.getElementById(e+"-"+n)||null}));return-1!==n.indexOf(null)?null:n}var ce={fill:te,"fill-opacity":Xt,stroke:te,"stroke-opacity":Xt,"stroke-width":Qt,"stroke-dashoffset":{f:pt,i:D},"stroke-dasharray":Jt,opacity:Xt,transform:function(t,e,r,i){if(!(t=function(t,e){if(!t||"object"!==n(t))return null;var r=!1;for(var i in t)t.hasOwnProperty(i)&&(t[i]&&t[i].length?(t[i].forEach((function(t){t.e&&(t.e=e(t.e))})),r=!0):delete t[i]);return r?t:null}(t,i)))return null;var o=function(n,i,o){var u=arguments.length>3&&void 0!==arguments[3]?arguments[3]:null;return t[n]?r(i,t[n],o):e&&e[n]?e[n]:u};return e&&e.a&&t.o?function(e){var n=r(e,t.o,Gt);return Wt.recomposeSelf(n,o("r",e,D,0)+n.a,o("k",e,L),o("s",e,L),o("t",e,L)).toString()}:function(t){return Wt.recomposeSelf(o("o",t,Vt,null),o("r",t,D,0),o("k",t,L),o("s",t,L),o("t",t,L)).toString()}},"#filter":function(t,e,n,r,i,o,u,a){if(!e.items||!t||!t.length)return null;var l=function(t,e){var n=(t=t.map((function(t){return t&&le[t[0]]?(e.getElementById(t[1]),le[t[0]](e.getElementById(t[1]),t[1],e)):null}))).length;return function(e){for(var r=0;r<n;r++)t[r]&&t[r](e[r].value)}}(e.items,a);return l?(t=function(t,e){return t.map((function(t){return t.e=e(t.e),t}))}(t,r),function(e){l(n(e,t,ae))}):null},"#line":Ht,points:{f:mt,i:Y},d:$t,r:Qt,"#size":At,"#radius":_t,_:function(t,e){if(Array.isArray(t))for(var n=0;n<t.length;n++)this[t[n]]=e;else this[t]=e}},he={currentTime:"offset",duration:"duration",hasEnded:function(){return this.reachedToEnd()},isAlternate:"alternate",isPlaying:"_running",isRollingBack:"_rollingBack",state:function(t,e){return e.isPlaying?e.isRollingBack?"rollback":"playing":e.hasEnded?"ended":"paused"},totalTime:"maxFiniteDuration",iterations:"iterations",direction:"direction",fill:"fill",isReversed:function(t,e){return-1===e.direction},isBackwards:function(t,e){return-1===e.fill},isInfinite:function(t,e){return 0===e.iterations},speed:"speed",fps:"fps"},ve={destruct:"destruct",pause:"pause",play:function(t,e){return de(t,e.hasEnded?"restart":"play",e)},restart:"restart",reverse:function(t,e){return de(t,"reverse",e,[!0])},seek:"seek",seekBy:"seekBy",seekTo:"seekTo",stop:"stop",toggle:"toggle",togglePlay:"toggle",set:"set"};function de(t,e,n){var r=arguments.length>3&&void 0!==arguments[3]?arguments[3]:[];return function(){var i,o=Array.prototype.slice.call(arguments);return o.unshift.apply(o,v(r)),(i=t[e]).call.apply(i,[t].concat(v(o))),n}}var ye=function t(e){r(this,t);var n={},i=["on","off"],o={get:function(t,e,r){return he[e]?"function"==typeof he[e]?he[e].call(t,t,r):t[he[e]]:ve[e]?"function"==typeof ve[e]?ve[e].call(t,t,r):de(t,ve[e],r):-1!==i.indexOf(e)?n[e]:"ready"===e?function(t){return t&&t.call(r,r),r}:void 0},set:function(t,e,r){return-1!==i.indexOf(e)&&(n[e]=r)},ownKeys:function(t){return Object.keys(he)},has:function(t,e){return void 0!==he[e]}};if("function"==typeof Proxy)return new Proxy(e,o);var u=Object.keys(he).concat(Object.keys(ve)).concat(i),a={};return u.forEach((function(t){var n={enumerable:!1,configurable:!1,get:function(){return o.get(e,t,a)}};-1!==i.indexOf(t)&&(n.set=function(n){return o.set(e,t,n)}),Object.defineProperty(a,t,n)})),a};function ge(t){t||(t=this);var e={};this.on=function(t,n){var r=arguments.length>2&&void 0!==arguments[2]&&arguments[2];return"function"==typeof n&&(t.split(/[, ]+/g).forEach((function(t){return e[t]=e[t]||[],r?e[t].unshift(n):e[t].push(n)})),!0)},this.off=function(t,n){for(var r in e)if(e.hasOwnProperty(r)&&r.substr(0,t.length)===t)if(n)for(var i=0;i<e[r].length;i++)e[r][i]===n&&(e[r][i]=null);else e[r]=null},this.trigger=function(){var n,r=Array.prototype.slice.call(arguments),i=r[0],o=r.slice(1);t:for(var u in e)if(e.hasOwnProperty(u)&&e[u]&&(u===i||u.substr(0,i.length+1)===i+"."))for(var a=0;a<(e[u]||[]).length;a++)if(e[u][a]&&!1===(n=e[u][a].apply(t,o)))break t;return n}}var pe=!0,me=["iterations","speed","fps","direction","fill","alternate"],be=function(t){!function(t,e){if("function"!=typeof e&&null!==e)throw new TypeError("Super expression must either be null or a function");t.prototype=Object.create(e&&e.prototype,{constructor:{value:t,writable:!0,configurable:!0}}),e&&l(t,e)}(u,t);var e,n,i=(e=u,n=s(),function(){var t,r=a(e);if(n){var i=a(this).constructor;t=Reflect.construct(r,arguments,i)}else t=r.apply(this,arguments);return c(this,t)});function u(t,e){var n,o=arguments.length>2&&void 0!==arguments[2]?arguments[2]:null;return r(this,u),(n=i.call(this,t,e,o))._handlers=[],n}return o(u,[{key:"_adjustOffset",value:function(){var t=arguments.length>0&&void 0!==arguments[0]&&arguments[0],e=this.alternate?2*this.duration:this.duration;if(t){if(!this._rollingBack&&0===this.offset)return void(this.offset=e);this._rollingBack&&(this.offset,this.maxFiniteDuration)}!this._rollingBack||this.rollbackStartOffset<=this.duration?0!==this.iterations&&(this.offset=Math.min(this.offset,this.maxFiniteDuration)):(this.offset=this.rollbackStartOffset-(this.rollbackStartOffset-this.offset)%e,this.rollbackStartOffset=0)}},{key:"reverse",value:function(){var t=arguments.length>0&&void 0!==arguments[0]&&arguments[0];if(!this._running)return this._adjustOffset(t),this._rollingBack=!this._rollingBack,t&&this.play(!1),void this.trigger("reverse",this.offset);this.pause(!1,!1),this._adjustOffset(),this._rollingBack=!this._rollingBack,this.play(!1),this.trigger("reverse",this.offset)}},{key:"play",value:function(){var t=arguments.length>0&&void 0!==arguments[0]?arguments[0]:pe,e=h(a(u.prototype),"play",this).call(this);return t===pe&&this.trigger("play",this.offset),e}},{key:"pause",value:function(){var t=arguments.length>0&&void 0!==arguments[0]&&arguments[0],e=arguments.length>1&&void 0!==arguments[1]?arguments[1]:pe,n=h(a(u.prototype),"pause",this).call(this);return e===pe&&this.trigger(t?"end":"pause",this.offset),n}},{key:"restart",value:function(){var t=h(a(u.prototype),"restart",this).call(this,!1);return this.trigger("restart",this.offset),t}},{key:"stop",value:function(){var t=arguments.length>0&&void 0!==arguments[0]?arguments[0]:pe,e=h(a(u.prototype),"stop",this).call(this);return t===pe&&this.trigger("stop",this.offset),e}},{key:"_apply",value:function(t){var e=this,n=arguments.length>2&&void 0!==arguments[2]?arguments[2]:pe,r=h(a(u.prototype),"_apply",this).call(this,t);if(n===pe){var i=function(){return e.trigger("keyframe",t)};window.requestAnimationFrame(i)}return r}},{key:"seekTo",value:function(t){var e,n,r,i=this._running;i&&this.pause(!1,!1),this.offset=this.iterations>0?(e=t,n=0,r=this.maxFiniteDuration,e<n?n:e>r?r:e):Math.max(t,0),this._apply(this.offset),i&&this.play(!1)}},{key:"seek",value:function(t){return this.seekTo(Math.round(t/100*this.maxFiniteDuration))}},{key:"seekBy",value:function(t){return this.seekTo(this.offset+t)}},{key:"toggle",value:function(){return this._running?this.pause():this.reachedToEnd()?this.restart():this.play()}},{key:"set",value:function(t,e){if(me.includes(t)){var n=this._running;n&&this.pause(!1,!1),this._settings[t]=e,n?this.play(!1):this._apply(this.offset,{},!1)}}},{key:"destruct",value:function(){var t=this;this.stop(),this._handlers.forEach((function(t){t.element?t.element.removeEventListener(t.event,t.handler):t.callback&&t.callback.call&&t.callback.call()}));var e=function(){},n=Object.getOwnPropertyNames(Object.getPrototypeOf(this));n.push.apply(n,v(Object.getOwnPropertyNames(this))),n.forEach((function(n){"function"==typeof t[n]?t[n]=e:delete t[n]}))}}],[{key:"build",value:function(t){var e=h(a(u),"build",this).call(this,t,ce);if(!e)return null;var n=e.el,r=e.options,i=e.player,o=new ye(i),l=new ge(o);o.on=l.on,o.off=l.off,i.trigger=l.trigger;var s=n.svgatorPlayer&&n.svgatorPlayer.ready&&n.svgatorPlayer.ready.call&&n.svgatorPlayer.ready.call();n.svgatorPlayer=o,function(t){var e,n,r=t&&1===(null===(e=t.ownerDocument)||void 0===e||null===(n=e.childNodes)||void 0===n?void 0:n.length)&&window.parent!==window,i=null==t?void 0:t.firstElementChild;if(!r||!i||"a"!==i.tagName||i.getAttribute("target"))return;i.setAttributeNS(null,"target","_parent")}(n),function(t,e,n){if("click"===n.start){var r=function(){switch(n.click){case"freeze":return!t._running&&t.reachedToEnd()?t.restart():t.toggle();case"restart":return t.offset>0?t.restart():t.play();case"reverse":return t._running?t.reverse():t.reachedToEnd()?1===t.fill?t.reverse(!0):t.restart():t.play();case"none":default:if(t._running)return;return t.reachedToEnd()?t.restart():t.play()}};return t._handlers.push({element:e,event:"click",handler:r}),void e.addEventListener("click",r)}if("hover"===n.start){var i=function(){return t.reachedToEnd()?t.restart():t._rollingBack?t.reverse():t.play()};t._handlers.push({element:e,event:"mouseenter",handler:i}),e.addEventListener("mouseenter",i);var o=function(){switch(n.hover){case"freeze":return t.pause();case"reset":return t.stop();case"reverse":if(t.reverse(),t._running)return;return t.play();case"none":default:return}};return t._handlers.push({element:e,event:"mouseleave",handler:o}),void e.addEventListener("mouseleave",o)}if("scroll"===n.start){var u=new gt(e,n.scroll||25,(function(e){e?t.reachedToEnd()?t.restart():t.play():t.pause()}));return void t._handlers.push({callback:function(){return u.destruct()}})}if("programmatic"===n.start)return;t.play()}(i,n,r),function(t,e,n){var r;"function"==typeof Event?r=new Event("ready"):(r=document.createEvent("Event")).initEvent("ready",!0,!0);if(t.dispatchEvent(r),!n||!n.length)return;n.forEach((function(t){return e.ready(t)}))}(n,n.svgatorPlayer,s)}}]),u}(yt);return be.init(),be}));
(function(s,i,o,w,d,a,b){(a=Array.from(d.querySelectorAll('svg#' + i.root)).filter(n=> !n.svgatorPlayer)[0]||{}).svgatorPlayer={ready:(function(a){b=[];return function(c){return c?(b.push(c),a.svgatorPlayer):b}})(a)};w[o]=w[o]||{};w[o][s]=w[o][s]||[];w[o][s].push(i);})('91c80d77',{"root":"e5u60dNbxQG1","version":"2022-05-04","animations":[{"elements":{"e5u60dNbxQG14":{"transform":{"data":{"o":{"x":180.739513,"y":135.120113,"type":"corner"},"t":{"x":-179.739513,"y":-134.95055}},"keys":{"s":[{"t":200,"v":{"x":1,"y":0}},{"t":1000,"v":{"x":1,"y":1}}]}},"opacity":[{"t":200,"v":0},{"t":1000,"v":1}]},"e5u60dNbxQG15":{"opacity":[{"t":200,"v":0},{"t":400,"v":1}]},"e5u60dNbxQG16":{"opacity":[{"t":500,"v":0},{"t":700,"v":1}]},"e5u60dNbxQG17":{"opacity":[{"t":800,"v":0},{"t":1000,"v":1}]},"e5u60dNbxQG18":{"opacity":[{"t":1100,"v":0},{"t":1300,"v":1}]},"e5u60dNbxQG19":{"opacity":[{"t":0,"v":0},{"t":200,"v":1}]},"e5u60dNbxQG20":{"opacity":[{"t":400,"v":0},{"t":600,"v":1}]},"e5u60dNbxQG21":{"opacity":[{"t":700,"v":0},{"t":900,"v":1}]},"e5u60dNbxQG22":{"opacity":[{"t":1000,"v":0},{"t":1200,"v":1}]},"e5u60dNbxQG34":{"transform":{"data":{"o":{"x":271.935005,"y":37,"type":"corner"},"t":{"x":-270.935005,"y":-37}},"keys":{"s":[{"t":1400,"v":{"x":0,"y":0}},{"t":1600,"v":{"x":1,"y":1}}]}}}},"s":"MDUA1ZDliNDI4NHDk1UjkyODE5GNEw4OThmTThQlNDI1YTUzTjNUwNTA1MDRjRYDQyODRHODk5KMjg1ODNXOTQQ4OThmOGU0MjVVhNTE0YzQyOQDk5NDg1OTI4XMTk0ODk4ZjhSlOTM0MjVhNTLBBNGNFNDI4NSjg5OGM4YzQyRNWE1MTRjNDIH4MThjOTQ4NTHkyOGU4MTk0ORDU0MjVhODY4OMU84YzkzODUQ0YzQyOTM5MDWg1ODU4NDQyNOWE1MTRjNDI4WNkc5MDkzNDIB1YTUxNTA1MDJlk"}],"options":"MDFAxMFQ4MjI5UQTdhN2JLNjg3TOTdiMjk0MUkFyOTczNzY2ODUZiMjk4NA|"},'__SVGATOR_PLAYER__',window,document)
]]></script>
</svg>
