<svg width="1440" height="810" viewBox="0 0 1440 810" fill="none" xmlns="http://www.w3.org/2000/svg">
<path opacity="0.05" fill-rule="evenodd" clip-rule="evenodd" d="M569.93 159.407C573.193 124.086 576.858 91.4092 580.646 62.1879C547.506 63.7868 514.164 65.6166 481.076 67.5728C480.409 92.7767 480.092 120.479 480.147 148.81C500.033 151.798 520.932 155.18 542.916 158.992C545.248 159.396 547.554 159.613 549.856 159.606C556.261 159.587 562.958 159.519 569.93 159.407ZM598.431 2.28254C595.96 17.4386 593.451 34.3142 590.979 52.6869C622.257 51.2241 653.318 49.9771 683.777 49.0341C681.521 34.0254 679.137 18.9891 676.659 3.78776L685.541 2.33961C688.084 17.9357 690.528 33.3611 692.837 48.7622C725.966 47.7994 758.331 47.2096 789.429 47.108C787.441 31.5656 785.443 16.8437 783.493 2.93567L792.406 1.68638C794.407 15.9641 796.46 31.097 798.5 47.0923L798.919 47.0923C825.771 46.3171 853.904 46.3162 882.782 46.9143C879.405 31.643 876.188 16.948 873.231 2.85905L882.039 1.01045C885.124 15.709 888.5 31.0927 892.051 47.126C935.206 48.2023 979.881 50.561 1024.31 53.6264C1023.66 35.8335 1023.84 18.4781 1025.05 1.61291L1034.03 2.25659C1032.82 19.1004 1032.66 36.4481 1033.34 54.2588C1077.84 57.4251 1121.97 61.2624 1163.97 65.1909C1161.69 40.6821 1160.21 19.4041 1160.21 1.55847H1169.21C1169.21 19.445 1170.74 40.9577 1173.09 66.0484C1177.62 66.4767 1182.13 66.9056 1186.61 67.3344C1210.15 69.5889 1232.87 71.8379 1254.46 73.9749L1254.47 73.9755L1254.48 73.9769L1254.49 73.9772L1254.51 73.9793C1267.54 75.2686 1280.15 76.5171 1292.29 77.7015C1290.76 53.4738 1289.8 29.1827 1289.8 4.19263H1298.8C1298.8 29.4101 1299.8 53.9875 1301.39 78.586C1318.34 80.2267 1334.27 81.7247 1348.99 83.0123C1393.93 86.9449 1426.84 88.8417 1442.47 86.9917L1443.53 95.9293C1426.77 97.9128 1392.8 95.8802 1348.2 91.9781C1333.9 90.7264 1318.43 89.2749 1302 87.6871C1303.35 107.067 1305.04 126.511 1306.86 146.341C1353.15 149.259 1397.5 153.568 1438.66 159.661L1437.34 168.564C1396.86 162.572 1353.25 158.313 1307.7 155.412C1308.2 160.735 1308.7 166.089 1309.21 171.481L1309.21 171.491C1312.08 202.117 1315.07 233.939 1317.48 268.083C1326.46 268.452 1335.45 268.748 1344.27 268.947C1366.25 269.442 1387.13 269.334 1404.31 268.263C1421.74 267.176 1434.62 265.128 1441.11 262.124L1444.89 270.292C1436.66 274.099 1422.16 276.167 1404.87 277.245C1387.33 278.339 1366.16 278.443 1344.07 277.945C1335.51 277.752 1326.8 277.468 1318.1 277.115C1319.71 301.403 1321.01 326.885 1321.74 353.952C1352.46 351.191 1380.59 348.335 1402 345.584C1412.92 344.182 1422.02 342.815 1428.81 341.512C1432.21 340.86 1434.95 340.237 1437.03 339.652C1439.25 339.025 1440.25 338.559 1440.5 338.389L1445.5 345.875C1443.96 346.902 1441.75 347.672 1439.47 348.313C1437.05 348.997 1434.03 349.675 1430.5 350.351C1423.45 351.705 1414.13 353.099 1403.15 354.511C1381.43 357.301 1352.95 360.188 1321.96 362.968C1322.54 388.916 1322.59 416.321 1321.91 445.514C1333.3 445.571 1344.29 445.775 1354.69 446.157C1372.07 446.795 1387.88 447.932 1401.13 449.727C1414.29 451.51 1425.3 453.984 1432.88 457.461L1429.12 465.64C1422.8 462.739 1412.88 460.4 1399.92 458.646C1387.07 456.905 1371.58 455.783 1354.36 455.151C1344 454.77 1333.05 454.568 1321.68 454.513C1320.78 486.807 1318.98 521.274 1316.01 558.346C1354.4 553.078 1394.47 547.366 1436.34 541.186L1437.66 550.089C1395.04 556.38 1354.28 562.186 1315.26 567.534C1312.01 606.139 1307.5 647.54 1301.45 692.209C1330.92 694.109 1359.52 697.49 1383.96 702.989C1408.63 708.54 1429.65 716.372 1442.89 727.494L1437.11 734.387C1425.56 724.696 1406.3 717.241 1381.98 711.769C1358 706.372 1329.66 703.024 1300.22 701.149C1295.92 732.147 1290.88 764.703 1285.01 798.969L1276.14 797.448C1281.95 763.528 1286.95 731.303 1291.22 700.622C1251.65 698.508 1210.91 698.924 1176.9 700.41C1173.16 716.478 1169.32 734.86 1166.69 751.515C1164.7 764.115 1163.43 775.552 1163.37 784.197C1163.34 788.539 1163.61 791.956 1164.17 794.383C1164.67 796.565 1165.22 797.235 1165.32 797.355L1165.33 797.367C1165.34 797.372 1165.34 797.375 1165.34 797.375C1165.34 797.376 1165.33 797.372 1165.31 797.363L1160.68 805.076C1157.51 803.174 1156.11 799.546 1155.39 796.384C1154.62 792.98 1154.33 788.774 1154.37 784.134C1154.43 774.814 1155.79 762.855 1157.8 750.11C1160.34 734.057 1163.96 716.481 1167.56 700.853C1156.37 701.426 1146.06 702.108 1136.94 702.84C1122.77 705.092 1108.87 707.279 1095.25 709.404C1093.03 723.791 1090.57 739.244 1088.21 753.335C1086.05 766.193 1083.96 777.955 1082.19 786.747C1081.31 791.135 1080.5 794.844 1079.78 797.601C1079.43 798.972 1079.07 800.185 1078.73 801.16C1078.56 801.645 1078.37 802.142 1078.15 802.602C1077.97 802.977 1077.61 803.683 1077 804.319L1070.48 798.119C1070.34 798.264 1070.24 798.398 1070.16 798.506C1070.12 798.565 1070.09 798.616 1070.06 798.656C1070.05 798.676 1070.04 798.693 1070.03 798.707C1070.06 798.642 1070.13 798.475 1070.24 798.169C1070.46 797.542 1070.74 796.607 1071.07 795.341C1071.72 792.824 1072.5 789.305 1073.37 784.972C1075.11 776.324 1077.18 764.675 1079.33 751.846C1081.54 738.716 1083.82 724.392 1085.91 710.855C1027.28 719.953 973.59 727.871 923.874 734.698C918.623 757.478 912.54 780.469 905.544 803.648L896.928 801.048C903.525 779.19 909.304 757.501 914.333 736.002C873.066 741.61 834.551 746.455 798.221 750.59C796.164 767.672 793.943 785.002 791.55 802.579L782.632 801.365C784.921 784.558 787.051 767.979 789.031 751.626C750.659 755.909 714.721 759.389 680.524 762.128C680.418 766.85 680.362 771.29 680.362 775.389C680.362 782.943 680.556 789.253 680.969 793.996C681.176 796.371 681.431 798.269 681.722 799.693C681.866 800.402 682.01 800.941 682.139 801.332C682.276 801.745 682.36 801.875 682.337 801.839L674.713 806.621C673.791 805.152 673.264 803.259 672.904 801.493C672.518 799.604 672.226 797.333 672.003 794.777C671.557 789.656 671.362 783.05 671.362 775.389C671.362 771.485 671.412 767.284 671.507 762.837C644.027 764.952 617.653 766.585 592.017 767.769C594.01 779.229 596.136 790.591 598.401 801.836L589.578 803.613C587.222 791.916 585.016 780.096 582.952 768.171C561.554 769.077 540.647 769.669 520.011 769.968C501.251 770.239 482.717 770.267 464.246 770.068C464.457 777.423 464.702 784.017 464.917 789.209C465.067 792.844 465.203 795.791 465.3 797.826C465.349 798.844 465.389 799.634 465.416 800.169L465.428 800.402L465.447 800.777L465.455 800.93L465.457 800.968L465.457 800.977L465.458 800.979C465.458 800.98 465.458 800.98 460.964 801.219C456.47 801.459 456.47 801.458 456.47 801.458L456.47 801.455L456.47 801.444L456.467 801.403L456.459 801.244C456.452 801.104 456.441 800.897 456.427 800.625C456.4 800.083 456.36 799.284 456.311 798.258C456.212 796.204 456.076 793.238 455.925 789.581C455.705 784.272 455.454 777.504 455.24 769.953C426.183 769.524 397.215 768.538 367.699 767.054C369.391 781.135 370.891 792.491 371.834 797.351L362.999 799.066C361.983 793.832 360.374 781.58 358.579 766.58C313.172 764.15 266.322 760.568 215.731 756.048C215.297 759.676 214.893 763.088 214.571 766.303C213.138 780.627 213.357 790.877 218.61 800.583L210.695 804.866C204.076 792.635 204.153 780.029 205.616 765.407C205.942 762.141 206.339 758.765 206.76 755.24C177.528 752.589 147.024 749.635 114.818 746.418C114.715 746.901 114.612 747.384 114.51 747.866C110.947 764.735 108.154 780.417 107.306 790.916C106.864 796.372 107.025 799.694 107.452 801.101C107.467 801.149 107.48 801.189 107.492 801.224C107.5 801.247 107.507 801.267 107.514 801.284C107.39 801.056 106.957 800.447 105.952 800.159C105.362 799.991 104.893 800.025 104.581 800.098L110.24 806.946C108.919 808.037 106.443 809.661 103.476 808.812C100.452 807.947 99.2944 805.21 98.8407 803.716C97.8549 800.47 97.9023 795.541 98.3348 790.191C99.2333 779.075 102.134 762.911 105.705 746.007C105.739 745.843 105.774 745.679 105.809 745.516C75.2975 742.453 43.2526 739.162 9.3178 735.677L-1.4596 734.571L-0.540444 725.618L9.87817 726.688L9.87955 726.688C44.3336 730.226 76.8249 733.562 107.728 736.662C114.627 705.515 123.177 673.552 125.863 665.782C138.603 628.937 148.065 591.836 154.862 554.838C98.1097 551.596 38.3538 549.739 -0.954388 550.137L-1.04565 541.138C38.7817 540.734 99.2597 542.628 156.451 545.914C161.273 517.927 164.598 490.015 166.691 462.335C157.925 462.243 148.849 462.195 139.607 462.19C89.3885 462.163 34.749 463.422 -0.66857 466.038L-1.33147 457.063C34.4153 454.423 89.3127 453.163 139.611 453.19C149.048 453.195 158.34 453.245 167.328 453.34C169.502 420.486 169.975 387.981 169.193 356.087C106.298 352.836 46.8026 349.591 0.710835 346.623L1.28912 337.642C47.1607 340.595 106.334 343.825 168.938 347.062C168.142 322.133 166.599 297.595 164.526 273.575C109.313 276.002 56.2012 275.763 4.55968 270.686L5.44028 261.729C56.454 266.745 108.974 266.997 163.725 264.601C159.877 222.857 154.492 182.74 148.721 144.924C124.279 148.501 104.035 152.937 85.4951 157.001L85.4946 157.001L85.4942 157.001H85.4941C56.9897 163.248 32.5123 168.612 2.99998 168.612V159.612C30.6784 159.612 54.3346 154.44 82.21 148.345C101.122 144.21 121.975 139.651 147.345 135.994C144.871 120.091 142.345 104.613 139.853 89.6114C133.17 89.9935 126.636 90.3555 120.259 90.6951C62.9572 93.7466 18.052 95.0168 -7.37695 92.8779L-6.6226 83.9095C18.0815 85.9875 62.3551 84.7659 119.781 81.7078C125.836 81.3853 132.033 81.0427 138.366 80.6817C137.471 75.3226 136.582 70.0272 135.705 64.798L135.7 64.7686L135.7 64.7661L135.7 64.7659C132.067 43.1091 128.624 22.5865 125.669 3.37151L134.564 2.00331C137.497 21.0741 140.928 41.502 144.557 63.1079C145.499 68.7133 146.453 74.398 147.416 80.1588C168.343 78.9341 190.644 77.5256 214.052 75.9951C211.586 51.0569 209.583 26.6524 208.441 2.52371L217.431 2.09834C218.566 26.0906 220.577 50.4432 223.057 75.4041C245.669 73.9142 269.259 72.3203 293.592 70.6761L293.668 70.6711C303.457 70.0096 313.368 69.34 323.383 68.6658C328.753 68.3042 334.154 67.9414 339.582 67.5778C342.746 45.9596 346.14 24.5207 349.674 3.08434L358.554 4.54836C355.133 25.3015 351.843 46.0524 348.768 66.9635C388.836 64.2892 430.331 61.589 472.313 59.0779C472.941 38.287 473.817 19.3919 474.927 3.50267L483.905 4.13003C482.818 19.688 481.956 38.1796 481.334 58.5417C514.727 56.5697 548.386 54.7267 581.84 53.12C584.396 34.0185 586.993 16.5085 589.548 0.834396L598.431 2.28254ZM116.746 737.565C148.649 740.749 178.863 743.674 207.815 746.299C208.986 736.005 210.065 724.389 210.147 710.686C210.156 709.298 210.295 707.867 210.568 706.486C220.806 654.73 227.94 606.196 232.666 560.435C211.934 558.555 188.456 556.844 164.079 555.378L163.904 555.367C157.018 593.16 147.387 631.073 134.369 668.723C131.881 675.921 123.575 706.88 116.746 737.565ZM216.784 747.106C266.63 751.557 312.797 755.093 357.509 757.51C354.635 732.809 351.507 703.493 349.652 685.541C343.379 647.897 338.179 612.043 333.941 577.761C322.587 575.026 311.228 572.234 299.766 569.407C288.155 566.542 267.424 563.775 241.611 561.273C236.863 607.347 229.691 656.191 219.397 708.233C219.238 709.037 219.152 709.901 219.147 710.74C219.063 724.676 217.961 736.684 216.784 747.106ZM366.625 757.988C396.45 759.504 425.69 760.512 455.014 760.949C454.535 738.922 454.526 712.635 456.497 696.438L456.527 696.188L456.585 695.943C462.058 672.869 467.708 640.94 472.637 605.796C426.072 598.761 384.531 589.803 343.288 579.998C347.439 613.185 352.494 647.852 358.553 684.199L358.576 684.338L358.59 684.477C360.5 702.969 363.723 733.133 366.625 757.988ZM464.018 761.066C482.523 761.268 501.088 761.24 519.881 760.968C540.065 760.676 560.513 760.102 581.434 759.227C573.693 712.713 568.083 664.689 564.223 616.252C534.573 613.911 507.267 610.805 481.541 607.108C476.601 642.325 470.929 674.41 465.401 697.772C463.544 713.299 463.534 738.893 464.015 760.903C464.016 760.957 464.017 761.011 464.018 761.066ZM590.492 758.83C616.67 757.633 643.623 755.966 671.749 753.791C672.093 742.998 672.647 731.102 673.346 718.695C675.167 686.334 677.974 650.346 680.597 621.055C675.64 621.016 670.744 620.959 665.907 620.884C632.445 620.367 601.793 619.003 573.306 616.939C577.172 665.032 582.776 712.691 590.492 758.83ZM680.777 753.079C715.202 750.31 751.416 746.788 790.129 742.447C795.19 699.642 799.219 658.404 802.353 618.717C761.458 620.472 724.093 621.221 689.628 621.105C686.995 650.445 684.162 686.674 682.331 719.201C681.657 731.191 681.119 742.658 680.777 753.079ZM799.314 741.407C835.936 737.221 874.797 732.312 916.482 726.626C925.339 687.164 931.69 648.353 935.964 610.317C891.058 613.926 849.707 616.555 811.413 618.314C808.308 657.808 804.32 698.834 799.314 741.407ZM925.991 725.322C975.499 718.499 1028.97 710.596 1087.35 701.525C1088.78 692.135 1090.09 683.392 1091.17 676.031C1094.84 648.95 1096.71 621.833 1097.14 594.763C1042.29 600.827 991.794 605.724 945.093 609.574C940.902 647.429 934.673 686.053 925.991 725.322ZM1096.68 700.072C1109.45 698.078 1122.45 696.03 1135.7 693.925L1135.87 693.897L1136.04 693.883C1145.99 693.083 1157.34 692.341 1169.7 691.734C1171.05 686.102 1172.37 680.856 1173.58 676.192C1177.42 644.834 1180.41 614.355 1182.69 584.778C1156.28 588.012 1130.78 591.002 1106.15 593.76C1105.75 621.551 1103.86 649.419 1100.08 677.265L1100.08 677.289L1100.08 677.313C1099.1 683.953 1097.95 691.719 1096.68 700.072ZM1179.06 691.31C1213.01 689.894 1253.3 689.551 1292.45 691.675C1298.43 647.655 1302.9 606.844 1306.14 568.779C1266.23 574.213 1228.16 579.164 1191.8 583.657C1189.49 614.023 1186.43 645.34 1182.48 677.583L1182.45 677.882L1182.37 678.173C1181.33 682.159 1180.21 686.581 1179.06 691.31ZM107.554 801.372C107.555 801.369 107.542 801.337 107.514 801.284C107.538 801.349 107.552 801.375 107.554 801.372ZM1070.03 798.707L1070.03 798.714L1070.02 798.73C1070.02 798.742 1070.01 798.748 1070.01 798.749C1070.01 798.749 1070.02 798.735 1070.03 798.707ZM578.984 159.241C582.271 123.781 585.964 91.0081 589.778 61.753C621.924 60.2422 653.841 58.9583 685.109 57.9971C689.791 89.8742 693.864 121.75 696.999 154.941C652.812 156.932 612.913 158.545 578.984 159.241ZM706 154.533C702.878 121.386 698.825 89.5482 694.165 57.7273C727.243 56.7735 759.544 56.1944 790.567 56.1045C794.148 84.7563 797.661 116.092 800.756 150.15C783.488 150.936 766.589 151.723 750.132 152.491L750.132 152.491C735.031 153.195 720.302 153.881 706 154.533ZM809.756 149.743C806.681 115.848 803.193 84.6382 799.633 56.0755C826.871 55.2985 855.442 55.3207 884.785 55.9584C885.247 58.0433 885.712 60.1386 886.179 62.2441L886.232 62.4829C892.05 88.7095 898.22 116.526 904.269 145.794C871.918 147.009 840.286 148.366 809.756 149.743ZM895.017 60.5L894.058 56.1795C936.689 57.285 980.807 59.6354 1024.71 62.6757C1026.03 88.3095 1028.97 114.819 1032.95 142.05C1007.89 142.527 982.931 143.173 958.25 143.937C943.184 144.403 928.222 144.913 913.403 145.455C907.236 115.549 900.94 87.1849 895.02 60.5151L895.018 60.5048L895.017 60.5ZM1042.02 141.885C1038.05 114.864 1035.1 88.6346 1033.75 63.3114C1078.38 66.4983 1122.68 70.36 1164.84 74.3117C1165.82 84.3315 1166.9 94.8544 1168.06 105.868C1168.56 110.589 1169.06 115.403 1169.58 120.309L1169.61 120.583L1169.61 120.595C1170.33 127.379 1171.07 134.339 1171.81 141.473C1128.85 140.908 1085.3 141.135 1042.02 141.885ZM1177.01 104.928C1175.92 94.5371 1174.89 84.6175 1173.97 75.1715C1177.92 75.5452 1181.84 75.9193 1185.75 76.2934C1209.21 78.5409 1231.91 80.787 1253.5 82.9233L1253.51 82.9241L1253.51 82.9248C1267.11 84.27 1280.26 85.5716 1292.89 86.8026C1294.23 106.342 1295.91 125.891 1297.73 145.785C1259.79 143.554 1220.61 142.231 1180.87 141.604C1180.09 134.083 1179.32 126.759 1178.56 119.633L1178.53 119.31L1178.47 118.786L1178.45 118.597C1177.96 113.956 1177.48 109.399 1177.01 104.928ZM156.282 134.77C153.845 119.099 151.357 103.854 148.904 89.087C169.671 87.8686 191.776 86.4713 214.956 84.9553C216.46 99.6156 218.106 114.469 219.815 129.567C195.687 130.479 174.804 132.366 156.282 134.77ZM228.871 129.275C227.145 114.052 225.482 99.0979 223.964 84.3638C246.495 82.8789 269.987 81.2916 294.205 79.6553L294.258 79.6517C304.054 78.9898 313.969 78.3199 323.987 77.6454C328.724 77.3266 333.483 77.0067 338.264 76.6862C335.661 94.8975 333.23 113.253 331.024 131.858C291.495 129.121 257.909 128.5 228.871 129.275ZM340.009 132.509C342.27 113.475 344.768 94.701 347.444 76.072C387.856 73.3725 429.714 70.6449 472.059 68.1093C471.413 92.8067 471.102 119.837 471.145 147.474C421.321 140.171 377.995 135.382 340.009 132.509ZM165.479 546.446C189.515 547.898 212.832 549.597 233.564 551.478C236.489 521.389 238.376 492.505 239.427 464.694C224.205 463.571 201.612 462.812 175.691 462.445C173.605 490.256 170.29 518.309 165.479 546.446ZM242.507 552.317C268.609 554.85 289.81 557.68 301.922 560.669C312.274 563.222 322.536 565.746 332.782 568.223C328.945 536.093 325.958 505.349 323.726 475.805C300.677 472.784 276.967 469.517 252.518 466.005C251.282 465.827 249.899 465.655 248.378 465.49C247.317 493.326 245.427 522.228 242.507 552.317ZM342.116 570.466C384.224 580.525 426.437 589.709 473.862 596.879C476.757 575.386 479.362 552.897 481.48 530.649C482.667 518.184 483.697 505.827 484.539 493.788C436.932 489.554 386.694 483.953 332.842 476.992C335.126 506.852 338.185 537.946 342.116 570.466ZM482.767 598.192C507.927 601.809 534.601 604.856 563.52 607.168C560.824 571.275 559.075 535.192 558.119 499.366C537.074 498.066 515.571 496.468 493.508 494.572C492.658 506.683 491.623 519.067 490.44 531.502C488.309 553.879 485.687 576.525 482.767 598.192ZM572.597 607.864C601.306 609.972 632.228 611.363 666.046 611.885C671.104 611.963 676.226 612.022 681.415 612.061C681.982 605.935 682.534 600.188 683.059 594.931L683.064 594.877L683.071 594.825C687.047 562.682 690.383 532.351 693.134 503.603C652.467 503.673 610.77 502.439 567.136 499.906C568.104 535.794 569.873 571.931 572.597 607.864ZM690.45 612.108C724.854 612.21 762.178 611.448 803.054 609.679C805.95 571.582 808.023 534.93 809.396 499.71C773.994 502.045 738.472 503.329 702.178 503.566C699.404 532.647 696.034 563.339 692.009 595.877C691.511 600.876 690.987 606.318 690.45 612.108ZM812.111 609.273C850.467 607.496 891.912 604.846 936.949 601.209C941.037 561.911 942.928 523.456 943.098 485.984C900.938 491.79 859.726 496.157 818.426 499.092C817.062 534.381 814.999 571.103 812.111 609.273ZM946.064 600.463C992.5 596.617 1042.71 591.735 1097.23 585.697C1097.4 545.096 1094.43 504.619 1089.6 464.545C1077.71 465.343 1069.14 465.896 1065.11 466.022C1064.28 466.048 1063.62 466.119 1062.81 466.272C1024.74 473.466 988.049 479.616 952.092 484.726C951.961 522.354 950.11 560.982 946.064 600.463ZM1106.23 584.694C1131.04 581.912 1156.74 578.894 1183.37 575.627C1186.33 534.784 1187.93 495.689 1188.51 458.403C1166.26 459.576 1145.32 460.863 1127.14 462.042C1116.63 462.724 1107.01 463.371 1098.59 463.939C1103.38 503.804 1106.34 544.157 1106.23 584.694ZM1192.47 574.505C1228.86 570.001 1266.96 565.039 1306.91 559.592C1309.95 522.013 1311.79 487.136 1312.71 454.499C1288.85 454.538 1263.5 455.17 1238.43 456.121C1224.6 456.646 1210.86 457.267 1197.52 457.939C1196.96 495.027 1195.38 533.902 1192.47 574.505ZM1313 363.764C1313.57 389.464 1313.62 416.598 1312.94 445.498C1288.85 445.534 1263.29 446.171 1238.09 447.127C1224.41 447.646 1210.84 448.259 1197.64 448.922C1197.93 422.649 1197.71 397.291 1197.12 372.869C1233.88 370.253 1275 367.098 1313 363.764ZM1188.13 373.504C1188.72 397.872 1188.93 423.173 1188.63 449.385C1166.1 450.568 1144.92 451.87 1126.56 453.061C1115.77 453.761 1105.99 454.42 1097.49 454.993C1094.25 429.463 1090.29 404.142 1085.95 379.111C1102.56 378.442 1119.45 377.725 1136.59 376.959L1136.63 376.957L1136.67 376.954C1151.74 375.995 1169.25 374.828 1188.13 373.504ZM1076.88 379.473C1081.25 404.627 1085.23 430.027 1088.49 455.599C1076.93 456.375 1068.7 456.906 1064.83 457.026C1063.54 457.066 1062.42 457.187 1061.14 457.428C1023.66 464.512 987.511 470.581 952.091 475.636C951.971 444.257 950.673 413.586 948.475 383.708C989.124 382.652 1032 381.242 1076.88 379.473ZM939.471 383.937C941.706 414.148 943.014 445.164 943.105 476.898C901.05 482.716 859.95 487.097 818.762 490.045C820.049 453.817 820.599 419.119 820.55 385.936C857.568 385.652 897.293 384.988 939.471 383.937ZM811.55 385.997C811.599 419.347 811.04 454.232 809.734 490.669C774.501 493.011 739.148 494.307 703.023 494.56C706.626 455.485 709.138 419.341 710.708 385.539C741.451 386.063 775.149 386.218 811.55 385.997ZM701.706 385.373C700.13 419.219 697.605 455.429 693.981 494.601C652.994 494.691 610.95 493.448 566.909 490.878C566.022 452.86 566.021 415.165 566.72 378.331C600.509 381.909 646.031 384.27 701.706 385.373ZM557.738 377.318C557.025 414.296 557.015 452.149 557.894 490.335C537.117 489.045 515.887 487.464 494.106 485.591C496.945 440.611 497.032 400.259 492.417 376.267C492.187 375.071 491.961 373.834 491.737 372.556C523.641 374.369 546.172 375.87 554.568 376.928C555.611 377.059 556.668 377.189 557.738 377.318ZM483.579 377.967C487.982 400.859 487.942 440.211 485.137 484.806C437.178 480.537 386.525 474.877 332.163 467.829C329.557 431.535 328.101 397.063 327.614 364.06C386.805 367.008 441.354 369.748 482.519 372.038C482.864 374.109 483.217 376.087 483.579 377.967ZM318.606 363.611C319.079 396.399 320.504 430.628 323.056 466.64C300.624 463.691 277.562 460.51 253.798 457.096C252.291 456.88 250.585 456.672 248.693 456.474C249.768 422.871 249.644 390.828 248.684 360.124C268.746 361.13 288.733 362.125 308.338 363.1L308.356 363.101L308.432 363.105L308.614 363.114L309.325 363.149L318.606 363.611ZM239.68 359.672C240.658 390.274 240.799 422.204 239.739 455.695C224.264 454.567 201.81 453.819 176.323 453.453C178.474 420.704 178.954 388.317 178.198 356.551C198.501 357.595 219.105 358.639 239.68 359.672ZM177.95 347.527C198.225 348.57 218.807 349.612 239.366 350.645C238.308 322.479 236.559 295.437 234.408 269.331C213.817 270.87 193.534 272.179 173.529 273.157C175.615 297.447 177.162 322.281 177.95 347.527ZM248.376 351.097C268.789 352.121 289.132 353.133 309.079 354.126L309.096 354.127L309.097 354.127L318.5 354.595C318.204 322.479 318.819 291.737 320.178 262.037C294.088 264.435 268.51 266.699 243.392 268.647C245.562 295.09 247.322 322.513 248.376 351.097ZM327.504 355.043C385.833 357.949 439.901 360.661 481.139 362.948C477.213 334.683 474.513 293.59 472.918 248.306C433.005 251.512 394.353 255.124 356.794 258.633L356.788 258.634C347.535 259.499 338.349 260.357 329.226 261.202C327.827 291.294 327.194 322.458 327.504 355.043ZM490.299 363.461C523.413 365.335 546.928 366.894 555.694 367.998C556.431 368.091 557.175 368.183 557.926 368.275C558.905 324.617 560.849 282.25 563.449 242.073C535.671 243.619 508.505 245.508 481.899 247.593C483.525 293.945 486.298 335.612 490.299 363.461ZM566.906 369.3C600.526 372.9 646.126 375.276 702.105 376.38C704.243 325.584 704.22 280.123 702.558 237.896C657.704 237.979 614.407 239.375 572.499 241.582C569.857 282.213 567.884 325.1 566.906 369.3ZM711.105 376.545C741.702 377.065 775.257 377.218 811.523 376.997C811.29 327.914 809.75 282.21 807.361 239.834C775.722 238.636 743.706 237.926 711.565 237.892C713.22 280.191 713.24 325.716 711.105 376.545ZM820.522 376.935C857.32 376.652 896.821 375.994 938.777 374.951C935.174 330.126 929.574 287.109 922.948 246.185C888.21 243.759 852.566 241.666 816.395 240.189C818.764 282.462 820.291 328.027 820.522 376.935ZM947.785 374.723C988.144 373.676 1030.72 372.28 1075.3 370.528C1072.19 353.027 1068.91 335.651 1065.57 318.422C1062.88 304.572 1060.16 290.81 1057.45 277.153C1056.1 270.324 1054.75 263.521 1053.41 256.746C1014.84 253.329 974.206 249.857 932.181 246.839C938.711 287.478 944.226 330.201 947.785 374.723ZM1084.38 370.167C1101.35 369.486 1118.61 368.753 1136.14 367.969C1151.29 367.006 1168.91 365.831 1187.9 364.498C1186.93 330.453 1185.24 298.268 1183.15 268.004C1153.16 265.669 1120.72 262.763 1086.36 259.686C1078.59 258.99 1070.72 258.285 1062.76 257.576C1063.92 263.456 1065.09 269.362 1066.26 275.294L1066.28 275.376L1066.28 275.384L1066.28 275.39L1066.28 275.391L1066.28 275.406L1066.29 275.425C1068.98 289.057 1071.71 302.823 1074.4 316.709C1077.82 334.353 1081.19 352.182 1084.38 370.167ZM1196.88 363.863C1233.69 361.243 1274.82 358.084 1312.77 354.749C1312.03 327.242 1310.69 301.375 1309.04 276.724C1275.93 275.207 1243.66 272.796 1220.82 270.695C1211.58 270.107 1202.04 269.436 1192.22 268.699C1194.27 298.575 1195.93 330.316 1196.88 363.863ZM1300.29 173.268C1303.11 203.291 1306.04 234.403 1308.41 267.686C1275.8 266.172 1244.09 263.798 1221.59 261.727L1221.52 261.721L1221.46 261.717C1211.83 261.105 1201.86 260.401 1191.58 259.624C1191.45 257.736 1191.31 255.856 1191.17 253.984C1188.38 216.39 1185.04 181.884 1181.81 150.62C1221.55 151.26 1260.69 152.599 1298.57 154.85C1299.09 160.466 1299.62 166.113 1300.15 171.798L1300.19 172.202L1300.28 173.089L1300.29 173.267V173.268ZM1182.2 254.65C1182.3 256.07 1182.41 257.495 1182.51 258.925C1153.16 256.626 1121.39 253.781 1087.72 250.766L1087.72 250.766L1087.62 250.757L1087.36 250.734C1078.68 249.957 1069.87 249.168 1060.95 248.375C1054.39 214.943 1048.23 182.38 1043.37 150.864C1086.56 150.125 1129.97 149.911 1172.75 150.486C1176.01 181.987 1179.38 216.742 1182.2 254.65ZM1034.29 151.027C1039.09 182.354 1045.16 214.604 1051.61 247.547C1013.14 244.147 972.604 240.702 930.692 237.713C925.909 208.825 920.64 181.017 915.233 154.395C929.554 153.873 943.998 153.382 958.529 152.933C983.573 152.157 1008.88 151.504 1034.29 151.027ZM906.102 154.732C911.465 181.068 916.692 208.544 921.449 237.063C887.014 234.676 851.694 232.618 815.874 231.165C814.365 205.809 812.559 181.664 810.555 158.718C841.449 157.326 873.436 155.955 906.102 154.732ZM801.556 159.125C803.543 181.837 805.336 205.729 806.837 230.811C775.23 229.623 743.259 228.921 711.186 228.892C710.168 206.309 708.685 184.621 706.819 163.504C721.11 162.853 735.821 162.168 750.896 161.466L750.897 161.466L750.899 161.466L750.9 161.465L750.902 161.465L750.903 161.465L750.905 161.465L750.905 161.465L750.908 161.465C767.382 160.698 784.289 159.91 801.556 159.125ZM697.82 163.912C699.681 184.9 701.16 206.453 702.177 228.897C657.673 228.987 614.696 230.364 573.101 232.539C574.61 210.354 576.315 188.875 578.162 168.258C612.465 167.568 652.959 165.932 697.82 163.912ZM569.112 168.42C567.262 189.143 565.556 210.731 564.047 233.026C535.948 234.58 508.481 236.485 481.6 238.589C481.205 226.07 480.892 213.259 480.659 200.33C480.404 186.235 480.245 172.018 480.178 157.907C499.574 160.838 519.952 164.144 541.379 167.86C544.162 168.342 546.994 168.615 549.883 168.606C556.026 168.588 562.441 168.524 569.112 168.42ZM471.66 200.493C471.896 213.585 472.215 226.582 472.617 239.301C432.482 242.521 393.655 246.149 355.982 249.67L355.95 249.673L355.912 249.676L355.812 249.686L355.722 249.694C346.978 250.511 338.295 251.323 329.673 252.122C331.666 213.747 334.892 177.081 338.975 141.381C377.107 144.274 420.755 149.128 471.171 156.562C471.235 171.174 471.397 185.902 471.66 200.493ZM329.991 140.728C325.863 176.889 322.609 214.046 320.618 252.958C294.068 255.401 268.097 257.704 242.638 259.677C239.209 219.867 234.916 182.266 230.803 146.237C230.495 143.538 230.188 140.848 229.882 138.167C258.329 137.416 291.229 138.038 329.991 140.728ZM221.932 148.164C226.01 183.897 230.254 221.077 233.651 260.361C213.021 261.903 192.726 263.211 172.732 264.185C168.87 222.083 163.453 181.682 157.655 143.682C176.055 141.26 196.798 139.364 220.825 138.457C221.192 141.681 221.561 144.917 221.932 148.164ZM104.15 800.264C104.151 800.261 104.18 800.241 104.237 800.214C104.177 800.254 104.149 800.267 104.15 800.264Z" fill="url(#paint0_radial_430_126)"/>
<defs>
<radialGradient id="paint0_radial_430_126" cx="0" cy="0" r="1" gradientUnits="userSpaceOnUse" gradientTransform="translate(678.921 293.556) rotate(84.0136) scale(383.463 644.926)">
<stop stop-color="#4D4E53"/>
<stop offset="1" stop-color="white" stop-opacity="0"/>
</radialGradient>
</defs>
</svg>
