<svg width="541" height="473" viewBox="0 0 541 473" fill="none" xmlns="http://www.w3.org/2000/svg">
<path d="M113.39 34.49C63.7009 -30.2457 59.516 25.6249 26.9311 34.49C-87.3459 65.5803 199.729 144.744 188.623 262.891C178.776 367.645 -46.8706 432.53 23.578 459.907C25.3072 460.579 27.3374 460.934 29.1923 460.9C55.3966 460.413 73.1416 453.502 109.337 467.731C112.004 468.779 114.891 469.301 117.673 468.612C157.27 458.812 230.111 372.14 258.572 336.677C263.894 330.046 274.625 331.43 278.32 339.088C295.52 374.737 339.309 453.911 395.292 469.381C429.587 478.857 447.648 468.808 502.048 449.881C580.192 422.693 351.762 357.116 342.788 258.289C332.644 146.598 624.097 59.0905 517.527 24.8625C483.649 13.9816 434.27 -30.2457 395.292 34.49C356.314 99.2257 312.146 192.179 270.407 201.807C228.668 211.434 163.079 99.2257 113.39 34.49Z" fill="url(#paint0_diamond_430_125)" style="mix-blend-mode:difference"/>
<defs>
<radialGradient id="paint0_diamond_430_125" cx="0" cy="0" r="1" gradientUnits="userSpaceOnUse" gradientTransform="translate(240.427 295.7) rotate(-46.934) scale(627.699 943.524)">
<stop offset="0.00332961" stop-color="#6917A9"/>
<stop offset="0.0771668" stop-color="#731AB8"/>
<stop offset="0.203097" stop-color="#7E1FC9"/>
<stop offset="0.303107" stop-color="#9E54D8"/>
<stop offset="0.420743" stop-color="#C58CF1"/>
<stop offset="0.486503" stop-color="#8E53BC"/>
<stop offset="0.671875" stop-color="#1F3A70"/>
<stop offset="0.786458" stop-color="#0C1D42"/>
<stop offset="1"/>
</radialGradient>
</defs>
</svg>
