<svg width="532" height="137" viewBox="0 0 532 137" fill="none" xmlns="http://www.w3.org/2000/svg">
<path d="M-64 5.82886L-56.8747 8.83037C-49.7493 11.8319 -35.4987 17.8349 -19.704 17.5644C-3.90935 17.294 13.4293 10.7501 29.1649 10.7199C44.9004 10.6897 59.0328 17.1732 75.1485 15.5986C91.2641 14.024 109.363 4.39134 125.741 1.74853C142.12 -0.894276 156.778 3.45279 169.684 14.9212C182.589 26.3895 193.742 44.9792 206.008 59.0456C218.274 73.1119 231.653 82.655 246.496 86.2532C261.338 89.8515 277.644 87.505 294.61 82.4764C311.576 77.4477 329.201 69.7369 344.759 70.4289C360.317 71.1209 373.807 80.2157 386.848 91.1345C399.888 102.054 412.48 114.797 427.017 119.636C441.554 124.475 458.037 121.41 473.438 122.739C488.839 124.068 503.158 129.791 518.544 131.184C533.929 132.577 550.38 129.64 566.077 129.765C581.775 129.889 596.719 133.075 604.191 134.668L611.663 136.261" stroke="url(#paint0_linear_516_40)"/>
<path d="M-17 97.2354L-10.9781 98.2373C-4.95614 99.2392 7.08776 101.243 18.9059 96.7901C30.7241 92.3371 42.3166 81.4275 54.1434 77.2218C65.9702 73.0162 78.0313 75.5145 89.8024 69.7193C101.573 63.9242 113.055 49.8355 124.788 42.9409C136.52 36.0463 148.505 36.3458 160.745 43.9746C172.986 51.6034 185.482 66.5616 197.816 76.8643C210.15 87.167 222.321 92.8143 234.279 92.3431C246.236 91.8719 257.98 85.2823 269.627 75.9321C281.274 66.582 292.824 54.4713 304.677 51.0089C316.53 47.5466 328.685 52.7325 340.905 59.7957C353.126 66.859 365.413 75.7995 377.415 76.6053C389.416 77.4112 401.134 70.0823 413.01 67.2757C424.886 64.4691 436.919 66.1847 448.797 63.4438C460.675 60.7029 472.398 53.5056 484.23 49.4591C496.062 45.4126 508.005 44.5169 513.976 44.0691L519.947 43.6213" stroke="url(#paint1_linear_516_40)"/>
<defs>
<linearGradient id="paint0_linear_516_40" x1="282.497" y1="35.8357" x2="268.741" y2="91.7284" gradientUnits="userSpaceOnUse">
<stop stop-color="#FF7800"/>
<stop offset="1" stop-color="#FF7800" stop-opacity="0"/>
</linearGradient>
<linearGradient id="paint1_linear_516_40" x1="195.339" y1="-68.1936" x2="-32.026" y2="145.834" gradientUnits="userSpaceOnUse">
<stop stop-color="#1DBDD3"/>
<stop offset="1" stop-color="#1DBDD3" stop-opacity="0"/>
</linearGradient>
</defs>
</svg>
