<svg cache-id="8dc9b996457949bdba24c2c269f0e8f9" id="eehwRDUXFpZ1" xmlns="http://www.w3.org/2000/svg" xmlns:xlink="http://www.w3.org/1999/xlink" viewBox="0 0 642 457" shape-rendering="geometricPrecision" text-rendering="geometricPrecision" style="background-color:transparent"><defs><linearGradient id="eehwRDUXFpZ2-stroke" x1="250.958" y1="318.449" x2="214.692" y2="373.367" spreadMethod="pad" gradientUnits="userSpaceOnUse" gradientTransform="translate(0 0)"><stop id="eehwRDUXFpZ2-stroke-0" offset="0%" stop-color="#6e2aa1"/><stop id="eehwRDUXFpZ2-stroke-1" offset="100%" stop-color="#5d3085"/></linearGradient><filter id="eehwRDUXFpZ3-filter" x="-150%" width="400%" y="-150%" height="400%"><feGaussianBlur id="eehwRDUXFpZ3-filter-inner-shadow-0-blur" in="SourceAlpha" stdDeviation="10,10"/><feOffset id="eehwRDUXFpZ3-filter-inner-shadow-0-offset" dx="0" dy="4" result="tmp"/><feComposite id="eehwRDUXFpZ3-filter-inner-shadow-0-composite" operator="arithmetic" k2="-1" k3="1" in2="SourceGraphic"/><feColorMatrix id="eehwRDUXFpZ3-filter-inner-shadow-0-color-matrix" type="matrix" values="0 0 0 0 0 0 0 0 0 0 0 0 0 0 0 0 0 0 1 0"/><feMerge id="eehwRDUXFpZ3-filter-inner-shadow-0-merge" result="result"><feMergeNode id="eehwRDUXFpZ3-filter-inner-shadow-0-merge-node-1" in="SourceGraphic"/><feMergeNode id="eehwRDUXFpZ3-filter-inner-shadow-0-merge-node-2"/></feMerge></filter><linearGradient id="eehwRDUXFpZ4-fill" x1="-58.416" y1="-7.393" x2="58.419" y2="-6.122" spreadMethod="pad" gradientUnits="userSpaceOnUse" gradientTransform="translate(0 0)"><stop id="eehwRDUXFpZ4-fill-0" offset="0%" stop-color="#fff"/><stop id="eehwRDUXFpZ4-fill-1" offset="0.01%" stop-color="#fff"/><stop id="eehwRDUXFpZ4-fill-2" offset="100%" stop-color="#fff"/></linearGradient><linearGradient id="eehwRDUXFpZ5-stroke" x1="253.255" y1="283.917" x2="370.09" y2="285.188" spreadMethod="pad" gradientUnits="userSpaceOnUse" gradientTransform="translate(0 0)"><stop id="eehwRDUXFpZ5-stroke-0" offset="0%" stop-color="#7637a5"/><stop id="eehwRDUXFpZ5-stroke-1" offset="100%" stop-color="#5e3085"/></linearGradient><filter id="eehwRDUXFpZ6-filter" x="-150%" width="400%" y="-150%" height="400%"><feGaussianBlur id="eehwRDUXFpZ6-filter-inner-shadow-0-blur" in="SourceAlpha" stdDeviation="10,10"/><feOffset id="eehwRDUXFpZ6-filter-inner-shadow-0-offset" dx="0" dy="4" result="tmp"/><feComposite id="eehwRDUXFpZ6-filter-inner-shadow-0-composite" operator="arithmetic" k2="-1" k3="1" in2="SourceGraphic"/><feColorMatrix id="eehwRDUXFpZ6-filter-inner-shadow-0-color-matrix" type="matrix" values="0 0 0 0 0 0 0 0 0 0 0 0 0 0 0 0 0 0 1 0"/><feMerge id="eehwRDUXFpZ6-filter-inner-shadow-0-merge" result="result"><feMergeNode id="eehwRDUXFpZ6-filter-inner-shadow-0-merge-node-1" in="SourceGraphic"/><feMergeNode id="eehwRDUXFpZ6-filter-inner-shadow-0-merge-node-2"/></feMerge></filter><linearGradient id="eehwRDUXFpZ7-fill" x1="-55.127" y1="-6.977" x2="55.131" y2="-5.778" spreadMethod="pad" gradientUnits="userSpaceOnUse" gradientTransform="translate(0 0)"><stop id="eehwRDUXFpZ7-fill-0" offset="0%" stop-color="#fff"/><stop id="eehwRDUXFpZ7-fill-1" offset="0.01%" stop-color="#fff"/><stop id="eehwRDUXFpZ7-fill-2" offset="100%" stop-color="#fff"/></linearGradient><linearGradient id="eehwRDUXFpZ8-stroke" x1="256.543" y1="284.334" x2="366.801" y2="285.533" spreadMethod="pad" gradientUnits="userSpaceOnUse" gradientTransform="translate(0 0)"><stop id="eehwRDUXFpZ8-stroke-0" offset="0%" stop-color="#7637a5"/><stop id="eehwRDUXFpZ8-stroke-1" offset="100%" stop-color="#5e3085"/></linearGradient><linearGradient id="eehwRDUXFpZ9-fill" x1="-4.03" y1="-10.27" x2="8.84" y2="1.43" spreadMethod="pad" gradientUnits="userSpaceOnUse" gradientTransform="translate(0 0)"><stop id="eehwRDUXFpZ9-fill-0" offset="0%" stop-color="#7f02e0"/><stop id="eehwRDUXFpZ9-fill-1" offset="100%" stop-color="#c71eff"/></linearGradient><linearGradient id="eehwRDUXFpZ10-fill" x1="-5.054" y1="-3.92" x2="4.839" y2="4.313" spreadMethod="pad" gradientUnits="userSpaceOnUse" gradientTransform="translate(0 0)"><stop id="eehwRDUXFpZ10-fill-0" offset="0%" stop-color="#f15538"/><stop id="eehwRDUXFpZ10-fill-1" offset="100%" stop-color="#f6853c"/></linearGradient><linearGradient id="eehwRDUXFpZ11-fill" x1="-5.46" y1="-3.9" x2="5.72" y2="6.5" spreadMethod="pad" gradientUnits="userSpaceOnUse" gradientTransform="translate(0 0)"><stop id="eehwRDUXFpZ11-fill-0" offset="0%" stop-color="#01f1a0"/><stop id="eehwRDUXFpZ11-fill-1" offset="100%" stop-color="#1085cc"/><stop id="eehwRDUXFpZ11-fill-2" offset="100%" stop-color="#00c1d9"/></linearGradient><linearGradient id="eehwRDUXFpZ12-fill" x1="-5.156" y1="-4.136" x2="8.722" y2="7.299" spreadMethod="pad" gradientUnits="userSpaceOnUse" gradientTransform="translate(0 0)"><stop id="eehwRDUXFpZ12-fill-0" offset="0%" stop-color="#1a7a35"/><stop id="eehwRDUXFpZ12-fill-1" offset="100%" stop-color="#69b02a"/></linearGradient><linearGradient id="eehwRDUXFpZ13-fill" x1="-5.46" y1="-3.9" x2="4.29" y2="4.68" spreadMethod="pad" gradientUnits="userSpaceOnUse" gradientTransform="translate(0 0)"><stop id="eehwRDUXFpZ13-fill-0" offset="0%" stop-color="#2db6f7"/><stop id="eehwRDUXFpZ13-fill-1" offset="100%" stop-color="#c71eff"/><stop id="eehwRDUXFpZ13-fill-2" offset="100%" stop-color="#b143e1"/></linearGradient><linearGradient id="eehwRDUXFpZ14-fill" x1="-5.46" y1="-3.9" x2="4.29" y2="4.68" spreadMethod="pad" gradientUnits="userSpaceOnUse" gradientTransform="translate(0 0)"><stop id="eehwRDUXFpZ14-fill-0" offset="0%" stop-color="#254d9c"/><stop id="eehwRDUXFpZ14-fill-1" offset="100%" stop-color="#1085cc"/><stop id="eehwRDUXFpZ14-fill-2" offset="100%" stop-color="#0e88ce"/></linearGradient><linearGradient id="eehwRDUXFpZ15-stroke" x1="217.516" y1="217.643" x2="265.567" y2="251.344" spreadMethod="pad" gradientUnits="userSpaceOnUse" gradientTransform="translate(0 0)"><stop id="eehwRDUXFpZ15-stroke-0" offset="0%" stop-color="#6e2aa1"/><stop id="eehwRDUXFpZ15-stroke-1" offset="100%" stop-color="#5d3085"/></linearGradient><linearGradient id="eehwRDUXFpZ16-stroke" x1="348.663" y1="339.772" x2="396.714" y2="373.472" spreadMethod="pad" gradientUnits="userSpaceOnUse" gradientTransform="translate(0 0)"><stop id="eehwRDUXFpZ16-stroke-0" offset="0%" stop-color="#6e2aa1"/><stop id="eehwRDUXFpZ16-stroke-1" offset="100%" stop-color="#5d3085"/></linearGradient><linearGradient id="eehwRDUXFpZ17-stroke" x1="396.803" y1="201.492" x2="360.538" y2="256.409" spreadMethod="pad" gradientUnits="userSpaceOnUse" gradientTransform="translate(0 0)"><stop id="eehwRDUXFpZ17-stroke-0" offset="0%" stop-color="#6e2aa1"/><stop id="eehwRDUXFpZ17-stroke-1" offset="100%" stop-color="#5d3085"/></linearGradient><filter id="eehwRDUXFpZ85-filter" x="-150%" width="400%" y="-150%" height="400%"><feGaussianBlur id="eehwRDUXFpZ85-filter-drop-shadow-0-blur" in="SourceAlpha" stdDeviation="1.6,1.6"/><feOffset id="eehwRDUXFpZ85-filter-drop-shadow-0-offset" dx="2" dy="1" result="tmp"/><feFlood id="eehwRDUXFpZ85-filter-drop-shadow-0-flood" flood-color="rgba(0,0,0,0.05)"/><feComposite id="eehwRDUXFpZ85-filter-drop-shadow-0-composite" operator="in" in2="tmp"/><feMerge id="eehwRDUXFpZ85-filter-drop-shadow-0-merge" result="result"><feMergeNode id="eehwRDUXFpZ85-filter-drop-shadow-0-merge-node-1"/><feMergeNode id="eehwRDUXFpZ85-filter-drop-shadow-0-merge-node-2" in="SourceGraphic"/></feMerge></filter></defs><line x1="215.195" y1="369.591" x2="260.005" y2="329.244" fill="none" stroke="url(#eehwRDUXFpZ2-stroke)" stroke-linecap="round" stroke-dasharray="3,3"/><g filter="url(#eehwRDUXFpZ3-filter)"><ellipse rx="58.4157" ry="58.4787" transform="translate(311.671 291.31)" fill="url(#eehwRDUXFpZ4-fill)"/></g><path d="M369.586,291.31c0,32.022-25.93,57.979-57.915,57.979-31.986,0-57.916-25.957-57.916-57.979c0-32.021,25.93-57.978,57.916-57.978c31.985,0,57.915,25.957,57.915,57.978Z" fill="none" stroke="url(#eehwRDUXFpZ5-stroke)"/><g filter="url(#eehwRDUXFpZ6-filter)"><ellipse rx="55.1276" ry="55.187" transform="translate(311.67 291.311)" fill="url(#eehwRDUXFpZ7-fill)"/></g><path d="M366.298,291.311c0,30.203-24.458,54.687-54.628,54.687-30.169,0-54.627-24.484-54.627-54.687s24.458-54.687,54.627-54.687c30.17,0,54.628,24.484,54.628,54.687Z" fill="none" stroke="url(#eehwRDUXFpZ8-stroke)"/><circle r="6.5" transform="translate(311.5 271.5)" fill="url(#eehwRDUXFpZ9-fill)"/><circle r="6.5" transform="translate(293.5 282.5)" fill="url(#eehwRDUXFpZ10-fill)"/><circle r="6.5" transform="translate(311.5 313.5)" fill="url(#eehwRDUXFpZ11-fill)"/><circle r="6.5" transform="translate(293.5 301.5)" fill="url(#eehwRDUXFpZ12-fill)"/><circle r="6.5" transform="translate(330.5 282.5)" fill="url(#eehwRDUXFpZ13-fill)"/><circle r="6.5" transform="translate(330.5 301.5)" fill="url(#eehwRDUXFpZ14-fill)"/><line x1="263.97" y1="248.199" x2="228.311" y2="208.596" fill="none" stroke="url(#eehwRDUXFpZ15-stroke)" stroke-linecap="round" stroke-dasharray="3,3"/><line x1="395.117" y1="370.328" x2="359.458" y2="330.725" fill="none" stroke="url(#eehwRDUXFpZ16-stroke)" stroke-linecap="round" stroke-dasharray="3,3"/><line x1="361.041" y1="252.633" x2="405.85" y2="212.287" fill="none" stroke="url(#eehwRDUXFpZ17-stroke)" stroke-linecap="round" stroke-dasharray="3,3"/><ellipse rx="56.793" ry="57.3957" transform="translate(56.9136 288.603)" fill="#f45d48"/><g clip-path="url(#eehwRDUXFpZ22)"><g><path d="M91.2773,276.066c-5.4723,0-9.9254,4.52-9.9254,10.076c0,5.557,4.4531,10.077,9.9254,10.077c5.471,0,9.9227-4.52,9.9227-10.077c0-5.556-4.4517-10.076-9.9227-10.076Zm0,15.377c-2.878,0-5.222-2.38-5.222-5.301s2.344-5.3,5.222-5.3c2.8754,0,5.2207,2.379,5.2207,5.3c0,2.922-2.3427,5.301-5.2207,5.301Zm-29.2268-7.341l-1.7355-.88c-.7535-.379-1.2259-.672-1.4159-.888-.1811-.192-.2842-.446-.2888-.711c0-.34.1515-.627.4493-.85.2952-.234.715-.34,1.2477-.34.9743,0,2.0539.594,3.2426,1.792l2.9293-2.975c-.7197-.991-1.661-1.795-2.747-2.348-1.0718-.545-2.2559-.826-3.4557-.82-1.7882,0-3.2644.533-4.4146,1.607-1.1488,1.074-1.7265,2.365-1.7265,3.879c0,2.348,1.5212,4.305,4.5737,5.857l1.5982.811c1.3774.705,2.0629,1.422,2.0629,2.164c0,.402-.1913.75-.5713,1.059-.3799.31-.8831.456-1.507.456-.5776,0-1.24-.201-1.9858-.609-.7432-.402-1.4043-.943-1.9487-1.593l-2.9139,3.222c1.6431,2.18,3.8343,3.277,6.5891,3.277c2.0706,0,3.7227-.572,4.9473-1.708c1.2323-1.136,1.8485-2.557,1.8485-4.258c0-1.275-.3415-2.395-1.0192-3.346-.6842-.951-1.9397-1.877-3.7587-2.797v-.001Zm-29.468,9.922v-17.557h-4.7111v1.176c-1.5874-1.032-3.4351-1.579-5.3221-1.577-5.471,0-9.9228,4.52-9.9228,10.076c0,5.557,4.4518,10.077,9.9241,10.077c1.8643.002,3.6911-.531,5.2669-1.538c0,.155-.0077.293-.0077.387c0,2.92-2.344,5.301-5.2207,5.301-.9782-.003-1.9358-.284-2.7625-.812l-2.3299,4.142c1.5364.947,3.3005,1.449,5.1001,1.453c5.4723,0,9.9857-4.521,9.9857-10.078c0-.215.0141-.849,0-1.05Zm-10.0319-2.582c-2.8755,0-5.2207-2.379-5.2207-5.3s2.3439-5.3,5.2207-5.3s5.2207,2.379,5.2207,5.3-2.344,5.301-5.2207,5.301v-.001Zm28.7979-14.981h-4.7342v9.579c.0077,1.361.0077,3.71-.9807,4.714-.4724.479-.9897.912-2.0783.912-1.0962,0-1.6135-.433-2.0846-.912-.9898-1.005-.9821-3.361-.9756-4.714v-9.579h-4.7329v9.55c-.0155,1.97-.0386,5.626,2.3362,8.051c1.3928,1.422,3.0526,2.149,5.4492,2.149c2.398,0,4.0565-.719,5.4493-2.149c2.3747-2.425,2.3516-6.089,2.3362-8.051l.0154-9.55Zm26.8276,14.125c-.38.293-1.3017.943-2.344.796-.8524-.117-1.5443-.75-1.6508-2.867v-7.943h5.5634v-4.127h-5.5634v-5.355h-4.7188v1.051h-.0077v15.749c0,2.504.6239,8.321,6.3696,8.321c2.9075-.046,4.6726-1.645,5.412-2.27l.0988-.078-2.8318-3.539c-.0077.006-.2054.168-.3273.262Z" fill="#fff"/></g><clipPath id="eehwRDUXFpZ22"><rect width="88.5736" height="35.0271" rx="0" ry="0" transform="translate(12.6265 271.09)" fill="#fff"/></clipPath></g><g id="eehwRDUXFpZ24" transform="translate(.000001 0)"><ellipse rx="56.793" ry="56.8543" transform="translate(578.328 288.062)" fill="#33475b"/><g clip-path="url(#eehwRDUXFpZ30)"><g><path d="M539.297,278.244v7.905h-7.32v-7.905h-3.472v18.87h3.473v-7.648h7.318v7.648h3.474v-18.87h-3.473Zm14.591,12.771c0,.756-.303,1.482-.842,2.016-.539.535-1.27.836-2.032.836s-1.493-.301-2.032-.836c-.539-.534-.842-1.26-.842-2.016v-8.083h-3.295v8.083c0,1.622.649,3.177,1.805,4.324s2.723,1.791,4.358,1.791c1.634,0,3.202-.644,4.358-1.791c1.155-1.147,1.805-2.702,1.805-4.324v-8.083h-3.283v8.083Zm24.414-7.25c0-1.657,1.105-2.182,2.315-2.182.975,0,2.263.736,3.106,1.63l2.158-2.524c-1.077-1.446-3.262-2.445-5.051-2.445-3.575,0-6.16,2.078-6.16,5.521c0,6.389,7.87,4.361,7.87,7.937c0,1.103-1.079,2.077-2.314,2.077-1.949,0-2.581-.945-3.476-1.945l-2.395,2.471c1.532,1.865,3.422,2.813,5.684,2.813c3.397,0,6.129-2.103,6.129-5.39c0-7.092-7.871-4.888-7.871-7.963m48.694,10.334c-1.947,0-2.5-.835-2.5-2.115v-5.666h3.027v-2.871h-3.027v-3.788l-3.341,1.488v11.541c0,2.952,2.053,4.44,4.867,4.44.442.007.884-.028,1.318-.105l.815-2.977c-.367.025-.789.051-1.159.051M566.43,283.026c-1.632,0-2.771.47-3.873,1.542v-6.211h-3.299v11.513c0,4.309,3.139,7.262,6.668,7.262c3.915,0,7.358-3.006,7.358-7.052c0-3.995-3.169-7.051-6.854-7.051m-.02,10.807c-.492,0-.979-.096-1.433-.282-.455-.187-.868-.461-1.215-.806-.348-.345-.624-.754-.812-1.205s-.285-.934-.285-1.422.097-.971.285-1.422.464-.86.812-1.205c.347-.345.76-.619,1.215-.806.454-.186.941-.282,1.433-.282.993,0,1.945.391,2.647,1.088.703.697,1.097,1.642,1.097,2.627s-.394,1.93-1.097,2.627c-.702.697-1.654,1.088-2.647,1.088Zm35.855-3.927c0-4.054-3.436-7.051-7.358-7.051-3.528,0-6.669,2.952-6.669,7.262v11.518h3.3v-6.219c1.1,1.07,2.241,1.542,3.871,1.542c3.685,0,6.856-3.056,6.856-7.052Zm-3.125-.041c0,.985-.394,1.93-1.097,2.627-.702.697-1.654,1.088-2.647,1.088-.994,0-1.946-.391-2.648-1.088-.703-.697-1.097-1.642-1.097-2.627c0-.986.394-1.931,1.097-2.627.702-.697,1.654-1.089,2.648-1.089.993,0,1.945.392,2.647,1.089.703.696,1.097,1.641,1.097,2.627Z" fill="#fff"/><path d="M612.927,282.698v-3.289c.438-.203.809-.526,1.069-.93.261-.404.4-.874.403-1.353v-.076c0-1.399-1.143-2.533-2.553-2.533h-.077c-.677,0-1.326.267-1.805.742s-.748,1.119-.748,1.791v.076c.002.479.142.949.403,1.353.26.404.631.727,1.069.93v3.289c-1.259.192-2.445.71-3.437,1.502l-9.094-7.027c.065-.232.099-.471.103-.711.001-.564-.167-1.116-.482-1.586s-.764-.837-1.289-1.054-1.104-.275-1.662-.165c-.558.109-1.071.38-1.474.778-.403.399-.678.907-.79,1.461-.112.553-.056,1.127.161,1.649s.585.968,1.058,1.283c.473.314,1.029.482,1.598.483.497-.002.986-.134,1.416-.383l8.954,6.914c-.804,1.205-1.224,2.623-1.204,4.069s.478,2.852,1.315,4.036l-2.723,2.703c-.22-.07-.45-.107-.681-.11-.467,0-.923.138-1.311.396-.389.257-.691.623-.87,1.052-.178.428-.225.899-.134,1.353.091.455.316.872.647,1.2.33.328.751.551,1.209.641.458.091.933.045,1.364-.132.432-.178.801-.478,1.061-.863.259-.385.398-.838.398-1.301-.003-.23-.04-.457-.11-.676l2.694-2.674c.878.671,1.9,1.134,2.987,1.353c1.086.219,2.209.188,3.282-.091c1.072-.278,2.067-.796,2.906-1.514.84-.719,1.503-1.618,1.938-2.63s.631-2.109.573-3.208c-.058-1.098-.369-2.169-.909-3.13-.539-.961-1.294-1.786-2.205-2.414-.911-.627-1.954-1.038-3.05-1.204Zm-1.117,10.82c-.498.013-.994-.072-1.458-.252-.464-.179-.887-.45-1.244-.794-.357-.345-.641-.757-.834-1.212-.194-.456-.294-.945-.294-1.439s.1-.983.294-1.439c.193-.455.477-.867.834-1.212.357-.344.78-.614,1.244-.794s.96-.265,1.458-.252c.965.034,1.879.438,2.55,1.127s1.046,1.609,1.047,2.567c0,.958-.374,1.879-1.044,2.569-.671.69-1.584,1.094-2.549,1.129" fill="#ff7a59"/></g><clipPath id="eehwRDUXFpZ30"><rect width="99.6453" height="28.9139" rx="0" ry="0" transform="translate(528.505 273.605)" fill="#fff"/></clipPath></g></g><g id="eehwRDUXFpZ32" transform="translate(.000001 0.000001)"><ellipse rx="56.793" ry="56.8543" transform="translate(315.457 56.8543)" fill="#635bff"/><path d="M347.952,57.2456c0-4.6574-2.239-8.3324-6.517-8.3324-4.296,0-6.896,3.675-6.896,8.296c0,5.4761,3.069,8.2414,7.474,8.2414c2.148,0,3.773-.4912,5-1.1825v-3.6386c-1.227.6185-2.635,1.0006-4.422,1.0006-1.751,0-3.304-.6186-3.502-2.7654h8.827c0-.2365.036-1.1825.036-1.6191Zm-8.918-1.7284c0-2.0558,1.246-2.9109,2.383-2.9109c1.101,0,2.275.8551,2.275,2.9109h-4.658Zm-11.462-6.604c-1.77,0-2.907.8368-3.539,1.419l-.234-1.1279h-3.972v21.213l4.513-.9642.018-5.1487c.65.4731,1.607,1.1462,3.195,1.1462c3.232,0,6.174-2.6198,6.174-8.387-.018-5.2759-2.996-8.1504-6.155-8.1504Zm-1.084,12.5349c-1.065,0-1.696-.382-2.13-.855l-.018-6.7496c.47-.5276,1.119-.8915,2.148-.8915c1.643,0,2.78,1.8557,2.78,4.239c0,2.4378-1.119,4.2571-2.78,4.2571Zm-12.87-13.6083l4.531-.9824v-3.6932l-4.531.9642v3.7114Zm0,1.3827h4.531v15.9188h-4.531v-15.9188Zm-4.856,1.3462l-.289-1.3462h-3.899v15.9188h4.513v-10.7884c1.065-1.4009,2.87-1.1462,3.429-.9461v-4.1843c-.577-.2184-2.689-.6186-3.754,1.3462Zm-9.026-5.2941l-4.405.946-.018,14.5726c0,2.6926,2.004,4.6756,4.676,4.6756c1.48,0,2.563-.2729,3.159-.6004v-3.6932c-.578.2366-3.43,1.0734-3.43-1.6191v-6.4585h3.43v-3.8751h-3.43l.018-3.9479Zm-12.203,8.5689c0-.7096.578-.9825,1.534-.9825c1.372,0,3.105.4185,4.477,1.1644v-4.2754c-1.498-.6003-2.978-.8368-4.477-.8368-3.664,0-6.101,1.9284-6.101,5.1486c0,5.0213,6.859,4.2208,6.859,6.3857c0,.8369-.722,1.1098-1.732,1.1098-1.499,0-3.412-.6186-4.929-1.4554v4.3299c1.679.7277,3.376,1.037,4.929,1.037c3.754,0,6.336-1.8739,6.336-5.1304-.018-5.4215-6.896-4.4573-6.896-6.4949Z" clip-rule="evenodd" fill="#fff" fill-rule="evenodd"/></g><ellipse rx="43.8118" ry="43.859" transform="translate(442.024 174.895)" fill="#14283c"/><g clip-path="url(#eehwRDUXFpZ48)"><g><path d="M419.215,175.297c.001-1.28-.318-2.537-.925-3.643l-.758.452-1.453.866c.384.689.591,1.474.599,2.275s-.182,1.59-.552,2.288l2.175,1.383h.003l-.002-.001c.599-1.101.914-2.349.913-3.62Z" fill="#f9e6da"/><path d="M416.455,179.369l1.846-.451-2.176-1.383.002.001.328,1.833Z" fill="#f9e6da"/><path d="M418.291,171.655c-.6-1.099-1.459-2.012-2.494-2.648-1.034-.637-2.208-.975-3.404-.981l-.022,2.693c.749.001,1.484.21,2.134.604.65.395,1.192.963,1.573,1.647h.001v.002h.001l1.7.688.511-2.005Z" fill="#f2bc95"/><path d="M413.707,169.475l-1.342-1.444v-.006h-.005c-1.161.001-2.304.317-3.319.916s-1.87,1.463-2.485,2.509l2.177,1.384c.389-.648.926-1.182,1.561-1.552s1.348-.564,2.072-.564v-.021l1.341-1.222Z" fill="#eb8e52"/><path d="M416.454,179.369l-.328-1.832-.002-.001c-.281.534-.661,1.004-1.116,1.38-.456.376-.978.651-1.535.809-.558.158-1.139.195-1.711.11-.571-.085-1.121-.291-1.616-.606s-.925-.732-1.266-1.226c-.34-.495-.583-1.057-.715-1.653-.132-.597-.15-1.215-.053-1.819s.308-1.181.619-1.696l-.327-1.834-1.85.45c-.482.819-.806,1.732-.953,2.686-.146.954-.111,1.929.101,2.869.213.939.601,1.825,1.14,2.603.539.779,1.218,1.436,1.999,1.933.781.496,1.648.822,2.549.959s1.819.082,2.699-.162c.881-.245,1.707-.673,2.43-1.26s1.329-1.321,1.781-2.16l-1.846.45Z" fill="#e36e26"/><path d="M441.513,171.485c-.54-1.098-1.365-2.008-2.379-2.621-.98-.585-2.309-.882-3.952-.882h-2.109v2.899h1.936c.545-.018,1.09.003,1.633.063.347.076.683.204.996.38.344.187.657.432.926.726.734.793,1.09,1.798,1.09,3.073c0,1.309-.351,2.357-1.069,3.201-.214.248-.458.463-.726.641-.315.196-.655.342-1.009.435-.588.137-1.189.197-1.791.177h-1.98v2.866h1.865c.72.021,1.441-.015,2.157-.106.446-.089.88-.232,1.295-.426.808-.354,1.534-.889,2.127-1.57.6-.675,1.069-1.468,1.382-2.335.322-.886.486-1.828.484-2.777.009-1.306-.292-2.594-.876-3.744Z" fill="#e16e2e"/><path d="M457.064,167.967l-2.65,7.21-3.242-7.958-1.265,3.409-1.655,4.513-2.769-7.174h-2.786l5.542,14.475l2.992-8.078l3.189,8.056l5.063-13.659.251-.794h-2.67Z" fill="#e16e2e"/><path d="M475.244,167.982l-2.994,4.338-2.947-4.338h-3.217l.577.922c.293.468,3.579,5.238,4.238,6.194v7.345h2.715v-7.31c1.385-2.063,3.905-5.808,4.192-6.187l.726-.963-3.29-.001Z" fill="#e16e2e"/><path d="M462.495,167.975l-1.38,3.794l1.69,4.189h-3.214l-.976,2.68h5.271l1.535,3.804h2.775l-5.701-14.467Z" fill="#e16e2e"/><path d="M431.195,182.443l-2.478-4.248c.589-.552,1.059-1.232,1.379-1.994.32-.761.483-1.587.477-2.421.018-1.406-.415-2.776-1.227-3.887-.93-1.228-2.27-1.888-3.881-1.911h-4.715v14.461h2.498v-11.639l1.927-.008c.925.013,2.733.431,2.733,2.984c0,2.488-2.395,3.289-2.418,3.303l-.02-.034.283.547h-.001l.018.032l2.498,4.814l2.927.001Z" fill="#e36e26"/></g><clipPath id="eehwRDUXFpZ48"><rect width="73.0196" height="15.3507" rx="0" ry="0" transform="translate(405.515 167.219)" fill="#fff"/></clipPath></g><g id="eehwRDUXFpZ50" transform="translate(.000001 0.000001)"><g transform="translate(.000001 0.000001)"><ellipse rx="43.2709" ry="44.4005" transform="translate(182.94 408.268)" fill="#005cb9"/><path d="M183.74,394.156c2.459-.087,4.935.293,7.255,1.137c3.491,1.258,6.61,3.562,8.892,6.546c1.004,1.309,1.846,2.749,2.505,4.271.116.254.206.538.144.821-.077.474-.482.865-.947.913-.484.072-.984-.237-1.156-.705-1.311-3.165-3.548-5.914-6.338-7.816-1.725-1.183-3.659-2.045-5.68-2.527-2.607-.625-5.351-.625-7.957-.002-3.723.88-7.131,3.071-9.534,6.115-1.019,1.282-1.861,2.712-2.495,4.233-.137.353-.453.63-.821.692-.355.071-.741-.055-.989-.326-.291-.3-.387-.78-.236-1.173c1.745-4.236,4.978-7.794,8.953-9.912c2.589-1.39,5.485-2.166,8.404-2.267Z" fill="#f49813"/><path d="M180.489,407.196c-.014-.22.188-.384.389-.39.262-.007.523-.004.785-.001.182.007.394.131.394.341.009,2.461-.006,4.923.008,7.385.971-1.109,1.952-2.211,2.927-3.317.192-.194.344-.489.643-.514.402-.017.806-.007,1.209-.006.155-.015.328.131.274.301-.064.132-.181.222-.276.326-1.055,1.081-2.113,2.159-3.163,3.245c1.014,1.187,2.013,2.386,3.022,3.578.13.169.293.313.401.5.08.146-.052.324-.205.331-.335.019-.67,0-1.006.008-.175-.004-.364.022-.522-.07-.168-.098-.269-.274-.389-.422-.973-1.258-1.94-2.52-2.916-3.776-.01,1.238-.003,2.476-.004,3.713-.004.143.025.315-.096.419-.193.191-.481.124-.721.136-.214-.007-.464.041-.637-.121-.097-.077-.122-.209-.119-.326.003-3.781-.001-7.56.002-11.34Z" fill="#fff"/><path d="M176.057,410.673c.488-.161,1.038-.192,1.516.021.167.08.362.253.286.465-.076.267-.141.536-.233.798-.067.188-.28.258-.459.221-.402-.071-.797-.207-1.21-.193-.288-.007-.554.151-.751.357-.318.319-.482.765-.556,1.207-.059.32-.042.647-.045.97c0,1.358.001,2.716,0,4.074.019.223-.206.375-.403.383-.269.004-.539.007-.808-.002-.195-.011-.414-.157-.389-.382-.001-2.514-.003-5.028.001-7.542-.017-.25.253-.386.465-.362.266.017.628-.085.801.189.131.318.193.662.317.983.37-.522.861-.982,1.468-1.187Z" fill="#fff"/><path d="M148.549,410.865c.075-.088.163-.184.288-.175.366-.003.733-.011,1.098.006.186.005.314.173.341.35.36,1.501.713,3.005,1.071,4.506.105.464.233.923.302,1.395.071.424.084.854.152,1.278.092-.606.175-1.216.334-1.808.468-1.792.937-3.584,1.405-5.376.037-.204.224-.349.423-.349.408-.011.816-.004,1.223-.004.219-.01.452.121.505.351.35,1.306.695,2.615,1.044,3.923.211.847.488,1.679.608,2.548.033.24.065.48.113.717.132-1.365.474-2.693.755-4.03.233-1.064.46-2.129.695-3.192.035-.214.255-.321.449-.315.33-.002.66-.012.988.005.196.006.308.228.239.406-.661,2.503-1.319,5.007-1.98,7.509-.036.201-.206.358-.406.361-.51.017-1.022.004-1.532.007-.183.011-.377-.089-.409-.287-.457-1.721-.905-3.445-1.358-5.167-.164-.599-.23-1.22-.299-1.836-.084.548-.126,1.106-.268,1.645-.463,1.773-.93,3.547-1.394,5.321-.053.287-.373.345-.611.326-.474-.009-.949.011-1.423-.009-.169.001-.3-.135-.33-.298-.666-2.493-1.331-4.987-1.997-7.479-.024-.109-.021-.22-.026-.329Z" fill="#fff"/><path d="M208.423,410.695c.346-.006.694-.007,1.041,0c.211.003.409.151.476.358.598,1.605,1.193,3.213,1.79,4.819.125.326.213.666.269,1.011.247-.952.576-1.879.865-2.819.321-1.017.643-2.033.966-3.05.048-.177.212-.298.387-.313.283-.021.568-.003.851-.01.166.002.364-.018.49.118.082.071.064.19.03.282-.956,2.8-1.91,5.601-2.865,8.401-.166.467-.294.955-.561,1.375-.384.639-1.005,1.099-1.688,1.348-.239.076-.485.244-.742.15-.182-.048-.252-.243-.349-.385-.07-.13-.199-.25-.172-.411.013-.16.137-.29.285-.333.288-.102.581-.214.814-.423.567-.492.917-1.22,1.051-1.961-.091-.329-.258-.631-.379-.95-.913-2.175-1.825-4.351-2.739-6.525-.055-.143-.136-.278-.152-.433.002-.169.192-.244.332-.249Z" fill="#fff"/><path d="M165.891,411.748c-.498.095-.952.413-1.204.866-.422.734-.471,1.62-.452,2.452.03.754.148,1.558.617,2.167.349.458.924.689,1.482.68.537.017,1.1-.169,1.464-.588.465-.522.614-1.247.678-1.929.029-.671.042-1.354-.128-2.009-.135-.553-.419-1.107-.912-1.405-.459-.289-1.025-.315-1.545-.234Zm.21-1.194c.9-.056,1.844.135,2.587.683.665.485,1.116,1.233,1.327,2.034.251.958.249,1.979.022,2.941-.214.887-.715,1.723-1.47,2.227-.808.55-1.822.693-2.77.576-.807-.102-1.594-.466-2.156-1.076-.661-.71-.989-1.689-1.057-2.656-.083-1.072.077-2.208.659-3.124.43-.689,1.114-1.195,1.876-1.426.319-.102.65-.15.982-.179Z" fill="#fff"/><path d="M192.658,411.704c-.493.033-.97.324-1.19.786-.43.855-.439,1.85-.418,2.79.035.615.1,1.249.379,1.803.188.374.531.669.936.759.62.153,1.349.024,1.79-.479.425-.496.564-1.17.63-1.808.044-.728.047-1.47-.129-2.182-.121-.477-.326-.952-.693-1.283-.353-.318-.844-.441-1.305-.386Zm2.124-4.612c-.011-.193.181-.317.348-.331.268-.015.536-.008.804-.005.204-.002.432.154.403.386c0,3.798,0,7.595-.001,11.392.014.196-.174.348-.35.36-.214.011-.427.011-.639-.004-.15-.01-.295-.108-.346-.255-.08-.247-.122-.503-.183-.754-.295.411-.676.775-1.15.956-.675.255-1.427.259-2.121.085-.697-.172-1.304-.663-1.64-1.31-.528-.988-.591-2.15-.558-3.252.019-.942.194-1.935.792-2.682.451-.633,1.19-.997,1.936-1.092.694-.104,1.447.016,2.022.448.272.196.49.459.684.734-.005-1.558-.004-3.117-.001-4.676Z" fill="#fff"/><path d="M202.255,411.751c-.247.051-.487.153-.687.312-.401.32-.6.828-.706,1.322-.154.783-.152,1.591-.072,2.383.075.582.217,1.203.633,1.633.338.365.849.498,1.326.474.514.019,1.049-.177,1.38-.591.414-.514.531-1.198.592-1.842.038-.758.039-1.534-.169-2.269-.131-.459-.371-.914-.775-1.175-.445-.3-1.009-.328-1.522-.247Zm-.687-1.04c.712-.203,1.476-.215,2.196-.046.669.159,1.295.545,1.706,1.115.435.585.655,1.311.746,2.034.079.557.056,1.122.057,1.683c0,1.014,0,2.027-.003,3.041.011.123-.065.233-.163.297-.166.105-.371.058-.556.07-.208-.002-.48.017-.593-.204-.11-.26-.133-.551-.204-.825-.278.347-.566.705-.968.906-.614.311-1.33.292-1.986.161-.803-.163-1.543-.65-1.997-1.352-.541-.817-.737-1.826-.729-2.802-.007-.95.174-1.933.689-2.737.412-.658,1.073-1.134,1.805-1.341Z" fill="#fff"/></g></g><path d="M215.927,416.938c-.407.154-.664.636-.56,1.072.106.511.686.86,1.17.671.446-.139.727-.661.588-1.121-.121-.518-.72-.824-1.198-.622Zm.057-.218c.241-.039.504-.042.729.073.382.178.656.599.615,1.037.032.522-.396.989-.885,1.073-.55.12-1.142-.289-1.254-.852-.144-.567.239-1.204.795-1.331Z" fill="#fff"/><path d="M216.097,417.355c0,.119-.001.237,0,.357.102-.007.206,0,.306-.029.094-.04.085-.162.059-.245-.097-.097-.242-.072-.365-.083Zm-.305-.193c.292.017.62-.067.883.1.212.163.109.519-.13.595.069.187.165.362.253.54-.111.003-.22.004-.328.006-.079-.165-.156-.332-.232-.499-.047-.002-.094-.002-.141-.003c0,.167,0,.334,0,.5-.104-.001-.205-.002-.307-.003.001-.412,0-.824.002-1.236Z" fill="#fff"/><ellipse rx="43.8118" ry="43.3175" transform="translate(421.471 413.682)" fill="#fff"/><g clip-path="url(#eehwRDUXFpZ71)"><g><g mask="url(#eehwRDUXFpZ69)"><g><path d="M413.469,414.54c-.216.688-.684,1.299-1.372,1.69l-10.204,5.802c-1.441.816-3.277.333-4.104-1.079-.833-1.419-.343-3.225,1.097-4.044l5.703-3.237-5.703-3.245c-1.44-.817-1.932-2.623-1.097-4.038.827-1.415,2.663-1.9,4.104-1.084l10.204,5.799c.717.407,1.196,1.053,1.398,1.776.068.232.098.464.11.698.008.321-.034.647-.136.962Zm2.768,5.435c1.554.11,2.781,1.389,2.781,2.946v11.602c0,1.636-1.348,2.96-3.004,2.96-1.663,0-3.007-1.324-3.007-2.96v-6.489l-5.721,3.247c-1.435.822-3.27.336-4.103-1.077-.829-1.415-.339-3.23,1.099-4.047l10.211-5.796c.549-.315,1.158-.436,1.744-.386Zm10.459-12.609c-1.558-.113-2.782-1.394-2.782-2.95v-11.603c0-1.631,1.341-2.955,3.006-2.955c1.663,0,3.006,1.324,3.006,2.955v6.493l5.718-3.252c1.438-.817,3.273-.332,4.102,1.081.827,1.42.34,3.227-1.099,4.044l-10.21,5.801c-.549.311-1.157.433-1.741.386Zm-22.414-6.187c-1.438-.817-1.928-2.624-1.099-4.044.833-1.413,2.668-1.898,4.103-1.081l5.721,3.252v-6.493c0-1.631,1.344-2.955,3.007-2.955c1.656,0,3.004,1.324,3.004,2.955v11.603c0,1.556-1.227,2.837-2.781,2.95-.586.047-1.195-.075-1.744-.386l-10.211-5.801Zm18.339,17.798c-.122.124-.356.224-.534.224h-1.247c-.172,0-.409-.1-.533-.224l-4.242-4.171c-.121-.118-.22-.354-.22-.52v-1.231c0-.17.099-.406.22-.525l4.242-4.173c.124-.121.361-.219.533-.219h1.247c.174,0,.412.098.534.219l4.244,4.173c.121.119.219.355.219.525v1.231c0,.166-.098.402-.219.52l-4.244,4.171Zm.852-5.329c0-.169-.104-.403-.225-.528l-1.23-1.204c-.12-.119-.359-.218-.53-.218h-.049c-.171,0-.408.099-.528.218l-1.229,1.204c-.123.125-.217.359-.217.528v.048c0,.166.094.398.217.52l1.229,1.207c.121.119.357.217.528.217h.049c.171,0,.41-.098.53-.217l1.23-1.207c.121-.122.225-.354.225-.52v-.048Zm15.174,12.509c1.439.817,1.926,2.632,1.099,4.047-.829,1.413-2.666,1.899-4.102,1.077l-5.718-3.247v6.489c0,1.636-1.343,2.96-3.006,2.96-1.665,0-3.006-1.324-3.006-2.96v-11.602c0-1.557,1.224-2.836,2.782-2.946.584-.05,1.192.071,1.741.386l10.21,5.796Zm-.305-12.485l5.703,3.237c1.44.819,1.933,2.625,1.1,4.044-.831,1.412-2.669,1.895-4.104,1.079l-10.212-5.802c-.682-.391-1.154-1.002-1.364-1.69-.099-.315-.147-.641-.135-.962.006-.234.041-.466.106-.698.204-.723.684-1.369,1.393-1.776l10.212-5.799c1.435-.816,3.273-.331,4.104,1.084.833,1.415.34,3.221-1.1,4.038l-5.703,3.245Z" clip-rule="evenodd" fill="#29b5e8" fill-rule="evenodd"/></g><mask id="eehwRDUXFpZ69" mask-type="luminance" x="-150%" y="-150%" height="400%" width="400%"><path d="M397.382,389.858h212.265v47.625h-212.265v-47.625Z" fill="#fff"/></mask></g></g><clipPath id="eehwRDUXFpZ71"><rect width="48.1929" height="47.6493" rx="0" ry="0" transform="translate(397.374 389.858)" fill="#fff"/></clipPath></g><ellipse rx="43.8118" ry="43.859" transform="translate(201.871 169.48)" fill="#ff5745"/><g clip-path="url(#eehwRDUXFpZ77)"><g><path d="M218.378,153.27v5.123l-31.755,16.631v-5.123l12.653-6.596-12.653-3.158v-4.667l18.646,4.702l7.185-3.754-25.831-6.491v-4.632l31.755,7.965Zm-31.755,32.456l31.755,8v-4.667l-25.797-6.456l7.15-3.754l18.647,4.666v-4.631l-12.653-3.193l12.653-6.632v-5.087l-31.755,16.631v5.123Z" fill="#fff"/></g><clipPath id="eehwRDUXFpZ77"><rect width="52.5741" height="52.6308" rx="0" ry="0" transform="translate(175.583 143.165)" fill="#fff"/></clipPath></g><g id="eehwRDUXFpZ79" transform="translate(-130.335999-.06355)" opacity="0"><ellipse rx="56.793" ry="56.8543" transform="translate(445.793 56.8543)" fill="#4386fa"/><path d="M461.035,45.2159l-5.255-5.1985c-.056-.0584-.121-.1079-.192-.1472c2.22-2.859,3.261-6.4516,2.909-10.0463-.351-3.5947-2.068-6.9211-4.8-9.3021-2.733-2.381-6.276-3.6374-9.908-3.5134-3.632.1239-7.08,1.6189-9.642,4.1806-5.316,5.3236-5.551,13.8523-.533,19.437c2.42,2.6953,5.781,4.3742,9.401,4.6956s7.227-.7388,10.089-2.9652c.039.067.085.1288.139.1839l5.255,5.2225c.076.0758.167.1358.267.1765s.206.0614.314.0607c.218-.0007.426-.0858.581-.2372l1.394-1.3847c.076-.0758.136-.1658.177-.2649s.062-.2054.061-.3125c0-.2161-.086-.4233-.238-.5774l-.019-.0074Zm-16.74-3.3762c-2.126-.0005-4.204-.6273-5.971-1.801s-3.145-2.8417-3.958-4.7933c-1.666-3.9903-.744-8.5876,2.331-11.6401c1.504-1.4926,3.419-2.5088,5.503-2.9203c2.085-.4115,4.245-.1998,6.209.6084c1.963.8081,3.641,2.1765,4.823,3.9322c1.181,1.7557,1.812,3.82,1.813,5.932-.003,5.8973-4.811,10.6766-10.747,10.6803l-.003.0018Zm-6.869-11.2522v4.4134c.685,1.2008,1.675,2.1993,2.872,2.8999v-7.3225l-2.872.0092Zm5.366-3.6594v11.9289c.949.1729,1.925.1729,2.872,0v-11.9472l-2.872.0183Zm8.312,8.0673v-2.6113h-2.872v5.5057c1.196-.6988,2.184-1.6918,2.872-2.8908v-.0036Z" fill="#fff"/><path d="M430.833,63.8589h-6.973v2.0581h4.956c-.247,2.8903-2.666,4.122-4.946,4.122-1.447.0099-2.839-.5536-3.869-1.5648-1.029-1.0112-1.611-2.3892-1.615-3.8274v-.0929c-.025-1.4571.541-2.8627,1.569-3.8996c1.029-1.037,2.435-1.6212,3.902-1.6162c1.395.002,2.735.5417,3.737,1.5074l1.453-1.4857c-1.408-1.3513-3.298-2.0916-5.255-2.058-5.991-.1252-9.776,6.3535-6.696,11.4615c1.427,2.3632,4.033,3.7694,6.804,3.6713c4.062-.0079,7.062-2.7826,7.062-6.8878.009-.459-.033-.9175-.127-1.3671l-.002-.0208Zm5.736-1.4857c-2.677-.0551-4.89,2.0638-4.933,4.725v.1038c-.016,2.6986,2.173,4.899,4.889,4.9148c2.715.0158,4.929-2.1599,4.945-4.8584c0-3.2225-2.546-4.8852-4.891-4.8852h-.01Zm.027,1.9177c1.41,0,2.736,1.115,2.736,2.9714s-1.331,2.9497-2.751,2.9497c-1.561,0-2.785-1.2356-2.785-2.9714s1.203-2.9428,2.788-2.9428l.012-.0069Zm10.655-1.9177c-2.672-.0468-4.875,2.0697-4.919,4.725v.1038c-.015,2.6986,2.174,4.899,4.889,4.9148c2.716.0158,4.93-2.1599,4.946-4.8584c0-3.2126-2.55-4.8802-4.911-4.8802l-.005-.005Zm.03,1.9177c1.409,0,2.735,1.115,2.735,2.9714s-1.331,2.9497-2.75,2.9497c-1.562,0-2.785-1.2356-2.785-2.9714s1.203-2.9428,2.787-2.9428l.013-.0069Zm10.464-1.9177c-2.616,0-4.698,2.2874-4.698,4.8634-.04,2.6096,2.027,4.7744,4.653,4.8703c1.035.0539,2.033-.3883,2.684-1.1892v.9618c0,1.6805-1.025,2.6887-2.572,2.6887-1.112-.0138-2.103-.6998-2.504-1.7298l-1.87.773c.663,1.4007,1.996,2.8785,4.386,2.8785c2.616,0,4.616-1.638,4.616-5.071v-8.7481h-2.055v.8175c-.676-.7333-1.64-1.14-2.64-1.1151Zm.191,1.8979c1.289,0,2.616,1.0953,2.616,2.9714s-1.323,2.9309-2.646,2.9309c-1.409,0-2.706-1.115-2.706-2.9259c0-1.8584,1.357-2.9714,2.741-2.9714l-.005-.005Zm13.627-1.8979c-2.482,0-4.56,1.9612-4.56,4.8585-.097,2.6906,2.094,4.9134,4.802,4.8732c1.642.0075,3.181-.7917,4.111-2.1351l-1.692-1.115c-.498.8402-1.409,1.3493-2.388,1.3374-1.03.0401-1.981-.5487-2.399-1.4857L476,66.003l-.331-.7908c-.647-1.6884-2.264-2.8133-4.081-2.837l-.025-.002Zm.086,1.8584c.756-.0316,1.462.3737,1.814,1.0399l-4.394,1.8287c-.191-1.4116,1.154-2.8607,2.571-2.8607l.009-.0079Zm-7.782,7.5857h2.155v-14.3361h-2.156l.001,14.3361ZM416.423,88.3251v-9.3976h3.424c.716-.0148,1.41.2524,1.929.7433.529.4597.825,1.1289.807,1.8287.045.8595-.473,1.6497-1.282,1.9572v.0524c.465.1444.873.432,1.162.8205.29.3846.443.8539.437,1.3344.018.7286-.285,1.4284-.829,1.9177-.552.4985-1.277.7649-2.023.7434h-3.615-.01Zm1.214-8.2391v2.8834h2.205c.406.0112.798-.146,1.083-.4339.559-.5338.581-1.4136.05-1.9721l-.038-.0375c-.27-.2847-.649-.4429-1.042-.435h-2.241l-.017-.0049Zm0,4.0083v3.0841h2.447c.859.0079,1.563-.6761,1.573-1.5321.002-.4073-.166-.7969-.464-1.0765-.307-.3061-.727-.473-1.162-.4616h-2.397l.003-.0139Zm8-4.4156c-.003.931-1.293,1.181-1.647.3193-.359-.8612.737-1.5861,1.397-.9242.164.1581.255.3776.251.6059l-.001-.001Zm-.251,2.2281v6.4252h-1.218v-6.4252h1.218Zm4.377,9.4717c-.344.003-.696-.0435-1.017-.1384-.305-.0818-.597-.207-.867-.3717-.255-.1662-.482-.3706-.673-.6059-.183-.2214-.326-.4745-.422-.7433l1.161-.4745c.125.3681.366.686.688.9064.328.2274.721.346,1.122.342.577.0327,1.141-.1808,1.548-.5911.39-.4497.59-1.0329.557-1.627v-.6346h-.053c-.234.345-.555.6228-.931.8056-.396.1977-.833.2995-1.273.2965-.838.004-1.635-.3558-2.183-.9845-.597-.671-.919-1.5408-.901-2.4366-.022-.8941.298-1.7632.897-2.4307.545-.6366,1.343-1.0024,2.183-.9984.442-.0029.879.0992,1.274.2975.376.1828.697.4606.931.8056h.053v-.9024h1.161v6.1582c.05.8966-.268,1.7744-.885,2.4298-.634.5985-1.484.9172-2.358.8837l-.012.0138Zm.042-3.9411c.56.015,1.098-.2208,1.465-.6425.789-.9764.789-2.3668,0-3.3431-.363-.428-.902-.6692-1.465-.6573-.562-.0079-1.099.2332-1.466.6573-.414.4616-.619,1.0705-.594,1.6745-.026.6113.187,1.2087.594,1.6676.369.4211.904.6603,1.466.6524v-.0089Z" fill="#fff"/><path d="M445.943,88.8675l-.978.6301-.665-.981c-.722.3592-1.517.5478-2.324.5512-1.323.0283-2.617-.4996-3.541-1.4562-1.913-2.0043-1.913-5.1443,0-7.1476c1.953-1.952,5.132-1.952,7.085,0c.949.9408,1.468,2.2278,1.434,3.5596.004.7248-.146,1.4422-.44,2.1055-.286.6533-.708,1.2389-1.238,1.7181l.667,1.0203Zm-3.96-.9809c.565-.0001,1.123-.1302,1.629-.3802l-1.127-1.6847.979-.6574l1.119,1.6787c.75-.7336,1.152-1.7483,1.108-2.7931.038-1.0234-.339-2.0174-1.066-2.7506-.684-.7162-1.642-1.1108-2.635-1.0861-.997-.024-1.959.3702-2.65,1.0861-1.404,1.5675-1.404,3.9439,0,5.5012.692.7218,1.659,1.1193,2.661,1.0942l-.018-.0081Zm12.043.9739h-1.191v-.9203h-.053c-.211.3439-.512.624-.873.809-.373.2101-.795.3211-1.224.3226-.695.0442-1.376-.2072-1.873-.6917-.466-.5461-.7-1.2539-.649-1.9679v-4.134h1.241v4.045c.029,1.0787.571,1.618,1.628,1.618.484.0008.941-.2205,1.239-.5996.335-.4019.514-.9108.501-1.433v-3.6263h1.242v6.5731l.012.0051Zm4.42.2164c-.907.0263-1.783-.3368-2.405-.9951-.636-.6806-.975-1.5836-.944-2.512-.029-.9202.303-1.8182.923-2.5028c1.279-1.3131,3.391-1.3372,4.7-.0536.626.7402.94,1.6949.872,2.6596v.1335h-5.207c-.007.5854.228,1.1481.649,1.5573c1.026.9946,2.732.6947,3.353-.5895l1.109.5359c-.283.539-.71.991-1.235,1.3045-.546.3155-1.167.4753-1.797.4632l-.018-.001Zm-1.988-4.2978h3.796c-.027-.4399-.229-.8495-.563-1.1407-.38-.3034-.865-.4733-1.358-.448-.441-.0101-.872.1436-1.208.4287-.346.3004-.58.7079-.67,1.1559l.003.0041Zm7.506,4.0814h-1.242v-6.5732h1.189v1.075h.054c.145-.3742.424-.6897.765-.893.339-.2325.736-.364,1.148-.3792.314-.0074.626.0483.918.1638l-.382,1.1974c-.234-.0794-.482-.1117-.73-.0951-.472.002-.918.2083-1.224.5663-.337.3556-.523.8263-.52,1.3146v3.6304l.024-.007Zm9.721-6.5732l-4.142,9.5007h-1.285l1.529-3.3169-2.714-6.1818h1.354l1.974,4.7307h.027l1.913-4.7307h1.344v-.002Z" fill="#fff"/></g><g id="eehwRDUXFpZ84" transform="translate(6.970476 5.415003)" opacity="0"><g transform="translate(-8.435999 131.14612)" filter="url(#eehwRDUXFpZ85-filter)"><g><ellipse rx="56.793" ry="56.8543" transform="translate(579.793 150.854)" fill="#00a1e0"/><g clip-path="url(#eehwRDUXFpZ93)"><g><path d="M573.372,130.437c2.741-2.832,6.558-4.589,10.779-4.589c5.611,0,10.506,3.102,13.113,7.708c2.265-1.004,4.773-1.562,7.411-1.562c10.12,0,18.325,8.207,18.325,18.329c0,10.124-8.205,18.331-18.325,18.331-1.212,0-2.421-.119-3.609-.357-2.296,4.06-6.671,6.804-11.692,6.804-2.102,0-4.09-.481-5.86-1.337-2.327,5.428-7.749,9.234-14.069,9.234-6.581,0-12.189-4.129-14.342-9.92-.941.198-1.916.301-2.916.301-7.835,0-14.187-6.363-14.187-14.214c0-5.261,2.854-9.855,7.094-12.313-.873-1.992-1.358-4.19-1.358-6.501c0-9.029,7.392-16.348,16.509-16.348c5.353,0,10.111,2.523,13.127,6.434Z" fill="#fff"/><path d="M550.311,154.596c-.053.138.02.167.037.191.16.115.322.198.485.29.867.457,1.686.59,2.542.59c1.743,0,2.826-.92,2.826-2.4v-.029c0-1.369-1.222-1.866-2.368-2.225l-.149-.048c-.865-.279-1.611-.519-1.611-1.083v-.03c0-.483.436-.838,1.112-.838.751,0,1.642.247,2.216.562c0,0,.168.108.23-.054.034-.087.324-.862.355-.946.032-.091-.026-.159-.085-.195-.655-.395-1.561-.665-2.498-.665l-.175.001c-1.595,0-2.709.956-2.709,2.326v.029c0,1.444,1.229,1.912,2.38,2.239l.185.056c.84.256,1.562.476,1.562,1.062v.029c0,.535-.469.934-1.227.934-.295,0-1.233-.006-2.246-.642-.123-.07-.194-.122-.289-.178-.049-.032-.174-.086-.228.078l-.345.946Zm25.526,0c-.053.138.019.167.036.191.16.115.322.198.486.29.867.457,1.685.59,2.541.59c1.744,0,2.826-.92,2.826-2.4v-.029c0-1.369-1.221-1.866-2.368-2.225l-.149-.048c-.865-.279-1.611-.519-1.611-1.083v-.03c0-.483.436-.838,1.112-.838.751,0,1.642.247,2.216.562c0,0,.168.108.23-.054.034-.087.324-.862.355-.946.032-.091-.026-.159-.085-.195-.655-.395-1.561-.665-2.498-.665l-.174.001c-1.596,0-2.71.956-2.71,2.326v.029c0,1.444,1.229,1.912,2.38,2.239l.186.056c.839.256,1.563.476,1.563,1.062v.029c0,.535-.471.934-1.229.934-.294,0-1.233-.006-2.246-.642-.123-.07-.195-.12-.287-.178-.032-.021-.179-.077-.23.078l-.344.946Zm17.425-2.9c0,.837-.157,1.496-.467,1.962-.306.461-.77.686-1.417.686s-1.109-.224-1.41-.686c-.305-.465-.46-1.125-.46-1.962c0-.836.155-1.494.46-1.955.301-.456.763-.678,1.41-.678s1.111.222,1.418.678c.309.461.466,1.119.466,1.955Zm1.456-1.551c-.143-.479-.366-.902-.663-1.254-.296-.353-.672-.636-1.117-.843-.445-.205-.97-.309-1.56-.309-.591,0-1.116.104-1.56.309-.446.207-.821.49-1.119.843-.296.353-.518.776-.663,1.254-.141.476-.213.998-.213,1.551c0,.554.072,1.076.213,1.551.145.478.366.901.664,1.254.297.353.673.635,1.118.835.445.201.969.303,1.56.303.59,0,1.114-.102,1.56-.303.444-.2.821-.482,1.118-.835.296-.352.519-.775.662-1.254.143-.476.214-.999.214-1.551s-.071-1.075-.214-1.551Zm11.951,3.975c-.048-.14-.185-.088-.185-.088-.212.081-.437.155-.677.192-.243.038-.511.057-.798.057-.704,0-1.264-.208-1.664-.618-.402-.411-.628-1.075-.625-1.973.002-.818.201-1.433.558-1.901.355-.466.895-.705,1.615-.705.601,0,1.058.069,1.538.219c0,0,.115.049.169-.1.127-.35.222-.601.358-.987.038-.109-.056-.156-.09-.169-.189-.073-.635-.192-.971-.242-.315-.048-.683-.074-1.092-.074-.612,0-1.157.104-1.623.31-.465.205-.86.489-1.172.842s-.55.775-.708,1.253c-.158.477-.237,1-.237,1.554c0,1.197.325,2.165.968,2.873.644.711,1.612,1.072,2.874,1.072.745,0,1.511-.15,2.06-.365c0,0,.106-.05.06-.171l-.358-.979Zm2.547-3.226c.069-.464.199-.851.398-1.152.302-.458.762-.709,1.409-.709.646,0,1.074.253,1.38.709.203.301.292.705.327,1.152h-3.514Zm4.9-1.021c-.123-.463-.43-.93-.631-1.143-.317-.339-.627-.576-.934-.708-.402-.17-.884-.283-1.412-.283-.615,0-1.174.102-1.626.313-.454.212-.836.5-1.135.859-.299.358-.524.784-.667,1.268-.144.481-.217,1.006-.217,1.559c0,.563.075,1.088.224,1.56.15.475.39.894.715,1.241.323.35.739.624,1.238.814.495.19,1.097.289,1.789.287c1.422-.004,2.172-.319,2.481-.488.054-.03.106-.083.041-.234l-.322-.895c-.049-.133-.186-.084-.186-.084-.352.13-.853.363-2.022.36-.764-.001-1.33-.224-1.685-.574-.365-.357-.543-.883-.574-1.625l4.927.004c0,0,.129-.002.143-.127.005-.052.169-1.003-.147-2.104Zm-44.357,1.021c.07-.464.199-.851.398-1.152.302-.458.762-.709,1.409-.709.646,0,1.074.253,1.381.709.202.301.291.705.326,1.152h-3.514Zm4.899-1.021c-.124-.463-.429-.93-.63-1.143-.317-.339-.627-.576-.934-.708-.402-.17-.884-.283-1.412-.283-.614,0-1.173.102-1.626.313-.454.212-.836.5-1.135.859-.299.358-.524.784-.667,1.268-.143.481-.217,1.006-.217,1.559c0,.563.075,1.088.224,1.56.151.475.39.894.715,1.241.323.35.74.624,1.238.814.496.19,1.097.289,1.789.287c1.422-.004,2.172-.319,2.481-.488.054-.03.106-.083.041-.234l-.321-.895c-.05-.133-.186-.084-.186-.084-.353.13-.853.363-2.024.36-.762-.001-1.329-.224-1.684-.574-.364-.357-.542-.883-.574-1.625l4.927.004c0,0,.129-.002.143-.127.004-.052.169-1.003-.148-2.104Zm-15.548,4.22c-.193-.152-.22-.191-.285-.289-.097-.15-.146-.364-.146-.635c0-.43.142-.739.439-.946-.003.001.424-.367,1.429-.353.706.009,1.337.112,1.337.112v2.222h.001c0,0-.626.133-1.331.175-1.002.06-1.448-.287-1.444-.286Zm1.96-3.432c-.2-.015-.459-.023-.769-.023-.423,0-.831.053-1.213.155-.385.102-.732.261-1.029.473-.298.21-.542.486-.715.805-.174.322-.263.701-.263,1.127c0,.432.076.808.226,1.115.15.309.367.565.643.764.273.198.611.343,1.003.431.387.087.825.132,1.304.132.505,0,1.009-.041,1.497-.124.483-.082,1.076-.201,1.241-.238.116-.027.231-.057.345-.087.123-.03.113-.16.113-.16l-.003-4.468c0-.979-.264-1.706-.783-2.156-.517-.449-1.279-.676-2.263-.676-.369,0-.964.05-1.32.121c0,0-1.076.207-1.519.55c0,0-.097.06-.044.195l.349.929c.043.12.161.079.161.079s.037-.014.081-.039c.948-.512,2.147-.496,2.147-.496.533,0,.942.105,1.218.315.269.205.405.513.405,1.164v.206c-.423-.06-.812-.094-.812-.094Zm39.737-2.518c.038-.11-.041-.163-.074-.175-.083-.032-.502-.12-.826-.14-.618-.038-.962.066-1.27.202-.305.137-.644.358-.833.609v-.594c0-.083-.059-.149-.141-.149h-1.263c-.083,0-.142.066-.142.149v7.287c0,.081.068.148.15.148h1.295c.039,0,.077-.016.105-.043.028-.028.044-.066.043-.105v-3.641c0-.488.055-.976.164-1.282.107-.303.252-.545.431-.719.18-.173.385-.294.609-.363.229-.069.482-.092.661-.092.258,0,.541.066.541.066.095.011.148-.047.18-.132.084-.224.324-.892.37-1.026Z" fill="#00a1e0"/><path d="M588.658,144.766c-.158-.048-.301-.08-.487-.115-.189-.034-.414-.051-.67-.051-.891,0-1.593.25-2.086.742-.491.49-.824,1.236-.991,2.217l-.06.33h-1.119c0,0-.136-.005-.165.142l-.182,1.017c-.014.096.029.157.159.157h1.089l-1.104,6.114c-.086.492-.186.897-.296,1.204-.108.303-.213.529-.344.695-.126.159-.244.276-.45.345-.17.056-.366.083-.58.083-.119,0-.277-.02-.395-.044-.116-.023-.178-.048-.266-.085c0,0-.127-.048-.178.078-.04.105-.331.896-.366.993-.034.097.015.173.076.196.146.05.253.084.451.131.273.063.505.067.721.067.453,0,.867-.064,1.21-.186.344-.124.644-.339.91-.629.287-.315.468-.644.64-1.094.171-.444.317-.997.433-1.64l1.111-6.228h1.622c0,0,.137.005.165-.143l.184-1.016c.012-.097-.029-.157-.161-.157h-1.575c.008-.035.079-.585.26-1.102.077-.22.223-.399.345-.521.121-.12.26-.205.413-.255.156-.05.334-.074.529-.074.148,0,.294.017.404.039.153.033.212.05.252.062.161.048.183.001.215-.076l.376-1.025c.039-.111-.057-.158-.09-.171Zm-22.01,10.566c0,.082-.06.148-.142.148h-1.306c-.083,0-.141-.066-.141-.148v-10.427c0-.081.058-.147.141-.147h1.306c.082,0,.142.066.142.147v10.427Z" fill="#00a1e0"/></g><clipPath id="eehwRDUXFpZ93"><rect width="85" height="59" rx="0" ry="0" transform="translate(538 124)" fill="#fff"/></clipPath></g></g></g></g><g id="eehwRDUXFpZ95" transform="matrix(.814767 0 0 0.814767 38.59515 173.207723)" opacity="0"><ellipse rx="56.0371" ry="57.5" transform="translate(178.037 288.5)" fill="#003249"/><path d="M202.72,273.689c0-3.412,2.616-5.055,5.424-5.055c2.807,0,5.359,1.674,5.359,5.055h-10.783Zm4.945-8.657c-5.742,0-9.475,3.886-9.475,10.331c0,7.962,5.743,10.269,9.826,10.269c5.2,0,8.167-3.444,8.167-3.444l-2.648-2.623c-1.403,1.233-3.03,1.991-5.455,1.991-3.19,0-5.36-1.864-5.36-4.392h14.229c0-.031,2.488-12.132-9.284-12.132Z" fill="#00db00"/><path d="M155.218,273.341c-1.818-.221-7.114-.031-7.114-2.401c0-1.422,2.202-2.18,4.243-2.18c3.254,0,5.424,1.295,6.03,1.706l2.743-2.717c-.797-.664-3.828-2.749-8.773-2.749-4.498,0-8.549,2.338-8.549,6.066c0,5.751,6.986,5.719,9.921,6.003c1.755.158,3.382.285,3.382,2.022c0,1.58-2.457,2.496-4.371,2.496-3.126,0-4.977-1.011-6.795-2.654L143,281.84c2.712,2.591,6.125,3.728,9.507,3.728c5.232,0,9.028-2.274,9.028-6.887-.032-3.002-2.106-4.803-6.317-5.34Z" fill="#00db00"/><path d="M174.839,278.017c0,3.823-2.744,3.602-5.2,3.602-2.489,0-4.052-.663-4.052-2.369c0-1.58,1.276-2.117,3.956-2.117h5.296v.884Zm-4.562-12.985c-4.53,0-7.497,2.306-8.04,2.749l2.744,2.717c.542-.443,2.424-1.706,5.327-1.706c3.478,0,4.531,1.358,4.531,2.938v1.927h-6.189c-2.297,0-6.796.569-6.796,5.561c0,3.665,2.138,6.382,7.21,6.382c2.552,0,4.467-.821,5.806-2.401v1.99h4.499v-13.175c-.064-4.613-2.903-6.982-9.092-6.982Z" fill="#00db00"/><path d="M193.214,275.3c0,1.548-.032,2.686-.16,3.254-.287,1.296-1.755,2.97-4.402,2.97-.67,0-4.084-.379-4.467-3.317-.063-.6-.127-1.359-.127-2.907c0-2.275.095-3.001.223-3.602.223-1.137,1.755-2.843,4.402-2.843c3.223,0,4.275,2.18,4.435,3.033.064.6.096,1.896.096,3.412Zm0-9.858v2.212c-1.532-1.769-3.35-2.622-5.87-2.622-4.275,0-6.476,2.369-7.21,4.897-.287.948-.383,2.717-.383,5.371c0,2.496.032,4.771.893,6.509c1.212,2.433,4.211,3.791,6.668,3.791c2.392,0,4.434-.916,5.87-2.527v1.232c0,1.453-.511,2.401-1.436,3.159-.957.759-2.137,1.232-3.764,1.232-1.5,0-2.903-.789-3.733-1.358l-3.031,3.001c1.946,1.58,4.307,2.654,6.827,2.654c2.68.032,4.85-.789,6.732-2.243c1.818-1.422,2.967-4.076,2.967-6.888v-18.42h-4.53Z" fill="#00db00"/><path d="M146.253,293h-1.253v18.831h1.253v-18.831Z" fill="#d8d8d8"/><path d="M160.751,311.81h-1.296v-8.838c0-2.183-.713-3.467-2.96-3.467-1.923,0-4.019,1.242-4.883,2.055v10.25h-1.297v-13.203h1.124l.086,1.712c1.556-1.092,3.328-1.969,5.207-1.969c2.809,0,4.019,1.605,4.019,4.579v8.881Z" fill="#d8d8d8"/><path d="M170.647,311.339c-.626.449-1.923.77-2.852.77-2.463,0-3.392-1.005-3.392-3.338v-9.073h-2.118v-1.113h2.118v-3.745l1.296-.214v3.981h3.781v1.112h-3.781v8.817c0,1.583.368,2.525,2.183,2.525.821,0,1.815-.342,2.42-.706l.345.984Z" fill="#d8d8d8"/><path d="M179.528,305.262c-.605-.043-1.232-.086-2.053-.086-2.679,0-4.969.557-4.969,3.231c0,1.434.561,2.633,2.765,2.633c1.686,0,3.328-.771,4.257-1.884v-3.894Zm1.296,4.686c0,.728.13,1.092.821,1.092.238,0,.476-.043.821-.15l.108.834c-.518.257-.864.321-1.426.321-1.145,0-1.577-.856-1.512-1.669-1.016,1.006-2.636,1.776-4.516,1.776-3.414,0-3.932-2.332-3.932-3.595c0-3.766,3.435-4.429,6.546-4.429.627,0,1.232.021,1.815.042v-1.177c0-2.61-.648-3.595-3.176-3.595-2.225,0-3.09.835-3.392,2.461l-1.232-.214c.411-2.439,2.053-3.338,4.732-3.338c3.133,0,4.386,1.134,4.386,4.43v7.211h-.043Z" fill="#d8d8d8"/><path d="M183.33,305.262c0-4.665,2.312-6.912,6.201-6.912c2.528,0,4.603,1.434,4.732,4.301l-1.382.15c-.238-2.268-1.34-3.338-3.501-3.338-2.225,0-4.71,1.241-4.71,5.606c0,4.708,2.312,5.842,4.537,5.842c2.053,0,3.457-.941,3.825-3.017l1.318.257c-.497,2.824-2.787,3.958-5.121,3.958-4.365.022-5.899-2.846-5.899-6.847Z" fill="#d8d8d8"/><path d="M195.949,305.262c0-4.665,2.312-6.912,6.201-6.912c2.528,0,4.602,1.434,4.732,4.301l-1.383.15c-.237-2.268-1.339-3.338-3.5-3.338-2.226,0-4.689,1.241-4.689,5.606c0,4.708,2.312,5.842,4.538,5.842c2.052,0,3.457-.941,3.824-3.017l1.318.257c-.497,2.824-2.787,3.958-5.121,3.958-4.408.022-5.92-2.846-5.92-6.847Z" fill="#d8d8d8"/><path d="M216,311.339c-.627.449-1.923.77-2.852.77-2.463,0-3.392-1.005-3.392-3.338v-9.073h-2.118v-1.113h2.118v-3.745l1.296-.214v3.981h3.781v1.112h-3.803v8.817c0,1.583.368,2.525,2.183,2.525.821,0,1.815-.342,2.42-.706l.367.984Z" fill="#d8d8d8"/></g>
<script><![CDATA[
!function(t,e){"object"==typeof exports&&"undefined"!=typeof module?module.exports=e():"function"==typeof __SVGATOR_DEFINE__&&__SVGATOR_DEFINE__.amd?__SVGATOR_DEFINE__(e):((t="undefined"!=typeof globalThis?globalThis:t||self).__SVGATOR_PLAYER__=t.__SVGATOR_PLAYER__||{},t.__SVGATOR_PLAYER__["91c80d77"]=e())}(this,(function(){"use strict";function t(t,e){var n=Object.keys(t);if(Object.getOwnPropertySymbols){var r=Object.getOwnPropertySymbols(t);e&&(r=r.filter((function(e){return Object.getOwnPropertyDescriptor(t,e).enumerable}))),n.push.apply(n,r)}return n}function e(e){for(var n=1;n<arguments.length;n++){var r=null!=arguments[n]?arguments[n]:{};n%2?t(Object(r),!0).forEach((function(t){u(e,t,r[t])})):Object.getOwnPropertyDescriptors?Object.defineProperties(e,Object.getOwnPropertyDescriptors(r)):t(Object(r)).forEach((function(t){Object.defineProperty(e,t,Object.getOwnPropertyDescriptor(r,t))}))}return e}function n(t){return(n="function"==typeof Symbol&&"symbol"==typeof Symbol.iterator?function(t){return typeof t}:function(t){return t&&"function"==typeof Symbol&&t.constructor===Symbol&&t!==Symbol.prototype?"symbol":typeof t})(t)}function r(t,e){if(!(t instanceof e))throw new TypeError("Cannot call a class as a function")}function i(t,e){for(var n=0;n<e.length;n++){var r=e[n];r.enumerable=r.enumerable||!1,r.configurable=!0,"value"in r&&(r.writable=!0),Object.defineProperty(t,r.key,r)}}function o(t,e,n){return e&&i(t.prototype,e),n&&i(t,n),t}function u(t,e,n){return e in t?Object.defineProperty(t,e,{value:n,enumerable:!0,configurable:!0,writable:!0}):t[e]=n,t}function a(t){return(a=Object.setPrototypeOf?Object.getPrototypeOf:function(t){return t.__proto__||Object.getPrototypeOf(t)})(t)}function l(t,e){return(l=Object.setPrototypeOf||function(t,e){return t.__proto__=e,t})(t,e)}function s(){if("undefined"==typeof Reflect||!Reflect.construct)return!1;if(Reflect.construct.sham)return!1;if("function"==typeof Proxy)return!0;try{return Boolean.prototype.valueOf.call(Reflect.construct(Boolean,[],(function(){}))),!0}catch(t){return!1}}function f(t,e,n){return(f=s()?Reflect.construct:function(t,e,n){var r=[null];r.push.apply(r,e);var i=new(Function.bind.apply(t,r));return n&&l(i,n.prototype),i}).apply(null,arguments)}function c(t,e){if(e&&("object"==typeof e||"function"==typeof e))return e;if(void 0!==e)throw new TypeError("Derived constructors may only return object or undefined");return function(t){if(void 0===t)throw new ReferenceError("this hasn't been initialised - super() hasn't been called");return t}(t)}function h(t,e,n){return(h="undefined"!=typeof Reflect&&Reflect.get?Reflect.get:function(t,e,n){var r=function(t,e){for(;!Object.prototype.hasOwnProperty.call(t,e)&&null!==(t=a(t)););return t}(t,e);if(r){var i=Object.getOwnPropertyDescriptor(r,e);return i.get?i.get.call(n):i.value}})(t,e,n||t)}function v(t){return function(t){if(Array.isArray(t))return d(t)}(t)||function(t){if("undefined"!=typeof Symbol&&null!=t[Symbol.iterator]||null!=t["@@iterator"])return Array.from(t)}(t)||function(t,e){if(!t)return;if("string"==typeof t)return d(t,e);var n=Object.prototype.toString.call(t).slice(8,-1);"Object"===n&&t.constructor&&(n=t.constructor.name);if("Map"===n||"Set"===n)return Array.from(t);if("Arguments"===n||/^(?:Ui|I)nt(?:8|16|32)(?:Clamped)?Array$/.test(n))return d(t,e)}(t)||function(){throw new TypeError("Invalid attempt to spread non-iterable instance.\nIn order to be iterable, non-array objects must have a [Symbol.iterator]() method.")}()}function d(t,e){(null==e||e>t.length)&&(e=t.length);for(var n=0,r=new Array(e);n<e;n++)r[n]=t[n];return r}function y(t,e,n){if(Number.isInteger(t))return t;var r=Math.pow(10,e);return Math[n]((+t+Number.EPSILON)*r)/r}Number.isInteger||(Number.isInteger=function(t){return"number"==typeof t&&isFinite(t)&&Math.floor(t)===t}),Number.EPSILON||(Number.EPSILON=2220446049250313e-31);var g=p(Math.pow(10,-6));function p(t){var e=arguments.length>1&&void 0!==arguments[1]?arguments[1]:6;return y(t,e,"round")}function m(t,e){var n=arguments.length>2&&void 0!==arguments[2]?arguments[2]:g;return Math.abs(t-e)<n}p(Math.pow(10,-2)),p(Math.pow(10,-4));var b=Math.PI/180;function w(t){return t}function k(t,e,n){var r=1-n;return 3*n*r*(t*r+e*n)+n*n*n}function _(){var t=arguments.length>0&&void 0!==arguments[0]?arguments[0]:0,e=arguments.length>1&&void 0!==arguments[1]?arguments[1]:0,n=arguments.length>2&&void 0!==arguments[2]?arguments[2]:1,r=arguments.length>3&&void 0!==arguments[3]?arguments[3]:1;return t<0||t>1||n<0||n>1?null:m(t,e)&&m(n,r)?w:function(i){if(i<=0)return t>0?i*e/t:0===e&&n>0?i*r/n:0;if(i>=1)return n<1?1+(i-1)*(r-1)/(n-1):1===n&&t<1?1+(i-1)*(e-1)/(t-1):1;for(var o,u=0,a=1;u<a;){var l=k(t,n,o=(u+a)/2);if(m(i,l))break;l<i?u=o:a=o}return k(e,r,o)}}function A(){return 1}function x(t){return 1===t?1:0}function O(){var t=arguments.length>0&&void 0!==arguments[0]?arguments[0]:1,e=arguments.length>1&&void 0!==arguments[1]?arguments[1]:0;if(1===t){if(0===e)return x;if(1===e)return A}var n=1/t;return function(t){return t>=1?1:(t+=e*n)-t%n}}var S=Math.sin,E=Math.cos,j=Math.acos,M=Math.asin,P=Math.tan,B=Math.atan2,I=Math.PI/180,T=180/Math.PI,N=Math.sqrt,R=function(){function t(){var e=arguments.length>0&&void 0!==arguments[0]?arguments[0]:1,n=arguments.length>1&&void 0!==arguments[1]?arguments[1]:0,i=arguments.length>2&&void 0!==arguments[2]?arguments[2]:0,o=arguments.length>3&&void 0!==arguments[3]?arguments[3]:1,u=arguments.length>4&&void 0!==arguments[4]?arguments[4]:0,a=arguments.length>5&&void 0!==arguments[5]?arguments[5]:0;r(this,t),this.m=[e,n,i,o,u,a],this.i=null,this.w=null,this.s=null}return o(t,[{key:"determinant",get:function(){var t=this.m;return t[0]*t[3]-t[1]*t[2]}},{key:"isIdentity",get:function(){if(null===this.i){var t=this.m;this.i=1===t[0]&&0===t[1]&&0===t[2]&&1===t[3]&&0===t[4]&&0===t[5]}return this.i}},{key:"point",value:function(t,e){var n=this.m;return{x:n[0]*t+n[2]*e+n[4],y:n[1]*t+n[3]*e+n[5]}}},{key:"translateSelf",value:function(){var t=arguments.length>0&&void 0!==arguments[0]?arguments[0]:0,e=arguments.length>1&&void 0!==arguments[1]?arguments[1]:0;if(!t&&!e)return this;var n=this.m;return n[4]+=n[0]*t+n[2]*e,n[5]+=n[1]*t+n[3]*e,this.w=this.s=this.i=null,this}},{key:"rotateSelf",value:function(){var t=arguments.length>0&&void 0!==arguments[0]?arguments[0]:0;if(t%=360){var e=S(t*=I),n=E(t),r=this.m,i=r[0],o=r[1];r[0]=i*n+r[2]*e,r[1]=o*n+r[3]*e,r[2]=r[2]*n-i*e,r[3]=r[3]*n-o*e,this.w=this.s=this.i=null}return this}},{key:"scaleSelf",value:function(){var t=arguments.length>0&&void 0!==arguments[0]?arguments[0]:1,e=arguments.length>1&&void 0!==arguments[1]?arguments[1]:1;if(1!==t||1!==e){var n=this.m;n[0]*=t,n[1]*=t,n[2]*=e,n[3]*=e,this.w=this.s=this.i=null}return this}},{key:"skewSelf",value:function(t,e){if(e%=360,(t%=360)||e){var n=this.m,r=n[0],i=n[1],o=n[2],u=n[3];t&&(t=P(t*I),n[2]+=r*t,n[3]+=i*t),e&&(e=P(e*I),n[0]+=o*e,n[1]+=u*e),this.w=this.s=this.i=null}return this}},{key:"resetSelf",value:function(){var t=arguments.length>0&&void 0!==arguments[0]?arguments[0]:1,e=arguments.length>1&&void 0!==arguments[1]?arguments[1]:0,n=arguments.length>2&&void 0!==arguments[2]?arguments[2]:0,r=arguments.length>3&&void 0!==arguments[3]?arguments[3]:1,i=arguments.length>4&&void 0!==arguments[4]?arguments[4]:0,o=arguments.length>5&&void 0!==arguments[5]?arguments[5]:0,u=this.m;return u[0]=t,u[1]=e,u[2]=n,u[3]=r,u[4]=i,u[5]=o,this.w=this.s=this.i=null,this}},{key:"recomposeSelf",value:function(){var t=arguments.length>0&&void 0!==arguments[0]?arguments[0]:null,e=arguments.length>1&&void 0!==arguments[1]?arguments[1]:null,n=arguments.length>2&&void 0!==arguments[2]?arguments[2]:null,r=arguments.length>3&&void 0!==arguments[3]?arguments[3]:null,i=arguments.length>4&&void 0!==arguments[4]?arguments[4]:null;return this.isIdentity||this.resetSelf(),t&&(t.x||t.y)&&this.translateSelf(t.x,t.y),e&&this.rotateSelf(e),n&&(n.x&&this.skewSelf(n.x,0),n.y&&this.skewSelf(0,n.y)),!r||1===r.x&&1===r.y||this.scaleSelf(r.x,r.y),i&&(i.x||i.y)&&this.translateSelf(i.x,i.y),this}},{key:"decompose",value:function(){var t=arguments.length>0&&void 0!==arguments[0]?arguments[0]:0,e=arguments.length>1&&void 0!==arguments[1]?arguments[1]:0,n=this.m,r=n[0]*n[0]+n[1]*n[1],i=[[n[0],n[1]],[n[2],n[3]]],o=N(r);if(0===o)return{origin:{x:p(n[4]),y:p(n[5])},translate:{x:p(t),y:p(e)},scale:{x:0,y:0},skew:{x:0,y:0},rotate:0};i[0][0]/=o,i[0][1]/=o;var u=n[0]*n[3]-n[1]*n[2]<0;u&&(o=-o);var a=i[0][0]*i[1][0]+i[0][1]*i[1][1];i[1][0]-=i[0][0]*a,i[1][1]-=i[0][1]*a;var l=N(i[1][0]*i[1][0]+i[1][1]*i[1][1]);if(0===l)return{origin:{x:p(n[4]),y:p(n[5])},translate:{x:p(t),y:p(e)},scale:{x:p(o),y:0},skew:{x:0,y:0},rotate:0};i[1][0]/=l,i[1][1]/=l,a/=l;var s=0;return i[1][1]<0?(s=j(i[1][1])*T,i[0][1]<0&&(s=360-s)):s=M(i[0][1])*T,u&&(s=-s),a=B(a,N(i[0][0]*i[0][0]+i[0][1]*i[0][1]))*T,u&&(a=-a),{origin:{x:p(n[4]),y:p(n[5])},translate:{x:p(t),y:p(e)},scale:{x:p(o),y:p(l)},skew:{x:p(a),y:0},rotate:p(s)}}},{key:"clone",value:function(){var t=this.m;return new this.constructor(t[0],t[1],t[2],t[3],t[4],t[5])}},{key:"toString",value:function(){var t=arguments.length>0&&void 0!==arguments[0]?arguments[0]:" ";if(null===this.s){var e=this.m.map((function(t){return p(t)}));1===e[0]&&0===e[1]&&0===e[2]&&1===e[3]?this.s="translate("+e[4]+t+e[5]+")":this.s="matrix("+e.join(t)+")"}return this.s}}],[{key:"create",value:function(t){return t?Array.isArray(t)?f(this,v(t)):t instanceof this?t.clone():(new this).recomposeSelf(t.origin,t.rotate,t.skew,t.scale,t.translate):new this}}]),t}();function F(t,e,n){return t>=.5?n:e}function D(t,e,n){return 0===t||e===n?e:t*(n-e)+e}function C(t,e,n){var r=D(t,e,n);return r<=0?0:r}function q(t,e,n){var r=D(t,e,n);return r<=0?0:r>=1?1:r}function L(t,e,n){return 0===t?e:1===t?n:{x:D(t,e.x,n.x),y:D(t,e.y,n.y)}}function V(t,e,n){return 0===t?e:1===t?n:{x:C(t,e.x,n.x),y:C(t,e.y,n.y)}}function G(t,e,n){var r=function(t,e,n){return Math.round(D(t,e,n))}(t,e,n);return r<=0?0:r>=255?255:r}function z(t,e,n){return 0===t?e:1===t?n:{r:G(t,e.r,n.r),g:G(t,e.g,n.g),b:G(t,e.b,n.b),a:D(t,null==e.a?1:e.a,null==n.a?1:n.a)}}function Y(t,e,n){var r=e.length;if(r!==n.length)return F(t,e,n);for(var i=new Array(r),o=0;o<r;o++)i[o]=D(t,e[o],n[o]);return i}function U(t,e){for(var n=[],r=0;r<t;r++)n.push(e);return n}function W(t,e){if(--e<=0)return t;var n=(t=Object.assign([],t)).length;do{for(var r=0;r<n;r++)t.push(t[r])}while(--e>0);return t}var $,H=function(){function t(e){r(this,t),this.list=e,this.length=e.length}return o(t,[{key:"setAttribute",value:function(t,e){for(var n=this.list,r=0;r<this.length;r++)n[r].setAttribute(t,e)}},{key:"removeAttribute",value:function(t){for(var e=this.list,n=0;n<this.length;n++)e[n].removeAttribute(t)}},{key:"style",value:function(t,e){for(var n=this.list,r=0;r<this.length;r++)n[r].style[t]=e}}]),t}(),Q=/-./g,X=function(t,e){return e.toUpperCase()};function J(t){return"function"==typeof t?t:F}function K(t){return t?"function"==typeof t?t:Array.isArray(t)?function(t){var e=arguments.length>1&&void 0!==arguments[1]?arguments[1]:w;if(!Array.isArray(t))return e;switch(t.length){case 1:return O(t[0])||e;case 2:return O(t[0],t[1])||e;case 4:return _(t[0],t[1],t[2],t[3])||e}return e}(t,null):function(t,e){var n=arguments.length>2&&void 0!==arguments[2]?arguments[2]:w;switch(t){case"linear":return w;case"steps":return O(e.steps||1,e.jump||0)||n;case"bezier":case"cubic-bezier":return _(e.x1||0,e.y1||0,e.x2||0,e.y2||0)||n}return n}(t.type,t.value,null):null}function Z(t,e,n){var r=arguments.length>3&&void 0!==arguments[3]&&arguments[3],i=e.length-1;if(t<=e[0].t)return r?[0,0,e[0].v]:e[0].v;if(t>=e[i].t)return r?[i,1,e[i].v]:e[i].v;var o,u=e[0],a=null;for(o=1;o<=i;o++){if(!(t>e[o].t)){a=e[o];break}u=e[o]}return null==a?r?[i,1,e[i].v]:e[i].v:u.t===a.t?r?[o,1,a.v]:a.v:(t=(t-u.t)/(a.t-u.t),u.e&&(t=u.e(t)),r?[o,t,n(t,u.v,a.v)]:n(t,u.v,a.v))}function tt(t,e){var n=arguments.length>2&&void 0!==arguments[2]?arguments[2]:null;return t&&t.length?"function"!=typeof e?null:("function"!=typeof n&&(n=null),function(r){var i=Z(r,t,e);return null!=i&&n&&(i=n(i)),i}):null}function et(t,e){return t.t-e.t}function nt(t,e,r,i,o){var u,a="@"===r[0],l="#"===r[0],s=$[r],f=F;switch(a?(u=r.substr(1),r=u.replace(Q,X)):l&&(r=r.substr(1)),n(s)){case"function":if(f=s(i,o,Z,K,r,a,e,t),l)return f;break;case"string":f=tt(i,J(s));break;case"object":if((f=tt(i,J(s.i),s.f))&&"function"==typeof s.u)return s.u(e,f,r,a,t)}return f?function(t,e,n){if(arguments.length>3&&void 0!==arguments[3]&&arguments[3])return t instanceof H?function(r){return t.style(e,n(r))}:function(r){return t.style[e]=n(r)};if(Array.isArray(e)){var r=e.length;return function(i){var o=n(i);if(null==o)for(var u=0;u<r;u++)t[u].removeAttribute(e);else for(var a=0;a<r;a++)t[a].setAttribute(e,o)}}return function(r){var i=n(r);null==i?t.removeAttribute(e):t.setAttribute(e,i)}}(e,r,f,a):null}function rt(t,e,r,i){if(!i||"object"!==n(i))return null;var o=null,u=null;return Array.isArray(i)?u=function(t){if(!t||!t.length)return null;for(var e=0;e<t.length;e++)t[e].e&&(t[e].e=K(t[e].e));return t.sort(et)}(i):(u=i.keys,o=i.data||null),u?nt(t,e,r,u,o):null}function it(t,e,n){if(!n)return null;var r=[];for(var i in n)if(n.hasOwnProperty(i)){var o=rt(t,e,i,n[i]);o&&r.push(o)}return r.length?r:null}function ot(t,e){if(!e.settings.duration||e.settings.duration<0)return null;var n,r,i,o,u,a=function(t,e){if(!e)return null;var n=[];if(Array.isArray(e))for(var r=e.length,i=0;i<r;i++){var o=e[i];if(2===o.length){var u=null;if("string"==typeof o[0])u=t.getElementById(o[0]);else if(Array.isArray(o[0])){u=[];for(var a=0;a<o[0].length;a++)if("string"==typeof o[0][a]){var l=t.getElementById(o[0][a]);l&&u.push(l)}u=u.length?1===u.length?u[0]:new H(u):null}if(u){var s=it(t,u,o[1]);s&&(n=n.concat(s))}}}else for(var f in e)if(e.hasOwnProperty(f)){var c=t.getElementById(f);if(c){var h=it(t,c,e[f]);h&&(n=n.concat(h))}}return n.length?n:null}(t,e.elements);return a?(n=a,r=e.settings,i=r.duration,o=n.length,u=null,function(t,e){var a=r.iterations||1/0,l=(r.alternate&&a%2==0)^r.direction>0?i:0,s=t%i,f=1+(t-s)/i;e*=r.direction,r.alternate&&f%2==0&&(e=-e);var c=!1;if(f>a)s=l,c=!0,-1===r.fill&&(s=r.direction>0?0:i);else if(e<0&&(s=i-s),s===u)return!1;u=s;for(var h=0;h<o;h++)n[h](s);return c}):null}function ut(t,e){for(var n=e.querySelectorAll("svg"),r=0;r<n.length;r++)if(n[r].id===t.root&&!n[r].svgatorAnimation)return n[r].svgatorAnimation=!0,n[r];return null}function at(t){var e=function(t){return t.shadowRoot};return document?Array.from(t.querySelectorAll(":not("+["a","area","audio","br","canvas","circle","datalist","embed","g","head","hr","iframe","img","input","link","object","path","polygon","rect","script","source","style","svg","title","track","video"].join()+")")).filter(e).map(e):[]}function lt(t){var e=arguments.length>1&&void 0!==arguments[1]?arguments[1]:document,n=arguments.length>2&&void 0!==arguments[2]?arguments[2]:0,r=ut(t,e);if(r)return r;if(n>=20)return null;for(var i=at(e),o=0;o<i.length;o++){var u=lt(t,i[o],n+1);if(u)return u}return null}function st(t,e){if($=e,!t||!t.root||!Array.isArray(t.animations))return null;var n=lt(t);if(!n)return null;var r=t.animations.map((function(t){return ot(n,t)})).filter((function(t){return!!t}));return r.length?{svg:n,animations:r,animationSettings:t.animationSettings,options:t.options||void 0}:null}function ft(t){var e=arguments.length>1&&void 0!==arguments[1]?arguments[1]:null,n=arguments.length>2&&void 0!==arguments[2]?arguments[2]:Number,r=arguments.length>3&&void 0!==arguments[3]?arguments[3]:"undefined"!=typeof BigInt&&BigInt,i="0x"+(t.replace(/[^0-9a-fA-F]+/g,"")||27);return e&&r&&n.isSafeInteger&&!n.isSafeInteger(+i)?n(r(i))%e+e:+i}function ct(t,e,n){return!t||!n||e>t.length?t:t.substring(0,e)+ct(t.substring(e+1),n,n)}function ht(t){var e=arguments.length>1&&void 0!==arguments[1]?arguments[1]:27;return!t||t%e?t%e:[0,1].includes(e)?e:ht(t/e,e)}function vt(t,e,n){if(t&&t.length){var r=ft(n),i=ht(r)+5,o=ct(t,ht(r,5),i);return o=o.replace(/\x7c$/g,"==").replace(/\x2f$/g,"="),o=function(t,e,n){var r=+("0x"+t.substring(0,4));t=t.substring(4);for(var i=ft(e,r)%r+n%27,o=[],u=0;u<t.length;u+=2)if("|"!==t[u]){var a=+("0x"+t[u]+t[u+1])-i;o.push(a)}else{var l=+("0x"+t.substring(u+1,u+1+4))-i;u+=3,o.push(l)}return String.fromCharCode.apply(String,o)}(o=(o=atob(o)).replace(/[\x41-\x5A]/g,""),e,r),o=JSON.parse(o)}}var dt=[{key:"alternate",def:!1},{key:"fill",def:1},{key:"iterations",def:0},{key:"direction",def:1},{key:"speed",def:1},{key:"fps",def:100}],yt=function(){function t(e,n){var i=this,o=arguments.length>2&&void 0!==arguments[2]?arguments[2]:null;r(this,t),this._id=0,this._running=!1,this._rollingBack=!1,this._animations=e,this._settings=n,(!o||o<"2022-05-02")&&delete this._settings.speed,dt.forEach((function(t){i._settings[t.key]=i._settings[t.key]||t.def})),this.duration=n.duration,this.offset=n.offset||0,this.rollbackStartOffset=0}return o(t,[{key:"alternate",get:function(){return this._settings.alternate}},{key:"fill",get:function(){return this._settings.fill}},{key:"iterations",get:function(){return this._settings.iterations}},{key:"direction",get:function(){return this._settings.direction}},{key:"speed",get:function(){return this._settings.speed}},{key:"fps",get:function(){return this._settings.fps}},{key:"maxFiniteDuration",get:function(){return this.iterations>0?this.iterations*this.duration:this.duration}},{key:"_apply",value:function(t){for(var e=arguments.length>1&&void 0!==arguments[1]?arguments[1]:{},n=this._animations,r=n.length,i=0,o=0;o<r;o++)e[o]?i++:(e[o]=n[o](t,1),e[o]&&i++);return i}},{key:"_rollback",value:function(t){var e=this,n=1/0,r=null;this.rollbackStartOffset=t,this._rollingBack=!0,this._running=!0;this._id=window.requestAnimationFrame((function i(o){if(e._rollingBack){null==r&&(r=o);var u=Math.round(t-(o-r)*e.speed);if(u>e.duration&&n!==1/0){var a=!!e.alternate&&u/e.duration%2>1,l=u%e.duration;u=(l+=a?e.duration:0)||e.duration}var s=(e.fps?1e3/e.fps:0)*e.speed,f=Math.max(0,u);f<=n-s&&(e.offset=f,n=f,e._apply(f));var c=e.iterations>0&&-1===e.fill&&u>=e.maxFiniteDuration;(u<=0||e.offset<u||c)&&e.stop(),e._id=window.requestAnimationFrame(i)}}))}},{key:"_start",value:function(){var t=this,e=arguments.length>0&&void 0!==arguments[0]?arguments[0]:0,n=-1/0,r=null,i={};this._running=!0;var o=function o(u){null==r&&(r=u);var a=Math.round((u-r)*t.speed+e),l=(t.fps?1e3/t.fps:0)*t.speed;if(a>=n+l&&!t._rollingBack&&(t.offset=a,n=a,t._apply(a,i)===t._animations.length))return void t.pause(!0);t._id=window.requestAnimationFrame(o)};this._id=window.requestAnimationFrame(o)}},{key:"_pause",value:function(){this._id&&window.cancelAnimationFrame(this._id),this._running=!1}},{key:"play",value:function(){if(!this._running)return this._rollingBack?this._rollback(this.offset):this._start(this.offset)}},{key:"stop",value:function(){this._pause(),this.offset=0,this.rollbackStartOffset=0,this._rollingBack=!1,this._apply(0)}},{key:"reachedToEnd",value:function(){return this.iterations>0&&this.offset>=this.iterations*this.duration}},{key:"restart",value:function(){var t=arguments.length>0&&void 0!==arguments[0]&&arguments[0];this.stop(t),this.play(t)}},{key:"pause",value:function(){this._pause()}},{key:"reverse",value:function(){this.direction=-this.direction}}],[{key:"build",value:function(t,e){delete t.animationSettings,t.options=vt(t.options,t.root,"91c80d77"),t.animations.map((function(e){e.settings=vt(e.s,t.root,"91c80d77"),delete e.s,t.animationSettings||(t.animationSettings=e.settings)}));var n=t.version;if(!(t=st(t,e)))return null;var r=t.options||{},i=new this(t.animations,t.animationSettings,n);return{el:t.svg,options:r,player:i}}},{key:"push",value:function(t){return this.build(t)}},{key:"init",value:function(){var t=this,e=window.__SVGATOR_PLAYER__&&window.__SVGATOR_PLAYER__["91c80d77"];Array.isArray(e)&&e.splice(0).forEach((function(e){return t.build(e)}))}}]),t}();!function(){for(var t=0,e=["ms","moz","webkit","o"],n=0;n<e.length&&!window.requestAnimationFrame;++n)window.requestAnimationFrame=window[e[n]+"RequestAnimationFrame"],window.cancelAnimationFrame=window[e[n]+"CancelAnimationFrame"]||window[e[n]+"CancelRequestAnimationFrame"];window.requestAnimationFrame||(window.requestAnimationFrame=function(e){var n=Date.now(),r=Math.max(0,16-(n-t)),i=window.setTimeout((function(){e(n+r)}),r);return t=n+r,i},window.cancelAnimationFrame=window.clearTimeout)}();var gt=function(){function t(e,n,i){r(this,t);var o=function(t){var e,n,r,i=t&&1===(null===(e=t.ownerDocument)||void 0===e||null===(n=e.childNodes)||void 0===n?void 0:n.length)&&window.parent!==window,o={el:t,window:window};if(!i)return o;try{r=window.parent.document}catch(t){return o}return o.window=window.parent,o.el=Array.from(r.querySelectorAll("iframe,object")).filter((function(t){return t.contentWindow===window}))[0]||o.el,o}(e);n=Math.max(1,n||1),n=Math.min(n,100),this.el=o.el,this._handlers=[],this.onThresholdChange=i&&i.call?i:function(){},this.thresholdPercent=n||1,this.currentVisibility=null,this.visibilityCalculator=function(t,e){var n=arguments.length>2&&void 0!==arguments[2]?arguments[2]:n,r=!1,i=null,o=function(){for(var o=0,u=n.innerHeight,a=0,l=n.innerWidth,s=t.parentNode;s instanceof Element;){var f=n.getComputedStyle(s);if("visible"!==f.overflowY||"visible"!==f.overflowX){var c=s.getBoundingClientRect();"visible"!==f.overflowY&&(o=Math.max(o,c.top),u=Math.min(u,c.bottom)),"visible"!==f.overflowX&&(a=Math.max(a,c.left),l=Math.min(l,c.right))}if(s===s.parentNode)break;s=s.parentNode}r=!1;var h=t.getBoundingClientRect(),v=Math.min(h.height,Math.max(0,o-h.top)),d=Math.min(h.height,Math.max(0,h.bottom-u)),y=Math.min(h.width,Math.max(0,a-h.left)),g=Math.min(h.width,Math.max(0,h.right-l)),p=(h.height-v-d)/h.height,m=(h.width-y-g)/h.width,b=Math.round(p*m*100);null!==i&&i===b||(i=b,e(b))};return function(t){r&&clearTimeout(r),r=setTimeout((function(){return o()}),100)}}(this.el,this.onVisibilityUpdate.bind(this),o.window),this.bindScrollWatchers(),this.visibilityCalculator()}return o(t,[{key:"bindScrollWatchers",value:function(){for(var t=this.el.parentNode;t&&(this._handlers.push({element:t,event:"scroll",handler:this.visibilityCalculator}),t.addEventListener("scroll",this.visibilityCalculator),t!==t.parentNode&&t!==document);)t=t.parentNode}},{key:"onVisibilityUpdate",value:function(t){var e=this.currentVisibility>=this.thresholdPercent,n=t>=this.thresholdPercent;if(null===this.currentVisibility||e!==n)return this.currentVisibility=t,void this.onThresholdChange(n);this.currentVisibility=t}},{key:"destruct",value:function(){this._handlers.forEach((function(t){t.element.removeEventListener(t.event,t.handler)}))}}]),t}();function pt(t){return p(t)+""}function mt(t){var e=arguments.length>1&&void 0!==arguments[1]?arguments[1]:" ";return t&&t.length?t.map(pt).join(e):""}function bt(t){return pt(t.x)+","+pt(t.y)}function wt(t){if(!t)return"transparent";if(null==t.a||t.a>=1){var e=function(t){return 1===(t=parseInt(t).toString(16)).length?"0"+t:t},n=function(t){return t.charAt(0)===t.charAt(1)},r=e(t.r),i=e(t.g),o=e(t.b);return n(r)&&n(i)&&n(o)&&(r=r.charAt(0),i=i.charAt(0),o=o.charAt(0)),"#"+r+i+o}return"rgba("+t.r+","+t.g+","+t.b+","+t.a+")"}function kt(t){return t?"url(#"+t+")":"none"}var _t={f:null,i:V,u:function(t,e){return function(n){var r=e(n);t.setAttribute("rx",pt(r.x)),t.setAttribute("ry",pt(r.y))}}},At={f:null,i:function(t,e,n){return 0===t?e:1===t?n:{width:C(t,e.width,n.width),height:C(t,e.height,n.height)}},u:function(t,e){return function(n){var r=e(n);t.setAttribute("width",pt(r.width)),t.setAttribute("height",pt(r.height))}}};Object.freeze({M:2,L:2,Z:0,H:1,V:1,C:6,Q:4,T:2,S:4,A:7});var xt={},Ot=null;function St(t){var e=function(){if(Ot)return Ot;if("object"!==("undefined"==typeof document?"undefined":n(document))||!document.createElementNS)return{};var t=document.createElementNS("http://www.w3.org/2000/svg","svg");return t&&t.style?(t.style.position="absolute",t.style.opacity="0.01",t.style.zIndex="-9999",t.style.left="-9999px",t.style.width="1px",t.style.height="1px",Ot={svg:t}):{}}().svg;if(!e)return function(t){return null};var r=document.createElementNS(e.namespaceURI,"path");r.setAttributeNS(null,"d",t),r.setAttributeNS(null,"fill","none"),r.setAttributeNS(null,"stroke","none"),e.appendChild(r);var i=r.getTotalLength();return function(t){var e=r.getPointAtLength(i*t);return{x:e.x,y:e.y}}}function Et(t){return xt[t]?xt[t]:xt[t]=St(t)}function jt(t,e,n,r){if(!t||!r)return!1;var i=["M",t.x,t.y];if(e&&n&&(i.push("C"),i.push(e.x),i.push(e.y),i.push(n.x),i.push(n.y)),e?!n:n){var o=e||n;i.push("Q"),i.push(o.x),i.push(o.y)}return e||n||i.push("L"),i.push(r.x),i.push(r.y),i.join(" ")}function Mt(t,e,n,r){var i=arguments.length>4&&void 0!==arguments[4]?arguments[4]:1,o=jt(t,e,n,r),u=Et(o);try{return u(i)}catch(t){return null}}function Pt(t,e,n){return t+(e-t)*n}function Bt(t,e,n){var r=arguments.length>3&&void 0!==arguments[3]&&arguments[3],i={x:Pt(t.x,e.x,n),y:Pt(t.y,e.y,n)};return r&&(i.a=It(t,e)),i}function It(t,e){return Math.atan2(e.y-t.y,e.x-t.x)}function Tt(t,e,n,r){var i=1-r;return i*i*t+2*i*r*e+r*r*n}function Nt(t,e,n,r){return 2*(1-r)*(e-t)+2*r*(n-e)}function Rt(t,e,n,r){var i=arguments.length>4&&void 0!==arguments[4]&&arguments[4],o=Mt(t,e,null,n,r);return o||(o={x:Tt(t.x,e.x,n.x,r),y:Tt(t.y,e.y,n.y,r)}),i&&(o.a=Ft(t,e,n,r)),o}function Ft(t,e,n,r){return Math.atan2(Nt(t.y,e.y,n.y,r),Nt(t.x,e.x,n.x,r))}function Dt(t,e,n,r,i){var o=i*i;return i*o*(r-t+3*(e-n))+3*o*(t+n-2*e)+3*i*(e-t)+t}function Ct(t,e,n,r,i){var o=1-i;return 3*(o*o*(e-t)+2*o*i*(n-e)+i*i*(r-n))}function qt(t,e,n,r,i){var o=arguments.length>5&&void 0!==arguments[5]&&arguments[5],u=Mt(t,e,n,r,i);return u||(u={x:Dt(t.x,e.x,n.x,r.x,i),y:Dt(t.y,e.y,n.y,r.y,i)}),o&&(u.a=Lt(t,e,n,r,i)),u}function Lt(t,e,n,r,i){return Math.atan2(Ct(t.y,e.y,n.y,r.y,i),Ct(t.x,e.x,n.x,r.x,i))}function Vt(t,e,n){var r=arguments.length>3&&void 0!==arguments[3]&&arguments[3];if(zt(e)){if(Yt(n))return Rt(e,n.start,n,t,r)}else if(zt(n)){if(Ut(e))return Rt(e,e.end,n,t,r)}else{if(Ut(e))return Yt(n)?qt(e,e.end,n.start,n,t,r):Rt(e,e.end,n,t,r);if(Yt(n))return Rt(e,n.start,n,t,r)}return Bt(e,n,t,r)}function Gt(t,e,n){var r=Vt(t,e,n,!0);return r.a=function(t){return arguments.length>1&&void 0!==arguments[1]&&arguments[1]?t+Math.PI:t}(r.a)/b,r}function zt(t){return!t.type||"corner"===t.type}function Yt(t){return null!=t.start&&!zt(t)}function Ut(t){return null!=t.end&&!zt(t)}var Wt=new R;var $t={f:function(t){return t?t.join(" "):""},i:function(t,e,r){if(0===t)return e;if(1===t)return r;var i=e.length;if(i!==r.length)return F(t,e,r);for(var o,u=new Array(i),a=0;a<i;a++){if((o=n(e[a]))!==n(r[a]))return F(t,e,r);if("number"===o)u[a]=D(t,e[a],r[a]);else{if(e[a]!==r[a])return F(t,e,r);u[a]=e[a]}}return u}},Ht={f:null,i:Y,u:function(t,e){return function(n){var r=e(n);t.setAttribute("x1",pt(r[0])),t.setAttribute("y1",pt(r[1])),t.setAttribute("x2",pt(r[2])),t.setAttribute("y2",pt(r[3]))}}},Qt={f:pt,i:D},Xt={f:pt,i:q},Jt={f:function(t){var e=arguments.length>1&&void 0!==arguments[1]?arguments[1]:" ";return t&&t.length>0&&(t=t.map((function(t){return p(t,4)}))),mt(t,e)},i:function(t,e,n){var r,i,o,u=e.length,a=n.length;if(u!==a)if(0===u)e=U(u=a,0);else if(0===a)a=u,n=U(u,0);else{var l=(o=(r=u)*(i=a)/function(t,e){for(var n;e;)n=e,e=t%e,t=n;return t||1}(r,i))<0?-o:o;e=W(e,Math.floor(l/u)),n=W(n,Math.floor(l/a)),u=a=l}for(var s=[],f=0;f<u;f++)s.push(p(C(t,e[f],n[f])));return s}};function Kt(t,e,n){return t.map((function(t){return function(t,e,n){var r=t.v;if(!r||"g"!==r.t||r.s||!r.v||!r.r)return t;var i=n.getElementById(r.r),o=i&&i.querySelectorAll("stop")||[];return r.s=r.v.map((function(t,e){var n=o[e]&&o[e].getAttribute("offset");return{c:t,o:n=p(parseInt(n)/100)}})),delete r.v,t}(t,0,n)}))}var Zt={gt:"gradientTransform",c:{x:"cx",y:"cy"},rd:"r",f:{x:"x1",y:"y1"},to:{x:"x2",y:"y2"}};function te(t,e,r,i,o,u,a,l){return Kt(t,0,l),e=function(t,e,n){for(var r,i,o,u=t.length-1,a={},l=0;l<=u;l++)(r=t[l]).e&&(r.e=e(r.e)),r.v&&"g"===(i=r.v).t&&i.r&&(o=n.getElementById(i.r))&&(a[i.r]={e:o,s:o.querySelectorAll("stop")});return a}(t,i,l),function(i){var o=r(i,t,ee);if(!o)return"none";if("c"===o.t)return wt(o.v);if("g"===o.t){if(!e[o.r])return kt(o.r);var u=e[o.r];return function(t,e){for(var n=t.s,r=n.length;r<e.length;r++){var i=n[n.length-1].cloneNode();i.id=ie(i.id),t.e.appendChild(i),n=t.s=t.e.querySelectorAll("stop")}for(var o=0,u=n.length,a=e.length-1;o<u;o++)n[o].setAttribute("stop-color",wt(e[Math.min(o,a)].c)),n[o].setAttribute("offset",e[Math.min(o,a)].o)}(u,o.s),Object.keys(Zt).forEach((function(t){if(void 0!==o[t])if("object"!==n(Zt[t])){var e,r="gt"===t?(e=o[t],Array.isArray(e)?"matrix("+e.join(" ")+")":""):o[t],i=Zt[t];u.e.setAttribute(i,r)}else Object.keys(Zt[t]).forEach((function(e){if(void 0!==o[t][e]){var n=o[t][e],r=Zt[t][e];u.e.setAttribute(r,n)}}))})),kt(o.r)}return"none"}}function ee(t,n,r){if(0===t)return n;if(1===t)return r;if(n&&r){var i=n.t;if(i===r.t)switch(n.t){case"c":return{t:i,v:z(t,n.v,r.v)};case"g":if(n.r===r.r){var o={t:i,s:ne(t,n.s,r.s),r:n.r};return n.gt&&r.gt&&(o.gt=Y(t,n.gt,r.gt)),n.c?(o.c=L(t,n.c,r.c),o.rd=C(t,n.rd,r.rd)):n.f&&(o.f=L(t,n.f,r.f),o.to=L(t,n.to,r.to)),o}}if("c"===n.t&&"g"===r.t||"c"===r.t&&"g"===n.t){var u="c"===n.t?n:r,a="g"===n.t?e({},n):e({},r),l=a.s.map((function(t){return{c:u.v,o:t.o}}));return a.s="c"===n.t?ne(t,l,a.s):ne(t,a.s,l),a}}return F(t,n,r)}function ne(t,e,n){if(e.length===n.length)return e.map((function(e,r){return re(t,e,n[r])}));for(var r=Math.max(e.length,n.length),i=[],o=0;o<r;o++){var u=re(t,e[Math.min(o,e.length-1)],n[Math.min(o,n.length-1)]);i.push(u)}return i}function re(t,e,n){return{o:q(t,e.o,n.o||0),c:z(t,e.c,n.c||{})}}function ie(t){return t.replace(/-fill-([0-9]+)$/,(function(t,e){return"-fill-"+(+e+1)}))}function oe(t,e,n){return 0===t?e:1===t?n:{blur:V(t,e.blur,n.blur),offset:L(t,e.offset,n.offset),color:z(t,e.color,n.color)}}var ue={blur:V,brightness:C,contrast:C,"drop-shadow":oe,"inner-shadow":oe,grayscale:C,"hue-rotate":D,invert:C,opacity:C,saturate:C,sepia:C};function ae(t,e,n){if(0===t)return e;if(1===t)return n;var r=e.length;if(r!==n.length)return F(t,e,n);for(var i,o=[],u=0;u<r;u++){if(e[u].type!==n[u].type)return e;if(!(i=ue[e[u].type]))return F(t,e,n);o.push({type:e.type,value:i(t,e[u].value,n[u].value)})}return o}var le={blur:function(t){return t?function(e){t.setAttribute("stdDeviation",bt(e))}:null},brightness:function(t,e,n){return(t=fe(n,e))?function(e){e=pt(e),t.map((function(t){return t.setAttribute("slope",e)}))}:null},contrast:function(t,e,n){return(t=fe(n,e))?function(e){var n=pt((1-e)/2);e=pt(e),t.map((function(t){t.setAttribute("slope",e),t.setAttribute("intercept",n)}))}:null},"drop-shadow":function(t,e,n){var r=n.getElementById(e+"-blur");if(!r)return null;var i=n.getElementById(e+"-offset");if(!i)return null;var o=n.getElementById(e+"-flood");return o?function(t){r.setAttribute("stdDeviation",bt(t.blur)),i.setAttribute("dx",pt(t.offset.x)),i.setAttribute("dy",pt(t.offset.y)),o.setAttribute("flood-color",wt(t.color))}:null},"inner-shadow":function(t,e,n){var r=n.getElementById(e+"-blur");if(!r)return null;var i=n.getElementById(e+"-offset");if(!i)return null;var o=n.getElementById(e+"-color-matrix");return o?function(t){r.setAttribute("stdDeviation",bt(t.blur)),i.setAttribute("dx",pt(t.offset.x)),i.setAttribute("dy",pt(t.offset.y));var e=[0,0,0,0,t.color.r/255,0,0,0,0,t.color.g/255,0,0,0,0,t.color.b/255,0,0,0,t.color.a,0];o.setAttribute("values",mt(e))}:null},grayscale:function(t){return t?function(e){t.setAttribute("values",mt(function(t){return[.2126+.7874*(t=1-t),.7152-.7152*t,.0722-.0722*t,0,0,.2126-.2126*t,.7152+.2848*t,.0722-.0722*t,0,0,.2126-.2126*t,.7152-.7152*t,.0722+.9278*t,0,0,0,0,0,1,0]}(e)))}:null},"hue-rotate":function(t){return t?function(e){return t.setAttribute("values",pt(e))}:null},invert:function(t,e,n){return(t=fe(n,e))?function(e){e=pt(e)+" "+pt(1-e),t.map((function(t){return t.setAttribute("tableValues",e)}))}:null},opacity:function(t,e,n){return(t=n.getElementById(e+"-A"))?function(e){return t.setAttribute("tableValues","0 "+pt(e))}:null},saturate:function(t){return t?function(e){return t.setAttribute("values",pt(e))}:null},sepia:function(t){return t?function(e){return t.setAttribute("values",mt(function(t){return[.393+.607*(t=1-t),.769-.769*t,.189-.189*t,0,0,.349-.349*t,.686+.314*t,.168-.168*t,0,0,.272-.272*t,.534-.534*t,.131+.869*t,0,0,0,0,0,1,0]}(e)))}:null}};var se=["R","G","B"];function fe(t,e){var n=se.map((function(n){return t.getElementById(e+"-"+n)||null}));return-1!==n.indexOf(null)?null:n}var ce={fill:te,"fill-opacity":Xt,stroke:te,"stroke-opacity":Xt,"stroke-width":Qt,"stroke-dashoffset":{f:pt,i:D},"stroke-dasharray":Jt,opacity:Xt,transform:function(t,e,r,i){if(!(t=function(t,e){if(!t||"object"!==n(t))return null;var r=!1;for(var i in t)t.hasOwnProperty(i)&&(t[i]&&t[i].length?(t[i].forEach((function(t){t.e&&(t.e=e(t.e))})),r=!0):delete t[i]);return r?t:null}(t,i)))return null;var o=function(n,i,o){var u=arguments.length>3&&void 0!==arguments[3]?arguments[3]:null;return t[n]?r(i,t[n],o):e&&e[n]?e[n]:u};return e&&e.a&&t.o?function(e){var n=r(e,t.o,Gt);return Wt.recomposeSelf(n,o("r",e,D,0)+n.a,o("k",e,L),o("s",e,L),o("t",e,L)).toString()}:function(t){return Wt.recomposeSelf(o("o",t,Vt,null),o("r",t,D,0),o("k",t,L),o("s",t,L),o("t",t,L)).toString()}},"#filter":function(t,e,n,r,i,o,u,a){if(!e.items||!t||!t.length)return null;var l=function(t,e){var n=(t=t.map((function(t){return t&&le[t[0]]?(e.getElementById(t[1]),le[t[0]](e.getElementById(t[1]),t[1],e)):null}))).length;return function(e){for(var r=0;r<n;r++)t[r]&&t[r](e[r].value)}}(e.items,a);return l?(t=function(t,e){return t.map((function(t){return t.e=e(t.e),t}))}(t,r),function(e){l(n(e,t,ae))}):null},"#line":Ht,points:{f:mt,i:Y},d:$t,r:Qt,"#size":At,"#radius":_t,_:function(t,e){if(Array.isArray(t))for(var n=0;n<t.length;n++)this[t[n]]=e;else this[t]=e}},he={currentTime:"offset",duration:"duration",hasEnded:function(){return this.reachedToEnd()},isAlternate:"alternate",isPlaying:"_running",isRollingBack:"_rollingBack",state:function(t,e){return e.isPlaying?e.isRollingBack?"rollback":"playing":e.hasEnded?"ended":"paused"},totalTime:"maxFiniteDuration",iterations:"iterations",direction:"direction",fill:"fill",isReversed:function(t,e){return-1===e.direction},isBackwards:function(t,e){return-1===e.fill},isInfinite:function(t,e){return 0===e.iterations},speed:"speed",fps:"fps"},ve={destruct:"destruct",pause:"pause",play:function(t,e){return de(t,e.hasEnded?"restart":"play",e)},restart:"restart",reverse:function(t,e){return de(t,"reverse",e,[!0])},seek:"seek",seekBy:"seekBy",seekTo:"seekTo",stop:"stop",toggle:"toggle",togglePlay:"toggle",set:"set"};function de(t,e,n){var r=arguments.length>3&&void 0!==arguments[3]?arguments[3]:[];return function(){var i,o=Array.prototype.slice.call(arguments);return o.unshift.apply(o,v(r)),(i=t[e]).call.apply(i,[t].concat(v(o))),n}}var ye=function t(e){r(this,t);var n={},i=["on","off"],o={get:function(t,e,r){return he[e]?"function"==typeof he[e]?he[e].call(t,t,r):t[he[e]]:ve[e]?"function"==typeof ve[e]?ve[e].call(t,t,r):de(t,ve[e],r):-1!==i.indexOf(e)?n[e]:"ready"===e?function(t){return t&&t.call(r,r),r}:void 0},set:function(t,e,r){return-1!==i.indexOf(e)&&(n[e]=r)},ownKeys:function(t){return Object.keys(he)},has:function(t,e){return void 0!==he[e]}};if("function"==typeof Proxy)return new Proxy(e,o);var u=Object.keys(he).concat(Object.keys(ve)).concat(i),a={};return u.forEach((function(t){var n={enumerable:!1,configurable:!1,get:function(){return o.get(e,t,a)}};-1!==i.indexOf(t)&&(n.set=function(n){return o.set(e,t,n)}),Object.defineProperty(a,t,n)})),a};function ge(t){t||(t=this);var e={};this.on=function(t,n){var r=arguments.length>2&&void 0!==arguments[2]&&arguments[2];return"function"==typeof n&&(t.split(/[, ]+/g).forEach((function(t){return e[t]=e[t]||[],r?e[t].unshift(n):e[t].push(n)})),!0)},this.off=function(t,n){for(var r in e)if(e.hasOwnProperty(r)&&r.substr(0,t.length)===t)if(n)for(var i=0;i<e[r].length;i++)e[r][i]===n&&(e[r][i]=null);else e[r]=null},this.trigger=function(){var n,r=Array.prototype.slice.call(arguments),i=r[0],o=r.slice(1);t:for(var u in e)if(e.hasOwnProperty(u)&&e[u]&&(u===i||u.substr(0,i.length+1)===i+"."))for(var a=0;a<(e[u]||[]).length;a++)if(e[u][a]&&!1===(n=e[u][a].apply(t,o)))break t;return n}}var pe=!0,me=["iterations","speed","fps","direction","fill","alternate"],be=function(t){!function(t,e){if("function"!=typeof e&&null!==e)throw new TypeError("Super expression must either be null or a function");t.prototype=Object.create(e&&e.prototype,{constructor:{value:t,writable:!0,configurable:!0}}),e&&l(t,e)}(u,t);var e,n,i=(e=u,n=s(),function(){var t,r=a(e);if(n){var i=a(this).constructor;t=Reflect.construct(r,arguments,i)}else t=r.apply(this,arguments);return c(this,t)});function u(t,e){var n,o=arguments.length>2&&void 0!==arguments[2]?arguments[2]:null;return r(this,u),(n=i.call(this,t,e,o))._handlers=[],n}return o(u,[{key:"_adjustOffset",value:function(){var t=arguments.length>0&&void 0!==arguments[0]&&arguments[0],e=this.alternate?2*this.duration:this.duration;if(t){if(!this._rollingBack&&0===this.offset)return void(this.offset=e);this._rollingBack&&(this.offset,this.maxFiniteDuration)}!this._rollingBack||this.rollbackStartOffset<=this.duration?0!==this.iterations&&(this.offset=Math.min(this.offset,this.maxFiniteDuration)):(this.offset=this.rollbackStartOffset-(this.rollbackStartOffset-this.offset)%e,this.rollbackStartOffset=0)}},{key:"reverse",value:function(){var t=arguments.length>0&&void 0!==arguments[0]&&arguments[0];if(!this._running)return this._adjustOffset(t),this._rollingBack=!this._rollingBack,t&&this.play(!1),void this.trigger("reverse",this.offset);this.pause(!1,!1),this._adjustOffset(),this._rollingBack=!this._rollingBack,this.play(!1),this.trigger("reverse",this.offset)}},{key:"play",value:function(){var t=arguments.length>0&&void 0!==arguments[0]?arguments[0]:pe,e=h(a(u.prototype),"play",this).call(this);return t===pe&&this.trigger("play",this.offset),e}},{key:"pause",value:function(){var t=arguments.length>0&&void 0!==arguments[0]&&arguments[0],e=arguments.length>1&&void 0!==arguments[1]?arguments[1]:pe,n=h(a(u.prototype),"pause",this).call(this);return e===pe&&this.trigger(t?"end":"pause",this.offset),n}},{key:"restart",value:function(){var t=h(a(u.prototype),"restart",this).call(this,!1);return this.trigger("restart",this.offset),t}},{key:"stop",value:function(){var t=arguments.length>0&&void 0!==arguments[0]?arguments[0]:pe,e=h(a(u.prototype),"stop",this).call(this);return t===pe&&this.trigger("stop",this.offset),e}},{key:"_apply",value:function(t){var e=this,n=arguments.length>2&&void 0!==arguments[2]?arguments[2]:pe,r=h(a(u.prototype),"_apply",this).call(this,t);if(n===pe){var i=function(){return e.trigger("keyframe",t)};window.requestAnimationFrame(i)}return r}},{key:"seekTo",value:function(t){var e,n,r,i=this._running;i&&this.pause(!1,!1),this.offset=this.iterations>0?(e=t,n=0,r=this.maxFiniteDuration,e<n?n:e>r?r:e):Math.max(t,0),this._apply(this.offset),i&&this.play(!1)}},{key:"seek",value:function(t){return this.seekTo(Math.round(t/100*this.maxFiniteDuration))}},{key:"seekBy",value:function(t){return this.seekTo(this.offset+t)}},{key:"toggle",value:function(){return this._running?this.pause():this.reachedToEnd()?this.restart():this.play()}},{key:"set",value:function(t,e){if(me.includes(t)){var n=this._running;n&&this.pause(!1,!1),this._settings[t]=e,n?this.play(!1):this._apply(this.offset,{},!1)}}},{key:"destruct",value:function(){var t=this;this.stop(),this._handlers.forEach((function(t){t.element?t.element.removeEventListener(t.event,t.handler):t.callback&&t.callback.call&&t.callback.call()}));var e=function(){},n=Object.getOwnPropertyNames(Object.getPrototypeOf(this));n.push.apply(n,v(Object.getOwnPropertyNames(this))),n.forEach((function(n){"function"==typeof t[n]?t[n]=e:delete t[n]}))}}],[{key:"build",value:function(t){var e=h(a(u),"build",this).call(this,t,ce);if(!e)return null;var n=e.el,r=e.options,i=e.player,o=new ye(i),l=new ge(o);o.on=l.on,o.off=l.off,i.trigger=l.trigger;var s=n.svgatorPlayer&&n.svgatorPlayer.ready&&n.svgatorPlayer.ready.call&&n.svgatorPlayer.ready.call();n.svgatorPlayer=o,function(t){var e,n,r=t&&1===(null===(e=t.ownerDocument)||void 0===e||null===(n=e.childNodes)||void 0===n?void 0:n.length)&&window.parent!==window,i=null==t?void 0:t.firstElementChild;if(!r||!i||"a"!==i.tagName||i.getAttribute("target"))return;i.setAttributeNS(null,"target","_parent")}(n),function(t,e,n){if("click"===n.start){var r=function(){switch(n.click){case"freeze":return!t._running&&t.reachedToEnd()?t.restart():t.toggle();case"restart":return t.offset>0?t.restart():t.play();case"reverse":return t._running?t.reverse():t.reachedToEnd()?1===t.fill?t.reverse(!0):t.restart():t.play();case"none":default:if(t._running)return;return t.reachedToEnd()?t.restart():t.play()}};return t._handlers.push({element:e,event:"click",handler:r}),void e.addEventListener("click",r)}if("hover"===n.start){var i=function(){return t.reachedToEnd()?t.restart():t._rollingBack?t.reverse():t.play()};t._handlers.push({element:e,event:"mouseenter",handler:i}),e.addEventListener("mouseenter",i);var o=function(){switch(n.hover){case"freeze":return t.pause();case"reset":return t.stop();case"reverse":if(t.reverse(),t._running)return;return t.play();case"none":default:return}};return t._handlers.push({element:e,event:"mouseleave",handler:o}),void e.addEventListener("mouseleave",o)}if("scroll"===n.start){var u=new gt(e,n.scroll||25,(function(e){e?t.reachedToEnd()?t.restart():t.play():t.pause()}));return void t._handlers.push({callback:function(){return u.destruct()}})}if("programmatic"===n.start)return;t.play()}(i,n,r),function(t,e,n){var r;"function"==typeof Event?r=new Event("ready"):(r=document.createEvent("Event")).initEvent("ready",!0,!0);if(t.dispatchEvent(r),!n||!n.length)return;n.forEach((function(t){return e.ready(t)}))}(n,n.svgatorPlayer,s)}}]),u}(yt);return be.init(),be}));
(function(s,i,o,w,d,a,b){(a=Array.from(d.querySelectorAll('svg#' + i.root)).filter(n=> !n.svgatorPlayer)[0]||{}).svgatorPlayer={ready:(function(a){b=[];return function(c){return c?(b.push(c),a.svgatorPlayer):b}})(a)};w[o]=w[o]||{};w[o][s]=w[o][s]||[];w[o][s].push(i);})('91c80d77',{"root":"eehwRDUXFpZ1","version":"2022-05-04","animations":[{"elements":{"eehwRDUXFpZ24":{"opacity":[{"t":400,"v":1},{"t":700,"v":0},{"t":2100,"v":0},{"t":2500,"v":1}]},"eehwRDUXFpZ32":{"opacity":[{"t":980,"v":1},{"t":1500,"v":1},{"t":2700,"v":0}]},"eehwRDUXFpZ50":{"opacity":[{"t":1400,"v":1},{"t":2500,"v":0},{"t":2700,"v":1}]},"eehwRDUXFpZ79":{"opacity":[{"t":1100,"v":0},{"t":1500,"v":0},{"t":2700,"v":1},{"t":3000,"v":1}]},"eehwRDUXFpZ84":{"opacity":[{"t":400,"v":0},{"t":700,"v":1},{"t":2100,"v":1},{"t":2500,"v":0}]},"eehwRDUXFpZ95":{"opacity":[{"t":900,"v":0},{"t":1200,"v":1},{"t":2500,"v":1},{"t":2700,"v":0}]}},"s":"MDEA1ZGJhNjFhMK2I0YjFhMGIzUYThhZWFkNjEH3OTcyNmY2ZjXZmNmI2MWEzYUThiMWE0YTJiNM0hhOGFlYWQY2MTc5NzBSNmSI2MWE4SWIzQK2E0YjFhMGIzGQmE4YWVhZGIEyNjE3OTZmNmSJINjFhNWE4YNWJhYjYxVzc5DNzA2YjYxYTBYhYmIzYTRiMWYFkYTBRYjNhNBDYxNzlhNWEwMYWJiMmE0NmIQ2MWIyYWZhNESdWYTRhMzYxNSzk3MDZiNjFhSNWFmYjI2MUUH3OTcwTDZmNmNZiYw|"}],"options":"MDYAxMDgyRjI5NJ2E3YjY4Nzk3YYkMyOVQ0MTIC5NzNYNzY2ODSZiMjk4NA|"},'__SVGATOR_PLAYER__',window,document)
]]></script>
</svg>
