<svg width="532" height="221" viewBox="0 0 532 221" fill="none" xmlns="http://www.w3.org/2000/svg">
<path d="M-2.75636 91.113L3.26557 92.1149C9.2875 93.1168 21.3314 95.1206 33.1495 90.6677C44.9677 86.2147 56.5602 75.3051 68.387 71.0994C80.2138 66.8938 92.2749 69.3921 104.046 63.5969C115.817 57.8018 127.299 43.7131 139.032 36.8185C150.764 29.9239 162.749 30.2234 174.989 37.8522C187.23 45.481 199.726 60.4392 212.06 70.7419C224.394 81.0446 236.565 86.6919 248.523 86.2207C260.48 85.7495 272.224 79.1599 283.871 69.8097C295.518 60.4596 307.068 48.3489 318.921 44.8865C330.774 41.4242 342.929 46.6101 355.149 53.6733C367.37 60.7366 379.657 69.6771 391.659 70.4829C403.66 71.2888 415.378 63.9599 427.254 61.1533C439.13 58.3467 451.163 60.0623 463.041 57.3214C474.919 54.5805 486.642 47.3832 498.474 43.3367C510.306 39.2902 522.249 38.3945 528.22 37.9467L534.191 37.4989" stroke="url(#paint0_linear_592_125)"/>
<path d="M-57.6511 52.1162L-50.5257 55.1177C-43.4004 58.1192 -29.1498 64.1222 -13.3551 63.8517C2.43959 63.5813 19.7783 57.0374 35.5138 57.0072C51.2494 56.977 65.3818 63.4605 81.4974 61.8859C97.613 60.3113 115.712 50.6786 132.091 48.0358C148.469 45.393 163.127 49.7401 176.033 61.2085C188.938 72.6768 200.091 91.2665 212.357 105.333C224.623 119.399 238.003 128.942 252.845 132.541C267.688 136.139 283.993 133.792 300.959 128.764C317.925 123.735 335.551 116.024 351.109 116.716C366.666 117.408 380.156 126.503 393.197 137.422C406.238 148.341 418.829 161.084 433.367 165.923C447.904 170.762 464.386 167.697 479.787 169.026C495.188 170.355 509.508 176.078 524.893 177.471C540.278 178.864 556.729 175.927 572.427 176.052C588.124 176.176 603.068 179.362 610.54 180.955L618.012 182.548" stroke="url(#paint1_linear_592_125)"/>
<defs>
<linearGradient id="paint0_linear_592_125" x1="209.583" y1="-74.3157" x2="-17.7824" y2="139.712" gradientUnits="userSpaceOnUse">
<stop stop-color="#1DBDD3"/>
<stop offset="1" stop-color="#1DBDD3" stop-opacity="0"/>
</linearGradient>
<linearGradient id="paint1_linear_592_125" x1="288.846" y1="82.123" x2="275.09" y2="138.016" gradientUnits="userSpaceOnUse">
<stop stop-color="#FF7800"/>
<stop offset="1" stop-color="#FF7800" stop-opacity="0"/>
</linearGradient>
</defs>
</svg>
