<svg width="354" height="223" viewBox="0 0 354 223" fill="none" xmlns="http://www.w3.org/2000/svg">
<g clip-path="url(#clip0_430_647)">
<rect x="0.879395" width="353" height="223" rx="10" fill="url(#paint0_radial_430_647)"/>
<g filter="url(#filter0_d_430_647)">
<path d="M16.8794 26C16.8794 20.4772 21.3565 16 26.8794 16H327.879C333.402 16 337.879 20.4772 337.879 26V223H16.8794V26Z" fill="white" shape-rendering="crispEdges"/>
<path d="M38.8714 49.24C37.7194 49.24 36.7327 48.9893 35.9114 48.488C35.0901 47.9813 34.4581 47.2773 34.0154 46.376C33.5781 45.4747 33.3594 44.4293 33.3594 43.24C33.3594 42.0507 33.5781 41.0053 34.0154 40.104C34.4581 39.2027 35.0901 38.5013 35.9114 38C36.7327 37.4933 37.7194 37.24 38.8714 37.24C40.1994 37.24 41.3061 37.5733 42.1914 38.24C43.0767 38.9013 43.6981 39.7947 44.0554 40.92L42.1114 41.456C41.8874 40.704 41.5061 40.1173 40.9674 39.696C40.4287 39.2693 39.7301 39.056 38.8714 39.056C38.0981 39.056 37.4527 39.2293 36.9354 39.576C36.4234 39.9227 36.0367 40.4107 35.7754 41.04C35.5194 41.664 35.3887 42.3973 35.3834 43.24C35.3834 44.0827 35.5114 44.8187 35.7674 45.448C36.0287 46.072 36.4181 46.5573 36.9354 46.904C37.4527 47.2507 38.0981 47.424 38.8714 47.424C39.7301 47.424 40.4287 47.2107 40.9674 46.784C41.5061 46.3573 41.8874 45.7707 42.1114 45.024L44.0554 45.56C43.6981 46.6853 43.0767 47.5813 42.1914 48.248C41.3061 48.9093 40.1994 49.24 38.8714 49.24ZM48.2279 49.24C47.6039 49.24 47.0759 49.1227 46.6439 48.888C46.2119 48.648 45.8839 48.3307 45.6599 47.936C45.4412 47.5413 45.3319 47.1067 45.3319 46.632C45.3319 46.216 45.4012 45.8427 45.5399 45.512C45.6786 45.176 45.8919 44.888 46.1799 44.648C46.4679 44.4027 46.8412 44.2027 47.2999 44.048C47.6466 43.936 48.0519 43.8347 48.5159 43.744C48.9852 43.6533 49.4919 43.5707 50.0359 43.496C50.5852 43.416 51.1586 43.3307 51.7559 43.24L51.0679 43.632C51.0732 43.0347 50.9399 42.5947 50.6679 42.312C50.3959 42.0293 49.9372 41.888 49.2919 41.888C48.9026 41.888 48.5266 41.9787 48.1639 42.16C47.8012 42.3413 47.5479 42.6533 47.4039 43.096L45.6439 42.544C45.8572 41.8133 46.2626 41.2267 46.8599 40.784C47.4626 40.3413 48.2732 40.12 49.2919 40.12C50.0599 40.12 50.7346 40.2453 51.3159 40.496C51.9026 40.7467 52.3372 41.1573 52.6199 41.728C52.7746 42.032 52.8679 42.344 52.8999 42.664C52.9319 42.9787 52.9479 43.3227 52.9479 43.696V49H51.2599V47.128L51.5399 47.432C51.1506 48.056 50.6946 48.5147 50.1719 48.808C49.6546 49.096 49.0066 49.24 48.2279 49.24ZM48.6119 47.704C49.0492 47.704 49.4226 47.6267 49.7319 47.472C50.0412 47.3173 50.2866 47.128 50.4679 46.904C50.6546 46.68 50.7799 46.4693 50.8439 46.272C50.9452 46.0267 51.0012 45.7467 51.0119 45.432C51.0279 45.112 51.0359 44.8533 51.0359 44.656L51.6279 44.832C51.0466 44.9227 50.5479 45.0027 50.1319 45.072C49.7159 45.1413 49.3586 45.208 49.0599 45.272C48.7612 45.3307 48.4972 45.3973 48.2679 45.472C48.0439 45.552 47.8546 45.6453 47.6999 45.752C47.5452 45.8587 47.4252 45.9813 47.3399 46.12C47.2599 46.2587 47.2199 46.4213 47.2199 46.608C47.2199 46.8213 47.2732 47.0107 47.3799 47.176C47.4866 47.336 47.6412 47.464 47.8439 47.56C48.0519 47.656 48.3079 47.704 48.6119 47.704ZM58.3666 49.24C57.3 49.24 56.4333 49 55.7666 48.52C55.1 48.04 54.6946 47.3653 54.5506 46.496L56.5186 46.192C56.62 46.6187 56.844 46.9547 57.1906 47.2C57.5373 47.4453 57.9746 47.568 58.5026 47.568C58.9666 47.568 59.324 47.4773 59.5746 47.296C59.8306 47.1093 59.9586 46.856 59.9586 46.536C59.9586 46.3387 59.9106 46.1813 59.8146 46.064C59.724 45.9413 59.5213 45.824 59.2066 45.712C58.892 45.6 58.4093 45.4587 57.7586 45.288C57.0333 45.096 56.4573 44.8907 56.0306 44.672C55.604 44.448 55.2973 44.184 55.1106 43.88C54.924 43.576 54.8306 43.208 54.8306 42.776C54.8306 42.2373 54.972 41.768 55.2546 41.368C55.5373 40.968 55.932 40.6613 56.4386 40.448C56.9453 40.2293 57.5426 40.12 58.2306 40.12C58.9026 40.12 59.4973 40.224 60.0146 40.432C60.5373 40.64 60.9586 40.936 61.2786 41.32C61.5986 41.704 61.796 42.1547 61.8706 42.672L59.9026 43.024C59.8546 42.656 59.6866 42.3653 59.3986 42.152C59.116 41.9387 58.7373 41.8187 58.2626 41.792C57.8093 41.7653 57.444 41.8347 57.1666 42C56.8893 42.16 56.7506 42.3867 56.7506 42.68C56.7506 42.8453 56.8066 42.9867 56.9186 43.104C57.0306 43.2213 57.2546 43.3387 57.5906 43.456C57.932 43.5733 58.4386 43.7173 59.1106 43.888C59.7986 44.064 60.348 44.2667 60.7586 44.496C61.1746 44.72 61.4733 44.9893 61.6546 45.304C61.8413 45.6187 61.9346 46 61.9346 46.448C61.9346 47.3173 61.6173 48 60.9826 48.496C60.3533 48.992 59.4813 49.24 58.3666 49.24ZM69.6629 49V44.84C69.6629 44.568 69.6442 44.2667 69.6069 43.936C69.5696 43.6053 69.4816 43.288 69.3429 42.984C69.2096 42.6747 69.0069 42.4213 68.7349 42.224C68.4682 42.0267 68.1056 41.928 67.6469 41.928C67.4016 41.928 67.1589 41.968 66.9189 42.048C66.6789 42.128 66.4602 42.2667 66.2629 42.464C66.0709 42.656 65.9162 42.9227 65.7989 43.264C65.6816 43.6 65.6229 44.032 65.6229 44.56L64.4789 44.072C64.4789 43.336 64.6202 42.6693 64.9029 42.072C65.1909 41.4747 65.6122 41 66.1669 40.648C66.7216 40.2907 67.4042 40.112 68.2149 40.112C68.8549 40.112 69.3829 40.2187 69.7989 40.432C70.2149 40.6453 70.5456 40.9173 70.7909 41.248C71.0362 41.5787 71.2176 41.9307 71.3349 42.304C71.4522 42.6773 71.5269 43.032 71.5589 43.368C71.5962 43.6987 71.6149 43.968 71.6149 44.176V49H69.6629ZM63.6709 49V37.48H65.3909V43.544H65.6229V49H63.6709ZM76.9056 49V37.48H83.8416V39.408H78.8336V42.28H82.8816V44.2H78.8336V49H76.9056ZM85.4406 49V37.24H87.3686V49H85.4406ZM93.581 49.24C92.717 49.24 91.9624 49.0453 91.317 48.656C90.6717 48.2667 90.1704 47.7307 89.813 47.048C89.461 46.36 89.285 45.5707 89.285 44.68C89.285 43.7733 89.4664 42.9787 89.829 42.296C90.1917 41.6133 90.6957 41.08 91.341 40.696C91.9864 40.312 92.733 40.12 93.581 40.12C94.4504 40.12 95.2077 40.3147 95.853 40.704C96.4984 41.0933 96.9997 41.632 97.357 42.32C97.7144 43.0027 97.893 43.7893 97.893 44.68C97.893 45.576 97.7117 46.368 97.349 47.056C96.9917 47.7387 96.4904 48.2747 95.845 48.664C95.1997 49.048 94.445 49.24 93.581 49.24ZM93.581 47.432C94.349 47.432 94.9197 47.176 95.293 46.664C95.6664 46.152 95.853 45.4907 95.853 44.68C95.853 43.8427 95.6637 43.176 95.285 42.68C94.9064 42.1787 94.3384 41.928 93.581 41.928C93.0637 41.928 92.637 42.0453 92.301 42.28C91.9704 42.5093 91.725 42.832 91.565 43.248C91.405 43.6587 91.325 44.136 91.325 44.68C91.325 45.5173 91.5144 46.1867 91.893 46.688C92.277 47.184 92.8397 47.432 93.581 47.432ZM101.183 49L98.5431 40.344L100.431 40.36L102.119 45.904L103.831 40.36H105.455L107.159 45.904L108.855 40.36H110.743L108.103 49H106.599L104.639 43.056L102.687 49H101.183Z" fill="#3F0B50"/>
<path d="M233.039 49.232L229.895 46.104L230.831 45.168L233.959 48.296L233.039 49.232ZM228.735 49.24C227.589 49.24 226.615 48.9867 225.815 48.48C225.015 47.9733 224.405 47.2693 223.983 46.368C223.567 45.4667 223.359 44.424 223.359 43.24C223.359 42.056 223.567 41.0133 223.983 40.112C224.405 39.2107 225.015 38.5067 225.815 38C226.615 37.4933 227.589 37.24 228.735 37.24C229.887 37.24 230.863 37.4933 231.663 38C232.463 38.5067 233.071 39.2107 233.487 40.112C233.903 41.0133 234.111 42.056 234.111 43.24C234.111 44.424 233.903 45.4667 233.487 46.368C233.071 47.2693 232.463 47.9733 231.663 48.48C230.863 48.9867 229.887 49.24 228.735 49.24ZM228.735 47.88C229.594 47.8853 230.309 47.6933 230.879 47.304C231.455 46.9093 231.885 46.3627 232.167 45.664C232.455 44.9653 232.599 44.1573 232.599 43.24C232.599 42.3173 232.455 41.5093 232.167 40.816C231.885 40.1227 231.455 39.5813 230.879 39.192C230.309 38.8027 229.594 38.6053 228.735 38.6C227.877 38.5947 227.162 38.7867 226.591 39.176C226.026 39.5653 225.599 40.1093 225.311 40.808C225.023 41.5067 224.877 42.3173 224.871 43.24C224.866 44.1573 225.007 44.9627 225.295 45.656C225.583 46.3493 226.013 46.8933 226.583 47.288C227.159 47.6773 227.877 47.8747 228.735 47.88ZM238.998 49.224C238.443 49.224 237.966 49.136 237.566 48.96C237.171 48.784 236.843 48.5493 236.582 48.256C236.321 47.9627 236.115 47.6373 235.966 47.28C235.817 46.9227 235.71 46.5573 235.646 46.184C235.587 45.8107 235.558 45.4613 235.558 45.136V40.36H236.998V44.688C236.998 45.0933 237.035 45.4853 237.11 45.864C237.185 46.2427 237.31 46.584 237.486 46.888C237.667 47.192 237.907 47.432 238.206 47.608C238.51 47.784 238.889 47.872 239.342 47.872C239.699 47.872 240.025 47.8107 240.318 47.688C240.611 47.5653 240.862 47.384 241.07 47.144C241.278 46.8987 241.438 46.5893 241.55 46.216C241.662 45.8427 241.718 45.408 241.718 44.912L242.654 45.2C242.654 46.032 242.502 46.7493 242.198 47.352C241.899 47.9547 241.475 48.4187 240.926 48.744C240.382 49.064 239.739 49.224 238.998 49.224ZM241.878 49V46.688H241.718V40.36H243.15V49H241.878ZM247.846 49.24C247.201 49.24 246.659 49.1227 246.222 48.888C245.79 48.648 245.462 48.3333 245.238 47.944C245.019 47.5547 244.91 47.128 244.91 46.664C244.91 46.2107 244.995 45.8187 245.166 45.488C245.342 45.152 245.587 44.8747 245.902 44.656C246.217 44.432 246.593 44.256 247.03 44.128C247.441 44.016 247.899 43.92 248.406 43.84C248.918 43.7547 249.435 43.6773 249.958 43.608C250.481 43.5387 250.969 43.472 251.422 43.408L250.91 43.704C250.926 42.936 250.771 42.368 250.446 42C250.126 41.632 249.571 41.448 248.782 41.448C248.259 41.448 247.801 41.568 247.406 41.808C247.017 42.0427 246.742 42.4267 246.582 42.96L245.23 42.552C245.438 41.7947 245.841 41.2 246.438 40.768C247.035 40.336 247.822 40.12 248.798 40.12C249.582 40.12 250.254 40.2613 250.814 40.544C251.379 40.8213 251.785 41.2427 252.03 41.808C252.153 42.0747 252.23 42.3653 252.262 42.68C252.294 42.9893 252.31 43.3147 252.31 43.656V49H251.046V46.928L251.342 47.12C251.017 47.8187 250.561 48.3467 249.974 48.704C249.393 49.0613 248.683 49.24 247.846 49.24ZM248.062 48.048C248.574 48.048 249.017 47.9573 249.39 47.776C249.769 47.5893 250.073 47.3467 250.302 47.048C250.531 46.744 250.681 46.4133 250.75 46.056C250.83 45.7893 250.873 45.4933 250.878 45.168C250.889 44.8373 250.894 44.584 250.894 44.408L251.39 44.624C250.926 44.688 250.47 44.7493 250.022 44.808C249.574 44.8667 249.15 44.9307 248.75 45C248.35 45.064 247.99 45.1413 247.67 45.232C247.435 45.3067 247.214 45.4027 247.006 45.52C246.803 45.6373 246.638 45.7893 246.51 45.976C246.387 46.1573 246.326 46.384 246.326 46.656C246.326 46.8907 246.385 47.1147 246.502 47.328C246.625 47.5413 246.811 47.7147 247.062 47.848C247.318 47.9813 247.651 48.048 248.062 48.048ZM254.39 49V40.36H255.662V42.448L255.454 42.176C255.555 41.9093 255.686 41.664 255.846 41.44C256.011 41.216 256.195 41.032 256.398 40.888C256.622 40.7067 256.875 40.568 257.158 40.472C257.441 40.376 257.729 40.32 258.022 40.304C258.315 40.2827 258.59 40.3013 258.846 40.36V41.696C258.547 41.616 258.219 41.5947 257.862 41.632C257.505 41.6693 257.174 41.8 256.87 42.024C256.593 42.2213 256.377 42.4613 256.222 42.744C256.073 43.0267 255.969 43.3333 255.91 43.664C255.851 43.9893 255.822 44.3227 255.822 44.664V49H254.39ZM265.183 49C264.671 49.1013 264.164 49.1413 263.663 49.12C263.167 49.104 262.724 49.0053 262.335 48.824C261.945 48.6373 261.649 48.3493 261.447 47.96C261.276 47.6187 261.183 47.2747 261.167 46.928C261.156 46.576 261.151 46.1787 261.151 45.736V37.96H262.575V45.672C262.575 46.024 262.577 46.3253 262.583 46.576C262.593 46.8267 262.649 47.0427 262.751 47.224C262.943 47.5653 263.247 47.7653 263.663 47.824C264.084 47.8827 264.591 47.8667 265.183 47.776V49ZM259.399 41.536V40.36H265.183V41.536H259.399ZM270.322 49.24C269.474 49.24 268.732 49.0533 268.098 48.68C267.468 48.3013 266.978 47.776 266.626 47.104C266.274 46.4267 266.098 45.6373 266.098 44.736C266.098 43.792 266.271 42.976 266.618 42.288C266.964 41.5947 267.447 41.0613 268.066 40.688C268.69 40.3093 269.42 40.12 270.258 40.12C271.127 40.12 271.866 40.32 272.474 40.72C273.087 41.12 273.546 41.6907 273.85 42.432C274.159 43.1733 274.292 44.056 274.25 45.08H272.81V44.568C272.794 43.5067 272.578 42.7147 272.162 42.192C271.746 41.664 271.127 41.4 270.306 41.4C269.426 41.4 268.756 41.6827 268.298 42.248C267.839 42.8133 267.61 43.624 267.61 44.68C267.61 45.6987 267.839 46.488 268.298 47.048C268.756 47.608 269.41 47.888 270.258 47.888C270.828 47.888 271.324 47.7573 271.746 47.496C272.167 47.2347 272.498 46.8587 272.738 46.368L274.106 46.84C273.77 47.6027 273.263 48.1947 272.586 48.616C271.914 49.032 271.159 49.24 270.322 49.24ZM267.13 45.08V43.936H273.514V45.08H267.13ZM276.031 49V40.36H277.303V42.448L277.095 42.176C277.196 41.9093 277.327 41.664 277.487 41.44C277.652 41.216 277.836 41.032 278.039 40.888C278.263 40.7067 278.516 40.568 278.799 40.472C279.081 40.376 279.369 40.32 279.663 40.304C279.956 40.2827 280.231 40.3013 280.487 40.36V41.696C280.188 41.616 279.86 41.5947 279.503 41.632C279.145 41.6693 278.815 41.8 278.511 42.024C278.233 42.2213 278.017 42.4613 277.863 42.744C277.713 43.0267 277.609 43.3333 277.551 43.664C277.492 43.9893 277.463 44.3227 277.463 44.664V49H276.031ZM282.159 49V37.24H283.583V49H282.159ZM287.184 52.84L288.856 48.296L288.88 49.64L285.104 40.36H286.6L289.56 47.824H289.048L291.824 40.36H293.272L288.568 52.84H287.184Z" fill="black"/>
<path d="M314.469 40.59L309.879 45.17L305.289 40.59L303.879 42L309.879 48L315.879 42L314.469 40.59Z" fill="black"/>
<line x1="32.8794" y1="65.5" x2="321.879" y2="65.5" stroke="#D9D9D9"/>
<path d="M32.6294 171.179L37.5669 174.618C42.5044 178.057 52.3794 184.934 62.2544 177.568C72.1294 170.201 82.0044 148.59 91.8794 147.435C101.754 146.28 111.629 165.58 121.504 174.432C131.379 183.284 141.254 181.687 151.129 181.828C161.004 181.969 170.879 183.848 180.754 177.245C190.629 170.641 200.504 155.556 210.379 152.631C220.254 149.705 230.129 158.94 240.004 158.315C249.879 157.69 259.754 147.206 269.629 138.307C279.504 129.408 289.379 122.095 299.254 118.118C309.129 114.141 319.004 113.499 323.942 113.179L328.879 112.858" stroke="#1DBDD3" stroke-width="1.5"/>
<path d="M37.5669 173.051L32.6294 169.699V268.858H328.879V112.858L323.942 113.17C319.004 113.483 309.129 114.108 299.254 117.984C289.379 121.861 279.504 128.989 269.629 137.662C259.754 146.335 249.879 156.553 240.004 157.162C230.129 157.771 220.254 148.771 210.379 151.622C200.504 154.473 190.629 169.175 180.754 175.611C170.879 182.047 161.004 180.216 151.129 180.078C141.254 179.941 131.379 181.497 121.504 172.87C111.629 164.243 101.754 145.432 91.8794 146.558C82.0044 147.684 72.1294 168.746 62.2544 175.926C52.3794 183.106 42.5044 176.402 37.5669 173.051Z" fill="url(#paint1_linear_430_647)"/>
<path d="M33.9126 147.095L64.2146 160.937L78.0441 165.888C88.7088 169.706 100.354 169.79 111.073 166.126L123.919 161.734C133.286 158.531 143.393 158.181 152.959 160.729L182.176 168.508C194.587 171.813 207.793 170.215 219.058 164.046L238.789 153.241C246.152 149.209 254.411 147.095 262.806 147.095H273.424C292.894 147.095 310.593 135.793 318.784 118.129L327.326 99.7093" stroke="#21BFCF" stroke-dasharray="2 2"/>
<circle cx="38.4948" cy="148.939" r="2.88272" fill="white" stroke="#22BFCE"/>
<circle cx="140.985" cy="159.152" r="2.88272" fill="white" stroke="#22BFCE"/>
<circle cx="246.197" cy="148.939" r="2.88272" fill="white" stroke="#22BFCE"/>
<circle cx="326.337" cy="100.427" r="2.88272" fill="white" stroke="#22BFCE"/>
<line x1="32.8794" y1="82" x2="58.1143" y2="82" stroke="#21BFCE" stroke-width="5"/>
<path d="M66.3943 90L69.7683 79.92H71.5043L74.8783 90H73.5833L70.4263 80.648H70.8183L67.6893 90H66.3943ZM68.0183 87.641V86.472H73.2543V87.641H68.0183ZM79.3164 90.21C78.551 90.21 77.9 90.0397 77.3634 89.699C76.8314 89.3537 76.4254 88.88 76.1454 88.278C75.8654 87.676 75.7207 86.99 75.7114 86.22C75.7207 85.4313 75.8677 84.7383 76.1524 84.141C76.4417 83.539 76.8547 83.07 77.3914 82.734C77.928 82.398 78.5744 82.23 79.3304 82.23C80.1284 82.23 80.8144 82.426 81.3884 82.818C81.967 83.21 82.3544 83.7467 82.5504 84.428L81.3184 84.799C81.1597 84.3603 80.9007 84.0197 80.5414 83.777C80.1867 83.5343 79.7784 83.413 79.3164 83.413C78.7984 83.413 78.3714 83.5343 78.0354 83.777C77.6994 84.015 77.4497 84.3463 77.2864 84.771C77.123 85.191 77.039 85.674 77.0344 86.22C77.0437 87.06 77.2374 87.739 77.6154 88.257C77.998 88.7703 78.565 89.027 79.3164 89.027C79.811 89.027 80.2217 88.915 80.5484 88.691C80.875 88.4623 81.1224 88.1333 81.2904 87.704L82.5504 88.033C82.289 88.7377 81.8807 89.2767 81.3254 89.65C80.77 90.0233 80.1004 90.21 79.3164 90.21ZM88.2 90C87.752 90.0887 87.3087 90.1237 86.87 90.105C86.436 90.091 86.0487 90.0047 85.708 89.846C85.3674 89.6827 85.1084 89.4307 84.931 89.09C84.7817 88.7913 84.7 88.4903 84.686 88.187C84.6767 87.879 84.672 87.5313 84.672 87.144V80.34H85.918V87.088C85.918 87.396 85.9204 87.6597 85.925 87.879C85.9344 88.0983 85.9834 88.2873 86.072 88.446C86.24 88.7447 86.506 88.9197 86.87 88.971C87.2387 89.0223 87.682 89.0083 88.2 88.929V90ZM83.139 83.469V82.44H88.2V83.469H83.139ZM92.6049 90.196C92.1195 90.196 91.7019 90.119 91.3519 89.965C91.0065 89.811 90.7195 89.6057 90.4909 89.349C90.2622 89.0923 90.0825 88.8077 89.9519 88.495C89.8212 88.1823 89.7279 87.8627 89.6719 87.536C89.6205 87.2093 89.5949 86.9037 89.5949 86.619V82.44H90.8549V86.227C90.8549 86.5817 90.8875 86.9247 90.9529 87.256C91.0182 87.5873 91.1279 87.886 91.2819 88.152C91.4405 88.418 91.6505 88.628 91.9119 88.782C92.1779 88.936 92.5092 89.013 92.9059 89.013C93.2185 89.013 93.5032 88.9593 93.7599 88.852C94.0165 88.7447 94.2359 88.586 94.4179 88.376C94.5999 88.1613 94.7399 87.8907 94.8379 87.564C94.9359 87.2373 94.9849 86.857 94.9849 86.423L95.8039 86.675C95.8039 87.403 95.6709 88.0307 95.4049 88.558C95.1435 89.0853 94.7725 89.4913 94.2919 89.776C93.8159 90.056 93.2535 90.196 92.6049 90.196ZM95.1249 90V87.977H94.9849V82.44H96.2379V90H95.1249ZM100.347 90.21C99.7821 90.21 99.3084 90.1073 98.9258 89.902C98.5478 89.692 98.2608 89.4167 98.0648 89.076C97.8734 88.7353 97.7778 88.362 97.7778 87.956C97.7778 87.5593 97.8524 87.2163 98.0018 86.927C98.1558 86.633 98.3704 86.3903 98.6458 86.199C98.9211 86.003 99.2501 85.849 99.6328 85.737C99.9921 85.639 100.393 85.555 100.837 85.485C101.285 85.4103 101.737 85.3427 102.195 85.282C102.652 85.2213 103.079 85.163 103.476 85.107L103.028 85.366C103.042 84.694 102.906 84.197 102.622 83.875C102.342 83.553 101.856 83.392 101.166 83.392C100.708 83.392 100.307 83.497 99.9618 83.707C99.6211 83.9123 99.3808 84.2483 99.2408 84.715L98.0578 84.358C98.2398 83.6953 98.5921 83.175 99.1148 82.797C99.6374 82.419 100.326 82.23 101.18 82.23C101.866 82.23 102.454 82.3537 102.944 82.601C103.438 82.8437 103.793 83.2123 104.008 83.707C104.115 83.9403 104.183 84.1947 104.211 84.47C104.239 84.7407 104.253 85.0253 104.253 85.324V90H103.147V88.187L103.406 88.355C103.121 88.9663 102.722 89.4283 102.209 89.741C101.7 90.0537 101.079 90.21 100.347 90.21ZM100.536 89.167C100.984 89.167 101.371 89.0877 101.698 88.929C102.029 88.7657 102.295 88.5533 102.496 88.292C102.696 88.026 102.827 87.7367 102.888 87.424C102.958 87.1907 102.995 86.9317 103 86.647C103.009 86.3577 103.014 86.136 103.014 85.982L103.448 86.171C103.042 86.227 102.643 86.2807 102.251 86.332C101.859 86.3833 101.488 86.4393 101.138 86.5C100.788 86.556 100.473 86.6237 100.193 86.703C99.9874 86.7683 99.7938 86.8523 99.6118 86.955C99.4344 87.0577 99.2898 87.1907 99.1778 87.354C99.0704 87.5127 99.0168 87.711 99.0168 87.949C99.0168 88.1543 99.0681 88.3503 99.1708 88.537C99.2781 88.7237 99.4414 88.8753 99.6608 88.992C99.8848 89.1087 100.176 89.167 100.536 89.167ZM106.213 90V79.71H107.459V90H106.213ZM112.415 90.203C111.514 90.203 110.775 90.007 110.196 89.615C109.622 89.2183 109.27 88.6653 109.139 87.956L110.413 87.753C110.516 88.1637 110.751 88.4903 111.12 88.733C111.489 88.971 111.946 89.09 112.492 89.09C113.01 89.09 113.416 88.9827 113.71 88.768C114.004 88.5533 114.151 88.2617 114.151 87.893C114.151 87.6783 114.102 87.5057 114.004 87.375C113.906 87.2397 113.703 87.1137 113.395 86.997C113.092 86.8803 112.632 86.7403 112.016 86.577C111.349 86.3997 110.824 86.2153 110.441 86.024C110.058 85.8327 109.785 85.611 109.622 85.359C109.459 85.107 109.377 84.8013 109.377 84.442C109.377 83.9987 109.498 83.6113 109.741 83.28C109.984 82.944 110.322 82.685 110.756 82.503C111.195 82.321 111.703 82.23 112.282 82.23C112.856 82.23 113.369 82.321 113.822 82.503C114.275 82.685 114.639 82.944 114.914 83.28C115.194 83.6113 115.36 83.9987 115.411 84.442L114.137 84.673C114.076 84.267 113.88 83.9473 113.549 83.714C113.222 83.4807 112.8 83.357 112.282 83.343C111.792 83.3243 111.393 83.4107 111.085 83.602C110.782 83.7933 110.63 84.0523 110.63 84.379C110.63 84.561 110.686 84.7173 110.798 84.848C110.915 84.9787 111.127 85.1023 111.435 85.219C111.748 85.3357 112.2 85.4687 112.793 85.618C113.46 85.786 113.985 85.9703 114.368 86.171C114.755 86.367 115.031 86.6003 115.194 86.871C115.357 87.137 115.439 87.466 115.439 87.858C115.439 88.586 115.171 89.16 114.634 89.58C114.097 89.9953 113.358 90.203 112.415 90.203Z" fill="black"/>
<line x1="32.8794" y1="105" x2="35.9104" y2="105" stroke="#21BFCF" stroke-width="5"/>
<line x1="43.9106" y1="105" x2="46.9417" y2="105" stroke="#21BFCF" stroke-width="5"/>
<line x1="49.0498" y1="105" x2="52.0808" y2="105" stroke="#21BFCF" stroke-width="5"/>
<line x1="38.6391" y1="105" x2="41.6701" y2="105" stroke="#21BFCF" stroke-width="5"/>
<line x1="54.9414" y1="105" x2="57.9724" y2="105" stroke="#21BFCF" stroke-width="5"/>
<path d="M66.9524 113V102.92H72.8324V104.166H68.1984V107.337H71.9924V108.583H68.1984V113H66.9524ZM77.1041 113.21C76.3527 113.21 75.7041 113.04 75.1581 112.699C74.6167 112.358 74.1991 111.887 73.9051 111.285C73.6111 110.683 73.4641 109.992 73.4641 109.213C73.4641 108.42 73.6134 107.724 73.9121 107.127C74.2107 106.53 74.6331 106.065 75.1791 105.734C75.7251 105.398 76.3667 105.23 77.1041 105.23C77.8601 105.23 78.5111 105.4 79.0571 105.741C79.6031 106.077 80.0207 106.546 80.3101 107.148C80.6041 107.745 80.7511 108.434 80.7511 109.213C80.7511 110.002 80.6041 110.697 80.3101 111.299C80.0161 111.896 79.5961 112.365 79.0501 112.706C78.5041 113.042 77.8554 113.21 77.1041 113.21ZM77.1041 112.027C77.8881 112.027 78.4714 111.766 78.8541 111.243C79.2367 110.72 79.4281 110.044 79.4281 109.213C79.4281 108.359 79.2344 107.68 78.8471 107.176C78.4597 106.667 77.8787 106.413 77.1041 106.413C76.5767 106.413 76.1427 106.532 75.8021 106.77C75.4614 107.008 75.2071 107.337 75.0391 107.757C74.8711 108.177 74.7871 108.662 74.7871 109.213C74.7871 110.062 74.9831 110.744 75.3751 111.257C75.7671 111.77 76.3434 112.027 77.1041 112.027ZM82.2923 113V105.44H83.4053V107.267L83.2233 107.029C83.3119 106.796 83.4263 106.581 83.5663 106.385C83.7109 106.189 83.8719 106.028 84.0493 105.902C84.2453 105.743 84.4669 105.622 84.7143 105.538C84.9616 105.454 85.2136 105.405 85.4703 105.391C85.7269 105.372 85.9673 105.389 86.1913 105.44V106.609C85.9299 106.539 85.6429 106.52 85.3303 106.553C85.0176 106.586 84.7283 106.7 84.4623 106.896C84.2196 107.069 84.0306 107.279 83.8953 107.526C83.7646 107.773 83.6736 108.042 83.6223 108.331C83.5709 108.616 83.5453 108.907 83.5453 109.206V113H82.2923ZM90.6542 113.21C89.9122 113.21 89.2635 113.047 88.7082 112.72C88.1575 112.389 87.7282 111.929 87.4202 111.341C87.1122 110.748 86.9582 110.058 86.9582 109.269C86.9582 108.443 87.1099 107.729 87.4132 107.127C87.7165 106.52 88.1389 106.054 88.6802 105.727C89.2262 105.396 89.8655 105.23 90.5982 105.23C91.3589 105.23 92.0052 105.405 92.5372 105.755C93.0739 106.105 93.4752 106.604 93.7412 107.253C94.0119 107.902 94.1285 108.674 94.0912 109.57H92.8312V109.122C92.8172 108.193 92.6282 107.5 92.2642 107.043C91.9002 106.581 91.3589 106.35 90.6402 106.35C89.8702 106.35 89.2845 106.597 88.8832 107.092C88.4819 107.587 88.2812 108.296 88.2812 109.22C88.2812 110.111 88.4819 110.802 88.8832 111.292C89.2845 111.782 89.8562 112.027 90.5982 112.027C91.0975 112.027 91.5315 111.913 91.9002 111.684C92.2689 111.455 92.5582 111.126 92.7682 110.697L93.9652 111.11C93.6712 111.777 93.2279 112.295 92.6352 112.664C92.0472 113.028 91.3869 113.21 90.6542 113.21ZM87.8612 109.57V108.569H93.4472V109.57H87.8612ZM98.8347 113.21C98.0693 113.21 97.4183 113.04 96.8817 112.699C96.3497 112.354 95.9437 111.88 95.6637 111.278C95.3837 110.676 95.239 109.99 95.2297 109.22C95.239 108.431 95.386 107.738 95.6707 107.141C95.96 106.539 96.373 106.07 96.9097 105.734C97.4463 105.398 98.0927 105.23 98.8487 105.23C99.6467 105.23 100.333 105.426 100.907 105.818C101.485 106.21 101.873 106.747 102.069 107.428L100.837 107.799C100.678 107.36 100.419 107.02 100.06 106.777C99.705 106.534 99.2967 106.413 98.8347 106.413C98.3167 106.413 97.8897 106.534 97.5537 106.777C97.2177 107.015 96.968 107.346 96.8047 107.771C96.6413 108.191 96.5573 108.674 96.5527 109.22C96.562 110.06 96.7557 110.739 97.1337 111.257C97.5163 111.77 98.0833 112.027 98.8347 112.027C99.3293 112.027 99.74 111.915 100.067 111.691C100.393 111.462 100.641 111.133 100.809 110.704L102.069 111.033C101.807 111.738 101.399 112.277 100.844 112.65C100.288 113.023 99.6187 113.21 98.8347 113.21ZM105.578 113.21C105.013 113.21 104.54 113.107 104.157 112.902C103.779 112.692 103.492 112.417 103.296 112.076C103.105 111.735 103.009 111.362 103.009 110.956C103.009 110.559 103.084 110.216 103.233 109.927C103.387 109.633 103.602 109.39 103.877 109.199C104.152 109.003 104.481 108.849 104.864 108.737C105.223 108.639 105.625 108.555 106.068 108.485C106.516 108.41 106.969 108.343 107.426 108.282C107.883 108.221 108.31 108.163 108.707 108.107L108.259 108.366C108.273 107.694 108.138 107.197 107.853 106.875C107.573 106.553 107.088 106.392 106.397 106.392C105.94 106.392 105.538 106.497 105.193 106.707C104.852 106.912 104.612 107.248 104.472 107.715L103.289 107.358C103.471 106.695 103.823 106.175 104.346 105.797C104.869 105.419 105.557 105.23 106.411 105.23C107.097 105.23 107.685 105.354 108.175 105.601C108.67 105.844 109.024 106.212 109.239 106.707C109.346 106.94 109.414 107.195 109.442 107.47C109.47 107.741 109.484 108.025 109.484 108.324V113H108.378V111.187L108.637 111.355C108.352 111.966 107.953 112.428 107.44 112.741C106.931 113.054 106.311 113.21 105.578 113.21ZM105.767 112.167C106.215 112.167 106.602 112.088 106.929 111.929C107.26 111.766 107.526 111.553 107.727 111.292C107.928 111.026 108.058 110.737 108.119 110.424C108.189 110.191 108.226 109.932 108.231 109.647C108.24 109.358 108.245 109.136 108.245 108.982L108.679 109.171C108.273 109.227 107.874 109.281 107.482 109.332C107.09 109.383 106.719 109.439 106.369 109.5C106.019 109.556 105.704 109.624 105.424 109.703C105.219 109.768 105.025 109.852 104.843 109.955C104.666 110.058 104.521 110.191 104.409 110.354C104.302 110.513 104.248 110.711 104.248 110.949C104.248 111.154 104.299 111.35 104.402 111.537C104.509 111.724 104.673 111.875 104.892 111.992C105.116 112.109 105.408 112.167 105.767 112.167ZM114.16 113.203C113.259 113.203 112.52 113.007 111.941 112.615C111.367 112.218 111.015 111.665 110.884 110.956L112.158 110.753C112.261 111.164 112.496 111.49 112.865 111.733C113.234 111.971 113.691 112.09 114.237 112.09C114.755 112.09 115.161 111.983 115.455 111.768C115.749 111.553 115.896 111.262 115.896 110.893C115.896 110.678 115.847 110.506 115.749 110.375C115.651 110.24 115.448 110.114 115.14 109.997C114.837 109.88 114.377 109.74 113.761 109.577C113.094 109.4 112.569 109.215 112.186 109.024C111.803 108.833 111.53 108.611 111.367 108.359C111.204 108.107 111.122 107.801 111.122 107.442C111.122 106.999 111.243 106.611 111.486 106.28C111.729 105.944 112.067 105.685 112.501 105.503C112.94 105.321 113.448 105.23 114.027 105.23C114.601 105.23 115.114 105.321 115.567 105.503C116.02 105.685 116.384 105.944 116.659 106.28C116.939 106.611 117.105 106.999 117.156 107.442L115.882 107.673C115.821 107.267 115.625 106.947 115.294 106.714C114.967 106.481 114.545 106.357 114.027 106.343C113.537 106.324 113.138 106.411 112.83 106.602C112.527 106.793 112.375 107.052 112.375 107.379C112.375 107.561 112.431 107.717 112.543 107.848C112.66 107.979 112.872 108.102 113.18 108.219C113.493 108.336 113.945 108.469 114.538 108.618C115.205 108.786 115.73 108.97 116.113 109.171C116.5 109.367 116.776 109.6 116.939 109.871C117.102 110.137 117.184 110.466 117.184 110.858C117.184 111.586 116.916 112.16 116.379 112.58C115.842 112.995 115.103 113.203 114.16 113.203ZM122.949 113C122.501 113.089 122.057 113.124 121.619 113.105C121.185 113.091 120.797 113.005 120.457 112.846C120.116 112.683 119.857 112.431 119.68 112.09C119.53 111.791 119.449 111.49 119.435 111.187C119.425 110.879 119.421 110.531 119.421 110.144V103.34H120.667V110.088C120.667 110.396 120.669 110.66 120.674 110.879C120.683 111.098 120.732 111.287 120.821 111.446C120.989 111.745 121.255 111.92 121.619 111.971C121.987 112.022 122.431 112.008 122.949 111.929V113ZM117.888 106.469V105.44H122.949V106.469H117.888Z" fill="black"/>
</g>
</g>
<rect x="1.37939" y="0.5" width="352" height="222" rx="9.5" stroke="url(#paint2_linear_430_647)"/>
<defs>
<filter id="filter0_d_430_647" x="-23.1206" y="-20" width="401" height="332.858" filterUnits="userSpaceOnUse" color-interpolation-filters="sRGB">
<feFlood flood-opacity="0" result="BackgroundImageFix"/>
<feColorMatrix in="SourceAlpha" type="matrix" values="0 0 0 0 0 0 0 0 0 0 0 0 0 0 0 0 0 0 127 0" result="hardAlpha"/>
<feOffset dy="4"/>
<feGaussianBlur stdDeviation="20"/>
<feComposite in2="hardAlpha" operator="out"/>
<feColorMatrix type="matrix" values="0 0 0 0 0 0 0 0 0 0 0 0 0 0 0 0 0 0 0.05 0"/>
<feBlend mode="normal" in2="BackgroundImageFix" result="effect1_dropShadow_430_647"/>
<feBlend mode="normal" in="SourceGraphic" in2="effect1_dropShadow_430_647" result="shape"/>
</filter>
<radialGradient id="paint0_radial_430_647" cx="0" cy="0" r="1" gradientUnits="userSpaceOnUse" gradientTransform="translate(197.854 250.951) rotate(-90) scale(281.749 467.741)">
<stop stop-color="#F1F1F1"/>
<stop offset="0.63194" stop-color="white"/>
</radialGradient>
<linearGradient id="paint1_linear_430_647" x1="180.754" y1="112.858" x2="180.754" y2="268.858" gradientUnits="userSpaceOnUse">
<stop stop-color="#1DBDD3" stop-opacity="0.2"/>
<stop offset="1" stop-color="#82E672" stop-opacity="0"/>
</linearGradient>
<linearGradient id="paint2_linear_430_647" x1="177.379" y1="0" x2="177.379" y2="223" gradientUnits="userSpaceOnUse">
<stop stop-color="#3F0B50" stop-opacity="0.5"/>
<stop offset="1" stop-opacity="0"/>
</linearGradient>
<clipPath id="clip0_430_647">
<rect x="0.879395" width="353" height="223" rx="10" fill="white"/>
</clipPath>
</defs>
</svg>
