<svg width="305" height="428" viewBox="0 0 305 428" fill="none" xmlns="http://www.w3.org/2000/svg">
<rect x="0.76416" y="0.5" width="303.752" height="427" rx="40" fill="white" fill-opacity="0.1"/>
<path d="M39.7522 47.86C38.0242 47.86 36.5442 47.484 35.3122 46.732C34.0802 45.972 33.1322 44.916 32.4682 43.564C31.8122 42.212 31.4842 40.644 31.4842 38.86C31.4842 37.076 31.8122 35.508 32.4682 34.156C33.1322 32.804 34.0802 31.752 35.3122 31C36.5442 30.24 38.0242 29.86 39.7522 29.86C41.7442 29.86 43.4042 30.36 44.7322 31.36C46.0602 32.352 46.9922 33.692 47.5282 35.38L44.6122 36.184C44.2762 35.056 43.7042 34.176 42.8962 33.544C42.0882 32.904 41.0402 32.584 39.7522 32.584C38.5922 32.584 37.6242 32.844 36.8482 33.364C36.0802 33.884 35.5002 34.616 35.1082 35.56C34.7242 36.496 34.5282 37.596 34.5202 38.86C34.5202 40.124 34.7122 41.228 35.0962 42.172C35.4882 43.108 36.0722 43.836 36.8482 44.356C37.6242 44.876 38.5922 45.136 39.7522 45.136C41.0402 45.136 42.0882 44.816 42.8962 44.176C43.7042 43.536 44.2762 42.656 44.6122 41.536L47.5282 42.34C46.9922 44.028 46.0602 45.372 44.7322 46.372C43.4042 47.364 41.7442 47.86 39.7522 47.86ZM53.7869 47.86C52.8509 47.86 52.0589 47.684 51.4109 47.332C50.7629 46.972 50.2709 46.496 49.9349 45.904C49.6069 45.312 49.4429 44.66 49.4429 43.948C49.4429 43.324 49.5469 42.764 49.7549 42.268C49.9629 41.764 50.2829 41.332 50.7149 40.972C51.1469 40.604 51.7069 40.304 52.3949 40.072C52.9149 39.904 53.5229 39.752 54.2189 39.616C54.9229 39.48 55.6829 39.356 56.4989 39.244C57.3229 39.124 58.1829 38.996 59.0789 38.86L58.0469 39.448C58.0549 38.552 57.8549 37.892 57.4469 37.468C57.0389 37.044 56.3509 36.832 55.3829 36.832C54.7989 36.832 54.2349 36.968 53.6909 37.24C53.1469 37.512 52.7669 37.98 52.5509 38.644L49.9109 37.816C50.2309 36.72 50.8389 35.84 51.7349 35.176C52.6389 34.512 53.8549 34.18 55.3829 34.18C56.5349 34.18 57.5469 34.368 58.4189 34.744C59.2989 35.12 59.9509 35.736 60.3749 36.592C60.6069 37.048 60.7469 37.516 60.7949 37.996C60.8429 38.468 60.8669 38.984 60.8669 39.544V47.5H58.3349V44.692L58.7549 45.148C58.1709 46.084 57.4869 46.772 56.7029 47.212C55.9269 47.644 54.9549 47.86 53.7869 47.86ZM54.3629 45.556C55.0189 45.556 55.5789 45.44 56.0429 45.208C56.5069 44.976 56.8749 44.692 57.1469 44.356C57.4269 44.02 57.6149 43.704 57.7109 43.408C57.8629 43.04 57.9469 42.62 57.9629 42.148C57.9869 41.668 57.9989 41.28 57.9989 40.984L58.8869 41.248C58.0149 41.384 57.2669 41.504 56.6429 41.608C56.0189 41.712 55.4829 41.812 55.0349 41.908C54.5869 41.996 54.1909 42.096 53.8469 42.208C53.5109 42.328 53.2269 42.468 52.9949 42.628C52.7629 42.788 52.5829 42.972 52.4549 43.18C52.3349 43.388 52.2749 43.632 52.2749 43.912C52.2749 44.232 52.3549 44.516 52.5149 44.764C52.6749 45.004 52.9069 45.196 53.2109 45.34C53.5229 45.484 53.9069 45.556 54.3629 45.556ZM68.995 47.86C67.395 47.86 66.095 47.5 65.095 46.78C64.095 46.06 63.487 45.048 63.271 43.744L66.223 43.288C66.375 43.928 66.711 44.432 67.231 44.8C67.751 45.168 68.407 45.352 69.199 45.352C69.895 45.352 70.431 45.216 70.807 44.944C71.191 44.664 71.383 44.284 71.383 43.804C71.383 43.508 71.311 43.272 71.167 43.096C71.031 42.912 70.727 42.736 70.255 42.568C69.783 42.4 69.059 42.188 68.083 41.932C66.995 41.644 66.131 41.336 65.491 41.008C64.851 40.672 64.391 40.276 64.111 39.82C63.831 39.364 63.691 38.812 63.691 38.164C63.691 37.356 63.903 36.652 64.327 36.052C64.751 35.452 65.343 34.992 66.103 34.672C66.863 34.344 67.759 34.18 68.791 34.18C69.799 34.18 70.691 34.336 71.467 34.648C72.251 34.96 72.883 35.404 73.363 35.98C73.843 36.556 74.139 37.232 74.251 38.008L71.299 38.536C71.227 37.984 70.975 37.548 70.543 37.228C70.119 36.908 69.551 36.728 68.839 36.688C68.159 36.648 67.611 36.752 67.195 37C66.779 37.24 66.571 37.58 66.571 38.02C66.571 38.268 66.655 38.48 66.823 38.656C66.991 38.832 67.327 39.008 67.831 39.184C68.343 39.36 69.103 39.576 70.111 39.832C71.143 40.096 71.967 40.4 72.583 40.744C73.207 41.08 73.655 41.484 73.927 41.956C74.207 42.428 74.347 43 74.347 43.672C74.347 44.976 73.871 46 72.919 46.744C71.975 47.488 70.667 47.86 68.995 47.86ZM85.9394 47.5V41.26C85.9394 40.852 85.9114 40.4 85.8554 39.904C85.7994 39.408 85.6674 38.932 85.4594 38.476C85.2594 38.012 84.9554 37.632 84.5474 37.336C84.1474 37.04 83.6034 36.892 82.9154 36.892C82.5474 36.892 82.1834 36.952 81.8234 37.072C81.4634 37.192 81.1354 37.4 80.8394 37.696C80.5514 37.984 80.3194 38.384 80.1434 38.896C79.9674 39.4 79.8794 40.048 79.8794 40.84L78.1634 40.108C78.1634 39.004 78.3754 38.004 78.7994 37.108C79.2314 36.212 79.8634 35.5 80.6954 34.972C81.5274 34.436 82.5514 34.168 83.7674 34.168C84.7274 34.168 85.5194 34.328 86.1434 34.648C86.7674 34.968 87.2634 35.376 87.6314 35.872C87.9994 36.368 88.2714 36.896 88.4474 37.456C88.6234 38.016 88.7354 38.548 88.7834 39.052C88.8394 39.548 88.8674 39.952 88.8674 40.264V47.5H85.9394ZM76.9514 47.5V30.22H79.5314V39.316H79.8794V47.5H76.9514ZM96.8035 47.5V30.22H107.208V33.112H99.6955V37.42H105.768V40.3H99.6955V47.5H96.8035ZM109.606 47.5V29.86H112.498V47.5H109.606ZM121.817 47.86C120.521 47.86 119.389 47.568 118.421 46.984C117.453 46.4 116.701 45.596 116.165 44.572C115.637 43.54 115.373 42.356 115.373 41.02C115.373 39.66 115.645 38.468 116.189 37.444C116.733 36.42 117.489 35.62 118.457 35.044C119.425 34.468 120.545 34.18 121.817 34.18C123.121 34.18 124.257 34.472 125.225 35.056C126.193 35.64 126.945 36.448 127.481 37.48C128.017 38.504 128.285 39.684 128.285 41.02C128.285 42.364 128.013 43.552 127.469 44.584C126.933 45.608 126.181 46.412 125.213 46.996C124.245 47.572 123.113 47.86 121.817 47.86ZM121.817 45.148C122.969 45.148 123.825 44.764 124.385 43.996C124.945 43.228 125.225 42.236 125.225 41.02C125.225 39.764 124.941 38.764 124.373 38.02C123.805 37.268 122.953 36.892 121.817 36.892C121.041 36.892 120.401 37.068 119.897 37.42C119.401 37.764 119.033 38.248 118.793 38.872C118.553 39.488 118.433 40.204 118.433 41.02C118.433 42.276 118.717 43.28 119.285 44.032C119.861 44.776 120.705 45.148 121.817 45.148ZM133.22 47.5L129.26 34.516L132.092 34.54L134.624 42.856L137.192 34.54H139.628L142.184 42.856L144.728 34.54H147.56L143.6 47.5H141.344L138.404 38.584L135.476 47.5H133.22Z" fill="white"/>
<rect x="30.7642" y="65.5" width="12" height="12" rx="4" fill="#3FD3B1"/>
<path d="M47.8423 75.5V67.0449H48.897V75.5H47.8423ZM50.9243 75.5V69.1836H51.9438V70.1328H52.0376C52.1978 69.7969 52.4282 69.5371 52.729 69.3535C53.0298 69.166 53.4126 69.0723 53.8774 69.0723C54.5884 69.0723 55.1333 69.2754 55.5122 69.6816C55.895 70.084 56.0864 70.6602 56.0864 71.4102V75.5H55.0669V71.6562C55.0669 71.0859 54.9458 70.6641 54.7036 70.3906C54.4653 70.1133 54.0942 69.9746 53.5903 69.9746C53.2544 69.9746 52.9634 70.0469 52.7173 70.1914C52.4712 70.3359 52.2798 70.541 52.1431 70.8066C52.0103 71.0723 51.9438 71.3906 51.9438 71.7617V75.5H50.9243ZM59.4849 75.5L57.147 69.1836H58.2251L59.9536 74.3867H60.0474L61.7759 69.1836H62.854L60.5161 75.5H59.4849ZM66.5454 75.6113C65.9438 75.6113 65.4263 75.4785 64.9927 75.2129C64.563 74.9473 64.231 74.5723 63.9966 74.0879C63.7661 73.5996 63.6509 73.0254 63.6509 72.3652V72.3594C63.6509 71.707 63.7661 71.1348 63.9966 70.6426C64.231 70.1504 64.561 69.7656 64.9868 69.4883C65.4126 69.2109 65.9106 69.0723 66.481 69.0723C67.0552 69.0723 67.5474 69.2051 67.9575 69.4707C68.3716 69.7363 68.688 70.1074 68.9067 70.584C69.1294 71.0566 69.2407 71.6074 69.2407 72.2363V72.6348H64.1782V71.8203H68.7192L68.2153 72.5645V72.1602C68.2153 71.6641 68.1411 71.2559 67.9927 70.9355C67.8442 70.6152 67.6392 70.377 67.3774 70.2207C67.1157 70.0605 66.8149 69.9805 66.4751 69.9805C66.1353 69.9805 65.8306 70.0645 65.561 70.2324C65.2954 70.3965 65.0845 70.6406 64.9282 70.9648C64.772 71.2891 64.6938 71.6875 64.6938 72.1602V72.5645C64.6938 73.0137 64.77 73.3984 64.9224 73.7188C65.0747 74.0352 65.2915 74.2793 65.5728 74.4512C65.854 74.6191 66.186 74.7031 66.5688 74.7031C66.854 74.7031 67.1021 74.6641 67.313 74.5859C67.5239 74.5078 67.6978 74.4082 67.8345 74.2871C67.9712 74.166 68.0669 74.043 68.1216 73.918L68.145 73.8652H69.1646L69.1528 73.9121C69.0981 74.127 69.0005 74.3359 68.8599 74.5391C68.7231 74.7383 68.5454 74.9199 68.3267 75.084C68.1079 75.2441 67.8481 75.373 67.5474 75.4707C67.2505 75.5645 66.9165 75.6113 66.5454 75.6113ZM72.9907 75.6113C72.522 75.6113 72.1079 75.541 71.7485 75.4004C71.3892 75.2559 71.1001 75.0547 70.8813 74.7969C70.6665 74.5391 70.5396 74.2363 70.5005 73.8887H71.5435C71.6294 74.1504 71.7974 74.3613 72.0474 74.5215C72.2974 74.6816 72.6235 74.7617 73.0259 74.7617C73.311 74.7617 73.561 74.7207 73.7759 74.6387C73.9946 74.5527 74.1665 74.4375 74.2915 74.293C74.4165 74.1445 74.479 73.9746 74.479 73.7832V73.7715C74.479 73.5566 74.3931 73.375 74.2212 73.2266C74.0493 73.0742 73.7681 72.9512 73.3774 72.8574L72.3989 72.623C72.0044 72.5293 71.6802 72.4082 71.4263 72.2598C71.1724 72.1074 70.9849 71.9219 70.8638 71.7031C70.7427 71.4805 70.6821 71.2188 70.6821 70.918V70.9121C70.6821 70.5605 70.7837 70.2461 70.9868 69.9688C71.1938 69.6914 71.4751 69.4727 71.8306 69.3125C72.186 69.1523 72.5864 69.0723 73.0317 69.0723C73.4731 69.0723 73.8638 69.1426 74.2036 69.2832C74.5474 69.4199 74.8228 69.6152 75.0298 69.8691C75.2407 70.123 75.3696 70.4219 75.4165 70.7656H74.4146C74.3481 70.5156 74.1958 70.3125 73.9575 70.1562C73.7192 70 73.4087 69.9219 73.0259 69.9219C72.7759 69.9219 72.5532 69.9629 72.3579 70.0449C72.1626 70.123 72.0083 70.2324 71.895 70.373C71.7817 70.5137 71.7251 70.6777 71.7251 70.8652V70.877C71.7251 71.0176 71.7622 71.1426 71.8364 71.252C71.9106 71.3613 72.0259 71.457 72.1821 71.5391C72.3384 71.6211 72.5396 71.6934 72.7856 71.7559L73.7583 71.9902C74.3521 72.1348 74.7935 72.3418 75.0825 72.6113C75.3755 72.8809 75.522 73.2422 75.522 73.6953V73.707C75.522 74.082 75.4106 74.4141 75.188 74.7031C74.9653 74.9883 74.6626 75.2109 74.2798 75.3711C73.9009 75.5312 73.4712 75.6113 72.9907 75.6113ZM79.2896 75.5469C78.6411 75.5469 78.1704 75.416 77.8774 75.1543C77.5884 74.8926 77.4438 74.4609 77.4438 73.8594V70.0273H76.4478V69.1836H77.4438V67.5488H78.4985V69.1836H79.8813V70.0273H78.4985V73.6016C78.4985 73.9727 78.5688 74.2402 78.7095 74.4043C78.8501 74.5645 79.0845 74.6445 79.4126 74.6445C79.5024 74.6445 79.5786 74.6426 79.6411 74.6387C79.7075 74.6348 79.7876 74.6289 79.8813 74.6211V75.4883C79.7837 75.5039 79.686 75.5176 79.5884 75.5293C79.4907 75.541 79.3911 75.5469 79.2896 75.5469ZM81.4048 75.5V69.1836H82.4243V70.1445H82.5181C82.6587 69.8047 82.8735 69.541 83.1626 69.3535C83.4556 69.166 83.8091 69.0723 84.2231 69.0723C84.5083 69.0723 84.7642 69.1191 84.9907 69.2129C85.2173 69.3066 85.4126 69.4375 85.5767 69.6055C85.7407 69.7695 85.8716 69.9609 85.9692 70.1797H86.063C86.1763 69.957 86.3286 69.7637 86.52 69.5996C86.7114 69.4316 86.9321 69.3027 87.1821 69.2129C87.436 69.1191 87.7075 69.0723 87.9966 69.0723C88.4263 69.0723 88.7896 69.1523 89.0864 69.3125C89.3872 69.4727 89.6157 69.707 89.772 70.0156C89.9282 70.3203 90.0063 70.6934 90.0063 71.1348V75.5H88.9868V71.3691C88.9868 71.0566 88.938 70.7988 88.8403 70.5957C88.7466 70.3887 88.6021 70.2344 88.4067 70.1328C88.2114 70.0273 87.9653 69.9746 87.6685 69.9746C87.3755 69.9746 87.1196 70.041 86.9009 70.1738C86.6821 70.3066 86.5122 70.4844 86.3911 70.707C86.27 70.9258 86.2095 71.1699 86.2095 71.4395V75.5H85.1899V71.2109C85.1899 70.9609 85.1353 70.7441 85.0259 70.5605C84.9204 70.373 84.7681 70.2285 84.5688 70.127C84.3735 70.0254 84.1431 69.9746 83.8774 69.9746C83.604 69.9746 83.356 70.0469 83.1333 70.1914C82.9146 70.3359 82.7407 70.5312 82.6118 70.7773C82.4868 71.0195 82.4243 71.2891 82.4243 71.5859V75.5H81.4048ZM94.4243 75.6113C93.8228 75.6113 93.3052 75.4785 92.8716 75.2129C92.4419 74.9473 92.1099 74.5723 91.8755 74.0879C91.645 73.5996 91.5298 73.0254 91.5298 72.3652V72.3594C91.5298 71.707 91.645 71.1348 91.8755 70.6426C92.1099 70.1504 92.4399 69.7656 92.8657 69.4883C93.2915 69.2109 93.7896 69.0723 94.3599 69.0723C94.9341 69.0723 95.4263 69.2051 95.8364 69.4707C96.2505 69.7363 96.5669 70.1074 96.7856 70.584C97.0083 71.0566 97.1196 71.6074 97.1196 72.2363V72.6348H92.0571V71.8203H96.5981L96.0942 72.5645V72.1602C96.0942 71.6641 96.02 71.2559 95.8716 70.9355C95.7231 70.6152 95.5181 70.377 95.2563 70.2207C94.9946 70.0605 94.6938 69.9805 94.354 69.9805C94.0142 69.9805 93.7095 70.0645 93.4399 70.2324C93.1743 70.3965 92.9634 70.6406 92.8071 70.9648C92.6509 71.2891 92.5728 71.6875 92.5728 72.1602V72.5645C92.5728 73.0137 92.6489 73.3984 92.8013 73.7188C92.9536 74.0352 93.1704 74.2793 93.4517 74.4512C93.7329 74.6191 94.0649 74.7031 94.4478 74.7031C94.7329 74.7031 94.981 74.6641 95.1919 74.5859C95.4028 74.5078 95.5767 74.4082 95.7134 74.2871C95.8501 74.166 95.9458 74.043 96.0005 73.918L96.0239 73.8652H97.0435L97.0317 73.9121C96.9771 74.127 96.8794 74.3359 96.7388 74.5391C96.6021 74.7383 96.4243 74.9199 96.2056 75.084C95.9868 75.2441 95.7271 75.373 95.4263 75.4707C95.1294 75.5645 94.7954 75.6113 94.4243 75.6113ZM98.7017 75.5V69.1836H99.7212V70.1328H99.8149C99.9751 69.7969 100.206 69.5371 100.506 69.3535C100.807 69.166 101.19 69.0723 101.655 69.0723C102.366 69.0723 102.911 69.2754 103.29 69.6816C103.672 70.084 103.864 70.6602 103.864 71.4102V75.5H102.844V71.6562C102.844 71.0859 102.723 70.6641 102.481 70.3906C102.243 70.1133 101.872 69.9746 101.368 69.9746C101.032 69.9746 100.741 70.0469 100.495 70.1914C100.249 70.3359 100.057 70.541 99.9204 70.8066C99.7876 71.0723 99.7212 71.3906 99.7212 71.7617V75.5H98.7017ZM107.954 75.5469C107.305 75.5469 106.834 75.416 106.542 75.1543C106.252 74.8926 106.108 74.4609 106.108 73.8594V70.0273H105.112V69.1836H106.108V67.5488H107.163V69.1836H108.545V70.0273H107.163V73.6016C107.163 73.9727 107.233 74.2402 107.374 74.4043C107.514 74.5645 107.749 74.6445 108.077 74.6445C108.167 74.6445 108.243 74.6426 108.305 74.6387C108.372 74.6348 108.452 74.6289 108.545 74.6211V75.4883C108.448 75.5039 108.35 75.5176 108.252 75.5293C108.155 75.541 108.055 75.5469 107.954 75.5469ZM112.12 75.6113C111.651 75.6113 111.237 75.541 110.877 75.4004C110.518 75.2559 110.229 75.0547 110.01 74.7969C109.795 74.5391 109.668 74.2363 109.629 73.8887H110.672C110.758 74.1504 110.926 74.3613 111.176 74.5215C111.426 74.6816 111.752 74.7617 112.155 74.7617C112.44 74.7617 112.69 74.7207 112.905 74.6387C113.124 74.5527 113.295 74.4375 113.42 74.293C113.545 74.1445 113.608 73.9746 113.608 73.7832V73.7715C113.608 73.5566 113.522 73.375 113.35 73.2266C113.178 73.0742 112.897 72.9512 112.506 72.8574L111.528 72.623C111.133 72.5293 110.809 72.4082 110.555 72.2598C110.301 72.1074 110.114 71.9219 109.993 71.7031C109.872 71.4805 109.811 71.2188 109.811 70.918V70.9121C109.811 70.5605 109.913 70.2461 110.116 69.9688C110.323 69.6914 110.604 69.4727 110.959 69.3125C111.315 69.1523 111.715 69.0723 112.161 69.0723C112.602 69.0723 112.993 69.1426 113.333 69.2832C113.676 69.4199 113.952 69.6152 114.159 69.8691C114.37 70.123 114.499 70.4219 114.545 70.7656H113.543C113.477 70.5156 113.325 70.3125 113.086 70.1562C112.848 70 112.538 69.9219 112.155 69.9219C111.905 69.9219 111.682 69.9629 111.487 70.0449C111.292 70.123 111.137 70.2324 111.024 70.373C110.911 70.5137 110.854 70.6777 110.854 70.8652V70.877C110.854 71.0176 110.891 71.1426 110.965 71.252C111.04 71.3613 111.155 71.457 111.311 71.5391C111.467 71.6211 111.668 71.6934 111.915 71.7559L112.887 71.9902C113.481 72.1348 113.922 72.3418 114.211 72.6113C114.504 72.8809 114.651 73.2422 114.651 73.6953V73.707C114.651 74.082 114.54 74.4141 114.317 74.7031C114.094 74.9883 113.792 75.2109 113.409 75.3711C113.03 75.5312 112.6 75.6113 112.12 75.6113Z" fill="#D3D3D3"/>
<rect x="123.764" y="65.5" width="12" height="12" rx="4" fill="#5573D5"/>
<path d="M140.842 75.5V67.0449H145.975V67.9941H141.897V70.9004H145.641V71.8379H141.897V75.5H140.842ZM147.604 75.5V69.1836H148.624V75.5H147.604ZM148.12 67.9648C147.928 67.9648 147.762 67.8965 147.622 67.7598C147.485 67.6191 147.417 67.4531 147.417 67.2617C147.417 67.0664 147.485 66.9004 147.622 66.7637C147.762 66.627 147.928 66.5586 148.12 66.5586C148.315 66.5586 148.481 66.627 148.618 66.7637C148.754 66.9004 148.823 67.0664 148.823 67.2617C148.823 67.4531 148.754 67.6191 148.618 67.7598C148.481 67.8965 148.315 67.9648 148.12 67.9648ZM150.545 75.5V69.1836H151.565V70.1328H151.659C151.819 69.7969 152.049 69.5371 152.35 69.3535C152.651 69.166 153.034 69.0723 153.499 69.0723C154.209 69.0723 154.754 69.2754 155.133 69.6816C155.516 70.084 155.708 70.6602 155.708 71.4102V75.5H154.688V71.6562C154.688 71.0859 154.567 70.6641 154.325 70.3906C154.086 70.1133 153.715 69.9746 153.211 69.9746C152.875 69.9746 152.584 70.0469 152.338 70.1914C152.092 70.3359 151.901 70.541 151.764 70.8066C151.631 71.0723 151.565 71.3906 151.565 71.7617V75.5H150.545ZM159.288 75.6113C158.889 75.6113 158.53 75.5352 158.209 75.3828C157.893 75.2305 157.641 75.0137 157.454 74.7324C157.27 74.4512 157.178 74.1191 157.178 73.7363V73.7246C157.178 73.3496 157.268 73.0293 157.448 72.7637C157.627 72.4941 157.889 72.2832 158.233 72.1309C158.577 71.9785 158.993 71.8887 159.481 71.8613L161.801 71.7207V72.5352L159.604 72.6758C159.124 72.7031 158.772 72.8027 158.549 72.9746C158.331 73.1465 158.221 73.3887 158.221 73.7012V73.7129C158.221 74.0332 158.342 74.2832 158.584 74.4629C158.827 74.6387 159.131 74.7266 159.499 74.7266C159.846 74.7266 160.155 74.6582 160.424 74.5215C160.694 74.3809 160.905 74.1914 161.057 73.9531C161.213 73.7148 161.292 73.4453 161.292 73.1445V71.1758C161.292 70.7852 161.172 70.4883 160.934 70.2852C160.7 70.0781 160.346 69.9746 159.874 69.9746C159.495 69.9746 159.184 70.043 158.942 70.1797C158.7 70.3125 158.538 70.502 158.456 70.748L158.45 70.7656H157.43L157.436 70.7305C157.491 70.3984 157.627 70.1094 157.846 69.8633C158.069 69.6133 158.356 69.4199 158.708 69.2832C159.059 69.1426 159.459 69.0723 159.909 69.0723C160.424 69.0723 160.86 69.1562 161.215 69.3242C161.575 69.4922 161.846 69.7344 162.03 70.0508C162.217 70.3633 162.311 70.7383 162.311 71.1758V75.5H161.292V74.5684H161.198C161.065 74.791 160.903 74.9805 160.711 75.1367C160.524 75.293 160.311 75.4121 160.073 75.4941C159.834 75.5723 159.573 75.6113 159.288 75.6113ZM164.174 75.5V69.1836H165.194V70.1328H165.288C165.448 69.7969 165.678 69.5371 165.979 69.3535C166.28 69.166 166.663 69.0723 167.127 69.0723C167.838 69.0723 168.383 69.2754 168.762 69.6816C169.145 70.084 169.336 70.6602 169.336 71.4102V75.5H168.317V71.6562C168.317 71.0859 168.196 70.6641 167.954 70.3906C167.715 70.1133 167.344 69.9746 166.84 69.9746C166.504 69.9746 166.213 70.0469 165.967 70.1914C165.721 70.3359 165.53 70.541 165.393 70.8066C165.26 71.0723 165.194 71.3906 165.194 71.7617V75.5H164.174ZM173.766 75.6113C173.176 75.6113 172.665 75.4766 172.231 75.207C171.797 74.9375 171.461 74.5566 171.223 74.0645C170.985 73.5723 170.866 72.9922 170.866 72.3242V72.3125C170.866 71.6562 170.983 71.0859 171.217 70.6016C171.456 70.1172 171.792 69.7422 172.225 69.4766C172.659 69.207 173.17 69.0723 173.76 69.0723C174.272 69.0723 174.713 69.1621 175.084 69.3418C175.456 69.5215 175.752 69.7637 175.975 70.0684C176.198 70.3691 176.34 70.707 176.403 71.082L176.409 71.1172H175.395L175.389 71.0996C175.311 70.7871 175.133 70.5215 174.856 70.3027C174.579 70.084 174.213 69.9746 173.76 69.9746C173.381 69.9746 173.053 70.0703 172.776 70.2617C172.499 70.4531 172.284 70.7246 172.131 71.0762C171.983 71.4238 171.909 71.8359 171.909 72.3125V72.3242C171.909 72.8086 171.985 73.2305 172.137 73.5898C172.29 73.9453 172.504 74.2207 172.782 74.416C173.059 74.6113 173.385 74.709 173.76 74.709C174.186 74.709 174.534 74.6172 174.803 74.4336C175.073 74.25 175.266 73.9824 175.383 73.6309L175.395 73.5957L176.403 73.5898L176.391 73.6543C176.305 74.0332 176.153 74.3711 175.934 74.668C175.715 74.9609 175.426 75.1914 175.067 75.3594C174.708 75.5273 174.274 75.6113 173.766 75.6113ZM177.92 75.5V69.1836H178.94V75.5H177.92ZM178.436 67.9648C178.245 67.9648 178.079 67.8965 177.938 67.7598C177.801 67.6191 177.733 67.4531 177.733 67.2617C177.733 67.0664 177.801 66.9004 177.938 66.7637C178.079 66.627 178.245 66.5586 178.436 66.5586C178.631 66.5586 178.797 66.627 178.934 66.7637C179.071 66.9004 179.139 67.0664 179.139 67.2617C179.139 67.4531 179.071 67.6191 178.934 67.7598C178.797 67.8965 178.631 67.9648 178.436 67.9648ZM180.862 75.5V69.1836H181.881V70.1328H181.975C182.135 69.7969 182.366 69.5371 182.667 69.3535C182.967 69.166 183.35 69.0723 183.815 69.0723C184.526 69.0723 185.071 69.2754 185.45 69.6816C185.833 70.084 186.024 70.6602 186.024 71.4102V75.5H185.004V71.6562C185.004 71.0859 184.883 70.6641 184.641 70.3906C184.403 70.1133 184.032 69.9746 183.528 69.9746C183.192 69.9746 182.901 70.0469 182.655 70.1914C182.409 70.3359 182.217 70.541 182.081 70.8066C181.948 71.0723 181.881 71.3906 181.881 71.7617V75.5H180.862ZM190.471 77.7266C189.963 77.7266 189.52 77.6543 189.141 77.5098C188.762 77.3691 188.459 77.168 188.233 76.9062C188.01 76.6484 187.872 76.3477 187.817 76.0039L187.829 75.998H188.883L188.889 76.0039C188.944 76.2422 189.108 76.4375 189.381 76.5898C189.655 76.7461 190.018 76.8242 190.471 76.8242C191.038 76.8242 191.479 76.6953 191.795 76.4375C192.116 76.1836 192.276 75.8242 192.276 75.3594V74.082H192.182C192.049 74.3125 191.883 74.5098 191.684 74.6738C191.485 74.8379 191.26 74.9629 191.01 75.0488C190.76 75.1309 190.491 75.1719 190.202 75.1719C189.659 75.1719 189.188 75.043 188.79 74.7852C188.395 74.5234 188.09 74.1641 187.875 73.707C187.661 73.25 187.553 72.7266 187.553 72.1367V72.125C187.553 71.5352 187.661 71.0117 187.875 70.5547C188.094 70.0938 188.403 69.7324 188.801 69.4707C189.2 69.2051 189.674 69.0723 190.225 69.0723C190.522 69.0723 190.795 69.1191 191.045 69.2129C191.295 69.3066 191.516 69.4395 191.708 69.6113C191.903 69.7832 192.065 69.9883 192.194 70.2266H192.264V69.1836H193.284V75.4121C193.284 75.8809 193.168 76.2891 192.938 76.6367C192.711 76.9844 192.387 77.252 191.965 77.4395C191.543 77.6309 191.045 77.7266 190.471 77.7266ZM190.424 74.2695C190.815 74.2695 191.149 74.1797 191.426 74C191.708 73.8164 191.922 73.5645 192.071 73.2441C192.223 72.9238 192.299 72.5547 192.299 72.1367V72.125C192.299 71.707 192.223 71.3359 192.071 71.0117C191.922 70.6875 191.708 70.4336 191.426 70.25C191.149 70.0664 190.815 69.9746 190.424 69.9746C190.034 69.9746 189.702 70.0664 189.428 70.25C189.159 70.4336 188.952 70.6875 188.807 71.0117C188.667 71.3359 188.596 71.707 188.596 72.125V72.1367C188.596 72.5547 188.667 72.9238 188.807 73.2441C188.952 73.5645 189.159 73.8164 189.428 74C189.702 74.1797 190.034 74.2695 190.424 74.2695Z" fill="#D3D3D3"/>
<rect x="202.764" y="65.5" width="12" height="12" rx="4" fill="#F3D161"/>
<path d="M223.393 75.6992C222.584 75.6992 221.891 75.5195 221.313 75.1602C220.735 74.7969 220.29 74.2832 219.977 73.6191C219.668 72.9551 219.514 72.1738 219.514 71.2754V71.2637C219.514 70.3574 219.67 69.5742 219.983 68.9141C220.299 68.2539 220.747 67.7441 221.325 67.3848C221.907 67.0254 222.596 66.8457 223.393 66.8457C224.194 66.8457 224.883 67.0254 225.461 67.3848C226.043 67.7441 226.491 68.2559 226.803 68.9199C227.116 69.5801 227.272 70.3613 227.272 71.2637V71.2754C227.272 72.1738 227.116 72.9551 226.803 73.6191C226.495 74.2793 226.049 74.791 225.467 75.1543C224.889 75.5176 224.198 75.6992 223.393 75.6992ZM223.393 74.7266C223.971 74.7266 224.469 74.584 224.887 74.2988C225.305 74.0137 225.627 73.6133 225.854 73.0977C226.081 72.5781 226.194 71.9707 226.194 71.2754V71.2637C226.194 70.5605 226.081 69.9512 225.854 69.4355C225.627 68.9199 225.305 68.5215 224.887 68.2402C224.469 67.959 223.971 67.8184 223.393 67.8184C222.819 67.8184 222.323 67.959 221.905 68.2402C221.487 68.5215 221.163 68.9199 220.932 69.4355C220.706 69.9512 220.592 70.5605 220.592 71.2637V71.2754C220.592 71.9707 220.704 72.5781 220.926 73.0977C221.149 73.6133 221.469 74.0137 221.887 74.2988C222.305 74.584 222.807 74.7266 223.393 74.7266ZM228.971 77.6094V69.1836H229.991V70.1914H230.084C230.213 69.957 230.375 69.7578 230.571 69.5938C230.766 69.4258 230.989 69.2969 231.239 69.207C231.489 69.1172 231.76 69.0723 232.053 69.0723C232.588 69.0723 233.053 69.209 233.448 69.4824C233.846 69.752 234.155 70.1309 234.374 70.6191C234.592 71.1074 234.702 71.6797 234.702 72.3359V72.3477C234.702 73.0078 234.592 73.582 234.374 74.0703C234.155 74.5586 233.846 74.9375 233.448 75.207C233.053 75.4766 232.588 75.6113 232.053 75.6113C231.764 75.6113 231.491 75.5664 231.233 75.4766C230.979 75.3828 230.752 75.2539 230.553 75.0898C230.358 74.9258 230.202 74.7305 230.084 74.5039H229.991V77.6094H228.971ZM231.819 74.709C232.206 74.709 232.536 74.6152 232.809 74.4277C233.083 74.2363 233.292 73.9648 233.436 73.6133C233.584 73.2578 233.659 72.8359 233.659 72.3477V72.3359C233.659 71.8438 233.584 71.4219 233.436 71.0703C233.292 70.7188 233.083 70.4492 232.809 70.2617C232.536 70.0703 232.206 69.9746 231.819 69.9746C231.436 69.9746 231.106 70.0703 230.829 70.2617C230.551 70.4531 230.338 70.7246 230.19 71.0762C230.042 71.4277 229.967 71.8477 229.967 72.3359V72.3477C229.967 72.832 230.042 73.252 230.19 73.6074C230.338 73.959 230.551 74.2305 230.829 74.4219C231.106 74.6133 231.436 74.709 231.819 74.709ZM238.874 75.6113C238.272 75.6113 237.754 75.4785 237.321 75.2129C236.891 74.9473 236.559 74.5723 236.325 74.0879C236.094 73.5996 235.979 73.0254 235.979 72.3652V72.3594C235.979 71.707 236.094 71.1348 236.325 70.6426C236.559 70.1504 236.889 69.7656 237.315 69.4883C237.741 69.2109 238.239 69.0723 238.809 69.0723C239.383 69.0723 239.875 69.2051 240.286 69.4707C240.7 69.7363 241.016 70.1074 241.235 70.584C241.458 71.0566 241.569 71.6074 241.569 72.2363V72.6348H236.506V71.8203H241.047L240.543 72.5645V72.1602C240.543 71.6641 240.469 71.2559 240.321 70.9355C240.172 70.6152 239.967 70.377 239.706 70.2207C239.444 70.0605 239.143 69.9805 238.803 69.9805C238.463 69.9805 238.159 70.0645 237.889 70.2324C237.624 70.3965 237.413 70.6406 237.256 70.9648C237.1 71.2891 237.022 71.6875 237.022 72.1602V72.5645C237.022 73.0137 237.098 73.3984 237.25 73.7188C237.403 74.0352 237.62 74.2793 237.901 74.4512C238.182 74.6191 238.514 74.7031 238.897 74.7031C239.182 74.7031 239.43 74.6641 239.641 74.5859C239.852 74.5078 240.026 74.4082 240.163 74.2871C240.299 74.166 240.395 74.043 240.45 73.918L240.473 73.8652H241.493L241.481 73.9121C241.426 74.127 241.329 74.3359 241.188 74.5391C241.051 74.7383 240.874 74.9199 240.655 75.084C240.436 75.2441 240.176 75.373 239.875 75.4707C239.579 75.5645 239.245 75.6113 238.874 75.6113ZM243.151 75.5V69.1836H244.17V70.1211H244.264C244.385 69.7891 244.59 69.5312 244.879 69.3477C245.168 69.1641 245.526 69.0723 245.952 69.0723C246.049 69.0723 246.145 69.0781 246.239 69.0898C246.336 69.0977 246.411 69.1055 246.461 69.1133V70.1035C246.356 70.084 246.252 70.0703 246.151 70.0625C246.053 70.0508 245.948 70.0449 245.834 70.0449C245.51 70.0449 245.223 70.1094 244.973 70.2383C244.723 70.3672 244.526 70.5469 244.381 70.7773C244.241 71.0078 244.17 71.2773 244.17 71.5859V75.5H243.151ZM249.456 75.6113C249.057 75.6113 248.698 75.5352 248.377 75.3828C248.061 75.2305 247.809 75.0137 247.622 74.7324C247.438 74.4512 247.346 74.1191 247.346 73.7363V73.7246C247.346 73.3496 247.436 73.0293 247.616 72.7637C247.795 72.4941 248.057 72.2832 248.401 72.1309C248.745 71.9785 249.161 71.8887 249.649 71.8613L251.969 71.7207V72.5352L249.772 72.6758C249.292 72.7031 248.94 72.8027 248.717 72.9746C248.499 73.1465 248.389 73.3887 248.389 73.7012V73.7129C248.389 74.0332 248.51 74.2832 248.752 74.4629C248.995 74.6387 249.299 74.7266 249.667 74.7266C250.014 74.7266 250.323 74.6582 250.592 74.5215C250.862 74.3809 251.073 74.1914 251.225 73.9531C251.381 73.7148 251.459 73.4453 251.459 73.1445V71.1758C251.459 70.7852 251.34 70.4883 251.102 70.2852C250.868 70.0781 250.514 69.9746 250.042 69.9746C249.663 69.9746 249.352 70.043 249.11 70.1797C248.868 70.3125 248.706 70.502 248.624 70.748L248.618 70.7656H247.598L247.604 70.7305C247.659 70.3984 247.795 70.1094 248.014 69.8633C248.237 69.6133 248.524 69.4199 248.875 69.2832C249.227 69.1426 249.627 69.0723 250.077 69.0723C250.592 69.0723 251.028 69.1562 251.383 69.3242C251.743 69.4922 252.014 69.7344 252.198 70.0508C252.385 70.3633 252.479 70.7383 252.479 71.1758V75.5H251.459V74.5684H251.366C251.233 74.791 251.071 74.9805 250.879 75.1367C250.692 75.293 250.479 75.4121 250.241 75.4941C250.002 75.5723 249.741 75.6113 249.456 75.6113ZM256.586 75.5469C255.938 75.5469 255.467 75.416 255.174 75.1543C254.885 74.8926 254.741 74.4609 254.741 73.8594V70.0273H253.745V69.1836H254.741V67.5488H255.795V69.1836H257.178V70.0273H255.795V73.6016C255.795 73.9727 255.866 74.2402 256.006 74.4043C256.147 74.5645 256.381 74.6445 256.709 74.6445C256.799 74.6445 256.875 74.6426 256.938 74.6387C257.004 74.6348 257.084 74.6289 257.178 74.6211V75.4883C257.081 75.5039 256.983 75.5176 256.885 75.5293C256.788 75.541 256.688 75.5469 256.586 75.5469ZM258.725 75.5V69.1836H259.745V75.5H258.725ZM259.241 67.9648C259.049 67.9648 258.883 67.8965 258.743 67.7598C258.606 67.6191 258.538 67.4531 258.538 67.2617C258.538 67.0664 258.606 66.9004 258.743 66.7637C258.883 66.627 259.049 66.5586 259.241 66.5586C259.436 66.5586 259.602 66.627 259.739 66.7637C259.875 66.9004 259.944 67.0664 259.944 67.2617C259.944 67.4531 259.875 67.6191 259.739 67.7598C259.602 67.8965 259.436 67.9648 259.241 67.9648ZM264.262 75.6113C263.665 75.6113 263.147 75.4805 262.709 75.2188C262.276 74.9531 261.94 74.5762 261.702 74.0879C261.467 73.5996 261.35 73.0195 261.35 72.3477V72.3359C261.35 71.6602 261.467 71.0781 261.702 70.5898C261.94 70.1016 262.276 69.7266 262.709 69.4648C263.147 69.2031 263.665 69.0723 264.262 69.0723C264.864 69.0723 265.381 69.2031 265.815 69.4648C266.249 69.7266 266.583 70.1016 266.817 70.5898C267.055 71.0781 267.174 71.6602 267.174 72.3359V72.3477C267.174 73.0195 267.055 73.5996 266.817 74.0879C266.583 74.5762 266.249 74.9531 265.815 75.2188C265.381 75.4805 264.864 75.6113 264.262 75.6113ZM264.262 74.709C264.661 74.709 264.999 74.6152 265.276 74.4277C265.553 74.2402 265.764 73.9707 265.909 73.6191C266.057 73.2676 266.131 72.8438 266.131 72.3477V72.3359C266.131 71.8359 266.057 71.4102 265.909 71.0586C265.764 70.707 265.553 70.4395 265.276 70.2559C264.999 70.0684 264.661 69.9746 264.262 69.9746C263.864 69.9746 263.526 70.0684 263.249 70.2559C262.971 70.4395 262.758 70.707 262.61 71.0586C262.465 71.4102 262.393 71.8359 262.393 72.3359V72.3477C262.393 72.8438 262.465 73.2676 262.61 73.6191C262.758 73.9707 262.971 74.2402 263.249 74.4277C263.526 74.6152 263.864 74.709 264.262 74.709ZM268.756 75.5V69.1836H269.776V70.1328H269.87C270.03 69.7969 270.26 69.5371 270.561 69.3535C270.862 69.166 271.245 69.0723 271.709 69.0723C272.42 69.0723 272.965 69.2754 273.344 69.6816C273.727 70.084 273.918 70.6602 273.918 71.4102V75.5H272.899V71.6562C272.899 71.0859 272.778 70.6641 272.536 70.3906C272.297 70.1133 271.926 69.9746 271.422 69.9746C271.086 69.9746 270.795 70.0469 270.549 70.1914C270.303 70.3359 270.112 70.541 269.975 70.8066C269.842 71.0723 269.776 71.3906 269.776 71.7617V75.5H268.756ZM277.932 75.6113C277.463 75.6113 277.049 75.541 276.69 75.4004C276.331 75.2559 276.042 75.0547 275.823 74.7969C275.608 74.5391 275.481 74.2363 275.442 73.8887H276.485C276.571 74.1504 276.739 74.3613 276.989 74.5215C277.239 74.6816 277.565 74.7617 277.967 74.7617C278.252 74.7617 278.502 74.7207 278.717 74.6387C278.936 74.5527 279.108 74.4375 279.233 74.293C279.358 74.1445 279.42 73.9746 279.42 73.7832V73.7715C279.42 73.5566 279.334 73.375 279.163 73.2266C278.991 73.0742 278.709 72.9512 278.319 72.8574L277.34 72.623C276.946 72.5293 276.622 72.4082 276.368 72.2598C276.114 72.1074 275.926 71.9219 275.805 71.7031C275.684 71.4805 275.624 71.2188 275.624 70.918V70.9121C275.624 70.5605 275.725 70.2461 275.928 69.9688C276.135 69.6914 276.417 69.4727 276.772 69.3125C277.127 69.1523 277.528 69.0723 277.973 69.0723C278.415 69.0723 278.805 69.1426 279.145 69.2832C279.489 69.4199 279.764 69.6152 279.971 69.8691C280.182 70.123 280.311 70.4219 280.358 70.7656H279.356C279.29 70.5156 279.137 70.3125 278.899 70.1562C278.661 70 278.35 69.9219 277.967 69.9219C277.717 69.9219 277.495 69.9629 277.299 70.0449C277.104 70.123 276.95 70.2324 276.836 70.373C276.723 70.5137 276.667 70.6777 276.667 70.8652V70.877C276.667 71.0176 276.704 71.1426 276.778 71.252C276.852 71.3613 276.967 71.457 277.124 71.5391C277.28 71.6211 277.481 71.6934 277.727 71.7559L278.7 71.9902C279.293 72.1348 279.735 72.3418 280.024 72.6113C280.317 72.8809 280.463 73.2422 280.463 73.6953V73.707C280.463 74.082 280.352 74.4141 280.129 74.7031C279.907 74.9883 279.604 75.2109 279.221 75.3711C278.842 75.5312 278.413 75.6113 277.932 75.6113Z" fill="#D3D3D3"/>
<path d="M30.7642 205.463C30.7642 201.045 34.3459 197.463 38.7642 197.463H77.9806C82.3989 197.463 85.9806 201.045 85.9806 205.463V276.5C85.9806 277.052 85.5329 277.5 84.9806 277.5H31.7642C31.2119 277.5 30.7642 277.052 30.7642 276.5V205.463Z" fill="url(#paint0_linear_430_714)"/>
<path d="M108.569 124.156C108.569 119.737 112.151 116.156 116.569 116.156H155.786C160.204 116.156 163.786 119.737 163.786 124.156V276.5C163.786 277.052 163.338 277.5 162.786 277.5H109.569C109.017 277.5 108.569 277.052 108.569 276.5V124.156Z" fill="url(#paint1_linear_430_714)"/>
<path d="M178.845 391.416C178.845 395.835 182.426 399.416 186.845 399.416H226.061C230.479 399.416 234.061 395.835 234.061 391.416V278.5C234.061 277.948 233.613 277.5 233.061 277.5H179.845C179.292 277.5 178.845 277.948 178.845 278.5V391.416Z" fill="url(#paint2_linear_430_714)"/>
<g filter="url(#filter0_d_430_714)">
<rect x="143.764" y="142.5" width="101" height="53" rx="8" fill="black" fill-opacity="0.5" shape-rendering="crispEdges"/>
<path d="M152.744 163V152.92H158.813V154.607H154.431V157.12H157.973V158.8H154.431V163H152.744ZM160.212 154.292V152.745H161.899V154.292H160.212ZM160.212 163V155.44H161.899V163H160.212ZM169.225 163V159.36C169.225 159.122 169.209 158.858 169.176 158.569C169.143 158.28 169.066 158.002 168.945 157.736C168.828 157.465 168.651 157.244 168.413 157.071C168.18 156.898 167.862 156.812 167.461 156.812C167.246 156.812 167.034 156.847 166.824 156.917C166.614 156.987 166.423 157.108 166.25 157.281C166.082 157.449 165.947 157.682 165.844 157.981C165.741 158.275 165.69 158.653 165.69 159.115L164.689 158.688C164.689 158.044 164.813 157.461 165.06 156.938C165.312 156.415 165.681 156 166.166 155.692C166.651 155.379 167.249 155.223 167.958 155.223C168.518 155.223 168.98 155.316 169.344 155.503C169.708 155.69 169.997 155.928 170.212 156.217C170.427 156.506 170.585 156.814 170.688 157.141C170.791 157.468 170.856 157.778 170.884 158.072C170.917 158.361 170.933 158.597 170.933 158.779V163H169.225ZM163.982 163V155.44H165.487V157.785H165.69V163H163.982ZM174.874 163.21C174.328 163.21 173.866 163.107 173.488 162.902C173.11 162.692 172.823 162.414 172.627 162.069C172.435 161.724 172.34 161.343 172.34 160.928C172.34 160.564 172.4 160.237 172.522 159.948C172.643 159.654 172.83 159.402 173.082 159.192C173.334 158.977 173.66 158.802 174.062 158.667C174.365 158.569 174.72 158.48 175.126 158.401C175.536 158.322 175.98 158.249 176.456 158.184C176.936 158.114 177.438 158.039 177.961 157.96L177.359 158.303C177.363 157.78 177.247 157.395 177.009 157.148C176.771 156.901 176.369 156.777 175.805 156.777C175.464 156.777 175.135 156.856 174.818 157.015C174.5 157.174 174.279 157.447 174.153 157.834L172.613 157.351C172.799 156.712 173.154 156.198 173.677 155.811C174.204 155.424 174.913 155.23 175.805 155.23C176.477 155.23 177.067 155.34 177.576 155.559C178.089 155.778 178.469 156.138 178.717 156.637C178.852 156.903 178.934 157.176 178.962 157.456C178.99 157.731 179.004 158.032 179.004 158.359V163H177.527V161.362L177.772 161.628C177.431 162.174 177.032 162.575 176.575 162.832C176.122 163.084 175.555 163.21 174.874 163.21ZM175.21 161.866C175.592 161.866 175.919 161.798 176.19 161.663C176.46 161.528 176.675 161.362 176.834 161.166C176.997 160.97 177.107 160.786 177.163 160.613C177.251 160.398 177.3 160.153 177.31 159.878C177.324 159.598 177.331 159.372 177.331 159.199L177.849 159.353C177.34 159.432 176.904 159.502 176.54 159.563C176.176 159.624 175.863 159.682 175.602 159.738C175.34 159.789 175.109 159.848 174.909 159.913C174.713 159.983 174.547 160.065 174.412 160.158C174.276 160.251 174.171 160.359 174.097 160.48C174.027 160.601 173.992 160.744 173.992 160.907C173.992 161.094 174.038 161.259 174.132 161.404C174.225 161.544 174.36 161.656 174.538 161.74C174.72 161.824 174.944 161.866 175.21 161.866ZM186.055 163V159.36C186.055 159.122 186.039 158.858 186.006 158.569C185.974 158.28 185.897 158.002 185.775 157.736C185.659 157.465 185.481 157.244 185.243 157.071C185.01 156.898 184.693 156.812 184.291 156.812C184.077 156.812 183.864 156.847 183.654 156.917C183.444 156.987 183.253 157.108 183.08 157.281C182.912 157.449 182.777 157.682 182.674 157.981C182.572 158.275 182.52 158.653 182.52 159.115L181.519 158.688C181.519 158.044 181.643 157.461 181.89 156.938C182.142 156.415 182.511 156 182.996 155.692C183.482 155.379 184.079 155.223 184.788 155.223C185.348 155.223 185.81 155.316 186.174 155.503C186.538 155.69 186.828 155.928 187.042 156.217C187.257 156.506 187.416 156.814 187.518 157.141C187.621 157.468 187.686 157.778 187.714 158.072C187.747 158.361 187.763 158.597 187.763 158.779V163H186.055ZM180.812 163V155.44H182.317V157.785H182.52V163H180.812ZM192.75 163.21C191.97 163.21 191.305 163.037 190.755 162.692C190.204 162.342 189.782 161.866 189.488 161.264C189.198 160.662 189.051 159.981 189.047 159.22C189.051 158.445 189.203 157.759 189.502 157.162C189.805 156.56 190.234 156.089 190.79 155.748C191.345 155.403 192.005 155.23 192.771 155.23C193.629 155.23 194.355 155.447 194.948 155.881C195.545 156.31 195.935 156.898 196.117 157.645L194.437 158.1C194.306 157.694 194.089 157.379 193.786 157.155C193.482 156.926 193.137 156.812 192.75 156.812C192.311 156.812 191.949 156.917 191.665 157.127C191.38 157.332 191.17 157.617 191.035 157.981C190.899 158.345 190.832 158.758 190.832 159.22C190.832 159.939 190.993 160.52 191.315 160.963C191.637 161.406 192.115 161.628 192.75 161.628C193.198 161.628 193.55 161.525 193.807 161.32C194.068 161.115 194.264 160.818 194.395 160.431L196.117 160.816C195.883 161.586 195.475 162.179 194.892 162.594C194.308 163.005 193.594 163.21 192.75 163.21ZM197.454 154.292V152.745H199.141V154.292H197.454ZM197.454 163V155.44H199.141V163H197.454ZM206.467 163V159.36C206.467 159.122 206.451 158.858 206.418 158.569C206.386 158.28 206.309 158.002 206.187 157.736C206.071 157.465 205.893 157.244 205.655 157.071C205.422 156.898 205.105 156.812 204.703 156.812C204.489 156.812 204.276 156.847 204.066 156.917C203.856 156.987 203.665 157.108 203.492 157.281C203.324 157.449 203.189 157.682 203.086 157.981C202.984 158.275 202.932 158.653 202.932 159.115L201.931 158.688C201.931 158.044 202.055 157.461 202.302 156.938C202.554 156.415 202.923 156 203.408 155.692C203.894 155.379 204.491 155.223 205.2 155.223C205.76 155.223 206.222 155.316 206.586 155.503C206.95 155.69 207.24 155.928 207.454 156.217C207.669 156.506 207.828 156.814 207.93 157.141C208.033 157.468 208.098 157.778 208.126 158.072C208.159 158.361 208.175 158.597 208.175 158.779V163H206.467ZM201.224 163V155.44H202.729V157.785H202.932V163H201.224ZM213.18 166.57C212.76 166.57 212.356 166.505 211.969 166.374C211.586 166.243 211.241 166.054 210.933 165.807C210.625 165.564 210.373 165.27 210.177 164.925L211.731 164.155C211.876 164.43 212.079 164.633 212.34 164.764C212.606 164.899 212.888 164.967 213.187 164.967C213.537 164.967 213.85 164.904 214.125 164.778C214.4 164.657 214.613 164.475 214.762 164.232C214.916 163.994 214.988 163.695 214.979 163.336V161.187H215.189V155.44H216.666V163.364C216.666 163.555 216.657 163.737 216.638 163.91C216.624 164.087 216.598 164.26 216.561 164.428C216.449 164.918 216.234 165.319 215.917 165.632C215.6 165.949 215.205 166.185 214.734 166.339C214.267 166.493 213.749 166.57 213.18 166.57ZM213.033 163.21C212.338 163.21 211.731 163.035 211.213 162.685C210.695 162.335 210.294 161.859 210.009 161.257C209.724 160.655 209.582 159.976 209.582 159.22C209.582 158.455 209.724 157.773 210.009 157.176C210.298 156.574 210.707 156.1 211.234 155.755C211.761 155.405 212.382 155.23 213.096 155.23C213.815 155.23 214.417 155.405 214.902 155.755C215.392 156.1 215.763 156.574 216.015 157.176C216.267 157.778 216.393 158.459 216.393 159.22C216.393 159.971 216.267 160.65 216.015 161.257C215.763 161.859 215.387 162.335 214.888 162.685C214.389 163.035 213.77 163.21 213.033 163.21ZM213.292 161.698C213.745 161.698 214.109 161.595 214.384 161.39C214.664 161.18 214.867 160.888 214.993 160.515C215.124 160.142 215.189 159.71 215.189 159.22C215.189 158.725 215.124 158.294 214.993 157.925C214.867 157.552 214.669 157.262 214.398 157.057C214.127 156.847 213.777 156.742 213.348 156.742C212.895 156.742 212.522 156.854 212.228 157.078C211.934 157.297 211.717 157.596 211.577 157.974C211.437 158.347 211.367 158.763 211.367 159.22C211.367 159.682 211.435 160.102 211.57 160.48C211.71 160.853 211.922 161.15 212.207 161.369C212.492 161.588 212.853 161.698 213.292 161.698Z" fill="white"/>
<path d="M155.383 187.393V185.734H157.07V187.393H155.383ZM155.383 176.193V174.534H157.07V176.193H155.383ZM156.265 186.21C155.556 186.21 154.921 186.079 154.361 185.818C153.801 185.557 153.341 185.188 152.982 184.712C152.627 184.236 152.401 183.671 152.303 183.018L153.969 182.752C154.1 183.326 154.38 183.783 154.809 184.124C155.243 184.46 155.761 184.628 156.363 184.628C156.942 184.628 157.418 184.493 157.791 184.222C158.164 183.947 158.351 183.599 158.351 183.179C158.351 182.885 158.262 182.647 158.085 182.465C157.908 182.278 157.623 182.124 157.231 182.003L154.802 181.247C153.388 180.808 152.681 179.95 152.681 178.671C152.681 178.074 152.823 177.553 153.108 177.11C153.397 176.662 153.803 176.319 154.326 176.081C154.849 175.838 155.465 175.719 156.174 175.724C156.832 175.729 157.418 175.848 157.931 176.081C158.449 176.314 158.878 176.65 159.219 177.089C159.564 177.528 159.809 178.055 159.954 178.671L158.225 178.986C158.16 178.655 158.031 178.363 157.84 178.111C157.649 177.859 157.408 177.663 157.119 177.523C156.83 177.383 156.508 177.308 156.153 177.299C155.812 177.294 155.507 177.348 155.236 177.46C154.965 177.567 154.751 177.721 154.592 177.922C154.433 178.118 154.354 178.34 154.354 178.587C154.354 178.862 154.464 179.098 154.683 179.294C154.907 179.49 155.259 179.658 155.74 179.798L157.553 180.323C158.426 180.575 159.053 180.918 159.436 181.352C159.823 181.781 160.017 182.353 160.017 183.067C160.017 183.692 159.861 184.241 159.548 184.712C159.235 185.183 158.797 185.552 158.232 185.818C157.667 186.079 157.012 186.21 156.265 186.21ZM164.058 185.986V184.516L168.37 180.673C168.706 180.374 168.939 180.092 169.07 179.826C169.201 179.56 169.266 179.303 169.266 179.056C169.266 178.72 169.194 178.421 169.049 178.16C168.904 177.894 168.704 177.684 168.447 177.53C168.195 177.376 167.903 177.299 167.572 177.299C167.222 177.299 166.912 177.381 166.641 177.544C166.375 177.703 166.167 177.915 166.018 178.181C165.869 178.447 165.799 178.734 165.808 179.042H164.072C164.072 178.37 164.221 177.784 164.52 177.285C164.823 176.786 165.239 176.398 165.766 176.123C166.298 175.848 166.912 175.71 167.607 175.71C168.251 175.71 168.83 175.855 169.343 176.144C169.856 176.429 170.26 176.825 170.554 177.334C170.848 177.838 170.995 178.419 170.995 179.077C170.995 179.558 170.93 179.961 170.799 180.288C170.668 180.615 170.472 180.916 170.211 181.191C169.954 181.466 169.635 181.772 169.252 182.108L166.193 184.817L166.039 184.397H170.995V185.986H164.058ZM175.667 186.21C175.153 186.21 174.675 186.105 174.232 185.895C173.788 185.68 173.406 185.386 173.084 185.013C172.766 184.64 172.538 184.206 172.398 183.711L174.022 183.277C174.087 183.548 174.206 183.781 174.379 183.977C174.556 184.173 174.761 184.325 174.995 184.432C175.233 184.539 175.478 184.593 175.73 184.593C176.056 184.593 176.355 184.514 176.626 184.355C176.896 184.196 177.111 183.984 177.27 183.718C177.428 183.447 177.508 183.149 177.508 182.822C177.508 182.495 177.426 182.199 177.263 181.933C177.104 181.662 176.889 181.45 176.619 181.296C176.348 181.137 176.052 181.058 175.73 181.058C175.342 181.058 175.02 181.128 174.764 181.268C174.512 181.408 174.318 181.557 174.183 181.716L172.741 181.254L173.049 175.92H178.523V177.502H173.952L174.582 176.907L174.358 180.617L174.05 180.239C174.311 180.001 174.614 179.824 174.96 179.707C175.305 179.59 175.639 179.532 175.961 179.532C176.591 179.532 177.148 179.677 177.634 179.966C178.124 180.251 178.506 180.64 178.782 181.135C179.062 181.63 179.202 182.192 179.202 182.822C179.202 183.452 179.038 184.024 178.712 184.537C178.385 185.046 177.953 185.452 177.417 185.755C176.885 186.058 176.301 186.21 175.667 186.21ZM184.507 186.21C183.793 186.21 183.163 186.058 182.617 185.755C182.071 185.447 181.644 185.02 181.336 184.474C181.033 183.928 180.881 183.298 180.881 182.584V179.336C180.881 178.622 181.033 177.992 181.336 177.446C181.644 176.9 182.071 176.475 182.617 176.172C183.163 175.864 183.793 175.71 184.507 175.71C185.221 175.71 185.849 175.864 186.39 176.172C186.936 176.475 187.363 176.9 187.671 177.446C187.979 177.992 188.133 178.622 188.133 179.336V182.584C188.133 183.298 187.979 183.928 187.671 184.474C187.363 185.02 186.936 185.447 186.39 185.755C185.849 186.058 185.221 186.21 184.507 186.21ZM184.507 184.607C184.862 184.607 185.184 184.523 185.473 184.355C185.762 184.182 185.991 183.954 186.159 183.669C186.327 183.38 186.411 183.058 186.411 182.703V179.21C186.411 178.851 186.327 178.529 186.159 178.244C185.991 177.955 185.762 177.726 185.473 177.558C185.184 177.385 184.862 177.299 184.507 177.299C184.152 177.299 183.83 177.385 183.541 177.558C183.252 177.726 183.023 177.955 182.855 178.244C182.687 178.529 182.603 178.851 182.603 179.21V182.703C182.603 183.058 182.687 183.38 182.855 183.669C183.023 183.954 183.252 184.182 183.541 184.355C183.83 184.523 184.152 184.607 184.507 184.607ZM189.956 187.785L190.054 187.057C190.268 187.076 190.439 187.038 190.565 186.945C190.691 186.856 190.775 186.728 190.817 186.56C190.863 186.397 190.875 186.21 190.852 186H189.956V184.201H191.685V186.07C191.685 186.681 191.54 187.143 191.251 187.456C190.961 187.769 190.53 187.878 189.956 187.785ZM197.974 186.21C197.26 186.21 196.63 186.058 196.084 185.755C195.538 185.447 195.111 185.02 194.803 184.474C194.499 183.928 194.348 183.298 194.348 182.584V179.336C194.348 178.622 194.499 177.992 194.803 177.446C195.111 176.9 195.538 176.475 196.084 176.172C196.63 175.864 197.26 175.71 197.974 175.71C198.688 175.71 199.315 175.864 199.857 176.172C200.403 176.475 200.83 176.9 201.138 177.446C201.446 177.992 201.6 178.622 201.6 179.336V182.584C201.6 183.298 201.446 183.928 201.138 184.474C200.83 185.02 200.403 185.447 199.857 185.755C199.315 186.058 198.688 186.21 197.974 186.21ZM197.974 184.607C198.328 184.607 198.65 184.523 198.94 184.355C199.229 184.182 199.458 183.954 199.626 183.669C199.794 183.38 199.878 183.058 199.878 182.703V179.21C199.878 178.851 199.794 178.529 199.626 178.244C199.458 177.955 199.229 177.726 198.94 177.558C198.65 177.385 198.328 177.299 197.974 177.299C197.619 177.299 197.297 177.385 197.008 177.558C196.718 177.726 196.49 177.955 196.322 178.244C196.154 178.529 196.07 178.851 196.07 179.21V182.703C196.07 183.058 196.154 183.38 196.322 183.669C196.49 183.954 196.718 184.182 197.008 184.355C197.297 184.523 197.619 184.607 197.974 184.607ZM207.189 186.21C206.475 186.21 205.845 186.058 205.299 185.755C204.753 185.447 204.326 185.02 204.018 184.474C203.714 183.928 203.563 183.298 203.563 182.584V179.336C203.563 178.622 203.714 177.992 204.018 177.446C204.326 176.9 204.753 176.475 205.299 176.172C205.845 175.864 206.475 175.71 207.189 175.71C207.903 175.71 208.53 175.864 209.072 176.172C209.618 176.475 210.045 176.9 210.353 177.446C210.661 177.992 210.815 178.622 210.815 179.336V182.584C210.815 183.298 210.661 183.928 210.353 184.474C210.045 185.02 209.618 185.447 209.072 185.755C208.53 186.058 207.903 186.21 207.189 186.21ZM207.189 184.607C207.543 184.607 207.865 184.523 208.155 184.355C208.444 184.182 208.673 183.954 208.841 183.669C209.009 183.38 209.093 183.058 209.093 182.703V179.21C209.093 178.851 209.009 178.529 208.841 178.244C208.673 177.955 208.444 177.726 208.155 177.558C207.865 177.385 207.543 177.299 207.189 177.299C206.834 177.299 206.512 177.385 206.223 177.558C205.933 177.726 205.705 177.955 205.537 178.244C205.369 178.529 205.285 178.851 205.285 179.21V182.703C205.285 183.058 205.369 183.38 205.537 183.669C205.705 183.954 205.933 184.182 206.223 184.355C206.512 184.523 206.834 184.607 207.189 184.607ZM216.403 186.21C215.689 186.21 215.059 186.058 214.513 185.755C213.967 185.447 213.54 185.02 213.232 184.474C212.929 183.928 212.777 183.298 212.777 182.584V179.336C212.777 178.622 212.929 177.992 213.232 177.446C213.54 176.9 213.967 176.475 214.513 176.172C215.059 175.864 215.689 175.71 216.403 175.71C217.117 175.71 217.745 175.864 218.286 176.172C218.832 176.475 219.259 176.9 219.567 177.446C219.875 177.992 220.029 178.622 220.029 179.336V182.584C220.029 183.298 219.875 183.928 219.567 184.474C219.259 185.02 218.832 185.447 218.286 185.755C217.745 186.058 217.117 186.21 216.403 186.21ZM216.403 184.607C216.758 184.607 217.08 184.523 217.369 184.355C217.659 184.182 217.887 183.954 218.055 183.669C218.223 183.38 218.307 183.058 218.307 182.703V179.21C218.307 178.851 218.223 178.529 218.055 178.244C217.887 177.955 217.659 177.726 217.369 177.558C217.08 177.385 216.758 177.299 216.403 177.299C216.049 177.299 215.727 177.385 215.437 177.558C215.148 177.726 214.919 177.955 214.751 178.244C214.583 178.529 214.499 178.851 214.499 179.21V182.703C214.499 183.058 214.583 183.38 214.751 183.669C214.919 183.954 215.148 184.182 215.437 184.355C215.727 184.523 216.049 184.607 216.403 184.607Z" fill="white"/>
<path d="M158.63 202C158.245 202.667 157.283 202.667 156.898 202L153.434 196C153.049 195.333 153.53 194.5 154.3 194.5H161.228C161.998 194.5 162.479 195.333 162.094 196L158.63 202Z" fill="black" fill-opacity="0.5"/>
</g>
<defs>
<filter id="filter0_d_430_714" x="103.764" y="106.5" width="181" height="140" filterUnits="userSpaceOnUse" color-interpolation-filters="sRGB">
<feFlood flood-opacity="0" result="BackgroundImageFix"/>
<feColorMatrix in="SourceAlpha" type="matrix" values="0 0 0 0 0 0 0 0 0 0 0 0 0 0 0 0 0 0 127 0" result="hardAlpha"/>
<feOffset dy="4"/>
<feGaussianBlur stdDeviation="20"/>
<feComposite in2="hardAlpha" operator="out"/>
<feColorMatrix type="matrix" values="0 0 0 0 0 0 0 0 0 0 0 0 0 0 0 0 0 0 0.1 0"/>
<feBlend mode="normal" in2="BackgroundImageFix" result="effect1_dropShadow_430_714"/>
<feBlend mode="normal" in="SourceGraphic" in2="effect1_dropShadow_430_714" result="shape"/>
</filter>
<linearGradient id="paint0_linear_430_714" x1="58.3724" y1="197.463" x2="58.3724" y2="277.5" gradientUnits="userSpaceOnUse">
<stop stop-color="#24F5C5"/>
<stop offset="1" stop-color="#00755A"/>
</linearGradient>
<linearGradient id="paint1_linear_430_714" x1="136.177" y1="116.156" x2="136.177" y2="277.5" gradientUnits="userSpaceOnUse">
<stop stop-color="#C06FFF"/>
<stop offset="1" stop-color="#510092"/>
</linearGradient>
<linearGradient id="paint2_linear_430_714" x1="206.453" y1="399.416" x2="206.453" y2="277.5" gradientUnits="userSpaceOnUse">
<stop stop-color="#FFD680"/>
<stop offset="1" stop-color="#FFAD00"/>
</linearGradient>
</defs>
</svg>
