<svg width="282" height="231" viewBox="0 0 282 231" fill="none" xmlns="http://www.w3.org/2000/svg">
<rect x="0.382324" y="0.5" width="281.035" height="229.895" rx="40" fill="white" fill-opacity="0.1"/>
<line x1="20.667" y1="130.796" x2="258.382" y2="130.796" stroke="white"/>
<path d="M28.4433 158.71C27.7527 158.71 27.1227 158.589 26.5533 158.346C25.984 158.103 25.494 157.756 25.0833 157.303C24.6727 156.846 24.3553 156.295 24.1313 155.651C23.912 155.002 23.8023 154.272 23.8023 153.46C23.8023 152.387 23.9937 151.458 24.3763 150.674C24.759 149.89 25.298 149.286 25.9933 148.861C26.6887 148.432 27.5053 148.217 28.4433 148.217C29.5727 148.217 30.4827 148.481 31.1733 149.008C31.864 149.531 32.34 150.247 32.6013 151.157L31.3413 151.416C31.1313 150.805 30.786 150.317 30.3053 149.953C29.8247 149.589 29.225 149.407 28.5063 149.407C27.755 149.402 27.1297 149.57 26.6303 149.911C26.1357 150.247 25.7623 150.721 25.5103 151.332C25.2583 151.943 25.13 152.653 25.1253 153.46C25.1207 154.263 25.2443 154.967 25.4963 155.574C25.7483 156.181 26.124 156.657 26.6233 157.002C27.1273 157.343 27.755 157.515 28.5063 157.52C29.155 157.525 29.701 157.401 30.1443 157.149C30.5877 156.897 30.9307 156.533 31.1733 156.057C31.416 155.581 31.563 155.009 31.6143 154.342H29.4723V153.313H32.9303C32.9443 153.406 32.9513 153.518 32.9513 153.649C32.956 153.775 32.9583 153.861 32.9583 153.908C32.9583 154.827 32.7857 155.651 32.4403 156.379C32.0997 157.102 31.5933 157.672 30.9213 158.087C30.254 158.502 29.428 158.71 28.4433 158.71ZM34.3565 158.5V150.94H35.4695V152.767L35.2875 152.529C35.3761 152.296 35.4905 152.081 35.6305 151.885C35.7751 151.689 35.9361 151.528 36.1135 151.402C36.3095 151.243 36.5311 151.122 36.7785 151.038C37.0258 150.954 37.2778 150.905 37.5345 150.891C37.7911 150.872 38.0315 150.889 38.2555 150.94V152.109C37.9941 152.039 37.7071 152.02 37.3945 152.053C37.0818 152.086 36.7925 152.2 36.5265 152.396C36.2838 152.569 36.0948 152.779 35.9595 153.026C35.8288 153.273 35.7378 153.542 35.6865 153.831C35.6351 154.116 35.6095 154.407 35.6095 154.706V158.5H34.3565ZM42.6624 158.71C41.9111 158.71 41.2624 158.54 40.7164 158.199C40.1751 157.858 39.7574 157.387 39.4634 156.785C39.1694 156.183 39.0224 155.492 39.0224 154.713C39.0224 153.92 39.1717 153.224 39.4704 152.627C39.7691 152.03 40.1914 151.565 40.7374 151.234C41.2834 150.898 41.9251 150.73 42.6624 150.73C43.4184 150.73 44.0694 150.9 44.6154 151.241C45.1614 151.577 45.5791 152.046 45.8684 152.648C46.1624 153.245 46.3094 153.934 46.3094 154.713C46.3094 155.502 46.1624 156.197 45.8684 156.799C45.5744 157.396 45.1544 157.865 44.6084 158.206C44.0624 158.542 43.4137 158.71 42.6624 158.71ZM42.6624 157.527C43.4464 157.527 44.0297 157.266 44.4124 156.743C44.7951 156.22 44.9864 155.544 44.9864 154.713C44.9864 153.859 44.7927 153.18 44.4054 152.676C44.0181 152.167 43.4371 151.913 42.6624 151.913C42.1351 151.913 41.7011 152.032 41.3604 152.27C41.0197 152.508 40.7654 152.837 40.5974 153.257C40.4294 153.677 40.3454 154.162 40.3454 154.713C40.3454 155.562 40.5414 156.244 40.9334 156.757C41.3254 157.27 41.9017 157.527 42.6624 157.527ZM50.5972 158.703C49.6966 158.703 48.9569 158.507 48.3782 158.115C47.8042 157.718 47.4519 157.165 47.3212 156.456L48.5952 156.253C48.6979 156.664 48.9336 156.99 49.3022 157.233C49.6709 157.471 50.1282 157.59 50.6742 157.59C51.1922 157.59 51.5982 157.483 51.8922 157.268C52.1862 157.053 52.3332 156.762 52.3332 156.393C52.3332 156.178 52.2842 156.006 52.1862 155.875C52.0882 155.74 51.8852 155.614 51.5772 155.497C51.2739 155.38 50.8142 155.24 50.1982 155.077C49.5309 154.9 49.0059 154.715 48.6232 154.524C48.2406 154.333 47.9676 154.111 47.8042 153.859C47.6409 153.607 47.5592 153.301 47.5592 152.942C47.5592 152.499 47.6806 152.111 47.9232 151.78C48.1659 151.444 48.5042 151.185 48.9382 151.003C49.3769 150.821 49.8856 150.73 50.4642 150.73C51.0382 150.73 51.5516 150.821 52.0042 151.003C52.4569 151.185 52.8209 151.444 53.0962 151.78C53.3762 152.111 53.5419 152.499 53.5932 152.942L52.3192 153.173C52.2586 152.767 52.0626 152.447 51.7312 152.214C51.4046 151.981 50.9822 151.857 50.4642 151.843C49.9742 151.824 49.5752 151.911 49.2672 152.102C48.9639 152.293 48.8122 152.552 48.8122 152.879C48.8122 153.061 48.8682 153.217 48.9802 153.348C49.0969 153.479 49.3092 153.602 49.6172 153.719C49.9299 153.836 50.3826 153.969 50.9752 154.118C51.6426 154.286 52.1676 154.47 52.5502 154.671C52.9376 154.867 53.2129 155.1 53.3762 155.371C53.5396 155.637 53.6212 155.966 53.6212 156.358C53.6212 157.086 53.3529 157.66 52.8162 158.08C52.2796 158.495 51.5399 158.703 50.5972 158.703ZM58.0211 158.703C57.1204 158.703 56.3807 158.507 55.8021 158.115C55.2281 157.718 54.8757 157.165 54.7451 156.456L56.0191 156.253C56.1217 156.664 56.3574 156.99 56.7261 157.233C57.0947 157.471 57.5521 157.59 58.0981 157.59C58.6161 157.59 59.0221 157.483 59.3161 157.268C59.6101 157.053 59.7571 156.762 59.7571 156.393C59.7571 156.178 59.7081 156.006 59.6101 155.875C59.5121 155.74 59.3091 155.614 59.0011 155.497C58.6977 155.38 58.2381 155.24 57.6221 155.077C56.9547 154.9 56.4297 154.715 56.0471 154.524C55.6644 154.333 55.3914 154.111 55.2281 153.859C55.0647 153.607 54.9831 153.301 54.9831 152.942C54.9831 152.499 55.1044 152.111 55.3471 151.78C55.5897 151.444 55.9281 151.185 56.3621 151.003C56.8007 150.821 57.3094 150.73 57.8881 150.73C58.4621 150.73 58.9754 150.821 59.4281 151.003C59.8807 151.185 60.2447 151.444 60.5201 151.78C60.8001 152.111 60.9657 152.499 61.0171 152.942L59.7431 153.173C59.6824 152.767 59.4864 152.447 59.1551 152.214C58.8284 151.981 58.4061 151.857 57.8881 151.843C57.3981 151.824 56.9991 151.911 56.6911 152.102C56.3877 152.293 56.2361 152.552 56.2361 152.879C56.2361 153.061 56.2921 153.217 56.4041 153.348C56.5207 153.479 56.7331 153.602 57.0411 153.719C57.3537 153.836 57.8064 153.969 58.3991 154.118C59.0664 154.286 59.5914 154.47 59.9741 154.671C60.3614 154.867 60.6367 155.1 60.8001 155.371C60.9634 155.637 61.0451 155.966 61.0451 156.358C61.0451 157.086 60.7767 157.66 60.2401 158.08C59.7034 158.495 58.9637 158.703 58.0211 158.703ZM65.3916 158.5V148.42H69.3746C69.4726 148.42 69.5893 148.425 69.7246 148.434C69.86 148.439 69.9906 148.453 70.1166 148.476C70.6626 148.56 71.12 148.747 71.4886 149.036C71.862 149.325 72.142 149.692 72.3286 150.135C72.5153 150.574 72.6086 151.061 72.6086 151.598C72.6086 152.13 72.513 152.618 72.3216 153.061C72.135 153.5 71.855 153.866 71.4816 154.16C71.113 154.449 70.658 154.636 70.1166 154.72C69.9906 154.739 69.86 154.753 69.7246 154.762C69.5893 154.771 69.4726 154.776 69.3746 154.776H66.6376V158.5H65.3916ZM66.6376 153.593H69.3326C69.4213 153.593 69.5216 153.588 69.6336 153.579C69.7503 153.57 69.86 153.553 69.9626 153.53C70.2846 153.455 70.546 153.32 70.7466 153.124C70.952 152.923 71.1013 152.69 71.1946 152.424C71.288 152.153 71.3346 151.878 71.3346 151.598C71.3346 151.318 71.288 151.045 71.1946 150.779C71.1013 150.508 70.952 150.273 70.7466 150.072C70.546 149.871 70.2846 149.736 69.9626 149.666C69.86 149.638 69.7503 149.622 69.6336 149.617C69.5216 149.608 69.4213 149.603 69.3326 149.603H66.6376V153.593ZM74.0049 158.5V150.94H75.1179V152.767L74.9359 152.529C75.0246 152.296 75.1389 152.081 75.2789 151.885C75.4236 151.689 75.5846 151.528 75.7619 151.402C75.9579 151.243 76.1796 151.122 76.4269 151.038C76.6742 150.954 76.9262 150.905 77.1829 150.891C77.4396 150.872 77.6799 150.889 77.9039 150.94V152.109C77.6426 152.039 77.3556 152.02 77.0429 152.053C76.7302 152.086 76.4409 152.2 76.1749 152.396C75.9322 152.569 75.7432 152.779 75.6079 153.026C75.4772 153.273 75.3862 153.542 75.3349 153.831C75.2836 154.116 75.2579 154.407 75.2579 154.706V158.5H74.0049ZM82.3108 158.71C81.5595 158.71 80.9108 158.54 80.3648 158.199C79.8235 157.858 79.4058 157.387 79.1118 156.785C78.8178 156.183 78.6708 155.492 78.6708 154.713C78.6708 153.92 78.8202 153.224 79.1188 152.627C79.4175 152.03 79.8398 151.565 80.3858 151.234C80.9318 150.898 81.5735 150.73 82.3108 150.73C83.0668 150.73 83.7178 150.9 84.2638 151.241C84.8098 151.577 85.2275 152.046 85.5168 152.648C85.8108 153.245 85.9578 153.934 85.9578 154.713C85.9578 155.502 85.8108 156.197 85.5168 156.799C85.2228 157.396 84.8028 157.865 84.2568 158.206C83.7108 158.542 83.0622 158.71 82.3108 158.71ZM82.3108 157.527C83.0948 157.527 83.6782 157.266 84.0608 156.743C84.4435 156.22 84.6348 155.544 84.6348 154.713C84.6348 153.859 84.4412 153.18 84.0538 152.676C83.6665 152.167 83.0855 151.913 82.3108 151.913C81.7835 151.913 81.3495 152.032 81.0088 152.27C80.6682 152.508 80.4138 152.837 80.2458 153.257C80.0778 153.677 79.9938 154.162 79.9938 154.713C79.9938 155.562 80.1898 156.244 80.5818 156.757C80.9738 157.27 81.5502 157.527 82.3108 157.527ZM88.22 158.5V150.527C88.22 150.331 88.2294 150.133 88.248 149.932C88.2667 149.727 88.3087 149.528 88.374 149.337C88.4394 149.141 88.5467 148.961 88.696 148.798C88.8687 148.607 89.0577 148.471 89.263 148.392C89.4684 148.308 89.676 148.257 89.886 148.238C90.1007 148.219 90.3037 148.21 90.495 148.21H91.454V149.246H90.565C90.1964 149.246 89.921 149.337 89.739 149.519C89.557 149.696 89.466 149.967 89.466 150.331V158.5H88.22ZM86.939 151.969V150.94H91.454V151.969H86.939ZM92.924 149.603V148.315H94.17V149.603H92.924ZM92.924 158.5V150.94H94.17V158.5H92.924ZM100.497 158.5C100.049 158.589 99.6061 158.624 99.1674 158.605C98.7334 158.591 98.3461 158.505 98.0054 158.346C97.6647 158.183 97.4057 157.931 97.2284 157.59C97.0791 157.291 96.9974 156.99 96.9834 156.687C96.9741 156.379 96.9694 156.031 96.9694 155.644V148.84H98.2154V155.588C98.2154 155.896 98.2177 156.16 98.2224 156.379C98.2317 156.598 98.2807 156.787 98.3694 156.946C98.5374 157.245 98.8034 157.42 99.1674 157.471C99.5361 157.522 99.9794 157.508 100.497 157.429V158.5ZM95.4364 151.969V150.94H100.497V151.969H95.4364ZM102.592 157.45V156.078H103.964V157.45H102.592ZM102.599 153.362V151.99H103.971V153.362H102.599ZM111.877 159.886V158.269H113.123V159.886H111.877ZM111.877 148.651V147.027H113.123V148.651H111.877ZM112.598 158.71C111.916 158.71 111.303 158.589 110.757 158.346C110.215 158.099 109.77 157.751 109.42 157.303C109.07 156.85 108.841 156.318 108.734 155.707L109.959 155.504C110.108 156.125 110.423 156.617 110.904 156.981C111.389 157.345 111.972 157.527 112.654 157.527C113.34 157.527 113.895 157.361 114.32 157.03C114.744 156.699 114.957 156.272 114.957 155.749C114.957 155.366 114.842 155.058 114.614 154.825C114.39 154.592 114.012 154.393 113.48 154.23L111.177 153.516C109.8 153.087 109.112 152.265 109.112 151.052C109.112 150.483 109.249 149.986 109.525 149.561C109.805 149.132 110.194 148.8 110.694 148.567C111.198 148.329 111.783 148.212 112.451 148.217C113.099 148.222 113.678 148.343 114.187 148.581C114.695 148.814 115.115 149.15 115.447 149.589C115.783 150.028 116.009 150.553 116.126 151.164L114.866 151.395C114.8 150.998 114.656 150.651 114.432 150.352C114.212 150.053 113.932 149.822 113.592 149.659C113.251 149.491 112.868 149.405 112.444 149.4C112.047 149.395 111.69 149.461 111.373 149.596C111.06 149.731 110.813 149.92 110.631 150.163C110.449 150.406 110.358 150.683 110.358 150.996C110.358 151.337 110.484 151.626 110.736 151.864C110.992 152.097 111.394 152.298 111.94 152.466L113.83 153.026C114.66 153.273 115.26 153.607 115.629 154.027C115.997 154.442 116.182 154.998 116.182 155.693C116.182 156.295 116.032 156.822 115.734 157.275C115.44 157.728 115.022 158.08 114.481 158.332C113.944 158.584 113.316 158.71 112.598 158.71ZM120.628 158.71C120.11 158.71 119.627 158.603 119.179 158.388C118.735 158.173 118.355 157.879 118.038 157.506C117.725 157.128 117.501 156.694 117.366 156.204L118.563 155.882C118.647 156.213 118.796 156.5 119.011 156.743C119.225 156.981 119.475 157.168 119.76 157.303C120.049 157.434 120.35 157.499 120.663 157.499C121.073 157.499 121.442 157.401 121.769 157.205C122.1 157.004 122.361 156.741 122.553 156.414C122.744 156.083 122.84 155.721 122.84 155.329C122.84 154.923 122.739 154.557 122.539 154.23C122.343 153.899 122.079 153.637 121.748 153.446C121.416 153.255 121.055 153.159 120.663 153.159C120.219 153.159 119.839 153.252 119.522 153.439C119.209 153.621 118.962 153.845 118.78 154.111L117.674 153.691L117.982 148.42H123.393V149.603H118.584L119.137 149.085L118.878 153.306L118.605 152.949C118.885 152.65 119.218 152.419 119.606 152.256C119.998 152.093 120.397 152.011 120.803 152.011C121.428 152.011 121.988 152.158 122.483 152.452C122.977 152.741 123.369 153.138 123.659 153.642C123.948 154.141 124.093 154.704 124.093 155.329C124.093 155.95 123.934 156.517 123.617 157.03C123.299 157.539 122.877 157.947 122.35 158.255C121.827 158.558 121.253 158.71 120.628 158.71ZM125.991 158.5V157.128H127.363V158.5H125.991ZM132.837 148.217C133.481 148.217 134.062 148.371 134.58 148.679C135.098 148.987 135.509 149.407 135.812 149.939C136.12 150.471 136.274 151.075 136.274 151.752V155.105C136.274 155.81 136.122 156.433 135.819 156.974C135.516 157.515 135.096 157.94 134.559 158.248C134.027 158.556 133.416 158.71 132.725 158.71C132.174 158.71 131.659 158.596 131.178 158.367C130.702 158.138 130.298 157.814 129.967 157.394L130.898 156.568C131.103 156.857 131.367 157.091 131.689 157.268C132.011 157.441 132.356 157.527 132.725 157.527C133.173 157.527 133.567 157.42 133.908 157.205C134.253 156.99 134.522 156.71 134.713 156.365C134.909 156.02 135.007 155.646 135.007 155.245V153.222L135.28 153.53C134.991 153.95 134.62 154.286 134.167 154.538C133.714 154.79 133.222 154.916 132.69 154.916C132.065 154.916 131.505 154.769 131.01 154.475C130.515 154.181 130.123 153.784 129.834 153.285C129.545 152.781 129.4 152.216 129.4 151.591C129.4 150.966 129.556 150.399 129.869 149.89C130.182 149.377 130.597 148.971 131.115 148.672C131.638 148.369 132.212 148.217 132.837 148.217ZM132.837 149.421C132.436 149.421 132.069 149.519 131.738 149.715C131.411 149.906 131.15 150.168 130.954 150.499C130.758 150.826 130.66 151.19 130.66 151.591C130.66 151.992 130.756 152.359 130.947 152.69C131.143 153.017 131.404 153.278 131.731 153.474C132.062 153.67 132.429 153.768 132.83 153.768C133.231 153.768 133.598 153.67 133.929 153.474C134.26 153.278 134.522 153.017 134.713 152.69C134.909 152.359 135.007 151.992 135.007 151.591C135.007 151.194 134.909 150.833 134.713 150.506C134.522 150.175 134.26 149.911 133.929 149.715C133.602 149.519 133.238 149.421 132.837 149.421ZM138.235 158.5V148.42H139.369L143.177 156.449L146.964 148.42H148.112V158.493H146.929V151.157L143.506 158.5H142.841L139.418 151.157V158.5H138.235Z" fill="white"/>
<rect x="202.382" y="141.5" width="58" height="23" rx="4" fill="#F43F5E"/>
<path d="M207.222 154.601V153.572H211.422V154.601H207.222ZM214.998 158.5V149.799L213.101 150.947V149.554L214.998 148.42H216.265V158.5H214.998ZM218.592 158.5V157.128H219.964V158.5H218.592ZM225.292 158.71C224.648 158.71 224.078 158.582 223.584 158.325C223.089 158.064 222.702 157.702 222.422 157.24C222.142 156.778 222.002 156.239 222.002 155.623C222.002 155.021 222.144 154.477 222.429 153.992C222.718 153.507 223.152 153.133 223.731 152.872L223.71 153.327C223.238 153.098 222.877 152.776 222.625 152.361C222.373 151.941 222.247 151.477 222.247 150.968C222.247 150.399 222.377 149.909 222.639 149.498C222.9 149.087 223.259 148.77 223.717 148.546C224.174 148.322 224.699 148.21 225.292 148.21C225.884 148.21 226.409 148.322 226.867 148.546C227.324 148.77 227.683 149.087 227.945 149.498C228.206 149.909 228.337 150.399 228.337 150.968C228.337 151.477 228.218 151.939 227.98 152.354C227.742 152.765 227.375 153.089 226.881 153.327L226.853 152.879C227.431 153.131 227.865 153.502 228.155 153.992C228.449 154.477 228.596 155.021 228.596 155.623C228.596 156.239 228.453 156.778 228.169 157.24C227.889 157.702 227.499 158.064 227 158.325C226.505 158.582 225.936 158.71 225.292 158.71ZM225.292 157.52C225.88 157.52 226.356 157.359 226.72 157.037C227.088 156.71 227.273 156.239 227.273 155.623C227.273 155.002 227.091 154.531 226.727 154.209C226.367 153.882 225.889 153.719 225.292 153.719C224.699 153.719 224.221 153.882 223.857 154.209C223.497 154.531 223.318 155.002 223.318 155.623C223.318 156.239 223.5 156.71 223.864 157.037C224.228 157.359 224.704 157.52 225.292 157.52ZM225.292 152.522C225.805 152.522 226.22 152.394 226.538 152.137C226.855 151.876 227.014 151.486 227.014 150.968C227.014 150.45 226.855 150.063 226.538 149.806C226.22 149.545 225.805 149.414 225.292 149.414C224.783 149.414 224.368 149.545 224.046 149.806C223.728 150.063 223.57 150.45 223.57 150.968C223.57 151.486 223.728 151.876 224.046 152.137C224.368 152.394 224.783 152.522 225.292 152.522ZM231.533 158.5L230.693 157.66L239.947 148.42L240.787 149.26L231.533 158.5ZM238.687 158.71C238.225 158.71 237.803 158.598 237.42 158.374C237.042 158.145 236.739 157.842 236.51 157.464C236.281 157.081 236.167 156.657 236.167 156.19C236.167 155.733 236.284 155.313 236.517 154.93C236.75 154.547 237.058 154.242 237.441 154.013C237.824 153.784 238.239 153.67 238.687 153.67C239.149 153.67 239.571 153.784 239.954 154.013C240.337 154.237 240.64 154.54 240.864 154.923C241.093 155.301 241.207 155.723 241.207 156.19C241.207 156.657 241.093 157.081 240.864 157.464C240.64 157.842 240.337 158.145 239.954 158.374C239.571 158.598 239.149 158.71 238.687 158.71ZM238.687 157.611C238.944 157.611 239.179 157.546 239.394 157.415C239.613 157.284 239.786 157.112 239.912 156.897C240.043 156.682 240.108 156.447 240.108 156.19C240.108 155.933 240.043 155.698 239.912 155.483C239.786 155.264 239.613 155.091 239.394 154.965C239.179 154.834 238.944 154.769 238.687 154.769C238.43 154.769 238.195 154.834 237.98 154.965C237.765 155.091 237.593 155.264 237.462 155.483C237.331 155.698 237.266 155.933 237.266 156.19C237.266 156.447 237.331 156.682 237.462 156.897C237.593 157.112 237.765 157.284 237.98 157.415C238.195 157.546 238.43 157.611 238.687 157.611ZM232.793 153.25C232.331 153.25 231.909 153.138 231.526 152.914C231.143 152.685 230.838 152.382 230.609 152.004C230.385 151.621 230.273 151.197 230.273 150.73C230.273 150.273 230.39 149.853 230.623 149.47C230.856 149.087 231.164 148.782 231.547 148.553C231.93 148.324 232.345 148.21 232.793 148.21C233.255 148.21 233.675 148.324 234.053 148.553C234.436 148.777 234.741 149.08 234.97 149.463C235.199 149.841 235.313 150.263 235.313 150.73C235.313 151.197 235.199 151.621 234.97 152.004C234.741 152.382 234.436 152.685 234.053 152.914C233.675 153.138 233.255 153.25 232.793 153.25ZM232.793 152.151C233.05 152.151 233.285 152.086 233.5 151.955C233.719 151.824 233.892 151.652 234.018 151.437C234.149 151.222 234.214 150.987 234.214 150.73C234.214 150.473 234.149 150.238 234.018 150.023C233.892 149.804 233.719 149.631 233.5 149.505C233.285 149.374 233.05 149.309 232.793 149.309C232.536 149.309 232.301 149.374 232.086 149.505C231.871 149.631 231.699 149.804 231.568 150.023C231.437 150.238 231.372 150.473 231.372 150.73C231.372 150.987 231.437 151.222 231.568 151.437C231.699 151.652 231.871 151.824 232.086 151.955C232.301 152.086 232.536 152.151 232.793 152.151Z" fill="white"/>
<path d="M253.903 155.19L250.906 158.187C250.729 158.364 250.451 158.381 250.255 158.236L250.199 158.187L247.196 155.191C247.001 154.996 247 154.679 247.195 154.483C247.373 154.306 247.65 154.289 247.846 154.434L247.902 154.483L250.051 156.627L250.05 148.163C250.05 147.91 250.239 147.701 250.483 147.668L250.55 147.663C250.804 147.663 251.013 147.852 251.046 148.096L251.05 148.163L251.051 156.629L253.195 154.483C253.373 154.306 253.651 154.289 253.846 154.435L253.902 154.483C254.08 154.661 254.096 154.938 253.951 155.134L253.903 155.19Z" fill="white"/>
<path d="M24.3623 197.5V187.42H25.6223L30.8793 195.295V187.42H32.1393V197.5H30.8793L25.6223 189.618V197.5H24.3623ZM37.3727 197.71C36.6307 197.71 35.982 197.547 35.4267 197.22C34.876 196.889 34.4467 196.429 34.1387 195.841C33.8307 195.248 33.6767 194.558 33.6767 193.769C33.6767 192.943 33.8284 192.229 34.1317 191.627C34.435 191.02 34.8574 190.554 35.3987 190.227C35.9447 189.896 36.584 189.73 37.3167 189.73C38.0774 189.73 38.7237 189.905 39.2557 190.255C39.7924 190.605 40.1937 191.104 40.4597 191.753C40.7304 192.402 40.847 193.174 40.8097 194.07H39.5497V193.622C39.5357 192.693 39.3467 192 38.9827 191.543C38.6187 191.081 38.0774 190.85 37.3587 190.85C36.5887 190.85 36.003 191.097 35.6017 191.592C35.2004 192.087 34.9997 192.796 34.9997 193.72C34.9997 194.611 35.2004 195.302 35.6017 195.792C36.003 196.282 36.5747 196.527 37.3167 196.527C37.816 196.527 38.25 196.413 38.6187 196.184C38.9874 195.955 39.2767 195.626 39.4867 195.197L40.6837 195.61C40.3897 196.277 39.9464 196.795 39.3537 197.164C38.7657 197.528 38.1054 197.71 37.3727 197.71ZM34.5797 194.07V193.069H40.1657V194.07H34.5797ZM46.5892 197.5C46.1412 197.589 45.6979 197.624 45.2592 197.605C44.8252 197.591 44.4379 197.505 44.0972 197.346C43.7565 197.183 43.4975 196.931 43.3202 196.59C43.1709 196.291 43.0892 195.99 43.0752 195.687C43.0659 195.379 43.0612 195.031 43.0612 194.644V187.84H44.3072V194.588C44.3072 194.896 44.3095 195.16 44.3142 195.379C44.3235 195.598 44.3725 195.787 44.4612 195.946C44.6292 196.245 44.8952 196.42 45.2592 196.471C45.6279 196.522 46.0712 196.508 46.5892 196.429V197.5ZM41.5282 190.969V189.94H46.5892V190.969H41.5282ZM50.9268 197.5V187.42H54.9098C55.0078 187.42 55.1244 187.425 55.2598 187.434C55.3951 187.439 55.5258 187.453 55.6518 187.476C56.1978 187.56 56.6551 187.747 57.0238 188.036C57.3971 188.325 57.6771 188.692 57.8638 189.135C58.0504 189.574 58.1438 190.061 58.1438 190.598C58.1438 191.13 58.0481 191.618 57.8568 192.061C57.6701 192.5 57.3901 192.866 57.0168 193.16C56.6481 193.449 56.1931 193.636 55.6518 193.72C55.5258 193.739 55.3951 193.753 55.2598 193.762C55.1244 193.771 55.0078 193.776 54.9098 193.776H52.1728V197.5H50.9268ZM52.1728 192.593H54.8678C54.9564 192.593 55.0568 192.588 55.1688 192.579C55.2854 192.57 55.3951 192.553 55.4978 192.53C55.8198 192.455 56.0811 192.32 56.2818 192.124C56.4871 191.923 56.6364 191.69 56.7298 191.424C56.8231 191.153 56.8698 190.878 56.8698 190.598C56.8698 190.318 56.8231 190.045 56.7298 189.779C56.6364 189.508 56.4871 189.273 56.2818 189.072C56.0811 188.871 55.8198 188.736 55.4978 188.666C55.3951 188.638 55.2854 188.622 55.1688 188.617C55.0568 188.608 54.9564 188.603 54.8678 188.603H52.1728V192.593ZM59.5401 197.5V189.94H60.6531V191.767L60.4711 191.529C60.5597 191.296 60.6741 191.081 60.8141 190.885C60.9587 190.689 61.1197 190.528 61.2971 190.402C61.4931 190.243 61.7147 190.122 61.9621 190.038C62.2094 189.954 62.4614 189.905 62.7181 189.891C62.9747 189.872 63.2151 189.889 63.4391 189.94V191.109C63.1777 191.039 62.8907 191.02 62.5781 191.053C62.2654 191.086 61.9761 191.2 61.7101 191.396C61.4674 191.569 61.2784 191.779 61.1431 192.026C61.0124 192.273 60.9214 192.542 60.8701 192.831C60.8187 193.116 60.7931 193.407 60.7931 193.706V197.5H59.5401ZM67.846 197.71C67.0947 197.71 66.446 197.54 65.9 197.199C65.3587 196.858 64.941 196.387 64.647 195.785C64.353 195.183 64.206 194.492 64.206 193.713C64.206 192.92 64.3553 192.224 64.654 191.627C64.9527 191.03 65.375 190.565 65.921 190.234C66.467 189.898 67.1087 189.73 67.846 189.73C68.602 189.73 69.253 189.9 69.799 190.241C70.345 190.577 70.7627 191.046 71.052 191.648C71.346 192.245 71.493 192.934 71.493 193.713C71.493 194.502 71.346 195.197 71.052 195.799C70.758 196.396 70.338 196.865 69.792 197.206C69.246 197.542 68.5973 197.71 67.846 197.71ZM67.846 196.527C68.63 196.527 69.2133 196.266 69.596 195.743C69.9787 195.22 70.17 194.544 70.17 193.713C70.17 192.859 69.9763 192.18 69.589 191.676C69.2017 191.167 68.6207 190.913 67.846 190.913C67.3187 190.913 66.8847 191.032 66.544 191.27C66.2033 191.508 65.949 191.837 65.781 192.257C65.613 192.677 65.529 193.162 65.529 193.713C65.529 194.562 65.725 195.244 66.117 195.757C66.509 196.27 67.0853 196.527 67.846 196.527ZM73.7552 197.5V189.527C73.7552 189.331 73.7645 189.133 73.7832 188.932C73.8019 188.727 73.8439 188.528 73.9092 188.337C73.9745 188.141 74.0819 187.961 74.2312 187.798C74.4039 187.607 74.5929 187.471 74.7982 187.392C75.0035 187.308 75.2112 187.257 75.4212 187.238C75.6359 187.219 75.8389 187.21 76.0302 187.21H76.9892V188.246H76.1002C75.7315 188.246 75.4562 188.337 75.2742 188.519C75.0922 188.696 75.0012 188.967 75.0012 189.331V197.5H73.7552ZM72.4742 190.969V189.94H76.9892V190.969H72.4742ZM78.4592 188.603V187.315H79.7052V188.603H78.4592ZM78.4592 197.5V189.94H79.7052V197.5H78.4592ZM86.0325 197.5C85.5845 197.589 85.1412 197.624 84.7025 197.605C84.2685 197.591 83.8812 197.505 83.5405 197.346C83.1999 197.183 82.9409 196.931 82.7635 196.59C82.6142 196.291 82.5325 195.99 82.5185 195.687C82.5092 195.379 82.5045 195.031 82.5045 194.644V187.84H83.7505V194.588C83.7505 194.896 83.7529 195.16 83.7575 195.379C83.7669 195.598 83.8159 195.787 83.9045 195.946C84.0725 196.245 84.3385 196.42 84.7025 196.471C85.0712 196.522 85.5145 196.508 86.0325 196.429V197.5ZM80.9715 190.969V189.94H86.0325V190.969H80.9715ZM88.1274 196.45V195.078H89.4994V196.45H88.1274ZM88.1344 192.362V190.99H89.5064V192.362H88.1344ZM97.4118 198.886V197.269H98.6578V198.886H97.4118ZM97.4118 187.651V186.027H98.6578V187.651H97.4118ZM98.1328 197.71C97.4515 197.71 96.8378 197.589 96.2918 197.346C95.7505 197.099 95.3048 196.751 94.9548 196.303C94.6048 195.85 94.3761 195.318 94.2688 194.707L95.4938 194.504C95.6431 195.125 95.9581 195.617 96.4388 195.981C96.9241 196.345 97.5075 196.527 98.1888 196.527C98.8748 196.527 99.4301 196.361 99.8548 196.03C100.279 195.699 100.492 195.272 100.492 194.749C100.492 194.366 100.377 194.058 100.149 193.825C99.9248 193.592 99.5468 193.393 99.0148 193.23L96.7118 192.516C95.3351 192.087 94.6468 191.265 94.6468 190.052C94.6468 189.483 94.7845 188.986 95.0598 188.561C95.3398 188.132 95.7295 187.8 96.2288 187.567C96.7328 187.329 97.3185 187.212 97.9858 187.217C98.6345 187.222 99.2131 187.343 99.7218 187.581C100.23 187.814 100.65 188.15 100.982 188.589C101.318 189.028 101.544 189.553 101.661 190.164L100.401 190.395C100.335 189.998 100.191 189.651 99.9668 189.352C99.7475 189.053 99.4675 188.822 99.1268 188.659C98.7861 188.491 98.4035 188.405 97.9788 188.4C97.5821 188.395 97.2251 188.461 96.9078 188.596C96.5951 188.731 96.3478 188.92 96.1658 189.163C95.9838 189.406 95.8928 189.683 95.8928 189.996C95.8928 190.337 96.0188 190.626 96.2708 190.864C96.5275 191.097 96.9288 191.298 97.4748 191.466L99.3648 192.026C100.195 192.273 100.795 192.607 101.164 193.027C101.532 193.442 101.717 193.998 101.717 194.693C101.717 195.295 101.567 195.822 101.269 196.275C100.975 196.728 100.557 197.08 100.016 197.332C99.4791 197.584 98.8515 197.71 98.1328 197.71ZM106.583 197.71C105.929 197.71 105.346 197.563 104.833 197.269C104.324 196.97 103.92 196.567 103.622 196.058C103.328 195.545 103.181 194.961 103.181 194.308V190.612C103.181 189.959 103.328 189.375 103.622 188.862C103.92 188.349 104.324 187.945 104.833 187.651C105.346 187.357 105.929 187.21 106.583 187.21C107.236 187.21 107.819 187.357 108.333 187.651C108.846 187.945 109.25 188.349 109.544 188.862C109.838 189.375 109.985 189.959 109.985 190.612V194.308C109.985 194.961 109.838 195.545 109.544 196.058C109.25 196.567 108.846 196.97 108.333 197.269C107.819 197.563 107.236 197.71 106.583 197.71ZM106.583 196.513C106.979 196.513 107.339 196.417 107.661 196.226C107.983 196.035 108.239 195.778 108.431 195.456C108.622 195.129 108.718 194.77 108.718 194.378V190.535C108.718 190.138 108.622 189.779 108.431 189.457C108.239 189.135 107.983 188.878 107.661 188.687C107.339 188.496 106.979 188.4 106.583 188.4C106.191 188.4 105.831 188.496 105.505 188.687C105.183 188.878 104.926 189.135 104.735 189.457C104.543 189.779 104.448 190.138 104.448 190.535V194.378C104.448 194.77 104.543 195.129 104.735 195.456C104.926 195.778 105.183 196.035 105.505 196.226C105.831 196.417 106.191 196.513 106.583 196.513ZM112.168 197.5V196.128H113.54V197.5H112.168ZM118.7 197.71C118.182 197.71 117.699 197.603 117.251 197.388C116.807 197.173 116.427 196.879 116.11 196.506C115.797 196.128 115.573 195.694 115.438 195.204L116.635 194.882C116.719 195.213 116.868 195.5 117.083 195.743C117.297 195.981 117.547 196.168 117.832 196.303C118.121 196.434 118.422 196.499 118.735 196.499C119.145 196.499 119.514 196.401 119.841 196.205C120.172 196.004 120.433 195.741 120.625 195.414C120.816 195.083 120.912 194.721 120.912 194.329C120.912 193.923 120.811 193.557 120.611 193.23C120.415 192.899 120.151 192.637 119.82 192.446C119.488 192.255 119.127 192.159 118.735 192.159C118.291 192.159 117.911 192.252 117.594 192.439C117.281 192.621 117.034 192.845 116.852 193.111L115.746 192.691L116.054 187.42H121.465V188.603H116.656L117.209 188.085L116.95 192.306L116.677 191.949C116.957 191.65 117.29 191.419 117.678 191.256C118.07 191.093 118.469 191.011 118.875 191.011C119.5 191.011 120.06 191.158 120.555 191.452C121.049 191.741 121.441 192.138 121.731 192.642C122.02 193.141 122.165 193.704 122.165 194.329C122.165 194.95 122.006 195.517 121.689 196.03C121.371 196.539 120.949 196.947 120.422 197.255C119.899 197.558 119.325 197.71 118.7 197.71ZM123.839 197.5V187.42H124.973L128.781 195.449L132.568 187.42H133.716V197.493H132.533V190.157L129.11 197.5H128.445L125.022 190.157V197.5H123.839Z" fill="white"/>
<rect x="196.382" y="180.5" width="64" height="23" rx="4" fill="#10B981"/>
<path d="M203.896 195.645V192.971H201.222V191.942H203.896V189.275H204.925V191.942H207.592V192.971H204.925V195.645H203.896ZM212.817 197.71C212.164 197.71 211.58 197.563 211.067 197.269C210.558 196.97 210.155 196.567 209.856 196.058C209.562 195.545 209.415 194.961 209.415 194.308V190.612C209.415 189.959 209.562 189.375 209.856 188.862C210.155 188.349 210.558 187.945 211.067 187.651C211.58 187.357 212.164 187.21 212.817 187.21C213.47 187.21 214.054 187.357 214.567 187.651C215.08 187.945 215.484 188.349 215.778 188.862C216.072 189.375 216.219 189.959 216.219 190.612V194.308C216.219 194.961 216.072 195.545 215.778 196.058C215.484 196.567 215.08 196.97 214.567 197.269C214.054 197.563 213.47 197.71 212.817 197.71ZM212.817 196.513C213.214 196.513 213.573 196.417 213.895 196.226C214.217 196.035 214.474 195.778 214.665 195.456C214.856 195.129 214.952 194.77 214.952 194.378V190.535C214.952 190.138 214.856 189.779 214.665 189.457C214.474 189.135 214.217 188.878 213.895 188.687C213.573 188.496 213.214 188.4 212.817 188.4C212.425 188.4 212.066 188.496 211.739 188.687C211.417 188.878 211.16 189.135 210.969 189.457C210.778 189.779 210.682 190.138 210.682 190.535V194.378C210.682 194.77 210.778 195.129 210.969 195.456C211.16 195.778 211.417 196.035 211.739 196.226C212.066 196.417 212.425 196.513 212.817 196.513ZM218.403 197.5V196.128H219.775V197.5H218.403ZM221.672 197.493L221.679 196.373L226.152 192.348C226.526 192.012 226.775 191.695 226.901 191.396C227.032 191.093 227.097 190.782 227.097 190.465C227.097 190.078 227.009 189.728 226.831 189.415C226.654 189.102 226.411 188.855 226.103 188.673C225.8 188.491 225.455 188.4 225.067 188.4C224.666 188.4 224.309 188.496 223.996 188.687C223.684 188.874 223.436 189.123 223.254 189.436C223.077 189.749 222.991 190.089 222.995 190.458H221.721C221.721 189.823 221.868 189.263 222.162 188.778C222.456 188.288 222.855 187.905 223.359 187.63C223.868 187.35 224.444 187.21 225.088 187.21C225.714 187.21 226.274 187.355 226.768 187.644C227.263 187.929 227.653 188.318 227.937 188.813C228.227 189.303 228.371 189.858 228.371 190.479C228.371 190.918 228.315 191.298 228.203 191.62C228.096 191.942 227.928 192.241 227.699 192.516C227.471 192.787 227.184 193.076 226.838 193.384L223.121 196.723L222.96 196.303H228.371V197.493H221.672ZM231.166 197.5L230.326 196.66L239.58 187.42L240.42 188.26L231.166 197.5ZM238.32 197.71C237.858 197.71 237.436 197.598 237.053 197.374C236.675 197.145 236.372 196.842 236.143 196.464C235.914 196.081 235.8 195.657 235.8 195.19C235.8 194.733 235.917 194.313 236.15 193.93C236.383 193.547 236.691 193.242 237.074 193.013C237.457 192.784 237.872 192.67 238.32 192.67C238.782 192.67 239.204 192.784 239.587 193.013C239.97 193.237 240.273 193.54 240.497 193.923C240.726 194.301 240.84 194.723 240.84 195.19C240.84 195.657 240.726 196.081 240.497 196.464C240.273 196.842 239.97 197.145 239.587 197.374C239.204 197.598 238.782 197.71 238.32 197.71ZM238.32 196.611C238.577 196.611 238.812 196.546 239.027 196.415C239.246 196.284 239.419 196.112 239.545 195.897C239.676 195.682 239.741 195.447 239.741 195.19C239.741 194.933 239.676 194.698 239.545 194.483C239.419 194.264 239.246 194.091 239.027 193.965C238.812 193.834 238.577 193.769 238.32 193.769C238.063 193.769 237.828 193.834 237.613 193.965C237.398 194.091 237.226 194.264 237.095 194.483C236.964 194.698 236.899 194.933 236.899 195.19C236.899 195.447 236.964 195.682 237.095 195.897C237.226 196.112 237.398 196.284 237.613 196.415C237.828 196.546 238.063 196.611 238.32 196.611ZM232.426 192.25C231.964 192.25 231.542 192.138 231.159 191.914C230.776 191.685 230.471 191.382 230.242 191.004C230.018 190.621 229.906 190.197 229.906 189.73C229.906 189.273 230.023 188.853 230.256 188.47C230.489 188.087 230.797 187.782 231.18 187.553C231.563 187.324 231.978 187.21 232.426 187.21C232.888 187.21 233.308 187.324 233.686 187.553C234.069 187.777 234.374 188.08 234.603 188.463C234.832 188.841 234.946 189.263 234.946 189.73C234.946 190.197 234.832 190.621 234.603 191.004C234.374 191.382 234.069 191.685 233.686 191.914C233.308 192.138 232.888 192.25 232.426 192.25ZM232.426 191.151C232.683 191.151 232.918 191.086 233.133 190.955C233.352 190.824 233.525 190.652 233.651 190.437C233.782 190.222 233.847 189.987 233.847 189.73C233.847 189.473 233.782 189.238 233.651 189.023C233.525 188.804 233.352 188.631 233.133 188.505C232.918 188.374 232.683 188.309 232.426 188.309C232.169 188.309 231.934 188.374 231.719 188.505C231.504 188.631 231.332 188.804 231.201 189.023C231.07 189.238 231.005 189.473 231.005 189.73C231.005 189.987 231.07 190.222 231.201 190.437C231.332 190.652 231.504 190.824 231.719 190.955C231.934 191.086 232.169 191.151 232.426 191.151Z" fill="white"/>
<path d="M246.862 189.81L249.859 186.813C250.036 186.636 250.314 186.619 250.509 186.764L250.565 186.813L253.569 189.809C253.764 190.004 253.764 190.321 253.569 190.517C253.392 190.694 253.114 190.711 252.918 190.566L252.862 190.517L250.714 188.373L250.714 196.837C250.714 197.09 250.526 197.299 250.282 197.332L250.214 197.337C249.961 197.337 249.752 197.148 249.719 196.904L249.714 196.837L249.714 188.371L247.569 190.517C247.392 190.694 247.114 190.711 246.918 190.565L246.862 190.517C246.685 190.339 246.668 190.062 246.814 189.866L246.862 189.81Z" fill="white"/>
<path d="M31.1714 115.433V111.641H35.0274V115.433H31.1714ZM31.1714 89.833V86.041H35.0274V89.833H31.1714ZM33.1874 112.729C31.5661 112.729 30.1154 112.43 28.8354 111.833C27.5554 111.236 26.5047 110.393 25.6834 109.305C24.8727 108.217 24.3554 106.926 24.1314 105.433L27.9394 104.825C28.2381 106.137 28.8781 107.182 29.8594 107.961C30.8514 108.729 32.0354 109.113 33.4114 109.113C34.7341 109.113 35.8221 108.804 36.6754 108.185C37.5287 107.556 37.9554 106.761 37.9554 105.801C37.9554 105.129 37.7527 104.585 37.3474 104.169C36.9421 103.742 36.2914 103.39 35.3954 103.113L29.8434 101.385C26.6114 100.382 24.9954 98.4197 24.9954 95.497C24.9954 94.1317 25.3207 92.9424 25.9714 91.929C26.6327 90.905 27.5607 90.121 28.7554 89.577C29.9501 89.0224 31.3581 88.7504 32.9794 88.761C34.4834 88.7717 35.8221 89.0437 36.9954 89.577C38.1794 90.1104 39.1607 90.8784 39.9394 91.881C40.7287 92.8837 41.2887 94.089 41.6194 95.497L37.6674 96.217C37.5181 95.4597 37.2247 94.793 36.7874 94.217C36.3501 93.641 35.8007 93.193 35.1394 92.873C34.4781 92.553 33.7421 92.3824 32.9314 92.361C32.1527 92.3504 31.4541 92.473 30.8354 92.729C30.2167 92.9744 29.7261 93.3264 29.3634 93.785C29.0007 94.233 28.8194 94.7397 28.8194 95.305C28.8194 95.9344 29.0701 96.473 29.5714 96.921C30.0834 97.369 30.8887 97.753 31.9874 98.073L36.1314 99.273C38.1261 99.849 39.5607 100.633 40.4354 101.625C41.3207 102.606 41.7634 103.913 41.7634 105.545C41.7634 106.974 41.4061 108.228 40.6914 109.305C39.9767 110.382 38.9741 111.225 37.6834 111.833C36.3927 112.43 34.8941 112.729 33.1874 112.729ZM49.2332 112.249V93.417L44.9132 96.057V91.801L49.2332 89.209H53.1692V112.249H49.2332ZM58.6232 112.249V108.297H62.5752V112.249H58.6232ZM75.1419 88.761C76.6459 88.761 78.0006 89.1184 79.2059 89.833C80.4112 90.537 81.3606 91.5184 82.0539 92.777C82.7579 94.025 83.1099 95.465 83.1099 97.097V104.121C83.1099 105.86 82.7579 107.38 82.0539 108.681C81.3606 109.972 80.3846 110.969 79.1259 111.673C77.8672 112.377 76.3952 112.729 74.7099 112.729C73.5472 112.729 72.4486 112.532 71.4139 112.137C70.3792 111.732 69.4512 111.113 68.6299 110.281L71.3979 107.577C71.8139 108.057 72.3099 108.436 72.8859 108.713C73.4726 108.98 74.0806 109.113 74.7099 109.113C75.6059 109.113 76.3899 108.905 77.0619 108.489C77.7339 108.062 78.2566 107.513 78.6299 106.841C79.0032 106.158 79.1899 105.428 79.1899 104.649V100.825L79.8779 101.593C79.2272 102.361 78.4379 102.964 77.5099 103.401C76.5819 103.828 75.6059 104.041 74.5819 104.041C73.1419 104.041 71.8619 103.71 70.7419 103.049C69.6326 102.388 68.7579 101.492 68.1179 100.361C67.4886 99.2197 67.1739 97.929 67.1739 96.489C67.1739 95.049 67.5366 93.7477 68.2619 92.585C68.9872 91.4117 69.9526 90.4837 71.1579 89.801C72.3739 89.1077 73.7019 88.761 75.1419 88.761ZM75.1419 92.441C74.3952 92.441 73.7126 92.6224 73.0939 92.985C72.4752 93.3477 71.9846 93.8384 71.6219 94.457C71.2592 95.065 71.0779 95.7424 71.0779 96.489C71.0779 97.2357 71.2539 97.9184 71.6059 98.537C71.9686 99.1557 72.4539 99.6464 73.0619 100.009C73.6806 100.372 74.3632 100.553 75.1099 100.553C75.8566 100.553 76.5392 100.372 77.1579 100.009C77.7766 99.6464 78.2672 99.1557 78.6299 98.537C79.0032 97.9184 79.1899 97.2357 79.1899 96.489C79.1899 95.7637 79.0086 95.097 78.6459 94.489C78.2832 93.8704 77.7926 93.3744 77.1739 93.001C76.5659 92.6277 75.8886 92.441 75.1419 92.441ZM87.5769 112.249V89.209H91.0489L99.0169 105.529L106.985 89.209H110.457V112.249H106.857V97.481L99.7849 112.249H98.2489L91.1929 97.481V112.249H87.5769Z" fill="white"/>
<path d="M24.8294 58.749V41.469H31.9694C32.1374 41.469 32.3534 41.477 32.6174 41.493C32.8814 41.501 33.1254 41.525 33.3494 41.565C34.3494 41.717 35.1734 42.049 35.8214 42.561C36.4774 43.073 36.9614 43.721 37.2734 44.505C37.5934 45.281 37.7534 46.145 37.7534 47.097C37.7534 48.041 37.5934 48.905 37.2734 49.689C36.9534 50.465 36.4654 51.109 35.8094 51.621C35.1614 52.133 34.3414 52.465 33.3494 52.617C33.1254 52.649 32.8774 52.673 32.6054 52.689C32.3414 52.705 32.1294 52.713 31.9694 52.713H27.7214V58.749H24.8294ZM27.7214 50.013H31.8494C32.0094 50.013 32.1894 50.005 32.3894 49.989C32.5894 49.973 32.7734 49.941 32.9414 49.893C33.4214 49.773 33.7974 49.561 34.0694 49.257C34.3494 48.953 34.5454 48.609 34.6574 48.225C34.7774 47.841 34.8374 47.465 34.8374 47.097C34.8374 46.729 34.7774 46.353 34.6574 45.969C34.5454 45.577 34.3494 45.229 34.0694 44.925C33.7974 44.621 33.4214 44.409 32.9414 44.289C32.7734 44.241 32.5894 44.213 32.3894 44.205C32.1894 44.189 32.0094 44.181 31.8494 44.181H27.7214V50.013ZM40.1575 58.749V45.789H42.7135V48.945L42.4015 48.537C42.5615 48.105 42.7735 47.713 43.0375 47.361C43.3095 47.001 43.6335 46.705 44.0095 46.473C44.3295 46.257 44.6815 46.089 45.0655 45.969C45.4575 45.841 45.8575 45.765 46.2655 45.741C46.6735 45.709 47.0695 45.725 47.4535 45.789V48.489C47.0695 48.377 46.6255 48.341 46.1215 48.381C45.6255 48.421 45.1775 48.561 44.7775 48.801C44.3775 49.017 44.0495 49.293 43.7935 49.629C43.5455 49.965 43.3615 50.349 43.2415 50.781C43.1215 51.205 43.0615 51.665 43.0615 52.161V58.749H40.1575ZM55.2331 59.109C53.9371 59.109 52.8051 58.817 51.8371 58.233C50.8691 57.649 50.1171 56.845 49.5811 55.821C49.0531 54.789 48.7891 53.605 48.7891 52.269C48.7891 50.909 49.0611 49.717 49.6051 48.693C50.1491 47.669 50.9051 46.869 51.8731 46.293C52.8411 45.717 53.9611 45.429 55.2331 45.429C56.5371 45.429 57.6731 45.721 58.6411 46.305C59.6091 46.889 60.3611 47.697 60.8971 48.729C61.4331 49.753 61.7011 50.933 61.7011 52.269C61.7011 53.613 61.4291 54.801 60.8851 55.833C60.3491 56.857 59.5971 57.661 58.6291 58.245C57.6611 58.821 56.5291 59.109 55.2331 59.109ZM55.2331 56.397C56.3851 56.397 57.2411 56.013 57.8011 55.245C58.3611 54.477 58.6411 53.485 58.6411 52.269C58.6411 51.013 58.3571 50.013 57.7891 49.269C57.2211 48.517 56.3691 48.141 55.2331 48.141C54.4571 48.141 53.8171 48.317 53.3131 48.669C52.8171 49.013 52.4491 49.497 52.2091 50.121C51.9691 50.737 51.8491 51.453 51.8491 52.269C51.8491 53.525 52.1331 54.529 52.7011 55.281C53.2771 56.025 54.1211 56.397 55.2331 56.397ZM65.473 58.749V45.585C65.473 45.257 65.485 44.897 65.509 44.505C65.533 44.105 65.601 43.709 65.713 43.317C65.825 42.925 66.029 42.569 66.325 42.249C66.693 41.841 67.089 41.561 67.513 41.409C67.945 41.249 68.369 41.161 68.785 41.145C69.201 41.121 69.565 41.109 69.877 41.109H71.497V43.461H69.997C69.445 43.461 69.033 43.601 68.761 43.881C68.497 44.153 68.365 44.513 68.365 44.961V58.749H65.473ZM63.385 48.057V45.789H71.497V48.057H63.385ZM74.017 43.821V41.169H76.909V43.821H74.017ZM74.017 58.749V45.789H76.909V58.749H74.017ZM88.1129 58.749C87.2569 58.909 86.4169 58.977 85.5929 58.953C84.7769 58.937 84.0449 58.789 83.3969 58.509C82.7489 58.221 82.2569 57.769 81.9209 57.153C81.6249 56.593 81.4689 56.021 81.4529 55.437C81.4369 54.853 81.4289 54.193 81.4289 53.457V42.189H84.3089V53.289C84.3089 53.809 84.3129 54.265 84.3209 54.657C84.3369 55.049 84.4209 55.369 84.5729 55.617C84.8609 56.097 85.3209 56.365 85.9529 56.421C86.5849 56.477 87.3049 56.445 88.1129 56.325V58.749ZM79.0769 48.057V45.789H88.1129V48.057H79.0769ZM94.5237 59.109C93.5877 59.109 92.7957 58.933 92.1477 58.581C91.4997 58.221 91.0077 57.745 90.6717 57.153C90.3437 56.561 90.1797 55.909 90.1797 55.197C90.1797 54.573 90.2837 54.013 90.4917 53.517C90.6997 53.013 91.0197 52.581 91.4517 52.221C91.8837 51.853 92.4437 51.553 93.1317 51.321C93.6517 51.153 94.2597 51.001 94.9557 50.865C95.6597 50.729 96.4197 50.605 97.2357 50.493C98.0597 50.373 98.9197 50.245 99.8157 50.109L98.7837 50.697C98.7917 49.801 98.5917 49.141 98.1837 48.717C97.7757 48.293 97.0877 48.081 96.1197 48.081C95.5357 48.081 94.9717 48.217 94.4277 48.489C93.8837 48.761 93.5037 49.229 93.2877 49.893L90.6477 49.065C90.9677 47.969 91.5757 47.089 92.4717 46.425C93.3757 45.761 94.5917 45.429 96.1197 45.429C97.2717 45.429 98.2837 45.617 99.1557 45.993C100.036 46.369 100.688 46.985 101.112 47.841C101.344 48.297 101.484 48.765 101.532 49.245C101.58 49.717 101.604 50.233 101.604 50.793V58.749H99.0717V55.941L99.4917 56.397C98.9077 57.333 98.2237 58.021 97.4397 58.461C96.6637 58.893 95.6917 59.109 94.5237 59.109ZM95.0997 56.805C95.7557 56.805 96.3157 56.689 96.7797 56.457C97.2437 56.225 97.6117 55.941 97.8837 55.605C98.1637 55.269 98.3517 54.953 98.4477 54.657C98.5997 54.289 98.6837 53.869 98.6997 53.397C98.7237 52.917 98.7357 52.529 98.7357 52.233L99.6237 52.497C98.7517 52.633 98.0037 52.753 97.3797 52.857C96.7557 52.961 96.2197 53.061 95.7717 53.157C95.3237 53.245 94.9277 53.345 94.5837 53.457C94.2477 53.577 93.9637 53.717 93.7317 53.877C93.4997 54.037 93.3197 54.221 93.1917 54.429C93.0717 54.637 93.0117 54.881 93.0117 55.161C93.0117 55.481 93.0917 55.765 93.2517 56.013C93.4117 56.253 93.6437 56.445 93.9477 56.589C94.2597 56.733 94.6437 56.805 95.0997 56.805ZM110.956 59.109C109.692 59.109 108.632 58.809 107.776 58.209C106.92 57.609 106.276 56.793 105.844 55.761C105.412 54.721 105.196 53.557 105.196 52.269C105.196 50.965 105.412 49.797 105.844 48.765C106.276 47.733 106.908 46.921 107.74 46.329C108.58 45.729 109.616 45.429 110.848 45.429C112.072 45.429 113.132 45.729 114.028 46.329C114.932 46.921 115.632 47.733 116.128 48.765C116.624 49.789 116.872 50.957 116.872 52.269C116.872 53.565 116.628 54.729 116.14 55.761C115.652 56.793 114.964 57.609 114.076 58.209C113.188 58.809 112.148 59.109 110.956 59.109ZM104.704 58.749V41.469H107.62V49.653H107.26V58.749H104.704ZM110.512 56.517C111.264 56.517 111.884 56.329 112.372 55.953C112.86 55.577 113.22 55.069 113.452 54.429C113.692 53.781 113.812 53.061 113.812 52.269C113.812 51.485 113.692 50.773 113.452 50.133C113.212 49.485 112.84 48.973 112.336 48.597C111.832 48.213 111.192 48.021 110.416 48.021C109.68 48.021 109.08 48.201 108.616 48.561C108.152 48.913 107.808 49.409 107.584 50.049C107.368 50.681 107.26 51.421 107.26 52.269C107.26 53.109 107.368 53.849 107.584 54.489C107.808 55.129 108.156 55.629 108.628 55.989C109.108 56.341 109.736 56.517 110.512 56.517ZM119.757 43.821V41.169H122.649V43.821H119.757ZM119.757 58.749V45.789H122.649V58.749H119.757ZM126.483 58.749V41.109H129.375V58.749H126.483ZM133.21 43.821V41.169H136.102V43.821H133.21ZM133.21 58.749V45.789H136.102V58.749H133.21ZM147.293 58.749C146.437 58.909 145.597 58.977 144.773 58.953C143.957 58.937 143.225 58.789 142.577 58.509C141.929 58.221 141.437 57.769 141.101 57.153C140.805 56.593 140.649 56.021 140.633 55.437C140.617 54.853 140.609 54.193 140.609 53.457V42.189H143.489V53.289C143.489 53.809 143.493 54.265 143.501 54.657C143.517 55.049 143.601 55.369 143.753 55.617C144.041 56.097 144.501 56.365 145.133 56.421C145.765 56.477 146.485 56.445 147.293 56.325V58.749ZM138.257 48.057V45.789H147.293V48.057H138.257ZM151.432 64.509L153.928 57.657L153.976 59.673L148.324 45.789H151.336L155.344 56.061H154.576L158.476 45.789H161.368L154.144 64.509H151.432Z" fill="white"/>
<path d="M247.899 49.249C247.899 50.2155 247.116 50.999 246.149 50.999C245.183 50.999 244.399 50.2155 244.399 49.249C244.399 48.2825 245.183 47.499 246.149 47.499C247.116 47.499 247.899 48.2825 247.899 49.249ZM253.899 49.249C253.899 50.2155 253.116 50.999 252.149 50.999C251.183 50.999 250.399 50.2155 250.399 49.249C250.399 48.2825 251.183 47.499 252.149 47.499C253.116 47.499 253.899 48.2825 253.899 49.249ZM258.149 50.999C259.116 50.999 259.899 50.2155 259.899 49.249C259.899 48.2825 259.116 47.499 258.149 47.499C257.183 47.499 256.399 48.2825 256.399 49.249C256.399 50.2155 257.183 50.999 258.149 50.999Z" fill="white" fill-opacity="0.5"/>
</svg>
