<svg width="351" height="234" viewBox="0 0 351 234" fill="none" xmlns="http://www.w3.org/2000/svg">
<g clip-path="url(#clip0_568_167)">
<rect y="0.317871" width="350.094" height="233" rx="15" fill="white" fill-opacity="0.1"/>
<path d="M66.6526 58.6481C65.8922 56.574 66.9545 54.2647 69.0676 53.6204C79.3101 50.4972 90.1367 49.6883 100.76 51.2739C112.705 53.0567 124.011 57.8094 133.642 65.0964C143.273 72.3834 150.92 81.9714 155.883 92.9815C160.847 103.992 162.966 116.071 162.048 128.113C161.131 140.156 157.204 151.775 150.63 161.905C144.056 172.036 135.043 180.354 124.419 186.097C113.795 191.84 101.899 194.825 89.8225 194.776C79.0811 194.734 68.5022 192.293 58.8514 187.654C56.8604 186.696 56.1603 184.253 57.2263 182.318L61.8676 173.894C62.9336 171.959 65.3611 171.269 67.369 172.19C74.4227 175.427 82.1012 177.127 89.8928 177.158C99.0205 177.195 108.011 174.939 116.041 170.599C124.071 166.258 130.882 159.971 135.851 152.314C140.82 144.657 143.787 135.876 144.481 126.774C145.175 117.673 143.573 108.543 139.822 100.222C136.071 91.9003 130.291 84.6536 123.012 79.1461C115.733 73.6386 107.187 70.0465 98.1597 68.6991C90.4534 67.5489 82.6059 68.0658 75.1431 70.1961C73.0188 70.8025 70.7239 69.7527 69.9634 67.6786L66.6526 58.6481Z" fill="url(#paint0_linear_568_167)"/>
<path d="M52.038 179.151C50.8038 180.983 48.3103 181.477 46.5492 180.143C37.631 173.388 30.3903 164.639 25.4206 154.575C19.8595 143.314 17.3347 130.796 18.0958 118.259C18.857 105.722 22.8778 93.6014 29.7604 83.0953C35.9112 73.7065 44.1571 65.898 53.8271 60.2717C55.7366 59.1607 58.1521 59.9523 59.1555 61.9204L63.5244 70.4891C64.5279 72.4572 63.7368 74.8536 61.8475 75.9987C54.901 80.2087 48.9675 85.9273 44.4978 92.75C39.2959 100.69 36.257 109.851 35.6817 119.327C35.1064 128.802 37.0147 138.263 41.2178 146.775C44.8292 154.088 50.0272 160.482 56.4134 165.502C58.1503 166.867 58.6457 169.342 57.4115 171.174L52.038 179.151Z" fill="url(#paint1_linear_568_167)"/>
<path d="M62.4049 131.711V129.341H64.8149V131.711H62.4049ZM62.4049 115.711V113.341H64.8149V115.711H62.4049ZM63.6649 130.021C62.6516 130.021 61.7449 129.835 60.9449 129.461C60.1449 129.088 59.4883 128.561 58.9749 127.881C58.4683 127.201 58.1449 126.395 58.0049 125.461L60.3849 125.081C60.5716 125.901 60.9716 126.555 61.5849 127.041C62.2049 127.521 62.9449 127.761 63.8049 127.761C64.6316 127.761 65.3116 127.568 65.8449 127.181C66.3783 126.788 66.6449 126.291 66.6449 125.691C66.6449 125.271 66.5183 124.931 66.2649 124.671C66.0116 124.405 65.6049 124.185 65.0449 124.011L61.5749 122.931C59.5549 122.305 58.5449 121.078 58.5449 119.251C58.5449 118.398 58.7483 117.655 59.1549 117.021C59.5683 116.381 60.1483 115.891 60.8949 115.551C61.6416 115.205 62.5216 115.035 63.5349 115.041C64.4749 115.048 65.3116 115.218 66.0449 115.551C66.7849 115.885 67.3983 116.365 67.8849 116.991C68.3783 117.618 68.7283 118.371 68.9349 119.251L66.4649 119.701C66.3716 119.228 66.1883 118.811 65.9149 118.451C65.6416 118.091 65.2983 117.811 64.8849 117.611C64.4716 117.411 64.0116 117.305 63.5049 117.291C63.0183 117.285 62.5816 117.361 62.1949 117.521C61.8083 117.675 61.5016 117.895 61.2749 118.181C61.0483 118.461 60.9349 118.778 60.9349 119.131C60.9349 119.525 61.0916 119.861 61.4049 120.141C61.7249 120.421 62.2283 120.661 62.9149 120.861L65.5049 121.611C66.7516 121.971 67.6483 122.461 68.1949 123.081C68.7483 123.695 69.0249 124.511 69.0249 125.531C69.0249 126.425 68.8016 127.208 68.3549 127.881C67.9083 128.555 67.2816 129.081 66.4749 129.461C65.6683 129.835 64.7316 130.021 63.6649 130.021ZM79.9074 130.021C78.9541 130.021 78.1074 129.828 77.3674 129.441C76.6274 129.055 76.0474 128.518 75.6274 127.831C75.2074 127.145 74.9974 126.358 74.9974 125.471C74.9974 124.678 75.1808 123.941 75.5474 123.261C75.9141 122.581 76.4508 122.038 77.1574 121.631L77.1074 122.401C76.5541 121.981 76.1241 121.498 75.8174 120.951C75.5174 120.398 75.3674 119.778 75.3674 119.091C75.3674 118.265 75.5608 117.548 75.9474 116.941C76.3408 116.335 76.8774 115.865 77.5574 115.531C78.2374 115.191 79.0208 115.021 79.9074 115.021C80.7941 115.021 81.5774 115.191 82.2574 115.531C82.9441 115.865 83.4808 116.335 83.8674 116.941C84.2608 117.548 84.4574 118.265 84.4574 119.091C84.4574 119.778 84.3108 120.395 84.0174 120.941C83.7308 121.488 83.2941 121.981 82.7074 122.421L82.6974 121.641C83.3908 122.035 83.9208 122.575 84.2874 123.261C84.6608 123.941 84.8474 124.678 84.8474 125.471C84.8474 126.358 84.6341 127.145 84.2074 127.831C83.7874 128.518 83.2041 129.055 82.4574 129.441C81.7174 129.828 80.8674 130.021 79.9074 130.021ZM79.9074 127.751C80.6141 127.751 81.1874 127.558 81.6274 127.171C82.0741 126.785 82.2974 126.218 82.2974 125.471C82.2974 124.725 82.0774 124.158 81.6374 123.771C81.1974 123.378 80.6208 123.181 79.9074 123.181C79.2007 123.181 78.6308 123.378 78.1974 123.771C77.7641 124.158 77.5474 124.725 77.5474 125.471C77.5474 126.218 77.7641 126.785 78.1974 127.171C78.6308 127.558 79.2007 127.751 79.9074 127.751ZM79.9074 120.891C80.5008 120.891 80.9808 120.745 81.3474 120.451C81.7208 120.151 81.9074 119.698 81.9074 119.091C81.9074 118.485 81.7208 118.035 81.3474 117.741C80.9808 117.441 80.5008 117.291 79.9074 117.291C79.3208 117.291 78.8408 117.441 78.4674 117.741C78.1008 118.035 77.9174 118.485 77.9174 119.091C77.9174 119.698 78.1008 120.151 78.4674 120.451C78.8408 120.745 79.3208 120.891 79.9074 120.891ZM87.8435 129.721V127.251H90.3135V129.721H87.8435ZM98.1677 115.041C99.1077 115.041 99.9544 115.265 100.708 115.711C101.461 116.151 102.054 116.765 102.488 117.551C102.928 118.331 103.148 119.231 103.148 120.251V124.641C103.148 125.728 102.928 126.678 102.488 127.491C102.054 128.298 101.444 128.921 100.658 129.361C99.8711 129.801 98.9511 130.021 97.8977 130.021C97.1711 130.021 96.4844 129.898 95.8377 129.651C95.1911 129.398 94.6111 129.011 94.0977 128.491L95.8277 126.801C96.0877 127.101 96.3977 127.338 96.7577 127.511C97.1244 127.678 97.5044 127.761 97.8977 127.761C98.4577 127.761 98.9477 127.631 99.3677 127.371C99.7877 127.105 100.114 126.761 100.348 126.341C100.581 125.915 100.698 125.458 100.698 124.971V122.581L101.128 123.061C100.721 123.541 100.228 123.918 99.6477 124.191C99.0677 124.458 98.4577 124.591 97.8177 124.591C96.9177 124.591 96.1177 124.385 95.4177 123.971C94.7244 123.558 94.1777 122.998 93.7777 122.291C93.3844 121.578 93.1877 120.771 93.1877 119.871C93.1877 118.971 93.4144 118.158 93.8677 117.431C94.3211 116.698 94.9244 116.118 95.6777 115.691C96.4377 115.258 97.2677 115.041 98.1677 115.041ZM98.1677 117.341C97.7011 117.341 97.2744 117.455 96.8877 117.681C96.5011 117.908 96.1944 118.215 95.9677 118.601C95.7411 118.981 95.6277 119.405 95.6277 119.871C95.6277 120.338 95.7377 120.765 95.9577 121.151C96.1844 121.538 96.4877 121.845 96.8677 122.071C97.2544 122.298 97.6811 122.411 98.1477 122.411C98.6144 122.411 99.0411 122.298 99.4277 122.071C99.8144 121.845 100.121 121.538 100.348 121.151C100.581 120.765 100.698 120.338 100.698 119.871C100.698 119.418 100.584 119.001 100.358 118.621C100.131 118.235 99.8244 117.925 99.4377 117.691C99.0577 117.458 98.6344 117.341 98.1677 117.341ZM105.94 129.721V115.321H108.11L113.09 125.521L118.07 115.321H120.24V129.721H117.99V120.491L113.57 129.721H112.61L108.2 120.491V129.721H105.94Z" fill="white"/>
<rect width="12" height="12" rx="4" transform="matrix(0 -1 -1 0 198.672 80.2214)" fill="#FFD275"/>
<path d="M211.733 79.9314C210.73 79.9314 209.883 79.7098 209.192 79.2664C208.502 78.8184 207.979 78.2001 207.624 77.4114C207.27 76.6228 207.092 75.7128 207.092 74.6814C207.092 73.6501 207.27 72.7401 207.624 71.9514C207.979 71.1628 208.502 70.5468 209.192 70.1034C209.883 69.6554 210.73 69.4314 211.733 69.4314C212.905 69.4314 213.861 69.7324 214.603 70.3344C215.345 70.9318 215.854 71.7344 216.129 72.7424L215.079 73.0154C214.865 72.2174 214.48 71.5851 213.924 71.1184C213.369 70.6518 212.639 70.4184 211.733 70.4184C210.945 70.4184 210.289 70.5981 209.766 70.9574C209.244 71.3168 208.849 71.8184 208.583 72.4624C208.322 73.1018 208.187 73.8414 208.177 74.6814C208.173 75.5214 208.301 76.2611 208.562 76.9004C208.828 77.5398 209.225 78.0414 209.752 78.4054C210.284 78.7648 210.945 78.9444 211.733 78.9444C212.639 78.9444 213.369 78.7111 213.924 78.2444C214.48 77.7731 214.865 77.1408 215.079 76.3474L216.129 76.6204C215.854 77.6284 215.345 78.4334 214.603 79.0354C213.861 79.6328 212.905 79.9314 211.733 79.9314ZM220.565 79.9104C220.112 79.9104 219.715 79.8404 219.375 79.7004C219.039 79.5604 218.752 79.3714 218.514 79.1334C218.28 78.8954 218.091 78.6248 217.947 78.3214C217.802 78.0134 217.697 77.6891 217.632 77.3484C217.566 77.0031 217.534 76.6601 217.534 76.3194V72.1614H218.57V76.0184C218.57 76.4338 218.609 76.8188 218.689 77.1734C218.768 77.5281 218.894 77.8384 219.067 78.1044C219.244 78.3658 219.47 78.5688 219.746 78.7134C220.026 78.8581 220.364 78.9304 220.761 78.9304C221.125 78.9304 221.444 78.8674 221.72 78.7414C222 78.6154 222.233 78.4358 222.42 78.2024C222.611 77.9644 222.756 77.6774 222.854 77.3414C222.952 77.0008 223.001 76.6181 223.001 76.1934L223.729 76.3544C223.729 77.1291 223.593 77.7801 223.323 78.3074C223.052 78.8348 222.679 79.2338 222.203 79.5044C221.727 79.7751 221.181 79.9104 220.565 79.9104ZM223.106 79.7214V77.8594H223.001V72.1614H224.03V79.7214H223.106ZM225.986 79.7214V72.1614H226.91V73.9814L226.728 73.7434C226.812 73.5194 226.922 73.3141 227.057 73.1274C227.193 72.9361 227.34 72.7798 227.498 72.6584C227.694 72.4858 227.923 72.3551 228.184 72.2664C228.446 72.1731 228.709 72.1194 228.975 72.1054C229.241 72.0868 229.484 72.1054 229.703 72.1614V73.1274C229.428 73.0574 229.127 73.0411 228.8 73.0784C228.474 73.1158 228.173 73.2464 227.897 73.4704C227.645 73.6664 227.456 73.9021 227.33 74.1774C227.204 74.4481 227.12 74.7374 227.078 75.0454C227.036 75.3488 227.015 75.6498 227.015 75.9484V79.7214H225.986ZM231.031 79.7214V72.1614H231.955V73.9814L231.773 73.7434C231.857 73.5194 231.967 73.3141 232.102 73.1274C232.238 72.9361 232.385 72.7798 232.543 72.6584C232.739 72.4858 232.968 72.3551 233.229 72.2664C233.491 72.1731 233.754 72.1194 234.02 72.1054C234.286 72.0868 234.529 72.1054 234.748 72.1614V73.1274C234.473 73.0574 234.172 73.0411 233.845 73.0784C233.519 73.1158 233.218 73.2464 232.942 73.4704C232.69 73.6664 232.501 73.9021 232.375 74.1774C232.249 74.4481 232.165 74.7374 232.123 75.0454C232.081 75.3488 232.06 75.6498 232.06 75.9484V79.7214H231.031ZM239.138 79.9314C238.401 79.9314 237.762 79.7681 237.22 79.4414C236.684 79.1148 236.266 78.6551 235.967 78.0624C235.669 77.4698 235.519 76.7744 235.519 75.9764C235.519 75.1504 235.666 74.4364 235.96 73.8344C236.254 73.2324 236.667 72.7681 237.199 72.4414C237.736 72.1148 238.368 71.9514 239.096 71.9514C239.843 71.9514 240.48 72.1241 241.007 72.4694C241.535 72.8101 241.934 73.3001 242.204 73.9394C242.475 74.5788 242.599 75.3418 242.575 76.2284H241.525V75.8644C241.507 74.8844 241.294 74.1448 240.888 73.6454C240.487 73.1461 239.899 72.8964 239.124 72.8964C238.312 72.8964 237.689 73.1601 237.255 73.6874C236.826 74.2148 236.611 74.9661 236.611 75.9414C236.611 76.8934 236.826 77.6331 237.255 78.1604C237.689 78.6831 238.303 78.9444 239.096 78.9444C239.638 78.9444 240.109 78.8208 240.51 78.5734C240.916 78.3214 241.236 77.9598 241.469 77.4884L242.428 77.8594C242.13 78.5174 241.689 79.0284 241.105 79.3924C240.527 79.7518 239.871 79.9314 239.138 79.9314ZM236.247 76.2284V75.3674H242.022V76.2284H236.247ZM249.384 79.7214V75.8644C249.384 75.4444 249.344 75.0594 249.265 74.7094C249.185 74.3548 249.057 74.0468 248.88 73.7854C248.707 73.5194 248.481 73.3141 248.201 73.1694C247.925 73.0248 247.589 72.9524 247.193 72.9524C246.829 72.9524 246.507 73.0154 246.227 73.1414C245.951 73.2674 245.718 73.4494 245.527 73.6874C245.34 73.9208 245.198 74.2054 245.1 74.5414C245.002 74.8774 244.953 75.2601 244.953 75.6894L244.225 75.5284C244.225 74.7538 244.36 74.1028 244.631 73.5754C244.901 73.0481 245.275 72.6491 245.751 72.3784C246.227 72.1078 246.773 71.9724 247.389 71.9724C247.841 71.9724 248.236 72.0424 248.572 72.1824C248.912 72.3224 249.199 72.5114 249.433 72.7494C249.671 72.9874 249.862 73.2604 250.007 73.5684C250.151 73.8718 250.256 74.1961 250.322 74.5414C250.387 74.8821 250.42 75.2228 250.42 75.5634V79.7214H249.384ZM243.917 79.7214V72.1614H244.848V74.0234H244.953V79.7214H243.917ZM256.352 79.7214C255.928 79.8101 255.508 79.8451 255.092 79.8264C254.682 79.8078 254.313 79.7191 253.986 79.5604C253.664 79.4018 253.419 79.1544 253.251 78.8184C253.116 78.5384 253.041 78.2561 253.027 77.9714C253.018 77.6821 253.013 77.3531 253.013 76.9844V70.0614H254.035V76.9424C254.035 77.2598 254.038 77.5258 254.042 77.7404C254.052 77.9504 254.101 78.1371 254.189 78.3004C254.357 78.6131 254.623 78.7998 254.987 78.8604C255.356 78.9211 255.811 78.9071 256.352 78.8184V79.7214ZM251.396 73.0434V72.1614H256.352V73.0434H251.396ZM259.944 79.7214L263.416 69.6414H264.781L268.253 79.7214H267.182L263.885 70.2154H264.291L261.015 79.7214H259.944ZM261.491 77.2784V76.3124H266.699V77.2784H261.491ZM272.339 79.9244C271.452 79.9244 270.722 79.7331 270.148 79.3504C269.578 78.9678 269.228 78.4358 269.098 77.7544L270.148 77.5794C270.26 78.0088 270.514 78.3518 270.911 78.6084C271.312 78.8604 271.807 78.9864 272.395 78.9864C272.969 78.9864 273.421 78.8674 273.753 78.6294C274.084 78.3868 274.25 78.0578 274.25 77.6424C274.25 77.4091 274.196 77.2201 274.089 77.0754C273.986 76.9261 273.774 76.7884 273.452 76.6624C273.13 76.5364 272.649 76.3871 272.01 76.2144C271.324 76.0278 270.787 75.8411 270.4 75.6544C270.012 75.4678 269.737 75.2531 269.574 75.0104C269.41 74.7631 269.329 74.4621 269.329 74.1074C269.329 73.6781 269.45 73.3024 269.693 72.9804C269.935 72.6538 270.271 72.4018 270.701 72.2244C271.13 72.0424 271.629 71.9514 272.199 71.9514C272.768 71.9514 273.277 72.0448 273.725 72.2314C274.177 72.4134 274.541 72.6701 274.817 73.0014C275.092 73.3328 275.255 73.7178 275.307 74.1564L274.257 74.3454C274.187 73.9021 273.965 73.5521 273.592 73.2954C273.223 73.0341 272.754 72.8988 272.185 72.8894C271.648 72.8754 271.212 72.9781 270.876 73.1974C270.54 73.4121 270.372 73.6991 270.372 74.0584C270.372 74.2591 270.432 74.4318 270.554 74.5764C270.675 74.7164 270.894 74.8494 271.212 74.9754C271.534 75.1014 271.991 75.2391 272.584 75.3884C273.279 75.5658 273.825 75.7524 274.222 75.9484C274.618 76.1444 274.901 76.3754 275.069 76.6414C275.237 76.9074 275.321 77.2364 275.321 77.6284C275.321 78.3424 275.055 78.9048 274.523 79.3154C273.995 79.7214 273.267 79.9244 272.339 79.9244ZM279.694 79.9244C278.807 79.9244 278.077 79.7331 277.503 79.3504C276.934 78.9678 276.584 78.4358 276.453 77.7544L277.503 77.5794C277.615 78.0088 277.869 78.3518 278.266 78.6084C278.667 78.8604 279.162 78.9864 279.75 78.9864C280.324 78.9864 280.777 78.8674 281.108 78.6294C281.439 78.3868 281.605 78.0578 281.605 77.6424C281.605 77.4091 281.551 77.2201 281.444 77.0754C281.341 76.9261 281.129 76.7884 280.807 76.6624C280.485 76.5364 280.004 76.3871 279.365 76.2144C278.679 76.0278 278.142 75.8411 277.755 75.6544C277.368 75.4678 277.092 75.2531 276.929 75.0104C276.766 74.7631 276.684 74.4621 276.684 74.1074C276.684 73.6781 276.805 73.3024 277.048 72.9804C277.291 72.6538 277.627 72.4018 278.056 72.2244C278.485 72.0424 278.985 71.9514 279.554 71.9514C280.123 71.9514 280.632 72.0448 281.08 72.2314C281.533 72.4134 281.897 72.6701 282.172 73.0014C282.447 73.3328 282.611 73.7178 282.662 74.1564L281.612 74.3454C281.542 73.9021 281.32 73.5521 280.947 73.2954C280.578 73.0341 280.109 72.8988 279.54 72.8894C279.003 72.8754 278.567 72.9781 278.231 73.1974C277.895 73.4121 277.727 73.6991 277.727 74.0584C277.727 74.2591 277.788 74.4318 277.909 74.5764C278.03 74.7164 278.25 74.8494 278.567 74.9754C278.889 75.1014 279.346 75.2391 279.939 75.3884C280.634 75.5658 281.18 75.7524 281.577 75.9484C281.974 76.1444 282.256 76.3754 282.424 76.6414C282.592 76.9074 282.676 77.2364 282.676 77.6284C282.676 78.3424 282.41 78.9048 281.878 79.3154C281.351 79.7214 280.623 79.9244 279.694 79.9244ZM287.427 79.9314C286.69 79.9314 286.051 79.7681 285.509 79.4414C284.973 79.1148 284.555 78.6551 284.256 78.0624C283.958 77.4698 283.808 76.7744 283.808 75.9764C283.808 75.1504 283.955 74.4364 284.249 73.8344C284.543 73.2324 284.956 72.7681 285.488 72.4414C286.025 72.1148 286.657 71.9514 287.385 71.9514C288.132 71.9514 288.769 72.1241 289.296 72.4694C289.824 72.8101 290.223 73.3001 290.493 73.9394C290.764 74.5788 290.888 75.3418 290.864 76.2284H289.814V75.8644C289.796 74.8844 289.583 74.1448 289.177 73.6454C288.776 73.1461 288.188 72.8964 287.413 72.8964C286.601 72.8964 285.978 73.1601 285.544 73.6874C285.115 74.2148 284.9 74.9661 284.9 75.9414C284.9 76.8934 285.115 77.6331 285.544 78.1604C285.978 78.6831 286.592 78.9444 287.385 78.9444C287.927 78.9444 288.398 78.8208 288.799 78.5734C289.205 78.3214 289.525 77.9598 289.758 77.4884L290.717 77.8594C290.419 78.5174 289.978 79.0284 289.394 79.3924C288.816 79.7518 288.16 79.9314 287.427 79.9314ZM284.536 76.2284V75.3674H290.311V76.2284H284.536ZM296.534 79.7214C296.109 79.8101 295.689 79.8451 295.274 79.8264C294.863 79.8078 294.495 79.7191 294.168 79.5604C293.846 79.4018 293.601 79.1544 293.433 78.8184C293.298 78.5384 293.223 78.2561 293.209 77.9714C293.2 77.6821 293.195 77.3531 293.195 76.9844V70.0614H294.217V76.9424C294.217 77.2598 294.219 77.5258 294.224 77.7404C294.233 77.9504 294.282 78.1371 294.371 78.3004C294.539 78.6131 294.805 78.7998 295.169 78.8604C295.538 78.9211 295.993 78.9071 296.534 78.8184V79.7214ZM291.578 73.0434V72.1614H296.534V73.0434H291.578ZM300.844 79.9244C299.958 79.9244 299.227 79.7331 298.653 79.3504C298.084 78.9678 297.734 78.4358 297.603 77.7544L298.653 77.5794C298.765 78.0088 299.02 78.3518 299.416 78.6084C299.818 78.8604 300.312 78.9864 300.9 78.9864C301.474 78.9864 301.927 78.8674 302.258 78.6294C302.59 78.3868 302.755 78.0578 302.755 77.6424C302.755 77.4091 302.702 77.2201 302.594 77.0754C302.492 76.9261 302.279 76.7884 301.957 76.6624C301.635 76.5364 301.155 76.3871 300.515 76.2144C299.829 76.0278 299.293 75.8411 298.905 75.6544C298.518 75.4678 298.243 75.2531 298.079 75.0104C297.916 74.7631 297.834 74.4621 297.834 74.1074C297.834 73.6781 297.956 73.3024 298.198 72.9804C298.441 72.6538 298.777 72.4018 299.206 72.2244C299.636 72.0424 300.135 71.9514 300.704 71.9514C301.274 71.9514 301.782 72.0448 302.23 72.2314C302.683 72.4134 303.047 72.6701 303.322 73.0014C303.598 73.3328 303.761 73.7178 303.812 74.1564L302.762 74.3454C302.692 73.9021 302.471 73.5521 302.097 73.2954C301.729 73.0341 301.26 72.8988 300.69 72.8894C300.154 72.8754 299.717 72.9781 299.381 73.1974C299.045 73.4121 298.877 73.6991 298.877 74.0584C298.877 74.2591 298.938 74.4318 299.059 74.5764C299.181 74.7164 299.4 74.8494 299.717 74.9754C300.039 75.1014 300.497 75.2391 301.089 75.3884C301.785 75.5658 302.331 75.7524 302.727 75.9484C303.124 76.1444 303.406 76.3754 303.574 76.6414C303.742 76.9074 303.826 77.2364 303.826 77.6284C303.826 78.3424 303.56 78.9048 303.028 79.3154C302.501 79.7214 301.773 79.9244 300.844 79.9244Z" fill="white"/>
<path d="M210.298 108.114V106.476H211.761V108.114H210.298ZM210.298 96.8934V95.2484H211.761V96.8934H210.298ZM211.103 106.931C210.403 106.931 209.778 106.805 209.227 106.553C208.677 106.301 208.224 105.944 207.869 105.482C207.519 105.016 207.291 104.465 207.183 103.83L208.632 103.599C208.772 104.197 209.071 104.673 209.528 105.027C209.986 105.377 210.534 105.552 211.173 105.552C211.808 105.552 212.324 105.401 212.72 105.097C213.122 104.794 213.322 104.407 213.322 103.935C213.322 103.599 213.22 103.326 213.014 103.116C212.814 102.906 212.485 102.729 212.027 102.584L209.661 101.856C208.261 101.422 207.561 100.582 207.561 99.3364C207.561 98.7484 207.701 98.2374 207.981 97.8034C208.266 97.3694 208.665 97.0334 209.178 96.7954C209.692 96.5574 210.291 96.4384 210.977 96.4384C211.635 96.4478 212.219 96.5691 212.727 96.8024C213.241 97.0358 213.665 97.3718 214.001 97.8104C214.342 98.2491 214.578 98.7764 214.708 99.3924L213.217 99.6584C213.152 99.2991 213.014 98.9818 212.804 98.7064C212.599 98.4311 212.338 98.2164 212.02 98.0624C211.708 97.9084 211.355 97.8291 210.963 97.8244C210.595 97.8151 210.263 97.8734 209.969 97.9994C209.68 98.1208 209.449 98.2934 209.276 98.5174C209.108 98.7368 209.024 98.9864 209.024 99.2664C209.024 99.5744 209.143 99.8358 209.381 100.05C209.619 100.265 209.995 100.449 210.508 100.603L212.363 101.142C213.213 101.394 213.826 101.733 214.204 102.157C214.582 102.582 214.771 103.147 214.771 103.851C214.771 104.467 214.617 105.006 214.309 105.468C214.006 105.926 213.579 106.285 213.028 106.546C212.478 106.803 211.836 106.931 211.103 106.931ZM222.057 106.931C221.539 106.931 221.056 106.826 220.608 106.616C220.165 106.402 219.785 106.108 219.467 105.734C219.15 105.356 218.924 104.922 218.788 104.432L220.195 104.054C220.275 104.353 220.41 104.612 220.601 104.831C220.797 105.051 221.026 105.221 221.287 105.342C221.549 105.459 221.819 105.517 222.099 105.517C222.468 105.517 222.802 105.429 223.1 105.251C223.404 105.074 223.642 104.836 223.814 104.537C223.992 104.239 224.08 103.91 224.08 103.55C224.08 103.182 223.989 102.848 223.807 102.549C223.63 102.251 223.39 102.015 223.086 101.842C222.788 101.665 222.459 101.576 222.099 101.576C221.689 101.576 221.341 101.658 221.056 101.821C220.772 101.985 220.55 102.174 220.391 102.388L219.117 101.94L219.425 96.6414H224.864V98.0204H220.174L220.769 97.4674L220.524 101.436L220.237 101.065C220.503 100.799 220.821 100.596 221.189 100.456C221.558 100.316 221.924 100.246 222.288 100.246C222.914 100.246 223.471 100.391 223.961 100.68C224.456 100.97 224.846 101.364 225.13 101.863C225.415 102.358 225.557 102.92 225.557 103.55C225.557 104.176 225.396 104.745 225.074 105.258C224.752 105.767 224.325 106.173 223.793 106.476C223.261 106.78 222.683 106.931 222.057 106.931ZM230.695 106.931C230.042 106.931 229.454 106.777 228.931 106.469C228.409 106.157 227.993 105.73 227.685 105.188C227.382 104.647 227.23 104.031 227.23 103.34V100.127C227.23 99.3948 227.382 98.7508 227.685 98.1954C227.993 97.6401 228.418 97.2084 228.959 96.9004C229.505 96.5924 230.133 96.4384 230.842 96.4384C231.374 96.4384 231.874 96.5388 232.34 96.7394C232.807 96.9401 233.211 97.2388 233.551 97.6354L232.48 98.6364C232.289 98.3891 232.049 98.1931 231.759 98.0484C231.475 97.8991 231.169 97.8244 230.842 97.8244C230.422 97.8244 230.054 97.9248 229.736 98.1254C229.419 98.3214 229.169 98.5804 228.987 98.9024C228.81 99.2244 228.721 99.5698 228.721 99.9384V101.786L228.434 101.464C228.724 101.086 229.083 100.788 229.512 100.568C229.942 100.349 230.401 100.239 230.891 100.239C231.517 100.239 232.074 100.386 232.564 100.68C233.059 100.97 233.446 101.364 233.726 101.863C234.011 102.363 234.153 102.925 234.153 103.55C234.153 104.18 233.995 104.752 233.677 105.265C233.365 105.774 232.945 106.18 232.417 106.483C231.895 106.782 231.321 106.931 230.695 106.931ZM230.695 105.524C231.059 105.524 231.391 105.436 231.689 105.258C231.988 105.081 232.226 104.843 232.403 104.544C232.581 104.246 232.669 103.914 232.669 103.55C232.669 103.186 232.581 102.855 232.403 102.556C232.231 102.258 231.995 102.02 231.696 101.842C231.398 101.665 231.066 101.576 230.702 101.576C230.338 101.576 230.005 101.665 229.701 101.842C229.403 102.02 229.165 102.258 228.987 102.556C228.81 102.855 228.721 103.186 228.721 103.55C228.721 103.91 228.81 104.239 228.987 104.537C229.165 104.836 229.403 105.076 229.701 105.258C230 105.436 230.331 105.524 230.695 105.524ZM239.44 106.931C238.754 106.931 238.147 106.782 237.62 106.483C237.092 106.18 236.677 105.765 236.374 105.237C236.075 104.71 235.926 104.103 235.926 103.417V99.9454C235.926 99.2594 236.075 98.6528 236.374 98.1254C236.677 97.5981 237.092 97.1851 237.62 96.8864C238.147 96.5831 238.754 96.4314 239.44 96.4314C240.126 96.4314 240.732 96.5831 241.26 96.8864C241.787 97.1851 242.2 97.5981 242.499 98.1254C242.802 98.6528 242.954 99.2594 242.954 99.9454V103.417C242.954 104.103 242.802 104.71 242.499 105.237C242.2 105.765 241.787 106.18 241.26 106.483C240.732 106.782 240.126 106.931 239.44 106.931ZM239.44 105.531C239.813 105.531 240.151 105.443 240.455 105.265C240.763 105.083 241.008 104.841 241.19 104.537C241.372 104.229 241.463 103.886 241.463 103.508V99.8404C241.463 99.4671 241.372 99.1288 241.19 98.8254C241.008 98.5174 240.763 98.2748 240.455 98.0974C240.151 97.9154 239.813 97.8244 239.44 97.8244C239.066 97.8244 238.726 97.9154 238.418 98.0974C238.114 98.2748 237.872 98.5174 237.69 98.8254C237.508 99.1288 237.417 99.4671 237.417 99.8404V103.508C237.417 103.886 237.508 104.229 237.69 104.537C237.872 104.841 238.114 105.083 238.418 105.265C238.726 105.443 239.066 105.531 239.44 105.531ZM244.768 108.394L244.859 107.743C245.06 107.757 245.216 107.72 245.328 107.631C245.44 107.543 245.515 107.419 245.552 107.26C245.589 107.102 245.596 106.922 245.573 106.721H244.768V105.034H246.315V106.861C246.315 107.412 246.182 107.827 245.916 108.107C245.655 108.387 245.272 108.483 244.768 108.394ZM252.245 96.4384C252.893 96.4384 253.479 96.5948 254.002 96.9074C254.524 97.2154 254.94 97.6401 255.248 98.1814C255.556 98.7228 255.71 99.3411 255.71 100.036V103.242C255.71 103.98 255.556 104.626 255.248 105.181C254.944 105.732 254.52 106.161 253.974 106.469C253.432 106.777 252.807 106.931 252.098 106.931C251.566 106.931 251.066 106.831 250.6 106.63C250.133 106.43 249.727 106.131 249.382 105.734L250.46 104.733C250.651 104.981 250.891 105.179 251.181 105.328C251.47 105.478 251.776 105.552 252.098 105.552C252.513 105.552 252.879 105.452 253.197 105.251C253.519 105.051 253.768 104.789 253.946 104.467C254.123 104.145 254.212 103.8 254.212 103.431V101.583L254.506 101.905C254.216 102.283 253.857 102.582 253.428 102.801C252.998 103.021 252.539 103.13 252.049 103.13C251.419 103.13 250.859 102.986 250.369 102.696C249.879 102.407 249.491 102.013 249.207 101.513C248.922 101.014 248.78 100.449 248.78 99.8194C248.78 99.1894 248.938 98.6201 249.256 98.1114C249.573 97.6028 249.993 97.1968 250.516 96.8934C251.038 96.5901 251.615 96.4384 252.245 96.4384ZM252.245 97.8524C251.881 97.8524 251.547 97.9411 251.244 98.1184C250.945 98.2911 250.707 98.5268 250.53 98.8254C250.352 99.1241 250.264 99.4554 250.264 99.8194C250.264 100.183 250.352 100.517 250.53 100.82C250.707 101.119 250.945 101.357 251.244 101.534C251.542 101.712 251.874 101.8 252.238 101.8C252.602 101.8 252.933 101.712 253.232 101.534C253.53 101.357 253.768 101.119 253.946 100.82C254.123 100.517 254.212 100.183 254.212 99.8194C254.212 99.4601 254.123 99.1311 253.946 98.8324C253.773 98.5338 253.537 98.2958 253.239 98.1184C252.94 97.9411 252.609 97.8524 252.245 97.8524ZM260.891 106.931C260.233 106.931 259.65 106.801 259.141 106.539C258.637 106.273 258.24 105.905 257.951 105.433C257.666 104.962 257.524 104.416 257.524 103.795C257.524 103.217 257.659 102.687 257.93 102.206C258.201 101.726 258.604 101.348 259.141 101.072L259.113 101.576C258.684 101.31 258.352 100.979 258.119 100.582C257.89 100.181 257.776 99.7331 257.776 99.2384C257.776 98.6644 257.909 98.1674 258.175 97.7474C258.441 97.3274 258.807 97.0031 259.274 96.7744C259.745 96.5458 260.284 96.4314 260.891 96.4314C261.498 96.4314 262.034 96.5458 262.501 96.7744C262.968 97.0031 263.334 97.3274 263.6 97.7474C263.866 98.1674 263.999 98.6644 263.999 99.2384C263.999 99.7331 263.889 100.179 263.67 100.575C263.451 100.972 263.115 101.306 262.662 101.576L262.641 101.086C263.173 101.348 263.577 101.721 263.852 102.206C264.127 102.687 264.265 103.217 264.265 103.795C264.265 104.416 264.12 104.962 263.831 105.433C263.542 105.905 263.143 106.273 262.634 106.539C262.125 106.801 261.544 106.931 260.891 106.931ZM260.891 105.538C261.432 105.538 261.871 105.391 262.207 105.097C262.543 104.799 262.711 104.365 262.711 103.795C262.711 103.226 262.543 102.792 262.207 102.493C261.876 102.19 261.437 102.038 260.891 102.038C260.345 102.038 259.904 102.19 259.568 102.493C259.237 102.792 259.071 103.226 259.071 103.795C259.071 104.365 259.239 104.799 259.575 105.097C259.911 105.391 260.35 105.538 260.891 105.538ZM260.891 100.638C261.353 100.638 261.726 100.524 262.011 100.295C262.3 100.062 262.445 99.7098 262.445 99.2384C262.445 98.7671 262.3 98.4148 262.011 98.1814C261.726 97.9434 261.353 97.8244 260.891 97.8244C260.429 97.8244 260.053 97.9434 259.764 98.1814C259.475 98.4148 259.33 98.7671 259.33 99.2384C259.33 99.7098 259.475 100.062 259.764 100.295C260.053 100.524 260.429 100.638 260.891 100.638ZM269.6 106.931C268.914 106.931 268.307 106.782 267.78 106.483C267.253 106.18 266.837 105.765 266.534 105.237C266.235 104.71 266.086 104.103 266.086 103.417V99.9454C266.086 99.2594 266.235 98.6528 266.534 98.1254C266.837 97.5981 267.253 97.1851 267.78 96.8864C268.307 96.5831 268.914 96.4314 269.6 96.4314C270.286 96.4314 270.893 96.5831 271.42 96.8864C271.947 97.1851 272.36 97.5981 272.659 98.1254C272.962 98.6528 273.114 99.2594 273.114 99.9454V103.417C273.114 104.103 272.962 104.71 272.659 105.237C272.36 105.765 271.947 106.18 271.42 106.483C270.893 106.782 270.286 106.931 269.6 106.931ZM269.6 105.531C269.973 105.531 270.312 105.443 270.615 105.265C270.923 105.083 271.168 104.841 271.35 104.537C271.532 104.229 271.623 103.886 271.623 103.508V99.8404C271.623 99.4671 271.532 99.1288 271.35 98.8254C271.168 98.5174 270.923 98.2748 270.615 98.0974C270.312 97.9154 269.973 97.8244 269.6 97.8244C269.227 97.8244 268.886 97.9154 268.578 98.0974C268.275 98.2748 268.032 98.5174 267.85 98.8254C267.668 99.1288 267.577 99.4671 267.577 99.8404V103.508C267.577 103.886 267.668 104.229 267.85 104.537C268.032 104.841 268.275 105.083 268.578 105.265C268.886 105.443 269.227 105.531 269.6 105.531Z" fill="white"/>
<rect width="12" height="12" rx="4" transform="matrix(0 -1 -1 0 198.672 142.221)" fill="#10AF8A"/>
<path d="M207.652 141.721V131.641H208.688L214.239 139.901V131.641H215.275V141.721H214.239L208.688 133.454V141.721H207.652ZM220.393 141.931C219.642 141.931 219 141.761 218.468 141.42C217.936 141.08 217.528 140.608 217.243 140.006C216.959 139.404 216.816 138.714 216.816 137.934C216.816 137.141 216.961 136.446 217.25 135.848C217.54 135.251 217.95 134.787 218.482 134.455C219.019 134.119 219.656 133.951 220.393 133.951C221.149 133.951 221.793 134.122 222.325 134.462C222.862 134.798 223.27 135.267 223.55 135.869C223.835 136.467 223.977 137.155 223.977 137.934C223.977 138.728 223.835 139.425 223.55 140.027C223.266 140.625 222.855 141.091 222.318 141.427C221.782 141.763 221.14 141.931 220.393 141.931ZM220.393 140.944C221.233 140.944 221.859 140.667 222.269 140.111C222.68 139.551 222.885 138.826 222.885 137.934C222.885 137.02 222.678 136.292 222.262 135.75C221.852 135.209 221.229 134.938 220.393 134.938C219.829 134.938 219.362 135.067 218.993 135.323C218.629 135.575 218.356 135.928 218.174 136.38C217.997 136.828 217.908 137.346 217.908 137.934C217.908 138.844 218.118 139.575 218.538 140.125C218.958 140.671 219.577 140.944 220.393 140.944ZM230.981 141.721V137.864C230.981 137.444 230.942 137.059 230.862 136.709C230.783 136.355 230.655 136.047 230.477 135.785C230.305 135.519 230.078 135.314 229.798 135.169C229.523 135.025 229.187 134.952 228.79 134.952C228.426 134.952 228.104 135.015 227.824 135.141C227.549 135.267 227.316 135.449 227.124 135.687C226.938 135.921 226.795 136.205 226.697 136.541C226.599 136.877 226.55 137.26 226.55 137.689L225.822 137.528C225.822 136.754 225.958 136.103 226.228 135.575C226.499 135.048 226.872 134.649 227.348 134.378C227.824 134.108 228.37 133.972 228.986 133.972C229.439 133.972 229.833 134.042 230.169 134.182C230.51 134.322 230.797 134.511 231.03 134.749C231.268 134.987 231.46 135.26 231.604 135.568C231.749 135.872 231.854 136.196 231.919 136.541C231.985 136.882 232.017 137.223 232.017 137.563V141.721H230.981ZM225.514 141.721V134.161H226.445V136.023H226.55V141.721H225.514ZM240.718 141.931C239.714 141.931 238.867 141.71 238.177 141.266C237.486 140.818 236.963 140.2 236.609 139.411C236.254 138.623 236.077 137.713 236.077 136.681C236.077 135.65 236.254 134.74 236.609 133.951C236.963 133.163 237.486 132.547 238.177 132.103C238.867 131.655 239.714 131.431 240.718 131.431C241.889 131.431 242.846 131.732 243.588 132.334C244.33 132.932 244.838 133.734 245.114 134.742L244.064 135.015C243.849 134.217 243.464 133.585 242.909 133.118C242.353 132.652 241.623 132.418 240.718 132.418C239.929 132.418 239.273 132.598 238.751 132.957C238.228 133.317 237.834 133.818 237.568 134.462C237.306 135.102 237.171 135.841 237.162 136.681C237.157 137.521 237.285 138.261 237.547 138.9C237.813 139.54 238.209 140.041 238.737 140.405C239.269 140.765 239.929 140.944 240.718 140.944C241.623 140.944 242.353 140.711 242.909 140.244C243.464 139.773 243.849 139.141 244.064 138.347L245.114 138.62C244.838 139.628 244.33 140.433 243.588 141.035C242.846 141.633 241.889 141.931 240.718 141.931ZM249.549 141.91C249.096 141.91 248.7 141.84 248.359 141.7C248.023 141.56 247.736 141.371 247.498 141.133C247.265 140.895 247.076 140.625 246.931 140.321C246.786 140.013 246.681 139.689 246.616 139.348C246.551 139.003 246.518 138.66 246.518 138.319V134.161H247.554V138.018C247.554 138.434 247.594 138.819 247.673 139.173C247.752 139.528 247.878 139.838 248.051 140.104C248.228 140.366 248.455 140.569 248.73 140.713C249.01 140.858 249.348 140.93 249.745 140.93C250.109 140.93 250.429 140.867 250.704 140.741C250.984 140.615 251.217 140.436 251.404 140.202C251.595 139.964 251.74 139.677 251.838 139.341C251.936 139.001 251.985 138.618 251.985 138.193L252.713 138.354C252.713 139.129 252.578 139.78 252.307 140.307C252.036 140.835 251.663 141.234 251.187 141.504C250.711 141.775 250.165 141.91 249.549 141.91ZM252.09 141.721V139.859H251.985V134.161H253.014V141.721H252.09ZM254.971 141.721V134.161H255.895V135.981L255.713 135.743C255.797 135.519 255.906 135.314 256.042 135.127C256.177 134.936 256.324 134.78 256.483 134.658C256.679 134.486 256.907 134.355 257.169 134.266C257.43 134.173 257.694 134.119 257.96 134.105C258.226 134.087 258.468 134.105 258.688 134.161V135.127C258.412 135.057 258.111 135.041 257.785 135.078C257.458 135.116 257.157 135.246 256.882 135.47C256.63 135.666 256.441 135.902 256.315 136.177C256.189 136.448 256.105 136.737 256.063 137.045C256.021 137.349 256 137.65 256 137.948V141.721H254.971ZM260.016 141.721V134.161H260.94V135.981L260.758 135.743C260.842 135.519 260.951 135.314 261.087 135.127C261.222 134.936 261.369 134.78 261.528 134.658C261.724 134.486 261.952 134.355 262.214 134.266C262.475 134.173 262.739 134.119 263.005 134.105C263.271 134.087 263.513 134.105 263.733 134.161V135.127C263.457 135.057 263.156 135.041 262.83 135.078C262.503 135.116 262.202 135.246 261.927 135.47C261.675 135.666 261.486 135.902 261.36 136.177C261.234 136.448 261.15 136.737 261.108 137.045C261.066 137.349 261.045 137.65 261.045 137.948V141.721H260.016ZM268.123 141.931C267.385 141.931 266.746 141.768 266.205 141.441C265.668 141.115 265.25 140.655 264.952 140.062C264.653 139.47 264.504 138.774 264.504 137.976C264.504 137.15 264.651 136.436 264.945 135.834C265.239 135.232 265.652 134.768 266.184 134.441C266.72 134.115 267.353 133.951 268.081 133.951C268.827 133.951 269.464 134.124 269.992 134.469C270.519 134.81 270.918 135.3 271.189 135.939C271.459 136.579 271.583 137.342 271.56 138.228H270.51V137.864C270.491 136.884 270.279 136.145 269.873 135.645C269.471 135.146 268.883 134.896 268.109 134.896C267.297 134.896 266.674 135.16 266.24 135.687C265.81 136.215 265.596 136.966 265.596 137.941C265.596 138.893 265.81 139.633 266.24 140.16C266.674 140.683 267.287 140.944 268.081 140.944C268.622 140.944 269.093 140.821 269.495 140.573C269.901 140.321 270.22 139.96 270.454 139.488L271.413 139.859C271.114 140.517 270.673 141.028 270.09 141.392C269.511 141.752 268.855 141.931 268.123 141.931ZM265.232 138.228V137.367H271.007V138.228H265.232ZM278.368 141.721V137.864C278.368 137.444 278.328 137.059 278.249 136.709C278.17 136.355 278.041 136.047 277.864 135.785C277.691 135.519 277.465 135.314 277.185 135.169C276.91 135.025 276.574 134.952 276.177 134.952C275.813 134.952 275.491 135.015 275.211 135.141C274.936 135.267 274.702 135.449 274.511 135.687C274.324 135.921 274.182 136.205 274.084 136.541C273.986 136.877 273.937 137.26 273.937 137.689L273.209 137.528C273.209 136.754 273.344 136.103 273.615 135.575C273.886 135.048 274.259 134.649 274.735 134.378C275.211 134.108 275.757 133.972 276.373 133.972C276.826 133.972 277.22 134.042 277.556 134.182C277.897 134.322 278.184 134.511 278.417 134.749C278.655 134.987 278.846 135.26 278.991 135.568C279.136 135.872 279.241 136.196 279.306 136.541C279.371 136.882 279.404 137.223 279.404 137.563V141.721H278.368ZM272.901 141.721V134.161H273.832V136.023H273.937V141.721H272.901ZM285.337 141.721C284.912 141.81 284.492 141.845 284.077 141.826C283.666 141.808 283.297 141.719 282.971 141.56C282.649 141.402 282.404 141.154 282.236 140.818C282.1 140.538 282.026 140.256 282.012 139.971C282.002 139.682 281.998 139.353 281.998 138.984V132.061H283.02V138.942C283.02 139.26 283.022 139.526 283.027 139.74C283.036 139.95 283.085 140.137 283.174 140.3C283.342 140.613 283.608 140.8 283.972 140.86C284.34 140.921 284.795 140.907 285.337 140.818V141.721ZM280.381 135.043V134.161H285.337V135.043H280.381ZM288.929 141.721L292.401 131.641H293.766L297.238 141.721H296.167L292.87 132.215H293.276L290 141.721H288.929ZM290.476 139.278V138.312H295.684V139.278H290.476ZM301.323 141.924C300.436 141.924 299.706 141.733 299.132 141.35C298.563 140.968 298.213 140.436 298.082 139.754L299.132 139.579C299.244 140.009 299.498 140.352 299.895 140.608C300.296 140.86 300.791 140.986 301.379 140.986C301.953 140.986 302.406 140.867 302.737 140.629C303.068 140.387 303.234 140.058 303.234 139.642C303.234 139.409 303.18 139.22 303.073 139.075C302.97 138.926 302.758 138.788 302.436 138.662C302.114 138.536 301.633 138.387 300.994 138.214C300.308 138.028 299.771 137.841 299.384 137.654C298.997 137.468 298.721 137.253 298.558 137.01C298.395 136.763 298.313 136.462 298.313 136.107C298.313 135.678 298.434 135.302 298.677 134.98C298.92 134.654 299.256 134.402 299.685 134.224C300.114 134.042 300.614 133.951 301.183 133.951C301.752 133.951 302.261 134.045 302.709 134.231C303.162 134.413 303.526 134.67 303.801 135.001C304.076 135.333 304.24 135.718 304.291 136.156L303.241 136.345C303.171 135.902 302.949 135.552 302.576 135.295C302.207 135.034 301.738 134.899 301.169 134.889C300.632 134.875 300.196 134.978 299.86 135.197C299.524 135.412 299.356 135.699 299.356 136.058C299.356 136.259 299.417 136.432 299.538 136.576C299.659 136.716 299.879 136.849 300.196 136.975C300.518 137.101 300.975 137.239 301.568 137.388C302.263 137.566 302.809 137.752 303.206 137.948C303.603 138.144 303.885 138.375 304.053 138.641C304.221 138.907 304.305 139.236 304.305 139.628C304.305 140.342 304.039 140.905 303.507 141.315C302.98 141.721 302.252 141.924 301.323 141.924ZM308.678 141.924C307.792 141.924 307.061 141.733 306.487 141.35C305.918 140.968 305.568 140.436 305.437 139.754L306.487 139.579C306.599 140.009 306.854 140.352 307.25 140.608C307.652 140.86 308.146 140.986 308.734 140.986C309.308 140.986 309.761 140.867 310.092 140.629C310.424 140.387 310.589 140.058 310.589 139.642C310.589 139.409 310.536 139.22 310.428 139.075C310.326 138.926 310.113 138.788 309.791 138.662C309.469 138.536 308.989 138.387 308.349 138.214C307.663 138.028 307.127 137.841 306.739 137.654C306.352 137.468 306.077 137.253 305.913 137.01C305.75 136.763 305.668 136.462 305.668 136.107C305.668 135.678 305.79 135.302 306.032 134.98C306.275 134.654 306.611 134.402 307.04 134.224C307.47 134.042 307.969 133.951 308.538 133.951C309.108 133.951 309.616 134.045 310.064 134.231C310.517 134.413 310.881 134.67 311.156 135.001C311.432 135.333 311.595 135.718 311.646 136.156L310.596 136.345C310.526 135.902 310.305 135.552 309.931 135.295C309.563 135.034 309.094 134.899 308.524 134.889C307.988 134.875 307.551 134.978 307.215 135.197C306.879 135.412 306.711 135.699 306.711 136.058C306.711 136.259 306.772 136.432 306.893 136.576C307.015 136.716 307.234 136.849 307.551 136.975C307.873 137.101 308.331 137.239 308.923 137.388C309.619 137.566 310.165 137.752 310.561 137.948C310.958 138.144 311.24 138.375 311.408 138.641C311.576 138.907 311.66 139.236 311.66 139.628C311.66 140.342 311.394 140.905 310.862 141.315C310.335 141.721 309.607 141.924 308.678 141.924ZM316.412 141.931C315.675 141.931 315.035 141.768 314.494 141.441C313.957 141.115 313.54 140.655 313.241 140.062C312.942 139.47 312.793 138.774 312.793 137.976C312.793 137.15 312.94 136.436 313.234 135.834C313.528 135.232 313.941 134.768 314.473 134.441C315.01 134.115 315.642 133.951 316.37 133.951C317.117 133.951 317.754 134.124 318.281 134.469C318.808 134.81 319.207 135.3 319.478 135.939C319.749 136.579 319.872 137.342 319.849 138.228H318.799V137.864C318.78 136.884 318.568 136.145 318.162 135.645C317.761 135.146 317.173 134.896 316.398 134.896C315.586 134.896 314.963 135.16 314.529 135.687C314.1 136.215 313.885 136.966 313.885 137.941C313.885 138.893 314.1 139.633 314.529 140.16C314.963 140.683 315.577 140.944 316.37 140.944C316.911 140.944 317.383 140.821 317.784 140.573C318.19 140.321 318.51 139.96 318.743 139.488L319.702 139.859C319.403 140.517 318.962 141.028 318.379 141.392C317.8 141.752 317.145 141.931 316.412 141.931ZM313.521 138.228V137.367H319.296V138.228H313.521ZM325.518 141.721C325.094 141.81 324.674 141.845 324.258 141.826C323.848 141.808 323.479 141.719 323.152 141.56C322.83 141.402 322.585 141.154 322.417 140.818C322.282 140.538 322.207 140.256 322.193 139.971C322.184 139.682 322.179 139.353 322.179 138.984V132.061H323.201V138.942C323.201 139.26 323.204 139.526 323.208 139.74C323.218 139.95 323.267 140.137 323.355 140.3C323.523 140.613 323.789 140.8 324.153 140.86C324.522 140.921 324.977 140.907 325.518 140.818V141.721ZM320.562 135.043V134.161H325.518V135.043H320.562ZM329.829 141.924C328.942 141.924 328.212 141.733 327.638 141.35C327.068 140.968 326.718 140.436 326.588 139.754L327.638 139.579C327.75 140.009 328.004 140.352 328.401 140.608C328.802 140.86 329.297 140.986 329.885 140.986C330.459 140.986 330.911 140.867 331.243 140.629C331.574 140.387 331.74 140.058 331.74 139.642C331.74 139.409 331.686 139.22 331.579 139.075C331.476 138.926 331.264 138.788 330.942 138.662C330.62 138.536 330.139 138.387 329.5 138.214C328.814 138.028 328.277 137.841 327.89 137.654C327.502 137.468 327.227 137.253 327.064 137.01C326.9 136.763 326.819 136.462 326.819 136.107C326.819 135.678 326.94 135.302 327.183 134.98C327.425 134.654 327.761 134.402 328.191 134.224C328.62 134.042 329.119 133.951 329.689 133.951C330.258 133.951 330.767 134.045 331.215 134.231C331.667 134.413 332.031 134.67 332.307 135.001C332.582 135.333 332.745 135.718 332.797 136.156L331.747 136.345C331.677 135.902 331.455 135.552 331.082 135.295C330.713 135.034 330.244 134.899 329.675 134.889C329.138 134.875 328.702 134.978 328.366 135.197C328.03 135.412 327.862 135.699 327.862 136.058C327.862 136.259 327.922 136.432 328.044 136.576C328.165 136.716 328.384 136.849 328.702 136.975C329.024 137.101 329.481 137.239 330.074 137.388C330.769 137.566 331.315 137.752 331.712 137.948C332.108 138.144 332.391 138.375 332.559 138.641C332.727 138.907 332.811 139.236 332.811 139.628C332.811 140.342 332.545 140.905 332.013 141.315C331.485 141.721 330.757 141.924 329.829 141.924Z" fill="white"/>
<path d="M210.298 170.114V168.476H211.761V170.114H210.298ZM210.298 158.893V157.248H211.761V158.893H210.298ZM211.103 168.931C210.403 168.931 209.778 168.805 209.227 168.553C208.677 168.301 208.224 167.944 207.869 167.482C207.519 167.016 207.291 166.465 207.183 165.83L208.632 165.599C208.772 166.197 209.071 166.673 209.528 167.027C209.986 167.377 210.534 167.552 211.173 167.552C211.808 167.552 212.324 167.401 212.72 167.097C213.122 166.794 213.322 166.407 213.322 165.935C213.322 165.599 213.22 165.326 213.014 165.116C212.814 164.906 212.485 164.729 212.027 164.584L209.661 163.856C208.261 163.422 207.561 162.582 207.561 161.336C207.561 160.748 207.701 160.237 207.981 159.803C208.266 159.369 208.665 159.033 209.178 158.795C209.692 158.557 210.291 158.438 210.977 158.438C211.635 158.448 212.219 158.569 212.727 158.802C213.241 159.036 213.665 159.372 214.001 159.81C214.342 160.249 214.578 160.776 214.708 161.392L213.217 161.658C213.152 161.299 213.014 160.982 212.804 160.706C212.599 160.431 212.338 160.216 212.02 160.062C211.708 159.908 211.355 159.829 210.963 159.824C210.595 159.815 210.263 159.873 209.969 159.999C209.68 160.121 209.449 160.293 209.276 160.517C209.108 160.737 209.024 160.986 209.024 161.266C209.024 161.574 209.143 161.836 209.381 162.05C209.619 162.265 209.995 162.449 210.508 162.603L212.363 163.142C213.213 163.394 213.826 163.733 214.204 164.157C214.582 164.582 214.771 165.147 214.771 165.851C214.771 166.467 214.617 167.006 214.309 167.468C214.006 167.926 213.579 168.285 213.028 168.546C212.478 168.803 211.836 168.931 211.103 168.931ZM221.889 168.91C221.39 168.91 220.921 168.817 220.482 168.63C220.044 168.439 219.663 168.168 219.341 167.818C219.024 167.468 218.793 167.055 218.648 166.579L220.062 166.187C220.198 166.621 220.433 166.955 220.769 167.188C221.105 167.417 221.479 167.529 221.889 167.524C222.258 167.52 222.582 167.433 222.862 167.265C223.142 167.097 223.362 166.871 223.52 166.586C223.679 166.297 223.758 165.966 223.758 165.592C223.758 165.032 223.583 164.57 223.233 164.206C222.888 163.842 222.435 163.66 221.875 163.66C221.717 163.66 221.553 163.684 221.385 163.73C221.222 163.777 221.068 163.838 220.923 163.912L220.237 162.757L223.793 159.614L223.947 160.034H219.047V158.641H225.109V160.034L222.155 162.876L222.141 162.4C222.776 162.4 223.327 162.543 223.793 162.827C224.26 163.107 224.619 163.49 224.871 163.975C225.128 164.456 225.256 164.995 225.256 165.592C225.256 166.236 225.105 166.808 224.801 167.307C224.503 167.807 224.099 168.199 223.59 168.483C223.086 168.768 222.519 168.91 221.889 168.91ZM229.901 168.91C229.402 168.91 228.933 168.817 228.494 168.63C228.055 168.439 227.675 168.168 227.353 167.818C227.036 167.468 226.805 167.055 226.66 166.579L228.074 166.187C228.209 166.621 228.445 166.955 228.781 167.188C229.117 167.417 229.49 167.529 229.901 167.524C230.27 167.52 230.594 167.433 230.874 167.265C231.154 167.097 231.373 166.871 231.532 166.586C231.691 166.297 231.77 165.966 231.77 165.592C231.77 165.032 231.595 164.57 231.245 164.206C230.9 163.842 230.447 163.66 229.887 163.66C229.728 163.66 229.565 163.684 229.397 163.73C229.234 163.777 229.08 163.838 228.935 163.912L228.249 162.757L231.805 159.614L231.959 160.034H227.059V158.641H233.121V160.034L230.167 162.876L230.153 162.4C230.788 162.4 231.338 162.543 231.805 162.827C232.272 163.107 232.631 163.49 232.883 163.975C233.14 164.456 233.268 164.995 233.268 165.592C233.268 166.236 233.116 166.808 232.813 167.307C232.514 167.807 232.111 168.199 231.602 168.483C231.098 168.768 230.531 168.91 229.901 168.91ZM239.362 168.721V166.964H234.812V165.578L238.088 158.641H239.761L236.485 165.578H239.362V162.848H240.846V165.578H241.847V166.964H240.846V168.721H239.362ZM243.114 170.394L243.205 169.743C243.406 169.757 243.562 169.72 243.674 169.631C243.786 169.543 243.861 169.419 243.898 169.26C243.935 169.102 243.942 168.922 243.919 168.721H243.114V167.034H244.661V168.861C244.661 169.412 244.528 169.827 244.262 170.107C244.001 170.387 243.618 170.483 243.114 170.394ZM250.303 168.931C249.785 168.931 249.302 168.826 248.854 168.616C248.411 168.402 248.031 168.108 247.713 167.734C247.396 167.356 247.17 166.922 247.034 166.432L248.441 166.054C248.521 166.353 248.656 166.612 248.847 166.831C249.043 167.051 249.272 167.221 249.533 167.342C249.795 167.459 250.065 167.517 250.345 167.517C250.714 167.517 251.048 167.429 251.346 167.251C251.65 167.074 251.888 166.836 252.06 166.537C252.238 166.239 252.326 165.91 252.326 165.55C252.326 165.182 252.235 164.848 252.053 164.549C251.876 164.251 251.636 164.015 251.332 163.842C251.034 163.665 250.705 163.576 250.345 163.576C249.935 163.576 249.587 163.658 249.302 163.821C249.018 163.985 248.796 164.174 248.637 164.388L247.363 163.94L247.671 158.641H253.11V160.02H248.42L249.015 159.467L248.77 163.436L248.483 163.065C248.749 162.799 249.067 162.596 249.435 162.456C249.804 162.316 250.17 162.246 250.534 162.246C251.16 162.246 251.717 162.391 252.207 162.68C252.702 162.97 253.092 163.364 253.376 163.863C253.661 164.358 253.803 164.92 253.803 165.55C253.803 166.176 253.642 166.745 253.32 167.258C252.998 167.767 252.571 168.173 252.039 168.476C251.507 168.78 250.929 168.931 250.303 168.931ZM258.942 168.931C258.288 168.931 257.7 168.777 257.178 168.469C256.655 168.157 256.24 167.73 255.932 167.188C255.628 166.647 255.477 166.031 255.477 165.34V162.127C255.477 161.395 255.628 160.751 255.932 160.195C256.24 159.64 256.664 159.208 257.206 158.9C257.752 158.592 258.379 158.438 259.089 158.438C259.621 158.438 260.12 158.539 260.587 158.739C261.053 158.94 261.457 159.239 261.798 159.635L260.727 160.636C260.535 160.389 260.295 160.193 260.006 160.048C259.721 159.899 259.415 159.824 259.089 159.824C258.669 159.824 258.3 159.925 257.983 160.125C257.665 160.321 257.416 160.58 257.234 160.902C257.056 161.224 256.968 161.57 256.968 161.938V163.786L256.681 163.464C256.97 163.086 257.329 162.788 257.759 162.568C258.188 162.349 258.648 162.239 259.138 162.239C259.763 162.239 260.321 162.386 260.811 162.68C261.305 162.97 261.693 163.364 261.973 163.863C262.257 164.363 262.4 164.925 262.4 165.55C262.4 166.18 262.241 166.752 261.924 167.265C261.611 167.774 261.191 168.18 260.664 168.483C260.141 168.782 259.567 168.931 258.942 168.931ZM258.942 167.524C259.306 167.524 259.637 167.436 259.936 167.258C260.234 167.081 260.472 166.843 260.65 166.544C260.827 166.246 260.916 165.914 260.916 165.55C260.916 165.186 260.827 164.855 260.65 164.556C260.477 164.258 260.241 164.02 259.943 163.842C259.644 163.665 259.313 163.576 258.949 163.576C258.585 163.576 258.251 163.665 257.948 163.842C257.649 164.02 257.411 164.258 257.234 164.556C257.056 164.855 256.968 165.186 256.968 165.55C256.968 165.91 257.056 166.239 257.234 166.537C257.411 166.836 257.649 167.076 257.948 167.258C258.246 167.436 258.578 167.524 258.942 167.524ZM267.686 168.931C267 168.931 266.393 168.782 265.866 168.483C265.339 168.18 264.923 167.765 264.62 167.237C264.321 166.71 264.172 166.103 264.172 165.417V161.945C264.172 161.259 264.321 160.653 264.62 160.125C264.923 159.598 265.339 159.185 265.866 158.886C266.393 158.583 267 158.431 267.686 158.431C268.372 158.431 268.979 158.583 269.506 158.886C270.033 159.185 270.446 159.598 270.745 160.125C271.048 160.653 271.2 161.259 271.2 161.945V165.417C271.2 166.103 271.048 166.71 270.745 167.237C270.446 167.765 270.033 168.18 269.506 168.483C268.979 168.782 268.372 168.931 267.686 168.931ZM267.686 167.531C268.059 167.531 268.398 167.443 268.701 167.265C269.009 167.083 269.254 166.841 269.436 166.537C269.618 166.229 269.709 165.886 269.709 165.508V161.84C269.709 161.467 269.618 161.129 269.436 160.825C269.254 160.517 269.009 160.275 268.701 160.097C268.398 159.915 268.059 159.824 267.686 159.824C267.313 159.824 266.972 159.915 266.664 160.097C266.361 160.275 266.118 160.517 265.936 160.825C265.754 161.129 265.663 161.467 265.663 161.84V165.508C265.663 165.886 265.754 166.229 265.936 166.537C266.118 166.841 266.361 167.083 266.664 167.265C266.972 167.443 267.313 167.531 267.686 167.531Z" fill="white"/>
<path d="M18.2646 29.6421L21.4426 19.5621H23.9136L27.0916 29.6421H25.3556L22.4716 20.5981H22.8496L20.0006 29.6421H18.2646ZM20.0356 27.4581V25.8831H25.3276V27.4581H20.0356ZM31.2762 29.8521C30.3429 29.8521 29.5845 29.6421 29.0012 29.2221C28.4179 28.8021 28.0632 28.2118 27.9372 27.4511L29.6592 27.1851C29.7479 27.5584 29.9439 27.8524 30.2472 28.0671C30.5505 28.2818 30.9332 28.3891 31.3952 28.3891C31.8012 28.3891 32.1139 28.3098 32.3332 28.1511C32.5572 27.9878 32.6692 27.7661 32.6692 27.4861C32.6692 27.3134 32.6272 27.1758 32.5432 27.0731C32.4639 26.9658 32.2865 26.8631 32.0112 26.7651C31.7359 26.6671 31.3135 26.5434 30.7442 26.3941C30.1095 26.2261 29.6055 26.0464 29.2322 25.8551C28.8589 25.6591 28.5905 25.4281 28.4272 25.1621C28.2639 24.8961 28.1822 24.5741 28.1822 24.1961C28.1822 23.7248 28.3059 23.3141 28.5532 22.9641C28.8005 22.6141 29.1459 22.3458 29.5892 22.1591C30.0325 21.9678 30.5552 21.8721 31.1572 21.8721C31.7452 21.8721 32.2655 21.9631 32.7182 22.1451C33.1755 22.3271 33.5442 22.5861 33.8242 22.9221C34.1042 23.2581 34.2769 23.6524 34.3422 24.1051L32.6202 24.4131C32.5782 24.0911 32.4312 23.8368 32.1792 23.6501C31.9319 23.4634 31.6005 23.3584 31.1852 23.3351C30.7885 23.3118 30.4689 23.3724 30.2262 23.5171C29.9835 23.6571 29.8622 23.8554 29.8622 24.1121C29.8622 24.2568 29.9112 24.3804 30.0092 24.4831C30.1072 24.5858 30.3032 24.6884 30.5972 24.7911C30.8959 24.8938 31.3392 25.0198 31.9272 25.1691C32.5292 25.3231 33.0099 25.5004 33.3692 25.7011C33.7332 25.8971 33.9945 26.1328 34.1532 26.4081C34.3165 26.6834 34.3982 27.0171 34.3982 27.4091C34.3982 28.1698 34.1205 28.7671 33.5652 29.2011C33.0145 29.6351 32.2515 29.8521 31.2762 29.8521ZM38.8504 29.8521C37.9171 29.8521 37.1587 29.6421 36.5754 29.2221C35.9921 28.8021 35.6374 28.2118 35.5114 27.4511L37.2334 27.1851C37.3221 27.5584 37.5181 27.8524 37.8214 28.0671C38.1247 28.2818 38.5074 28.3891 38.9694 28.3891C39.3754 28.3891 39.6881 28.3098 39.9074 28.1511C40.1314 27.9878 40.2434 27.7661 40.2434 27.4861C40.2434 27.3134 40.2014 27.1758 40.1174 27.0731C40.0381 26.9658 39.8607 26.8631 39.5854 26.7651C39.3101 26.6671 38.8877 26.5434 38.3184 26.3941C37.6837 26.2261 37.1797 26.0464 36.8064 25.8551C36.4331 25.6591 36.1647 25.4281 36.0014 25.1621C35.8381 24.8961 35.7564 24.5741 35.7564 24.1961C35.7564 23.7248 35.8801 23.3141 36.1274 22.9641C36.3747 22.6141 36.7201 22.3458 37.1634 22.1591C37.6067 21.9678 38.1294 21.8721 38.7314 21.8721C39.3194 21.8721 39.8397 21.9631 40.2924 22.1451C40.7497 22.3271 41.1184 22.5861 41.3984 22.9221C41.6784 23.2581 41.8511 23.6524 41.9164 24.1051L40.1944 24.4131C40.1524 24.0911 40.0054 23.8368 39.7534 23.6501C39.5061 23.4634 39.1747 23.3584 38.7594 23.3351C38.3627 23.3118 38.0431 23.3724 37.8004 23.5171C37.5577 23.6571 37.4364 23.8554 37.4364 24.1121C37.4364 24.2568 37.4854 24.3804 37.5834 24.4831C37.6814 24.5858 37.8774 24.6884 38.1714 24.7911C38.4701 24.8938 38.9134 25.0198 39.5014 25.1691C40.1034 25.3231 40.5841 25.5004 40.9434 25.7011C41.3074 25.8971 41.5687 26.1328 41.7274 26.4081C41.8907 26.6834 41.9724 27.0171 41.9724 27.4091C41.9724 28.1698 41.6947 28.7671 41.1394 29.2011C40.5887 29.6351 39.8257 29.8521 38.8504 29.8521ZM46.9426 29.8521C46.1773 29.8521 45.5053 29.6864 44.9266 29.3551C44.348 29.0238 43.8953 28.5641 43.5686 27.9761C43.2466 27.3881 43.0856 26.7114 43.0856 25.9461C43.0856 25.1201 43.2443 24.4038 43.5616 23.7971C43.879 23.1858 44.32 22.7121 44.8846 22.3761C45.4493 22.0401 46.1026 21.8721 46.8446 21.8721C47.6286 21.8721 48.2936 22.0564 48.8396 22.4251C49.3903 22.7891 49.7986 23.3048 50.0646 23.9721C50.3306 24.6394 50.431 25.4258 50.3656 26.3311H48.6926V25.7151C48.688 24.8938 48.5433 24.2941 48.2586 23.9161C47.974 23.5381 47.526 23.3491 46.9146 23.3491C46.224 23.3491 45.7106 23.5638 45.3746 23.9931C45.0386 24.4178 44.8706 25.0408 44.8706 25.8621C44.8706 26.6274 45.0386 27.2201 45.3746 27.6401C45.7106 28.0601 46.2006 28.2701 46.8446 28.2701C47.26 28.2701 47.617 28.1791 47.9156 27.9971C48.219 27.8104 48.4523 27.5421 48.6156 27.1921L50.2816 27.6961C49.9923 28.3774 49.5443 28.9071 48.9376 29.2851C48.3356 29.6631 47.6706 29.8521 46.9426 29.8521ZM44.3386 26.3311V25.0571H49.5396V26.3311H44.3386ZM56.3585 29.6421C55.8592 29.7354 55.3692 29.7751 54.8885 29.7611C54.4125 29.7518 53.9855 29.6654 53.6075 29.5021C53.2295 29.3341 52.9425 29.0704 52.7465 28.7111C52.5738 28.3844 52.4828 28.0508 52.4735 27.7101C52.4642 27.3694 52.4595 26.9844 52.4595 26.5551V19.9821H54.1395V26.4571C54.1395 26.7604 54.1418 27.0264 54.1465 27.2551C54.1558 27.4838 54.2048 27.6704 54.2935 27.8151C54.4615 28.0951 54.7298 28.2514 55.0985 28.2841C55.4672 28.3168 55.8872 28.2981 56.3585 28.2281V29.6421ZM51.0875 23.4051V22.0821H56.3585V23.4051H51.0875ZM60.9032 29.8521C59.9698 29.8521 59.2115 29.6421 58.6282 29.2221C58.0448 28.8021 57.6902 28.2118 57.5642 27.4511L59.2862 27.1851C59.3748 27.5584 59.5708 27.8524 59.8742 28.0671C60.1775 28.2818 60.5602 28.3891 61.0222 28.3891C61.4282 28.3891 61.7408 28.3098 61.9602 28.1511C62.1842 27.9878 62.2962 27.7661 62.2962 27.4861C62.2962 27.3134 62.2542 27.1758 62.1702 27.0731C62.0908 26.9658 61.9135 26.8631 61.6382 26.7651C61.3628 26.6671 60.9405 26.5434 60.3712 26.3941C59.7365 26.2261 59.2325 26.0464 58.8592 25.8551C58.4858 25.6591 58.2175 25.4281 58.0542 25.1621C57.8908 24.8961 57.8092 24.5741 57.8092 24.1961C57.8092 23.7248 57.9328 23.3141 58.1802 22.9641C58.4275 22.6141 58.7728 22.3458 59.2162 22.1591C59.6595 21.9678 60.1822 21.8721 60.7842 21.8721C61.3722 21.8721 61.8925 21.9631 62.3452 22.1451C62.8025 22.3271 63.1712 22.5861 63.4512 22.9221C63.7312 23.2581 63.9038 23.6524 63.9692 24.1051L62.2472 24.4131C62.2052 24.0911 62.0582 23.8368 61.8062 23.6501C61.5588 23.4634 61.2275 23.3584 60.8122 23.3351C60.4155 23.3118 60.0958 23.3724 59.8532 23.5171C59.6105 23.6571 59.4892 23.8554 59.4892 24.1121C59.4892 24.2568 59.5382 24.3804 59.6362 24.4831C59.7342 24.5858 59.9302 24.6884 60.2242 24.7911C60.5228 24.8938 60.9662 25.0198 61.5542 25.1691C62.1562 25.3231 62.6368 25.5004 62.9962 25.7011C63.3602 25.8971 63.6215 26.1328 63.7802 26.4081C63.9435 26.6834 64.0252 27.0171 64.0252 27.4091C64.0252 28.1698 63.7475 28.7671 63.1922 29.2011C62.6415 29.6351 61.8785 29.8521 60.9032 29.8521Z" fill="white"/>
<path d="M263.791 31.0351V29.3761H265.478V31.0351H263.791ZM263.791 19.8351V18.1761H265.478V19.8351H263.791ZM264.673 29.8521C263.964 29.8521 263.329 29.7214 262.769 29.4601C262.209 29.1988 261.75 28.8301 261.39 28.3541C261.036 27.8781 260.809 27.3134 260.711 26.6601L262.377 26.3941C262.508 26.9681 262.788 27.4254 263.217 27.7661C263.651 28.1021 264.169 28.2701 264.771 28.2701C265.35 28.2701 265.826 28.1348 266.199 27.8641C266.573 27.5888 266.759 27.2411 266.759 26.8211C266.759 26.5271 266.671 26.2891 266.493 26.1071C266.316 25.9204 266.031 25.7664 265.639 25.6451L263.21 24.8891C261.796 24.4504 261.089 23.5918 261.089 22.3131C261.089 21.7158 261.232 21.1954 261.516 20.7521C261.806 20.3041 262.212 19.9611 262.734 19.7231C263.257 19.4804 263.873 19.3614 264.582 19.3661C265.24 19.3708 265.826 19.4898 266.339 19.7231C266.857 19.9564 267.287 20.2924 267.627 20.7311C267.973 21.1698 268.218 21.6971 268.362 22.3131L266.633 22.6281C266.568 22.2968 266.44 22.0051 266.248 21.7531C266.057 21.5011 265.817 21.3051 265.527 21.1651C265.238 21.0251 264.916 20.9504 264.561 20.9411C264.221 20.9364 263.915 20.9901 263.644 21.1021C263.374 21.2094 263.159 21.3634 263 21.5641C262.842 21.7601 262.762 21.9818 262.762 22.2291C262.762 22.5044 262.872 22.7401 263.091 22.9361C263.315 23.1321 263.668 23.3001 264.148 23.4401L265.961 23.9651C266.834 24.2171 267.462 24.5601 267.844 24.9941C268.232 25.4234 268.425 25.9951 268.425 26.7091C268.425 27.3344 268.269 27.8828 267.956 28.3541C267.644 28.8254 267.205 29.1941 266.64 29.4601C266.076 29.7214 265.42 29.8521 264.673 29.8521ZM276.043 29.8521C275.376 29.8521 274.783 29.7168 274.265 29.4461C273.747 29.1754 273.341 28.7998 273.047 28.3191C272.753 27.8384 272.606 27.2878 272.606 26.6671C272.606 26.1118 272.734 25.5961 272.991 25.1201C273.248 24.6441 273.623 24.2638 274.118 23.9791L274.083 24.5181C273.696 24.2241 273.395 23.8858 273.18 23.5031C272.97 23.1158 272.865 22.6818 272.865 22.2011C272.865 21.6224 273 21.1208 273.271 20.6961C273.546 20.2714 273.922 19.9424 274.398 19.7091C274.874 19.4711 275.422 19.3521 276.043 19.3521C276.664 19.3521 277.212 19.4711 277.688 19.7091C278.169 19.9424 278.544 20.2714 278.815 20.6961C279.09 21.1208 279.228 21.6224 279.228 22.2011C279.228 22.6818 279.125 23.1134 278.92 23.4961C278.719 23.8788 278.414 24.2241 278.003 24.5321L277.996 23.9861C278.481 24.2614 278.852 24.6394 279.109 25.1201C279.37 25.5961 279.501 26.1118 279.501 26.6671C279.501 27.2878 279.352 27.8384 279.053 28.3191C278.759 28.7998 278.351 29.1754 277.828 29.4461C277.31 29.7168 276.715 29.8521 276.043 29.8521ZM276.043 28.2631C276.538 28.2631 276.939 28.1278 277.247 27.8571C277.56 27.5864 277.716 27.1898 277.716 26.6671C277.716 26.1444 277.562 25.7478 277.254 25.4771C276.946 25.2018 276.542 25.0641 276.043 25.0641C275.548 25.0641 275.149 25.2018 274.846 25.4771C274.543 25.7478 274.391 26.1444 274.391 26.6671C274.391 27.1898 274.543 27.5864 274.846 27.8571C275.149 28.1278 275.548 28.2631 276.043 28.2631ZM276.043 23.4611C276.458 23.4611 276.794 23.3584 277.051 23.1531C277.312 22.9431 277.443 22.6258 277.443 22.2011C277.443 21.7764 277.312 21.4614 277.051 21.2561C276.794 21.0461 276.458 20.9411 276.043 20.9411C275.632 20.9411 275.296 21.0461 275.035 21.2561C274.778 21.4614 274.65 21.7764 274.65 22.2011C274.65 22.6258 274.778 22.9431 275.035 23.1531C275.296 23.3584 275.632 23.4611 276.043 23.4611ZM284.573 19.3661C285.231 19.3661 285.824 19.5224 286.351 19.8351C286.879 20.1431 287.294 20.5724 287.597 21.1231C287.905 21.6691 288.059 22.2991 288.059 23.0131V26.0861C288.059 26.8468 287.905 27.5118 287.597 28.0811C287.294 28.6458 286.867 29.0821 286.316 29.3901C285.766 29.6981 285.122 29.8521 284.384 29.8521C283.876 29.8521 283.395 29.7658 282.942 29.5931C282.49 29.4158 282.084 29.1451 281.724 28.7811L282.935 27.5981C283.117 27.8081 283.334 27.9738 283.586 28.0951C283.843 28.2118 284.109 28.2701 284.384 28.2701C284.776 28.2701 285.119 28.1791 285.413 27.9971C285.707 27.8104 285.936 27.5701 286.099 27.2761C286.263 26.9774 286.344 26.6578 286.344 26.3171V24.6441L286.645 24.9801C286.361 25.3161 286.015 25.5798 285.609 25.7711C285.203 25.9578 284.776 26.0511 284.328 26.0511C283.698 26.0511 283.138 25.9064 282.648 25.6171C282.163 25.3278 281.78 24.9358 281.5 24.4411C281.225 23.9418 281.087 23.3771 281.087 22.7471C281.087 22.1171 281.246 21.5478 281.563 21.0391C281.881 20.5258 282.303 20.1198 282.83 19.8211C283.362 19.5178 283.943 19.3661 284.573 19.3661ZM284.573 20.9761C284.247 20.9761 283.948 21.0554 283.677 21.2141C283.407 21.3728 283.192 21.5874 283.033 21.8581C282.875 22.1241 282.795 22.4204 282.795 22.7471C282.795 23.0738 282.872 23.3724 283.026 23.6431C283.185 23.9138 283.397 24.1284 283.663 24.2871C283.934 24.4458 284.233 24.5251 284.559 24.5251C284.886 24.5251 285.185 24.4458 285.455 24.2871C285.726 24.1284 285.941 23.9138 286.099 23.6431C286.263 23.3724 286.344 23.0738 286.344 22.7471C286.344 22.4298 286.265 22.1381 286.106 21.8721C285.948 21.6014 285.733 21.3844 285.462 21.2211C285.196 21.0578 284.9 20.9761 284.573 20.9761ZM293.003 29.8521C292.489 29.8521 292.011 29.7471 291.568 29.5371C291.124 29.3224 290.742 29.0284 290.42 28.6551C290.102 28.2818 289.874 27.8478 289.734 27.3531L291.358 26.9191C291.423 27.1898 291.542 27.4231 291.715 27.6191C291.892 27.8151 292.097 27.9668 292.331 28.0741C292.569 28.1814 292.814 28.2351 293.066 28.2351C293.392 28.2351 293.691 28.1558 293.962 27.9971C294.232 27.8384 294.447 27.6261 294.606 27.3601C294.764 27.0894 294.844 26.7908 294.844 26.4641C294.844 26.1374 294.762 25.8411 294.599 25.5751C294.44 25.3044 294.225 25.0921 293.955 24.9381C293.684 24.7794 293.388 24.7001 293.066 24.7001C292.678 24.7001 292.356 24.7701 292.1 24.9101C291.848 25.0501 291.654 25.1994 291.519 25.3581L290.077 24.8961L290.385 19.5621H295.859V21.1441H291.288L291.918 20.5491L291.694 24.2591L291.386 23.8811C291.647 23.6431 291.95 23.4658 292.296 23.3491C292.641 23.2324 292.975 23.1741 293.297 23.1741C293.927 23.1741 294.484 23.3188 294.97 23.6081C295.46 23.8928 295.842 24.2824 296.118 24.7771C296.398 25.2718 296.538 25.8341 296.538 26.4641C296.538 27.0941 296.374 27.6658 296.048 28.1791C295.721 28.6878 295.289 29.0938 294.753 29.3971C294.221 29.7004 293.637 29.8521 293.003 29.8521ZM298.077 31.4271L298.175 30.6991C298.389 30.7178 298.56 30.6804 298.686 30.5871C298.812 30.4984 298.896 30.3701 298.938 30.2021C298.984 30.0388 298.996 29.8521 298.973 29.6421H298.077V27.8431H299.806V29.7121C299.806 30.3234 299.661 30.7854 299.372 31.0981C299.082 31.4108 298.651 31.5204 298.077 31.4271ZM305.458 29.8521C304.944 29.8521 304.466 29.7471 304.023 29.5371C303.579 29.3224 303.197 29.0284 302.875 28.6551C302.557 28.2818 302.329 27.8478 302.189 27.3531L303.813 26.9191C303.878 27.1898 303.997 27.4231 304.17 27.6191C304.347 27.8151 304.552 27.9668 304.786 28.0741C305.024 28.1814 305.269 28.2351 305.521 28.2351C305.847 28.2351 306.146 28.1558 306.417 27.9971C306.687 27.8384 306.902 27.6261 307.061 27.3601C307.219 27.0894 307.299 26.7908 307.299 26.4641C307.299 26.1374 307.217 25.8411 307.054 25.5751C306.895 25.3044 306.68 25.0921 306.41 24.9381C306.139 24.7794 305.843 24.7001 305.521 24.7001C305.133 24.7001 304.811 24.7701 304.555 24.9101C304.303 25.0501 304.109 25.1994 303.974 25.3581L302.532 24.8961L302.84 19.5621H308.314V21.1441H303.743L304.373 20.5491L304.149 24.2591L303.841 23.8811C304.102 23.6431 304.405 23.4658 304.751 23.3491C305.096 23.2324 305.43 23.1741 305.752 23.1741C306.382 23.1741 306.939 23.3188 307.425 23.6081C307.915 23.8928 308.297 24.2824 308.573 24.7771C308.853 25.2718 308.993 25.8341 308.993 26.4641C308.993 27.0941 308.829 27.6658 308.503 28.1791C308.176 28.6878 307.744 29.0938 307.208 29.3971C306.676 29.7004 306.092 29.8521 305.458 29.8521ZM313.661 29.8521C313.148 29.8521 312.669 29.7471 312.226 29.5371C311.783 29.3224 311.4 29.0284 311.078 28.6551C310.761 28.2818 310.532 27.8478 310.392 27.3531L312.016 26.9191C312.081 27.1898 312.2 27.4231 312.373 27.6191C312.55 27.8151 312.756 27.9668 312.989 28.0741C313.227 28.1814 313.472 28.2351 313.724 28.2351C314.051 28.2351 314.349 28.1558 314.62 27.9971C314.891 27.8384 315.105 27.6261 315.264 27.3601C315.423 27.0894 315.502 26.7908 315.502 26.4641C315.502 26.1374 315.42 25.8411 315.257 25.5751C315.098 25.3044 314.884 25.0921 314.613 24.9381C314.342 24.7794 314.046 24.7001 313.724 24.7001C313.337 24.7001 313.015 24.7701 312.758 24.9101C312.506 25.0501 312.312 25.1994 312.177 25.3581L310.735 24.8961L311.043 19.5621H316.517V21.1441H311.946L312.576 20.5491L312.352 24.2591L312.044 23.8811C312.305 23.6431 312.609 23.4658 312.954 23.3491C313.299 23.2324 313.633 23.1741 313.955 23.1741C314.585 23.1741 315.143 23.3188 315.628 23.6081C316.118 23.8928 316.501 24.2824 316.776 24.7771C317.056 25.2718 317.196 25.8341 317.196 26.4641C317.196 27.0941 317.033 27.6658 316.706 28.1791C316.379 28.6878 315.948 29.0938 315.411 29.3971C314.879 29.7004 314.296 29.8521 313.661 29.8521ZM322.501 29.8521C321.787 29.8521 321.157 29.7004 320.611 29.3971C320.065 29.0891 319.638 28.6621 319.33 28.1161C319.027 27.5701 318.875 26.9401 318.875 26.2261V22.9781C318.875 22.2641 319.027 21.6341 319.33 21.0881C319.638 20.5421 320.065 20.1174 320.611 19.8141C321.157 19.5061 321.787 19.3521 322.501 19.3521C323.215 19.3521 323.843 19.5061 324.384 19.8141C324.93 20.1174 325.357 20.5421 325.665 21.0881C325.973 21.6341 326.127 22.2641 326.127 22.9781V26.2261C326.127 26.9401 325.973 27.5701 325.665 28.1161C325.357 28.6621 324.93 29.0891 324.384 29.3971C323.843 29.7004 323.215 29.8521 322.501 29.8521ZM322.501 28.2491C322.856 28.2491 323.178 28.1651 323.467 27.9971C323.756 27.8244 323.985 27.5958 324.153 27.3111C324.321 27.0218 324.405 26.6998 324.405 26.3451V22.8521C324.405 22.4928 324.321 22.1708 324.153 21.8861C323.985 21.5968 323.756 21.3681 323.467 21.2001C323.178 21.0274 322.856 20.9411 322.501 20.9411C322.146 20.9411 321.824 21.0274 321.535 21.2001C321.246 21.3681 321.017 21.5968 320.849 21.8861C320.681 22.1708 320.597 22.4928 320.597 22.8521V26.3451C320.597 26.6998 320.681 27.0218 320.849 27.3111C321.017 27.5958 321.246 27.8244 321.535 27.9971C321.824 28.1651 322.146 28.2491 322.501 28.2491Z" fill="white"/>
</g>
<defs>
<linearGradient id="paint0_linear_568_167" x1="141.991" y1="72.4949" x2="38.2297" y2="172.766" gradientUnits="userSpaceOnUse">
<stop stop-color="#FFD680"/>
<stop offset="1" stop-color="#FFAD00"/>
</linearGradient>
<linearGradient id="paint1_linear_568_167" x1="110.268" y1="86.9982" x2="-57.3628" y2="153.938" gradientUnits="userSpaceOnUse">
<stop stop-color="#24F5C5"/>
<stop offset="1" stop-color="#00755A"/>
</linearGradient>
<clipPath id="clip0_568_167">
<rect width="351" height="233" fill="white" transform="translate(0 0.317871)"/>
</clipPath>
</defs>
</svg>
