<svg width="281" height="234" viewBox="0 0 281 234" fill="none" xmlns="http://www.w3.org/2000/svg">
<rect y="0.317871" width="281" height="233" rx="20" fill="white" fill-opacity="0.1"/>
<path d="M22.4649 29.7256C21.4569 29.7256 20.5936 29.5063 19.8749 29.0676C19.1563 28.6243 18.6033 28.0083 18.2159 27.2196C17.8333 26.431 17.6419 25.5163 17.6419 24.4756C17.6419 23.435 17.8333 22.5203 18.2159 21.7316C18.6033 20.943 19.1563 20.3293 19.8749 19.8906C20.5936 19.4473 21.4569 19.2256 22.4649 19.2256C23.6269 19.2256 24.5953 19.5173 25.3699 20.1006C26.1446 20.6793 26.6883 21.461 27.0009 22.4456L25.2999 22.9146C25.1039 22.2566 24.7703 21.7433 24.2989 21.3746C23.8276 21.0013 23.2163 20.8146 22.4649 20.8146C21.7883 20.8146 21.2236 20.9663 20.7709 21.2696C20.3229 21.573 19.9846 22 19.7559 22.5506C19.5319 23.0966 19.4176 23.7383 19.4129 24.4756C19.4129 25.213 19.5249 25.857 19.7489 26.4076C19.9776 26.9536 20.3183 27.3783 20.7709 27.6816C21.2236 27.985 21.7883 28.1366 22.4649 28.1366C23.2163 28.1366 23.8276 27.95 24.2989 27.5766C24.7703 27.2033 25.1039 26.69 25.2999 26.0366L27.0009 26.5056C26.6883 27.4903 26.1446 28.2743 25.3699 28.8576C24.5953 29.4363 23.6269 29.7256 22.4649 29.7256ZM30.6519 29.7256C30.1059 29.7256 29.6439 29.623 29.2659 29.4176C28.8879 29.2076 28.6009 28.93 28.4049 28.5846C28.2135 28.2393 28.1179 27.859 28.1179 27.4436C28.1179 27.0796 28.1785 26.753 28.2999 26.4636C28.4212 26.1696 28.6079 25.9176 28.8599 25.7076C29.1119 25.493 29.4385 25.318 29.8399 25.1826C30.1432 25.0846 30.4979 24.996 30.9039 24.9166C31.3145 24.8373 31.7579 24.765 32.2339 24.6996C32.7145 24.6296 33.2162 24.555 33.7389 24.4756L33.1369 24.8186C33.1415 24.296 33.0249 23.911 32.7869 23.6636C32.5489 23.4163 32.1475 23.2926 31.5829 23.2926C31.2422 23.2926 30.9132 23.372 30.5959 23.5306C30.2785 23.6893 30.0569 23.9623 29.9309 24.3496L28.3909 23.8666C28.5775 23.2273 28.9322 22.714 29.4549 22.3266C29.9822 21.9393 30.6915 21.7456 31.5829 21.7456C32.2549 21.7456 32.8452 21.8553 33.3539 22.0746C33.8672 22.294 34.2475 22.6533 34.4949 23.1526C34.6302 23.4186 34.7119 23.6916 34.7399 23.9716C34.7679 24.247 34.7819 24.548 34.7819 24.8746V29.5156H33.3049V27.8776L33.5499 28.1436C33.2092 28.6896 32.8102 29.091 32.3529 29.3476C31.9002 29.5996 31.3332 29.7256 30.6519 29.7256ZM30.9879 28.3816C31.3705 28.3816 31.6972 28.314 31.9679 28.1786C32.2385 28.0433 32.4532 27.8776 32.6119 27.6816C32.7752 27.4856 32.8849 27.3013 32.9409 27.1286C33.0295 26.914 33.0785 26.669 33.0879 26.3936C33.1019 26.1136 33.1089 25.8873 33.1089 25.7146L33.6269 25.8686C33.1182 25.948 32.6819 26.018 32.3179 26.0786C31.9539 26.1393 31.6412 26.1976 31.3799 26.2536C31.1185 26.305 30.8875 26.3633 30.6869 26.4286C30.4909 26.4986 30.3252 26.5803 30.1899 26.6736C30.0545 26.767 29.9495 26.8743 29.8749 26.9956C29.8049 27.117 29.7699 27.2593 29.7699 27.4226C29.7699 27.6093 29.8165 27.775 29.9099 27.9196C30.0032 28.0596 30.1385 28.1716 30.3159 28.2556C30.4979 28.3396 30.7219 28.3816 30.9879 28.3816ZM39.5233 29.7256C38.5899 29.7256 37.8316 29.5156 37.2483 29.0956C36.6649 28.6756 36.3103 28.0853 36.1843 27.3246L37.9063 27.0586C37.9949 27.432 38.1909 27.726 38.4943 27.9406C38.7976 28.1553 39.1803 28.2626 39.6423 28.2626C40.0483 28.2626 40.3609 28.1833 40.5803 28.0246C40.8043 27.8613 40.9163 27.6396 40.9163 27.3596C40.9163 27.187 40.8743 27.0493 40.7903 26.9466C40.7109 26.8393 40.5336 26.7366 40.2583 26.6386C39.9829 26.5406 39.5606 26.417 38.9913 26.2676C38.3566 26.0996 37.8526 25.92 37.4793 25.7286C37.1059 25.5326 36.8376 25.3016 36.6743 25.0356C36.5109 24.7696 36.4293 24.4476 36.4293 24.0696C36.4293 23.5983 36.5529 23.1876 36.8003 22.8376C37.0476 22.4876 37.3929 22.2193 37.8363 22.0326C38.2796 21.8413 38.8023 21.7456 39.4043 21.7456C39.9923 21.7456 40.5126 21.8366 40.9653 22.0186C41.4226 22.2006 41.7913 22.4596 42.0713 22.7956C42.3513 23.1316 42.5239 23.526 42.5893 23.9786L40.8673 24.2866C40.8253 23.9646 40.6783 23.7103 40.4263 23.5236C40.1789 23.337 39.8476 23.232 39.4323 23.2086C39.0356 23.1853 38.7159 23.246 38.4733 23.3906C38.2306 23.5306 38.1093 23.729 38.1093 23.9856C38.1093 24.1303 38.1583 24.254 38.2563 24.3566C38.3543 24.4593 38.5503 24.562 38.8443 24.6646C39.1429 24.7673 39.5863 24.8933 40.1743 25.0426C40.7763 25.1966 41.2569 25.374 41.6163 25.5746C41.9803 25.7706 42.2416 26.0063 42.4003 26.2816C42.5636 26.557 42.6453 26.8906 42.6453 27.2826C42.6453 28.0433 42.3676 28.6406 41.8123 29.0746C41.2616 29.5086 40.4986 29.7256 39.5233 29.7256ZM49.4075 29.5156V25.8756C49.4075 25.6376 49.3912 25.374 49.3585 25.0846C49.3258 24.7953 49.2488 24.5176 49.1275 24.2516C49.0108 23.981 48.8335 23.7593 48.5955 23.5866C48.3622 23.414 48.0448 23.3276 47.6435 23.3276C47.4288 23.3276 47.2165 23.3626 47.0065 23.4326C46.7965 23.5026 46.6052 23.624 46.4325 23.7966C46.2645 23.9646 46.1292 24.198 46.0265 24.4966C45.9238 24.7906 45.8725 25.1686 45.8725 25.6306L44.8715 25.2036C44.8715 24.5596 44.9952 23.9763 45.2425 23.4536C45.4945 22.931 45.8632 22.5156 46.3485 22.2076C46.8338 21.895 47.4312 21.7386 48.1405 21.7386C48.7005 21.7386 49.1625 21.832 49.5265 22.0186C49.8905 22.2053 50.1798 22.4433 50.3945 22.7326C50.6092 23.022 50.7678 23.33 50.8705 23.6566C50.9732 23.9833 51.0385 24.2936 51.0665 24.5876C51.0992 24.877 51.1155 25.1126 51.1155 25.2946V29.5156H49.4075ZM44.1645 29.5156V19.4356H45.6695V24.7416H45.8725V29.5156H44.1645ZM55.7449 29.5156V19.4356H61.8139V21.1226H57.4319V23.6356H60.9739V25.3156H57.4319V29.5156H55.7449ZM63.213 29.5156V19.2256H64.9V29.5156H63.213ZM70.3358 29.7256C69.5798 29.7256 68.9195 29.5553 68.3548 29.2146C67.7902 28.874 67.3515 28.405 67.0388 27.8076C66.7308 27.2056 66.5768 26.515 66.5768 25.7356C66.5768 24.9423 66.7355 24.247 67.0528 23.6496C67.3702 23.0523 67.8112 22.5856 68.3758 22.2496C68.9405 21.9136 69.5938 21.7456 70.3358 21.7456C71.0965 21.7456 71.7592 21.916 72.3238 22.2566C72.8885 22.5973 73.3272 23.0686 73.6398 23.6706C73.9525 24.268 74.1088 24.9563 74.1088 25.7356C74.1088 26.5196 73.9502 27.2126 73.6328 27.8146C73.3202 28.412 72.8815 28.881 72.3168 29.2216C71.7522 29.5576 71.0918 29.7256 70.3358 29.7256ZM70.3358 28.1436C71.0078 28.1436 71.5072 27.9196 71.8338 27.4716C72.1605 27.0236 72.3238 26.445 72.3238 25.7356C72.3238 25.003 72.1582 24.4196 71.8268 23.9856C71.4955 23.547 70.9985 23.3276 70.3358 23.3276C69.8832 23.3276 69.5098 23.4303 69.2158 23.6356C68.9265 23.8363 68.7118 24.1186 68.5718 24.4826C68.4318 24.842 68.3618 25.2596 68.3618 25.7356C68.3618 26.4683 68.5275 27.054 68.8588 27.4926C69.1948 27.9266 69.6872 28.1436 70.3358 28.1436ZM76.9877 29.5156L74.6777 21.9416L76.3297 21.9556L77.8067 26.8066L79.3047 21.9556H80.7257L82.2167 26.8066L83.7007 21.9556H85.3527L83.0427 29.5156H81.7267L80.0117 24.3146L78.3037 29.5156H76.9877Z" fill="white"/>
<rect x="17.2219" y="45.5156" width="12" height="12" rx="4" fill="#3FD3B1"/>
<path d="M34.3 55.5156V47.0605H35.3547V55.5156H34.3ZM37.3821 55.5156V49.1992H38.4016V50.1484H38.4954C38.6555 49.8125 38.886 49.5527 39.1868 49.3691C39.4875 49.1816 39.8704 49.0879 40.3352 49.0879C41.0461 49.0879 41.5911 49.291 41.97 49.6973C42.3528 50.0996 42.5442 50.6758 42.5442 51.4258V55.5156H41.5247V51.6719C41.5247 51.1016 41.4036 50.6797 41.1614 50.4062C40.9231 50.1289 40.552 49.9902 40.0481 49.9902C39.7122 49.9902 39.4211 50.0625 39.175 50.207C38.929 50.3516 38.7375 50.5566 38.6008 50.8223C38.468 51.0879 38.4016 51.4062 38.4016 51.7773V55.5156H37.3821ZM45.9426 55.5156L43.6047 49.1992H44.6829L46.4114 54.4023H46.5051L48.2336 49.1992H49.3118L46.9739 55.5156H45.9426ZM53.0032 55.627C52.4016 55.627 51.884 55.4941 51.4504 55.2285C51.0208 54.9629 50.6887 54.5879 50.4543 54.1035C50.2239 53.6152 50.1086 53.041 50.1086 52.3809V52.375C50.1086 51.7227 50.2239 51.1504 50.4543 50.6582C50.6887 50.166 51.0188 49.7812 51.4446 49.5039C51.8704 49.2266 52.3684 49.0879 52.9387 49.0879C53.5129 49.0879 54.0051 49.2207 54.4153 49.4863C54.8293 49.752 55.1458 50.123 55.3645 50.5996C55.5872 51.0723 55.6985 51.623 55.6985 52.252V52.6504H50.636V51.8359H55.177L54.6731 52.5801V52.1758C54.6731 51.6797 54.5989 51.2715 54.4504 50.9512C54.302 50.6309 54.0969 50.3926 53.8352 50.2363C53.5735 50.0762 53.2727 49.9961 52.9329 49.9961C52.593 49.9961 52.2883 50.0801 52.0188 50.248C51.7532 50.4121 51.5422 50.6562 51.386 50.9805C51.2297 51.3047 51.1516 51.7031 51.1516 52.1758V52.5801C51.1516 53.0293 51.2278 53.4141 51.3801 53.7344C51.5325 54.0508 51.7493 54.2949 52.0305 54.4668C52.3118 54.6348 52.6438 54.7188 53.0266 54.7188C53.3118 54.7188 53.5598 54.6797 53.7708 54.6016C53.9817 54.5234 54.1555 54.4238 54.2922 54.3027C54.429 54.1816 54.5247 54.0586 54.5793 53.9336L54.6028 53.8809H55.6223L55.6106 53.9277C55.5559 54.1426 55.4583 54.3516 55.3176 54.5547C55.1809 54.7539 55.0032 54.9355 54.7844 55.0996C54.5657 55.2598 54.3059 55.3887 54.0051 55.4863C53.7083 55.5801 53.3743 55.627 53.0032 55.627ZM59.4485 55.627C58.9797 55.627 58.5657 55.5566 58.2063 55.416C57.8469 55.2715 57.5579 55.0703 57.3391 54.8125C57.1243 54.5547 56.9973 54.252 56.9583 53.9043H58.0012C58.0872 54.166 58.2551 54.377 58.5051 54.5371C58.7551 54.6973 59.0813 54.7773 59.4836 54.7773C59.7688 54.7773 60.0188 54.7363 60.2336 54.6543C60.4524 54.5684 60.6243 54.4531 60.7493 54.3086C60.8743 54.1602 60.9368 53.9902 60.9368 53.7988V53.7871C60.9368 53.5723 60.8508 53.3906 60.679 53.2422C60.5071 53.0898 60.2258 52.9668 59.8352 52.873L58.8567 52.6387C58.4622 52.5449 58.1379 52.4238 57.884 52.2754C57.6301 52.123 57.4426 51.9375 57.3215 51.7188C57.2004 51.4961 57.1399 51.2344 57.1399 50.9336V50.9277C57.1399 50.5762 57.2415 50.2617 57.4446 49.9844C57.6516 49.707 57.9329 49.4883 58.2883 49.3281C58.6438 49.168 59.0442 49.0879 59.4895 49.0879C59.9309 49.0879 60.3215 49.1582 60.6614 49.2988C61.0051 49.4355 61.2805 49.6309 61.4875 49.8848C61.6985 50.1387 61.8274 50.4375 61.8743 50.7812H60.8723C60.8059 50.5312 60.6536 50.3281 60.4153 50.1719C60.177 50.0156 59.8665 49.9375 59.4836 49.9375C59.2336 49.9375 59.011 49.9785 58.8157 50.0605C58.6204 50.1387 58.4661 50.248 58.3528 50.3887C58.2395 50.5293 58.1829 50.6934 58.1829 50.8809V50.8926C58.1829 51.0332 58.22 51.1582 58.2942 51.2676C58.3684 51.377 58.4836 51.4727 58.6399 51.5547C58.7961 51.6367 58.9973 51.709 59.2434 51.7715L60.2161 52.0059C60.8098 52.1504 61.2512 52.3574 61.5403 52.627C61.8333 52.8965 61.9797 53.2578 61.9797 53.7109V53.7227C61.9797 54.0977 61.8684 54.4297 61.6458 54.7188C61.4231 55.0039 61.1204 55.2266 60.7375 55.3867C60.3586 55.5469 59.929 55.627 59.4485 55.627ZM65.7473 55.5625C65.0989 55.5625 64.6282 55.4316 64.3352 55.1699C64.0461 54.9082 63.9016 54.4766 63.9016 53.875V50.043H62.9055V49.1992H63.9016V47.5645H64.9563V49.1992H66.3391V50.043H64.9563V53.6172C64.9563 53.9883 65.0266 54.2559 65.1672 54.4199C65.3079 54.5801 65.5422 54.6602 65.8704 54.6602C65.9602 54.6602 66.0364 54.6582 66.0989 54.6543C66.1653 54.6504 66.2454 54.6445 66.3391 54.6367V55.5039C66.2415 55.5195 66.1438 55.5332 66.0461 55.5449C65.9485 55.5566 65.8489 55.5625 65.7473 55.5625ZM67.8625 55.5156V49.1992H68.8821V50.1602H68.9758C69.1165 49.8203 69.3313 49.5566 69.6204 49.3691C69.9133 49.1816 70.2668 49.0879 70.6809 49.0879C70.9661 49.0879 71.2219 49.1348 71.4485 49.2285C71.675 49.3223 71.8704 49.4531 72.0344 49.6211C72.1985 49.7852 72.3293 49.9766 72.427 50.1953H72.5208C72.634 49.9727 72.7864 49.7793 72.9778 49.6152C73.1692 49.4473 73.3899 49.3184 73.6399 49.2285C73.8938 49.1348 74.1653 49.0879 74.4543 49.0879C74.884 49.0879 75.2473 49.168 75.5442 49.3281C75.845 49.4883 76.0735 49.7227 76.2297 50.0312C76.386 50.3359 76.4641 50.709 76.4641 51.1504V55.5156H75.4446V51.3848C75.4446 51.0723 75.3958 50.8145 75.2981 50.6113C75.2043 50.4043 75.0598 50.25 74.8645 50.1484C74.6692 50.043 74.4231 49.9902 74.1262 49.9902C73.8333 49.9902 73.5774 50.0566 73.3586 50.1895C73.1399 50.3223 72.97 50.5 72.8489 50.7227C72.7278 50.9414 72.6672 51.1855 72.6672 51.4551V55.5156H71.6477V51.2266C71.6477 50.9766 71.593 50.7598 71.4836 50.5762C71.3782 50.3887 71.2258 50.2441 71.0266 50.1426C70.8313 50.041 70.6008 49.9902 70.3352 49.9902C70.0618 49.9902 69.8137 50.0625 69.5911 50.207C69.3723 50.3516 69.1985 50.5469 69.0696 50.793C68.9446 51.0352 68.8821 51.3047 68.8821 51.6016V55.5156H67.8625ZM80.8821 55.627C80.2805 55.627 79.7629 55.4941 79.3293 55.2285C78.8997 54.9629 78.5676 54.5879 78.3333 54.1035C78.1028 53.6152 77.9875 53.041 77.9875 52.3809V52.375C77.9875 51.7227 78.1028 51.1504 78.3333 50.6582C78.5676 50.166 78.8977 49.7812 79.3235 49.5039C79.7493 49.2266 80.2473 49.0879 80.8176 49.0879C81.3918 49.0879 81.884 49.2207 82.2942 49.4863C82.7083 49.752 83.0247 50.123 83.2434 50.5996C83.4661 51.0723 83.5774 51.623 83.5774 52.252V52.6504H78.5149V51.8359H83.0559L82.552 52.5801V52.1758C82.552 51.6797 82.4778 51.2715 82.3293 50.9512C82.1809 50.6309 81.9758 50.3926 81.7141 50.2363C81.4524 50.0762 81.1516 49.9961 80.8118 49.9961C80.4719 49.9961 80.1672 50.0801 79.8977 50.248C79.6321 50.4121 79.4211 50.6562 79.2649 50.9805C79.1086 51.3047 79.0305 51.7031 79.0305 52.1758V52.5801C79.0305 53.0293 79.1067 53.4141 79.259 53.7344C79.4114 54.0508 79.6282 54.2949 79.9094 54.4668C80.1907 54.6348 80.5227 54.7188 80.9055 54.7188C81.1907 54.7188 81.4387 54.6797 81.6497 54.6016C81.8606 54.5234 82.0344 54.4238 82.1711 54.3027C82.3079 54.1816 82.4036 54.0586 82.4583 53.9336L82.4817 53.8809H83.5012L83.4895 53.9277C83.4348 54.1426 83.3372 54.3516 83.1965 54.5547C83.0598 54.7539 82.8821 54.9355 82.6633 55.0996C82.4446 55.2598 82.1848 55.3887 81.884 55.4863C81.5872 55.5801 81.2532 55.627 80.8821 55.627ZM85.1594 55.5156V49.1992H86.179V50.1484H86.2727C86.4329 49.8125 86.6633 49.5527 86.9641 49.3691C87.2649 49.1816 87.6477 49.0879 88.1125 49.0879C88.8235 49.0879 89.3684 49.291 89.7473 49.6973C90.1301 50.0996 90.3215 50.6758 90.3215 51.4258V55.5156H89.302V51.6719C89.302 51.1016 89.1809 50.6797 88.9387 50.4062C88.7004 50.1289 88.3293 49.9902 87.8254 49.9902C87.4895 49.9902 87.1985 50.0625 86.9524 50.207C86.7063 50.3516 86.5149 50.5566 86.3782 50.8223C86.2454 51.0879 86.179 51.4062 86.179 51.7773V55.5156H85.1594ZM94.4114 55.5625C93.7629 55.5625 93.2922 55.4316 92.9993 55.1699C92.7102 54.9082 92.5657 54.4766 92.5657 53.875V50.043H91.5696V49.1992H92.5657V47.5645H93.6204V49.1992H95.0032V50.043H93.6204V53.6172C93.6204 53.9883 93.6907 54.2559 93.8313 54.4199C93.9719 54.5801 94.2063 54.6602 94.5344 54.6602C94.6243 54.6602 94.7004 54.6582 94.7629 54.6543C94.8293 54.6504 94.9094 54.6445 95.0032 54.6367V55.5039C94.9055 55.5195 94.8079 55.5332 94.7102 55.5449C94.6125 55.5566 94.5129 55.5625 94.4114 55.5625ZM98.5774 55.627C98.1086 55.627 97.6946 55.5566 97.3352 55.416C96.9758 55.2715 96.6868 55.0703 96.468 54.8125C96.2532 54.5547 96.1262 54.252 96.0872 53.9043H97.1301C97.2161 54.166 97.384 54.377 97.634 54.5371C97.884 54.6973 98.2102 54.7773 98.6125 54.7773C98.8977 54.7773 99.1477 54.7363 99.3625 54.6543C99.5813 54.5684 99.7532 54.4531 99.8782 54.3086C100.003 54.1602 100.066 53.9902 100.066 53.7988V53.7871C100.066 53.5723 99.9797 53.3906 99.8079 53.2422C99.636 53.0898 99.3547 52.9668 98.9641 52.873L97.9856 52.6387C97.5911 52.5449 97.2668 52.4238 97.0129 52.2754C96.759 52.123 96.5715 51.9375 96.4504 51.7188C96.3293 51.4961 96.2688 51.2344 96.2688 50.9336V50.9277C96.2688 50.5762 96.3704 50.2617 96.5735 49.9844C96.7805 49.707 97.0618 49.4883 97.4172 49.3281C97.7727 49.168 98.1731 49.0879 98.6184 49.0879C99.0598 49.0879 99.4504 49.1582 99.7903 49.2988C100.134 49.4355 100.409 49.6309 100.616 49.8848C100.827 50.1387 100.956 50.4375 101.003 50.7812H100.001C99.9348 50.5312 99.7825 50.3281 99.5442 50.1719C99.3059 50.0156 98.9954 49.9375 98.6125 49.9375C98.3625 49.9375 98.1399 49.9785 97.9446 50.0605C97.7493 50.1387 97.595 50.248 97.4817 50.3887C97.3684 50.5293 97.3118 50.6934 97.3118 50.8809V50.8926C97.3118 51.0332 97.3489 51.1582 97.4231 51.2676C97.4973 51.377 97.6125 51.4727 97.7688 51.5547C97.925 51.6367 98.1262 51.709 98.3723 51.7715L99.345 52.0059C99.9387 52.1504 100.38 52.3574 100.669 52.627C100.962 52.8965 101.109 53.2578 101.109 53.7109V53.7227C101.109 54.0977 100.997 54.4297 100.775 54.7188C100.552 55.0039 100.249 55.2266 99.8665 55.3867C99.4875 55.5469 99.0579 55.627 98.5774 55.627Z" fill="#D3D3D3"/>
<rect x="108.222" y="45.5156" width="12" height="12" rx="4" fill="#A150E1"/>
<path d="M125.3 55.5156V47.0605H130.433V48.0098H126.355V50.916H130.099V51.8535H126.355V55.5156H125.3ZM132.062 55.5156V49.1992H133.081V55.5156H132.062ZM132.577 47.9805C132.386 47.9805 132.22 47.9121 132.079 47.7754C131.943 47.6348 131.874 47.4688 131.874 47.2773C131.874 47.082 131.943 46.916 132.079 46.7793C132.22 46.6426 132.386 46.5742 132.577 46.5742C132.773 46.5742 132.939 46.6426 133.075 46.7793C133.212 46.916 133.281 47.082 133.281 47.2773C133.281 47.4688 133.212 47.6348 133.075 47.7754C132.939 47.9121 132.773 47.9805 132.577 47.9805ZM135.003 55.5156V49.1992H136.023V50.1484H136.116C136.277 49.8125 136.507 49.5527 136.808 49.3691C137.109 49.1816 137.491 49.0879 137.956 49.0879C138.667 49.0879 139.212 49.291 139.591 49.6973C139.974 50.0996 140.165 50.6758 140.165 51.4258V55.5156H139.146V51.6719C139.146 51.1016 139.025 50.6797 138.782 50.4062C138.544 50.1289 138.173 49.9902 137.669 49.9902C137.333 49.9902 137.042 50.0625 136.796 50.207C136.55 50.3516 136.359 50.5566 136.222 50.8223C136.089 51.0879 136.023 51.4062 136.023 51.7773V55.5156H135.003ZM143.745 55.627C143.347 55.627 142.988 55.5508 142.667 55.3984C142.351 55.2461 142.099 55.0293 141.911 54.748C141.728 54.4668 141.636 54.1348 141.636 53.752V53.7402C141.636 53.3652 141.726 53.0449 141.906 52.7793C142.085 52.5098 142.347 52.2988 142.691 52.1465C143.034 51.9941 143.45 51.9043 143.939 51.877L146.259 51.7363V52.5508L144.062 52.6914C143.581 52.7188 143.23 52.8184 143.007 52.9902C142.788 53.1621 142.679 53.4043 142.679 53.7168V53.7285C142.679 54.0488 142.8 54.2988 143.042 54.4785C143.284 54.6543 143.589 54.7422 143.956 54.7422C144.304 54.7422 144.613 54.6738 144.882 54.5371C145.152 54.3965 145.363 54.207 145.515 53.9688C145.671 53.7305 145.749 53.4609 145.749 53.1602V51.1914C145.749 50.8008 145.63 50.5039 145.392 50.3008C145.157 50.0938 144.804 49.9902 144.331 49.9902C143.952 49.9902 143.642 50.0586 143.4 50.1953C143.157 50.3281 142.995 50.5176 142.913 50.7637L142.907 50.7812H141.888L141.894 50.7461C141.948 50.4141 142.085 50.125 142.304 49.8789C142.527 49.6289 142.814 49.4355 143.165 49.2988C143.517 49.1582 143.917 49.0879 144.366 49.0879C144.882 49.0879 145.318 49.1719 145.673 49.3398C146.032 49.5078 146.304 49.75 146.488 50.0664C146.675 50.3789 146.769 50.7539 146.769 51.1914V55.5156H145.749V54.584H145.656C145.523 54.8066 145.361 54.9961 145.169 55.1523C144.982 55.3086 144.769 55.4277 144.531 55.5098C144.292 55.5879 144.031 55.627 143.745 55.627ZM148.632 55.5156V49.1992H149.652V50.1484H149.745C149.906 49.8125 150.136 49.5527 150.437 49.3691C150.738 49.1816 151.12 49.0879 151.585 49.0879C152.296 49.0879 152.841 49.291 153.22 49.6973C153.603 50.0996 153.794 50.6758 153.794 51.4258V55.5156H152.775V51.6719C152.775 51.1016 152.654 50.6797 152.411 50.4062C152.173 50.1289 151.802 49.9902 151.298 49.9902C150.962 49.9902 150.671 50.0625 150.425 50.207C150.179 50.3516 149.988 50.5566 149.851 50.8223C149.718 51.0879 149.652 51.4062 149.652 51.7773V55.5156H148.632ZM158.224 55.627C157.634 55.627 157.122 55.4922 156.689 55.2227C156.255 54.9531 155.919 54.5723 155.681 54.0801C155.443 53.5879 155.323 53.0078 155.323 52.3398V52.3281C155.323 51.6719 155.441 51.1016 155.675 50.6172C155.913 50.1328 156.249 49.7578 156.683 49.4922C157.116 49.2227 157.628 49.0879 158.218 49.0879C158.73 49.0879 159.171 49.1777 159.542 49.3574C159.913 49.5371 160.21 49.7793 160.433 50.084C160.656 50.3848 160.798 50.7227 160.861 51.0977L160.866 51.1328H159.853L159.847 51.1152C159.769 50.8027 159.591 50.5371 159.314 50.3184C159.036 50.0996 158.671 49.9902 158.218 49.9902C157.839 49.9902 157.511 50.0859 157.234 50.2773C156.956 50.4688 156.741 50.7402 156.589 51.0918C156.441 51.4395 156.366 51.8516 156.366 52.3281V52.3398C156.366 52.8242 156.443 53.2461 156.595 53.6055C156.747 53.9609 156.962 54.2363 157.24 54.4316C157.517 54.627 157.843 54.7246 158.218 54.7246C158.644 54.7246 158.991 54.6328 159.261 54.4492C159.531 54.2656 159.724 53.998 159.841 53.6465L159.853 53.6113L160.861 53.6055L160.849 53.6699C160.763 54.0488 160.611 54.3867 160.392 54.6836C160.173 54.9766 159.884 55.207 159.525 55.375C159.165 55.543 158.732 55.627 158.224 55.627ZM162.378 55.5156V49.1992H163.398V55.5156H162.378ZM162.894 47.9805C162.702 47.9805 162.536 47.9121 162.396 47.7754C162.259 47.6348 162.191 47.4688 162.191 47.2773C162.191 47.082 162.259 46.916 162.396 46.7793C162.536 46.6426 162.702 46.5742 162.894 46.5742C163.089 46.5742 163.255 46.6426 163.392 46.7793C163.529 46.916 163.597 47.082 163.597 47.2773C163.597 47.4688 163.529 47.6348 163.392 47.7754C163.255 47.9121 163.089 47.9805 162.894 47.9805ZM165.32 55.5156V49.1992H166.339V50.1484H166.433C166.593 49.8125 166.823 49.5527 167.124 49.3691C167.425 49.1816 167.808 49.0879 168.273 49.0879C168.984 49.0879 169.529 49.291 169.907 49.6973C170.29 50.0996 170.482 50.6758 170.482 51.4258V55.5156H169.462V51.6719C169.462 51.1016 169.341 50.6797 169.099 50.4062C168.861 50.1289 168.49 49.9902 167.986 49.9902C167.65 49.9902 167.359 50.0625 167.113 50.207C166.866 50.3516 166.675 50.5566 166.538 50.8223C166.406 51.0879 166.339 51.4062 166.339 51.7773V55.5156H165.32ZM174.929 57.7422C174.421 57.7422 173.978 57.6699 173.599 57.5254C173.22 57.3848 172.917 57.1836 172.691 56.9219C172.468 56.6641 172.329 56.3633 172.275 56.0195L172.286 56.0137H173.341L173.347 56.0195C173.402 56.2578 173.566 56.4531 173.839 56.6055C174.113 56.7617 174.476 56.8398 174.929 56.8398C175.495 56.8398 175.937 56.7109 176.253 56.4531C176.573 56.1992 176.734 55.8398 176.734 55.375V54.0977H176.64C176.507 54.3281 176.341 54.5254 176.142 54.6895C175.943 54.8535 175.718 54.9785 175.468 55.0645C175.218 55.1465 174.948 55.1875 174.659 55.1875C174.116 55.1875 173.646 55.0586 173.247 54.8008C172.853 54.5391 172.548 54.1797 172.333 53.7227C172.118 53.2656 172.011 52.7422 172.011 52.1523V52.1406C172.011 51.5508 172.118 51.0273 172.333 50.5703C172.552 50.1094 172.861 49.748 173.259 49.4863C173.657 49.2207 174.132 49.0879 174.683 49.0879C174.98 49.0879 175.253 49.1348 175.503 49.2285C175.753 49.3223 175.974 49.4551 176.165 49.627C176.361 49.7988 176.523 50.0039 176.652 50.2422H176.722V49.1992H177.741V55.4277C177.741 55.8965 177.626 56.3047 177.396 56.6523C177.169 57 176.845 57.2676 176.423 57.4551C176.001 57.6465 175.503 57.7422 174.929 57.7422ZM174.882 54.2852C175.273 54.2852 175.607 54.1953 175.884 54.0156C176.165 53.832 176.38 53.5801 176.529 53.2598C176.681 52.9395 176.757 52.5703 176.757 52.1523V52.1406C176.757 51.7227 176.681 51.3516 176.529 51.0273C176.38 50.7031 176.165 50.4492 175.884 50.2656C175.607 50.082 175.273 49.9902 174.882 49.9902C174.491 49.9902 174.159 50.082 173.886 50.2656C173.616 50.4492 173.409 50.7031 173.265 51.0273C173.124 51.3516 173.054 51.7227 173.054 52.1406V52.1523C173.054 52.5703 173.124 52.9395 173.265 53.2598C173.409 53.5801 173.616 53.832 173.886 54.0156C174.159 54.1953 174.491 54.2852 174.882 54.2852Z" fill="#D3D3D3"/>
<rect x="185.222" y="45.5156" width="12" height="12" rx="4" fill="#F3D161"/>
<path d="M205.851 55.7148C205.042 55.7148 204.349 55.5352 203.771 55.1758C203.193 54.8125 202.747 54.2988 202.435 53.6348C202.126 52.9707 201.972 52.1895 201.972 51.291V51.2793C201.972 50.373 202.128 49.5898 202.441 48.9297C202.757 48.2695 203.204 47.7598 203.782 47.4004C204.365 47.041 205.054 46.8613 205.851 46.8613C206.652 46.8613 207.341 47.041 207.919 47.4004C208.501 47.7598 208.948 48.2715 209.261 48.9355C209.573 49.5957 209.73 50.377 209.73 51.2793V51.291C209.73 52.1895 209.573 52.9707 209.261 53.6348C208.952 54.2949 208.507 54.8066 207.925 55.1699C207.347 55.5332 206.656 55.7148 205.851 55.7148ZM205.851 54.7422C206.429 54.7422 206.927 54.5996 207.345 54.3145C207.763 54.0293 208.085 53.6289 208.312 53.1133C208.538 52.5938 208.652 51.9863 208.652 51.291V51.2793C208.652 50.5762 208.538 49.9668 208.312 49.4512C208.085 48.9355 207.763 48.5371 207.345 48.2559C206.927 47.9746 206.429 47.834 205.851 47.834C205.277 47.834 204.781 47.9746 204.363 48.2559C203.945 48.5371 203.62 48.9355 203.39 49.4512C203.163 49.9668 203.05 50.5762 203.05 51.2793V51.291C203.05 51.9863 203.161 52.5938 203.384 53.1133C203.607 53.6289 203.927 54.0293 204.345 54.3145C204.763 54.5996 205.265 54.7422 205.851 54.7422ZM211.429 57.625V49.1992H212.448V50.207H212.542C212.671 49.9727 212.833 49.7734 213.029 49.6094C213.224 49.4414 213.447 49.3125 213.697 49.2227C213.947 49.1328 214.218 49.0879 214.511 49.0879C215.046 49.0879 215.511 49.2246 215.906 49.498C216.304 49.7676 216.613 50.1465 216.831 50.6348C217.05 51.123 217.159 51.6953 217.159 52.3516V52.3633C217.159 53.0234 217.05 53.5977 216.831 54.0859C216.613 54.5742 216.304 54.9531 215.906 55.2227C215.511 55.4922 215.046 55.627 214.511 55.627C214.222 55.627 213.948 55.582 213.691 55.4922C213.437 55.3984 213.21 55.2695 213.011 55.1055C212.816 54.9414 212.659 54.7461 212.542 54.5195H212.448V57.625H211.429ZM214.277 54.7246C214.663 54.7246 214.993 54.6309 215.267 54.4434C215.54 54.252 215.749 53.9805 215.894 53.6289C216.042 53.2734 216.116 52.8516 216.116 52.3633V52.3516C216.116 51.8594 216.042 51.4375 215.894 51.0859C215.749 50.7344 215.54 50.4648 215.267 50.2773C214.993 50.0859 214.663 49.9902 214.277 49.9902C213.894 49.9902 213.564 50.0859 213.286 50.2773C213.009 50.4688 212.796 50.7402 212.648 51.0918C212.499 51.4434 212.425 51.8633 212.425 52.3516V52.3633C212.425 52.8477 212.499 53.2676 212.648 53.623C212.796 53.9746 213.009 54.2461 213.286 54.4375C213.564 54.6289 213.894 54.7246 214.277 54.7246ZM221.331 55.627C220.73 55.627 220.212 55.4941 219.779 55.2285C219.349 54.9629 219.017 54.5879 218.782 54.1035C218.552 53.6152 218.437 53.041 218.437 52.3809V52.375C218.437 51.7227 218.552 51.1504 218.782 50.6582C219.017 50.166 219.347 49.7812 219.773 49.5039C220.198 49.2266 220.697 49.0879 221.267 49.0879C221.841 49.0879 222.333 49.2207 222.743 49.4863C223.157 49.752 223.474 50.123 223.693 50.5996C223.915 51.0723 224.027 51.623 224.027 52.252V52.6504H218.964V51.8359H223.505L223.001 52.5801V52.1758C223.001 51.6797 222.927 51.2715 222.779 50.9512C222.63 50.6309 222.425 50.3926 222.163 50.2363C221.902 50.0762 221.601 49.9961 221.261 49.9961C220.921 49.9961 220.616 50.0801 220.347 50.248C220.081 50.4121 219.87 50.6562 219.714 50.9805C219.558 51.3047 219.48 51.7031 219.48 52.1758V52.5801C219.48 53.0293 219.556 53.4141 219.708 53.7344C219.861 54.0508 220.077 54.2949 220.359 54.4668C220.64 54.6348 220.972 54.7188 221.355 54.7188C221.64 54.7188 221.888 54.6797 222.099 54.6016C222.31 54.5234 222.484 54.4238 222.62 54.3027C222.757 54.1816 222.853 54.0586 222.907 53.9336L222.931 53.8809H223.95L223.939 53.9277C223.884 54.1426 223.786 54.3516 223.646 54.5547C223.509 54.7539 223.331 54.9355 223.113 55.0996C222.894 55.2598 222.634 55.3887 222.333 55.4863C222.036 55.5801 221.702 55.627 221.331 55.627ZM225.609 55.5156V49.1992H226.628V50.1367H226.722C226.843 49.8047 227.048 49.5469 227.337 49.3633C227.626 49.1797 227.984 49.0879 228.409 49.0879C228.507 49.0879 228.603 49.0938 228.697 49.1055C228.794 49.1133 228.868 49.1211 228.919 49.1289V50.1191C228.814 50.0996 228.71 50.0859 228.609 50.0781C228.511 50.0664 228.406 50.0605 228.292 50.0605C227.968 50.0605 227.681 50.125 227.431 50.2539C227.181 50.3828 226.984 50.5625 226.839 50.793C226.698 51.0234 226.628 51.293 226.628 51.6016V55.5156H225.609ZM231.913 55.627C231.515 55.627 231.156 55.5508 230.835 55.3984C230.519 55.2461 230.267 55.0293 230.079 54.748C229.896 54.4668 229.804 54.1348 229.804 53.752V53.7402C229.804 53.3652 229.894 53.0449 230.073 52.7793C230.253 52.5098 230.515 52.2988 230.859 52.1465C231.202 51.9941 231.618 51.9043 232.107 51.877L234.427 51.7363V52.5508L232.23 52.6914C231.749 52.7188 231.398 52.8184 231.175 52.9902C230.956 53.1621 230.847 53.4043 230.847 53.7168V53.7285C230.847 54.0488 230.968 54.2988 231.21 54.4785C231.452 54.6543 231.757 54.7422 232.124 54.7422C232.472 54.7422 232.781 54.6738 233.05 54.5371C233.32 54.3965 233.531 54.207 233.683 53.9688C233.839 53.7305 233.917 53.4609 233.917 53.1602V51.1914C233.917 50.8008 233.798 50.5039 233.56 50.3008C233.325 50.0938 232.972 49.9902 232.499 49.9902C232.12 49.9902 231.81 50.0586 231.568 50.1953C231.325 50.3281 231.163 50.5176 231.081 50.7637L231.075 50.7812H230.056L230.062 50.7461C230.116 50.4141 230.253 50.125 230.472 49.8789C230.695 49.6289 230.982 49.4355 231.333 49.2988C231.685 49.1582 232.085 49.0879 232.534 49.0879C233.05 49.0879 233.486 49.1719 233.841 49.3398C234.2 49.5078 234.472 49.75 234.656 50.0664C234.843 50.3789 234.937 50.7539 234.937 51.1914V55.5156H233.917V54.584H233.823C233.691 54.8066 233.529 54.9961 233.337 55.1523C233.15 55.3086 232.937 55.4277 232.698 55.5098C232.46 55.5879 232.198 55.627 231.913 55.627ZM239.044 55.5625C238.396 55.5625 237.925 55.4316 237.632 55.1699C237.343 54.9082 237.198 54.4766 237.198 53.875V50.043H236.202V49.1992H237.198V47.5645H238.253V49.1992H239.636V50.043H238.253V53.6172C238.253 53.9883 238.323 54.2559 238.464 54.4199C238.605 54.5801 238.839 54.6602 239.167 54.6602C239.257 54.6602 239.333 54.6582 239.396 54.6543C239.462 54.6504 239.542 54.6445 239.636 54.6367V55.5039C239.538 55.5195 239.441 55.5332 239.343 55.5449C239.245 55.5566 239.146 55.5625 239.044 55.5625ZM241.183 55.5156V49.1992H242.202V55.5156H241.183ZM241.698 47.9805C241.507 47.9805 241.341 47.9121 241.2 47.7754C241.064 47.6348 240.995 47.4688 240.995 47.2773C240.995 47.082 241.064 46.916 241.2 46.7793C241.341 46.6426 241.507 46.5742 241.698 46.5742C241.894 46.5742 242.06 46.6426 242.197 46.7793C242.333 46.916 242.402 47.082 242.402 47.2773C242.402 47.4688 242.333 47.6348 242.197 47.7754C242.06 47.9121 241.894 47.9805 241.698 47.9805ZM246.72 55.627C246.122 55.627 245.605 55.4961 245.167 55.2344C244.734 54.9688 244.398 54.5918 244.159 54.1035C243.925 53.6152 243.808 53.0352 243.808 52.3633V52.3516C243.808 51.6758 243.925 51.0938 244.159 50.6055C244.398 50.1172 244.734 49.7422 245.167 49.4805C245.605 49.2188 246.122 49.0879 246.72 49.0879C247.322 49.0879 247.839 49.2188 248.273 49.4805C248.706 49.7422 249.04 50.1172 249.275 50.6055C249.513 51.0938 249.632 51.6758 249.632 52.3516V52.3633C249.632 53.0352 249.513 53.6152 249.275 54.1035C249.04 54.5918 248.706 54.9688 248.273 55.2344C247.839 55.4961 247.322 55.627 246.72 55.627ZM246.72 54.7246C247.118 54.7246 247.456 54.6309 247.734 54.4434C248.011 54.2559 248.222 53.9863 248.366 53.6348C248.515 53.2832 248.589 52.8594 248.589 52.3633V52.3516C248.589 51.8516 248.515 51.4258 248.366 51.0742C248.222 50.7227 248.011 50.4551 247.734 50.2715C247.456 50.084 247.118 49.9902 246.72 49.9902C246.322 49.9902 245.984 50.084 245.706 50.2715C245.429 50.4551 245.216 50.7227 245.068 51.0742C244.923 51.4258 244.851 51.8516 244.851 52.3516V52.3633C244.851 52.8594 244.923 53.2832 245.068 53.6348C245.216 53.9863 245.429 54.2559 245.706 54.4434C245.984 54.6309 246.322 54.7246 246.72 54.7246ZM251.214 55.5156V49.1992H252.234V50.1484H252.327C252.488 49.8125 252.718 49.5527 253.019 49.3691C253.32 49.1816 253.702 49.0879 254.167 49.0879C254.878 49.0879 255.423 49.291 255.802 49.6973C256.185 50.0996 256.376 50.6758 256.376 51.4258V55.5156H255.357V51.6719C255.357 51.1016 255.236 50.6797 254.993 50.4062C254.755 50.1289 254.384 49.9902 253.88 49.9902C253.544 49.9902 253.253 50.0625 253.007 50.207C252.761 50.3516 252.57 50.5566 252.433 50.8223C252.3 51.0879 252.234 51.4062 252.234 51.7773V55.5156H251.214ZM260.39 55.627C259.921 55.627 259.507 55.5566 259.148 55.416C258.788 55.2715 258.499 55.0703 258.281 54.8125C258.066 54.5547 257.939 54.252 257.9 53.9043H258.943C259.029 54.166 259.197 54.377 259.447 54.5371C259.697 54.6973 260.023 54.7773 260.425 54.7773C260.71 54.7773 260.96 54.7363 261.175 54.6543C261.394 54.5684 261.566 54.4531 261.691 54.3086C261.816 54.1602 261.878 53.9902 261.878 53.7988V53.7871C261.878 53.5723 261.792 53.3906 261.62 53.2422C261.448 53.0898 261.167 52.9668 260.777 52.873L259.798 52.6387C259.404 52.5449 259.079 52.4238 258.825 52.2754C258.572 52.123 258.384 51.9375 258.263 51.7188C258.142 51.4961 258.081 51.2344 258.081 50.9336V50.9277C258.081 50.5762 258.183 50.2617 258.386 49.9844C258.593 49.707 258.874 49.4883 259.23 49.3281C259.585 49.168 259.986 49.0879 260.431 49.0879C260.872 49.0879 261.263 49.1582 261.603 49.2988C261.947 49.4355 262.222 49.6309 262.429 49.8848C262.64 50.1387 262.769 50.4375 262.816 50.7812H261.814C261.747 50.5312 261.595 50.3281 261.357 50.1719C261.118 50.0156 260.808 49.9375 260.425 49.9375C260.175 49.9375 259.952 49.9785 259.757 50.0605C259.562 50.1387 259.407 50.248 259.294 50.3887C259.181 50.5293 259.124 50.6934 259.124 50.8809V50.8926C259.124 51.0332 259.161 51.1582 259.236 51.2676C259.31 51.377 259.425 51.4727 259.581 51.5547C259.738 51.6367 259.939 51.709 260.185 51.7715L261.157 52.0059C261.751 52.1504 262.193 52.3574 262.482 52.627C262.775 52.8965 262.921 53.2578 262.921 53.7109V53.7227C262.921 54.0977 262.81 54.4297 262.587 54.7188C262.365 55.0039 262.062 55.2266 261.679 55.3867C261.3 55.5469 260.87 55.627 260.39 55.627Z" fill="#D3D3D3"/>
<path d="M30.1231 106.331C30.1231 101.913 33.7048 98.3308 38.1231 98.3308H77.3395C81.7578 98.3308 85.3395 101.913 85.3395 106.331V146.952C85.3395 147.504 84.8918 147.952 84.3395 147.952H31.1231C30.5708 147.952 30.1231 147.504 30.1231 146.952V106.331Z" fill="url(#paint0_linear_568_136)"/>
<path d="M108.339 78.0596C108.339 73.6413 111.921 70.0596 116.339 70.0596H155.556C159.974 70.0596 163.556 73.6413 163.556 78.0596V146.952C163.556 147.504 163.108 147.952 162.556 147.952H109.339C108.787 147.952 108.339 147.504 108.339 146.952V78.0596Z" fill="url(#paint1_linear_568_136)"/>
<path d="M186.556 182.115C186.556 186.534 190.138 190.115 194.556 190.115H233.772C238.191 190.115 241.772 186.534 241.772 182.115V148.952C241.772 148.399 241.325 147.952 240.772 147.952H187.556C187.004 147.952 186.556 148.399 186.556 148.952V182.115Z" fill="url(#paint2_linear_568_136)"/>
<g filter="url(#filter0_d_568_136)">
<rect x="142.722" y="85.1414" width="66" height="40" rx="8" fill="black" fill-opacity="0.5" shape-rendering="crispEdges"/>
<path d="M151.422 100.141V92.9414H155.757V94.1464H152.627V95.9414H155.157V97.1414H152.627V100.141H151.422ZM156.756 93.9214V92.8164H157.961V93.9214H156.756ZM156.756 100.141V94.7414H157.961V100.141H156.756ZM163.194 100.141V97.5414C163.194 97.3714 163.182 97.183 163.159 96.9764C163.136 96.7697 163.081 96.5714 162.994 96.3814C162.911 96.188 162.784 96.0297 162.614 95.9064C162.447 95.783 162.221 95.7214 161.934 95.7214C161.781 95.7214 161.629 95.7464 161.479 95.7964C161.329 95.8464 161.192 95.933 161.069 96.0564C160.949 96.1764 160.852 96.343 160.779 96.5564C160.706 96.7664 160.669 97.0364 160.669 97.3664L159.954 97.0614C159.954 96.6014 160.042 96.1847 160.219 95.8114C160.399 95.438 160.662 95.1414 161.009 94.9214C161.356 94.698 161.782 94.5864 162.289 94.5864C162.689 94.5864 163.019 94.653 163.279 94.7864C163.539 94.9197 163.746 95.0897 163.899 95.2964C164.052 95.503 164.166 95.723 164.239 95.9564C164.312 96.1897 164.359 96.4114 164.379 96.6214C164.402 96.828 164.414 96.9964 164.414 97.1264V100.141H163.194ZM159.449 100.141V94.7414H160.524V96.4164H160.669V100.141H159.449ZM167.229 100.291C166.839 100.291 166.509 100.218 166.239 100.071C165.969 99.9214 165.764 99.723 165.624 99.4764C165.487 99.2297 165.419 98.958 165.419 98.6614C165.419 98.4014 165.462 98.168 165.549 97.9614C165.635 97.7514 165.769 97.5714 165.949 97.4214C166.129 97.268 166.362 97.143 166.649 97.0464C166.865 96.9764 167.119 96.913 167.409 96.8564C167.702 96.7997 168.019 96.748 168.359 96.7014C168.702 96.6514 169.06 96.598 169.434 96.5414L169.004 96.7864C169.007 96.413 168.924 96.138 168.754 95.9614C168.584 95.7847 168.297 95.6964 167.894 95.6964C167.65 95.6964 167.415 95.753 167.189 95.8664C166.962 95.9797 166.804 96.1747 166.714 96.4514L165.614 96.1064C165.747 95.6497 166 95.283 166.374 95.0064C166.75 94.7297 167.257 94.5914 167.894 94.5914C168.374 94.5914 168.795 94.6697 169.159 94.8264C169.525 94.983 169.797 95.2397 169.974 95.5964C170.07 95.7864 170.129 95.9814 170.149 96.1814C170.169 96.378 170.179 96.593 170.179 96.8264V100.141H169.124V98.9714L169.299 99.1614C169.055 99.5514 168.77 99.838 168.444 100.021C168.12 100.201 167.715 100.291 167.229 100.291ZM167.469 99.3314C167.742 99.3314 167.975 99.283 168.169 99.1864C168.362 99.0897 168.515 98.9714 168.629 98.8314C168.745 98.6914 168.824 98.5597 168.864 98.4364C168.927 98.283 168.962 98.108 168.969 97.9114C168.979 97.7114 168.984 97.5497 168.984 97.4264L169.354 97.5364C168.99 97.593 168.679 97.643 168.419 97.6864C168.159 97.7297 167.935 97.7714 167.749 97.8114C167.562 97.848 167.397 97.8897 167.254 97.9364C167.114 97.9864 166.995 98.0447 166.899 98.1114C166.802 98.178 166.727 98.2547 166.674 98.3414C166.624 98.428 166.599 98.5297 166.599 98.6464C166.599 98.7797 166.632 98.898 166.699 99.0014C166.765 99.1014 166.862 99.1814 166.989 99.2414C167.119 99.3014 167.279 99.3314 167.469 99.3314ZM175.216 100.141V97.5414C175.216 97.3714 175.204 97.183 175.181 96.9764C175.157 96.7697 175.102 96.5714 175.016 96.3814C174.932 96.188 174.806 96.0297 174.636 95.9064C174.469 95.783 174.242 95.7214 173.956 95.7214C173.802 95.7214 173.651 95.7464 173.501 95.7964C173.351 95.8464 173.214 95.933 173.091 96.0564C172.971 96.1764 172.874 96.343 172.801 96.5564C172.727 96.7664 172.691 97.0364 172.691 97.3664L171.976 97.0614C171.976 96.6014 172.064 96.1847 172.241 95.8114C172.421 95.438 172.684 95.1414 173.031 94.9214C173.377 94.698 173.804 94.5864 174.311 94.5864C174.711 94.5864 175.041 94.653 175.301 94.7864C175.561 94.9197 175.767 95.0897 175.921 95.2964C176.074 95.503 176.187 95.723 176.261 95.9564C176.334 96.1897 176.381 96.4114 176.401 96.6214C176.424 96.828 176.436 96.9964 176.436 97.1264V100.141H175.216ZM171.471 100.141V94.7414H172.546V96.4164H172.691V100.141H171.471ZM179.997 100.291C179.441 100.291 178.966 100.168 178.572 99.9214C178.179 99.6714 177.877 99.3314 177.667 98.9014C177.461 98.4714 177.356 97.9847 177.352 97.4414C177.356 96.888 177.464 96.398 177.677 95.9714C177.894 95.5414 178.201 95.2047 178.597 94.9614C178.994 94.7147 179.466 94.5914 180.012 94.5914C180.626 94.5914 181.144 94.7464 181.567 95.0564C181.994 95.363 182.272 95.783 182.402 96.3164L181.202 96.6414C181.109 96.3514 180.954 96.1264 180.737 95.9664C180.521 95.803 180.274 95.7214 179.997 95.7214C179.684 95.7214 179.426 95.7964 179.222 95.9464C179.019 96.093 178.869 96.2964 178.772 96.5564C178.676 96.8164 178.627 97.1114 178.627 97.4414C178.627 97.9547 178.742 98.3697 178.972 98.6864C179.202 99.003 179.544 99.1614 179.997 99.1614C180.317 99.1614 180.569 99.088 180.752 98.9414C180.939 98.7947 181.079 98.583 181.172 98.3064L182.402 98.5814C182.236 99.1314 181.944 99.5547 181.527 99.8514C181.111 100.145 180.601 100.291 179.997 100.291ZM183.358 93.9214V92.8164H184.563V93.9214H183.358ZM183.358 100.141V94.7414H184.563V100.141H183.358ZM189.796 100.141V97.5414C189.796 97.3714 189.784 97.183 189.761 96.9764C189.737 96.7697 189.682 96.5714 189.596 96.3814C189.512 96.188 189.386 96.0297 189.216 95.9064C189.049 95.783 188.822 95.7214 188.536 95.7214C188.382 95.7214 188.231 95.7464 188.081 95.7964C187.931 95.8464 187.794 95.933 187.671 96.0564C187.551 96.1764 187.454 96.343 187.381 96.5564C187.307 96.7664 187.271 97.0364 187.271 97.3664L186.556 97.0614C186.556 96.6014 186.644 96.1847 186.821 95.8114C187.001 95.438 187.264 95.1414 187.611 94.9214C187.957 94.698 188.384 94.5864 188.891 94.5864C189.291 94.5864 189.621 94.653 189.881 94.7864C190.141 94.9197 190.347 95.0897 190.501 95.2964C190.654 95.503 190.767 95.723 190.841 95.9564C190.914 96.1897 190.961 96.4114 190.981 96.6214C191.004 96.828 191.016 96.9964 191.016 97.1264V100.141H189.796ZM186.051 100.141V94.7414H187.126V96.4164H187.271V100.141H186.051ZM194.59 102.691C194.29 102.691 194.002 102.645 193.725 102.551C193.452 102.458 193.205 102.323 192.985 102.146C192.765 101.973 192.585 101.763 192.445 101.516L193.555 100.966C193.659 101.163 193.804 101.308 193.99 101.401C194.18 101.498 194.382 101.546 194.595 101.546C194.845 101.546 195.069 101.501 195.265 101.411C195.462 101.325 195.614 101.195 195.72 101.021C195.83 100.851 195.882 100.638 195.875 100.381V98.8464H196.025V94.7414H197.08V100.401C197.08 100.538 197.074 100.668 197.06 100.791C197.05 100.918 197.032 101.041 197.005 101.161C196.925 101.511 196.772 101.798 196.545 102.021C196.319 102.248 196.037 102.416 195.7 102.526C195.367 102.636 194.997 102.691 194.59 102.691ZM194.485 100.291C193.989 100.291 193.555 100.166 193.185 99.9164C192.815 99.6664 192.529 99.3264 192.325 98.8964C192.122 98.4664 192.02 97.9814 192.02 97.4414C192.02 96.8947 192.122 96.408 192.325 95.9814C192.532 95.5514 192.824 95.213 193.2 94.9664C193.577 94.7164 194.02 94.5914 194.53 94.5914C195.044 94.5914 195.474 94.7164 195.82 94.9664C196.17 95.213 196.435 95.5514 196.615 95.9814C196.795 96.4114 196.885 96.898 196.885 97.4414C196.885 97.978 196.795 98.463 196.615 98.8964C196.435 99.3264 196.167 99.6664 195.81 99.9164C195.454 100.166 195.012 100.291 194.485 100.291ZM194.67 99.2114C194.994 99.2114 195.254 99.138 195.45 98.9914C195.65 98.8414 195.795 98.633 195.885 98.3664C195.979 98.0997 196.025 97.7914 196.025 97.4414C196.025 97.088 195.979 96.7797 195.885 96.5164C195.795 96.2497 195.654 96.043 195.46 95.8964C195.267 95.7464 195.017 95.6714 194.71 95.6714C194.387 95.6714 194.12 95.7514 193.91 95.9114C193.7 96.068 193.545 96.2814 193.445 96.5514C193.345 96.818 193.295 97.1147 193.295 97.4414C193.295 97.7714 193.344 98.0714 193.44 98.3414C193.54 98.608 193.692 98.8197 193.895 98.9764C194.099 99.133 194.357 99.2114 194.67 99.2114Z" fill="white"/>
<path d="M153.307 119.136V117.951H154.512V119.136H153.307ZM153.307 111.136V109.951H154.512V111.136H153.307ZM153.937 118.291C153.43 118.291 152.977 118.198 152.577 118.011C152.177 117.825 151.849 117.561 151.592 117.221C151.339 116.881 151.177 116.478 151.107 116.011L152.297 115.821C152.39 116.231 152.59 116.558 152.897 116.801C153.207 117.041 153.577 117.161 154.007 117.161C154.42 117.161 154.76 117.065 155.027 116.871C155.294 116.675 155.427 116.426 155.427 116.126C155.427 115.916 155.364 115.746 155.237 115.616C155.11 115.483 154.907 115.373 154.627 115.286L152.892 114.746C151.882 114.433 151.377 113.82 151.377 112.906C151.377 112.48 151.479 112.108 151.682 111.791C151.889 111.471 152.179 111.226 152.552 111.056C152.925 110.883 153.365 110.798 153.872 110.801C154.342 110.805 154.76 110.89 155.127 111.056C155.497 111.223 155.804 111.463 156.047 111.776C156.294 112.09 156.469 112.466 156.572 112.906L155.337 113.131C155.29 112.895 155.199 112.686 155.062 112.506C154.925 112.326 154.754 112.186 154.547 112.086C154.34 111.986 154.11 111.933 153.857 111.926C153.614 111.923 153.395 111.961 153.202 112.041C153.009 112.118 152.855 112.228 152.742 112.371C152.629 112.511 152.572 112.67 152.572 112.846C152.572 113.043 152.65 113.211 152.807 113.351C152.967 113.491 153.219 113.611 153.562 113.711L154.857 114.086C155.48 114.266 155.929 114.511 156.202 114.821C156.479 115.128 156.617 115.536 156.617 116.046C156.617 116.493 156.505 116.885 156.282 117.221C156.059 117.558 155.745 117.821 155.342 118.011C154.939 118.198 154.47 118.291 153.937 118.291ZM159.503 118.131V117.081L162.583 114.336C162.823 114.123 162.99 113.921 163.083 113.731C163.177 113.541 163.223 113.358 163.223 113.181C163.223 112.941 163.172 112.728 163.068 112.541C162.965 112.351 162.822 112.201 162.638 112.091C162.458 111.981 162.25 111.926 162.013 111.926C161.763 111.926 161.542 111.985 161.348 112.101C161.158 112.215 161.01 112.366 160.903 112.556C160.797 112.746 160.747 112.951 160.753 113.171H159.513C159.513 112.691 159.62 112.273 159.833 111.916C160.05 111.56 160.347 111.283 160.723 111.086C161.103 110.89 161.542 110.791 162.038 110.791C162.498 110.791 162.912 110.895 163.278 111.101C163.645 111.305 163.933 111.588 164.143 111.951C164.353 112.311 164.458 112.726 164.458 113.196C164.458 113.54 164.412 113.828 164.318 114.061C164.225 114.295 164.085 114.51 163.898 114.706C163.715 114.903 163.487 115.121 163.213 115.361L161.028 117.296L160.918 116.996H164.458V118.131H159.503ZM167.795 118.291C167.429 118.291 167.087 118.216 166.77 118.066C166.454 117.913 166.18 117.703 165.95 117.436C165.724 117.17 165.56 116.86 165.46 116.506L166.62 116.196C166.667 116.39 166.752 116.556 166.875 116.696C167.002 116.836 167.149 116.945 167.315 117.021C167.485 117.098 167.66 117.136 167.84 117.136C168.074 117.136 168.287 117.08 168.48 116.966C168.674 116.853 168.827 116.701 168.94 116.511C169.054 116.318 169.11 116.105 169.11 115.871C169.11 115.638 169.052 115.426 168.935 115.236C168.822 115.043 168.669 114.891 168.475 114.781C168.282 114.668 168.07 114.611 167.84 114.611C167.564 114.611 167.334 114.661 167.15 114.761C166.97 114.861 166.832 114.968 166.735 115.081L165.705 114.751L165.925 110.941H169.835V112.071H166.57L167.02 111.646L166.86 114.296L166.64 114.026C166.827 113.856 167.044 113.73 167.29 113.646C167.537 113.563 167.775 113.521 168.005 113.521C168.455 113.521 168.854 113.625 169.2 113.831C169.55 114.035 169.824 114.313 170.02 114.666C170.22 115.02 170.32 115.421 170.32 115.871C170.32 116.321 170.204 116.73 169.97 117.096C169.737 117.46 169.429 117.75 169.045 117.966C168.665 118.183 168.249 118.291 167.795 118.291ZM174.11 118.291C173.6 118.291 173.15 118.183 172.76 117.966C172.37 117.746 172.065 117.441 171.845 117.051C171.628 116.661 171.52 116.211 171.52 115.701V113.381C171.52 112.871 171.628 112.421 171.845 112.031C172.065 111.641 172.37 111.338 172.76 111.121C173.15 110.901 173.6 110.791 174.11 110.791C174.62 110.791 175.068 110.901 175.455 111.121C175.845 111.338 176.15 111.641 176.37 112.031C176.59 112.421 176.7 112.871 176.7 113.381V115.701C176.7 116.211 176.59 116.661 176.37 117.051C176.15 117.441 175.845 117.746 175.455 117.966C175.068 118.183 174.62 118.291 174.11 118.291ZM174.11 117.146C174.363 117.146 174.593 117.086 174.8 116.966C175.006 116.843 175.17 116.68 175.29 116.476C175.41 116.27 175.47 116.04 175.47 115.786V113.291C175.47 113.035 175.41 112.805 175.29 112.601C175.17 112.395 175.006 112.231 174.8 112.111C174.593 111.988 174.363 111.926 174.11 111.926C173.856 111.926 173.626 111.988 173.42 112.111C173.213 112.231 173.05 112.395 172.93 112.601C172.81 112.805 172.75 113.035 172.75 113.291V115.786C172.75 116.04 172.81 116.27 172.93 116.476C173.05 116.68 173.213 116.843 173.42 116.966C173.626 117.086 173.856 117.146 174.11 117.146ZM178.002 119.416L178.072 118.896C178.225 118.91 178.347 118.883 178.437 118.816C178.527 118.753 178.587 118.661 178.617 118.541C178.65 118.425 178.658 118.291 178.642 118.141H178.002V116.856H179.237V118.191C179.237 118.628 179.133 118.958 178.927 119.181C178.72 119.405 178.412 119.483 178.002 119.416ZM183.729 118.291C183.219 118.291 182.769 118.183 182.379 117.966C181.989 117.746 181.684 117.441 181.464 117.051C181.247 116.661 181.139 116.211 181.139 115.701V113.381C181.139 112.871 181.247 112.421 181.464 112.031C181.684 111.641 181.989 111.338 182.379 111.121C182.769 110.901 183.219 110.791 183.729 110.791C184.239 110.791 184.687 110.901 185.074 111.121C185.464 111.338 185.769 111.641 185.989 112.031C186.209 112.421 186.319 112.871 186.319 113.381V115.701C186.319 116.211 186.209 116.661 185.989 117.051C185.769 117.441 185.464 117.746 185.074 117.966C184.687 118.183 184.239 118.291 183.729 118.291ZM183.729 117.146C183.982 117.146 184.212 117.086 184.419 116.966C184.625 116.843 184.789 116.68 184.909 116.476C185.029 116.27 185.089 116.04 185.089 115.786V113.291C185.089 113.035 185.029 112.805 184.909 112.601C184.789 112.395 184.625 112.231 184.419 112.111C184.212 111.988 183.982 111.926 183.729 111.926C183.475 111.926 183.245 111.988 183.039 112.111C182.832 112.231 182.669 112.395 182.549 112.601C182.429 112.805 182.369 113.035 182.369 113.291V115.786C182.369 116.04 182.429 116.27 182.549 116.476C182.669 116.68 182.832 116.843 183.039 116.966C183.245 117.086 183.475 117.146 183.729 117.146ZM190.311 118.291C189.801 118.291 189.351 118.183 188.961 117.966C188.571 117.746 188.266 117.441 188.046 117.051C187.829 116.661 187.721 116.211 187.721 115.701V113.381C187.721 112.871 187.829 112.421 188.046 112.031C188.266 111.641 188.571 111.338 188.961 111.121C189.351 110.901 189.801 110.791 190.311 110.791C190.821 110.791 191.269 110.901 191.656 111.121C192.046 111.338 192.351 111.641 192.571 112.031C192.791 112.421 192.901 112.871 192.901 113.381V115.701C192.901 116.211 192.791 116.661 192.571 117.051C192.351 117.441 192.046 117.746 191.656 117.966C191.269 118.183 190.821 118.291 190.311 118.291ZM190.311 117.146C190.564 117.146 190.794 117.086 191.001 116.966C191.207 116.843 191.371 116.68 191.491 116.476C191.611 116.27 191.671 116.04 191.671 115.786V113.291C191.671 113.035 191.611 112.805 191.491 112.601C191.371 112.395 191.207 112.231 191.001 112.111C190.794 111.988 190.564 111.926 190.311 111.926C190.057 111.926 189.827 111.988 189.621 112.111C189.414 112.231 189.251 112.395 189.131 112.601C189.011 112.805 188.951 113.035 188.951 113.291V115.786C188.951 116.04 189.011 116.27 189.131 116.476C189.251 116.68 189.414 116.843 189.621 116.966C189.827 117.086 190.057 117.146 190.311 117.146ZM196.893 118.291C196.383 118.291 195.933 118.183 195.543 117.966C195.153 117.746 194.848 117.441 194.628 117.051C194.411 116.661 194.303 116.211 194.303 115.701V113.381C194.303 112.871 194.411 112.421 194.628 112.031C194.848 111.641 195.153 111.338 195.543 111.121C195.933 110.901 196.383 110.791 196.893 110.791C197.403 110.791 197.851 110.901 198.238 111.121C198.628 111.338 198.933 111.641 199.153 112.031C199.373 112.421 199.483 112.871 199.483 113.381V115.701C199.483 116.211 199.373 116.661 199.153 117.051C198.933 117.441 198.628 117.746 198.238 117.966C197.851 118.183 197.403 118.291 196.893 118.291ZM196.893 117.146C197.146 117.146 197.376 117.086 197.583 116.966C197.789 116.843 197.953 116.68 198.073 116.476C198.193 116.27 198.253 116.04 198.253 115.786V113.291C198.253 113.035 198.193 112.805 198.073 112.601C197.953 112.395 197.789 112.231 197.583 112.111C197.376 111.988 197.146 111.926 196.893 111.926C196.639 111.926 196.409 111.988 196.203 112.111C195.996 112.231 195.833 112.395 195.713 112.601C195.593 112.805 195.533 113.035 195.533 113.291V115.786C195.533 116.04 195.593 116.27 195.713 116.476C195.833 116.68 195.996 116.843 196.203 116.966C196.409 117.086 196.639 117.146 196.893 117.146Z" fill="white"/>
<path d="M157.588 131.641C157.203 132.308 156.241 132.308 155.856 131.641L152.392 125.641C152.007 124.975 152.488 124.141 153.258 124.141H160.186C160.956 124.141 161.437 124.975 161.052 125.641L157.588 131.641Z" fill="black" fill-opacity="0.5"/>
</g>
<defs>
<filter id="filter0_d_568_136" x="102.722" y="49.1414" width="146" height="127" filterUnits="userSpaceOnUse" color-interpolation-filters="sRGB">
<feFlood flood-opacity="0" result="BackgroundImageFix"/>
<feColorMatrix in="SourceAlpha" type="matrix" values="0 0 0 0 0 0 0 0 0 0 0 0 0 0 0 0 0 0 127 0" result="hardAlpha"/>
<feOffset dy="4"/>
<feGaussianBlur stdDeviation="20"/>
<feComposite in2="hardAlpha" operator="out"/>
<feColorMatrix type="matrix" values="0 0 0 0 0 0 0 0 0 0 0 0 0 0 0 0 0 0 0.1 0"/>
<feBlend mode="normal" in2="BackgroundImageFix" result="effect1_dropShadow_568_136"/>
<feBlend mode="normal" in="SourceGraphic" in2="effect1_dropShadow_568_136" result="shape"/>
</filter>
<linearGradient id="paint0_linear_568_136" x1="57.7313" y1="98.3308" x2="57.7313" y2="147.952" gradientUnits="userSpaceOnUse">
<stop stop-color="#24F5C5"/>
<stop offset="1" stop-color="#00755A"/>
</linearGradient>
<linearGradient id="paint1_linear_568_136" x1="135.948" y1="70.0596" x2="135.948" y2="147.952" gradientUnits="userSpaceOnUse">
<stop stop-color="#C06FFF"/>
<stop offset="1" stop-color="#510092"/>
</linearGradient>
<linearGradient id="paint2_linear_568_136" x1="214.164" y1="190.115" x2="214.164" y2="147.952" gradientUnits="userSpaceOnUse">
<stop stop-color="#FFD680"/>
<stop offset="1" stop-color="#FFAD00"/>
</linearGradient>
</defs>
</svg>
