<svg width="282" height="234" viewBox="0 0 282 234" fill="none" xmlns="http://www.w3.org/2000/svg">
<rect y="0.317871" width="281.035" height="233" rx="20" fill="white" fill-opacity="0.1"/>
<path d="M25.17 71.3079V68.9379H27.58V71.3079H25.17ZM25.17 55.3079V52.9379H27.58V55.3079H25.17ZM26.43 69.6179C25.4167 69.6179 24.51 69.4312 23.71 69.0579C22.91 68.6845 22.2533 68.1579 21.74 67.4779C21.2333 66.7979 20.91 65.9912 20.77 65.0579L23.15 64.6779C23.3367 65.4979 23.7367 66.1512 24.35 66.6379C24.97 67.1179 25.71 67.3579 26.57 67.3579C27.3967 67.3579 28.0767 67.1645 28.61 66.7779C29.1433 66.3845 29.41 65.8879 29.41 65.2879C29.41 64.8679 29.2833 64.5279 29.03 64.2679C28.7767 64.0012 28.37 63.7812 27.81 63.6079L24.34 62.5279C22.32 61.9012 21.31 60.6745 21.31 58.8479C21.31 57.9945 21.5133 57.2512 21.92 56.6179C22.3333 55.9779 22.9133 55.4879 23.66 55.1479C24.4067 54.8012 25.2867 54.6312 26.3 54.6379C27.24 54.6445 28.0767 54.8145 28.81 55.1479C29.55 55.4812 30.1633 55.9612 30.65 56.5879C31.1433 57.2145 31.4933 57.9679 31.7 58.8479L29.23 59.2979C29.1367 58.8245 28.9533 58.4079 28.68 58.0479C28.4067 57.6879 28.0633 57.4079 27.65 57.2079C27.2367 57.0079 26.7767 56.9012 26.27 56.8879C25.7833 56.8812 25.3467 56.9579 24.96 57.1179C24.5733 57.2712 24.2667 57.4912 24.04 57.7779C23.8133 58.0579 23.7 58.3745 23.7 58.7279C23.7 59.1212 23.8567 59.4579 24.17 59.7379C24.49 60.0179 24.9933 60.2579 25.68 60.4579L28.27 61.2079C29.5167 61.5679 30.4133 62.0579 30.96 62.6779C31.5133 63.2912 31.79 64.1079 31.79 65.1279C31.79 66.0212 31.5667 66.8045 31.12 67.4779C30.6733 68.1512 30.0467 68.6779 29.24 69.0579C28.4333 69.4312 27.4967 69.6179 26.43 69.6179ZM36.4586 69.3179V57.5479L33.7586 59.1979V56.5379L36.4586 54.9179H38.9186V69.3179H36.4586ZM42.3273 69.3179V66.8479H44.7973V69.3179H42.3273ZM52.6516 54.6379C53.5916 54.6379 54.4382 54.8612 55.1916 55.3079C55.9449 55.7479 56.5382 56.3612 56.9716 57.1479C57.4116 57.9279 57.6316 58.8279 57.6316 59.8479V64.2379C57.6316 65.3245 57.4116 66.2745 56.9716 67.0879C56.5382 67.8945 55.9282 68.5179 55.1416 68.9579C54.3549 69.3979 53.4349 69.6179 52.3816 69.6179C51.6549 69.6179 50.9682 69.4945 50.3216 69.2479C49.6749 68.9945 49.0949 68.6079 48.5816 68.0879L50.3116 66.3979C50.5716 66.6979 50.8816 66.9345 51.2416 67.1079C51.6082 67.2745 51.9882 67.3579 52.3816 67.3579C52.9416 67.3579 53.4316 67.2279 53.8516 66.9679C54.2716 66.7012 54.5982 66.3579 54.8316 65.9379C55.0649 65.5112 55.1816 65.0545 55.1816 64.5679V62.1779L55.6116 62.6579C55.2049 63.1379 54.7116 63.5145 54.1316 63.7879C53.5516 64.0545 52.9416 64.1879 52.3016 64.1879C51.4016 64.1879 50.6016 63.9812 49.9016 63.5679C49.2082 63.1545 48.6616 62.5945 48.2616 61.8879C47.8682 61.1745 47.6716 60.3679 47.6716 59.4679C47.6716 58.5679 47.8982 57.7545 48.3516 57.0279C48.8049 56.2945 49.4082 55.7145 50.1616 55.2879C50.9216 54.8545 51.7516 54.6379 52.6516 54.6379ZM52.6516 56.9379C52.1849 56.9379 51.7582 57.0512 51.3716 57.2779C50.9849 57.5045 50.6782 57.8112 50.4516 58.1979C50.2249 58.5779 50.1116 59.0012 50.1116 59.4679C50.1116 59.9345 50.2216 60.3612 50.4416 60.7479C50.6682 61.1345 50.9716 61.4412 51.3516 61.6679C51.7382 61.8945 52.1649 62.0079 52.6316 62.0079C53.0982 62.0079 53.5249 61.8945 53.9116 61.6679C54.2982 61.4412 54.6049 61.1345 54.8316 60.7479C55.0649 60.3612 55.1816 59.9345 55.1816 59.4679C55.1816 59.0145 55.0682 58.5979 54.8416 58.2179C54.6149 57.8312 54.3082 57.5212 53.9216 57.2879C53.5416 57.0545 53.1182 56.9379 52.6516 56.9379ZM60.4234 69.3179V54.9179H62.5934L67.5734 65.1179L72.5534 54.9179H74.7234V69.3179H72.4734V60.0879L68.0534 69.3179H67.0934L62.6834 60.0879V69.3179H60.4234Z" fill="white"/>
<path d="M20.98 28.8179V18.7379H25.145C25.243 18.7379 25.369 18.7425 25.523 18.7519C25.677 18.7565 25.8193 18.7705 25.95 18.7939C26.5333 18.8825 27.014 19.0762 27.392 19.3749C27.7747 19.6735 28.057 20.0515 28.239 20.5089C28.4257 20.9615 28.519 21.4655 28.519 22.0209C28.519 22.5715 28.4257 23.0755 28.239 23.5329C28.0523 23.9855 27.7677 24.3612 27.385 24.6599C27.007 24.9585 26.5287 25.1522 25.95 25.2409C25.8193 25.2595 25.6747 25.2735 25.516 25.2829C25.362 25.2922 25.2383 25.2969 25.145 25.2969H22.667V28.8179H20.98ZM22.667 23.7219H25.075C25.1683 23.7219 25.2733 23.7172 25.39 23.7079C25.5067 23.6985 25.614 23.6799 25.712 23.6519C25.992 23.5819 26.2113 23.4582 26.37 23.2809C26.5333 23.1035 26.6477 22.9029 26.713 22.6789C26.783 22.4549 26.818 22.2355 26.818 22.0209C26.818 21.8062 26.783 21.5869 26.713 21.3629C26.6477 21.1342 26.5333 20.9312 26.37 20.7539C26.2113 20.5765 25.992 20.4529 25.712 20.3829C25.614 20.3549 25.5067 20.3385 25.39 20.3339C25.2733 20.3245 25.1683 20.3199 25.075 20.3199H22.667V23.7219ZM29.9214 28.8179V21.2579H31.4124V23.0989L31.2304 22.8609C31.3237 22.6089 31.4474 22.3802 31.6014 22.1749C31.7601 21.9649 31.9491 21.7922 32.1684 21.6569C32.3551 21.5309 32.5604 21.4329 32.7844 21.3629C33.0131 21.2882 33.2464 21.2439 33.4844 21.2299C33.7224 21.2112 33.9534 21.2205 34.1774 21.2579V22.8329C33.9534 22.7675 33.6944 22.7465 33.4004 22.7699C33.1111 22.7932 32.8497 22.8749 32.6164 23.0149C32.3831 23.1409 32.1917 23.3019 32.0424 23.4979C31.8977 23.6939 31.7904 23.9179 31.7204 24.1699C31.6504 24.4172 31.6154 24.6855 31.6154 24.9749V28.8179H29.9214ZM38.7155 29.0279C37.9595 29.0279 37.2992 28.8575 36.7345 28.5169C36.1698 28.1762 35.7312 27.7072 35.4185 27.1099C35.1105 26.5079 34.9565 25.8172 34.9565 25.0379C34.9565 24.2445 35.1152 23.5492 35.4325 22.9519C35.7498 22.3545 36.1908 21.8879 36.7555 21.5519C37.3202 21.2159 37.9735 21.0479 38.7155 21.0479C39.4762 21.0479 40.1388 21.2182 40.7035 21.5589C41.2682 21.8995 41.7068 22.3709 42.0195 22.9729C42.3322 23.5702 42.4885 24.2585 42.4885 25.0379C42.4885 25.8219 42.3298 26.5149 42.0125 27.1169C41.6998 27.7142 41.2612 28.1832 40.6965 28.5239C40.1318 28.8599 39.4715 29.0279 38.7155 29.0279ZM38.7155 27.4459C39.3875 27.4459 39.8868 27.2219 40.2135 26.7739C40.5402 26.3259 40.7035 25.7472 40.7035 25.0379C40.7035 24.3052 40.5378 23.7219 40.2065 23.2879C39.8752 22.8492 39.3782 22.6299 38.7155 22.6299C38.2628 22.6299 37.8895 22.7325 37.5955 22.9379C37.3062 23.1385 37.0915 23.4209 36.9515 23.7849C36.8115 24.1442 36.7415 24.5619 36.7415 25.0379C36.7415 25.7705 36.9072 26.3562 37.2385 26.7949C37.5745 27.2289 38.0668 27.4459 38.7155 27.4459ZM44.6888 28.8179V21.1389C44.6888 20.9475 44.6958 20.7375 44.7098 20.5089C44.7238 20.2755 44.7634 20.0445 44.8288 19.8159C44.8941 19.5872 45.0131 19.3795 45.1858 19.1929C45.4004 18.9549 45.6314 18.7915 45.8788 18.7029C46.1308 18.6095 46.3781 18.5582 46.6208 18.5489C46.8634 18.5349 47.0758 18.5279 47.2578 18.5279H48.2028V19.8999H47.3278C47.0058 19.8999 46.7654 19.9815 46.6068 20.1449C46.4528 20.3035 46.3758 20.5135 46.3758 20.7749V28.8179H44.6888ZM43.4708 22.5809V21.2579H48.2028V22.5809H43.4708ZM49.6728 20.1099V18.5629H51.3598V20.1099H49.6728ZM49.6728 28.8179V21.2579H51.3598V28.8179H49.6728ZM57.8954 28.8179C57.396 28.9112 56.906 28.9509 56.4254 28.9369C55.9494 28.9275 55.5224 28.8412 55.1444 28.6779C54.7664 28.5099 54.4794 28.2462 54.2834 27.8869C54.1107 27.5602 54.0197 27.2265 54.0104 26.8859C54.001 26.5452 53.9964 26.1602 53.9964 25.7309V19.1579H55.6764V25.6329C55.6764 25.9362 55.6787 26.2022 55.6834 26.4309C55.6927 26.6595 55.7417 26.8462 55.8304 26.9909C55.9984 27.2709 56.2667 27.4272 56.6354 27.4599C57.004 27.4925 57.424 27.4739 57.8954 27.4039V28.8179ZM52.6244 22.5809V21.2579H57.8954V22.5809H52.6244ZM61.635 29.0279C61.089 29.0279 60.627 28.9252 60.249 28.7199C59.871 28.5099 59.584 28.2322 59.388 27.8869C59.1967 27.5415 59.101 27.1612 59.101 26.7459C59.101 26.3819 59.1617 26.0552 59.283 25.7659C59.4043 25.4719 59.591 25.2199 59.843 25.0099C60.095 24.7952 60.4217 24.6202 60.823 24.4849C61.1263 24.3869 61.481 24.2982 61.887 24.2189C62.2977 24.1395 62.741 24.0672 63.217 24.0019C63.6977 23.9319 64.1993 23.8572 64.722 23.7779L64.12 24.1209C64.1247 23.5982 64.008 23.2132 63.77 22.9659C63.532 22.7185 63.1307 22.5949 62.566 22.5949C62.2253 22.5949 61.8963 22.6742 61.579 22.8329C61.2617 22.9915 61.04 23.2645 60.914 23.6519L59.374 23.1689C59.5607 22.5295 59.9153 22.0162 60.438 21.6289C60.9653 21.2415 61.6747 21.0479 62.566 21.0479C63.238 21.0479 63.8283 21.1575 64.337 21.3769C64.8503 21.5962 65.2307 21.9555 65.478 22.4549C65.6133 22.7209 65.695 22.9939 65.723 23.2739C65.751 23.5492 65.765 23.8502 65.765 24.1769V28.8179H64.288V27.1799L64.533 27.4459C64.1923 27.9919 63.7933 28.3932 63.336 28.6499C62.8833 28.9019 62.3163 29.0279 61.635 29.0279ZM61.971 27.6839C62.3537 27.6839 62.6803 27.6162 62.951 27.4809C63.2217 27.3455 63.4363 27.1799 63.595 26.9839C63.7583 26.7879 63.868 26.6035 63.924 26.4309C64.0127 26.2162 64.0617 25.9712 64.071 25.6959C64.085 25.4159 64.092 25.1895 64.092 25.0169L64.61 25.1709C64.1013 25.2502 63.665 25.3202 63.301 25.3809C62.937 25.4415 62.6243 25.4999 62.363 25.5559C62.1017 25.6072 61.8707 25.6655 61.67 25.7309C61.474 25.8009 61.3083 25.8825 61.173 25.9759C61.0377 26.0692 60.9327 26.1765 60.858 26.2979C60.788 26.4192 60.753 26.5615 60.753 26.7249C60.753 26.9115 60.7997 27.0772 60.893 27.2219C60.9863 27.3619 61.1217 27.4739 61.299 27.5579C61.481 27.6419 61.705 27.6839 61.971 27.6839ZM71.2204 29.0279C70.4831 29.0279 69.8648 28.8529 69.3654 28.5029C68.8661 28.1529 68.4904 27.6769 68.2384 27.0749C67.9864 26.4682 67.8604 25.7892 67.8604 25.0379C67.8604 24.2772 67.9864 23.5959 68.2384 22.9939C68.4904 22.3919 68.8591 21.9182 69.3444 21.5729C69.8344 21.2229 70.4388 21.0479 71.1574 21.0479C71.8714 21.0479 72.4898 21.2229 73.0124 21.5729C73.5398 21.9182 73.9481 22.3919 74.2374 22.9939C74.5268 23.5912 74.6714 24.2725 74.6714 25.0379C74.6714 25.7939 74.5291 26.4729 74.2444 27.0749C73.9598 27.6769 73.5584 28.1529 73.0404 28.5029C72.5224 28.8529 71.9158 29.0279 71.2204 29.0279ZM67.5734 28.8179V18.7379H69.2744V23.5119H69.0644V28.8179H67.5734ZM70.9614 27.5159C71.4001 27.5159 71.7618 27.4062 72.0464 27.1869C72.3311 26.9675 72.5411 26.6712 72.6764 26.2979C72.8164 25.9199 72.8864 25.4999 72.8864 25.0379C72.8864 24.5805 72.8164 24.1652 72.6764 23.7919C72.5364 23.4139 72.3194 23.1152 72.0254 22.8959C71.7314 22.6719 71.3581 22.5599 70.9054 22.5599C70.4761 22.5599 70.1261 22.6649 69.8554 22.8749C69.5848 23.0802 69.3841 23.3695 69.2534 23.7429C69.1274 24.1115 69.0644 24.5432 69.0644 25.0379C69.0644 25.5279 69.1274 25.9595 69.2534 26.3329C69.3841 26.7062 69.5871 26.9979 69.8624 27.2079C70.1424 27.4132 70.5088 27.5159 70.9614 27.5159ZM76.3544 20.1099V18.5629H78.0414V20.1099H76.3544ZM76.3544 28.8179V21.2579H78.0414V28.8179H76.3544ZM80.2782 28.8179V18.5279H81.9652V28.8179H80.2782ZM84.202 20.1099V18.5629H85.889V20.1099H84.202ZM84.202 28.8179V21.2579H85.889V28.8179H84.202ZM92.4169 28.8179C91.9175 28.9112 91.4275 28.9509 90.9469 28.9369C90.4709 28.9275 90.0439 28.8412 89.6659 28.6779C89.2879 28.5099 89.0009 28.2462 88.8049 27.8869C88.6322 27.5602 88.5412 27.2265 88.5319 26.8859C88.5225 26.5452 88.5179 26.1602 88.5179 25.7309V19.1579H90.1979V25.6329C90.1979 25.9362 90.2002 26.2022 90.2049 26.4309C90.2142 26.6595 90.2632 26.8462 90.3519 26.9909C90.5199 27.2709 90.7882 27.4272 91.1569 27.4599C91.5255 27.4925 91.9455 27.4739 92.4169 27.4039V28.8179ZM87.1459 22.5809V21.2579H92.4169V22.5809H87.1459ZM94.8314 32.1779L96.2874 28.1809L96.3154 29.3569L93.0184 21.2579H94.7754L97.1134 27.2499H96.6654L98.9404 21.2579H100.627L96.4134 32.1779H94.8314Z" fill="white"/>
<path d="M244.75 23.3179C244.75 24.2844 243.967 25.0679 243 25.0679C242.034 25.0679 241.25 24.2844 241.25 23.3179C241.25 22.3514 242.034 21.5679 243 21.5679C243.967 21.5679 244.75 22.3514 244.75 23.3179ZM250.75 23.3179C250.75 24.2844 249.967 25.0679 249 25.0679C248.034 25.0679 247.25 24.2844 247.25 23.3179C247.25 22.3514 248.034 21.5679 249 21.5679C249.967 21.5679 250.75 22.3514 250.75 23.3179ZM255 25.0679C255.967 25.0679 256.75 24.2844 256.75 23.3179C256.75 22.3514 255.967 21.5679 255 21.5679C254.033 21.5679 253.25 22.3514 253.25 23.3179C253.25 24.2844 254.033 25.0679 255 25.0679Z" fill="white" fill-opacity="0.5"/>
<line x1="20" y1="86.8179" x2="256.75" y2="86.8179" stroke="white"/>
<path d="M28.486 126.028C27.7954 126.028 27.1654 125.907 26.596 125.664C26.0267 125.421 25.5367 125.074 25.126 124.621C24.7154 124.164 24.398 123.613 24.174 122.969C23.9547 122.32 23.845 121.59 23.845 120.778C23.845 119.705 24.0364 118.776 24.419 117.992C24.8017 117.208 25.3407 116.604 26.036 116.179C26.7314 115.75 27.548 115.535 28.486 115.535C29.6154 115.535 30.5254 115.799 31.216 116.326C31.9067 116.849 32.3827 117.565 32.644 118.475L31.384 118.734C31.174 118.123 30.8287 117.635 30.348 117.271C29.8674 116.907 29.2677 116.725 28.549 116.725C27.7977 116.72 27.1724 116.888 26.673 117.229C26.1784 117.565 25.805 118.039 25.553 118.65C25.301 119.261 25.1727 119.971 25.168 120.778C25.1634 121.581 25.287 122.285 25.539 122.892C25.791 123.499 26.1667 123.975 26.666 124.32C27.17 124.661 27.7977 124.833 28.549 124.838C29.1977 124.843 29.7437 124.719 30.187 124.467C30.6304 124.215 30.9734 123.851 31.216 123.375C31.4587 122.899 31.6057 122.327 31.657 121.66H29.515V120.631H32.973C32.987 120.724 32.994 120.836 32.994 120.967C32.9987 121.093 33.001 121.179 33.001 121.226C33.001 122.145 32.8284 122.969 32.483 123.697C32.1424 124.42 31.636 124.99 30.964 125.405C30.2967 125.82 29.4707 126.028 28.486 126.028ZM34.3992 125.818V118.258H35.5122V120.085L35.3302 119.847C35.4189 119.614 35.5332 119.399 35.6732 119.203C35.8179 119.007 35.9789 118.846 36.1562 118.72C36.3522 118.561 36.5739 118.44 36.8212 118.356C37.0685 118.272 37.3205 118.223 37.5772 118.209C37.8339 118.19 38.0742 118.207 38.2982 118.258V119.427C38.0369 119.357 37.7499 119.338 37.4372 119.371C37.1245 119.404 36.8352 119.518 36.5692 119.714C36.3265 119.887 36.1375 120.097 36.0022 120.344C35.8715 120.591 35.7805 120.86 35.7292 121.149C35.6779 121.434 35.6522 121.725 35.6522 122.024V125.818H34.3992ZM42.7051 126.028C41.9538 126.028 41.3051 125.858 40.7591 125.517C40.2178 125.176 39.8001 124.705 39.5061 124.103C39.2121 123.501 39.0651 122.81 39.0651 122.031C39.0651 121.238 39.2145 120.542 39.5131 119.945C39.8118 119.348 40.2341 118.883 40.7801 118.552C41.3261 118.216 41.9678 118.048 42.7051 118.048C43.4611 118.048 44.1121 118.218 44.6581 118.559C45.2041 118.895 45.6218 119.364 45.9111 119.966C46.2051 120.563 46.3521 121.252 46.3521 122.031C46.3521 122.82 46.2051 123.515 45.9111 124.117C45.6171 124.714 45.1971 125.183 44.6511 125.524C44.1051 125.86 43.4565 126.028 42.7051 126.028ZM42.7051 124.845C43.4891 124.845 44.0725 124.584 44.4551 124.061C44.8378 123.538 45.0291 122.862 45.0291 122.031C45.0291 121.177 44.8355 120.498 44.4481 119.994C44.0608 119.485 43.4798 119.231 42.7051 119.231C42.1778 119.231 41.7438 119.35 41.4031 119.588C41.0625 119.826 40.8081 120.155 40.6401 120.575C40.4721 120.995 40.3881 121.48 40.3881 122.031C40.3881 122.88 40.5841 123.562 40.9761 124.075C41.3681 124.588 41.9445 124.845 42.7051 124.845ZM50.64 126.021C49.7393 126.021 48.9996 125.825 48.421 125.433C47.847 125.036 47.4946 124.483 47.364 123.774L48.638 123.571C48.7406 123.982 48.9763 124.308 49.345 124.551C49.7136 124.789 50.171 124.908 50.717 124.908C51.235 124.908 51.641 124.801 51.935 124.586C52.229 124.371 52.376 124.08 52.376 123.711C52.376 123.496 52.327 123.324 52.229 123.193C52.131 123.058 51.928 122.932 51.62 122.815C51.3166 122.698 50.857 122.558 50.241 122.395C49.5736 122.218 49.0486 122.033 48.666 121.842C48.2833 121.651 48.0103 121.429 47.847 121.177C47.6836 120.925 47.602 120.619 47.602 120.26C47.602 119.817 47.7233 119.429 47.966 119.098C48.2086 118.762 48.547 118.503 48.981 118.321C49.4196 118.139 49.9283 118.048 50.507 118.048C51.081 118.048 51.5943 118.139 52.047 118.321C52.4996 118.503 52.8636 118.762 53.139 119.098C53.419 119.429 53.5846 119.817 53.636 120.26L52.362 120.491C52.3013 120.085 52.1053 119.765 51.774 119.532C51.4473 119.299 51.025 119.175 50.507 119.161C50.017 119.142 49.618 119.229 49.31 119.42C49.0066 119.611 48.855 119.87 48.855 120.197C48.855 120.379 48.911 120.535 49.023 120.666C49.1396 120.797 49.352 120.92 49.66 121.037C49.9726 121.154 50.4253 121.287 51.018 121.436C51.6853 121.604 52.2103 121.788 52.593 121.989C52.9803 122.185 53.2556 122.418 53.419 122.689C53.5823 122.955 53.664 123.284 53.664 123.676C53.664 124.404 53.3956 124.978 52.859 125.398C52.3223 125.813 51.5826 126.021 50.64 126.021ZM58.0638 126.021C57.1631 126.021 56.4234 125.825 55.8448 125.433C55.2708 125.036 54.9184 124.483 54.7878 123.774L56.0618 123.571C56.1644 123.982 56.4001 124.308 56.7688 124.551C57.1375 124.789 57.5948 124.908 58.1408 124.908C58.6588 124.908 59.0648 124.801 59.3588 124.586C59.6528 124.371 59.7998 124.08 59.7998 123.711C59.7998 123.496 59.7508 123.324 59.6528 123.193C59.5548 123.058 59.3518 122.932 59.0438 122.815C58.7405 122.698 58.2808 122.558 57.6648 122.395C56.9975 122.218 56.4724 122.033 56.0898 121.842C55.7071 121.651 55.4341 121.429 55.2708 121.177C55.1074 120.925 55.0258 120.619 55.0258 120.26C55.0258 119.817 55.1471 119.429 55.3898 119.098C55.6324 118.762 55.9708 118.503 56.4048 118.321C56.8435 118.139 57.3521 118.048 57.9308 118.048C58.5048 118.048 59.0181 118.139 59.4708 118.321C59.9234 118.503 60.2875 118.762 60.5628 119.098C60.8428 119.429 61.0085 119.817 61.0598 120.26L59.7858 120.491C59.7251 120.085 59.5291 119.765 59.1978 119.532C58.8711 119.299 58.4488 119.175 57.9308 119.161C57.4408 119.142 57.0418 119.229 56.7338 119.42C56.4304 119.611 56.2788 119.87 56.2788 120.197C56.2788 120.379 56.3348 120.535 56.4468 120.666C56.5634 120.797 56.7758 120.92 57.0838 121.037C57.3965 121.154 57.8491 121.287 58.4418 121.436C59.1091 121.604 59.6341 121.788 60.0168 121.989C60.4041 122.185 60.6795 122.418 60.8428 122.689C61.0061 122.955 61.0878 123.284 61.0878 123.676C61.0878 124.404 60.8195 124.978 60.2828 125.398C59.7461 125.813 59.0065 126.021 58.0638 126.021ZM65.4343 125.818V115.738H69.4173C69.5153 115.738 69.632 115.743 69.7673 115.752C69.9027 115.757 70.0333 115.771 70.1593 115.794C70.7053 115.878 71.1627 116.065 71.5313 116.354C71.9047 116.643 72.1847 117.01 72.3713 117.453C72.558 117.892 72.6513 118.379 72.6513 118.916C72.6513 119.448 72.5557 119.936 72.3643 120.379C72.1777 120.818 71.8977 121.184 71.5243 121.478C71.1557 121.767 70.7007 121.954 70.1593 122.038C70.0333 122.057 69.9027 122.071 69.7673 122.08C69.632 122.089 69.5153 122.094 69.4173 122.094H66.6803V125.818H65.4343ZM66.6803 120.911H69.3753C69.464 120.911 69.5643 120.906 69.6763 120.897C69.793 120.888 69.9027 120.871 70.0053 120.848C70.3273 120.773 70.5887 120.638 70.7893 120.442C70.9947 120.241 71.144 120.008 71.2373 119.742C71.3307 119.471 71.3773 119.196 71.3773 118.916C71.3773 118.636 71.3307 118.363 71.2373 118.097C71.144 117.826 70.9947 117.591 70.7893 117.39C70.5887 117.189 70.3273 117.054 70.0053 116.984C69.9027 116.956 69.793 116.94 69.6763 116.935C69.5643 116.926 69.464 116.921 69.3753 116.921H66.6803V120.911ZM74.0476 125.818V118.258H75.1606V120.085L74.9786 119.847C75.0673 119.614 75.1816 119.399 75.3216 119.203C75.4663 119.007 75.6273 118.846 75.8046 118.72C76.0006 118.561 76.2223 118.44 76.4696 118.356C76.717 118.272 76.969 118.223 77.2256 118.209C77.4823 118.19 77.7226 118.207 77.9466 118.258V119.427C77.6853 119.357 77.3983 119.338 77.0856 119.371C76.773 119.404 76.4836 119.518 76.2176 119.714C75.975 119.887 75.786 120.097 75.6506 120.344C75.52 120.591 75.429 120.86 75.3776 121.149C75.3263 121.434 75.3006 121.725 75.3006 122.024V125.818H74.0476ZM82.3536 126.028C81.6022 126.028 80.9536 125.858 80.4076 125.517C79.8662 125.176 79.4486 124.705 79.1546 124.103C78.8606 123.501 78.7136 122.81 78.7136 122.031C78.7136 121.238 78.8629 120.542 79.1616 119.945C79.4602 119.348 79.8826 118.883 80.4286 118.552C80.9746 118.216 81.6162 118.048 82.3536 118.048C83.1096 118.048 83.7606 118.218 84.3066 118.559C84.8526 118.895 85.2702 119.364 85.5596 119.966C85.8536 120.563 86.0006 121.252 86.0006 122.031C86.0006 122.82 85.8536 123.515 85.5596 124.117C85.2656 124.714 84.8456 125.183 84.2996 125.524C83.7536 125.86 83.1049 126.028 82.3536 126.028ZM82.3536 124.845C83.1376 124.845 83.7209 124.584 84.1036 124.061C84.4862 123.538 84.6776 122.862 84.6776 122.031C84.6776 121.177 84.4839 120.498 84.0966 119.994C83.7092 119.485 83.1282 119.231 82.3536 119.231C81.8262 119.231 81.3922 119.35 81.0516 119.588C80.7109 119.826 80.4566 120.155 80.2886 120.575C80.1206 120.995 80.0366 121.48 80.0366 122.031C80.0366 122.88 80.2326 123.562 80.6246 124.075C81.0166 124.588 81.5929 124.845 82.3536 124.845ZM88.2628 125.818V117.845C88.2628 117.649 88.2721 117.451 88.2908 117.25C88.3094 117.045 88.3514 116.846 88.4168 116.655C88.4821 116.459 88.5894 116.279 88.7388 116.116C88.9114 115.925 89.1004 115.789 89.3058 115.71C89.5111 115.626 89.7188 115.575 89.9288 115.556C90.1434 115.537 90.3464 115.528 90.5378 115.528H91.4968V116.564H90.6078C90.2391 116.564 89.9638 116.655 89.7818 116.837C89.5998 117.014 89.5088 117.285 89.5088 117.649V125.818H88.2628ZM86.9818 119.287V118.258H91.4968V119.287H86.9818ZM92.9668 116.921V115.633H94.2128V116.921H92.9668ZM92.9668 125.818V118.258H94.2128V125.818H92.9668ZM100.54 125.818C100.092 125.907 99.6488 125.942 99.2101 125.923C98.7761 125.909 98.3888 125.823 98.0481 125.664C97.7074 125.501 97.4484 125.249 97.2711 124.908C97.1218 124.609 97.0401 124.308 97.0261 124.005C97.0168 123.697 97.0121 123.349 97.0121 122.962V116.158H98.2581V122.906C98.2581 123.214 98.2604 123.478 98.2651 123.697C98.2744 123.916 98.3234 124.105 98.4121 124.264C98.5801 124.563 98.8461 124.738 99.2101 124.789C99.5788 124.84 100.022 124.826 100.54 124.747V125.818ZM95.4791 119.287V118.258H100.54V119.287H95.4791ZM102.635 124.768V123.396H104.007V124.768H102.635ZM102.642 120.68V119.308H104.014V120.68H102.642ZM111.919 127.204V125.587H113.165V127.204H111.919ZM111.919 115.969V114.345H113.165V115.969H111.919ZM112.64 126.028C111.959 126.028 111.345 125.907 110.799 125.664C110.258 125.417 109.812 125.069 109.462 124.621C109.112 124.168 108.884 123.636 108.776 123.025L110.001 122.822C110.151 123.443 110.466 123.935 110.946 124.299C111.432 124.663 112.015 124.845 112.696 124.845C113.382 124.845 113.938 124.679 114.362 124.348C114.787 124.017 114.999 123.59 114.999 123.067C114.999 122.684 114.885 122.376 114.656 122.143C114.432 121.91 114.054 121.711 113.522 121.548L111.219 120.834C109.843 120.405 109.154 119.583 109.154 118.37C109.154 117.801 109.292 117.304 109.567 116.879C109.847 116.45 110.237 116.118 110.736 115.885C111.24 115.647 111.826 115.53 112.493 115.535C113.142 115.54 113.721 115.661 114.229 115.899C114.738 116.132 115.158 116.468 115.489 116.907C115.825 117.346 116.052 117.871 116.168 118.482L114.908 118.713C114.843 118.316 114.698 117.969 114.474 117.67C114.255 117.371 113.975 117.14 113.634 116.977C113.294 116.809 112.911 116.723 112.486 116.718C112.09 116.713 111.733 116.779 111.415 116.914C111.103 117.049 110.855 117.238 110.673 117.481C110.491 117.724 110.4 118.001 110.4 118.314C110.4 118.655 110.526 118.944 110.778 119.182C111.035 119.415 111.436 119.616 111.982 119.784L113.872 120.344C114.703 120.591 115.303 120.925 115.671 121.345C116.04 121.76 116.224 122.316 116.224 123.011C116.224 123.613 116.075 124.14 115.776 124.593C115.482 125.046 115.065 125.398 114.523 125.65C113.987 125.902 113.359 126.028 112.64 126.028ZM120.67 126.028C120.152 126.028 119.669 125.921 119.221 125.706C118.778 125.491 118.398 125.197 118.08 124.824C117.768 124.446 117.544 124.012 117.408 123.522L118.605 123.2C118.689 123.531 118.839 123.818 119.053 124.061C119.268 124.299 119.518 124.486 119.802 124.621C120.092 124.752 120.393 124.817 120.705 124.817C121.116 124.817 121.485 124.719 121.811 124.523C122.143 124.322 122.404 124.059 122.595 123.732C122.787 123.401 122.882 123.039 122.882 122.647C122.882 122.241 122.782 121.875 122.581 121.548C122.385 121.217 122.122 120.955 121.79 120.764C121.459 120.573 121.097 120.477 120.705 120.477C120.262 120.477 119.882 120.57 119.564 120.757C119.252 120.939 119.004 121.163 118.822 121.429L117.716 121.009L118.024 115.738H123.435V116.921H118.626L119.179 116.403L118.92 120.624L118.647 120.267C118.927 119.968 119.261 119.737 119.648 119.574C120.04 119.411 120.439 119.329 120.845 119.329C121.471 119.329 122.031 119.476 122.525 119.77C123.02 120.059 123.412 120.456 123.701 120.96C123.991 121.459 124.135 122.022 124.135 122.647C124.135 123.268 123.977 123.835 123.659 124.348C123.342 124.857 122.92 125.265 122.392 125.573C121.87 125.876 121.296 126.028 120.67 126.028ZM126.033 125.818V124.446H127.405V125.818H126.033ZM132.88 115.535C133.524 115.535 134.105 115.689 134.623 115.997C135.141 116.305 135.551 116.725 135.855 117.257C136.163 117.789 136.317 118.393 136.317 119.07V122.423C136.317 123.128 136.165 123.751 135.862 124.292C135.558 124.833 135.138 125.258 134.602 125.566C134.07 125.874 133.458 126.028 132.768 126.028C132.217 126.028 131.701 125.914 131.221 125.685C130.745 125.456 130.341 125.132 130.01 124.712L130.941 123.886C131.146 124.175 131.41 124.409 131.732 124.586C132.054 124.759 132.399 124.845 132.768 124.845C133.216 124.845 133.61 124.738 133.951 124.523C134.296 124.308 134.564 124.028 134.756 123.683C134.952 123.338 135.05 122.964 135.05 122.563V120.54L135.323 120.848C135.033 121.268 134.662 121.604 134.21 121.856C133.757 122.108 133.265 122.234 132.733 122.234C132.107 122.234 131.547 122.087 131.053 121.793C130.558 121.499 130.166 121.102 129.877 120.603C129.587 120.099 129.443 119.534 129.443 118.909C129.443 118.284 129.599 117.717 129.912 117.208C130.224 116.695 130.64 116.289 131.158 115.99C131.68 115.687 132.254 115.535 132.88 115.535ZM132.88 116.739C132.478 116.739 132.112 116.837 131.781 117.033C131.454 117.224 131.193 117.486 130.997 117.817C130.801 118.144 130.703 118.508 130.703 118.909C130.703 119.31 130.798 119.677 130.99 120.008C131.186 120.335 131.447 120.596 131.774 120.792C132.105 120.988 132.471 121.086 132.873 121.086C133.274 121.086 133.64 120.988 133.972 120.792C134.303 120.596 134.564 120.335 134.756 120.008C134.952 119.677 135.05 119.31 135.05 118.909C135.05 118.512 134.952 118.151 134.756 117.824C134.564 117.493 134.303 117.229 133.972 117.033C133.645 116.837 133.281 116.739 132.88 116.739ZM138.278 125.818V115.738H139.412L143.22 123.767L147.007 115.738H148.155V125.811H146.972V118.475L143.549 125.818H142.884L139.461 118.475V125.818H138.278Z" fill="white"/>
<rect x="202.425" y="108.818" width="58" height="23" rx="4" fill="#F43F5E"/>
<path d="M207.265 121.919V120.89H211.465V121.919H207.265ZM215.041 125.818V117.117L213.144 118.265V116.872L215.041 115.738H216.308V125.818H215.041ZM218.635 125.818V124.446H220.007V125.818H218.635ZM225.334 126.028C224.69 126.028 224.121 125.9 223.626 125.643C223.132 125.382 222.744 125.02 222.464 124.558C222.184 124.096 222.044 123.557 222.044 122.941C222.044 122.339 222.187 121.795 222.471 121.31C222.761 120.825 223.195 120.451 223.773 120.19L223.752 120.645C223.281 120.416 222.919 120.094 222.667 119.679C222.415 119.259 222.289 118.795 222.289 118.286C222.289 117.717 222.42 117.227 222.681 116.816C222.943 116.405 223.302 116.088 223.759 115.864C224.217 115.64 224.742 115.528 225.334 115.528C225.927 115.528 226.452 115.64 226.909 115.864C227.367 116.088 227.726 116.405 227.987 116.816C228.249 117.227 228.379 117.717 228.379 118.286C228.379 118.795 228.26 119.257 228.022 119.672C227.784 120.083 227.418 120.407 226.923 120.645L226.895 120.197C227.474 120.449 227.908 120.82 228.197 121.31C228.491 121.795 228.638 122.339 228.638 122.941C228.638 123.557 228.496 124.096 228.211 124.558C227.931 125.02 227.542 125.382 227.042 125.643C226.548 125.9 225.978 126.028 225.334 126.028ZM225.334 124.838C225.922 124.838 226.398 124.677 226.762 124.355C227.131 124.028 227.315 123.557 227.315 122.941C227.315 122.32 227.133 121.849 226.769 121.527C226.41 121.2 225.932 121.037 225.334 121.037C224.742 121.037 224.263 121.2 223.899 121.527C223.54 121.849 223.36 122.32 223.36 122.941C223.36 123.557 223.542 124.028 223.906 124.355C224.27 124.677 224.746 124.838 225.334 124.838ZM225.334 119.84C225.848 119.84 226.263 119.712 226.58 119.455C226.898 119.194 227.056 118.804 227.056 118.286C227.056 117.768 226.898 117.381 226.58 117.124C226.263 116.863 225.848 116.732 225.334 116.732C224.826 116.732 224.41 116.863 224.088 117.124C223.771 117.381 223.612 117.768 223.612 118.286C223.612 118.804 223.771 119.194 224.088 119.455C224.41 119.712 224.826 119.84 225.334 119.84ZM231.576 125.818L230.736 124.978L239.99 115.738L240.83 116.578L231.576 125.818ZM238.73 126.028C238.268 126.028 237.845 125.916 237.463 125.692C237.085 125.463 236.781 125.16 236.553 124.782C236.324 124.399 236.21 123.975 236.21 123.508C236.21 123.051 236.326 122.631 236.56 122.248C236.793 121.865 237.101 121.56 237.484 121.331C237.866 121.102 238.282 120.988 238.73 120.988C239.192 120.988 239.614 121.102 239.997 121.331C240.379 121.555 240.683 121.858 240.907 122.241C241.135 122.619 241.25 123.041 241.25 123.508C241.25 123.975 241.135 124.399 240.907 124.782C240.683 125.16 240.379 125.463 239.997 125.692C239.614 125.916 239.192 126.028 238.73 126.028ZM238.73 124.929C238.986 124.929 239.222 124.864 239.437 124.733C239.656 124.602 239.829 124.43 239.955 124.215C240.085 124 240.151 123.765 240.151 123.508C240.151 123.251 240.085 123.016 239.955 122.801C239.829 122.582 239.656 122.409 239.437 122.283C239.222 122.152 238.986 122.087 238.73 122.087C238.473 122.087 238.237 122.152 238.023 122.283C237.808 122.409 237.635 122.582 237.505 122.801C237.374 123.016 237.309 123.251 237.309 123.508C237.309 123.765 237.374 124 237.505 124.215C237.635 124.43 237.808 124.602 238.023 124.733C238.237 124.864 238.473 124.929 238.73 124.929ZM232.836 120.568C232.374 120.568 231.951 120.456 231.569 120.232C231.186 120.003 230.88 119.7 230.652 119.322C230.428 118.939 230.316 118.515 230.316 118.048C230.316 117.591 230.432 117.171 230.666 116.788C230.899 116.405 231.207 116.1 231.59 115.871C231.972 115.642 232.388 115.528 232.836 115.528C233.298 115.528 233.718 115.642 234.096 115.871C234.478 116.095 234.784 116.398 235.013 116.781C235.241 117.159 235.356 117.581 235.356 118.048C235.356 118.515 235.241 118.939 235.013 119.322C234.784 119.7 234.478 120.003 234.096 120.232C233.718 120.456 233.298 120.568 232.836 120.568ZM232.836 119.469C233.092 119.469 233.328 119.404 233.543 119.273C233.762 119.142 233.935 118.97 234.061 118.755C234.191 118.54 234.257 118.305 234.257 118.048C234.257 117.791 234.191 117.556 234.061 117.341C233.935 117.122 233.762 116.949 233.543 116.823C233.328 116.692 233.092 116.627 232.836 116.627C232.579 116.627 232.343 116.692 232.129 116.823C231.914 116.949 231.741 117.122 231.611 117.341C231.48 117.556 231.415 117.791 231.415 118.048C231.415 118.305 231.48 118.54 231.611 118.755C231.741 118.97 231.914 119.142 232.129 119.273C232.343 119.404 232.579 119.469 232.836 119.469Z" fill="white"/>
<path d="M253.945 122.508L250.949 125.505C250.771 125.682 250.494 125.698 250.298 125.554L250.242 125.505L247.239 122.508C247.043 122.313 247.043 121.997 247.238 121.801C247.415 121.624 247.693 121.607 247.889 121.752L247.945 121.801L250.094 123.945L250.093 115.481C250.093 115.228 250.281 115.019 250.525 114.986L250.593 114.981C250.846 114.981 251.056 115.169 251.089 115.413L251.093 115.481L251.094 123.947L253.238 121.801C253.416 121.624 253.693 121.607 253.889 121.753L253.945 121.801C254.123 121.978 254.139 122.256 253.994 122.452L253.945 122.508Z" fill="white"/>
<path d="M24.405 164.818V154.738H25.665L30.922 162.613V154.738H32.182V164.818H30.922L25.665 156.936V164.818H24.405ZM37.4154 165.028C36.6734 165.028 36.0248 164.865 35.4694 164.538C34.9188 164.207 34.4894 163.747 34.1814 163.159C33.8734 162.566 33.7194 161.876 33.7194 161.087C33.7194 160.261 33.8711 159.547 34.1744 158.945C34.4778 158.338 34.9001 157.872 35.4414 157.545C35.9874 157.214 36.6268 157.048 37.3594 157.048C38.1201 157.048 38.7664 157.223 39.2984 157.573C39.8351 157.923 40.2364 158.422 40.5024 159.071C40.7731 159.72 40.8898 160.492 40.8524 161.388H39.5924V160.94C39.5784 160.011 39.3894 159.318 39.0254 158.861C38.6614 158.399 38.1201 158.168 37.4014 158.168C36.6314 158.168 36.0458 158.415 35.6444 158.91C35.2431 159.405 35.0424 160.114 35.0424 161.038C35.0424 161.929 35.2431 162.62 35.6444 163.11C36.0458 163.6 36.6174 163.845 37.3594 163.845C37.8588 163.845 38.2928 163.731 38.6614 163.502C39.0301 163.273 39.3194 162.944 39.5294 162.515L40.7264 162.928C40.4324 163.595 39.9891 164.113 39.3964 164.482C38.8084 164.846 38.1481 165.028 37.4154 165.028ZM34.6224 161.388V160.387H40.2084V161.388H34.6224ZM46.6319 164.818C46.1839 164.907 45.7406 164.942 45.3019 164.923C44.8679 164.909 44.4806 164.823 44.1399 164.664C43.7992 164.501 43.5402 164.249 43.3629 163.908C43.2136 163.609 43.1319 163.308 43.1179 163.005C43.1086 162.697 43.1039 162.349 43.1039 161.962V155.158H44.3499V161.906C44.3499 162.214 44.3522 162.478 44.3569 162.697C44.3662 162.916 44.4152 163.105 44.5039 163.264C44.6719 163.563 44.9379 163.738 45.3019 163.789C45.6706 163.84 46.1139 163.826 46.6319 163.747V164.818ZM41.5709 158.287V157.258H46.6319V158.287H41.5709ZM50.9695 164.818V154.738H54.9525C55.0505 154.738 55.1672 154.743 55.3025 154.752C55.4378 154.757 55.5685 154.771 55.6945 154.794C56.2405 154.878 56.6978 155.065 57.0665 155.354C57.4398 155.643 57.7198 156.01 57.9065 156.453C58.0932 156.892 58.1865 157.379 58.1865 157.916C58.1865 158.448 58.0908 158.936 57.8995 159.379C57.7128 159.818 57.4328 160.184 57.0595 160.478C56.6908 160.767 56.2358 160.954 55.6945 161.038C55.5685 161.057 55.4378 161.071 55.3025 161.08C55.1672 161.089 55.0505 161.094 54.9525 161.094H52.2155V164.818H50.9695ZM52.2155 159.911H54.9105C54.9992 159.911 55.0995 159.906 55.2115 159.897C55.3282 159.888 55.4378 159.871 55.5405 159.848C55.8625 159.773 56.1238 159.638 56.3245 159.442C56.5298 159.241 56.6792 159.008 56.7725 158.742C56.8658 158.471 56.9125 158.196 56.9125 157.916C56.9125 157.636 56.8658 157.363 56.7725 157.097C56.6792 156.826 56.5298 156.591 56.3245 156.39C56.1238 156.189 55.8625 156.054 55.5405 155.984C55.4378 155.956 55.3282 155.94 55.2115 155.935C55.0995 155.926 54.9992 155.921 54.9105 155.921H52.2155V159.911ZM59.5828 164.818V157.258H60.6958V159.085L60.5138 158.847C60.6024 158.614 60.7168 158.399 60.8568 158.203C61.0015 158.007 61.1625 157.846 61.3398 157.72C61.5358 157.561 61.7575 157.44 62.0048 157.356C62.2521 157.272 62.5041 157.223 62.7608 157.209C63.0175 157.19 63.2578 157.207 63.4818 157.258V158.427C63.2205 158.357 62.9335 158.338 62.6208 158.371C62.3081 158.404 62.0188 158.518 61.7528 158.714C61.5101 158.887 61.3211 159.097 61.1858 159.344C61.0551 159.591 60.9641 159.86 60.9128 160.149C60.8614 160.434 60.8358 160.725 60.8358 161.024V164.818H59.5828ZM67.8887 165.028C67.1374 165.028 66.4887 164.858 65.9427 164.517C65.4014 164.176 64.9837 163.705 64.6897 163.103C64.3957 162.501 64.2487 161.81 64.2487 161.031C64.2487 160.238 64.3981 159.542 64.6967 158.945C64.9954 158.348 65.4177 157.883 65.9637 157.552C66.5097 157.216 67.1514 157.048 67.8887 157.048C68.6447 157.048 69.2957 157.218 69.8417 157.559C70.3877 157.895 70.8054 158.364 71.0947 158.966C71.3887 159.563 71.5357 160.252 71.5357 161.031C71.5357 161.82 71.3887 162.515 71.0947 163.117C70.8007 163.714 70.3807 164.183 69.8347 164.524C69.2887 164.86 68.6401 165.028 67.8887 165.028ZM67.8887 163.845C68.6727 163.845 69.2561 163.584 69.6387 163.061C70.0214 162.538 70.2127 161.862 70.2127 161.031C70.2127 160.177 70.0191 159.498 69.6317 158.994C69.2444 158.485 68.6634 158.231 67.8887 158.231C67.3614 158.231 66.9274 158.35 66.5867 158.588C66.2461 158.826 65.9917 159.155 65.8237 159.575C65.6557 159.995 65.5717 160.48 65.5717 161.031C65.5717 161.88 65.7677 162.562 66.1597 163.075C66.5517 163.588 67.1281 163.845 67.8887 163.845ZM73.7979 164.818V156.845C73.7979 156.649 73.8073 156.451 73.8259 156.25C73.8446 156.045 73.8866 155.846 73.9519 155.655C74.0173 155.459 74.1246 155.279 74.2739 155.116C74.4466 154.925 74.6356 154.789 74.8409 154.71C75.0463 154.626 75.2539 154.575 75.4639 154.556C75.6786 154.537 75.8816 154.528 76.0729 154.528H77.0319V155.564H76.1429C75.7743 155.564 75.4989 155.655 75.3169 155.837C75.1349 156.014 75.0439 156.285 75.0439 156.649V164.818H73.7979ZM72.5169 158.287V157.258H77.0319V158.287H72.5169ZM78.5019 155.921V154.633H79.7479V155.921H78.5019ZM78.5019 164.818V157.258H79.7479V164.818H78.5019ZM86.0753 164.818C85.6273 164.907 85.1839 164.942 84.7453 164.923C84.3113 164.909 83.9239 164.823 83.5833 164.664C83.2426 164.501 82.9836 164.249 82.8063 163.908C82.6569 163.609 82.5753 163.308 82.5613 163.005C82.5519 162.697 82.5473 162.349 82.5473 161.962V155.158H83.7933V161.906C83.7933 162.214 83.7956 162.478 83.8003 162.697C83.8096 162.916 83.8586 163.105 83.9473 163.264C84.1153 163.563 84.3813 163.738 84.7453 163.789C85.1139 163.84 85.5573 163.826 86.0753 163.747V164.818ZM81.0143 158.287V157.258H86.0753V158.287H81.0143ZM88.1701 163.768V162.396H89.5421V163.768H88.1701ZM88.1771 159.68V158.308H89.5491V159.68H88.1771ZM97.4545 166.204V164.587H98.7005V166.204H97.4545ZM97.4545 154.969V153.345H98.7005V154.969H97.4545ZM98.1755 165.028C97.4942 165.028 96.8805 164.907 96.3345 164.664C95.7932 164.417 95.3475 164.069 94.9975 163.621C94.6475 163.168 94.4189 162.636 94.3115 162.025L95.5365 161.822C95.6859 162.443 96.0009 162.935 96.4815 163.299C96.9669 163.663 97.5502 163.845 98.2315 163.845C98.9175 163.845 99.4729 163.679 99.8975 163.348C100.322 163.017 100.535 162.59 100.535 162.067C100.535 161.684 100.42 161.376 100.192 161.143C99.9675 160.91 99.5895 160.711 99.0575 160.548L96.7545 159.834C95.3779 159.405 94.6895 158.583 94.6895 157.37C94.6895 156.801 94.8272 156.304 95.1025 155.879C95.3825 155.45 95.7722 155.118 96.2715 154.885C96.7755 154.647 97.3612 154.53 98.0285 154.535C98.6772 154.54 99.2559 154.661 99.7645 154.899C100.273 155.132 100.693 155.468 101.025 155.907C101.361 156.346 101.587 156.871 101.704 157.482L100.444 157.713C100.378 157.316 100.234 156.969 100.01 156.67C99.7902 156.371 99.5102 156.14 99.1695 155.977C98.8289 155.809 98.4462 155.723 98.0215 155.718C97.6249 155.713 97.2679 155.779 96.9505 155.914C96.6379 156.049 96.3905 156.238 96.2085 156.481C96.0265 156.724 95.9355 157.001 95.9355 157.314C95.9355 157.655 96.0615 157.944 96.3135 158.182C96.5702 158.415 96.9715 158.616 97.5175 158.784L99.4075 159.344C100.238 159.591 100.838 159.925 101.207 160.345C101.575 160.76 101.76 161.316 101.76 162.011C101.76 162.613 101.61 163.14 101.312 163.593C101.018 164.046 100.6 164.398 100.059 164.65C99.5219 164.902 98.8942 165.028 98.1755 165.028ZM106.625 165.028C105.972 165.028 105.389 164.881 104.875 164.587C104.367 164.288 103.963 163.885 103.664 163.376C103.37 162.863 103.223 162.279 103.223 161.626V157.93C103.223 157.277 103.37 156.693 103.664 156.18C103.963 155.667 104.367 155.263 104.875 154.969C105.389 154.675 105.972 154.528 106.625 154.528C107.279 154.528 107.862 154.675 108.375 154.969C108.889 155.263 109.292 155.667 109.586 156.18C109.88 156.693 110.027 157.277 110.027 157.93V161.626C110.027 162.279 109.88 162.863 109.586 163.376C109.292 163.885 108.889 164.288 108.375 164.587C107.862 164.881 107.279 165.028 106.625 165.028ZM106.625 163.831C107.022 163.831 107.381 163.735 107.703 163.544C108.025 163.353 108.282 163.096 108.473 162.774C108.665 162.447 108.76 162.088 108.76 161.696V157.853C108.76 157.456 108.665 157.097 108.473 156.775C108.282 156.453 108.025 156.196 107.703 156.005C107.381 155.814 107.022 155.718 106.625 155.718C106.233 155.718 105.874 155.814 105.547 156.005C105.225 156.196 104.969 156.453 104.777 156.775C104.586 157.097 104.49 157.456 104.49 157.853V161.696C104.49 162.088 104.586 162.447 104.777 162.774C104.969 163.096 105.225 163.353 105.547 163.544C105.874 163.735 106.233 163.831 106.625 163.831ZM112.211 164.818V163.446H113.583V164.818H112.211ZM118.743 165.028C118.225 165.028 117.742 164.921 117.294 164.706C116.85 164.491 116.47 164.197 116.153 163.824C115.84 163.446 115.616 163.012 115.481 162.522L116.678 162.2C116.762 162.531 116.911 162.818 117.126 163.061C117.34 163.299 117.59 163.486 117.875 163.621C118.164 163.752 118.465 163.817 118.778 163.817C119.188 163.817 119.557 163.719 119.884 163.523C120.215 163.322 120.476 163.059 120.668 162.732C120.859 162.401 120.955 162.039 120.955 161.647C120.955 161.241 120.854 160.875 120.654 160.548C120.458 160.217 120.194 159.955 119.863 159.764C119.531 159.573 119.17 159.477 118.778 159.477C118.334 159.477 117.954 159.57 117.637 159.757C117.324 159.939 117.077 160.163 116.895 160.429L115.789 160.009L116.097 154.738H121.508V155.921H116.699L117.252 155.403L116.993 159.624L116.72 159.267C117 158.968 117.333 158.737 117.721 158.574C118.113 158.411 118.512 158.329 118.918 158.329C119.543 158.329 120.103 158.476 120.598 158.77C121.092 159.059 121.484 159.456 121.774 159.96C122.063 160.459 122.208 161.022 122.208 161.647C122.208 162.268 122.049 162.835 121.732 163.348C121.414 163.857 120.992 164.265 120.465 164.573C119.942 164.876 119.368 165.028 118.743 165.028ZM123.882 164.818V154.738H125.016L128.824 162.767L132.611 154.738H133.759V164.811H132.576V157.475L129.153 164.818H128.488L125.065 157.475V164.818H123.882Z" fill="white"/>
<rect x="196.425" y="147.818" width="64" height="23" rx="4" fill="#10B981"/>
<path d="M203.939 162.963V160.289H201.265V159.26H203.939V156.593H204.968V159.26H207.635V160.289H204.968V162.963H203.939ZM212.86 165.028C212.206 165.028 211.623 164.881 211.11 164.587C210.601 164.288 210.197 163.885 209.899 163.376C209.605 162.863 209.458 162.279 209.458 161.626V157.93C209.458 157.277 209.605 156.693 209.899 156.18C210.197 155.667 210.601 155.263 211.11 154.969C211.623 154.675 212.206 154.528 212.86 154.528C213.513 154.528 214.096 154.675 214.61 154.969C215.123 155.263 215.527 155.667 215.821 156.18C216.115 156.693 216.262 157.277 216.262 157.93V161.626C216.262 162.279 216.115 162.863 215.821 163.376C215.527 163.885 215.123 164.288 214.61 164.587C214.096 164.881 213.513 165.028 212.86 165.028ZM212.86 163.831C213.256 163.831 213.616 163.735 213.938 163.544C214.26 163.353 214.516 163.096 214.708 162.774C214.899 162.447 214.995 162.088 214.995 161.696V157.853C214.995 157.456 214.899 157.097 214.708 156.775C214.516 156.453 214.26 156.196 213.938 156.005C213.616 155.814 213.256 155.718 212.86 155.718C212.468 155.718 212.108 155.814 211.782 156.005C211.46 156.196 211.203 156.453 211.012 156.775C210.82 157.097 210.725 157.456 210.725 157.853V161.696C210.725 162.088 210.82 162.447 211.012 162.774C211.203 163.096 211.46 163.353 211.782 163.544C212.108 163.735 212.468 163.831 212.86 163.831ZM218.445 164.818V163.446H219.817V164.818H218.445ZM221.715 164.811L221.722 163.691L226.195 159.666C226.568 159.33 226.818 159.013 226.944 158.714C227.075 158.411 227.14 158.1 227.14 157.783C227.14 157.396 227.051 157.046 226.874 156.733C226.697 156.42 226.454 156.173 226.146 155.991C225.843 155.809 225.497 155.718 225.11 155.718C224.709 155.718 224.352 155.814 224.039 156.005C223.726 156.192 223.479 156.441 223.297 156.754C223.12 157.067 223.033 157.407 223.038 157.776H221.764C221.764 157.141 221.911 156.581 222.205 156.096C222.499 155.606 222.898 155.223 223.402 154.948C223.911 154.668 224.487 154.528 225.131 154.528C225.756 154.528 226.316 154.673 226.811 154.962C227.306 155.247 227.695 155.636 227.98 156.131C228.269 156.621 228.414 157.176 228.414 157.797C228.414 158.236 228.358 158.616 228.246 158.938C228.139 159.26 227.971 159.559 227.742 159.834C227.513 160.105 227.226 160.394 226.881 160.702L223.164 164.041L223.003 163.621H228.414V164.811H221.715ZM231.209 164.818L230.369 163.978L239.623 154.738L240.463 155.578L231.209 164.818ZM238.363 165.028C237.901 165.028 237.478 164.916 237.096 164.692C236.718 164.463 236.414 164.16 236.186 163.782C235.957 163.399 235.843 162.975 235.843 162.508C235.843 162.051 235.959 161.631 236.193 161.248C236.426 160.865 236.734 160.56 237.117 160.331C237.499 160.102 237.915 159.988 238.363 159.988C238.825 159.988 239.247 160.102 239.63 160.331C240.012 160.555 240.316 160.858 240.54 161.241C240.768 161.619 240.883 162.041 240.883 162.508C240.883 162.975 240.768 163.399 240.54 163.782C240.316 164.16 240.012 164.463 239.63 164.692C239.247 164.916 238.825 165.028 238.363 165.028ZM238.363 163.929C238.619 163.929 238.855 163.864 239.07 163.733C239.289 163.602 239.462 163.43 239.588 163.215C239.718 163 239.784 162.765 239.784 162.508C239.784 162.251 239.718 162.016 239.588 161.801C239.462 161.582 239.289 161.409 239.07 161.283C238.855 161.152 238.619 161.087 238.363 161.087C238.106 161.087 237.87 161.152 237.656 161.283C237.441 161.409 237.268 161.582 237.138 161.801C237.007 162.016 236.942 162.251 236.942 162.508C236.942 162.765 237.007 163 237.138 163.215C237.268 163.43 237.441 163.602 237.656 163.733C237.87 163.864 238.106 163.929 238.363 163.929ZM232.469 159.568C232.007 159.568 231.584 159.456 231.202 159.232C230.819 159.003 230.513 158.7 230.285 158.322C230.061 157.939 229.949 157.515 229.949 157.048C229.949 156.591 230.065 156.171 230.299 155.788C230.532 155.405 230.84 155.1 231.223 154.871C231.605 154.642 232.021 154.528 232.469 154.528C232.931 154.528 233.351 154.642 233.729 154.871C234.111 155.095 234.417 155.398 234.646 155.781C234.874 156.159 234.989 156.581 234.989 157.048C234.989 157.515 234.874 157.939 234.646 158.322C234.417 158.7 234.111 159.003 233.729 159.232C233.351 159.456 232.931 159.568 232.469 159.568ZM232.469 158.469C232.725 158.469 232.961 158.404 233.176 158.273C233.395 158.142 233.568 157.97 233.694 157.755C233.824 157.54 233.89 157.305 233.89 157.048C233.89 156.791 233.824 156.556 233.694 156.341C233.568 156.122 233.395 155.949 233.176 155.823C232.961 155.692 232.725 155.627 232.469 155.627C232.212 155.627 231.976 155.692 231.762 155.823C231.547 155.949 231.374 156.122 231.244 156.341C231.113 156.556 231.048 156.791 231.048 157.048C231.048 157.305 231.113 157.54 231.244 157.755C231.374 157.97 231.547 158.142 231.762 158.273C231.976 158.404 232.212 158.469 232.469 158.469Z" fill="white"/>
<path d="M246.905 157.128L249.901 154.131C250.079 153.954 250.356 153.937 250.552 154.082L250.608 154.131L253.611 157.127C253.807 157.322 253.807 157.639 253.612 157.834C253.435 158.012 253.157 158.028 252.961 157.883L252.905 157.835L250.756 155.691L250.757 164.154C250.757 164.408 250.569 164.617 250.325 164.65L250.257 164.654C250.004 164.654 249.795 164.466 249.761 164.222L249.757 164.154L249.756 155.689L247.612 157.835C247.434 158.012 247.157 158.028 246.961 157.883L246.905 157.835C246.727 157.657 246.711 157.379 246.856 157.184L246.905 157.128Z" fill="white"/>
</svg>
