<svg width="282" height="234" viewBox="0 0 282 234" fill="none" xmlns="http://www.w3.org/2000/svg">
<rect y="0.317871" width="281.035" height="233" rx="20" fill="white" fill-opacity="0.1"/>
<path d="M25.17 71.3079V68.9379H27.58V71.3079H25.17ZM25.17 55.3079V52.9379H27.58V55.3079H25.17ZM26.43 69.6179C25.4167 69.6179 24.51 69.4312 23.71 69.0579C22.91 68.6845 22.2533 68.1579 21.74 67.4779C21.2333 66.7979 20.91 65.9912 20.77 65.0579L23.15 64.6779C23.3367 65.4979 23.7367 66.1512 24.35 66.6379C24.97 67.1179 25.71 67.3579 26.57 67.3579C27.3967 67.3579 28.0767 67.1645 28.61 66.7779C29.1433 66.3845 29.41 65.8879 29.41 65.2879C29.41 64.8679 29.2833 64.5279 29.03 64.2679C28.7767 64.0012 28.37 63.7812 27.81 63.6079L24.34 62.5279C22.32 61.9012 21.31 60.6745 21.31 58.8479C21.31 57.9945 21.5133 57.2512 21.92 56.6179C22.3333 55.9779 22.9133 55.4879 23.66 55.1479C24.4067 54.8012 25.2867 54.6312 26.3 54.6379C27.24 54.6445 28.0767 54.8145 28.81 55.1479C29.55 55.4812 30.1633 55.9612 30.65 56.5879C31.1433 57.2145 31.4933 57.9679 31.7 58.8479L29.23 59.2979C29.1367 58.8245 28.9533 58.4079 28.68 58.0479C28.4067 57.6879 28.0633 57.4079 27.65 57.2079C27.2367 57.0079 26.7767 56.9012 26.27 56.8879C25.7833 56.8812 25.3467 56.9579 24.96 57.1179C24.5733 57.2712 24.2667 57.4912 24.04 57.7779C23.8133 58.0579 23.7 58.3745 23.7 58.7279C23.7 59.1212 23.8567 59.4579 24.17 59.7379C24.49 60.0179 24.9933 60.2579 25.68 60.4579L28.27 61.2079C29.5167 61.5679 30.4133 62.0579 30.96 62.6779C31.5133 63.2912 31.79 64.1079 31.79 65.1279C31.79 66.0212 31.5667 66.8045 31.12 67.4779C30.6733 68.1512 30.0467 68.6779 29.24 69.0579C28.4333 69.4312 27.4967 69.6179 26.43 69.6179ZM38.2286 69.6179C37.4953 69.6179 36.8119 69.4679 36.1786 69.1679C35.5453 68.8612 34.9986 68.4412 34.5386 67.9079C34.0853 67.3745 33.7586 66.7545 33.5586 66.0479L35.8786 65.4279C35.9719 65.8145 36.1419 66.1479 36.3886 66.4279C36.6419 66.7079 36.9353 66.9245 37.2686 67.0779C37.6086 67.2312 37.9586 67.3079 38.3186 67.3079C38.7853 67.3079 39.2119 67.1945 39.5986 66.9679C39.9853 66.7412 40.2919 66.4379 40.5186 66.0579C40.7453 65.6712 40.8586 65.2445 40.8586 64.7779C40.8586 64.3112 40.7419 63.8879 40.5086 63.5079C40.2819 63.1212 39.9753 62.8179 39.5886 62.5979C39.2019 62.3712 38.7786 62.2579 38.3186 62.2579C37.7653 62.2579 37.3053 62.3579 36.9386 62.5579C36.5786 62.7579 36.3019 62.9712 36.1086 63.1979L34.0486 62.5379L34.4886 54.9179H42.3086V57.1779H35.7786L36.6786 56.3279L36.3586 61.6279L35.9186 61.0879C36.2919 60.7479 36.7253 60.4945 37.2186 60.3279C37.7119 60.1612 38.1886 60.0779 38.6486 60.0779C39.5486 60.0779 40.3453 60.2845 41.0386 60.6979C41.7386 61.1045 42.2853 61.6612 42.6786 62.3679C43.0786 63.0745 43.2786 63.8779 43.2786 64.7779C43.2786 65.6779 43.0453 66.4945 42.5786 67.2279C42.1119 67.9545 41.4953 68.5345 40.7286 68.9679C39.9686 69.4012 39.1353 69.6179 38.2286 69.6179ZM46.0773 69.3179V66.8479H48.5473V69.3179H46.0773ZM56.4016 54.6379C57.3416 54.6379 58.1882 54.8612 58.9416 55.3079C59.6949 55.7479 60.2882 56.3612 60.7216 57.1479C61.1616 57.9279 61.3816 58.8279 61.3816 59.8479V64.2379C61.3816 65.3245 61.1616 66.2745 60.7216 67.0879C60.2882 67.8945 59.6782 68.5179 58.8916 68.9579C58.1049 69.3979 57.1849 69.6179 56.1316 69.6179C55.4049 69.6179 54.7182 69.4945 54.0716 69.2479C53.4249 68.9945 52.8449 68.6079 52.3316 68.0879L54.0616 66.3979C54.3216 66.6979 54.6316 66.9345 54.9916 67.1079C55.3582 67.2745 55.7382 67.3579 56.1316 67.3579C56.6916 67.3579 57.1816 67.2279 57.6016 66.9679C58.0216 66.7012 58.3482 66.3579 58.5816 65.9379C58.8149 65.5112 58.9316 65.0545 58.9316 64.5679V62.1779L59.3616 62.6579C58.9549 63.1379 58.4616 63.5145 57.8816 63.7879C57.3016 64.0545 56.6916 64.1879 56.0516 64.1879C55.1516 64.1879 54.3516 63.9812 53.6516 63.5679C52.9582 63.1545 52.4116 62.5945 52.0116 61.8879C51.6182 61.1745 51.4216 60.3679 51.4216 59.4679C51.4216 58.5679 51.6482 57.7545 52.1016 57.0279C52.5549 56.2945 53.1582 55.7145 53.9116 55.2879C54.6716 54.8545 55.5016 54.6379 56.4016 54.6379ZM56.4016 56.9379C55.9349 56.9379 55.5082 57.0512 55.1216 57.2779C54.7349 57.5045 54.4282 57.8112 54.2016 58.1979C53.9749 58.5779 53.8616 59.0012 53.8616 59.4679C53.8616 59.9345 53.9716 60.3612 54.1916 60.7479C54.4182 61.1345 54.7216 61.4412 55.1016 61.6679C55.4882 61.8945 55.9149 62.0079 56.3816 62.0079C56.8482 62.0079 57.2749 61.8945 57.6616 61.6679C58.0482 61.4412 58.3549 61.1345 58.5816 60.7479C58.8149 60.3612 58.9316 59.9345 58.9316 59.4679C58.9316 59.0145 58.8182 58.5979 58.5916 58.2179C58.3649 57.8312 58.0582 57.5212 57.6716 57.2879C57.2916 57.0545 56.8682 56.9379 56.4016 56.9379ZM64.1734 69.3179V54.9179H66.3434L71.3234 65.1179L76.3034 54.9179H78.4734V69.3179H76.2234V60.0879L71.8034 69.3179H70.8434L66.4334 60.0879V69.3179H64.1734Z" fill="white"/>
<rect x="188" y="50.3179" width="73" height="23" rx="4" fill="#3FD3B1"/>
<path d="M199.514 65.4629V62.7889H196.84V61.7599H199.514V59.0929H200.543V61.7599H203.21V62.7889H200.543V65.4629H199.514ZM206.79 67.3179V58.6169L204.893 59.7649V58.3719L206.79 57.2379H208.057V67.3179H206.79ZM213.702 67.5279C213.184 67.5279 212.701 67.4205 212.253 67.2059C211.81 66.9912 211.43 66.6972 211.112 66.3239C210.8 65.9459 210.576 65.5119 210.44 65.0219L211.637 64.6999C211.721 65.0312 211.871 65.3182 212.085 65.5609C212.3 65.7989 212.55 65.9855 212.834 66.1209C213.124 66.2515 213.425 66.3169 213.737 66.3169C214.148 66.3169 214.517 66.2189 214.843 66.0229C215.175 65.8222 215.436 65.5585 215.627 65.2319C215.819 64.9005 215.914 64.5389 215.914 64.1469C215.914 63.7409 215.814 63.3745 215.613 63.0479C215.417 62.7165 215.154 62.4552 214.822 62.2639C214.491 62.0725 214.129 61.9769 213.737 61.9769C213.294 61.9769 212.914 62.0702 212.596 62.2569C212.284 62.4389 212.036 62.6629 211.854 62.9289L210.748 62.5089L211.056 57.2379H216.467V58.4209H211.658L212.211 57.9029L211.952 62.1239L211.679 61.7669C211.959 61.4682 212.293 61.2372 212.68 61.0739C213.072 60.9105 213.471 60.8289 213.877 60.8289C214.503 60.8289 215.063 60.9759 215.557 61.2699C216.052 61.5592 216.444 61.9559 216.733 62.4599C217.023 62.9592 217.167 63.5215 217.167 64.1469C217.167 64.7675 217.009 65.3345 216.691 65.8479C216.374 66.3565 215.952 66.7649 215.424 67.0729C214.902 67.3762 214.328 67.5279 213.702 67.5279ZM219.065 67.3179V65.9459H220.437V67.3179H219.065ZM226.052 67.5279C225.412 67.5279 224.831 67.3739 224.309 67.0659C223.791 66.7579 223.378 66.3379 223.07 65.8059C222.766 65.2692 222.615 64.6649 222.615 63.9929V60.6399C222.615 59.9352 222.766 59.3122 223.07 58.7709C223.378 58.2249 223.798 57.8002 224.33 57.4969C224.866 57.1889 225.478 57.0349 226.164 57.0349C226.719 57.0349 227.235 57.1492 227.711 57.3779C228.191 57.6019 228.595 57.9262 228.922 58.3509L227.991 59.1769C227.79 58.8829 227.529 58.6495 227.207 58.4769C226.885 58.3042 226.537 58.2179 226.164 58.2179C225.72 58.2179 225.326 58.3252 224.981 58.5399C224.64 58.7499 224.372 59.0299 224.176 59.3799C223.98 59.7252 223.882 60.0985 223.882 60.4999V62.5229L223.609 62.2149C223.903 61.7949 224.276 61.4589 224.729 61.2069C225.181 60.9549 225.671 60.8289 226.199 60.8289C226.824 60.8289 227.384 60.9759 227.879 61.2699C228.378 61.5639 228.77 61.9629 229.055 62.4669C229.344 62.9662 229.489 63.5285 229.489 64.1539C229.489 64.7792 229.332 65.3462 229.02 65.8549C228.707 66.3635 228.289 66.7695 227.767 67.0729C227.249 67.3762 226.677 67.5279 226.052 67.5279ZM226.052 66.3239C226.453 66.3239 226.819 66.2282 227.151 66.0369C227.482 65.8409 227.743 65.5795 227.935 65.2529C228.131 64.9215 228.229 64.5552 228.229 64.1539C228.229 63.7525 228.131 63.3862 227.935 63.0549C227.743 62.7235 227.482 62.4622 227.151 62.2709C226.824 62.0749 226.46 61.9769 226.059 61.9769C225.657 61.9769 225.291 62.0749 224.96 62.2709C224.633 62.4622 224.372 62.7235 224.176 63.0549C223.98 63.3862 223.882 63.7525 223.882 64.1539C223.882 64.5505 223.977 64.9145 224.169 65.2459C224.365 65.5725 224.626 65.8339 224.953 66.0299C225.284 66.2259 225.65 66.3239 226.052 66.3239ZM232.43 67.3179L231.59 66.4779L240.844 57.2379L241.684 58.0779L232.43 67.3179ZM239.584 67.5279C239.122 67.5279 238.7 67.4159 238.317 67.1919C237.939 66.9632 237.636 66.6599 237.407 66.2819C237.178 65.8992 237.064 65.4745 237.064 65.0079C237.064 64.5505 237.181 64.1305 237.414 63.7479C237.647 63.3652 237.955 63.0595 238.338 62.8309C238.721 62.6022 239.136 62.4879 239.584 62.4879C240.046 62.4879 240.468 62.6022 240.851 62.8309C241.234 63.0549 241.537 63.3582 241.761 63.7409C241.99 64.1189 242.104 64.5412 242.104 65.0079C242.104 65.4745 241.99 65.8992 241.761 66.2819C241.537 66.6599 241.234 66.9632 240.851 67.1919C240.468 67.4159 240.046 67.5279 239.584 67.5279ZM239.584 66.4289C239.841 66.4289 240.076 66.3635 240.291 66.2329C240.51 66.1022 240.683 65.9295 240.809 65.7149C240.94 65.5002 241.005 65.2645 241.005 65.0079C241.005 64.7512 240.94 64.5155 240.809 64.3009C240.683 64.0815 240.51 63.9089 240.291 63.7829C240.076 63.6522 239.841 63.5869 239.584 63.5869C239.327 63.5869 239.092 63.6522 238.877 63.7829C238.662 63.9089 238.49 64.0815 238.359 64.3009C238.228 64.5155 238.163 64.7512 238.163 65.0079C238.163 65.2645 238.228 65.5002 238.359 65.7149C238.49 65.9295 238.662 66.1022 238.877 66.2329C239.092 66.3635 239.327 66.4289 239.584 66.4289ZM233.69 62.0679C233.228 62.0679 232.806 61.9559 232.423 61.7319C232.04 61.5032 231.735 61.1999 231.506 60.8219C231.282 60.4392 231.17 60.0145 231.17 59.5479C231.17 59.0905 231.287 58.6705 231.52 58.2879C231.753 57.9052 232.061 57.5995 232.444 57.3709C232.827 57.1422 233.242 57.0279 233.69 57.0279C234.152 57.0279 234.572 57.1422 234.95 57.3709C235.333 57.5949 235.638 57.8982 235.867 58.2809C236.096 58.6589 236.21 59.0812 236.21 59.5479C236.21 60.0145 236.096 60.4392 235.867 60.8219C235.638 61.1999 235.333 61.5032 234.95 61.7319C234.572 61.9559 234.152 62.0679 233.69 62.0679ZM233.69 60.9689C233.947 60.9689 234.182 60.9035 234.397 60.7729C234.616 60.6422 234.789 60.4695 234.915 60.2549C235.046 60.0402 235.111 59.8045 235.111 59.5479C235.111 59.2912 235.046 59.0555 234.915 58.8409C234.789 58.6215 234.616 58.4489 234.397 58.3229C234.182 58.1922 233.947 58.1269 233.69 58.1269C233.433 58.1269 233.198 58.1922 232.983 58.3229C232.768 58.4489 232.596 58.6215 232.465 58.8409C232.334 59.0555 232.269 59.2912 232.269 59.5479C232.269 59.8045 232.334 60.0402 232.465 60.2549C232.596 60.4695 232.768 60.6422 232.983 60.7729C233.198 60.9035 233.433 60.9689 233.69 60.9689Z" fill="white"/>
<path d="M247.48 59.6278L250.476 56.6311C250.654 56.4537 250.931 56.4374 251.127 56.5824L251.183 56.6307L254.186 59.6274C254.382 59.8224 254.382 60.139 254.187 60.3345C254.01 60.5122 253.732 60.5286 253.536 60.3836L253.48 60.3353L251.331 58.1907L251.332 66.6546C251.332 66.9077 251.144 67.1169 250.9 67.15L250.832 67.1546C250.579 67.1546 250.369 66.9665 250.336 66.7224L250.332 66.6546L250.331 58.1894L248.187 60.3349C248.009 60.5124 247.732 60.5286 247.536 60.3833L247.48 60.3349C247.302 60.1574 247.286 59.8796 247.431 59.6839L247.48 59.6278Z" fill="white"/>
<path d="M20.98 28.8179V18.7379H25.145C25.243 18.7379 25.369 18.7425 25.523 18.7519C25.677 18.7565 25.8193 18.7705 25.95 18.7939C26.5333 18.8825 27.014 19.0762 27.392 19.3749C27.7747 19.6735 28.057 20.0515 28.239 20.5089C28.4257 20.9615 28.519 21.4655 28.519 22.0209C28.519 22.8422 28.3113 23.5492 27.896 24.1419C27.4807 24.7299 26.8437 25.0939 25.985 25.2339L25.264 25.2969H22.667V28.8179H20.98ZM26.769 28.8179L24.781 24.7159L26.496 24.3379L28.68 28.8179H26.769ZM22.667 23.7219H25.075C25.1683 23.7219 25.2733 23.7172 25.39 23.7079C25.5067 23.6985 25.614 23.6799 25.712 23.6519C25.992 23.5819 26.2113 23.4582 26.37 23.2809C26.5333 23.1035 26.6477 22.9029 26.713 22.6789C26.783 22.4549 26.818 22.2355 26.818 22.0209C26.818 21.8062 26.783 21.5869 26.713 21.3629C26.6477 21.1342 26.5333 20.9312 26.37 20.7539C26.2113 20.5765 25.992 20.4529 25.712 20.3829C25.614 20.3549 25.5067 20.3385 25.39 20.3339C25.2733 20.3245 25.1683 20.3199 25.075 20.3199H22.667V23.7219ZM33.6592 29.0279C32.8939 29.0279 32.2219 28.8622 31.6432 28.5309C31.0645 28.1995 30.6119 27.7399 30.2852 27.1519C29.9632 26.5639 29.8022 25.8872 29.8022 25.1219C29.8022 24.2959 29.9609 23.5795 30.2782 22.9729C30.5955 22.3615 31.0365 21.8879 31.6012 21.5519C32.1659 21.2159 32.8192 21.0479 33.5612 21.0479C34.3452 21.0479 35.0102 21.2322 35.5562 21.6009C36.1069 21.9649 36.5152 22.4805 36.7812 23.1479C37.0472 23.8152 37.1475 24.6015 37.0822 25.5069H35.4092V24.8909C35.4045 24.0695 35.2599 23.4699 34.9752 23.0919C34.6905 22.7139 34.2425 22.5249 33.6312 22.5249C32.9405 22.5249 32.4272 22.7395 32.0912 23.1689C31.7552 23.5935 31.5872 24.2165 31.5872 25.0379C31.5872 25.8032 31.7552 26.3959 32.0912 26.8159C32.4272 27.2359 32.9172 27.4459 33.5612 27.4459C33.9765 27.4459 34.3335 27.3549 34.6322 27.1729C34.9355 26.9862 35.1689 26.7179 35.3322 26.3679L36.9982 26.8719C36.7089 27.5532 36.2609 28.0829 35.6542 28.4609C35.0522 28.8389 34.3872 29.0279 33.6592 29.0279ZM31.0552 25.5069V24.2329H36.2562V25.5069H31.0552ZM40.4146 28.8179L37.6706 21.2579H39.3576L41.2616 26.7389L43.1586 21.2579H44.8526L42.1086 28.8179H40.4146ZM49.2725 29.0279C48.5071 29.0279 47.8351 28.8622 47.2565 28.5309C46.6778 28.1995 46.2251 27.7399 45.8985 27.1519C45.5765 26.5639 45.4155 25.8872 45.4155 25.1219C45.4155 24.2959 45.5741 23.5795 45.8915 22.9729C46.2088 22.3615 46.6498 21.8879 47.2145 21.5519C47.7791 21.2159 48.4325 21.0479 49.1745 21.0479C49.9585 21.0479 50.6235 21.2322 51.1695 21.6009C51.7201 21.9649 52.1285 22.4805 52.3945 23.1479C52.6605 23.8152 52.7608 24.6015 52.6955 25.5069H51.0225V24.8909C51.0178 24.0695 50.8731 23.4699 50.5885 23.0919C50.3038 22.7139 49.8558 22.5249 49.2445 22.5249C48.5538 22.5249 48.0405 22.7395 47.7045 23.1689C47.3685 23.5935 47.2005 24.2165 47.2005 25.0379C47.2005 25.8032 47.3685 26.3959 47.7045 26.8159C48.0405 27.2359 48.5305 27.4459 49.1745 27.4459C49.5898 27.4459 49.9468 27.3549 50.2455 27.1729C50.5488 26.9862 50.7821 26.7179 50.9455 26.3679L52.6115 26.8719C52.3221 27.5532 51.8741 28.0829 51.2675 28.4609C50.6655 28.8389 50.0005 29.0279 49.2725 29.0279ZM46.6685 25.5069V24.2329H51.8695V25.5069H46.6685ZM59.2813 28.8179V25.1779C59.2813 24.9399 59.2649 24.6762 59.2323 24.3869C59.1996 24.0975 59.1226 23.8199 59.0013 23.5539C58.8846 23.2832 58.7073 23.0615 58.4693 22.8889C58.2359 22.7162 57.9186 22.6299 57.5173 22.6299C57.3026 22.6299 57.0903 22.6649 56.8803 22.7349C56.6703 22.8049 56.4789 22.9262 56.3063 23.0989C56.1383 23.2669 56.0029 23.5002 55.9003 23.7989C55.7976 24.0929 55.7463 24.4709 55.7463 24.9329L54.7453 24.5059C54.7453 23.8619 54.8689 23.2785 55.1163 22.7559C55.3683 22.2332 55.7369 21.8179 56.2223 21.5099C56.7076 21.1972 57.3049 21.0409 58.0143 21.0409C58.5743 21.0409 59.0363 21.1342 59.4003 21.3209C59.7643 21.5075 60.0536 21.7455 60.2683 22.0349C60.4829 22.3242 60.6416 22.6322 60.7443 22.9589C60.8469 23.2855 60.9123 23.5959 60.9403 23.8899C60.9729 24.1792 60.9893 24.4149 60.9893 24.5969V28.8179H59.2813ZM54.0383 28.8179V21.2579H55.5433V23.6029H55.7463V28.8179H54.0383ZM65.6509 29.0349C65.0909 29.0349 64.6289 28.9415 64.2649 28.7549C63.9009 28.5682 63.6116 28.3302 63.3969 28.0409C63.1823 27.7515 63.0236 27.4435 62.9209 27.1169C62.8183 26.7902 62.7506 26.4822 62.7179 26.1929C62.6899 25.8989 62.6759 25.6609 62.6759 25.4789V21.2579H64.3839V24.8979C64.3839 25.1312 64.4003 25.3949 64.4329 25.6889C64.4656 25.9782 64.5403 26.2582 64.6569 26.5289C64.7783 26.7949 64.9556 27.0142 65.1889 27.1869C65.4269 27.3595 65.7466 27.4459 66.1479 27.4459C66.3626 27.4459 66.5749 27.4109 66.7849 27.3409C66.9949 27.2709 67.1839 27.1519 67.3519 26.9839C67.5246 26.8112 67.6623 26.5755 67.7649 26.2769C67.8676 25.9782 67.9189 25.6002 67.9189 25.1429L68.9199 25.5699C68.9199 26.2139 68.7939 26.7972 68.5419 27.3199C68.2946 27.8425 67.9283 28.2602 67.4429 28.5729C66.9576 28.8809 66.3603 29.0349 65.6509 29.0349ZM68.1219 28.8179V26.4729H67.9189V21.2579H69.6129V28.8179H68.1219ZM75.0166 29.0279C74.2513 29.0279 73.5793 28.8622 73.0006 28.5309C72.4219 28.1995 71.9693 27.7399 71.6426 27.1519C71.3206 26.5639 71.1596 25.8872 71.1596 25.1219C71.1596 24.2959 71.3183 23.5795 71.6356 22.9729C71.9529 22.3615 72.3939 21.8879 72.9586 21.5519C73.5233 21.2159 74.1766 21.0479 74.9186 21.0479C75.7026 21.0479 76.3676 21.2322 76.9136 21.6009C77.4643 21.9649 77.8726 22.4805 78.1386 23.1479C78.4046 23.8152 78.5049 24.6015 78.4396 25.5069H76.7666V24.8909C76.7619 24.0695 76.6173 23.4699 76.3326 23.0919C76.0479 22.7139 75.5999 22.5249 74.9886 22.5249C74.2979 22.5249 73.7846 22.7395 73.4486 23.1689C73.1126 23.5935 72.9446 24.2165 72.9446 25.0379C72.9446 25.8032 73.1126 26.3959 73.4486 26.8159C73.7846 27.2359 74.2746 27.4459 74.9186 27.4459C75.3339 27.4459 75.6909 27.3549 75.9896 27.1729C76.2929 26.9862 76.5263 26.7179 76.6896 26.3679L78.3556 26.8719C78.0663 27.5532 77.6183 28.0829 77.0116 28.4609C76.4096 28.8389 75.7446 29.0279 75.0166 29.0279ZM72.4126 25.5069V24.2329H77.6136V25.5069H72.4126Z" fill="white"/>
<path d="M244.75 23.3179C244.75 24.2844 243.967 25.0679 243 25.0679C242.034 25.0679 241.25 24.2844 241.25 23.3179C241.25 22.3514 242.034 21.5679 243 21.5679C243.967 21.5679 244.75 22.3514 244.75 23.3179ZM250.75 23.3179C250.75 24.2844 249.967 25.0679 249 25.0679C248.034 25.0679 247.25 24.2844 247.25 23.3179C247.25 22.3514 248.034 21.5679 249 21.5679C249.967 21.5679 250.75 22.3514 250.75 23.3179ZM255 25.0679C255.967 25.0679 256.75 24.2844 256.75 23.3179C256.75 22.3514 255.967 21.5679 255 21.5679C254.033 21.5679 253.25 22.3514 253.25 23.3179C253.25 24.2844 254.033 25.0679 255 25.0679Z" fill="white" fill-opacity="0.5"/>
<path d="M26.7838 131.695L22.7671 129.28V200.738H263.767V88.3179L259.75 88.5431C255.734 88.7683 247.7 89.2188 239.667 92.0123C231.634 94.8058 223.6 99.9424 215.567 106.193C207.534 112.443 199.5 119.806 191.467 120.245C183.434 120.684 175.4 114.198 167.367 116.253C159.334 118.307 151.3 128.903 143.267 133.54C135.234 138.178 127.2 136.859 119.167 136.76C111.134 136.661 103.1 137.782 95.0671 131.565C87.0338 125.348 79.0004 111.792 70.9671 112.603C62.9338 113.415 54.9004 128.594 46.8671 133.768C38.8338 138.942 30.8004 134.111 26.7838 131.695Z" fill="url(#paint0_linear_568_122)"/>
<path d="M22.5171 129.439L26.5379 131.864C30.5588 134.288 38.6004 139.138 46.6421 133.944C54.6838 128.75 62.7254 113.512 70.7671 112.698C78.8088 111.883 86.8504 125.492 94.8921 131.733C102.934 137.974 110.975 136.848 119.017 136.947C127.059 137.047 135.1 138.372 143.142 133.716C151.184 129.06 159.225 118.424 167.267 116.361C175.309 114.298 183.35 120.81 191.392 120.369C199.434 119.928 207.475 112.536 215.517 106.262C223.559 99.9874 231.6 94.831 239.642 92.0266C247.684 89.2223 255.725 88.7701 259.746 88.544L263.767 88.3179" stroke="#3FD3B1" stroke-width="1.5"/>
<defs>
<linearGradient id="paint0_linear_568_122" x1="143.267" y1="88.3179" x2="143.267" y2="189.232" gradientUnits="userSpaceOnUse">
<stop stop-color="#3FD3B1" stop-opacity="0.2"/>
<stop offset="1" stop-color="#82E672" stop-opacity="0"/>
<stop offset="1" stop-color="#3FD3B1"/>
</linearGradient>
</defs>
</svg>
