<svg width="282" height="231" viewBox="0 0 282 231" fill="none" xmlns="http://www.w3.org/2000/svg">
<rect y="0.5" width="281.035" height="229.895" rx="40" fill="white" fill-opacity="0.1"/>
<path d="M30.7891 115.433V111.641H34.6451V115.433H30.7891ZM30.7891 89.833V86.041H34.6451V89.833H30.7891ZM32.8051 112.729C31.1838 112.729 29.7331 112.43 28.4531 111.833C27.1731 111.236 26.1224 110.393 25.3011 109.305C24.4904 108.217 23.9731 106.926 23.7491 105.433L27.5571 104.825C27.8558 106.137 28.4958 107.182 29.4771 107.961C30.4691 108.729 31.6531 109.113 33.0291 109.113C34.3518 109.113 35.4398 108.804 36.2931 108.185C37.1464 107.556 37.5731 106.761 37.5731 105.801C37.5731 105.129 37.3704 104.585 36.9651 104.169C36.5598 103.742 35.9091 103.39 35.0131 103.113L29.4611 101.385C26.2291 100.382 24.6131 98.4197 24.6131 95.497C24.6131 94.1317 24.9384 92.9424 25.5891 91.929C26.2504 90.905 27.1784 90.121 28.3731 89.577C29.5678 89.0224 30.9758 88.7504 32.5971 88.761C34.1011 88.7717 35.4398 89.0437 36.6131 89.577C37.7971 90.1104 38.7784 90.8784 39.5571 91.881C40.3464 92.8837 40.9064 94.089 41.2371 95.497L37.2851 96.217C37.1358 95.4597 36.8424 94.793 36.4051 94.217C35.9678 93.641 35.4184 93.193 34.7571 92.873C34.0958 92.553 33.3598 92.3824 32.5491 92.361C31.7704 92.3504 31.0718 92.473 30.4531 92.729C29.8344 92.9744 29.3438 93.3264 28.9811 93.785C28.6184 94.233 28.4371 94.7397 28.4371 95.305C28.4371 95.9344 28.6878 96.473 29.1891 96.921C29.7011 97.369 30.5064 97.753 31.6051 98.073L35.7491 99.273C37.7438 99.849 39.1784 100.633 40.0531 101.625C40.9384 102.606 41.3811 103.913 41.3811 105.545C41.3811 106.974 41.0238 108.228 40.3091 109.305C39.5944 110.382 38.5918 111.225 37.3011 111.833C36.0104 112.43 34.5118 112.729 32.8051 112.729ZM51.6828 112.729C50.5095 112.729 49.4162 112.489 48.4028 112.009C47.3895 111.518 46.5148 110.846 45.7788 109.993C45.0535 109.14 44.5308 108.148 44.2108 107.017L47.9228 106.025C48.0722 106.644 48.3442 107.177 48.7388 107.625C49.1442 108.073 49.6135 108.42 50.1468 108.665C50.6908 108.91 51.2508 109.033 51.8268 109.033C52.5735 109.033 53.2562 108.852 53.8748 108.489C54.4935 108.126 54.9842 107.641 55.3468 107.033C55.7095 106.414 55.8908 105.732 55.8908 104.985C55.8908 104.238 55.7042 103.561 55.3308 102.953C54.9682 102.334 54.4775 101.849 53.8588 101.497C53.2402 101.134 52.5628 100.953 51.8268 100.953C50.9415 100.953 50.2055 101.113 49.6188 101.433C49.0428 101.753 48.6002 102.094 48.2908 102.457L44.9948 101.401L45.6988 89.209H58.2108V92.825H47.7628L49.2028 91.465L48.6908 99.945L47.9868 99.081C48.5842 98.537 49.2775 98.1317 50.0668 97.865C50.8562 97.5984 51.6188 97.465 52.3548 97.465C53.7948 97.465 55.0695 97.7957 56.1788 98.457C57.2988 99.1077 58.1735 99.9984 58.8028 101.129C59.4428 102.26 59.7628 103.545 59.7628 104.985C59.7628 106.425 59.3895 107.732 58.6428 108.905C57.8962 110.068 56.9095 110.996 55.6828 111.689C54.4668 112.382 53.1335 112.729 51.6828 112.729ZM64.2408 112.249V108.297H68.1928V112.249H64.2408ZM80.7596 88.761C82.2636 88.761 83.6183 89.1184 84.8236 89.833C86.0289 90.537 86.9783 91.5184 87.6716 92.777C88.3756 94.025 88.7276 95.465 88.7276 97.097V104.121C88.7276 105.86 88.3756 107.38 87.6716 108.681C86.9783 109.972 86.0023 110.969 84.7436 111.673C83.4849 112.377 82.0129 112.729 80.3276 112.729C79.1649 112.729 78.0663 112.532 77.0316 112.137C75.9969 111.732 75.0689 111.113 74.2476 110.281L77.0156 107.577C77.4316 108.057 77.9276 108.436 78.5036 108.713C79.0903 108.98 79.6983 109.113 80.3276 109.113C81.2236 109.113 82.0076 108.905 82.6796 108.489C83.3516 108.062 83.8743 107.513 84.2476 106.841C84.6209 106.158 84.8076 105.428 84.8076 104.649V100.825L85.4956 101.593C84.8449 102.361 84.0556 102.964 83.1276 103.401C82.1996 103.828 81.2236 104.041 80.1996 104.041C78.7596 104.041 77.4796 103.71 76.3596 103.049C75.2503 102.388 74.3756 101.492 73.7356 100.361C73.1063 99.2197 72.7916 97.929 72.7916 96.489C72.7916 95.049 73.1543 93.7477 73.8796 92.585C74.6049 91.4117 75.5703 90.4837 76.7756 89.801C77.9916 89.1077 79.3196 88.761 80.7596 88.761ZM80.7596 92.441C80.0129 92.441 79.3303 92.6224 78.7116 92.985C78.0929 93.3477 77.6023 93.8384 77.2396 94.457C76.8769 95.065 76.6956 95.7424 76.6956 96.489C76.6956 97.2357 76.8716 97.9184 77.2236 98.537C77.5863 99.1557 78.0716 99.6464 78.6796 100.009C79.2983 100.372 79.9809 100.553 80.7276 100.553C81.4743 100.553 82.1569 100.372 82.7756 100.009C83.3943 99.6464 83.8849 99.1557 84.2476 98.537C84.6209 97.9184 84.8076 97.2357 84.8076 96.489C84.8076 95.7637 84.6263 95.097 84.2636 94.489C83.9009 93.8704 83.4103 93.3744 82.7916 93.001C82.1836 92.6277 81.5063 92.441 80.7596 92.441ZM93.1946 112.249V89.209H96.6666L104.635 105.529L112.603 89.209H116.075V112.249H112.475V97.481L105.403 112.249H103.867L96.8106 97.481V112.249H93.1946Z" fill="white"/>
<rect x="169.517" y="84.749" width="94" height="31" rx="4" fill="#3FD3B1"/>
<path d="M182.537 105.099V101.279H178.717V99.809H182.537V95.999H184.007V99.809H187.817V101.279H184.007V105.099H182.537ZM192.931 107.749V95.319L190.221 96.959V94.969L192.931 93.349H194.741V107.749H192.931ZM202.806 108.049C202.066 108.049 201.376 107.896 200.736 107.589C200.103 107.282 199.559 106.862 199.106 106.329C198.659 105.789 198.339 105.169 198.146 104.469L199.856 104.009C199.976 104.482 200.189 104.892 200.496 105.239C200.803 105.579 201.159 105.846 201.566 106.039C201.979 106.226 202.409 106.319 202.856 106.319C203.443 106.319 203.969 106.179 204.436 105.899C204.909 105.612 205.283 105.236 205.556 104.769C205.829 104.296 205.966 103.779 205.966 103.219C205.966 102.639 205.823 102.116 205.536 101.649C205.256 101.176 204.879 100.802 204.406 100.529C203.933 100.256 203.416 100.119 202.856 100.119C202.223 100.119 201.679 100.252 201.226 100.519C200.779 100.779 200.426 101.099 200.166 101.479L198.586 100.879L199.026 93.349H206.756V95.039H199.886L200.676 94.299L200.306 100.329L199.916 99.819C200.316 99.3924 200.793 99.0624 201.346 98.829C201.906 98.5957 202.476 98.479 203.056 98.479C203.949 98.479 204.749 98.689 205.456 99.109C206.163 99.5224 206.723 100.089 207.136 100.809C207.549 101.522 207.756 102.326 207.756 103.219C207.756 104.106 207.529 104.916 207.076 105.649C206.623 106.376 206.019 106.959 205.266 107.399C204.519 107.832 203.699 108.049 202.806 108.049ZM210.468 107.749V105.789H212.428V107.749H210.468ZM220.448 108.049C219.535 108.049 218.705 107.829 217.958 107.389C217.218 106.949 216.628 106.349 216.188 105.589C215.755 104.822 215.538 103.959 215.538 102.999V98.209C215.538 97.2024 215.755 96.3124 216.188 95.539C216.628 94.759 217.228 94.1524 217.988 93.719C218.755 93.279 219.628 93.059 220.608 93.059C221.402 93.059 222.138 93.2224 222.818 93.549C223.505 93.869 224.082 94.3324 224.548 94.939L223.218 96.119C222.932 95.699 222.558 95.3657 222.098 95.119C221.638 94.8724 221.142 94.749 220.608 94.749C219.975 94.749 219.412 94.9024 218.918 95.209C218.432 95.509 218.048 95.909 217.768 96.409C217.488 96.9024 217.348 97.4357 217.348 98.009V100.899L216.958 100.459C217.378 99.859 217.912 99.379 218.558 99.019C219.205 98.659 219.905 98.479 220.658 98.479C221.552 98.479 222.352 98.689 223.058 99.109C223.772 99.529 224.332 100.099 224.738 100.819C225.152 101.532 225.358 102.336 225.358 103.229C225.358 104.122 225.135 104.932 224.688 105.659C224.242 106.386 223.645 106.966 222.898 107.399C222.158 107.832 221.342 108.049 220.448 108.049ZM220.448 106.329C221.022 106.329 221.545 106.192 222.018 105.919C222.492 105.639 222.865 105.266 223.138 104.799C223.418 104.326 223.558 103.802 223.558 103.229C223.558 102.656 223.418 102.132 223.138 101.659C222.865 101.186 222.492 100.812 222.018 100.539C221.552 100.259 221.032 100.119 220.458 100.119C219.885 100.119 219.362 100.259 218.888 100.539C218.422 100.812 218.048 101.186 217.768 101.659C217.488 102.132 217.348 102.656 217.348 103.229C217.348 103.796 217.485 104.316 217.758 104.789C218.038 105.256 218.412 105.629 218.878 105.909C219.352 106.189 219.875 106.329 220.448 106.329ZM229.56 107.749L228.36 106.549L241.58 93.349L242.78 94.549L229.56 107.749ZM239.78 108.049C239.12 108.049 238.517 107.889 237.97 107.569C237.43 107.242 236.997 106.809 236.67 106.269C236.343 105.722 236.18 105.116 236.18 104.449C236.18 103.796 236.347 103.196 236.68 102.649C237.013 102.102 237.453 101.666 238 101.339C238.547 101.012 239.14 100.849 239.78 100.849C240.44 100.849 241.043 101.012 241.59 101.339C242.137 101.659 242.57 102.092 242.89 102.639C243.217 103.179 243.38 103.782 243.38 104.449C243.38 105.116 243.217 105.722 242.89 106.269C242.57 106.809 242.137 107.242 241.59 107.569C241.043 107.889 240.44 108.049 239.78 108.049ZM239.78 106.479C240.147 106.479 240.483 106.386 240.79 106.199C241.103 106.012 241.35 105.766 241.53 105.459C241.717 105.152 241.81 104.816 241.81 104.449C241.81 104.082 241.717 103.746 241.53 103.439C241.35 103.126 241.103 102.879 240.79 102.699C240.483 102.512 240.147 102.419 239.78 102.419C239.413 102.419 239.077 102.512 238.77 102.699C238.463 102.879 238.217 103.126 238.03 103.439C237.843 103.746 237.75 104.082 237.75 104.449C237.75 104.816 237.843 105.152 238.03 105.459C238.217 105.766 238.463 106.012 238.77 106.199C239.077 106.386 239.413 106.479 239.78 106.479ZM231.36 100.249C230.7 100.249 230.097 100.089 229.55 99.769C229.003 99.4424 228.567 99.009 228.24 98.469C227.92 97.9224 227.76 97.3157 227.76 96.649C227.76 95.9957 227.927 95.3957 228.26 94.849C228.593 94.3024 229.033 93.8657 229.58 93.539C230.127 93.2124 230.72 93.049 231.36 93.049C232.02 93.049 232.62 93.2124 233.16 93.539C233.707 93.859 234.143 94.2924 234.47 94.839C234.797 95.379 234.96 95.9824 234.96 96.649C234.96 97.3157 234.797 97.9224 234.47 98.469C234.143 99.009 233.707 99.4424 233.16 99.769C232.62 100.089 232.02 100.249 231.36 100.249ZM231.36 98.679C231.727 98.679 232.063 98.5857 232.37 98.399C232.683 98.2124 232.93 97.9657 233.11 97.659C233.297 97.3524 233.39 97.0157 233.39 96.649C233.39 96.2824 233.297 95.9457 233.11 95.639C232.93 95.3257 232.683 95.079 232.37 94.899C232.063 94.7124 231.727 94.619 231.36 94.619C230.993 94.619 230.657 94.7124 230.35 94.899C230.043 95.079 229.797 95.3257 229.61 95.639C229.423 95.9457 229.33 96.2824 229.33 96.649C229.33 97.0157 229.423 97.3524 229.61 97.659C229.797 97.9657 230.043 98.2124 230.35 98.399C230.657 98.5857 230.993 98.679 231.36 98.679Z" fill="white"/>
<path d="M249.997 98.0588L252.993 95.0621C253.171 94.8847 253.448 94.8685 253.644 95.0134L253.7 95.0617L256.703 98.0584C256.899 98.2535 256.899 98.5701 256.704 98.7655C256.527 98.9433 256.249 98.9597 256.053 98.8146L255.997 98.7663L253.848 96.6217L253.849 105.086C253.849 105.339 253.661 105.548 253.417 105.581L253.349 105.586C253.096 105.586 252.887 105.398 252.853 105.153L252.849 105.086L252.848 96.6204L250.704 98.7659C250.527 98.9434 250.249 98.9596 250.053 98.8143L249.997 98.7659C249.819 98.5884 249.803 98.3106 249.948 98.1149L249.997 98.0588Z" fill="white"/>
<path d="M24.4471 58.749V41.469H31.5871C31.7551 41.469 31.9711 41.477 32.2351 41.493C32.4991 41.501 32.7431 41.525 32.9671 41.565C33.9671 41.717 34.7911 42.049 35.4391 42.561C36.0951 43.073 36.5791 43.721 36.8911 44.505C37.2111 45.281 37.3711 46.145 37.3711 47.097C37.3711 48.505 37.0151 49.717 36.3031 50.733C35.5911 51.741 34.4991 52.365 33.0271 52.605L31.7911 52.713H27.3391V58.749H24.4471ZM34.3711 58.749L30.9631 51.717L33.9031 51.069L37.6471 58.749H34.3711ZM27.3391 50.013H31.4671C31.6271 50.013 31.8071 50.005 32.0071 49.989C32.2071 49.973 32.3911 49.941 32.5591 49.893C33.0391 49.773 33.4151 49.561 33.6871 49.257C33.9671 48.953 34.1631 48.609 34.2751 48.225C34.3951 47.841 34.4551 47.465 34.4551 47.097C34.4551 46.729 34.3951 46.353 34.2751 45.969C34.1631 45.577 33.9671 45.229 33.6871 44.925C33.4151 44.621 33.0391 44.409 32.5591 44.289C32.3911 44.241 32.2071 44.213 32.0071 44.205C31.8071 44.189 31.6271 44.181 31.4671 44.181H27.3391V50.013ZM46.1828 59.109C44.8708 59.109 43.7188 58.825 42.7268 58.257C41.7348 57.689 40.9588 56.901 40.3988 55.893C39.8468 54.885 39.5708 53.725 39.5708 52.413C39.5708 50.997 39.8428 49.769 40.3868 48.729C40.9308 47.681 41.6868 46.869 42.6548 46.293C43.6228 45.717 44.7428 45.429 46.0148 45.429C47.3588 45.429 48.4988 45.745 49.4348 46.377C50.3788 47.001 51.0788 47.885 51.5348 49.029C51.9908 50.173 52.1628 51.521 52.0508 53.073H49.1828V52.017C49.1748 50.609 48.9268 49.581 48.4388 48.933C47.9508 48.285 47.1828 47.961 46.1348 47.961C44.9508 47.961 44.0708 48.329 43.4948 49.065C42.9188 49.793 42.6308 50.861 42.6308 52.269C42.6308 53.581 42.9188 54.597 43.4948 55.317C44.0708 56.037 44.9108 56.397 46.0148 56.397C46.7268 56.397 47.3388 56.241 47.8508 55.929C48.3708 55.609 48.7708 55.149 49.0508 54.549L51.9068 55.413C51.4108 56.581 50.6428 57.489 49.6028 58.137C48.5708 58.785 47.4308 59.109 46.1828 59.109ZM41.7188 53.073V50.889H50.6348V53.073H41.7188ZM57.7636 58.749L53.0596 45.789H55.9516L59.2156 55.185L62.4676 45.789H65.3716L60.6676 58.749H57.7636ZM72.9485 59.109C71.6365 59.109 70.4845 58.825 69.4925 58.257C68.5005 57.689 67.7245 56.901 67.1645 55.893C66.6125 54.885 66.3365 53.725 66.3365 52.413C66.3365 50.997 66.6085 49.769 67.1525 48.729C67.6965 47.681 68.4525 46.869 69.4205 46.293C70.3885 45.717 71.5085 45.429 72.7805 45.429C74.1245 45.429 75.2645 45.745 76.2005 46.377C77.1445 47.001 77.8445 47.885 78.3005 49.029C78.7565 50.173 78.9285 51.521 78.8165 53.073H75.9485V52.017C75.9405 50.609 75.6925 49.581 75.2045 48.933C74.7165 48.285 73.9485 47.961 72.9005 47.961C71.7165 47.961 70.8365 48.329 70.2605 49.065C69.6845 49.793 69.3965 50.861 69.3965 52.269C69.3965 53.581 69.6845 54.597 70.2605 55.317C70.8365 56.037 71.6765 56.397 72.7805 56.397C73.4925 56.397 74.1045 56.241 74.6165 55.929C75.1365 55.609 75.5365 55.149 75.8165 54.549L78.6725 55.413C78.1765 56.581 77.4085 57.489 76.3685 58.137C75.3365 58.785 74.1965 59.109 72.9485 59.109ZM68.4845 53.073V50.889H77.4005V53.073H68.4845ZM90.1064 58.749V52.509C90.1064 52.101 90.0784 51.649 90.0224 51.153C89.9664 50.657 89.8344 50.181 89.6264 49.725C89.4264 49.261 89.1224 48.881 88.7144 48.585C88.3144 48.289 87.7704 48.141 87.0824 48.141C86.7144 48.141 86.3504 48.201 85.9904 48.321C85.6304 48.441 85.3024 48.649 85.0064 48.945C84.7184 49.233 84.4864 49.633 84.3104 50.145C84.1344 50.649 84.0464 51.297 84.0464 52.089L82.3304 51.357C82.3304 50.253 82.5424 49.253 82.9664 48.357C83.3984 47.461 84.0304 46.749 84.8624 46.221C85.6944 45.685 86.7184 45.417 87.9344 45.417C88.8944 45.417 89.6864 45.577 90.3104 45.897C90.9344 46.217 91.4304 46.625 91.7984 47.121C92.1664 47.617 92.4384 48.145 92.6144 48.705C92.7904 49.265 92.9024 49.797 92.9504 50.301C93.0064 50.797 93.0344 51.201 93.0344 51.513V58.749H90.1064ZM81.1184 58.749V45.789H83.6984V49.809H84.0464V58.749H81.1184ZM101.026 59.121C100.066 59.121 99.2738 58.961 98.6498 58.641C98.0258 58.321 97.5298 57.913 97.1618 57.417C96.7938 56.921 96.5218 56.393 96.3458 55.833C96.1698 55.273 96.0538 54.745 95.9978 54.249C95.9498 53.745 95.9258 53.337 95.9258 53.025V45.789H98.8538V52.029C98.8538 52.429 98.8818 52.881 98.9378 53.385C98.9938 53.881 99.1218 54.361 99.3218 54.825C99.5298 55.281 99.8338 55.657 100.234 55.953C100.642 56.249 101.19 56.397 101.878 56.397C102.246 56.397 102.61 56.337 102.97 56.217C103.33 56.097 103.654 55.893 103.942 55.605C104.238 55.309 104.474 54.905 104.65 54.393C104.826 53.881 104.914 53.233 104.914 52.449L106.63 53.181C106.63 54.285 106.414 55.285 105.982 56.181C105.558 57.077 104.93 57.793 104.098 58.329C103.266 58.857 102.242 59.121 101.026 59.121ZM105.262 58.749V54.729H104.914V45.789H107.818V58.749H105.262ZM117.081 59.109C115.769 59.109 114.617 58.825 113.625 58.257C112.633 57.689 111.857 56.901 111.297 55.893C110.745 54.885 110.469 53.725 110.469 52.413C110.469 50.997 110.741 49.769 111.285 48.729C111.829 47.681 112.585 46.869 113.553 46.293C114.521 45.717 115.641 45.429 116.913 45.429C118.257 45.429 119.397 45.745 120.333 46.377C121.277 47.001 121.977 47.885 122.433 49.029C122.889 50.173 123.061 51.521 122.949 53.073H120.081V52.017C120.073 50.609 119.825 49.581 119.337 48.933C118.849 48.285 118.081 47.961 117.033 47.961C115.849 47.961 114.969 48.329 114.393 49.065C113.817 49.793 113.529 50.861 113.529 52.269C113.529 53.581 113.817 54.597 114.393 55.317C114.969 56.037 115.809 56.397 116.913 56.397C117.625 56.397 118.237 56.241 118.749 55.929C119.269 55.609 119.669 55.149 119.949 54.549L122.805 55.413C122.309 56.581 121.541 57.489 120.501 58.137C119.469 58.785 118.329 59.109 117.081 59.109ZM112.617 53.073V50.889H121.533V53.073H112.617Z" fill="white"/>
<path d="M247.517 49.249C247.517 50.2155 246.734 50.999 245.767 50.999C244.801 50.999 244.017 50.2155 244.017 49.249C244.017 48.2825 244.801 47.499 245.767 47.499C246.734 47.499 247.517 48.2825 247.517 49.249ZM253.517 49.249C253.517 50.2155 252.734 50.999 251.767 50.999C250.801 50.999 250.017 50.2155 250.017 49.249C250.017 48.2825 250.801 47.499 251.767 47.499C252.734 47.499 253.517 48.2825 253.517 49.249ZM257.767 50.999C258.734 50.999 259.517 50.2155 259.517 49.249C259.517 48.2825 258.734 47.499 257.767 47.499C256.801 47.499 256.017 48.2825 256.017 49.249C256.017 50.2155 256.801 50.999 257.767 50.999Z" fill="white" fill-opacity="0.5"/>
<path d="M26.7838 168.746L22.7671 166.853V222.858H263.767V134.749L259.75 134.926C255.734 135.102 247.7 135.455 239.667 137.645C231.634 139.834 223.6 143.86 215.567 148.758C207.534 153.657 199.5 159.428 191.467 159.772C183.434 160.116 175.4 155.033 167.367 156.643C159.334 158.253 151.3 166.557 143.267 170.192C135.234 173.827 127.2 172.793 119.167 172.715C111.134 172.637 103.1 173.517 95.0671 168.644C87.0338 163.771 79.0004 153.147 70.9671 153.783C62.9338 154.419 54.9004 166.315 46.8671 170.37C38.8338 174.425 30.8004 170.639 26.7838 168.746Z" fill="url(#paint0_linear_548_187)"/>
<path d="M22.5171 166.977L26.5379 168.878C30.5588 170.778 38.6004 174.579 46.6421 170.508C54.6838 166.437 62.7254 154.495 70.7671 153.857C78.8088 153.218 86.8504 163.884 94.8921 168.775C102.934 173.667 110.975 172.784 119.017 172.862C127.059 172.94 135.1 173.978 143.142 170.329C151.184 166.68 159.225 158.344 167.267 156.728C175.309 155.111 183.35 160.214 191.392 159.869C199.434 159.524 207.475 153.73 215.517 148.812C223.559 143.895 231.6 139.854 239.642 137.656C247.684 135.458 255.725 135.103 259.746 134.926L263.767 134.749" stroke="#3FD3B1" stroke-width="1.5"/>
<defs>
<linearGradient id="paint0_linear_548_187" x1="143.267" y1="134.749" x2="143.267" y2="213.84" gradientUnits="userSpaceOnUse">
<stop stop-color="#3FD3B1" stop-opacity="0.2"/>
<stop offset="1" stop-color="#82E672" stop-opacity="0"/>
<stop offset="1" stop-color="#3FD3B1"/>
</linearGradient>
</defs>
</svg>
