<svg width="532" height="476" viewBox="0 0 532 476" fill="none" xmlns="http://www.w3.org/2000/svg">
<rect x="0.422104" y="0.324951" width="531.236" height="475.278" rx="40" fill="white" fill-opacity="0.1"/>
<path d="M92.9554 88.7785C92.195 86.7044 93.2575 84.397 95.3649 83.7343C107.725 79.8474 120.824 78.8124 133.674 80.7302C147.844 82.8451 161.256 88.4832 172.681 97.1277C184.106 105.772 193.178 117.146 199.066 130.208C204.953 143.269 207.468 157.599 206.379 171.884C205.29 186.17 200.633 199.953 192.834 211.971C185.035 223.989 174.343 233.857 161.74 240.67C149.137 247.483 135.025 251.023 120.698 250.966C107.707 250.914 94.9154 247.906 83.2872 242.191C81.3046 241.216 80.604 238.774 81.67 236.839L87.8951 225.54C88.9611 223.605 91.3891 222.913 93.3862 223.858C101.938 227.902 111.289 230.028 120.782 230.066C131.61 230.109 142.275 227.433 151.801 222.284C161.326 217.135 169.407 209.677 175.302 200.594C181.196 191.51 184.716 181.093 185.539 170.296C186.362 159.499 184.462 148.668 180.012 138.797C175.562 128.925 168.705 120.328 160.07 113.795C151.435 107.261 141.298 103 130.589 101.402C121.2 100 111.635 100.685 102.569 103.386C100.452 104.017 98.1565 102.965 97.396 100.891L92.9554 88.7785Z" fill="url(#paint0_linear_726_154)"/>
<path d="M75.4584 233.048C74.2242 234.88 71.732 235.372 69.9594 234.054C59.1061 225.981 50.3045 215.438 44.2987 203.276C37.7016 189.917 34.7064 175.066 35.6094 160.194C36.5123 145.322 41.2821 130.943 49.447 118.48C56.8801 107.133 66.8926 97.7325 78.6429 91.0322C80.5619 89.9379 82.9762 90.7281 83.9797 92.6961L89.8395 104.189C90.8429 106.157 90.0535 108.555 88.1512 109.678C79.635 114.706 72.3688 121.631 66.9298 129.933C60.7588 139.353 57.1538 150.22 56.4713 161.461C55.7889 172.701 58.0526 183.925 63.0387 194.022C67.4333 202.921 73.8084 210.674 81.6538 216.695C83.4062 218.04 83.8997 220.516 82.6655 222.349L75.4584 233.048Z" fill="url(#paint1_linear_726_154)"/>
<path d="M80.2438 177.269V174.425H83.1358V177.269H80.2438ZM80.2438 158.069V155.225H83.1358V158.069H80.2438ZM81.7558 175.241C80.5398 175.241 79.4518 175.017 78.4918 174.569C77.5318 174.121 76.7438 173.489 76.1278 172.673C75.5198 171.857 75.1318 170.889 74.9638 169.769L77.8198 169.313C78.0438 170.297 78.5238 171.081 79.2598 171.665C80.0038 172.241 80.8918 172.529 81.9238 172.529C82.9158 172.529 83.7318 172.297 84.3718 171.833C85.0118 171.361 85.3318 170.765 85.3318 170.045C85.3318 169.541 85.1798 169.133 84.8758 168.821C84.5718 168.501 84.0838 168.237 83.4118 168.029L79.2478 166.733C76.8238 165.981 75.6118 164.509 75.6118 162.317C75.6118 161.293 75.8558 160.401 76.3438 159.641C76.8398 158.873 77.5358 158.285 78.4318 157.877C79.3278 157.461 80.3838 157.257 81.5998 157.265C82.7278 157.273 83.7318 157.477 84.6118 157.877C85.4998 158.277 86.2358 158.853 86.8198 159.605C87.4118 160.357 87.8318 161.261 88.0798 162.317L85.1158 162.857C85.0038 162.289 84.7838 161.789 84.4558 161.357C84.1278 160.925 83.7158 160.589 83.2198 160.349C82.7238 160.109 82.1718 159.981 81.5638 159.965C80.9798 159.957 80.4558 160.049 79.9918 160.241C79.5278 160.425 79.1598 160.689 78.8878 161.033C78.6158 161.369 78.4798 161.749 78.4798 162.173C78.4798 162.645 78.6678 163.049 79.0438 163.385C79.4278 163.721 80.0318 164.009 80.8558 164.249L83.9638 165.149C85.4598 165.581 86.5358 166.169 87.1918 166.913C87.8558 167.649 88.1878 168.629 88.1878 169.853C88.1878 170.925 87.9198 171.865 87.3838 172.673C86.8478 173.481 86.0958 174.113 85.1278 174.569C84.1598 175.017 83.0358 175.241 81.7558 175.241ZM101.811 175.241C100.587 175.241 99.5068 174.981 98.5708 174.461C97.6348 173.933 96.9028 173.201 96.3748 172.265C95.8548 171.329 95.5948 170.249 95.5948 169.025V163.457C95.5948 162.233 95.8548 161.153 96.3748 160.217C96.9028 159.281 97.6348 158.553 98.5708 158.033C99.5068 157.505 100.587 157.241 101.811 157.241C103.035 157.241 104.111 157.505 105.039 158.033C105.975 158.553 106.707 159.281 107.235 160.217C107.763 161.153 108.027 162.233 108.027 163.457V169.025C108.027 170.249 107.763 171.329 107.235 172.265C106.707 173.201 105.975 173.933 105.039 174.461C104.111 174.981 103.035 175.241 101.811 175.241ZM101.811 172.493C102.419 172.493 102.971 172.349 103.467 172.061C103.963 171.765 104.355 171.373 104.643 170.885C104.931 170.389 105.075 169.837 105.075 169.229V163.241C105.075 162.625 104.931 162.073 104.643 161.585C104.355 161.089 103.963 160.697 103.467 160.409C102.971 160.113 102.419 159.965 101.811 159.965C101.203 159.965 100.651 160.113 100.155 160.409C99.6588 160.697 99.2668 161.089 98.9788 161.585C98.6908 162.073 98.5468 162.625 98.5468 163.241V169.229C98.5468 169.837 98.6908 170.389 98.9788 170.885C99.2668 171.373 99.6588 171.765 100.155 172.061C100.651 172.349 101.203 172.493 101.811 172.493ZM111.872 174.881V171.917H114.836V174.881H111.872ZM124.333 175.241C123.189 175.241 122.173 175.009 121.285 174.545C120.397 174.081 119.701 173.437 119.197 172.613C118.693 171.789 118.441 170.845 118.441 169.781C118.441 168.829 118.661 167.945 119.101 167.129C119.541 166.313 120.185 165.661 121.033 165.173L120.973 166.097C120.309 165.593 119.793 165.013 119.425 164.357C119.065 163.693 118.885 162.949 118.885 162.125C118.885 161.133 119.117 160.273 119.581 159.545C120.053 158.817 120.697 158.253 121.513 157.853C122.329 157.445 123.269 157.241 124.333 157.241C125.397 157.241 126.337 157.445 127.153 157.853C127.977 158.253 128.621 158.817 129.085 159.545C129.557 160.273 129.793 161.133 129.793 162.125C129.793 162.949 129.617 163.689 129.265 164.345C128.921 165.001 128.397 165.593 127.693 166.121L127.681 165.185C128.513 165.657 129.149 166.305 129.589 167.129C130.037 167.945 130.261 168.829 130.261 169.781C130.261 170.845 130.005 171.789 129.493 172.613C128.989 173.437 128.289 174.081 127.393 174.545C126.505 175.009 125.485 175.241 124.333 175.241ZM124.333 172.517C125.181 172.517 125.869 172.285 126.397 171.821C126.933 171.357 127.201 170.677 127.201 169.781C127.201 168.885 126.937 168.205 126.409 167.741C125.881 167.269 125.189 167.033 124.333 167.033C123.485 167.033 122.801 167.269 122.281 167.741C121.761 168.205 121.501 168.885 121.501 169.781C121.501 170.677 121.761 171.357 122.281 171.821C122.801 172.285 123.485 172.517 124.333 172.517ZM124.333 164.285C125.045 164.285 125.621 164.109 126.061 163.757C126.509 163.397 126.733 162.853 126.733 162.125C126.733 161.397 126.509 160.857 126.061 160.505C125.621 160.145 125.045 159.965 124.333 159.965C123.629 159.965 123.053 160.145 122.605 160.505C122.165 160.857 121.945 161.397 121.945 162.125C121.945 162.853 122.165 163.397 122.605 163.757C123.053 164.109 123.629 164.285 124.333 164.285ZM138.956 157.265C140.084 157.265 141.1 157.533 142.004 158.069C142.908 158.597 143.62 159.333 144.14 160.277C144.668 161.213 144.932 162.293 144.932 163.517V168.785C144.932 170.089 144.668 171.229 144.14 172.205C143.62 173.173 142.888 173.921 141.944 174.449C141 174.977 139.896 175.241 138.632 175.241C137.76 175.241 136.936 175.093 136.16 174.797C135.384 174.493 134.688 174.029 134.072 173.405L136.148 171.377C136.46 171.737 136.832 172.021 137.264 172.229C137.704 172.429 138.16 172.529 138.632 172.529C139.304 172.529 139.892 172.373 140.396 172.061C140.9 171.741 141.292 171.329 141.572 170.825C141.852 170.313 141.992 169.765 141.992 169.181V166.313L142.508 166.889C142.02 167.465 141.428 167.917 140.732 168.245C140.036 168.565 139.304 168.725 138.536 168.725C137.456 168.725 136.496 168.477 135.656 167.981C134.824 167.485 134.168 166.813 133.688 165.965C133.216 165.109 132.98 164.141 132.98 163.061C132.98 161.981 133.252 161.005 133.796 160.133C134.34 159.253 135.064 158.557 135.968 158.045C136.88 157.525 137.876 157.265 138.956 157.265ZM138.956 160.025C138.396 160.025 137.884 160.161 137.42 160.433C136.956 160.705 136.588 161.073 136.316 161.537C136.044 161.993 135.908 162.501 135.908 163.061C135.908 163.621 136.04 164.133 136.304 164.597C136.576 165.061 136.94 165.429 137.396 165.701C137.86 165.973 138.372 166.109 138.932 166.109C139.492 166.109 140.004 165.973 140.468 165.701C140.932 165.429 141.3 165.061 141.572 164.597C141.852 164.133 141.992 163.621 141.992 163.061C141.992 162.517 141.856 162.017 141.584 161.561C141.312 161.097 140.944 160.725 140.48 160.445C140.024 160.165 139.516 160.025 138.956 160.025ZM148.282 174.881V157.601H150.886L156.862 169.841L162.838 157.601H165.442V174.881H162.742V163.805L157.438 174.881H156.286L150.994 163.805V174.881H148.282Z" fill="white"/>
<path d="M36.6179 53.8796V39.8875H31.696V36.9695H45.0788V39.8875H40.157V53.8796H36.6179ZM50.0593 54.1375C48.7859 54.1375 47.6804 53.8757 46.7429 53.3523C45.8054 52.8289 45.0827 52.0789 44.5749 51.1023C44.0671 50.1179 43.8132 48.9421 43.8132 47.575V47.5515C43.8132 46.1921 44.071 45.0242 44.5867 44.0476C45.1023 43.0632 45.8249 42.3093 46.7546 41.7859C47.6921 41.2546 48.7937 40.989 50.0593 40.989C51.3249 40.989 52.4226 41.2546 53.3523 41.7859C54.2898 42.3093 55.0163 43.0593 55.532 44.0359C56.0476 45.0125 56.3054 46.1843 56.3054 47.5515V47.575C56.3054 48.95 56.0515 50.1257 55.5437 51.1023C55.0359 52.0789 54.3132 52.8289 53.3757 53.3523C52.446 53.8757 51.3406 54.1375 50.0593 54.1375ZM50.071 51.4539C50.6413 51.4539 51.1296 51.3015 51.5359 50.9968C51.9499 50.6921 52.2663 50.2507 52.4851 49.6726C52.7117 49.0945 52.8249 48.3953 52.8249 47.575V47.5515C52.8249 46.7312 52.7117 46.032 52.4851 45.4539C52.2585 44.8757 51.9382 44.4343 51.5242 44.1296C51.1101 43.825 50.6218 43.6726 50.0593 43.6726C49.5046 43.6726 49.0163 43.8289 48.5945 44.1414C48.1804 44.446 47.8601 44.8875 47.6335 45.4656C47.407 46.0359 47.2937 46.7312 47.2937 47.5515V47.575C47.2937 48.3953 47.407 49.0945 47.6335 49.6726C47.8601 50.2507 48.1804 50.6921 48.5945 50.9968C49.0085 51.3015 49.5007 51.4539 50.071 51.4539ZM63.3132 54.1023C61.8835 54.1023 60.8327 53.8132 60.1609 53.2351C59.489 52.657 59.1531 51.7039 59.1531 50.3757V43.8367H57.3601V41.2585H59.1531V38.1882H62.6101V41.2585H64.9773V43.8367H62.6101V49.9304C62.6101 50.5085 62.739 50.9187 62.9968 51.1609C63.2624 51.3953 63.6609 51.5125 64.1921 51.5125C64.3562 51.5125 64.4968 51.5085 64.614 51.5007C64.739 51.4851 64.8601 51.4695 64.9773 51.4539V53.9617C64.782 54.0007 64.5437 54.032 64.2624 54.0554C63.9812 54.0867 63.6648 54.1023 63.3132 54.1023ZM70.6492 54.0789C69.8132 54.0789 69.0788 53.9187 68.446 53.5984C67.8132 53.2703 67.3171 52.821 66.9577 52.2507C66.6062 51.6726 66.4304 51.0125 66.4304 50.2703V50.2468C66.4304 49.4812 66.6218 48.8289 67.0046 48.2898C67.3874 47.7429 67.9421 47.3132 68.6687 47.0007C69.4031 46.6804 70.2937 46.489 71.3406 46.4265L76.2156 46.1218V48.2429L71.8562 48.5242C71.1843 48.5632 70.6726 48.7195 70.321 48.9929C69.9773 49.2585 69.8054 49.6179 69.8054 50.071V50.0828C69.8054 50.5515 69.9812 50.9187 70.3327 51.1843C70.6921 51.45 71.1687 51.5828 71.7624 51.5828C72.2781 51.5828 72.7351 51.4812 73.1335 51.2781C73.5398 51.075 73.8601 50.8015 74.0945 50.4578C74.3288 50.1062 74.446 49.7117 74.446 49.2742V45.407C74.446 44.8523 74.2663 44.4148 73.907 44.0945C73.5554 43.7742 73.0398 43.614 72.3601 43.614C71.7273 43.614 71.2195 43.7429 70.8367 44.0007C70.4617 44.2507 70.2273 44.575 70.1335 44.9734L70.1101 45.0789H66.9695L66.9812 44.9382C67.0515 44.1648 67.3132 43.4851 67.7663 42.8992C68.2273 42.3054 68.8562 41.8406 69.6531 41.5046C70.4577 41.1609 71.4109 40.989 72.5124 40.989C73.6062 40.989 74.5515 41.1648 75.3484 41.5164C76.1452 41.8679 76.7624 42.3601 77.1999 42.9929C77.6374 43.6257 77.8562 44.3718 77.8562 45.2312V53.8796H74.446V52.0398H74.3523C74.1179 52.4617 73.8132 52.825 73.4382 53.1296C73.071 53.4343 72.6531 53.6687 72.1843 53.8328C71.7156 53.9968 71.2038 54.0789 70.6492 54.0789ZM80.3523 53.8796V36.8054H83.7742V53.8796H80.3523ZM90.5124 53.8796L96.4187 36.9695H99.5242V40.2742H98.446L94.239 53.8796H90.5124ZM93.6882 49.7781L94.5554 47.1296H102.43L103.298 49.7781H93.6882ZM102.759 53.8796L98.5515 40.2742V36.9695H100.579L106.473 53.8796H102.759ZM113.094 54.1375C111.938 54.1375 110.95 53.9734 110.13 53.6453C109.317 53.3093 108.68 52.8445 108.219 52.2507C107.766 51.657 107.497 50.9695 107.411 50.1882L107.399 50.0945H110.739L110.762 50.1882C110.88 50.6648 111.13 51.0398 111.512 51.3132C111.895 51.5867 112.426 51.7234 113.106 51.7234C113.544 51.7234 113.915 51.6687 114.219 51.5593C114.532 51.45 114.774 51.2976 114.946 51.1023C115.118 50.8992 115.204 50.6609 115.204 50.3875V50.3757C115.204 50.0398 115.079 49.7664 114.829 49.5554C114.579 49.3445 114.141 49.1726 113.516 49.0398L111.384 48.5828C110.571 48.4109 109.891 48.1648 109.344 47.8445C108.798 47.5164 108.387 47.1101 108.114 46.6257C107.848 46.1414 107.716 45.5867 107.716 44.9617V44.95C107.716 44.1453 107.93 43.45 108.36 42.864C108.798 42.2703 109.411 41.8093 110.2 41.4812C110.997 41.1531 111.926 40.989 112.989 40.989C114.106 40.989 115.055 41.1687 115.837 41.5281C116.618 41.8796 117.216 42.3523 117.63 42.946C118.051 43.5398 118.274 44.2 118.298 44.9265L118.309 45.032H115.145L115.134 44.95C115.071 44.5125 114.856 44.1492 114.489 43.8601C114.13 43.5632 113.63 43.4148 112.989 43.4148C112.598 43.4148 112.255 43.4695 111.958 43.5789C111.669 43.6882 111.446 43.8445 111.29 44.0476C111.134 44.2507 111.055 44.489 111.055 44.7625V44.7742C111.055 44.9929 111.11 45.1882 111.219 45.3601C111.329 45.5242 111.509 45.6687 111.759 45.7937C112.009 45.9187 112.344 46.0281 112.766 46.1218L114.911 46.5671C116.223 46.8484 117.169 47.2625 117.747 47.8093C118.333 48.3562 118.626 49.0945 118.626 50.0242V50.0359C118.626 50.864 118.387 51.5867 117.911 52.2039C117.442 52.8132 116.794 53.2898 115.966 53.6335C115.137 53.9695 114.18 54.1375 113.094 54.1375ZM125.634 54.1375C124.477 54.1375 123.489 53.9734 122.669 53.6453C121.856 53.3093 121.219 52.8445 120.759 52.2507C120.305 51.657 120.036 50.9695 119.95 50.1882L119.938 50.0945H123.278L123.301 50.1882C123.419 50.6648 123.669 51.0398 124.051 51.3132C124.434 51.5867 124.966 51.7234 125.645 51.7234C126.083 51.7234 126.454 51.6687 126.759 51.5593C127.071 51.45 127.313 51.2976 127.485 51.1023C127.657 50.8992 127.743 50.6609 127.743 50.3875V50.3757C127.743 50.0398 127.618 49.7664 127.368 49.5554C127.118 49.3445 126.68 49.1726 126.055 49.0398L123.923 48.5828C123.11 48.4109 122.43 48.1648 121.884 47.8445C121.337 47.5164 120.926 47.1101 120.653 46.6257C120.387 46.1414 120.255 45.5867 120.255 44.9617V44.95C120.255 44.1453 120.469 43.45 120.899 42.864C121.337 42.2703 121.95 41.8093 122.739 41.4812C123.536 41.1531 124.466 40.989 125.528 40.989C126.645 40.989 127.594 41.1687 128.376 41.5281C129.157 41.8796 129.755 42.3523 130.169 42.946C130.591 43.5398 130.813 44.2 130.837 44.9265L130.848 45.032H127.684L127.673 44.95C127.61 44.5125 127.395 44.1492 127.028 43.8601C126.669 43.5632 126.169 43.4148 125.528 43.4148C125.137 43.4148 124.794 43.4695 124.497 43.5789C124.208 43.6882 123.985 43.8445 123.829 44.0476C123.673 44.2507 123.594 44.489 123.594 44.7625V44.7742C123.594 44.9929 123.649 45.1882 123.759 45.3601C123.868 45.5242 124.048 45.6687 124.298 45.7937C124.548 45.9187 124.884 46.0281 125.305 46.1218L127.45 46.5671C128.762 46.8484 129.708 47.2625 130.286 47.8093C130.872 48.3562 131.165 49.0945 131.165 50.0242V50.0359C131.165 50.864 130.926 51.5867 130.45 52.2039C129.981 52.8132 129.333 53.2898 128.505 53.6335C127.676 53.9695 126.719 54.1375 125.634 54.1375ZM138.782 54.1375C137.493 54.1375 136.384 53.8757 135.454 53.3523C134.532 52.821 133.821 52.0632 133.321 51.0789C132.821 50.0945 132.571 48.9304 132.571 47.5867V47.575C132.571 46.239 132.817 45.0789 133.309 44.0945C133.809 43.1101 134.512 42.3484 135.419 41.8093C136.333 41.2625 137.407 40.989 138.641 40.989C139.868 40.989 140.93 41.2546 141.829 41.7859C142.727 42.3093 143.419 43.0476 143.903 44.0007C144.395 44.946 144.641 46.0554 144.641 47.3289V48.3835H134.259V46.2273H143.012L141.395 48.2429V46.9187C141.395 46.1765 141.282 45.5554 141.055 45.0554C140.829 44.5554 140.512 44.1804 140.106 43.9304C139.7 43.6804 139.231 43.5554 138.7 43.5554C138.161 43.5554 137.684 43.6843 137.27 43.9421C136.856 44.2 136.532 44.5828 136.298 45.0906C136.063 45.5906 135.946 46.2 135.946 46.9187V48.2546C135.946 48.9578 136.063 49.5593 136.298 50.0593C136.532 50.5515 136.864 50.9304 137.294 51.196C137.731 51.4539 138.251 51.5828 138.852 51.5828C139.321 51.5828 139.727 51.5125 140.071 51.3718C140.423 51.2234 140.704 51.0398 140.915 50.821C141.134 50.5945 141.282 50.3679 141.36 50.1414L141.384 50.071H144.536L144.501 50.2C144.407 50.6531 144.223 51.1101 143.95 51.571C143.684 52.032 143.317 52.4578 142.848 52.8484C142.387 53.239 141.817 53.5515 141.137 53.7859C140.466 54.0203 139.68 54.1375 138.782 54.1375ZM151.649 54.1023C150.219 54.1023 149.169 53.8132 148.497 53.2351C147.825 52.657 147.489 51.7039 147.489 50.3757V43.8367H145.696V41.2585H147.489V38.1882H150.946V41.2585H153.313V43.8367H150.946V49.9304C150.946 50.5085 151.075 50.9187 151.333 51.1609C151.598 51.3953 151.997 51.5125 152.528 51.5125C152.692 51.5125 152.833 51.5085 152.95 51.5007C153.075 51.4851 153.196 51.4695 153.313 51.4539V53.9617C153.118 54.0007 152.88 54.032 152.598 54.0554C152.317 54.0867 152.001 54.1023 151.649 54.1023ZM160.509 54.1375C159.352 54.1375 158.364 53.9734 157.544 53.6453C156.731 53.3093 156.094 52.8445 155.634 52.2507C155.18 51.657 154.911 50.9695 154.825 50.1882L154.813 50.0945H158.153L158.176 50.1882C158.294 50.6648 158.544 51.0398 158.926 51.3132C159.309 51.5867 159.841 51.7234 160.52 51.7234C160.958 51.7234 161.329 51.6687 161.634 51.5593C161.946 51.45 162.188 51.2976 162.36 51.1023C162.532 50.8992 162.618 50.6609 162.618 50.3875V50.3757C162.618 50.0398 162.493 49.7664 162.243 49.5554C161.993 49.3445 161.555 49.1726 160.93 49.0398L158.798 48.5828C157.985 48.4109 157.305 48.1648 156.759 47.8445C156.212 47.5164 155.801 47.1101 155.528 46.6257C155.262 46.1414 155.13 45.5867 155.13 44.9617V44.95C155.13 44.1453 155.344 43.45 155.774 42.864C156.212 42.2703 156.825 41.8093 157.614 41.4812C158.411 41.1531 159.341 40.989 160.403 40.989C161.52 40.989 162.469 41.1687 163.251 41.5281C164.032 41.8796 164.63 42.3523 165.044 42.946C165.466 43.5398 165.688 44.2 165.712 44.9265L165.723 45.032H162.559L162.548 44.95C162.485 44.5125 162.27 44.1492 161.903 43.8601C161.544 43.5632 161.044 43.4148 160.403 43.4148C160.012 43.4148 159.669 43.4695 159.372 43.5789C159.083 43.6882 158.86 43.8445 158.704 44.0476C158.548 44.2507 158.469 44.489 158.469 44.7625V44.7742C158.469 44.9929 158.524 45.1882 158.634 45.3601C158.743 45.5242 158.923 45.6687 159.173 45.7937C159.423 45.9187 159.759 46.0281 160.18 46.1218L162.325 46.5671C163.637 46.8484 164.583 47.2625 165.161 47.8093C165.747 48.3562 166.04 49.0945 166.04 50.0242V50.0359C166.04 50.864 165.801 51.5867 165.325 52.2039C164.856 52.8132 164.208 53.2898 163.38 53.6335C162.551 53.9695 161.594 54.1375 160.509 54.1375Z" fill="white"/>
<path d="M371.244 57.2676V54.4236H374.136V57.2676H371.244ZM371.244 38.0676V35.2236H374.136V38.0676H371.244ZM372.756 55.2396C371.54 55.2396 370.452 55.0156 369.492 54.5676C368.532 54.1196 367.744 53.4876 367.128 52.6716C366.52 51.8556 366.132 50.8876 365.964 49.7676L368.82 49.3116C369.044 50.2956 369.524 51.0796 370.26 51.6636C371.004 52.2396 371.892 52.5276 372.924 52.5276C373.916 52.5276 374.732 52.2956 375.372 51.8316C376.012 51.3596 376.332 50.7636 376.332 50.0436C376.332 49.5396 376.18 49.1316 375.876 48.8196C375.572 48.4996 375.084 48.2356 374.412 48.0276L370.248 46.7316C367.824 45.9796 366.612 44.5076 366.612 42.3156C366.612 41.2916 366.856 40.3996 367.344 39.6396C367.84 38.8716 368.536 38.2836 369.432 37.8756C370.328 37.4596 371.384 37.2556 372.6 37.2636C373.728 37.2716 374.732 37.4756 375.612 37.8756C376.5 38.2756 377.236 38.8516 377.82 39.6036C378.412 40.3556 378.832 41.2596 379.08 42.3156L376.116 42.8556C376.004 42.2876 375.784 41.7876 375.456 41.3556C375.128 40.9236 374.716 40.5876 374.22 40.3476C373.724 40.1076 373.172 39.9796 372.564 39.9636C371.98 39.9556 371.456 40.0476 370.992 40.2396C370.528 40.4236 370.16 40.6876 369.888 41.0316C369.616 41.3676 369.48 41.7476 369.48 42.1716C369.48 42.6436 369.668 43.0476 370.044 43.3836C370.428 43.7196 371.032 44.0076 371.856 44.2476L374.964 45.1476C376.46 45.5796 377.536 46.1676 378.192 46.9116C378.856 47.6476 379.188 48.6276 379.188 49.8516C379.188 50.9236 378.92 51.8636 378.384 52.6716C377.848 53.4796 377.096 54.1116 376.128 54.5676C375.16 55.0156 374.036 55.2396 372.756 55.2396ZM392.247 55.2396C391.103 55.2396 390.087 55.0076 389.199 54.5436C388.311 54.0796 387.615 53.4356 387.111 52.6116C386.607 51.7876 386.355 50.8436 386.355 49.7796C386.355 48.8276 386.575 47.9436 387.015 47.1276C387.455 46.3116 388.099 45.6596 388.947 45.1716L388.887 46.0956C388.223 45.5916 387.707 45.0116 387.339 44.3556C386.979 43.6916 386.799 42.9476 386.799 42.1236C386.799 41.1316 387.031 40.2716 387.495 39.5436C387.967 38.8156 388.611 38.2516 389.427 37.8516C390.243 37.4436 391.183 37.2396 392.247 37.2396C393.311 37.2396 394.251 37.4436 395.067 37.8516C395.891 38.2516 396.535 38.8156 396.999 39.5436C397.471 40.2716 397.707 41.1316 397.707 42.1236C397.707 42.9476 397.531 43.6876 397.179 44.3436C396.835 44.9996 396.311 45.5916 395.607 46.1196L395.595 45.1836C396.427 45.6556 397.063 46.3036 397.503 47.1276C397.951 47.9436 398.175 48.8276 398.175 49.7796C398.175 50.8436 397.919 51.7876 397.407 52.6116C396.903 53.4356 396.203 54.0796 395.307 54.5436C394.419 55.0076 393.399 55.2396 392.247 55.2396ZM392.247 52.5156C393.095 52.5156 393.783 52.2836 394.311 51.8196C394.847 51.3556 395.115 50.6756 395.115 49.7796C395.115 48.8836 394.851 48.2036 394.323 47.7396C393.795 47.2676 393.103 47.0316 392.247 47.0316C391.399 47.0316 390.715 47.2676 390.195 47.7396C389.675 48.2036 389.415 48.8836 389.415 49.7796C389.415 50.6756 389.675 51.3556 390.195 51.8196C390.715 52.2836 391.399 52.5156 392.247 52.5156ZM392.247 44.2836C392.959 44.2836 393.535 44.1076 393.975 43.7556C394.423 43.3956 394.647 42.8516 394.647 42.1236C394.647 41.3956 394.423 40.8556 393.975 40.5036C393.535 40.1436 392.959 39.9636 392.247 39.9636C391.543 39.9636 390.967 40.1436 390.519 40.5036C390.079 40.8556 389.859 41.3956 389.859 42.1236C389.859 42.8516 390.079 43.3956 390.519 43.7556C390.967 44.1076 391.543 44.2836 392.247 44.2836ZM406.87 37.2636C407.998 37.2636 409.014 37.5316 409.918 38.0676C410.822 38.5956 411.534 39.3316 412.054 40.2756C412.582 41.2116 412.846 42.2916 412.846 43.5156V48.7836C412.846 50.0876 412.582 51.2276 412.054 52.2036C411.534 53.1716 410.802 53.9196 409.858 54.4476C408.914 54.9756 407.81 55.2396 406.546 55.2396C405.674 55.2396 404.85 55.0916 404.074 54.7956C403.298 54.4916 402.602 54.0276 401.986 53.4036L404.062 51.3756C404.374 51.7356 404.746 52.0196 405.178 52.2276C405.618 52.4276 406.074 52.5276 406.546 52.5276C407.218 52.5276 407.806 52.3716 408.31 52.0596C408.814 51.7396 409.206 51.3276 409.486 50.8236C409.766 50.3116 409.906 49.7636 409.906 49.1796V46.3116L410.422 46.8876C409.934 47.4636 409.342 47.9156 408.646 48.2436C407.95 48.5636 407.218 48.7236 406.45 48.7236C405.37 48.7236 404.41 48.4756 403.57 47.9796C402.738 47.4836 402.082 46.8116 401.602 45.9636C401.13 45.1076 400.894 44.1396 400.894 43.0596C400.894 41.9796 401.166 41.0036 401.71 40.1316C402.254 39.2516 402.978 38.5556 403.882 38.0436C404.794 37.5236 405.79 37.2636 406.87 37.2636ZM406.87 40.0236C406.31 40.0236 405.798 40.1596 405.334 40.4316C404.87 40.7036 404.502 41.0716 404.23 41.5356C403.958 41.9916 403.822 42.4996 403.822 43.0596C403.822 43.6196 403.954 44.1316 404.218 44.5956C404.49 45.0596 404.854 45.4276 405.31 45.6996C405.774 45.9716 406.286 46.1076 406.846 46.1076C407.406 46.1076 407.918 45.9716 408.382 45.6996C408.846 45.4276 409.214 45.0596 409.486 44.5956C409.766 44.1316 409.906 43.6196 409.906 43.0596C409.906 42.5156 409.77 42.0156 409.498 41.5596C409.226 41.0956 408.858 40.7236 408.394 40.4436C407.938 40.1636 407.43 40.0236 406.87 40.0236ZM422.412 55.2396C421.188 55.2396 420.108 54.9796 419.172 54.4596C418.236 53.9316 417.504 53.1996 416.976 52.2636C416.456 51.3276 416.196 50.2476 416.196 49.0236V43.4556C416.196 42.2316 416.456 41.1516 416.976 40.2156C417.504 39.2796 418.236 38.5516 419.172 38.0316C420.108 37.5036 421.188 37.2396 422.412 37.2396C423.636 37.2396 424.712 37.5036 425.64 38.0316C426.576 38.5516 427.308 39.2796 427.836 40.2156C428.364 41.1516 428.628 42.2316 428.628 43.4556V49.0236C428.628 50.2476 428.364 51.3276 427.836 52.2636C427.308 53.1996 426.576 53.9316 425.64 54.4596C424.712 54.9796 423.636 55.2396 422.412 55.2396ZM422.412 52.4916C423.02 52.4916 423.572 52.3476 424.068 52.0596C424.564 51.7636 424.956 51.3716 425.244 50.8836C425.532 50.3876 425.676 49.8356 425.676 49.2276V43.2396C425.676 42.6236 425.532 42.0716 425.244 41.5836C424.956 41.0876 424.564 40.6956 424.068 40.4076C423.572 40.1116 423.02 39.9636 422.412 39.9636C421.804 39.9636 421.252 40.1116 420.756 40.4076C420.26 40.6956 419.868 41.0876 419.58 41.5836C419.292 42.0716 419.148 42.6236 419.148 43.2396V49.2276C419.148 49.8356 419.292 50.3876 419.58 50.8836C419.868 51.3716 420.26 51.7636 420.756 52.0596C421.252 52.3476 421.804 52.4916 422.412 52.4916ZM431.753 57.9396L431.921 56.6916C432.289 56.7236 432.581 56.6596 432.797 56.4996C433.013 56.3476 433.157 56.1276 433.229 55.8396C433.309 55.5596 433.329 55.2396 433.289 54.8796H431.753V51.7956H434.717V54.9996C434.717 56.0476 434.469 56.8396 433.973 57.3756C433.477 57.9116 432.737 58.0996 431.753 57.9396ZM445.498 55.2396C444.274 55.2396 443.194 54.9796 442.258 54.4596C441.322 53.9316 440.59 53.1996 440.062 52.2636C439.542 51.3276 439.282 50.2476 439.282 49.0236V43.4556C439.282 42.2316 439.542 41.1516 440.062 40.2156C440.59 39.2796 441.322 38.5516 442.258 38.0316C443.194 37.5036 444.274 37.2396 445.498 37.2396C446.722 37.2396 447.798 37.5036 448.726 38.0316C449.662 38.5516 450.394 39.2796 450.922 40.2156C451.45 41.1516 451.714 42.2316 451.714 43.4556V49.0236C451.714 50.2476 451.45 51.3276 450.922 52.2636C450.394 53.1996 449.662 53.9316 448.726 54.4596C447.798 54.9796 446.722 55.2396 445.498 55.2396ZM445.498 52.4916C446.106 52.4916 446.658 52.3476 447.154 52.0596C447.65 51.7636 448.042 51.3716 448.33 50.8836C448.618 50.3876 448.762 49.8356 448.762 49.2276V43.2396C448.762 42.6236 448.618 42.0716 448.33 41.5836C448.042 41.0876 447.65 40.6956 447.154 40.4076C446.658 40.1116 446.106 39.9636 445.498 39.9636C444.89 39.9636 444.338 40.1116 443.842 40.4076C443.346 40.6956 442.954 41.0876 442.666 41.5836C442.378 42.0716 442.234 42.6236 442.234 43.2396V49.2276C442.234 49.8356 442.378 50.3876 442.666 50.8836C442.954 51.3716 443.346 51.7636 443.842 52.0596C444.338 52.3476 444.89 52.4916 445.498 52.4916ZM461.295 55.2396C460.071 55.2396 458.991 54.9796 458.055 54.4596C457.119 53.9316 456.387 53.1996 455.859 52.2636C455.339 51.3276 455.079 50.2476 455.079 49.0236V43.4556C455.079 42.2316 455.339 41.1516 455.859 40.2156C456.387 39.2796 457.119 38.5516 458.055 38.0316C458.991 37.5036 460.071 37.2396 461.295 37.2396C462.519 37.2396 463.595 37.5036 464.523 38.0316C465.459 38.5516 466.191 39.2796 466.719 40.2156C467.247 41.1516 467.511 42.2316 467.511 43.4556V49.0236C467.511 50.2476 467.247 51.3276 466.719 52.2636C466.191 53.1996 465.459 53.9316 464.523 54.4596C463.595 54.9796 462.519 55.2396 461.295 55.2396ZM461.295 52.4916C461.903 52.4916 462.455 52.3476 462.951 52.0596C463.447 51.7636 463.839 51.3716 464.127 50.8836C464.415 50.3876 464.559 49.8356 464.559 49.2276V43.2396C464.559 42.6236 464.415 42.0716 464.127 41.5836C463.839 41.0876 463.447 40.6956 462.951 40.4076C462.455 40.1116 461.903 39.9636 461.295 39.9636C460.687 39.9636 460.135 40.1116 459.639 40.4076C459.143 40.6956 458.751 41.0876 458.463 41.5836C458.175 42.0716 458.031 42.6236 458.031 43.2396V49.2276C458.031 49.8356 458.175 50.3876 458.463 50.8836C458.751 51.3716 459.143 51.7636 459.639 52.0596C460.135 52.3476 460.687 52.4916 461.295 52.4916ZM477.092 55.2396C475.868 55.2396 474.788 54.9796 473.852 54.4596C472.916 53.9316 472.184 53.1996 471.656 52.2636C471.136 51.3276 470.876 50.2476 470.876 49.0236V43.4556C470.876 42.2316 471.136 41.1516 471.656 40.2156C472.184 39.2796 472.916 38.5516 473.852 38.0316C474.788 37.5036 475.868 37.2396 477.092 37.2396C478.316 37.2396 479.392 37.5036 480.32 38.0316C481.256 38.5516 481.988 39.2796 482.516 40.2156C483.044 41.1516 483.308 42.2316 483.308 43.4556V49.0236C483.308 50.2476 483.044 51.3276 482.516 52.2636C481.988 53.1996 481.256 53.9316 480.32 54.4596C479.392 54.9796 478.316 55.2396 477.092 55.2396ZM477.092 52.4916C477.7 52.4916 478.252 52.3476 478.748 52.0596C479.244 51.7636 479.636 51.3716 479.924 50.8836C480.212 50.3876 480.356 49.8356 480.356 49.2276V43.2396C480.356 42.6236 480.212 42.0716 479.924 41.5836C479.636 41.0876 479.244 40.6956 478.748 40.4076C478.252 40.1116 477.7 39.9636 477.092 39.9636C476.484 39.9636 475.932 40.1116 475.436 40.4076C474.94 40.6956 474.548 41.0876 474.26 41.5836C473.972 42.0716 473.828 42.6236 473.828 43.2396V49.2276C473.828 49.8356 473.972 50.3876 474.26 50.8836C474.548 51.3716 474.94 51.7636 475.436 52.0596C475.932 52.3476 476.484 52.4916 477.092 52.4916Z" fill="white"/>
<rect width="12" height="12" rx="4" transform="matrix(0 -1 -1 0 295.04 110.88)" fill="#FFD275"/>
<path d="M310.27 112.68C308.836 112.68 307.626 112.363 306.64 111.73C305.653 111.09 304.906 110.206 304.4 109.08C303.893 107.953 303.64 106.653 303.64 105.18C303.64 103.706 303.893 102.406 304.4 101.28C304.906 100.153 305.653 99.273 306.64 98.6396C307.626 97.9996 308.836 97.6796 310.27 97.6796C311.943 97.6796 313.31 98.1096 314.37 98.9696C315.43 99.823 316.156 100.97 316.55 102.41L315.05 102.8C314.743 101.66 314.193 100.756 313.4 100.09C312.606 99.423 311.563 99.0896 310.27 99.0896C309.143 99.0896 308.206 99.3463 307.46 99.8596C306.713 100.373 306.15 101.09 305.77 102.01C305.396 102.923 305.203 103.98 305.19 105.18C305.183 106.38 305.366 107.436 305.74 108.35C306.12 109.263 306.686 109.98 307.44 110.5C308.2 111.013 309.143 111.27 310.27 111.27C311.563 111.27 312.606 110.936 313.4 110.27C314.193 109.596 314.743 108.693 315.05 107.56L316.55 107.95C316.156 109.39 315.43 110.54 314.37 111.4C313.31 112.253 311.943 112.68 310.27 112.68ZM322.886 112.65C322.24 112.65 321.673 112.55 321.186 112.35C320.706 112.15 320.296 111.88 319.956 111.54C319.623 111.2 319.353 110.813 319.146 110.38C318.94 109.94 318.79 109.476 318.696 108.99C318.603 108.496 318.556 108.006 318.556 107.52V101.58H320.036V107.09C320.036 107.683 320.093 108.233 320.206 108.74C320.32 109.246 320.5 109.69 320.746 110.07C321 110.443 321.323 110.733 321.716 110.94C322.116 111.146 322.6 111.25 323.166 111.25C323.686 111.25 324.143 111.16 324.536 110.98C324.936 110.8 325.27 110.543 325.536 110.21C325.81 109.87 326.016 109.46 326.156 108.98C326.296 108.493 326.366 107.946 326.366 107.34L327.406 107.57C327.406 108.676 327.213 109.606 326.826 110.36C326.44 111.113 325.906 111.683 325.226 112.07C324.546 112.456 323.766 112.65 322.886 112.65ZM326.516 112.38V109.72H326.366V101.58H327.836V112.38H326.516ZM330.631 112.38V101.58H331.951V104.18L331.691 103.84C331.811 103.52 331.968 103.226 332.161 102.96C332.355 102.686 332.565 102.463 332.791 102.29C333.071 102.043 333.398 101.856 333.771 101.73C334.145 101.596 334.521 101.52 334.901 101.5C335.281 101.473 335.628 101.5 335.941 101.58V102.96C335.548 102.86 335.118 102.836 334.651 102.89C334.185 102.943 333.755 103.13 333.361 103.45C333.001 103.73 332.731 104.066 332.551 104.46C332.371 104.846 332.251 105.26 332.191 105.7C332.131 106.133 332.101 106.563 332.101 106.99V112.38H330.631ZM337.838 112.38V101.58H339.158V104.18L338.898 103.84C339.018 103.52 339.175 103.226 339.368 102.96C339.562 102.686 339.772 102.463 339.998 102.29C340.278 102.043 340.605 101.856 340.978 101.73C341.352 101.596 341.728 101.52 342.108 101.5C342.488 101.473 342.835 101.5 343.148 101.58V102.96C342.755 102.86 342.325 102.836 341.858 102.89C341.392 102.943 340.962 103.13 340.568 103.45C340.208 103.73 339.938 104.066 339.758 104.46C339.578 104.846 339.458 105.26 339.398 105.7C339.338 106.133 339.308 106.563 339.308 106.99V112.38H337.838ZM349.42 112.68C348.367 112.68 347.453 112.446 346.68 111.98C345.913 111.513 345.317 110.856 344.89 110.01C344.463 109.163 344.25 108.17 344.25 107.03C344.25 105.85 344.46 104.83 344.88 103.97C345.3 103.11 345.89 102.446 346.65 101.98C347.417 101.513 348.32 101.28 349.36 101.28C350.427 101.28 351.337 101.526 352.09 102.02C352.843 102.506 353.413 103.206 353.8 104.12C354.187 105.033 354.363 106.123 354.33 107.39H352.83V106.87C352.803 105.47 352.5 104.413 351.92 103.7C351.347 102.986 350.507 102.63 349.4 102.63C348.24 102.63 347.35 103.006 346.73 103.76C346.117 104.513 345.81 105.586 345.81 106.98C345.81 108.34 346.117 109.396 346.73 110.15C347.35 110.896 348.227 111.27 349.36 111.27C350.133 111.27 350.807 111.093 351.38 110.74C351.96 110.38 352.417 109.863 352.75 109.19L354.12 109.72C353.693 110.66 353.063 111.39 352.23 111.91C351.403 112.423 350.467 112.68 349.42 112.68ZM345.29 107.39V106.16H353.54V107.39H345.29ZM364.056 112.38V106.87C364.056 106.27 364 105.72 363.886 105.22C363.773 104.713 363.59 104.273 363.336 103.9C363.09 103.52 362.766 103.226 362.366 103.02C361.973 102.813 361.493 102.71 360.926 102.71C360.406 102.71 359.946 102.8 359.546 102.98C359.153 103.16 358.82 103.42 358.546 103.76C358.28 104.093 358.076 104.5 357.936 104.98C357.796 105.46 357.726 106.006 357.726 106.62L356.686 106.39C356.686 105.283 356.88 104.353 357.266 103.6C357.653 102.846 358.186 102.276 358.866 101.89C359.546 101.503 360.326 101.31 361.206 101.31C361.853 101.31 362.416 101.41 362.896 101.61C363.383 101.81 363.793 102.08 364.126 102.42C364.466 102.76 364.74 103.15 364.946 103.59C365.153 104.023 365.303 104.486 365.396 104.98C365.49 105.466 365.536 105.953 365.536 106.44V112.38H364.056ZM356.246 112.38V101.58H357.576V104.24H357.726V112.38H356.246ZM374.011 112.38C373.405 112.506 372.805 112.556 372.211 112.53C371.625 112.503 371.098 112.376 370.631 112.15C370.171 111.923 369.821 111.57 369.581 111.09C369.388 110.69 369.281 110.286 369.261 109.88C369.248 109.466 369.241 108.996 369.241 108.47V98.5796H370.701V108.41C370.701 108.863 370.705 109.243 370.711 109.55C370.725 109.85 370.795 110.116 370.921 110.35C371.161 110.796 371.541 111.063 372.061 111.15C372.588 111.236 373.238 111.216 374.011 111.09V112.38ZM366.931 102.84V101.58H374.011V102.84H366.931ZM379.143 112.38L384.103 97.9796H386.053L391.013 112.38H389.483L384.773 98.7996H385.353L380.673 112.38H379.143ZM381.353 108.89V107.51H388.793V108.89H381.353ZM396.849 112.67C395.582 112.67 394.539 112.396 393.719 111.85C392.905 111.303 392.405 110.543 392.219 109.57L393.719 109.32C393.879 109.933 394.242 110.423 394.809 110.79C395.382 111.15 396.089 111.33 396.929 111.33C397.749 111.33 398.395 111.16 398.869 110.82C399.342 110.473 399.579 110.003 399.579 109.41C399.579 109.076 399.502 108.806 399.349 108.6C399.202 108.386 398.899 108.19 398.439 108.01C397.979 107.83 397.292 107.616 396.379 107.37C395.399 107.103 394.632 106.836 394.079 106.57C393.525 106.303 393.132 105.996 392.899 105.65C392.665 105.296 392.549 104.866 392.549 104.36C392.549 103.746 392.722 103.21 393.069 102.75C393.415 102.283 393.895 101.923 394.509 101.67C395.122 101.41 395.835 101.28 396.649 101.28C397.462 101.28 398.189 101.413 398.829 101.68C399.475 101.94 399.995 102.306 400.389 102.78C400.782 103.253 401.015 103.803 401.089 104.43L399.589 104.7C399.489 104.066 399.172 103.566 398.639 103.2C398.112 102.826 397.442 102.633 396.629 102.62C395.862 102.6 395.239 102.746 394.759 103.06C394.279 103.366 394.039 103.776 394.039 104.29C394.039 104.576 394.125 104.823 394.299 105.03C394.472 105.23 394.785 105.42 395.239 105.6C395.699 105.78 396.352 105.976 397.199 106.19C398.192 106.443 398.972 106.71 399.539 106.99C400.105 107.27 400.509 107.6 400.749 107.98C400.989 108.36 401.109 108.83 401.109 109.39C401.109 110.41 400.729 111.213 399.969 111.8C399.215 112.38 398.175 112.67 396.849 112.67ZM407.356 112.67C406.09 112.67 405.046 112.396 404.226 111.85C403.413 111.303 402.913 110.543 402.726 109.57L404.226 109.32C404.386 109.933 404.75 110.423 405.316 110.79C405.89 111.15 406.596 111.33 407.436 111.33C408.256 111.33 408.903 111.16 409.376 110.82C409.85 110.473 410.086 110.003 410.086 109.41C410.086 109.076 410.01 108.806 409.856 108.6C409.71 108.386 409.406 108.19 408.946 108.01C408.486 107.83 407.8 107.616 406.886 107.37C405.906 107.103 405.14 106.836 404.586 106.57C404.033 106.303 403.64 105.996 403.406 105.65C403.173 105.296 403.056 104.866 403.056 104.36C403.056 103.746 403.23 103.21 403.576 102.75C403.923 102.283 404.403 101.923 405.016 101.67C405.63 101.41 406.343 101.28 407.156 101.28C407.97 101.28 408.696 101.413 409.336 101.68C409.983 101.94 410.503 102.306 410.896 102.78C411.29 103.253 411.523 103.803 411.596 104.43L410.096 104.7C409.996 104.066 409.68 103.566 409.146 103.2C408.62 102.826 407.95 102.633 407.136 102.62C406.37 102.6 405.746 102.746 405.266 103.06C404.786 103.366 404.546 103.776 404.546 104.29C404.546 104.576 404.633 104.823 404.806 105.03C404.98 105.23 405.293 105.42 405.746 105.6C406.206 105.78 406.86 105.976 407.706 106.19C408.7 106.443 409.48 106.71 410.046 106.99C410.613 107.27 411.016 107.6 411.256 107.98C411.496 108.36 411.616 108.83 411.616 109.39C411.616 110.41 411.236 111.213 410.476 111.8C409.723 112.38 408.683 112.67 407.356 112.67ZM418.404 112.68C417.351 112.68 416.438 112.446 415.664 111.98C414.898 111.513 414.301 110.856 413.874 110.01C413.448 109.163 413.234 108.17 413.234 107.03C413.234 105.85 413.444 104.83 413.864 103.97C414.284 103.11 414.874 102.446 415.634 101.98C416.401 101.513 417.304 101.28 418.344 101.28C419.411 101.28 420.321 101.526 421.074 102.02C421.828 102.506 422.398 103.206 422.784 104.12C423.171 105.033 423.348 106.123 423.314 107.39H421.814V106.87C421.788 105.47 421.484 104.413 420.904 103.7C420.331 102.986 419.491 102.63 418.384 102.63C417.224 102.63 416.334 103.006 415.714 103.76C415.101 104.513 414.794 105.586 414.794 106.98C414.794 108.34 415.101 109.396 415.714 110.15C416.334 110.896 417.211 111.27 418.344 111.27C419.118 111.27 419.791 111.093 420.364 110.74C420.944 110.38 421.401 109.863 421.734 109.19L423.104 109.72C422.678 110.66 422.048 111.39 421.214 111.91C420.388 112.423 419.451 112.68 418.404 112.68ZM414.274 107.39V106.16H422.524V107.39H414.274ZM431.414 112.38C430.807 112.506 430.207 112.556 429.614 112.53C429.027 112.503 428.5 112.376 428.034 112.15C427.574 111.923 427.224 111.57 426.984 111.09C426.79 110.69 426.684 110.286 426.664 109.88C426.65 109.466 426.644 108.996 426.644 108.47V98.5796H428.104V108.41C428.104 108.863 428.107 109.243 428.114 109.55C428.127 109.85 428.197 110.116 428.324 110.35C428.564 110.796 428.944 111.063 429.464 111.15C429.99 111.236 430.64 111.216 431.414 111.09V112.38ZM424.334 102.84V101.58H431.414V102.84H424.334ZM437.571 112.67C436.305 112.67 435.261 112.396 434.441 111.85C433.628 111.303 433.128 110.543 432.941 109.57L434.441 109.32C434.601 109.933 434.965 110.423 435.531 110.79C436.105 111.15 436.811 111.33 437.651 111.33C438.471 111.33 439.118 111.16 439.591 110.82C440.065 110.473 440.301 110.003 440.301 109.41C440.301 109.076 440.225 108.806 440.071 108.6C439.925 108.386 439.621 108.19 439.161 108.01C438.701 107.83 438.015 107.616 437.101 107.37C436.121 107.103 435.355 106.836 434.801 106.57C434.248 106.303 433.855 105.996 433.621 105.65C433.388 105.296 433.271 104.866 433.271 104.36C433.271 103.746 433.445 103.21 433.791 102.75C434.138 102.283 434.618 101.923 435.231 101.67C435.845 101.41 436.558 101.28 437.371 101.28C438.185 101.28 438.911 101.413 439.551 101.68C440.198 101.94 440.718 102.306 441.111 102.78C441.505 103.253 441.738 103.803 441.811 104.43L440.311 104.7C440.211 104.066 439.895 103.566 439.361 103.2C438.835 102.826 438.165 102.633 437.351 102.62C436.585 102.6 435.961 102.746 435.481 103.06C435.001 103.366 434.761 103.776 434.761 104.29C434.761 104.576 434.848 104.823 435.021 105.03C435.195 105.23 435.508 105.42 435.961 105.6C436.421 105.78 437.075 105.976 437.921 106.19C438.915 106.443 439.695 106.71 440.261 106.99C440.828 107.27 441.231 107.6 441.471 107.98C441.711 108.36 441.831 108.83 441.831 109.39C441.831 110.41 441.451 111.213 440.691 111.8C439.938 112.38 438.898 112.67 437.571 112.67Z" fill="white"/>
<path d="M307.184 144.972V143.1H308.856V144.972H307.184ZM307.184 132.148V130.268H308.856V132.148H307.184ZM308.104 143.62C307.304 143.62 306.589 143.476 305.96 143.188C305.33 142.9 304.813 142.492 304.408 141.964C304.008 141.43 303.746 140.801 303.624 140.076L305.28 139.812C305.44 140.494 305.781 141.038 306.304 141.444C306.826 141.844 307.453 142.044 308.184 142.044C308.909 142.044 309.498 141.87 309.952 141.524C310.41 141.177 310.64 140.734 310.64 140.196C310.64 139.812 310.522 139.5 310.288 139.26C310.058 139.02 309.682 138.817 309.16 138.652L306.456 137.82C304.856 137.324 304.056 136.364 304.056 134.94C304.056 134.268 304.216 133.684 304.536 133.188C304.861 132.692 305.317 132.308 305.904 132.036C306.49 131.764 307.176 131.628 307.96 131.628C308.712 131.638 309.378 131.777 309.96 132.044C310.546 132.31 311.032 132.694 311.416 133.196C311.805 133.697 312.074 134.3 312.224 135.004L310.52 135.308C310.445 134.897 310.288 134.534 310.048 134.22C309.813 133.905 309.514 133.66 309.152 133.484C308.794 133.308 308.392 133.217 307.944 133.212C307.522 133.201 307.144 133.268 306.808 133.412C306.477 133.55 306.213 133.748 306.016 134.004C305.824 134.254 305.728 134.54 305.728 134.86C305.728 135.212 305.864 135.51 306.136 135.756C306.408 136.001 306.837 136.212 307.424 136.388L309.544 137.004C310.514 137.292 311.216 137.678 311.648 138.164C312.08 138.649 312.296 139.294 312.296 140.1C312.296 140.804 312.12 141.42 311.768 141.948C311.421 142.47 310.933 142.881 310.304 143.18C309.674 143.473 308.941 143.62 308.104 143.62ZM320.623 143.62C320.031 143.62 319.479 143.5 318.967 143.26C318.46 143.014 318.025 142.678 317.663 142.252C317.3 141.82 317.041 141.324 316.887 140.764L318.495 140.332C318.585 140.673 318.74 140.969 318.959 141.22C319.183 141.47 319.444 141.665 319.743 141.804C320.041 141.937 320.351 142.004 320.671 142.004C321.092 142.004 321.473 141.902 321.815 141.7C322.161 141.497 322.433 141.225 322.631 140.884C322.833 140.542 322.935 140.166 322.935 139.756C322.935 139.334 322.831 138.953 322.623 138.612C322.42 138.27 322.145 138.001 321.799 137.804C321.457 137.601 321.081 137.5 320.671 137.5C320.201 137.5 319.804 137.593 319.479 137.78C319.153 137.966 318.9 138.182 318.719 138.428L317.263 137.916L317.615 131.86H323.831V133.436H318.471L319.151 132.804L318.871 137.34L318.543 136.916C318.847 136.612 319.209 136.38 319.631 136.22C320.052 136.06 320.471 135.98 320.887 135.98C321.601 135.98 322.239 136.145 322.799 136.476C323.364 136.806 323.809 137.257 324.135 137.828C324.46 138.393 324.623 139.036 324.623 139.756C324.623 140.47 324.439 141.121 324.071 141.708C323.703 142.289 323.215 142.753 322.607 143.1C321.999 143.446 321.337 143.62 320.623 143.62ZM330.495 143.62C329.748 143.62 329.076 143.444 328.479 143.092C327.881 142.734 327.407 142.246 327.055 141.628C326.708 141.009 326.535 140.305 326.535 139.516V135.844C326.535 135.006 326.708 134.27 327.055 133.636C327.407 133.001 327.892 132.508 328.511 132.156C329.135 131.804 329.852 131.628 330.663 131.628C331.271 131.628 331.841 131.742 332.375 131.972C332.908 132.201 333.369 132.542 333.759 132.996L332.535 134.14C332.316 133.857 332.041 133.633 331.711 133.468C331.385 133.297 331.036 133.212 330.663 133.212C330.183 133.212 329.761 133.326 329.399 133.556C329.036 133.78 328.751 134.076 328.543 134.444C328.34 134.812 328.239 135.206 328.239 135.628V137.74L327.911 137.372C328.241 136.94 328.652 136.598 329.143 136.348C329.633 136.097 330.159 135.972 330.719 135.972C331.433 135.972 332.071 136.14 332.631 136.476C333.196 136.806 333.639 137.257 333.959 137.828C334.284 138.398 334.447 139.041 334.447 139.756C334.447 140.476 334.265 141.129 333.903 141.716C333.545 142.297 333.065 142.761 332.463 143.108C331.865 143.449 331.209 143.62 330.495 143.62ZM330.495 142.012C330.911 142.012 331.289 141.91 331.631 141.708C331.972 141.505 332.244 141.233 332.447 140.892C332.649 140.55 332.751 140.172 332.751 139.756C332.751 139.34 332.649 138.961 332.447 138.62C332.249 138.278 331.98 138.006 331.639 137.804C331.297 137.601 330.919 137.5 330.503 137.5C330.087 137.5 329.705 137.601 329.359 137.804C329.017 138.006 328.745 138.278 328.543 138.62C328.34 138.961 328.239 139.34 328.239 139.756C328.239 140.166 328.34 140.542 328.543 140.884C328.745 141.225 329.017 141.5 329.359 141.708C329.7 141.91 330.079 142.012 330.495 142.012ZM340.488 143.62C339.704 143.62 339.011 143.449 338.408 143.108C337.806 142.761 337.331 142.286 336.984 141.684C336.643 141.081 336.472 140.388 336.472 139.604V135.636C336.472 134.852 336.643 134.158 336.984 133.556C337.331 132.953 337.806 132.481 338.408 132.14C339.011 131.793 339.704 131.62 340.488 131.62C341.272 131.62 341.966 131.793 342.568 132.14C343.171 132.481 343.643 132.953 343.984 133.556C344.331 134.158 344.504 134.852 344.504 135.636V139.604C344.504 140.388 344.331 141.081 343.984 141.684C343.643 142.286 343.171 142.761 342.568 143.108C341.966 143.449 341.272 143.62 340.488 143.62ZM340.488 142.02C340.915 142.02 341.302 141.918 341.648 141.716C342 141.508 342.28 141.23 342.488 140.884C342.696 140.532 342.8 140.14 342.8 139.708V135.516C342.8 135.089 342.696 134.702 342.488 134.356C342.28 134.004 342 133.726 341.648 133.524C341.302 133.316 340.915 133.212 340.488 133.212C340.062 133.212 339.672 133.316 339.32 133.524C338.974 133.726 338.696 134.004 338.488 134.356C338.28 134.702 338.176 135.089 338.176 135.516V139.708C338.176 140.14 338.28 140.532 338.488 140.884C338.696 141.23 338.974 141.508 339.32 141.716C339.672 141.918 340.062 142.02 340.488 142.02ZM346.578 145.292L346.682 144.548C346.911 144.564 347.09 144.521 347.218 144.42C347.346 144.318 347.431 144.177 347.474 143.996C347.517 143.814 347.525 143.609 347.498 143.38H346.578V141.452H348.346V143.54C348.346 144.169 348.194 144.644 347.89 144.964C347.591 145.284 347.154 145.393 346.578 145.292ZM355.395 143.62C354.611 143.62 353.917 143.449 353.315 143.108C352.712 142.761 352.237 142.286 351.891 141.684C351.549 141.081 351.379 140.388 351.379 139.604V135.636C351.379 134.852 351.549 134.158 351.891 133.556C352.237 132.953 352.712 132.481 353.315 132.14C353.917 131.793 354.611 131.62 355.395 131.62C356.179 131.62 356.872 131.793 357.475 132.14C358.077 132.481 358.549 132.953 358.891 133.556C359.237 134.158 359.411 134.852 359.411 135.636V139.604C359.411 140.388 359.237 141.081 358.891 141.684C358.549 142.286 358.077 142.761 357.475 143.108C356.872 143.449 356.179 143.62 355.395 143.62ZM355.395 142.02C355.821 142.02 356.208 141.918 356.555 141.716C356.907 141.508 357.187 141.23 357.395 140.884C357.603 140.532 357.707 140.14 357.707 139.708V135.516C357.707 135.089 357.603 134.702 357.395 134.356C357.187 134.004 356.907 133.726 356.555 133.524C356.208 133.316 355.821 133.212 355.395 133.212C354.968 133.212 354.579 133.316 354.227 133.524C353.88 133.726 353.603 134.004 353.395 134.356C353.187 134.702 353.083 135.089 353.083 135.516V139.708C353.083 140.14 353.187 140.532 353.395 140.884C353.603 141.23 353.88 141.508 354.227 141.716C354.579 141.918 354.968 142.02 355.395 142.02ZM365.66 143.62C364.876 143.62 364.183 143.449 363.58 143.108C362.977 142.761 362.503 142.286 362.156 141.684C361.815 141.081 361.644 140.388 361.644 139.604V135.636C361.644 134.852 361.815 134.158 362.156 133.556C362.503 132.953 362.977 132.481 363.58 132.14C364.183 131.793 364.876 131.62 365.66 131.62C366.444 131.62 367.137 131.793 367.74 132.14C368.343 132.481 368.815 132.953 369.156 133.556C369.503 134.158 369.676 134.852 369.676 135.636V139.604C369.676 140.388 369.503 141.081 369.156 141.684C368.815 142.286 368.343 142.761 367.74 143.108C367.137 143.449 366.444 143.62 365.66 143.62ZM365.66 142.02C366.087 142.02 366.473 141.918 366.82 141.716C367.172 141.508 367.452 141.23 367.66 140.884C367.868 140.532 367.972 140.14 367.972 139.708V135.516C367.972 135.089 367.868 134.702 367.66 134.356C367.452 134.004 367.172 133.726 366.82 133.524C366.473 133.316 366.087 133.212 365.66 133.212C365.233 133.212 364.844 133.316 364.492 133.524C364.145 133.726 363.868 134.004 363.66 134.356C363.452 134.702 363.348 135.089 363.348 135.516V139.708C363.348 140.14 363.452 140.532 363.66 140.884C363.868 141.23 364.145 141.508 364.492 141.716C364.844 141.918 365.233 142.02 365.66 142.02ZM375.926 143.62C375.142 143.62 374.448 143.449 373.846 143.108C373.243 142.761 372.768 142.286 372.422 141.684C372.08 141.081 371.91 140.388 371.91 139.604V135.636C371.91 134.852 372.08 134.158 372.422 133.556C372.768 132.953 373.243 132.481 373.846 132.14C374.448 131.793 375.142 131.62 375.926 131.62C376.71 131.62 377.403 131.793 378.006 132.14C378.608 132.481 379.08 132.953 379.422 133.556C379.768 134.158 379.942 134.852 379.942 135.636V139.604C379.942 140.388 379.768 141.081 379.422 141.684C379.08 142.286 378.608 142.761 378.006 143.108C377.403 143.449 376.71 143.62 375.926 143.62ZM375.926 142.02C376.352 142.02 376.739 141.918 377.086 141.716C377.438 141.508 377.718 141.23 377.926 140.884C378.134 140.532 378.238 140.14 378.238 139.708V135.516C378.238 135.089 378.134 134.702 377.926 134.356C377.718 134.004 377.438 133.726 377.086 133.524C376.739 133.316 376.352 133.212 375.926 133.212C375.499 133.212 375.11 133.316 374.758 133.524C374.411 133.726 374.134 134.004 373.926 134.356C373.718 134.702 373.614 135.089 373.614 135.516V139.708C373.614 140.14 373.718 140.532 373.926 140.884C374.134 141.23 374.411 141.508 374.758 141.716C375.11 141.918 375.499 142.02 375.926 142.02Z" fill="white"/>
<rect width="12" height="12" rx="4" transform="matrix(0 -1 -1 0 295.04 183.88)" fill="#10AF8A"/>
<path d="M304.44 185.38V170.98H305.92L313.85 182.78V170.98H315.33V185.38H313.85L305.92 173.57V185.38H304.44ZM322.641 185.68C321.568 185.68 320.651 185.436 319.891 184.95C319.131 184.463 318.548 183.79 318.141 182.93C317.735 182.07 317.531 181.083 317.531 179.97C317.531 178.836 317.738 177.843 318.151 176.99C318.565 176.136 319.151 175.473 319.911 175C320.678 174.52 321.588 174.28 322.641 174.28C323.721 174.28 324.641 174.523 325.401 175.01C326.168 175.49 326.751 176.16 327.151 177.02C327.558 177.873 327.761 178.856 327.761 179.97C327.761 181.103 327.558 182.1 327.151 182.96C326.745 183.813 326.158 184.48 325.391 184.96C324.625 185.44 323.708 185.68 322.641 185.68ZM322.641 184.27C323.841 184.27 324.735 183.873 325.321 183.08C325.908 182.28 326.201 181.243 326.201 179.97C326.201 178.663 325.905 177.623 325.311 176.85C324.725 176.076 323.835 175.69 322.641 175.69C321.835 175.69 321.168 175.873 320.641 176.24C320.121 176.6 319.731 177.103 319.471 177.75C319.218 178.39 319.091 179.13 319.091 179.97C319.091 181.27 319.391 182.313 319.991 183.1C320.591 183.88 321.475 184.27 322.641 184.27ZM337.767 185.38V179.87C337.767 179.27 337.71 178.72 337.597 178.22C337.484 177.713 337.3 177.273 337.047 176.9C336.8 176.52 336.477 176.226 336.077 176.02C335.684 175.813 335.204 175.71 334.637 175.71C334.117 175.71 333.657 175.8 333.257 175.98C332.864 176.16 332.53 176.42 332.257 176.76C331.99 177.093 331.787 177.5 331.647 177.98C331.507 178.46 331.437 179.006 331.437 179.62L330.397 179.39C330.397 178.283 330.59 177.353 330.977 176.6C331.364 175.846 331.897 175.276 332.577 174.89C333.257 174.503 334.037 174.31 334.917 174.31C335.564 174.31 336.127 174.41 336.607 174.61C337.094 174.81 337.504 175.08 337.837 175.42C338.177 175.76 338.45 176.15 338.657 176.59C338.864 177.023 339.014 177.486 339.107 177.98C339.2 178.466 339.247 178.953 339.247 179.44V185.38H337.767ZM329.957 185.38V174.58H331.287V177.24H331.437V185.38H329.957ZM351.676 185.68C350.243 185.68 349.033 185.363 348.046 184.73C347.059 184.09 346.313 183.206 345.806 182.08C345.299 180.953 345.046 179.653 345.046 178.18C345.046 176.706 345.299 175.406 345.806 174.28C346.313 173.153 347.059 172.273 348.046 171.64C349.033 171 350.243 170.68 351.676 170.68C353.349 170.68 354.716 171.11 355.776 171.97C356.836 172.823 357.563 173.97 357.956 175.41L356.456 175.8C356.149 174.66 355.599 173.756 354.806 173.09C354.013 172.423 352.969 172.09 351.676 172.09C350.549 172.09 349.613 172.346 348.866 172.86C348.119 173.373 347.556 174.09 347.176 175.01C346.803 175.923 346.609 176.98 346.596 178.18C346.589 179.38 346.773 180.436 347.146 181.35C347.526 182.263 348.093 182.98 348.846 183.5C349.606 184.013 350.549 184.27 351.676 184.27C352.969 184.27 354.013 183.936 354.806 183.27C355.599 182.596 356.149 181.693 356.456 180.56L357.956 180.95C357.563 182.39 356.836 183.54 355.776 184.4C354.716 185.253 353.349 185.68 351.676 185.68ZM364.292 185.65C363.646 185.65 363.079 185.55 362.592 185.35C362.112 185.15 361.702 184.88 361.362 184.54C361.029 184.2 360.759 183.813 360.552 183.38C360.346 182.94 360.196 182.476 360.102 181.99C360.009 181.496 359.962 181.006 359.962 180.52V174.58H361.442V180.09C361.442 180.683 361.499 181.233 361.612 181.74C361.726 182.246 361.906 182.69 362.152 183.07C362.406 183.443 362.729 183.733 363.122 183.94C363.522 184.146 364.006 184.25 364.572 184.25C365.092 184.25 365.549 184.16 365.942 183.98C366.342 183.8 366.676 183.543 366.942 183.21C367.216 182.87 367.422 182.46 367.562 181.98C367.702 181.493 367.772 180.946 367.772 180.34L368.812 180.57C368.812 181.676 368.619 182.606 368.232 183.36C367.846 184.113 367.312 184.683 366.632 185.07C365.952 185.456 365.172 185.65 364.292 185.65ZM367.922 185.38V182.72H367.772V174.58H369.242V185.38H367.922ZM372.037 185.38V174.58H373.357V177.18L373.097 176.84C373.217 176.52 373.374 176.226 373.567 175.96C373.761 175.686 373.971 175.463 374.197 175.29C374.477 175.043 374.804 174.856 375.177 174.73C375.551 174.596 375.927 174.52 376.307 174.5C376.687 174.473 377.034 174.5 377.347 174.58V175.96C376.954 175.86 376.524 175.836 376.057 175.89C375.591 175.943 375.161 176.13 374.767 176.45C374.407 176.73 374.137 177.066 373.957 177.46C373.777 177.846 373.657 178.26 373.597 178.7C373.537 179.133 373.507 179.563 373.507 179.99V185.38H372.037ZM379.244 185.38V174.58H380.564V177.18L380.304 176.84C380.424 176.52 380.581 176.226 380.774 175.96C380.968 175.686 381.178 175.463 381.404 175.29C381.684 175.043 382.011 174.856 382.384 174.73C382.758 174.596 383.134 174.52 383.514 174.5C383.894 174.473 384.241 174.5 384.554 174.58V175.96C384.161 175.86 383.731 175.836 383.264 175.89C382.798 175.943 382.368 176.13 381.974 176.45C381.614 176.73 381.344 177.066 381.164 177.46C380.984 177.846 380.864 178.26 380.804 178.7C380.744 179.133 380.714 179.563 380.714 179.99V185.38H379.244ZM390.826 185.68C389.773 185.68 388.86 185.446 388.086 184.98C387.32 184.513 386.723 183.856 386.296 183.01C385.87 182.163 385.656 181.17 385.656 180.03C385.656 178.85 385.866 177.83 386.286 176.97C386.706 176.11 387.296 175.446 388.056 174.98C388.823 174.513 389.726 174.28 390.766 174.28C391.833 174.28 392.743 174.526 393.496 175.02C394.25 175.506 394.82 176.206 395.206 177.12C395.593 178.033 395.77 179.123 395.736 180.39H394.236V179.87C394.21 178.47 393.906 177.413 393.326 176.7C392.753 175.986 391.913 175.63 390.806 175.63C389.646 175.63 388.756 176.006 388.136 176.76C387.523 177.513 387.216 178.586 387.216 179.98C387.216 181.34 387.523 182.396 388.136 183.15C388.756 183.896 389.633 184.27 390.766 184.27C391.54 184.27 392.213 184.093 392.786 183.74C393.366 183.38 393.823 182.863 394.156 182.19L395.526 182.72C395.1 183.66 394.47 184.39 393.636 184.91C392.81 185.423 391.873 185.68 390.826 185.68ZM386.696 180.39V179.16H394.946V180.39H386.696ZM405.462 185.38V179.87C405.462 179.27 405.406 178.72 405.292 178.22C405.179 177.713 404.996 177.273 404.742 176.9C404.496 176.52 404.172 176.226 403.772 176.02C403.379 175.813 402.899 175.71 402.332 175.71C401.812 175.71 401.352 175.8 400.952 175.98C400.559 176.16 400.226 176.42 399.952 176.76C399.686 177.093 399.482 177.5 399.342 177.98C399.202 178.46 399.132 179.006 399.132 179.62L398.092 179.39C398.092 178.283 398.286 177.353 398.672 176.6C399.059 175.846 399.592 175.276 400.272 174.89C400.952 174.503 401.732 174.31 402.612 174.31C403.259 174.31 403.822 174.41 404.302 174.61C404.789 174.81 405.199 175.08 405.532 175.42C405.872 175.76 406.146 176.15 406.352 176.59C406.559 177.023 406.709 177.486 406.802 177.98C406.896 178.466 406.942 178.953 406.942 179.44V185.38H405.462ZM397.652 185.38V174.58H398.982V177.24H399.132V185.38H397.652ZM415.417 185.38C414.811 185.506 414.211 185.556 413.617 185.53C413.031 185.503 412.504 185.376 412.037 185.15C411.577 184.923 411.227 184.57 410.987 184.09C410.794 183.69 410.687 183.286 410.667 182.88C410.654 182.466 410.647 181.996 410.647 181.47V171.58H412.107V181.41C412.107 181.863 412.111 182.243 412.117 182.55C412.131 182.85 412.201 183.116 412.327 183.35C412.567 183.796 412.947 184.063 413.467 184.15C413.994 184.236 414.644 184.216 415.417 184.09V185.38ZM408.337 175.84V174.58H415.417V175.84H408.337ZM420.549 185.38L425.509 170.98H427.459L432.419 185.38H430.889L426.179 171.8H426.759L422.079 185.38H420.549ZM422.759 181.89V180.51H430.199V181.89H422.759ZM438.255 185.67C436.988 185.67 435.945 185.396 435.125 184.85C434.312 184.303 433.812 183.543 433.625 182.57L435.125 182.32C435.285 182.933 435.648 183.423 436.215 183.79C436.788 184.15 437.495 184.33 438.335 184.33C439.155 184.33 439.802 184.16 440.275 183.82C440.748 183.473 440.985 183.003 440.985 182.41C440.985 182.076 440.908 181.806 440.755 181.6C440.608 181.386 440.305 181.19 439.845 181.01C439.385 180.83 438.698 180.616 437.785 180.37C436.805 180.103 436.038 179.836 435.485 179.57C434.932 179.303 434.538 178.996 434.305 178.65C434.072 178.296 433.955 177.866 433.955 177.36C433.955 176.746 434.128 176.21 434.475 175.75C434.822 175.283 435.302 174.923 435.915 174.67C436.528 174.41 437.242 174.28 438.055 174.28C438.868 174.28 439.595 174.413 440.235 174.68C440.882 174.94 441.402 175.306 441.795 175.78C442.188 176.253 442.422 176.803 442.495 177.43L440.995 177.7C440.895 177.066 440.578 176.566 440.045 176.2C439.518 175.826 438.848 175.633 438.035 175.62C437.268 175.6 436.645 175.746 436.165 176.06C435.685 176.366 435.445 176.776 435.445 177.29C435.445 177.576 435.532 177.823 435.705 178.03C435.878 178.23 436.192 178.42 436.645 178.6C437.105 178.78 437.758 178.976 438.605 179.19C439.598 179.443 440.378 179.71 440.945 179.99C441.512 180.27 441.915 180.6 442.155 180.98C442.395 181.36 442.515 181.83 442.515 182.39C442.515 183.41 442.135 184.213 441.375 184.8C440.622 185.38 439.582 185.67 438.255 185.67ZM448.763 185.67C447.496 185.67 446.453 185.396 445.633 184.85C444.819 184.303 444.319 183.543 444.133 182.57L445.633 182.32C445.793 182.933 446.156 183.423 446.723 183.79C447.296 184.15 448.003 184.33 448.843 184.33C449.663 184.33 450.309 184.16 450.783 183.82C451.256 183.473 451.493 183.003 451.493 182.41C451.493 182.076 451.416 181.806 451.263 181.6C451.116 181.386 450.813 181.19 450.353 181.01C449.893 180.83 449.206 180.616 448.293 180.37C447.313 180.103 446.546 179.836 445.993 179.57C445.439 179.303 445.046 178.996 444.813 178.65C444.579 178.296 444.463 177.866 444.463 177.36C444.463 176.746 444.636 176.21 444.983 175.75C445.329 175.283 445.809 174.923 446.423 174.67C447.036 174.41 447.749 174.28 448.563 174.28C449.376 174.28 450.103 174.413 450.743 174.68C451.389 174.94 451.909 175.306 452.303 175.78C452.696 176.253 452.929 176.803 453.003 177.43L451.503 177.7C451.403 177.066 451.086 176.566 450.553 176.2C450.026 175.826 449.356 175.633 448.543 175.62C447.776 175.6 447.153 175.746 446.673 176.06C446.193 176.366 445.953 176.776 445.953 177.29C445.953 177.576 446.039 177.823 446.213 178.03C446.386 178.23 446.699 178.42 447.153 178.6C447.613 178.78 448.266 178.976 449.113 179.19C450.106 179.443 450.886 179.71 451.453 179.99C452.019 180.27 452.423 180.6 452.663 180.98C452.903 181.36 453.023 181.83 453.023 182.39C453.023 183.41 452.643 184.213 451.883 184.8C451.129 185.38 450.089 185.67 448.763 185.67ZM459.811 185.68C458.757 185.68 457.844 185.446 457.071 184.98C456.304 184.513 455.707 183.856 455.281 183.01C454.854 182.163 454.641 181.17 454.641 180.03C454.641 178.85 454.851 177.83 455.271 176.97C455.691 176.11 456.281 175.446 457.041 174.98C457.807 174.513 458.711 174.28 459.751 174.28C460.817 174.28 461.727 174.526 462.481 175.02C463.234 175.506 463.804 176.206 464.191 177.12C464.577 178.033 464.754 179.123 464.721 180.39H463.221V179.87C463.194 178.47 462.891 177.413 462.311 176.7C461.737 175.986 460.897 175.63 459.791 175.63C458.631 175.63 457.741 176.006 457.121 176.76C456.507 177.513 456.201 178.586 456.201 179.98C456.201 181.34 456.507 182.396 457.121 183.15C457.741 183.896 458.617 184.27 459.751 184.27C460.524 184.27 461.197 184.093 461.771 183.74C462.351 183.38 462.807 182.863 463.141 182.19L464.511 182.72C464.084 183.66 463.454 184.39 462.621 184.91C461.794 185.423 460.857 185.68 459.811 185.68ZM455.681 180.39V179.16H463.931V180.39H455.681ZM472.82 185.38C472.213 185.506 471.613 185.556 471.02 185.53C470.433 185.503 469.906 185.376 469.44 185.15C468.98 184.923 468.63 184.57 468.39 184.09C468.196 183.69 468.09 183.286 468.07 182.88C468.056 182.466 468.05 181.996 468.05 181.47V171.58H469.51V181.41C469.51 181.863 469.513 182.243 469.52 182.55C469.533 182.85 469.603 183.116 469.73 183.35C469.97 183.796 470.35 184.063 470.87 184.15C471.396 184.236 472.046 184.216 472.82 184.09V185.38ZM465.74 175.84V174.58H472.82V175.84H465.74ZM478.978 185.67C477.711 185.67 476.668 185.396 475.848 184.85C475.034 184.303 474.534 183.543 474.348 182.57L475.848 182.32C476.008 182.933 476.371 183.423 476.938 183.79C477.511 184.15 478.218 184.33 479.058 184.33C479.878 184.33 480.524 184.16 480.998 183.82C481.471 183.473 481.708 183.003 481.708 182.41C481.708 182.076 481.631 181.806 481.478 181.6C481.331 181.386 481.028 181.19 480.568 181.01C480.108 180.83 479.421 180.616 478.508 180.37C477.528 180.103 476.761 179.836 476.208 179.57C475.654 179.303 475.261 178.996 475.028 178.65C474.794 178.296 474.678 177.866 474.678 177.36C474.678 176.746 474.851 176.21 475.198 175.75C475.544 175.283 476.024 174.923 476.638 174.67C477.251 174.41 477.964 174.28 478.778 174.28C479.591 174.28 480.318 174.413 480.958 174.68C481.604 174.94 482.124 175.306 482.518 175.78C482.911 176.253 483.144 176.803 483.218 177.43L481.718 177.7C481.618 177.066 481.301 176.566 480.768 176.2C480.241 175.826 479.571 175.633 478.758 175.62C477.991 175.6 477.368 175.746 476.888 176.06C476.408 176.366 476.168 176.776 476.168 177.29C476.168 177.576 476.254 177.823 476.428 178.03C476.601 178.23 476.914 178.42 477.368 178.6C477.828 178.78 478.481 178.976 479.328 179.19C480.321 179.443 481.101 179.71 481.668 179.99C482.234 180.27 482.638 180.6 482.878 180.98C483.118 181.36 483.238 181.83 483.238 182.39C483.238 183.41 482.858 184.213 482.098 184.8C481.344 185.38 480.304 185.67 478.978 185.67Z" fill="white"/>
<path d="M307.184 217.972V216.1H308.856V217.972H307.184ZM307.184 205.148V203.268H308.856V205.148H307.184ZM308.104 216.62C307.304 216.62 306.589 216.476 305.96 216.188C305.33 215.9 304.813 215.492 304.408 214.964C304.008 214.43 303.746 213.801 303.624 213.076L305.28 212.812C305.44 213.494 305.781 214.038 306.304 214.444C306.826 214.844 307.453 215.044 308.184 215.044C308.909 215.044 309.498 214.87 309.952 214.524C310.41 214.177 310.64 213.734 310.64 213.196C310.64 212.812 310.522 212.5 310.288 212.26C310.058 212.02 309.682 211.817 309.16 211.652L306.456 210.82C304.856 210.324 304.056 209.364 304.056 207.94C304.056 207.268 304.216 206.684 304.536 206.188C304.861 205.692 305.317 205.308 305.904 205.036C306.49 204.764 307.176 204.628 307.96 204.628C308.712 204.638 309.378 204.777 309.96 205.044C310.546 205.31 311.032 205.694 311.416 206.196C311.805 206.697 312.074 207.3 312.224 208.004L310.52 208.308C310.445 207.897 310.288 207.534 310.048 207.22C309.813 206.905 309.514 206.66 309.152 206.484C308.794 206.308 308.392 206.217 307.944 206.212C307.522 206.201 307.144 206.268 306.808 206.412C306.477 206.55 306.213 206.748 306.016 207.004C305.824 207.254 305.728 207.54 305.728 207.86C305.728 208.212 305.864 208.51 306.136 208.756C306.408 209.001 306.837 209.212 307.424 209.388L309.544 210.004C310.514 210.292 311.216 210.678 311.648 211.164C312.08 211.649 312.296 212.294 312.296 213.1C312.296 213.804 312.12 214.42 311.768 214.948C311.421 215.47 310.933 215.881 310.304 216.18C309.674 216.473 308.941 216.62 308.104 216.62ZM320.431 216.596C319.86 216.596 319.324 216.489 318.823 216.276C318.321 216.057 317.887 215.748 317.519 215.348C317.156 214.948 316.892 214.476 316.727 213.932L318.343 213.484C318.497 213.98 318.767 214.361 319.151 214.628C319.535 214.889 319.961 215.017 320.431 215.012C320.852 215.006 321.223 214.908 321.543 214.716C321.863 214.524 322.113 214.265 322.295 213.94C322.476 213.609 322.567 213.23 322.567 212.804C322.567 212.164 322.367 211.636 321.967 211.22C321.572 210.804 321.055 210.596 320.415 210.596C320.233 210.596 320.047 210.622 319.855 210.676C319.668 210.729 319.492 210.798 319.327 210.884L318.543 209.564L322.607 205.972L322.783 206.452H317.183V204.86H324.111V206.452L320.735 209.7L320.719 209.156C321.444 209.156 322.073 209.318 322.607 209.644C323.14 209.964 323.551 210.401 323.839 210.956C324.132 211.505 324.279 212.121 324.279 212.804C324.279 213.54 324.105 214.193 323.759 214.764C323.417 215.334 322.956 215.782 322.375 216.108C321.799 216.433 321.151 216.596 320.431 216.596ZM329.587 216.596C329.016 216.596 328.48 216.489 327.979 216.276C327.478 216.057 327.043 215.748 326.675 215.348C326.312 214.948 326.048 214.476 325.883 213.932L327.499 213.484C327.654 213.98 327.923 214.361 328.307 214.628C328.691 214.889 329.118 215.017 329.587 215.012C330.008 215.006 330.379 214.908 330.699 214.716C331.019 214.524 331.27 214.265 331.451 213.94C331.632 213.609 331.723 213.23 331.723 212.804C331.723 212.164 331.523 211.636 331.123 211.22C330.728 210.804 330.211 210.596 329.571 210.596C329.39 210.596 329.203 210.622 329.011 210.676C328.824 210.729 328.648 210.798 328.483 210.884L327.699 209.564L331.763 205.972L331.939 206.452H326.339V204.86H333.267V206.452L329.891 209.7L329.875 209.156C330.6 209.156 331.23 209.318 331.763 209.644C332.296 209.964 332.707 210.401 332.995 210.956C333.288 211.505 333.435 212.121 333.435 212.804C333.435 213.54 333.262 214.193 332.915 214.764C332.574 215.334 332.112 215.782 331.531 216.108C330.955 216.433 330.307 216.596 329.587 216.596ZM339.535 216.62C338.751 216.62 338.058 216.449 337.455 216.108C336.852 215.761 336.378 215.286 336.031 214.684C335.69 214.081 335.519 213.388 335.519 212.604V208.636C335.519 207.852 335.69 207.158 336.031 206.556C336.378 205.953 336.852 205.481 337.455 205.14C338.058 204.793 338.751 204.62 339.535 204.62C340.319 204.62 341.012 204.793 341.615 205.14C342.218 205.481 342.69 205.953 343.031 206.556C343.378 207.158 343.551 207.852 343.551 208.636V212.604C343.551 213.388 343.378 214.081 343.031 214.684C342.69 215.286 342.218 215.761 341.615 216.108C341.012 216.449 340.319 216.62 339.535 216.62ZM339.535 215.02C339.962 215.02 340.348 214.918 340.695 214.716C341.047 214.508 341.327 214.23 341.535 213.884C341.743 213.532 341.847 213.14 341.847 212.708V208.516C341.847 208.089 341.743 207.702 341.535 207.356C341.327 207.004 341.047 206.726 340.695 206.524C340.348 206.316 339.962 206.212 339.535 206.212C339.108 206.212 338.719 206.316 338.367 206.524C338.02 206.726 337.743 207.004 337.535 207.356C337.327 207.702 337.223 208.089 337.223 208.516V212.708C337.223 213.14 337.327 213.532 337.535 213.884C337.743 214.23 338.02 214.508 338.367 214.716C338.719 214.918 339.108 215.02 339.535 215.02ZM345.625 218.292L345.729 217.548C345.958 217.564 346.137 217.521 346.265 217.42C346.393 217.318 346.478 217.177 346.521 216.996C346.563 216.814 346.571 216.609 346.545 216.38H345.625V214.452H347.393V216.54C347.393 217.169 347.241 217.644 346.937 217.964C346.638 218.284 346.201 218.393 345.625 218.292ZM354.441 216.62C353.657 216.62 352.964 216.449 352.361 216.108C351.759 215.761 351.284 215.286 350.937 214.684C350.596 214.081 350.425 213.388 350.425 212.604V208.636C350.425 207.852 350.596 207.158 350.937 206.556C351.284 205.953 351.759 205.481 352.361 205.14C352.964 204.793 353.657 204.62 354.441 204.62C355.225 204.62 355.919 204.793 356.521 205.14C357.124 205.481 357.596 205.953 357.937 206.556C358.284 207.158 358.457 207.852 358.457 208.636V212.604C358.457 213.388 358.284 214.081 357.937 214.684C357.596 215.286 357.124 215.761 356.521 216.108C355.919 216.449 355.225 216.62 354.441 216.62ZM354.441 215.02C354.868 215.02 355.255 214.918 355.601 214.716C355.953 214.508 356.233 214.23 356.441 213.884C356.649 213.532 356.753 213.14 356.753 212.708V208.516C356.753 208.089 356.649 207.702 356.441 207.356C356.233 207.004 355.953 206.726 355.601 206.524C355.255 206.316 354.868 206.212 354.441 206.212C354.015 206.212 353.625 206.316 353.273 206.524C352.927 206.726 352.649 207.004 352.441 207.356C352.233 207.702 352.129 208.089 352.129 208.516V212.708C352.129 213.14 352.233 213.532 352.441 213.884C352.649 214.23 352.927 214.508 353.273 214.716C353.625 214.918 354.015 215.02 354.441 215.02ZM364.707 216.62C363.923 216.62 363.23 216.449 362.627 216.108C362.024 215.761 361.55 215.286 361.203 214.684C360.862 214.081 360.691 213.388 360.691 212.604V208.636C360.691 207.852 360.862 207.158 361.203 206.556C361.55 205.953 362.024 205.481 362.627 205.14C363.23 204.793 363.923 204.62 364.707 204.62C365.491 204.62 366.184 204.793 366.787 205.14C367.39 205.481 367.862 205.953 368.203 206.556C368.55 207.158 368.723 207.852 368.723 208.636V212.604C368.723 213.388 368.55 214.081 368.203 214.684C367.862 215.286 367.39 215.761 366.787 216.108C366.184 216.449 365.491 216.62 364.707 216.62ZM364.707 215.02C365.134 215.02 365.52 214.918 365.867 214.716C366.219 214.508 366.499 214.23 366.707 213.884C366.915 213.532 367.019 213.14 367.019 212.708V208.516C367.019 208.089 366.915 207.702 366.707 207.356C366.499 207.004 366.219 206.726 365.867 206.524C365.52 206.316 365.134 206.212 364.707 206.212C364.28 206.212 363.891 206.316 363.539 206.524C363.192 206.726 362.915 207.004 362.707 207.356C362.499 207.702 362.395 208.089 362.395 208.516V212.708C362.395 213.14 362.499 213.532 362.707 213.884C362.915 214.23 363.192 214.508 363.539 214.716C363.891 214.918 364.28 215.02 364.707 215.02ZM374.973 216.62C374.189 216.62 373.495 216.449 372.893 216.108C372.29 215.761 371.815 215.286 371.469 214.684C371.127 214.081 370.957 213.388 370.957 212.604V208.636C370.957 207.852 371.127 207.158 371.469 206.556C371.815 205.953 372.29 205.481 372.893 205.14C373.495 204.793 374.189 204.62 374.973 204.62C375.757 204.62 376.45 204.793 377.053 205.14C377.655 205.481 378.127 205.953 378.469 206.556C378.815 207.158 378.989 207.852 378.989 208.636V212.604C378.989 213.388 378.815 214.081 378.469 214.684C378.127 215.286 377.655 215.761 377.053 216.108C376.45 216.449 375.757 216.62 374.973 216.62ZM374.973 215.02C375.399 215.02 375.786 214.918 376.133 214.716C376.485 214.508 376.765 214.23 376.973 213.884C377.181 213.532 377.285 213.14 377.285 212.708V208.516C377.285 208.089 377.181 207.702 376.973 207.356C376.765 207.004 376.485 206.726 376.133 206.524C375.786 206.316 375.399 206.212 374.973 206.212C374.546 206.212 374.157 206.316 373.805 206.524C373.458 206.726 373.181 207.004 372.973 207.356C372.765 207.702 372.661 208.089 372.661 208.516V212.708C372.661 213.14 372.765 213.532 372.973 213.884C373.181 214.23 373.458 214.508 373.805 214.716C374.157 214.918 374.546 215.02 374.973 215.02Z" fill="white"/>
<defs>
<linearGradient id="paint0_linear_726_154" x1="182.585" y1="105.905" x2="59.494" y2="224.855" gradientUnits="userSpaceOnUse">
<stop stop-color="#FFD680"/>
<stop offset="1" stop-color="#FFAD00"/>
</linearGradient>
<linearGradient id="paint1_linear_726_154" x1="144.952" y1="123.11" x2="-53.9067" y2="202.52" gradientUnits="userSpaceOnUse">
<stop stop-color="#24F5C5"/>
<stop offset="1" stop-color="#00755A"/>
</linearGradient>
</defs>
</svg>
