<svg width="532" height="476" viewBox="0 0 532 476" fill="none" xmlns="http://www.w3.org/2000/svg">
<rect x="0.382324" y="0.445312" width="531.236" height="475.278" rx="40" fill="white" fill-opacity="0.1"/>
<path d="M92.9156 88.8989C92.1552 86.8248 93.2177 84.5174 95.3251 83.8547C107.685 79.9678 120.785 78.9328 133.634 80.8505C147.804 82.9654 161.216 88.6036 172.641 97.2481C184.066 105.893 193.138 117.267 199.026 130.328C204.914 143.389 207.428 157.719 206.339 172.005C205.251 186.29 200.593 200.074 192.794 212.092C184.995 224.11 174.303 233.977 161.7 240.79C149.097 247.603 134.985 251.144 120.658 251.087C107.667 251.035 94.8756 248.026 83.2474 242.311C81.2648 241.336 80.5642 238.895 81.6302 236.96L87.8553 225.661C88.9213 223.726 91.3493 223.034 93.3464 223.978C101.898 228.022 111.249 230.148 120.742 230.186C131.57 230.229 142.236 227.554 151.761 222.405C161.287 217.255 169.367 209.797 175.262 200.714C181.156 191.631 184.677 181.213 185.5 170.416C186.323 159.619 184.422 148.789 179.972 138.917C175.522 129.045 168.665 120.449 160.03 113.915C151.395 107.382 141.258 103.12 130.549 101.522C121.16 100.121 111.595 100.805 102.529 103.506C100.412 104.137 98.1167 103.085 97.3562 101.011L92.9156 88.8989Z" fill="url(#paint0_linear_548_417)"/>
<path d="M75.4186 233.168C74.1844 235.001 71.6922 235.493 69.9196 234.174C59.0663 226.102 50.2647 215.559 44.2589 203.396C37.6618 190.037 34.6666 175.187 35.5696 160.314C36.4725 145.442 41.2423 131.063 49.4072 118.6C56.8404 107.254 66.8529 97.8529 78.6031 91.1525C80.5221 90.0582 82.9364 90.8484 83.9399 92.8165L89.7997 104.309C90.8031 106.277 90.0137 108.676 88.1114 109.799C79.5952 114.827 72.329 121.751 66.89 130.053C60.719 139.473 57.114 150.341 56.4315 161.581C55.7491 172.821 58.0129 184.045 62.9989 194.142C67.3935 203.042 73.7686 210.794 81.614 216.816C83.3664 218.161 83.8599 220.637 82.6257 222.469L75.4186 233.168Z" fill="url(#paint1_linear_548_417)"/>
<path d="M88.204 177.389V174.545H91.096V177.389H88.204ZM88.204 158.189V155.345H91.096V158.189H88.204ZM89.716 175.361C88.5 175.361 87.412 175.137 86.452 174.689C85.492 174.241 84.704 173.609 84.088 172.793C83.48 171.977 83.092 171.009 82.924 169.889L85.78 169.433C86.004 170.417 86.484 171.201 87.22 171.785C87.964 172.361 88.852 172.649 89.884 172.649C90.876 172.649 91.692 172.417 92.332 171.953C92.972 171.481 93.292 170.885 93.292 170.165C93.292 169.661 93.14 169.253 92.836 168.941C92.532 168.621 92.044 168.357 91.372 168.149L87.208 166.853C84.784 166.101 83.572 164.629 83.572 162.437C83.572 161.413 83.816 160.521 84.304 159.761C84.8 158.993 85.496 158.405 86.392 157.997C87.288 157.581 88.344 157.377 89.56 157.385C90.688 157.393 91.692 157.597 92.572 157.997C93.46 158.397 94.196 158.973 94.78 159.725C95.372 160.477 95.792 161.381 96.04 162.437L93.076 162.977C92.964 162.409 92.744 161.909 92.416 161.477C92.088 161.045 91.676 160.709 91.18 160.469C90.684 160.229 90.132 160.101 89.524 160.085C88.94 160.077 88.416 160.169 87.952 160.361C87.488 160.545 87.12 160.809 86.848 161.153C86.576 161.489 86.44 161.869 86.44 162.293C86.44 162.765 86.628 163.169 87.004 163.505C87.388 163.841 87.992 164.129 88.816 164.369L91.924 165.269C93.42 165.701 94.496 166.289 95.152 167.033C95.816 167.769 96.148 168.749 96.148 169.973C96.148 171.045 95.88 171.985 95.344 172.793C94.808 173.601 94.056 174.233 93.088 174.689C92.12 175.137 90.996 175.361 89.716 175.361ZM109.207 175.361C108.063 175.361 107.047 175.129 106.159 174.665C105.271 174.201 104.575 173.557 104.071 172.733C103.567 171.909 103.315 170.965 103.315 169.901C103.315 168.949 103.535 168.065 103.975 167.249C104.415 166.433 105.059 165.781 105.907 165.293L105.847 166.217C105.183 165.713 104.667 165.133 104.299 164.477C103.939 163.813 103.759 163.069 103.759 162.245C103.759 161.253 103.991 160.393 104.455 159.665C104.927 158.937 105.571 158.373 106.387 157.973C107.203 157.565 108.143 157.361 109.207 157.361C110.271 157.361 111.211 157.565 112.027 157.973C112.851 158.373 113.495 158.937 113.959 159.665C114.431 160.393 114.667 161.253 114.667 162.245C114.667 163.069 114.491 163.809 114.139 164.465C113.795 165.121 113.271 165.713 112.567 166.241L112.555 165.305C113.387 165.777 114.023 166.425 114.463 167.249C114.911 168.065 115.135 168.949 115.135 169.901C115.135 170.965 114.879 171.909 114.367 172.733C113.863 173.557 113.163 174.201 112.267 174.665C111.379 175.129 110.359 175.361 109.207 175.361ZM109.207 172.637C110.055 172.637 110.743 172.405 111.271 171.941C111.807 171.477 112.075 170.797 112.075 169.901C112.075 169.005 111.811 168.325 111.283 167.861C110.755 167.389 110.063 167.153 109.207 167.153C108.359 167.153 107.675 167.389 107.155 167.861C106.635 168.325 106.375 169.005 106.375 169.901C106.375 170.797 106.635 171.477 107.155 171.941C107.675 172.405 108.359 172.637 109.207 172.637ZM109.207 164.405C109.919 164.405 110.495 164.229 110.935 163.877C111.383 163.517 111.607 162.973 111.607 162.245C111.607 161.517 111.383 160.977 110.935 160.625C110.495 160.265 109.919 160.085 109.207 160.085C108.503 160.085 107.927 160.265 107.479 160.625C107.039 160.977 106.819 161.517 106.819 162.245C106.819 162.973 107.039 163.517 107.479 163.877C107.927 164.229 108.503 164.405 109.207 164.405ZM118.73 175.001V172.037H121.694V175.001H118.73ZM131.119 157.385C132.247 157.385 133.263 157.653 134.167 158.189C135.071 158.717 135.783 159.453 136.303 160.397C136.831 161.333 137.095 162.413 137.095 163.637V168.905C137.095 170.209 136.831 171.349 136.303 172.325C135.783 173.293 135.051 174.041 134.107 174.569C133.163 175.097 132.059 175.361 130.795 175.361C129.923 175.361 129.099 175.213 128.323 174.917C127.547 174.613 126.851 174.149 126.235 173.525L128.311 171.497C128.623 171.857 128.995 172.141 129.427 172.349C129.867 172.549 130.323 172.649 130.795 172.649C131.467 172.649 132.055 172.493 132.559 172.181C133.063 171.861 133.455 171.449 133.735 170.945C134.015 170.433 134.155 169.885 134.155 169.301V166.433L134.671 167.009C134.183 167.585 133.591 168.037 132.895 168.365C132.199 168.685 131.467 168.845 130.699 168.845C129.619 168.845 128.659 168.597 127.819 168.101C126.987 167.605 126.331 166.933 125.851 166.085C125.379 165.229 125.143 164.261 125.143 163.181C125.143 162.101 125.415 161.125 125.959 160.253C126.503 159.373 127.227 158.677 128.131 158.165C129.043 157.645 130.039 157.385 131.119 157.385ZM131.119 160.145C130.559 160.145 130.047 160.281 129.583 160.553C129.119 160.825 128.751 161.193 128.479 161.657C128.207 162.113 128.071 162.621 128.071 163.181C128.071 163.741 128.203 164.253 128.467 164.717C128.739 165.181 129.103 165.549 129.559 165.821C130.023 166.093 130.535 166.229 131.095 166.229C131.655 166.229 132.167 166.093 132.631 165.821C133.095 165.549 133.463 165.181 133.735 164.717C134.015 164.253 134.155 163.741 134.155 163.181C134.155 162.637 134.019 162.137 133.747 161.681C133.475 161.217 133.107 160.845 132.643 160.565C132.187 160.285 131.679 160.145 131.119 160.145ZM140.446 175.001V157.721H143.05L149.026 169.961L155.002 157.721H157.606V175.001H154.906V163.925L149.602 175.001H148.45L143.158 163.925V175.001H140.446Z" fill="white"/>
<path d="M36.5781 54V40.0078H31.6562V37.0898H45.0391V40.0078H40.1172V54H36.5781ZM50.0195 54.2578C48.7461 54.2578 47.6406 53.9961 46.7031 53.4727C45.7656 52.9492 45.043 52.1992 44.5352 51.2227C44.0273 50.2383 43.7734 49.0625 43.7734 47.6953V47.6719C43.7734 46.3125 44.0312 45.1445 44.5469 44.168C45.0625 43.1836 45.7852 42.4297 46.7148 41.9062C47.6523 41.375 48.7539 41.1094 50.0195 41.1094C51.2852 41.1094 52.3828 41.375 53.3125 41.9062C54.25 42.4297 54.9766 43.1797 55.4922 44.1562C56.0078 45.1328 56.2656 46.3047 56.2656 47.6719V47.6953C56.2656 49.0703 56.0117 50.2461 55.5039 51.2227C54.9961 52.1992 54.2734 52.9492 53.3359 53.4727C52.4062 53.9961 51.3008 54.2578 50.0195 54.2578ZM50.0312 51.5742C50.6016 51.5742 51.0898 51.4219 51.4961 51.1172C51.9102 50.8125 52.2266 50.3711 52.4453 49.793C52.6719 49.2148 52.7852 48.5156 52.7852 47.6953V47.6719C52.7852 46.8516 52.6719 46.1523 52.4453 45.5742C52.2188 44.9961 51.8984 44.5547 51.4844 44.25C51.0703 43.9453 50.582 43.793 50.0195 43.793C49.4648 43.793 48.9766 43.9492 48.5547 44.2617C48.1406 44.5664 47.8203 45.0078 47.5938 45.5859C47.3672 46.1562 47.2539 46.8516 47.2539 47.6719V47.6953C47.2539 48.5156 47.3672 49.2148 47.5938 49.793C47.8203 50.3711 48.1406 50.8125 48.5547 51.1172C48.9688 51.4219 49.4609 51.5742 50.0312 51.5742ZM63.2734 54.2227C61.8438 54.2227 60.793 53.9336 60.1211 53.3555C59.4492 52.7773 59.1133 51.8242 59.1133 50.4961V43.957H57.3203V41.3789H59.1133V38.3086H62.5703V41.3789H64.9375V43.957H62.5703V50.0508C62.5703 50.6289 62.6992 51.0391 62.957 51.2812C63.2227 51.5156 63.6211 51.6328 64.1523 51.6328C64.3164 51.6328 64.457 51.6289 64.5742 51.6211C64.6992 51.6055 64.8203 51.5898 64.9375 51.5742V54.082C64.7422 54.1211 64.5039 54.1523 64.2227 54.1758C63.9414 54.207 63.625 54.2227 63.2734 54.2227ZM70.6094 54.1992C69.7734 54.1992 69.0391 54.0391 68.4062 53.7188C67.7734 53.3906 67.2773 52.9414 66.918 52.3711C66.5664 51.793 66.3906 51.1328 66.3906 50.3906V50.3672C66.3906 49.6016 66.582 48.9492 66.9648 48.4102C67.3477 47.8633 67.9023 47.4336 68.6289 47.1211C69.3633 46.8008 70.2539 46.6094 71.3008 46.5469L76.1758 46.2422V48.3633L71.8164 48.6445C71.1445 48.6836 70.6328 48.8398 70.2812 49.1133C69.9375 49.3789 69.7656 49.7383 69.7656 50.1914V50.2031C69.7656 50.6719 69.9414 51.0391 70.293 51.3047C70.6523 51.5703 71.1289 51.7031 71.7227 51.7031C72.2383 51.7031 72.6953 51.6016 73.0938 51.3984C73.5 51.1953 73.8203 50.9219 74.0547 50.5781C74.2891 50.2266 74.4062 49.832 74.4062 49.3945V45.5273C74.4062 44.9727 74.2266 44.5352 73.8672 44.2148C73.5156 43.8945 73 43.7344 72.3203 43.7344C71.6875 43.7344 71.1797 43.8633 70.7969 44.1211C70.4219 44.3711 70.1875 44.6953 70.0938 45.0938L70.0703 45.1992H66.9297L66.9414 45.0586C67.0117 44.2852 67.2734 43.6055 67.7266 43.0195C68.1875 42.4258 68.8164 41.9609 69.6133 41.625C70.418 41.2812 71.3711 41.1094 72.4727 41.1094C73.5664 41.1094 74.5117 41.2852 75.3086 41.6367C76.1055 41.9883 76.7227 42.4805 77.1602 43.1133C77.5977 43.7461 77.8164 44.4922 77.8164 45.3516V54H74.4062V52.1602H74.3125C74.0781 52.582 73.7734 52.9453 73.3984 53.25C73.0312 53.5547 72.6133 53.7891 72.1445 53.9531C71.6758 54.1172 71.1641 54.1992 70.6094 54.1992ZM80.3125 54V36.9258H83.7344V54H80.3125ZM90.4727 54L96.3789 37.0898H99.4844V40.3945H98.4062L94.1992 54H90.4727ZM93.6484 49.8984L94.5156 47.25H102.391L103.258 49.8984H93.6484ZM102.719 54L98.5117 40.3945V37.0898H100.539L106.434 54H102.719ZM113.055 54.2578C111.898 54.2578 110.91 54.0938 110.09 53.7656C109.277 53.4297 108.641 52.9648 108.18 52.3711C107.727 51.7773 107.457 51.0898 107.371 50.3086L107.359 50.2148H110.699L110.723 50.3086C110.84 50.7852 111.09 51.1602 111.473 51.4336C111.855 51.707 112.387 51.8438 113.066 51.8438C113.504 51.8438 113.875 51.7891 114.18 51.6797C114.492 51.5703 114.734 51.418 114.906 51.2227C115.078 51.0195 115.164 50.7812 115.164 50.5078V50.4961C115.164 50.1602 115.039 49.8867 114.789 49.6758C114.539 49.4648 114.102 49.293 113.477 49.1602L111.344 48.7031C110.531 48.5312 109.852 48.2852 109.305 47.9648C108.758 47.6367 108.348 47.2305 108.074 46.7461C107.809 46.2617 107.676 45.707 107.676 45.082V45.0703C107.676 44.2656 107.891 43.5703 108.32 42.9844C108.758 42.3906 109.371 41.9297 110.16 41.6016C110.957 41.2734 111.887 41.1094 112.949 41.1094C114.066 41.1094 115.016 41.2891 115.797 41.6484C116.578 42 117.176 42.4727 117.59 43.0664C118.012 43.6602 118.234 44.3203 118.258 45.0469L118.27 45.1523H115.105L115.094 45.0703C115.031 44.6328 114.816 44.2695 114.449 43.9805C114.09 43.6836 113.59 43.5352 112.949 43.5352C112.559 43.5352 112.215 43.5898 111.918 43.6992C111.629 43.8086 111.406 43.9648 111.25 44.168C111.094 44.3711 111.016 44.6094 111.016 44.8828V44.8945C111.016 45.1133 111.07 45.3086 111.18 45.4805C111.289 45.6445 111.469 45.7891 111.719 45.9141C111.969 46.0391 112.305 46.1484 112.727 46.2422L114.871 46.6875C116.184 46.9688 117.129 47.3828 117.707 47.9297C118.293 48.4766 118.586 49.2148 118.586 50.1445V50.1562C118.586 50.9844 118.348 51.707 117.871 52.3242C117.402 52.9336 116.754 53.4102 115.926 53.7539C115.098 54.0898 114.141 54.2578 113.055 54.2578ZM125.594 54.2578C124.438 54.2578 123.449 54.0938 122.629 53.7656C121.816 53.4297 121.18 52.9648 120.719 52.3711C120.266 51.7773 119.996 51.0898 119.91 50.3086L119.898 50.2148H123.238L123.262 50.3086C123.379 50.7852 123.629 51.1602 124.012 51.4336C124.395 51.707 124.926 51.8438 125.605 51.8438C126.043 51.8438 126.414 51.7891 126.719 51.6797C127.031 51.5703 127.273 51.418 127.445 51.2227C127.617 51.0195 127.703 50.7812 127.703 50.5078V50.4961C127.703 50.1602 127.578 49.8867 127.328 49.6758C127.078 49.4648 126.641 49.293 126.016 49.1602L123.883 48.7031C123.07 48.5312 122.391 48.2852 121.844 47.9648C121.297 47.6367 120.887 47.2305 120.613 46.7461C120.348 46.2617 120.215 45.707 120.215 45.082V45.0703C120.215 44.2656 120.43 43.5703 120.859 42.9844C121.297 42.3906 121.91 41.9297 122.699 41.6016C123.496 41.2734 124.426 41.1094 125.488 41.1094C126.605 41.1094 127.555 41.2891 128.336 41.6484C129.117 42 129.715 42.4727 130.129 43.0664C130.551 43.6602 130.773 44.3203 130.797 45.0469L130.809 45.1523H127.645L127.633 45.0703C127.57 44.6328 127.355 44.2695 126.988 43.9805C126.629 43.6836 126.129 43.5352 125.488 43.5352C125.098 43.5352 124.754 43.5898 124.457 43.6992C124.168 43.8086 123.945 43.9648 123.789 44.168C123.633 44.3711 123.555 44.6094 123.555 44.8828V44.8945C123.555 45.1133 123.609 45.3086 123.719 45.4805C123.828 45.6445 124.008 45.7891 124.258 45.9141C124.508 46.0391 124.844 46.1484 125.266 46.2422L127.41 46.6875C128.723 46.9688 129.668 47.3828 130.246 47.9297C130.832 48.4766 131.125 49.2148 131.125 50.1445V50.1562C131.125 50.9844 130.887 51.707 130.41 52.3242C129.941 52.9336 129.293 53.4102 128.465 53.7539C127.637 54.0898 126.68 54.2578 125.594 54.2578ZM138.742 54.2578C137.453 54.2578 136.344 53.9961 135.414 53.4727C134.492 52.9414 133.781 52.1836 133.281 51.1992C132.781 50.2148 132.531 49.0508 132.531 47.707V47.6953C132.531 46.3594 132.777 45.1992 133.27 44.2148C133.77 43.2305 134.473 42.4688 135.379 41.9297C136.293 41.3828 137.367 41.1094 138.602 41.1094C139.828 41.1094 140.891 41.375 141.789 41.9062C142.688 42.4297 143.379 43.168 143.863 44.1211C144.355 45.0664 144.602 46.1758 144.602 47.4492V48.5039H134.219V46.3477H142.973L141.355 48.3633V47.0391C141.355 46.2969 141.242 45.6758 141.016 45.1758C140.789 44.6758 140.473 44.3008 140.066 44.0508C139.66 43.8008 139.191 43.6758 138.66 43.6758C138.121 43.6758 137.645 43.8047 137.23 44.0625C136.816 44.3203 136.492 44.7031 136.258 45.2109C136.023 45.7109 135.906 46.3203 135.906 47.0391V48.375C135.906 49.0781 136.023 49.6797 136.258 50.1797C136.492 50.6719 136.824 51.0508 137.254 51.3164C137.691 51.5742 138.211 51.7031 138.812 51.7031C139.281 51.7031 139.688 51.6328 140.031 51.4922C140.383 51.3438 140.664 51.1602 140.875 50.9414C141.094 50.7148 141.242 50.4883 141.32 50.2617L141.344 50.1914H144.496L144.461 50.3203C144.367 50.7734 144.184 51.2305 143.91 51.6914C143.645 52.1523 143.277 52.5781 142.809 52.9688C142.348 53.3594 141.777 53.6719 141.098 53.9062C140.426 54.1406 139.641 54.2578 138.742 54.2578ZM151.609 54.2227C150.18 54.2227 149.129 53.9336 148.457 53.3555C147.785 52.7773 147.449 51.8242 147.449 50.4961V43.957H145.656V41.3789H147.449V38.3086H150.906V41.3789H153.273V43.957H150.906V50.0508C150.906 50.6289 151.035 51.0391 151.293 51.2812C151.559 51.5156 151.957 51.6328 152.488 51.6328C152.652 51.6328 152.793 51.6289 152.91 51.6211C153.035 51.6055 153.156 51.5898 153.273 51.5742V54.082C153.078 54.1211 152.84 54.1523 152.559 54.1758C152.277 54.207 151.961 54.2227 151.609 54.2227ZM160.469 54.2578C159.312 54.2578 158.324 54.0938 157.504 53.7656C156.691 53.4297 156.055 52.9648 155.594 52.3711C155.141 51.7773 154.871 51.0898 154.785 50.3086L154.773 50.2148H158.113L158.137 50.3086C158.254 50.7852 158.504 51.1602 158.887 51.4336C159.27 51.707 159.801 51.8438 160.48 51.8438C160.918 51.8438 161.289 51.7891 161.594 51.6797C161.906 51.5703 162.148 51.418 162.32 51.2227C162.492 51.0195 162.578 50.7812 162.578 50.5078V50.4961C162.578 50.1602 162.453 49.8867 162.203 49.6758C161.953 49.4648 161.516 49.293 160.891 49.1602L158.758 48.7031C157.945 48.5312 157.266 48.2852 156.719 47.9648C156.172 47.6367 155.762 47.2305 155.488 46.7461C155.223 46.2617 155.09 45.707 155.09 45.082V45.0703C155.09 44.2656 155.305 43.5703 155.734 42.9844C156.172 42.3906 156.785 41.9297 157.574 41.6016C158.371 41.2734 159.301 41.1094 160.363 41.1094C161.48 41.1094 162.43 41.2891 163.211 41.6484C163.992 42 164.59 42.4727 165.004 43.0664C165.426 43.6602 165.648 44.3203 165.672 45.0469L165.684 45.1523H162.52L162.508 45.0703C162.445 44.6328 162.23 44.2695 161.863 43.9805C161.504 43.6836 161.004 43.5352 160.363 43.5352C159.973 43.5352 159.629 43.5898 159.332 43.6992C159.043 43.8086 158.82 43.9648 158.664 44.168C158.508 44.3711 158.43 44.6094 158.43 44.8828V44.8945C158.43 45.1133 158.484 45.3086 158.594 45.4805C158.703 45.6445 158.883 45.7891 159.133 45.9141C159.383 46.0391 159.719 46.1484 160.141 46.2422L162.285 46.6875C163.598 46.9688 164.543 47.3828 165.121 47.9297C165.707 48.4766 166 49.2148 166 50.1445V50.1562C166 50.9844 165.762 51.707 165.285 52.3242C164.816 52.9336 164.168 53.4102 163.34 53.7539C162.512 54.0898 161.555 54.2578 160.469 54.2578Z" fill="white"/>
<path d="M376.204 57.388V54.544H379.096V57.388H376.204ZM376.204 38.188V35.344H379.096V38.188H376.204ZM377.716 55.36C376.5 55.36 375.412 55.136 374.452 54.688C373.492 54.24 372.704 53.608 372.088 52.792C371.48 51.976 371.092 51.008 370.924 49.888L373.78 49.432C374.004 50.416 374.484 51.2 375.22 51.784C375.964 52.36 376.852 52.648 377.884 52.648C378.876 52.648 379.692 52.416 380.332 51.952C380.972 51.48 381.292 50.884 381.292 50.164C381.292 49.66 381.14 49.252 380.836 48.94C380.532 48.62 380.044 48.356 379.372 48.148L375.208 46.852C372.784 46.1 371.572 44.628 371.572 42.436C371.572 41.412 371.816 40.52 372.304 39.76C372.8 38.992 373.496 38.404 374.392 37.996C375.288 37.58 376.344 37.376 377.56 37.384C378.688 37.392 379.692 37.596 380.572 37.996C381.46 38.396 382.196 38.972 382.78 39.724C383.372 40.476 383.792 41.38 384.04 42.436L381.076 42.976C380.964 42.408 380.744 41.908 380.416 41.476C380.088 41.044 379.676 40.708 379.18 40.468C378.684 40.228 378.132 40.1 377.524 40.084C376.94 40.076 376.416 40.168 375.952 40.36C375.488 40.544 375.12 40.808 374.848 41.152C374.576 41.488 374.44 41.868 374.44 42.292C374.44 42.764 374.628 43.168 375.004 43.504C375.388 43.84 375.992 44.128 376.816 44.368L379.924 45.268C381.42 45.7 382.496 46.288 383.152 47.032C383.816 47.768 384.148 48.748 384.148 49.972C384.148 51.044 383.88 51.984 383.344 52.792C382.808 53.6 382.056 54.232 381.088 54.688C380.12 55.136 378.996 55.36 377.716 55.36ZM397.207 55.36C396.063 55.36 395.047 55.128 394.159 54.664C393.271 54.2 392.575 53.556 392.071 52.732C391.567 51.908 391.315 50.964 391.315 49.9C391.315 48.948 391.535 48.064 391.975 47.248C392.415 46.432 393.059 45.78 393.907 45.292L393.847 46.216C393.183 45.712 392.667 45.132 392.299 44.476C391.939 43.812 391.759 43.068 391.759 42.244C391.759 41.252 391.991 40.392 392.455 39.664C392.927 38.936 393.571 38.372 394.387 37.972C395.203 37.564 396.143 37.36 397.207 37.36C398.271 37.36 399.211 37.564 400.027 37.972C400.851 38.372 401.495 38.936 401.959 39.664C402.431 40.392 402.667 41.252 402.667 42.244C402.667 43.068 402.491 43.808 402.139 44.464C401.795 45.12 401.271 45.712 400.567 46.24L400.555 45.304C401.387 45.776 402.023 46.424 402.463 47.248C402.911 48.064 403.135 48.948 403.135 49.9C403.135 50.964 402.879 51.908 402.367 52.732C401.863 53.556 401.163 54.2 400.267 54.664C399.379 55.128 398.359 55.36 397.207 55.36ZM397.207 52.636C398.055 52.636 398.743 52.404 399.271 51.94C399.807 51.476 400.075 50.796 400.075 49.9C400.075 49.004 399.811 48.324 399.283 47.86C398.755 47.388 398.063 47.152 397.207 47.152C396.359 47.152 395.675 47.388 395.155 47.86C394.635 48.324 394.375 49.004 394.375 49.9C394.375 50.796 394.635 51.476 395.155 51.94C395.675 52.404 396.359 52.636 397.207 52.636ZM397.207 44.404C397.919 44.404 398.495 44.228 398.935 43.876C399.383 43.516 399.607 42.972 399.607 42.244C399.607 41.516 399.383 40.976 398.935 40.624C398.495 40.264 397.919 40.084 397.207 40.084C396.503 40.084 395.927 40.264 395.479 40.624C395.039 40.976 394.819 41.516 394.819 42.244C394.819 42.972 395.039 43.516 395.479 43.876C395.927 44.228 396.503 44.404 397.207 44.404ZM411.83 37.384C412.958 37.384 413.974 37.652 414.878 38.188C415.782 38.716 416.494 39.452 417.014 40.396C417.542 41.332 417.806 42.412 417.806 43.636V48.904C417.806 50.208 417.542 51.348 417.014 52.324C416.494 53.292 415.762 54.04 414.818 54.568C413.874 55.096 412.77 55.36 411.506 55.36C410.634 55.36 409.81 55.212 409.034 54.916C408.258 54.612 407.562 54.148 406.946 53.524L409.022 51.496C409.334 51.856 409.706 52.14 410.138 52.348C410.578 52.548 411.034 52.648 411.506 52.648C412.178 52.648 412.766 52.492 413.27 52.18C413.774 51.86 414.166 51.448 414.446 50.944C414.726 50.432 414.866 49.884 414.866 49.3V46.432L415.382 47.008C414.894 47.584 414.302 48.036 413.606 48.364C412.91 48.684 412.178 48.844 411.41 48.844C410.33 48.844 409.37 48.596 408.53 48.1C407.698 47.604 407.042 46.932 406.562 46.084C406.09 45.228 405.854 44.26 405.854 43.18C405.854 42.1 406.126 41.124 406.67 40.252C407.214 39.372 407.938 38.676 408.842 38.164C409.754 37.644 410.75 37.384 411.83 37.384ZM411.83 40.144C411.27 40.144 410.758 40.28 410.294 40.552C409.83 40.824 409.462 41.192 409.19 41.656C408.918 42.112 408.782 42.62 408.782 43.18C408.782 43.74 408.914 44.252 409.178 44.716C409.45 45.18 409.814 45.548 410.27 45.82C410.734 46.092 411.246 46.228 411.806 46.228C412.366 46.228 412.878 46.092 413.342 45.82C413.806 45.548 414.174 45.18 414.446 44.716C414.726 44.252 414.866 43.74 414.866 43.18C414.866 42.636 414.73 42.136 414.458 41.68C414.186 41.216 413.818 40.844 413.354 40.564C412.898 40.284 412.39 40.144 411.83 40.144ZM426.281 55.36C425.401 55.36 424.581 55.18 423.821 54.82C423.061 54.452 422.405 53.948 421.853 53.308C421.309 52.668 420.917 51.924 420.677 51.076L423.461 50.332C423.573 50.796 423.777 51.196 424.073 51.532C424.377 51.868 424.729 52.128 425.129 52.312C425.537 52.496 425.957 52.588 426.389 52.588C426.949 52.588 427.461 52.452 427.925 52.18C428.389 51.908 428.757 51.544 429.029 51.088C429.301 50.624 429.437 50.112 429.437 49.552C429.437 48.992 429.297 48.484 429.017 48.028C428.745 47.564 428.377 47.2 427.913 46.936C427.449 46.664 426.941 46.528 426.389 46.528C425.725 46.528 425.173 46.648 424.733 46.888C424.301 47.128 423.969 47.384 423.737 47.656L421.265 46.864L421.793 37.72H431.177V40.432H423.341L424.421 39.412L424.037 45.772L423.509 45.124C423.957 44.716 424.477 44.412 425.069 44.212C425.661 44.012 426.233 43.912 426.785 43.912C427.865 43.912 428.821 44.16 429.653 44.656C430.493 45.144 431.149 45.812 431.621 46.66C432.101 47.508 432.341 48.472 432.341 49.552C432.341 50.632 432.061 51.612 431.501 52.492C430.941 53.364 430.201 54.06 429.281 54.58C428.369 55.1 427.369 55.36 426.281 55.36ZM434.979 58.06L435.147 56.812C435.515 56.844 435.807 56.78 436.023 56.62C436.239 56.468 436.383 56.248 436.455 55.96C436.535 55.68 436.555 55.36 436.515 55H434.979V51.916H437.943V55.12C437.943 56.168 437.695 56.96 437.199 57.496C436.703 58.032 435.963 58.22 434.979 58.06ZM447.632 55.36C446.752 55.36 445.932 55.18 445.172 54.82C444.412 54.452 443.756 53.948 443.204 53.308C442.66 52.668 442.268 51.924 442.028 51.076L444.812 50.332C444.924 50.796 445.128 51.196 445.424 51.532C445.728 51.868 446.08 52.128 446.48 52.312C446.888 52.496 447.308 52.588 447.74 52.588C448.3 52.588 448.812 52.452 449.276 52.18C449.74 51.908 450.108 51.544 450.38 51.088C450.652 50.624 450.788 50.112 450.788 49.552C450.788 48.992 450.648 48.484 450.368 48.028C450.096 47.564 449.728 47.2 449.264 46.936C448.8 46.664 448.292 46.528 447.74 46.528C447.076 46.528 446.524 46.648 446.084 46.888C445.652 47.128 445.32 47.384 445.088 47.656L442.616 46.864L443.144 37.72H452.528V40.432H444.692L445.772 39.412L445.388 45.772L444.86 45.124C445.308 44.716 445.828 44.412 446.42 44.212C447.012 44.012 447.584 43.912 448.136 43.912C449.216 43.912 450.172 44.16 451.004 44.656C451.844 45.144 452.5 45.812 452.972 46.66C453.452 47.508 453.692 48.472 453.692 49.552C453.692 50.632 453.412 51.612 452.852 52.492C452.292 53.364 451.552 54.06 450.632 54.58C449.72 55.1 448.72 55.36 447.632 55.36ZM461.695 55.36C460.815 55.36 459.995 55.18 459.235 54.82C458.475 54.452 457.819 53.948 457.267 53.308C456.723 52.668 456.331 51.924 456.091 51.076L458.875 50.332C458.987 50.796 459.191 51.196 459.487 51.532C459.791 51.868 460.143 52.128 460.543 52.312C460.951 52.496 461.371 52.588 461.803 52.588C462.363 52.588 462.875 52.452 463.339 52.18C463.803 51.908 464.171 51.544 464.443 51.088C464.715 50.624 464.851 50.112 464.851 49.552C464.851 48.992 464.711 48.484 464.431 48.028C464.159 47.564 463.791 47.2 463.327 46.936C462.863 46.664 462.355 46.528 461.803 46.528C461.139 46.528 460.587 46.648 460.147 46.888C459.715 47.128 459.383 47.384 459.151 47.656L456.679 46.864L457.207 37.72H466.591V40.432H458.755L459.835 39.412L459.451 45.772L458.923 45.124C459.371 44.716 459.891 44.412 460.483 44.212C461.075 44.012 461.647 43.912 462.199 43.912C463.279 43.912 464.235 44.16 465.067 44.656C465.907 45.144 466.563 45.812 467.035 46.66C467.515 47.508 467.755 48.472 467.755 49.552C467.755 50.632 467.475 51.612 466.915 52.492C466.355 53.364 465.615 54.06 464.695 54.58C463.783 55.1 462.783 55.36 461.695 55.36ZM476.849 55.36C475.625 55.36 474.545 55.1 473.609 54.58C472.673 54.052 471.941 53.32 471.413 52.384C470.893 51.448 470.633 50.368 470.633 49.144V43.576C470.633 42.352 470.893 41.272 471.413 40.336C471.941 39.4 472.673 38.672 473.609 38.152C474.545 37.624 475.625 37.36 476.849 37.36C478.073 37.36 479.149 37.624 480.077 38.152C481.013 38.672 481.745 39.4 482.273 40.336C482.801 41.272 483.065 42.352 483.065 43.576V49.144C483.065 50.368 482.801 51.448 482.273 52.384C481.745 53.32 481.013 54.052 480.077 54.58C479.149 55.1 478.073 55.36 476.849 55.36ZM476.849 52.612C477.457 52.612 478.009 52.468 478.505 52.18C479.001 51.884 479.393 51.492 479.681 51.004C479.969 50.508 480.113 49.956 480.113 49.348V43.36C480.113 42.744 479.969 42.192 479.681 41.704C479.393 41.208 479.001 40.816 478.505 40.528C478.009 40.232 477.457 40.084 476.849 40.084C476.241 40.084 475.689 40.232 475.193 40.528C474.697 40.816 474.305 41.208 474.017 41.704C473.729 42.192 473.585 42.744 473.585 43.36V49.348C473.585 49.956 473.729 50.508 474.017 51.004C474.305 51.492 474.697 51.884 475.193 52.18C475.689 52.468 476.241 52.612 476.849 52.612Z" fill="white"/>
<rect width="12" height="12" rx="4" transform="matrix(0 -1 -1 0 295 111)" fill="#FFD275"/>
<path d="M310.23 112.8C308.797 112.8 307.587 112.483 306.6 111.85C305.613 111.21 304.867 110.327 304.36 109.2C303.853 108.073 303.6 106.773 303.6 105.3C303.6 103.827 303.853 102.527 304.36 101.4C304.867 100.273 305.613 99.3933 306.6 98.76C307.587 98.12 308.797 97.8 310.23 97.8C311.903 97.8 313.27 98.23 314.33 99.09C315.39 99.9433 316.117 101.09 316.51 102.53L315.01 102.92C314.703 101.78 314.153 100.877 313.36 100.21C312.567 99.5433 311.523 99.21 310.23 99.21C309.103 99.21 308.167 99.4667 307.42 99.98C306.673 100.493 306.11 101.21 305.73 102.13C305.357 103.043 305.163 104.1 305.15 105.3C305.143 106.5 305.327 107.557 305.7 108.47C306.08 109.383 306.647 110.1 307.4 110.62C308.16 111.133 309.103 111.39 310.23 111.39C311.523 111.39 312.567 111.057 313.36 110.39C314.153 109.717 314.703 108.813 315.01 107.68L316.51 108.07C316.117 109.51 315.39 110.66 314.33 111.52C313.27 112.373 311.903 112.8 310.23 112.8ZM322.846 112.77C322.2 112.77 321.633 112.67 321.146 112.47C320.666 112.27 320.256 112 319.916 111.66C319.583 111.32 319.313 110.933 319.106 110.5C318.9 110.06 318.75 109.597 318.656 109.11C318.563 108.617 318.516 108.127 318.516 107.64V101.7H319.996V107.21C319.996 107.803 320.053 108.353 320.166 108.86C320.28 109.367 320.46 109.81 320.706 110.19C320.96 110.563 321.283 110.853 321.676 111.06C322.076 111.267 322.56 111.37 323.126 111.37C323.646 111.37 324.103 111.28 324.496 111.1C324.896 110.92 325.23 110.663 325.496 110.33C325.77 109.99 325.976 109.58 326.116 109.1C326.256 108.613 326.326 108.067 326.326 107.46L327.366 107.69C327.366 108.797 327.173 109.727 326.786 110.48C326.4 111.233 325.866 111.803 325.186 112.19C324.506 112.577 323.726 112.77 322.846 112.77ZM326.476 112.5V109.84H326.326V101.7H327.796V112.5H326.476ZM330.591 112.5V101.7H331.911V104.3L331.651 103.96C331.771 103.64 331.928 103.347 332.121 103.08C332.315 102.807 332.525 102.583 332.751 102.41C333.031 102.163 333.358 101.977 333.731 101.85C334.105 101.717 334.481 101.64 334.861 101.62C335.241 101.593 335.588 101.62 335.901 101.7V103.08C335.508 102.98 335.078 102.957 334.611 103.01C334.145 103.063 333.715 103.25 333.321 103.57C332.961 103.85 332.691 104.187 332.511 104.58C332.331 104.967 332.211 105.38 332.151 105.82C332.091 106.253 332.061 106.683 332.061 107.11V112.5H330.591ZM337.798 112.5V101.7H339.118V104.3L338.858 103.96C338.978 103.64 339.135 103.347 339.328 103.08C339.522 102.807 339.732 102.583 339.958 102.41C340.238 102.163 340.565 101.977 340.938 101.85C341.312 101.717 341.688 101.64 342.068 101.62C342.448 101.593 342.795 101.62 343.108 101.7V103.08C342.715 102.98 342.285 102.957 341.818 103.01C341.352 103.063 340.922 103.25 340.528 103.57C340.168 103.85 339.898 104.187 339.718 104.58C339.538 104.967 339.418 105.38 339.358 105.82C339.298 106.253 339.268 106.683 339.268 107.11V112.5H337.798ZM349.38 112.8C348.327 112.8 347.413 112.567 346.64 112.1C345.873 111.633 345.277 110.977 344.85 110.13C344.423 109.283 344.21 108.29 344.21 107.15C344.21 105.97 344.42 104.95 344.84 104.09C345.26 103.23 345.85 102.567 346.61 102.1C347.377 101.633 348.28 101.4 349.32 101.4C350.387 101.4 351.297 101.647 352.05 102.14C352.803 102.627 353.373 103.327 353.76 104.24C354.147 105.153 354.323 106.243 354.29 107.51H352.79V106.99C352.763 105.59 352.46 104.533 351.88 103.82C351.307 103.107 350.467 102.75 349.36 102.75C348.2 102.75 347.31 103.127 346.69 103.88C346.077 104.633 345.77 105.707 345.77 107.1C345.77 108.46 346.077 109.517 346.69 110.27C347.31 111.017 348.187 111.39 349.32 111.39C350.093 111.39 350.767 111.213 351.34 110.86C351.92 110.5 352.377 109.983 352.71 109.31L354.08 109.84C353.653 110.78 353.023 111.51 352.19 112.03C351.363 112.543 350.427 112.8 349.38 112.8ZM345.25 107.51V106.28H353.5V107.51H345.25ZM364.016 112.5V106.99C364.016 106.39 363.96 105.84 363.846 105.34C363.733 104.833 363.55 104.393 363.296 104.02C363.05 103.64 362.726 103.347 362.326 103.14C361.933 102.933 361.453 102.83 360.886 102.83C360.366 102.83 359.906 102.92 359.506 103.1C359.113 103.28 358.78 103.54 358.506 103.88C358.24 104.213 358.036 104.62 357.896 105.1C357.756 105.58 357.686 106.127 357.686 106.74L356.646 106.51C356.646 105.403 356.84 104.473 357.226 103.72C357.613 102.967 358.146 102.397 358.826 102.01C359.506 101.623 360.286 101.43 361.166 101.43C361.813 101.43 362.376 101.53 362.856 101.73C363.343 101.93 363.753 102.2 364.086 102.54C364.426 102.88 364.7 103.27 364.906 103.71C365.113 104.143 365.263 104.607 365.356 105.1C365.45 105.587 365.496 106.073 365.496 106.56V112.5H364.016ZM356.206 112.5V101.7H357.536V104.36H357.686V112.5H356.206ZM373.971 112.5C373.365 112.627 372.765 112.677 372.171 112.65C371.585 112.623 371.058 112.497 370.591 112.27C370.131 112.043 369.781 111.69 369.541 111.21C369.348 110.81 369.241 110.407 369.221 110C369.208 109.587 369.201 109.117 369.201 108.59V98.7H370.661V108.53C370.661 108.983 370.665 109.363 370.671 109.67C370.685 109.97 370.755 110.237 370.881 110.47C371.121 110.917 371.501 111.183 372.021 111.27C372.548 111.357 373.198 111.337 373.971 111.21V112.5ZM366.891 102.96V101.7H373.971V102.96H366.891ZM379.103 112.5L384.063 98.1H386.013L390.973 112.5H389.443L384.733 98.92H385.313L380.633 112.5H379.103ZM381.313 109.01V107.63H388.753V109.01H381.313ZM396.809 112.79C395.542 112.79 394.499 112.517 393.679 111.97C392.866 111.423 392.366 110.663 392.179 109.69L393.679 109.44C393.839 110.053 394.202 110.543 394.769 110.91C395.342 111.27 396.049 111.45 396.889 111.45C397.709 111.45 398.356 111.28 398.829 110.94C399.302 110.593 399.539 110.123 399.539 109.53C399.539 109.197 399.462 108.927 399.309 108.72C399.162 108.507 398.859 108.31 398.399 108.13C397.939 107.95 397.252 107.737 396.339 107.49C395.359 107.223 394.592 106.957 394.039 106.69C393.486 106.423 393.092 106.117 392.859 105.77C392.626 105.417 392.509 104.987 392.509 104.48C392.509 103.867 392.682 103.33 393.029 102.87C393.376 102.403 393.856 102.043 394.469 101.79C395.082 101.53 395.796 101.4 396.609 101.4C397.422 101.4 398.149 101.533 398.789 101.8C399.436 102.06 399.956 102.427 400.349 102.9C400.742 103.373 400.976 103.923 401.049 104.55L399.549 104.82C399.449 104.187 399.132 103.687 398.599 103.32C398.072 102.947 397.402 102.753 396.589 102.74C395.822 102.72 395.199 102.867 394.719 103.18C394.239 103.487 393.999 103.897 393.999 104.41C393.999 104.697 394.086 104.943 394.259 105.15C394.432 105.35 394.746 105.54 395.199 105.72C395.659 105.9 396.312 106.097 397.159 106.31C398.152 106.563 398.932 106.83 399.499 107.11C400.066 107.39 400.469 107.72 400.709 108.1C400.949 108.48 401.069 108.95 401.069 109.51C401.069 110.53 400.689 111.333 399.929 111.92C399.176 112.5 398.136 112.79 396.809 112.79ZM407.317 112.79C406.05 112.79 405.007 112.517 404.187 111.97C403.373 111.423 402.873 110.663 402.687 109.69L404.187 109.44C404.347 110.053 404.71 110.543 405.277 110.91C405.85 111.27 406.557 111.45 407.397 111.45C408.217 111.45 408.863 111.28 409.337 110.94C409.81 110.593 410.047 110.123 410.047 109.53C410.047 109.197 409.97 108.927 409.817 108.72C409.67 108.507 409.367 108.31 408.907 108.13C408.447 107.95 407.76 107.737 406.847 107.49C405.867 107.223 405.1 106.957 404.547 106.69C403.993 106.423 403.6 106.117 403.367 105.77C403.133 105.417 403.017 104.987 403.017 104.48C403.017 103.867 403.19 103.33 403.537 102.87C403.883 102.403 404.363 102.043 404.977 101.79C405.59 101.53 406.303 101.4 407.117 101.4C407.93 101.4 408.657 101.533 409.297 101.8C409.943 102.06 410.463 102.427 410.857 102.9C411.25 103.373 411.483 103.923 411.557 104.55L410.057 104.82C409.957 104.187 409.64 103.687 409.107 103.32C408.58 102.947 407.91 102.753 407.097 102.74C406.33 102.72 405.707 102.867 405.227 103.18C404.747 103.487 404.507 103.897 404.507 104.41C404.507 104.697 404.593 104.943 404.767 105.15C404.94 105.35 405.253 105.54 405.707 105.72C406.167 105.9 406.82 106.097 407.667 106.31C408.66 106.563 409.44 106.83 410.007 107.11C410.573 107.39 410.977 107.72 411.217 108.1C411.457 108.48 411.577 108.95 411.577 109.51C411.577 110.53 411.197 111.333 410.437 111.92C409.683 112.5 408.643 112.79 407.317 112.79ZM418.365 112.8C417.311 112.8 416.398 112.567 415.625 112.1C414.858 111.633 414.261 110.977 413.835 110.13C413.408 109.283 413.195 108.29 413.195 107.15C413.195 105.97 413.405 104.95 413.825 104.09C414.245 103.23 414.835 102.567 415.595 102.1C416.361 101.633 417.265 101.4 418.305 101.4C419.371 101.4 420.281 101.647 421.035 102.14C421.788 102.627 422.358 103.327 422.745 104.24C423.131 105.153 423.308 106.243 423.275 107.51H421.775V106.99C421.748 105.59 421.445 104.533 420.865 103.82C420.291 103.107 419.451 102.75 418.345 102.75C417.185 102.75 416.295 103.127 415.675 103.88C415.061 104.633 414.755 105.707 414.755 107.1C414.755 108.46 415.061 109.517 415.675 110.27C416.295 111.017 417.171 111.39 418.305 111.39C419.078 111.39 419.751 111.213 420.325 110.86C420.905 110.5 421.361 109.983 421.695 109.31L423.065 109.84C422.638 110.78 422.008 111.51 421.175 112.03C420.348 112.543 419.411 112.8 418.365 112.8ZM414.235 107.51V106.28H422.485V107.51H414.235ZM431.374 112.5C430.767 112.627 430.167 112.677 429.574 112.65C428.987 112.623 428.46 112.497 427.994 112.27C427.534 112.043 427.184 111.69 426.944 111.21C426.75 110.81 426.644 110.407 426.624 110C426.61 109.587 426.604 109.117 426.604 108.59V98.7H428.064V108.53C428.064 108.983 428.067 109.363 428.074 109.67C428.087 109.97 428.157 110.237 428.284 110.47C428.524 110.917 428.904 111.183 429.424 111.27C429.95 111.357 430.6 111.337 431.374 111.21V112.5ZM424.294 102.96V101.7H431.374V102.96H424.294ZM437.532 112.79C436.265 112.79 435.222 112.517 434.402 111.97C433.588 111.423 433.088 110.663 432.902 109.69L434.402 109.44C434.562 110.053 434.925 110.543 435.492 110.91C436.065 111.27 436.772 111.45 437.612 111.45C438.432 111.45 439.078 111.28 439.552 110.94C440.025 110.593 440.262 110.123 440.262 109.53C440.262 109.197 440.185 108.927 440.032 108.72C439.885 108.507 439.582 108.31 439.122 108.13C438.662 107.95 437.975 107.737 437.062 107.49C436.082 107.223 435.315 106.957 434.762 106.69C434.208 106.423 433.815 106.117 433.582 105.77C433.348 105.417 433.232 104.987 433.232 104.48C433.232 103.867 433.405 103.33 433.752 102.87C434.098 102.403 434.578 102.043 435.192 101.79C435.805 101.53 436.518 101.4 437.332 101.4C438.145 101.4 438.872 101.533 439.512 101.8C440.158 102.06 440.678 102.427 441.072 102.9C441.465 103.373 441.698 103.923 441.772 104.55L440.272 104.82C440.172 104.187 439.855 103.687 439.322 103.32C438.795 102.947 438.125 102.753 437.312 102.74C436.545 102.72 435.922 102.867 435.442 103.18C434.962 103.487 434.722 103.897 434.722 104.41C434.722 104.697 434.808 104.943 434.982 105.15C435.155 105.35 435.468 105.54 435.922 105.72C436.382 105.9 437.035 106.097 437.882 106.31C438.875 106.563 439.655 106.83 440.222 107.11C440.788 107.39 441.192 107.72 441.432 108.1C441.672 108.48 441.792 108.95 441.792 109.51C441.792 110.53 441.412 111.333 440.652 111.92C439.898 112.5 438.858 112.79 437.532 112.79Z" fill="white"/>
<path d="M307.144 145.092V143.22H308.816V145.092H307.144ZM307.144 132.268V130.388H308.816V132.268H307.144ZM308.064 143.74C307.264 143.74 306.549 143.596 305.92 143.308C305.291 143.02 304.773 142.612 304.368 142.084C303.968 141.551 303.707 140.921 303.584 140.196L305.24 139.932C305.4 140.615 305.741 141.159 306.264 141.564C306.787 141.964 307.413 142.164 308.144 142.164C308.869 142.164 309.459 141.991 309.912 141.644C310.371 141.297 310.6 140.855 310.6 140.316C310.6 139.932 310.483 139.62 310.248 139.38C310.019 139.14 309.643 138.937 309.12 138.772L306.416 137.94C304.816 137.444 304.016 136.484 304.016 135.06C304.016 134.388 304.176 133.804 304.496 133.308C304.821 132.812 305.277 132.428 305.864 132.156C306.451 131.884 307.136 131.748 307.92 131.748C308.672 131.759 309.339 131.897 309.92 132.164C310.507 132.431 310.992 132.815 311.376 133.316C311.765 133.817 312.035 134.42 312.184 135.124L310.48 135.428C310.405 135.017 310.248 134.655 310.008 134.34C309.773 134.025 309.475 133.78 309.112 133.604C308.755 133.428 308.352 133.337 307.904 133.332C307.483 133.321 307.104 133.388 306.768 133.532C306.437 133.671 306.173 133.868 305.976 134.124C305.784 134.375 305.688 134.66 305.688 134.98C305.688 135.332 305.824 135.631 306.096 135.876C306.368 136.121 306.797 136.332 307.384 136.508L309.504 137.124C310.475 137.412 311.176 137.799 311.608 138.284C312.04 138.769 312.256 139.415 312.256 140.22C312.256 140.924 312.08 141.54 311.728 142.068C311.381 142.591 310.893 143.001 310.264 143.3C309.635 143.593 308.901 143.74 308.064 143.74ZM320.583 143.74C319.991 143.74 319.439 143.62 318.927 143.38C318.42 143.135 317.986 142.799 317.623 142.372C317.26 141.94 317.002 141.444 316.847 140.884L318.455 140.452C318.546 140.793 318.7 141.089 318.919 141.34C319.143 141.591 319.404 141.785 319.703 141.924C320.002 142.057 320.311 142.124 320.631 142.124C321.052 142.124 321.434 142.023 321.775 141.82C322.122 141.617 322.394 141.345 322.591 141.004C322.794 140.663 322.895 140.287 322.895 139.876C322.895 139.455 322.791 139.073 322.583 138.732C322.38 138.391 322.106 138.121 321.759 137.924C321.418 137.721 321.042 137.62 320.631 137.62C320.162 137.62 319.764 137.713 319.439 137.9C319.114 138.087 318.86 138.303 318.679 138.548L317.223 138.036L317.575 131.98H323.791V133.556H318.431L319.111 132.924L318.831 137.46L318.503 137.036C318.807 136.732 319.17 136.5 319.591 136.34C320.012 136.18 320.431 136.1 320.847 136.1C321.562 136.1 322.199 136.265 322.759 136.596C323.324 136.927 323.77 137.377 324.095 137.948C324.42 138.513 324.583 139.156 324.583 139.876C324.583 140.591 324.399 141.241 324.031 141.828C323.663 142.409 323.175 142.873 322.567 143.22C321.959 143.567 321.298 143.74 320.583 143.74ZM330.455 143.74C329.708 143.74 329.036 143.564 328.439 143.212C327.842 142.855 327.367 142.367 327.015 141.748C326.668 141.129 326.495 140.425 326.495 139.636V135.964C326.495 135.127 326.668 134.391 327.015 133.756C327.367 133.121 327.852 132.628 328.471 132.276C329.095 131.924 329.812 131.748 330.623 131.748C331.231 131.748 331.802 131.863 332.335 132.092C332.868 132.321 333.33 132.663 333.719 133.116L332.495 134.26C332.276 133.977 332.002 133.753 331.671 133.588C331.346 133.417 330.996 133.332 330.623 133.332C330.143 133.332 329.722 133.447 329.359 133.676C328.996 133.9 328.711 134.196 328.503 134.564C328.3 134.932 328.199 135.327 328.199 135.748V137.86L327.871 137.492C328.202 137.06 328.612 136.719 329.103 136.468C329.594 136.217 330.119 136.092 330.679 136.092C331.394 136.092 332.031 136.26 332.591 136.596C333.156 136.927 333.599 137.377 333.919 137.948C334.244 138.519 334.407 139.161 334.407 139.876C334.407 140.596 334.226 141.249 333.863 141.836C333.506 142.417 333.026 142.881 332.423 143.228C331.826 143.569 331.17 143.74 330.455 143.74ZM330.455 142.132C330.871 142.132 331.25 142.031 331.591 141.828C331.932 141.625 332.204 141.353 332.407 141.012C332.61 140.671 332.711 140.292 332.711 139.876C332.711 139.46 332.61 139.081 332.407 138.74C332.21 138.399 331.94 138.127 331.599 137.924C331.258 137.721 330.879 137.62 330.463 137.62C330.047 137.62 329.666 137.721 329.319 137.924C328.978 138.127 328.706 138.399 328.503 138.74C328.3 139.081 328.199 139.46 328.199 139.876C328.199 140.287 328.3 140.663 328.503 141.004C328.706 141.345 328.978 141.62 329.319 141.828C329.66 142.031 330.039 142.132 330.455 142.132ZM340.449 143.74C339.665 143.74 338.971 143.569 338.369 143.228C337.766 142.881 337.291 142.407 336.945 141.804C336.603 141.201 336.433 140.508 336.433 139.724V135.756C336.433 134.972 336.603 134.279 336.945 133.676C337.291 133.073 337.766 132.601 338.369 132.26C338.971 131.913 339.665 131.74 340.449 131.74C341.233 131.74 341.926 131.913 342.529 132.26C343.131 132.601 343.603 133.073 343.944 133.676C344.291 134.279 344.465 134.972 344.465 135.756V139.724C344.465 140.508 344.291 141.201 343.944 141.804C343.603 142.407 343.131 142.881 342.529 143.228C341.926 143.569 341.233 143.74 340.449 143.74ZM340.449 142.14C340.875 142.14 341.262 142.039 341.609 141.836C341.961 141.628 342.241 141.351 342.449 141.004C342.657 140.652 342.761 140.26 342.761 139.828V135.636C342.761 135.209 342.657 134.823 342.449 134.476C342.241 134.124 341.961 133.847 341.609 133.644C341.262 133.436 340.875 133.332 340.449 133.332C340.022 133.332 339.633 133.436 339.281 133.644C338.934 133.847 338.657 134.124 338.449 134.476C338.241 134.823 338.137 135.209 338.137 135.636V139.828C338.137 140.26 338.241 140.652 338.449 141.004C338.657 141.351 338.934 141.628 339.281 141.836C339.633 142.039 340.022 142.14 340.449 142.14ZM346.538 145.412L346.642 144.668C346.871 144.684 347.05 144.641 347.178 144.54C347.306 144.439 347.391 144.297 347.434 144.116C347.477 143.935 347.485 143.729 347.458 143.5H346.538V141.572H348.306V143.66C348.306 144.289 348.154 144.764 347.85 145.084C347.551 145.404 347.114 145.513 346.538 145.412ZM355.083 131.748C355.824 131.748 356.493 131.927 357.091 132.284C357.688 132.636 358.163 133.121 358.515 133.74C358.867 134.359 359.043 135.065 359.043 135.86V139.524C359.043 140.367 358.867 141.105 358.515 141.74C358.168 142.369 357.683 142.86 357.059 143.212C356.44 143.564 355.725 143.74 354.915 143.74C354.307 143.74 353.736 143.625 353.203 143.396C352.669 143.167 352.205 142.825 351.811 142.372L353.043 141.228C353.261 141.511 353.536 141.737 353.867 141.908C354.197 142.079 354.547 142.164 354.915 142.164C355.389 142.164 355.808 142.049 356.171 141.82C356.539 141.591 356.824 141.292 357.027 140.924C357.229 140.556 357.331 140.161 357.331 139.74V137.628L357.667 137.996C357.336 138.428 356.925 138.769 356.435 139.02C355.944 139.271 355.419 139.396 354.859 139.396C354.139 139.396 353.499 139.231 352.939 138.9C352.379 138.569 351.936 138.119 351.611 137.548C351.285 136.977 351.123 136.332 351.123 135.612C351.123 134.892 351.304 134.241 351.667 133.66C352.029 133.079 352.509 132.615 353.107 132.268C353.704 131.921 354.363 131.748 355.083 131.748ZM355.083 133.364C354.667 133.364 354.285 133.465 353.939 133.668C353.597 133.865 353.325 134.135 353.123 134.476C352.92 134.817 352.819 135.196 352.819 135.612C352.819 136.028 352.92 136.409 353.123 136.756C353.325 137.097 353.597 137.369 353.939 137.572C354.28 137.775 354.659 137.876 355.075 137.876C355.491 137.876 355.869 137.775 356.211 137.572C356.552 137.369 356.824 137.097 357.027 136.756C357.229 136.409 357.331 136.028 357.331 135.612C357.331 135.201 357.229 134.825 357.027 134.484C356.829 134.143 356.56 133.871 356.219 133.668C355.877 133.465 355.499 133.364 355.083 133.364ZM364.964 143.74C364.212 143.74 363.546 143.591 362.964 143.292C362.388 142.988 361.935 142.567 361.604 142.028C361.279 141.489 361.116 140.865 361.116 140.156C361.116 139.495 361.271 138.889 361.58 138.34C361.89 137.791 362.351 137.359 362.964 137.044L362.932 137.62C362.442 137.316 362.063 136.937 361.796 136.484C361.535 136.025 361.404 135.513 361.404 134.948C361.404 134.292 361.556 133.724 361.86 133.244C362.164 132.764 362.583 132.393 363.116 132.132C363.655 131.871 364.271 131.74 364.964 131.74C365.658 131.74 366.271 131.871 366.804 132.132C367.338 132.393 367.756 132.764 368.06 133.244C368.364 133.724 368.516 134.292 368.516 134.948C368.516 135.513 368.391 136.023 368.14 136.476C367.89 136.929 367.506 137.311 366.988 137.62L366.964 137.06C367.572 137.359 368.034 137.785 368.348 138.34C368.663 138.889 368.82 139.495 368.82 140.156C368.82 140.865 368.655 141.489 368.324 142.028C367.994 142.567 367.538 142.988 366.956 143.292C366.375 143.591 365.711 143.74 364.964 143.74ZM364.964 142.148C365.583 142.148 366.084 141.98 366.468 141.644C366.852 141.303 367.044 140.807 367.044 140.156C367.044 139.505 366.852 139.009 366.468 138.668C366.09 138.321 365.588 138.148 364.964 138.148C364.34 138.148 363.836 138.321 363.452 138.668C363.074 139.009 362.884 139.505 362.884 140.156C362.884 140.807 363.076 141.303 363.46 141.644C363.844 141.98 364.346 142.148 364.964 142.148ZM364.964 136.548C365.492 136.548 365.919 136.417 366.244 136.156C366.575 135.889 366.74 135.487 366.74 134.948C366.74 134.409 366.575 134.007 366.244 133.74C365.919 133.468 365.492 133.332 364.964 133.332C364.436 133.332 364.007 133.468 363.676 133.74C363.346 134.007 363.18 134.409 363.18 134.948C363.18 135.487 363.346 135.889 363.676 136.156C364.007 136.417 364.436 136.548 364.964 136.548ZM374.917 143.74C374.133 143.74 373.44 143.569 372.837 143.228C372.235 142.881 371.76 142.407 371.413 141.804C371.072 141.201 370.901 140.508 370.901 139.724V135.756C370.901 134.972 371.072 134.279 371.413 133.676C371.76 133.073 372.235 132.601 372.837 132.26C373.44 131.913 374.133 131.74 374.917 131.74C375.701 131.74 376.395 131.913 376.997 132.26C377.6 132.601 378.072 133.073 378.413 133.676C378.76 134.279 378.933 134.972 378.933 135.756V139.724C378.933 140.508 378.76 141.201 378.413 141.804C378.072 142.407 377.6 142.881 376.997 143.228C376.395 143.569 375.701 143.74 374.917 143.74ZM374.917 142.14C375.344 142.14 375.731 142.039 376.077 141.836C376.429 141.628 376.709 141.351 376.917 141.004C377.125 140.652 377.229 140.26 377.229 139.828V135.636C377.229 135.209 377.125 134.823 376.917 134.476C376.709 134.124 376.429 133.847 376.077 133.644C375.731 133.436 375.344 133.332 374.917 133.332C374.491 133.332 374.101 133.436 373.749 133.644C373.403 133.847 373.125 134.124 372.917 134.476C372.709 134.823 372.605 135.209 372.605 135.636V139.828C372.605 140.26 372.709 140.652 372.917 141.004C373.125 141.351 373.403 141.628 373.749 141.836C374.101 142.039 374.491 142.14 374.917 142.14Z" fill="white"/>
<rect width="12" height="12" rx="4" transform="matrix(0 -1 -1 0 295 184)" fill="#10AF8A"/>
<path d="M304.4 185.5V171.1H305.88L313.81 182.9V171.1H315.29V185.5H313.81L305.88 173.69V185.5H304.4ZM322.601 185.8C321.528 185.8 320.611 185.557 319.851 185.07C319.091 184.583 318.508 183.91 318.101 183.05C317.695 182.19 317.491 181.203 317.491 180.09C317.491 178.957 317.698 177.963 318.111 177.11C318.525 176.257 319.111 175.593 319.871 175.12C320.638 174.64 321.548 174.4 322.601 174.4C323.681 174.4 324.601 174.643 325.361 175.13C326.128 175.61 326.711 176.28 327.111 177.14C327.518 177.993 327.721 178.977 327.721 180.09C327.721 181.223 327.518 182.22 327.111 183.08C326.705 183.933 326.118 184.6 325.351 185.08C324.585 185.56 323.668 185.8 322.601 185.8ZM322.601 184.39C323.801 184.39 324.695 183.993 325.281 183.2C325.868 182.4 326.161 181.363 326.161 180.09C326.161 178.783 325.865 177.743 325.271 176.97C324.685 176.197 323.795 175.81 322.601 175.81C321.795 175.81 321.128 175.993 320.601 176.36C320.081 176.72 319.691 177.223 319.431 177.87C319.178 178.51 319.051 179.25 319.051 180.09C319.051 181.39 319.351 182.433 319.951 183.22C320.551 184 321.435 184.39 322.601 184.39ZM337.727 185.5V179.99C337.727 179.39 337.671 178.84 337.557 178.34C337.444 177.833 337.261 177.393 337.007 177.02C336.761 176.64 336.437 176.347 336.037 176.14C335.644 175.933 335.164 175.83 334.597 175.83C334.077 175.83 333.617 175.92 333.217 176.1C332.824 176.28 332.491 176.54 332.217 176.88C331.951 177.213 331.747 177.62 331.607 178.1C331.467 178.58 331.397 179.127 331.397 179.74L330.357 179.51C330.357 178.403 330.551 177.473 330.937 176.72C331.324 175.967 331.857 175.397 332.537 175.01C333.217 174.623 333.997 174.43 334.877 174.43C335.524 174.43 336.087 174.53 336.567 174.73C337.054 174.93 337.464 175.2 337.797 175.54C338.137 175.88 338.411 176.27 338.617 176.71C338.824 177.143 338.974 177.607 339.067 178.1C339.161 178.587 339.207 179.073 339.207 179.56V185.5H337.727ZM329.917 185.5V174.7H331.247V177.36H331.397V185.5H329.917ZM351.636 185.8C350.203 185.8 348.993 185.483 348.006 184.85C347.02 184.21 346.273 183.327 345.766 182.2C345.26 181.073 345.006 179.773 345.006 178.3C345.006 176.827 345.26 175.527 345.766 174.4C346.273 173.273 347.02 172.393 348.006 171.76C348.993 171.12 350.203 170.8 351.636 170.8C353.31 170.8 354.676 171.23 355.736 172.09C356.796 172.943 357.523 174.09 357.916 175.53L356.416 175.92C356.11 174.78 355.56 173.877 354.766 173.21C353.973 172.543 352.93 172.21 351.636 172.21C350.51 172.21 349.573 172.467 348.826 172.98C348.08 173.493 347.516 174.21 347.136 175.13C346.763 176.043 346.57 177.1 346.556 178.3C346.55 179.5 346.733 180.557 347.106 181.47C347.486 182.383 348.053 183.1 348.806 183.62C349.566 184.133 350.51 184.39 351.636 184.39C352.93 184.39 353.973 184.057 354.766 183.39C355.56 182.717 356.11 181.813 356.416 180.68L357.916 181.07C357.523 182.51 356.796 183.66 355.736 184.52C354.676 185.373 353.31 185.8 351.636 185.8ZM364.253 185.77C363.606 185.77 363.039 185.67 362.553 185.47C362.073 185.27 361.663 185 361.323 184.66C360.989 184.32 360.719 183.933 360.513 183.5C360.306 183.06 360.156 182.597 360.063 182.11C359.969 181.617 359.923 181.127 359.923 180.64V174.7H361.403V180.21C361.403 180.803 361.459 181.353 361.573 181.86C361.686 182.367 361.866 182.81 362.113 183.19C362.366 183.563 362.689 183.853 363.083 184.06C363.483 184.267 363.966 184.37 364.533 184.37C365.053 184.37 365.509 184.28 365.903 184.1C366.303 183.92 366.636 183.663 366.903 183.33C367.176 182.99 367.383 182.58 367.523 182.1C367.663 181.613 367.733 181.067 367.733 180.46L368.773 180.69C368.773 181.797 368.579 182.727 368.193 183.48C367.806 184.233 367.273 184.803 366.593 185.19C365.913 185.577 365.133 185.77 364.253 185.77ZM367.883 185.5V182.84H367.733V174.7H369.203V185.5H367.883ZM371.998 185.5V174.7H373.318V177.3L373.058 176.96C373.178 176.64 373.334 176.347 373.528 176.08C373.721 175.807 373.931 175.583 374.158 175.41C374.438 175.163 374.764 174.977 375.138 174.85C375.511 174.717 375.888 174.64 376.268 174.62C376.648 174.593 376.994 174.62 377.308 174.7V176.08C376.914 175.98 376.484 175.957 376.018 176.01C375.551 176.063 375.121 176.25 374.728 176.57C374.368 176.85 374.098 177.187 373.918 177.58C373.738 177.967 373.618 178.38 373.558 178.82C373.498 179.253 373.468 179.683 373.468 180.11V185.5H371.998ZM379.205 185.5V174.7H380.525V177.3L380.265 176.96C380.385 176.64 380.541 176.347 380.735 176.08C380.928 175.807 381.138 175.583 381.365 175.41C381.645 175.163 381.971 174.977 382.345 174.85C382.718 174.717 383.095 174.64 383.475 174.62C383.855 174.593 384.201 174.62 384.515 174.7V176.08C384.121 175.98 383.691 175.957 383.225 176.01C382.758 176.063 382.328 176.25 381.935 176.57C381.575 176.85 381.305 177.187 381.125 177.58C380.945 177.967 380.825 178.38 380.765 178.82C380.705 179.253 380.675 179.683 380.675 180.11V185.5H379.205ZM390.786 185.8C389.733 185.8 388.82 185.567 388.046 185.1C387.28 184.633 386.683 183.977 386.256 183.13C385.83 182.283 385.616 181.29 385.616 180.15C385.616 178.97 385.826 177.95 386.246 177.09C386.666 176.23 387.256 175.567 388.016 175.1C388.783 174.633 389.686 174.4 390.726 174.4C391.793 174.4 392.703 174.647 393.456 175.14C394.21 175.627 394.78 176.327 395.166 177.24C395.553 178.153 395.73 179.243 395.696 180.51H394.196V179.99C394.17 178.59 393.866 177.533 393.286 176.82C392.713 176.107 391.873 175.75 390.766 175.75C389.606 175.75 388.716 176.127 388.096 176.88C387.483 177.633 387.176 178.707 387.176 180.1C387.176 181.46 387.483 182.517 388.096 183.27C388.716 184.017 389.593 184.39 390.726 184.39C391.5 184.39 392.173 184.213 392.746 183.86C393.326 183.5 393.783 182.983 394.116 182.31L395.486 182.84C395.06 183.78 394.43 184.51 393.596 185.03C392.77 185.543 391.833 185.8 390.786 185.8ZM386.656 180.51V179.28H394.906V180.51H386.656ZM405.423 185.5V179.99C405.423 179.39 405.366 178.84 405.253 178.34C405.139 177.833 404.956 177.393 404.703 177.02C404.456 176.64 404.133 176.347 403.733 176.14C403.339 175.933 402.859 175.83 402.293 175.83C401.773 175.83 401.313 175.92 400.913 176.1C400.519 176.28 400.186 176.54 399.913 176.88C399.646 177.213 399.443 177.62 399.303 178.1C399.163 178.58 399.093 179.127 399.093 179.74L398.053 179.51C398.053 178.403 398.246 177.473 398.633 176.72C399.019 175.967 399.553 175.397 400.233 175.01C400.913 174.623 401.693 174.43 402.573 174.43C403.219 174.43 403.783 174.53 404.263 174.73C404.749 174.93 405.159 175.2 405.493 175.54C405.833 175.88 406.106 176.27 406.313 176.71C406.519 177.143 406.669 177.607 406.763 178.1C406.856 178.587 406.903 179.073 406.903 179.56V185.5H405.423ZM397.613 185.5V174.7H398.943V177.36H399.093V185.5H397.613ZM415.378 185.5C414.771 185.627 414.171 185.677 413.578 185.65C412.991 185.623 412.464 185.497 411.998 185.27C411.538 185.043 411.188 184.69 410.948 184.21C410.754 183.81 410.648 183.407 410.628 183C410.614 182.587 410.608 182.117 410.608 181.59V171.7H412.068V181.53C412.068 181.983 412.071 182.363 412.078 182.67C412.091 182.97 412.161 183.237 412.288 183.47C412.528 183.917 412.908 184.183 413.428 184.27C413.954 184.357 414.604 184.337 415.378 184.21V185.5ZM408.298 175.96V174.7H415.378V175.96H408.298ZM420.509 185.5L425.469 171.1H427.419L432.379 185.5H430.849L426.139 171.92H426.719L422.039 185.5H420.509ZM422.719 182.01V180.63H430.159V182.01H422.719ZM438.215 185.79C436.948 185.79 435.905 185.517 435.085 184.97C434.272 184.423 433.772 183.663 433.585 182.69L435.085 182.44C435.245 183.053 435.608 183.543 436.175 183.91C436.748 184.27 437.455 184.45 438.295 184.45C439.115 184.45 439.762 184.28 440.235 183.94C440.708 183.593 440.945 183.123 440.945 182.53C440.945 182.197 440.868 181.927 440.715 181.72C440.568 181.507 440.265 181.31 439.805 181.13C439.345 180.95 438.658 180.737 437.745 180.49C436.765 180.223 435.998 179.957 435.445 179.69C434.892 179.423 434.498 179.117 434.265 178.77C434.032 178.417 433.915 177.987 433.915 177.48C433.915 176.867 434.088 176.33 434.435 175.87C434.782 175.403 435.262 175.043 435.875 174.79C436.488 174.53 437.202 174.4 438.015 174.4C438.828 174.4 439.555 174.533 440.195 174.8C440.842 175.06 441.362 175.427 441.755 175.9C442.148 176.373 442.382 176.923 442.455 177.55L440.955 177.82C440.855 177.187 440.538 176.687 440.005 176.32C439.478 175.947 438.808 175.753 437.995 175.74C437.228 175.72 436.605 175.867 436.125 176.18C435.645 176.487 435.405 176.897 435.405 177.41C435.405 177.697 435.492 177.943 435.665 178.15C435.838 178.35 436.152 178.54 436.605 178.72C437.065 178.9 437.718 179.097 438.565 179.31C439.558 179.563 440.338 179.83 440.905 180.11C441.472 180.39 441.875 180.72 442.115 181.1C442.355 181.48 442.475 181.95 442.475 182.51C442.475 183.53 442.095 184.333 441.335 184.92C440.582 185.5 439.542 185.79 438.215 185.79ZM448.723 185.79C447.456 185.79 446.413 185.517 445.593 184.97C444.78 184.423 444.28 183.663 444.093 182.69L445.593 182.44C445.753 183.053 446.116 183.543 446.683 183.91C447.256 184.27 447.963 184.45 448.803 184.45C449.623 184.45 450.27 184.28 450.743 183.94C451.216 183.593 451.453 183.123 451.453 182.53C451.453 182.197 451.376 181.927 451.223 181.72C451.076 181.507 450.773 181.31 450.313 181.13C449.853 180.95 449.166 180.737 448.253 180.49C447.273 180.223 446.506 179.957 445.953 179.69C445.4 179.423 445.006 179.117 444.773 178.77C444.54 178.417 444.423 177.987 444.423 177.48C444.423 176.867 444.596 176.33 444.943 175.87C445.29 175.403 445.77 175.043 446.383 174.79C446.996 174.53 447.71 174.4 448.523 174.4C449.336 174.4 450.063 174.533 450.703 174.8C451.35 175.06 451.87 175.427 452.263 175.9C452.656 176.373 452.89 176.923 452.963 177.55L451.463 177.82C451.363 177.187 451.046 176.687 450.513 176.32C449.986 175.947 449.316 175.753 448.503 175.74C447.736 175.72 447.113 175.867 446.633 176.18C446.153 176.487 445.913 176.897 445.913 177.41C445.913 177.697 446 177.943 446.173 178.15C446.346 178.35 446.66 178.54 447.113 178.72C447.573 178.9 448.226 179.097 449.073 179.31C450.066 179.563 450.846 179.83 451.413 180.11C451.98 180.39 452.383 180.72 452.623 181.1C452.863 181.48 452.983 181.95 452.983 182.51C452.983 183.53 452.603 184.333 451.843 184.92C451.09 185.5 450.05 185.79 448.723 185.79ZM459.771 185.8C458.717 185.8 457.804 185.567 457.031 185.1C456.264 184.633 455.667 183.977 455.241 183.13C454.814 182.283 454.601 181.29 454.601 180.15C454.601 178.97 454.811 177.95 455.231 177.09C455.651 176.23 456.241 175.567 457.001 175.1C457.767 174.633 458.671 174.4 459.711 174.4C460.777 174.4 461.687 174.647 462.441 175.14C463.194 175.627 463.764 176.327 464.151 177.24C464.537 178.153 464.714 179.243 464.681 180.51H463.181V179.99C463.154 178.59 462.851 177.533 462.271 176.82C461.697 176.107 460.857 175.75 459.751 175.75C458.591 175.75 457.701 176.127 457.081 176.88C456.467 177.633 456.161 178.707 456.161 180.1C456.161 181.46 456.467 182.517 457.081 183.27C457.701 184.017 458.577 184.39 459.711 184.39C460.484 184.39 461.157 184.213 461.731 183.86C462.311 183.5 462.767 182.983 463.101 182.31L464.471 182.84C464.044 183.78 463.414 184.51 462.581 185.03C461.754 185.543 460.817 185.8 459.771 185.8ZM455.641 180.51V179.28H463.891V180.51H455.641ZM472.78 185.5C472.173 185.627 471.573 185.677 470.98 185.65C470.393 185.623 469.867 185.497 469.4 185.27C468.94 185.043 468.59 184.69 468.35 184.21C468.157 183.81 468.05 183.407 468.03 183C468.017 182.587 468.01 182.117 468.01 181.59V171.7H469.47V181.53C469.47 181.983 469.473 182.363 469.48 182.67C469.493 182.97 469.563 183.237 469.69 183.47C469.93 183.917 470.31 184.183 470.83 184.27C471.357 184.357 472.007 184.337 472.78 184.21V185.5ZM465.7 175.96V174.7H472.78V175.96H465.7ZM478.938 185.79C477.671 185.79 476.628 185.517 475.808 184.97C474.994 184.423 474.494 183.663 474.308 182.69L475.808 182.44C475.968 183.053 476.331 183.543 476.898 183.91C477.471 184.27 478.178 184.45 479.018 184.45C479.838 184.45 480.484 184.28 480.958 183.94C481.431 183.593 481.668 183.123 481.668 182.53C481.668 182.197 481.591 181.927 481.438 181.72C481.291 181.507 480.988 181.31 480.528 181.13C480.068 180.95 479.381 180.737 478.468 180.49C477.488 180.223 476.721 179.957 476.168 179.69C475.614 179.423 475.221 179.117 474.988 178.77C474.754 178.417 474.638 177.987 474.638 177.48C474.638 176.867 474.811 176.33 475.158 175.87C475.504 175.403 475.984 175.043 476.598 174.79C477.211 174.53 477.924 174.4 478.738 174.4C479.551 174.4 480.278 174.533 480.918 174.8C481.564 175.06 482.084 175.427 482.478 175.9C482.871 176.373 483.104 176.923 483.178 177.55L481.678 177.82C481.578 177.187 481.261 176.687 480.728 176.32C480.201 175.947 479.531 175.753 478.718 175.74C477.951 175.72 477.328 175.867 476.848 176.18C476.368 176.487 476.128 176.897 476.128 177.41C476.128 177.697 476.214 177.943 476.388 178.15C476.561 178.35 476.874 178.54 477.328 178.72C477.788 178.9 478.441 179.097 479.288 179.31C480.281 179.563 481.061 179.83 481.628 180.11C482.194 180.39 482.598 180.72 482.838 181.1C483.078 181.48 483.198 181.95 483.198 182.51C483.198 183.53 482.818 184.333 482.058 184.92C481.304 185.5 480.264 185.79 478.938 185.79Z" fill="white"/>
<path d="M307.144 218.092V216.22H308.816V218.092H307.144ZM307.144 205.268V203.388H308.816V205.268H307.144ZM308.064 216.74C307.264 216.74 306.549 216.596 305.92 216.308C305.291 216.02 304.773 215.612 304.368 215.084C303.968 214.551 303.707 213.921 303.584 213.196L305.24 212.932C305.4 213.615 305.741 214.159 306.264 214.564C306.787 214.964 307.413 215.164 308.144 215.164C308.869 215.164 309.459 214.991 309.912 214.644C310.371 214.297 310.6 213.855 310.6 213.316C310.6 212.932 310.483 212.62 310.248 212.38C310.019 212.14 309.643 211.937 309.12 211.772L306.416 210.94C304.816 210.444 304.016 209.484 304.016 208.06C304.016 207.388 304.176 206.804 304.496 206.308C304.821 205.812 305.277 205.428 305.864 205.156C306.451 204.884 307.136 204.748 307.92 204.748C308.672 204.759 309.339 204.897 309.92 205.164C310.507 205.431 310.992 205.815 311.376 206.316C311.765 206.817 312.035 207.42 312.184 208.124L310.48 208.428C310.405 208.017 310.248 207.655 310.008 207.34C309.773 207.025 309.475 206.78 309.112 206.604C308.755 206.428 308.352 206.337 307.904 206.332C307.483 206.321 307.104 206.388 306.768 206.532C306.437 206.671 306.173 206.868 305.976 207.124C305.784 207.375 305.688 207.66 305.688 207.98C305.688 208.332 305.824 208.631 306.096 208.876C306.368 209.121 306.797 209.332 307.384 209.508L309.504 210.124C310.475 210.412 311.176 210.799 311.608 211.284C312.04 211.769 312.256 212.415 312.256 213.22C312.256 213.924 312.08 214.54 311.728 215.068C311.381 215.591 310.893 216.001 310.264 216.3C309.635 216.593 308.901 216.74 308.064 216.74ZM320.391 216.716C319.82 216.716 319.284 216.609 318.783 216.396C318.282 216.177 317.847 215.868 317.479 215.468C317.116 215.068 316.852 214.596 316.687 214.052L318.303 213.604C318.458 214.1 318.727 214.481 319.111 214.748C319.495 215.009 319.922 215.137 320.391 215.132C320.812 215.127 321.183 215.028 321.503 214.836C321.823 214.644 322.074 214.385 322.255 214.06C322.436 213.729 322.527 213.351 322.527 212.924C322.527 212.284 322.327 211.756 321.927 211.34C321.532 210.924 321.015 210.716 320.375 210.716C320.194 210.716 320.007 210.743 319.815 210.796C319.628 210.849 319.452 210.919 319.287 211.004L318.503 209.684L322.567 206.092L322.743 206.572H317.143V204.98H324.071V206.572L320.695 209.82L320.679 209.276C321.404 209.276 322.034 209.439 322.567 209.764C323.1 210.084 323.511 210.521 323.799 211.076C324.092 211.625 324.239 212.241 324.239 212.924C324.239 213.66 324.066 214.313 323.719 214.884C323.378 215.455 322.916 215.903 322.335 216.228C321.759 216.553 321.111 216.716 320.391 216.716ZM329.547 216.716C328.976 216.716 328.44 216.609 327.939 216.396C327.438 216.177 327.003 215.868 326.635 215.468C326.272 215.068 326.008 214.596 325.843 214.052L327.459 213.604C327.614 214.1 327.883 214.481 328.267 214.748C328.651 215.009 329.078 215.137 329.547 215.132C329.968 215.127 330.339 215.028 330.659 214.836C330.979 214.644 331.23 214.385 331.411 214.06C331.592 213.729 331.683 213.351 331.683 212.924C331.683 212.284 331.483 211.756 331.083 211.34C330.688 210.924 330.171 210.716 329.531 210.716C329.35 210.716 329.163 210.743 328.971 210.796C328.784 210.849 328.608 210.919 328.443 211.004L327.659 209.684L331.723 206.092L331.899 206.572H326.299V204.98H333.227V206.572L329.851 209.82L329.835 209.276C330.56 209.276 331.19 209.439 331.723 209.764C332.256 210.084 332.667 210.521 332.955 211.076C333.248 211.625 333.395 212.241 333.395 212.924C333.395 213.66 333.222 214.313 332.875 214.884C332.534 215.455 332.072 215.903 331.491 216.228C330.915 216.553 330.267 216.716 329.547 216.716ZM340.359 216.5V214.492H335.159V212.908L338.903 204.98H340.815L337.071 212.908H340.359V209.788H342.055V212.908H343.199V214.492H342.055V216.5H340.359ZM344.648 218.412L344.752 217.668C344.981 217.684 345.16 217.641 345.288 217.54C345.416 217.439 345.501 217.297 345.544 217.116C345.586 216.935 345.594 216.729 345.568 216.5H344.648V214.572H346.416V216.66C346.416 217.289 346.264 217.764 345.96 218.084C345.661 218.404 345.224 218.513 344.648 218.412ZM352.864 216.74C352.272 216.74 351.72 216.62 351.208 216.38C350.701 216.135 350.267 215.799 349.904 215.372C349.541 214.94 349.283 214.444 349.128 213.884L350.736 213.452C350.827 213.793 350.981 214.089 351.2 214.34C351.424 214.591 351.685 214.785 351.984 214.924C352.283 215.057 352.592 215.124 352.912 215.124C353.333 215.124 353.715 215.023 354.056 214.82C354.403 214.617 354.675 214.345 354.872 214.004C355.075 213.663 355.176 213.287 355.176 212.876C355.176 212.455 355.072 212.073 354.864 211.732C354.661 211.391 354.387 211.121 354.04 210.924C353.699 210.721 353.323 210.62 352.912 210.62C352.443 210.62 352.045 210.713 351.72 210.9C351.395 211.087 351.141 211.303 350.96 211.548L349.504 211.036L349.856 204.98H356.072V206.556H350.712L351.392 205.924L351.112 210.46L350.784 210.036C351.088 209.732 351.451 209.5 351.872 209.34C352.293 209.18 352.712 209.1 353.128 209.1C353.843 209.1 354.48 209.265 355.04 209.596C355.605 209.927 356.051 210.377 356.376 210.948C356.701 211.513 356.864 212.156 356.864 212.876C356.864 213.591 356.68 214.241 356.312 214.828C355.944 215.409 355.456 215.873 354.848 216.22C354.24 216.567 353.579 216.74 352.864 216.74ZM362.736 216.74C361.99 216.74 361.318 216.564 360.72 216.212C360.123 215.855 359.648 215.367 359.296 214.748C358.95 214.129 358.776 213.425 358.776 212.636V208.964C358.776 208.127 358.95 207.391 359.296 206.756C359.648 206.121 360.134 205.628 360.752 205.276C361.376 204.924 362.094 204.748 362.904 204.748C363.512 204.748 364.083 204.863 364.616 205.092C365.15 205.321 365.611 205.663 366 206.116L364.776 207.26C364.558 206.977 364.283 206.753 363.952 206.588C363.627 206.417 363.278 206.332 362.904 206.332C362.424 206.332 362.003 206.447 361.64 206.676C361.278 206.9 360.992 207.196 360.784 207.564C360.582 207.932 360.48 208.327 360.48 208.748V210.86L360.152 210.492C360.483 210.06 360.894 209.719 361.384 209.468C361.875 209.217 362.4 209.092 362.96 209.092C363.675 209.092 364.312 209.26 364.872 209.596C365.438 209.927 365.88 210.377 366.2 210.948C366.526 211.519 366.688 212.161 366.688 212.876C366.688 213.596 366.507 214.249 366.144 214.836C365.787 215.417 365.307 215.881 364.704 216.228C364.107 216.569 363.451 216.74 362.736 216.74ZM362.736 215.132C363.152 215.132 363.531 215.031 363.872 214.828C364.214 214.625 364.486 214.353 364.688 214.012C364.891 213.671 364.992 213.292 364.992 212.876C364.992 212.46 364.891 212.081 364.688 211.74C364.491 211.399 364.222 211.127 363.88 210.924C363.539 210.721 363.16 210.62 362.744 210.62C362.328 210.62 361.947 210.721 361.6 210.924C361.259 211.127 360.987 211.399 360.784 211.74C360.582 212.081 360.48 212.46 360.48 212.876C360.48 213.287 360.582 213.663 360.784 214.004C360.987 214.345 361.259 214.62 361.6 214.828C361.942 215.031 362.32 215.132 362.736 215.132ZM372.73 216.74C371.946 216.74 371.252 216.569 370.65 216.228C370.047 215.881 369.572 215.407 369.226 214.804C368.884 214.201 368.714 213.508 368.714 212.724V208.756C368.714 207.972 368.884 207.279 369.226 206.676C369.572 206.073 370.047 205.601 370.65 205.26C371.252 204.913 371.946 204.74 372.73 204.74C373.514 204.74 374.207 204.913 374.81 205.26C375.412 205.601 375.884 206.073 376.226 206.676C376.572 207.279 376.746 207.972 376.746 208.756V212.724C376.746 213.508 376.572 214.201 376.226 214.804C375.884 215.407 375.412 215.881 374.81 216.228C374.207 216.569 373.514 216.74 372.73 216.74ZM372.73 215.14C373.156 215.14 373.543 215.039 373.89 214.836C374.242 214.628 374.522 214.351 374.73 214.004C374.938 213.652 375.042 213.26 375.042 212.828V208.636C375.042 208.209 374.938 207.823 374.73 207.476C374.522 207.124 374.242 206.847 373.89 206.644C373.543 206.436 373.156 206.332 372.73 206.332C372.303 206.332 371.914 206.436 371.562 206.644C371.215 206.847 370.938 207.124 370.73 207.476C370.522 207.823 370.418 208.209 370.418 208.636V212.828C370.418 213.26 370.522 213.652 370.73 214.004C370.938 214.351 371.215 214.628 371.562 214.836C371.914 215.039 372.303 215.14 372.73 215.14Z" fill="white"/>
<defs>
<linearGradient id="paint0_linear_548_417" x1="182.545" y1="106.025" x2="59.4543" y2="224.975" gradientUnits="userSpaceOnUse">
<stop stop-color="#FFD680"/>
<stop offset="1" stop-color="#FFAD00"/>
</linearGradient>
<linearGradient id="paint1_linear_548_417" x1="144.912" y1="123.23" x2="-53.9465" y2="202.64" gradientUnits="userSpaceOnUse">
<stop stop-color="#24F5C5"/>
<stop offset="1" stop-color="#00755A"/>
</linearGradient>
</defs>
</svg>
