<svg width="179" height="58" viewBox="0 0 179 58" fill="none" xmlns="http://www.w3.org/2000/svg">
<g filter="url(#filter0_b_451_2013)">
<rect y="0.327637" width="179" height="57" rx="15" fill="#333437" fill-opacity="0.7"/>
<g clip-path="url(#clip0_451_2013)">
<path d="M72.8604 30.7261C72.5381 29.1053 72.0789 27.5138 71.4877 25.9683C71.4657 25.9201 71.4471 25.8705 71.4321 25.8198L71.4797 25.7495C71.714 25.4102 71.8678 25.0234 71.9296 24.6177C71.9914 24.212 71.9597 23.7978 71.8368 23.4058C71.5706 22.4129 71.1954 21.4515 70.718 20.5386C70.5058 20.0763 70.1637 19.6835 69.732 19.4066C69.3003 19.1297 68.7971 18.9803 68.2819 18.9761H68.1866C68.1336 18.8311 68.0699 18.6901 67.9962 18.5542C67.6681 17.8928 67.1596 17.3344 66.5276 16.9412C65.8956 16.548 65.165 16.3355 64.4175 16.3276C63.8391 16.334 63.2667 16.4425 62.7273 16.6479C62.3702 16.7417 61.3228 17.0229 59.8786 17.4292C59.5169 17.2373 59.1046 17.1582 58.6962 17.2026C58.0915 17.0128 57.4578 16.9282 56.8235 16.9526C56.7179 16.9445 56.6118 16.9445 56.5061 16.9526C56.24 16.9235 55.9707 16.9448 55.7126 17.0151C55.6184 17.0383 55.5256 17.067 55.4349 17.1011L55.2603 17.1636L55.054 17.2573L54.9508 17.3042L54.7287 17.4214L54.6176 17.4917L54.3954 17.6323L54.2922 17.7104L54.1097 17.8511L53.9907 17.9526L53.8082 18.1245C53.7699 18.1544 53.7353 18.1884 53.705 18.2261C53.6384 18.2857 53.5773 18.351 53.5225 18.4214L53.4273 18.5308C53.3717 18.5933 53.3241 18.6636 53.2686 18.7339L53.1813 18.8589C53.1265 18.9314 53.0762 19.007 53.0305 19.0854C53.0013 19.1253 52.9747 19.1671 52.9512 19.2104C52.9036 19.2886 52.8639 19.3667 52.8163 19.4604L52.7449 19.5933C52.6986 19.6788 52.6588 19.7676 52.6258 19.8589L52.5624 19.9839C51.4832 20.4214 50.404 20.8901 49.3883 21.3901C49.2441 21.461 49.1037 21.5392 48.9677 21.6245C48.9566 21.4558 48.93 21.2885 48.8884 21.1245C48.8364 20.9405 48.759 20.7644 48.6583 20.6011C48.4324 20.1705 48.0912 19.8089 47.6716 19.5555C47.252 19.3021 46.77 19.1666 46.2777 19.1636H46.1428C45.7392 19.177 45.3438 19.2803 44.9865 19.4656C44.6292 19.651 44.3192 19.9137 44.0797 20.2339C43.8808 20.4438 43.7317 20.6947 43.6433 20.9683C43.5315 21.2868 43.4856 21.6242 43.5084 21.9604C43.5203 22.1858 43.5603 22.4088 43.6274 22.6245C43.6509 22.9416 43.7343 23.2516 43.8734 23.5386C43.9295 23.8293 44.0504 24.1041 44.2274 24.3432C44.4044 24.5823 44.6331 24.7798 44.897 24.9214C44.9259 25.0055 44.9631 25.0866 45.0081 25.1636C45.0313 25.2147 45.0578 25.2643 45.0875 25.312L45.754 26.6948C45.9048 27.0073 46.0079 27.2573 46.0794 27.4761C46.0234 27.7142 45.9994 27.9584 46.0079 28.2026C46.0409 28.7161 46.2349 29.2068 46.5633 29.607C46.8916 30.0073 47.338 30.2973 47.841 30.437H47.9838C48.1497 30.5676 48.3277 30.6827 48.5154 30.7808C48.6917 30.8664 48.8784 30.9294 49.0709 30.9683L49.2296 31.0229L51.5308 36.9526C51.7212 37.4735 51.9117 38.0203 52.1021 38.5933C52.2215 39.0373 52.4233 39.4558 52.6973 39.8276C52.9609 40.2085 53.308 40.5262 53.713 40.7573C54.3071 41.116 54.9919 41.3028 55.6888 41.2964C55.9832 41.3047 56.2778 41.289 56.5696 41.2495C56.9505 41.1714 66.0918 39.4761 71.2417 35.8511C71.7926 35.4826 72.2487 34.9928 72.5737 34.4205C72.8988 33.8482 73.0839 33.2092 73.1144 32.5542C73.2113 31.9335 73.1231 31.2984 72.8604 30.7261Z" fill="#292839"/>
<path d="M133.406 22.8433C133.116 22.7844 132.821 22.753 132.525 22.7495C131.974 22.7555 131.431 22.8837 130.938 23.1245C130.538 23.0106 130.124 22.9527 129.708 22.9526H129.668C128.84 22.9484 128.036 23.2242 127.391 23.7339L127.248 23.6323C126.433 23.0739 125.475 22.7522 124.483 22.7038C123.491 22.6555 122.505 22.8825 121.638 23.3589C121.127 23.0835 120.554 22.9409 119.971 22.9448H119.257V22.7573C119.255 21.7986 118.867 20.8798 118.179 20.2019C117.49 19.524 116.557 19.1422 115.583 19.1401H115.448C114.473 19.1401 113.538 19.521 112.848 20.1991C112.157 20.8772 111.769 21.7973 111.766 22.7573V22.9526H111.544H111.401C111.033 22.9535 110.666 22.9927 110.306 23.0698C109.76 22.8376 109.171 22.7179 108.577 22.7183C107.647 22.7115 106.741 23.0051 105.998 23.5542C105.264 22.9965 104.362 22.6967 103.435 22.7026C102.777 22.6989 102.126 22.8292 101.522 23.0854C100.955 22.8279 100.337 22.6972 99.713 22.7026C99.082 22.7066 98.4593 22.8452 97.8879 23.1089C97.484 23.0036 97.0678 22.951 96.65 22.9526H96.5151C96.3936 22.9446 96.2716 22.9446 96.1501 22.9526C96.0553 22.0997 95.6692 21.3036 95.0551 20.6948C94.5589 20.2071 93.9357 19.8636 93.254 19.7023C92.5723 19.5409 91.8585 19.568 91.1914 19.7805C90.5244 19.9929 89.9298 20.3826 89.4732 20.9064C89.0166 21.4303 88.7158 22.0681 88.6038 22.7495C88.3786 22.709 88.1503 22.6881 87.9214 22.687C87.2836 22.6839 86.6528 22.8172 86.0725 23.0776C85.6713 22.9724 85.2577 22.9198 84.8425 22.9214H84.7076C83.9083 22.9231 83.1312 23.1808 82.4937 23.6558V23.6089C81.9621 21.6479 80.2798 19.6558 78.0897 19.6558C75.8996 19.6558 74.2095 21.6479 73.6778 23.6089L71.9876 29.8589C71.7735 30.5076 71.7101 31.1955 71.8021 31.8716C71.8941 32.5477 72.1392 33.1948 72.5193 33.7651C72.8056 34.1601 73.1778 34.4871 73.6089 34.7223C74.04 34.9575 74.519 35.0949 75.0109 35.1245H75.3362C75.8477 35.1394 76.3571 35.0546 76.8351 34.8749C77.3131 34.6953 77.7503 34.4243 78.1215 34.0776C78.8804 34.7482 79.8632 35.1207 80.8829 35.1245H81.1448C81.7107 35.1017 82.2629 34.9463 82.7556 34.6714C83.3363 35.0285 84.0071 35.218 84.6918 35.2183H84.8267C85.4399 35.2172 86.0431 35.0641 86.5803 34.7729C87.1176 35.0641 87.7207 35.2172 88.334 35.2183H88.4768C89.1407 35.2173 89.7914 35.0362 90.3575 34.6948C90.9351 35.0449 91.5995 35.2314 92.2778 35.2339H92.4206C93.1503 35.2343 93.8634 35.0193 94.4679 34.6167C95.0683 35.0144 95.7756 35.2266 96.4993 35.2261H96.6342C97.2424 35.2251 97.8404 35.0719 98.372 34.7808C98.9092 35.0719 99.5123 35.225 100.126 35.2261H100.276C100.891 35.2254 101.495 35.0694 102.03 34.7729C102.571 35.0713 103.18 35.2274 103.8 35.2261H103.942C104.663 35.2255 105.368 35.0134 105.966 34.6167C106.712 35.1729 107.625 35.4696 108.561 35.4605C109.169 35.4631 109.771 35.3323 110.322 35.0776C110.685 35.1674 111.059 35.212 111.433 35.2104H111.56C112.252 35.2075 112.928 35.0126 113.512 34.6479C114.095 35.0145 114.772 35.2097 115.464 35.2104H115.599C116.265 35.2085 116.918 35.0275 117.488 34.687C118.106 35.0219 118.798 35.2016 119.503 35.2104H119.995C120.58 35.2136 121.156 35.0712 121.67 34.7964C122.469 35.2216 123.364 35.4419 124.272 35.437C125.375 35.428 126.443 35.0537 127.303 34.3745C127.972 34.9216 128.815 35.2177 129.684 35.2104H129.819C130.794 35.2084 131.728 34.8255 132.417 34.146C133.106 33.4664 133.493 32.5455 133.493 31.5854V29.8667C134.135 29.5677 134.67 29.0847 135.028 28.4811C135.386 27.8774 135.551 27.1813 135.5 26.4839V25.3589C135.498 24.7664 135.288 24.1929 134.907 23.7347C134.525 23.2766 133.995 22.9617 133.406 22.8433Z" fill="#292839"/>
<path d="M91.1662 23.3587C91.1633 23.2002 91.1935 23.0429 91.2549 22.8964C91.3163 22.7499 91.4077 22.6174 91.5233 22.5071C91.6348 22.3959 91.7676 22.3075 91.914 22.2472C92.0604 22.1869 92.2176 22.1559 92.3763 22.1559C92.535 22.1559 92.6922 22.1869 92.8386 22.2472C92.9851 22.3075 93.1179 22.3959 93.2293 22.5071C93.345 22.6174 93.4363 22.7499 93.4978 22.8964C93.5592 23.0429 93.5894 23.2002 93.5864 23.3587C93.5869 23.5156 93.5556 23.6711 93.4943 23.816C93.4329 23.9609 93.3429 24.0923 93.2293 24.2024C93.1179 24.3137 92.9851 24.402 92.8386 24.4623C92.6922 24.5226 92.535 24.5537 92.3763 24.5537C92.2176 24.5537 92.0604 24.5226 91.914 24.4623C91.7676 24.402 91.6348 24.3137 91.5233 24.2024C91.4098 24.0923 91.3197 23.9609 91.2584 23.816C91.1971 23.6711 91.1657 23.5156 91.1662 23.3587ZM91.2297 26.5618C91.2357 26.2894 91.3477 26.0297 91.5427 25.8363C91.7376 25.643 92.0005 25.5307 92.2771 25.5227H92.42C92.7048 25.5248 92.9773 25.6377 93.1779 25.8367C93.3786 26.0357 93.4912 26.3048 93.4912 26.5852V31.6087C93.4912 31.8891 93.3786 32.1582 93.1779 32.3572C92.9773 32.5563 92.7048 32.6691 92.42 32.6712H92.2771C91.9909 32.6712 91.7164 32.5592 91.514 32.36C91.3117 32.1607 91.198 31.8905 91.198 31.6087L91.2297 26.5618Z" fill="url(#paint0_linear_451_2013)"/>
<path d="M124.811 31.0234C124.742 31.0907 124.66 31.144 124.571 31.1802C124.481 31.2164 124.384 31.2348 124.287 31.2343C124.126 31.2322 123.971 31.1761 123.847 31.0752C123.723 30.9744 123.637 30.8348 123.605 30.6796C123.566 30.5503 123.56 30.4136 123.586 30.2813C123.613 30.149 123.671 30.025 123.757 29.9199C123.843 29.8147 123.953 29.7316 124.079 29.6775C124.204 29.6234 124.341 29.6 124.478 29.6093H127.231C127.257 28.7373 127.128 27.8675 126.85 27.039C126.637 26.5019 126.26 26.0433 125.771 25.7265C125.319 25.4106 124.779 25.2388 124.224 25.2343C123.811 25.2227 123.401 25.3098 123.029 25.488C122.657 25.6662 122.335 25.9303 122.089 26.2577C121.522 27.0474 121.242 28.0028 121.296 28.9687C121.23 29.9797 121.509 30.9833 122.089 31.8202C122.339 32.1557 122.669 32.4258 123.049 32.607C123.429 32.7881 123.849 32.8747 124.271 32.8593C124.743 32.8178 125.197 32.661 125.592 32.4032C125.987 32.1453 126.31 31.7946 126.533 31.3827C126.811 30.8671 126.469 30.5155 125.962 30.4452C125.454 30.3749 124.811 31.0234 124.811 31.0234ZM123.422 28.414C123.393 28.0286 123.461 27.6421 123.621 27.289C123.683 27.1748 123.778 27.0809 123.893 27.0185C124.009 26.9561 124.14 26.928 124.271 26.9374C124.34 26.9286 124.409 26.9286 124.478 26.9374C124.57 26.9584 124.657 26.9994 124.731 27.0575C124.805 27.1157 124.865 27.1894 124.906 27.2734C124.941 27.3465 124.97 27.4223 124.994 27.4999C125.066 27.7891 125.106 28.0851 125.113 28.3827H123.414L123.422 28.414Z" fill="url(#paint1_linear_451_2013)"/>
<path d="M89.1431 25.7728C88.9928 25.6061 88.8064 25.4746 88.5977 25.3881C88.389 25.3015 88.1632 25.2622 87.937 25.2728C87.4918 25.2605 87.0582 25.414 86.7229 25.7025C86.3182 26.1088 85.9849 26.4447 85.9294 26.4838V28.0463C85.9334 27.9587 85.9552 27.8727 85.9935 27.7936C86.0318 27.7144 86.0858 27.6436 86.1524 27.5853C86.219 27.527 86.2968 27.4825 86.3811 27.4543C86.4655 27.4262 86.5547 27.4149 86.6435 27.4213C86.7311 27.4188 86.8178 27.4383 86.8955 27.4779C86.9732 27.5176 87.0395 27.576 87.0879 27.6478L87.2069 27.8041C87.2069 28.0463 87.2625 28.726 87.2625 29.3119V31.5931C87.2625 31.8749 87.3762 32.1452 87.5786 32.3444C87.781 32.5437 88.0554 32.6556 88.3417 32.6556H88.4845C88.7707 32.6556 89.0452 32.5437 89.2476 32.3444C89.45 32.1452 89.5637 31.8749 89.5637 31.5931V27.1166C89.597 26.6329 89.4472 26.1542 89.1431 25.7728Z" fill="url(#paint2_linear_451_2013)"/>
<path d="M85.9293 26.484C85.9123 26.323 85.9123 26.1607 85.9293 25.9996C85.9293 25.734 85.4453 25.5153 84.8581 25.5153H84.7232C84.4369 25.5153 84.1625 25.6272 83.9601 25.8265C83.7577 26.0257 83.644 26.296 83.644 26.5778V31.6012C83.644 31.883 83.7577 32.1532 83.9601 32.3525C84.1625 32.5518 84.4369 32.6637 84.7232 32.6637H84.8581C84.9998 32.6627 85.1399 32.6342 85.2704 32.5798C85.401 32.5255 85.5194 32.4464 85.6188 32.347C85.7183 32.2476 85.7969 32.1299 85.8502 32.0006C85.9035 31.8713 85.9303 31.7329 85.9293 31.5934V28.3278C85.9293 28.2262 85.9293 28.1324 85.9293 28.0465V26.484Z" fill="url(#paint3_linear_451_2013)"/>
<path d="M103.45 25.2654C103.056 25.2576 102.668 25.3606 102.331 25.5623C101.966 25.8079 101.638 26.1024 101.355 26.4373V31.8201C101.363 31.7474 101.363 31.6741 101.355 31.6014V28.4295C101.355 27.7498 101.585 27.4139 102.054 27.4139H102.506C102.64 28.1044 102.714 28.8048 102.728 29.5076V31.6014C102.728 31.8832 102.842 32.1534 103.044 32.3527C103.246 32.5519 103.521 32.6639 103.807 32.6639H103.95C104.236 32.6639 104.511 32.5519 104.713 32.3527C104.915 32.1534 105.029 31.8832 105.029 31.6014V27.4686C105.053 25.9998 104.513 25.2654 103.45 25.2654Z" fill="url(#paint4_linear_451_2013)"/>
<path d="M101.355 26.4369L101.299 26.4994C101.234 26.1381 101.036 25.813 100.744 25.5856C100.451 25.3581 100.084 25.244 99.712 25.265C99.2838 25.2802 98.872 25.4308 98.5376 25.6947C98.0933 26.0775 97.7441 26.1947 97.7441 25.9525C97.7434 25.9395 97.7434 25.9265 97.7441 25.9135V31.6869C97.7441 31.6869 97.7441 31.6322 97.7441 31.601V28.3353C97.7285 28.0953 97.7926 27.8567 97.9266 27.6557C97.9818 27.5783 98.0557 27.5157 98.1416 27.4734C98.2274 27.4311 98.3226 27.4105 98.4186 27.4135C98.5142 27.4113 98.6088 27.4331 98.6935 27.4768C98.7782 27.5205 98.8502 27.5848 98.9027 27.6635L99.0217 27.8353C99.0217 28.101 99.0852 28.7963 99.0852 29.3978V31.6244C99.0852 31.9048 99.1978 32.1739 99.3984 32.373C99.5991 32.572 99.8716 32.6848 100.156 32.6869H100.307C100.553 32.685 100.791 32.6002 100.982 32.4468C101.172 32.2933 101.304 32.0803 101.355 31.8432V26.4369Z" fill="url(#paint5_linear_451_2013)"/>
<path d="M97.7368 25.9131C97.6892 25.6943 97.2289 25.5146 96.6656 25.5146H96.5307C96.3889 25.5146 96.2486 25.5421 96.1177 25.5955C95.9867 25.6489 95.8678 25.7272 95.7676 25.8258C95.6674 25.9245 95.5879 26.0416 95.5336 26.1705C95.4794 26.2995 95.4515 26.4376 95.4515 26.5771V31.6006C95.4515 31.8824 95.5652 32.1526 95.7676 32.3519C95.9699 32.5511 96.2444 32.6631 96.5307 32.6631H96.6656C96.9359 32.662 97.196 32.5611 97.3944 32.3802C97.5927 32.1994 97.7149 31.9518 97.7368 31.6865V25.9131Z" fill="url(#paint6_linear_451_2013)"/>
<path d="M109.521 25.5465C109.247 25.365 108.923 25.2722 108.593 25.2808C108.251 25.2881 107.918 25.3863 107.629 25.5652C107.34 25.744 107.105 25.9968 106.95 26.2965C106.499 27.137 106.285 28.0813 106.331 29.0308C106.281 30.0124 106.491 30.9899 106.942 31.8668C107.092 32.1737 107.326 32.4334 107.618 32.6169C107.909 32.8004 108.247 32.9004 108.593 32.9058C108.917 32.9132 109.236 32.8143 109.497 32.6246C109.61 32.5441 109.713 32.4524 109.807 32.3511L110.14 31.9293C110.533 31.2804 110.78 30.5555 110.862 29.8043C111.014 28.6493 110.8 27.4764 110.251 26.4449C110.056 26.1102 109.81 25.8072 109.521 25.5465ZM110.315 29.0465C110.315 30.2808 110.029 30.898 109.465 30.898C108.902 30.898 108.537 30.2808 108.537 29.0465C108.537 27.8121 108.878 27.2652 109.465 27.2652C110.053 27.2652 110.354 27.8668 110.354 29.0465H110.315Z" fill="url(#paint7_linear_451_2013)"/>
<path d="M111.559 25.5146H111.417C110.822 25.5146 110.337 25.7178 110.337 25.96V28.6162C110.337 28.749 110.337 28.8896 110.337 29.0459C110.337 29.2021 110.337 29.3662 110.337 29.5068V31.7178C110.347 31.8739 110.347 32.0304 110.337 32.1865C110.337 32.4521 110.822 32.6631 111.417 32.6631H111.544C111.828 32.661 112.101 32.5482 112.302 32.3491C112.502 32.1501 112.615 31.881 112.615 31.6006V26.5771C112.615 26.2994 112.504 26.0326 112.307 25.834C112.11 25.6354 111.842 25.5208 111.559 25.5146Z" fill="url(#paint8_linear_451_2013)"/>
<path d="M119.256 29.6094C119.111 29.3327 119.041 29.0234 119.055 28.7122C119.069 28.4011 119.166 28.0989 119.335 27.8359L120.415 26.3594C120.756 25.8906 120.549 25.5 119.962 25.5H119.367C119.042 25.5174 118.726 25.6081 118.442 25.7653C118.159 25.9225 117.916 26.1418 117.732 26.4062L117.28 27.1406C116.995 27.6172 116.749 28 116.717 28.0391V29.1641C116.717 29.2109 116.955 29.6172 117.193 30.1094L117.986 31.6719C118.143 31.954 118.372 32.1909 118.651 32.3594C118.929 32.5279 119.247 32.6222 119.573 32.6328H120.065C120.653 32.6328 120.859 32.2188 120.589 31.7188L119.256 29.6094Z" fill="url(#paint9_linear_451_2013)"/>
<path d="M116.702 28.0464C116.702 28.0464 116.702 27.5698 116.702 26.9917V22.7729C116.698 22.4931 116.583 22.2261 116.381 22.0289C116.18 21.8318 115.907 21.7203 115.623 21.7183H115.488C115.204 21.7183 114.93 21.8291 114.728 22.0267C114.526 22.2243 114.411 22.4925 114.409 22.7729V31.6011C114.409 31.8829 114.523 32.1531 114.725 32.3524C114.928 32.5516 115.202 32.6636 115.488 32.6636H115.623C115.909 32.6615 116.182 32.5489 116.384 32.3501C116.586 32.1513 116.7 31.8822 116.702 31.6011V30.2339C116.702 29.6479 116.702 29.1714 116.702 29.1714V28.0464Z" fill="url(#paint10_linear_451_2013)"/>
<path d="M131.468 25.8745C131.103 26.3354 130.881 26.7261 130.865 26.7261V29.1089C130.865 28.0386 131.286 27.4995 132.127 27.4995H132.365C132.659 27.5386 132.897 27.0933 132.897 26.5151V25.3589C132.774 25.3316 132.649 25.3159 132.524 25.312C132.111 25.3563 131.732 25.5582 131.468 25.8745Z" fill="url(#paint11_linear_451_2013)"/>
<path d="M130.866 26.6481C130.866 26.5387 130.866 26.3512 130.866 26.1324C130.866 25.9137 130.295 25.5153 129.7 25.5153H129.66C129.374 25.5153 129.1 25.6272 128.897 25.8265C128.695 26.0257 128.581 26.296 128.581 26.5778V31.6012C128.581 31.883 128.695 32.1532 128.897 32.3525C129.1 32.5518 129.374 32.6637 129.66 32.6637H129.795C130.081 32.6637 130.356 32.5518 130.558 32.3525C130.761 32.1532 130.874 31.883 130.874 31.6012V26.6481H130.866Z" fill="url(#paint12_linear_451_2013)"/>
<path d="M81.6675 30.562L79.9774 24.312C79.6758 23.187 78.8268 22.2651 78.0888 22.2651C77.3508 22.2651 76.5018 23.187 76.1923 24.312L74.5021 30.562C74.2006 31.687 74.5021 32.5698 75.1687 32.6089C76.1526 32.6714 76.4859 32.2261 76.597 31.7495C76.6946 31.2712 76.8715 30.8119 77.1207 30.3901C77.3965 30.2237 77.7137 30.1356 78.0372 30.1356C78.3607 30.1356 78.6779 30.2237 78.9537 30.3901C79.2291 30.802 79.4255 31.2601 79.533 31.7417C79.6456 32.0204 79.8476 32.2553 80.1083 32.4104C80.3691 32.5656 80.6742 32.6325 80.9772 32.6011C81.9135 32.5542 81.9611 31.687 81.6675 30.562ZM78.8347 28.9995H77.2001C77.164 29.0023 77.1279 28.9964 77.0947 28.9823C77.0615 28.9682 77.0323 28.9464 77.0096 28.9187C76.987 28.891 76.9715 28.8582 76.9646 28.8233C76.9577 28.7884 76.9595 28.7523 76.9699 28.7183C76.9699 28.7183 77.4778 26.7495 77.8031 25.5308L77.8507 25.3589C77.8507 25.2573 77.946 25.187 78.0412 25.187C78.0921 25.1894 78.1407 25.2083 78.1795 25.2408C78.2182 25.2734 78.245 25.3176 78.2554 25.3667L79.0489 28.7261C79.0625 28.7593 79.0673 28.7953 79.0628 28.8309C79.0583 28.8664 79.0447 28.9002 79.0232 28.9291C79.0018 28.958 78.9732 28.9811 78.9403 28.9961C78.9073 29.0112 78.871 29.0177 78.8347 29.0151V28.9995Z" fill="url(#paint13_linear_451_2013)"/>
<path d="M66.9407 21.1324C66.8826 21.162 66.8269 21.1959 66.774 21.234C66.9804 21.1715 67.8691 20.8511 68.0754 20.8199C68.154 20.7921 68.2374 20.7804 68.3207 20.7856C68.404 20.7908 68.4854 20.8128 68.5597 20.8501C68.6341 20.8874 68.6999 20.9394 68.753 21.0027C68.8062 21.066 68.8457 21.1394 68.8689 21.2183C69.2863 22.0148 69.6161 22.8529 69.8529 23.7183C69.8529 23.7183 70.0909 24.4996 69.5434 24.4996C69.1624 24.6406 68.7728 24.758 68.3769 24.8511L66.9407 21.148" fill="#FFAD00"/>
<path d="M67.488 22.2416C67.5626 22.15 67.6265 22.0504 67.6785 21.9447C67.6785 21.8979 67.742 21.851 67.7737 21.7963L67.861 21.6479C67.9279 21.5468 68.011 21.4571 68.107 21.3822C68.1569 21.344 68.2163 21.3194 68.2791 21.3112C68.3418 21.303 68.4057 21.3113 68.4641 21.3354C68.5201 21.3683 68.5644 21.4174 68.591 21.476C68.6189 21.5322 68.6351 21.5932 68.6386 21.6557C68.6586 21.7747 68.6586 21.8961 68.6386 22.015V22.101C68.6416 22.1296 68.6416 22.1583 68.6386 22.1869C68.6034 22.2425 68.5542 22.2882 68.4958 22.3197C68.4435 22.3521 68.3876 22.3783 68.3292 22.3979H68.2657H68.2101C68.1798 22.3759 68.1531 22.3496 68.1308 22.3197C68.1231 22.2889 68.1231 22.2568 68.1308 22.226V22.1791C68.1267 22.1611 68.1267 22.1424 68.1308 22.1244C68.1539 22.1056 68.1752 22.0847 68.1943 22.0619L68.2657 22.0072C68.3232 21.927 68.3928 21.8559 68.472 21.7963C68.5958 21.7569 68.7291 21.7569 68.8529 21.7963C68.8882 21.807 68.9189 21.829 68.9402 21.8588C68.9658 21.8823 68.9849 21.9119 68.9957 21.9447C69.0029 21.9756 69.0029 22.0076 68.9957 22.0385C68.9994 22.0539 68.9994 22.0699 68.9957 22.0854V22.1322C69.0115 22.2515 69.0115 22.3723 68.9957 22.4916C68.9866 22.555 68.9651 22.616 68.9322 22.6713L68.8688 22.7494L68.8053 22.8119C68.7586 22.8552 68.7081 22.8944 68.6545 22.9291C68.5995 22.9652 68.5373 22.9892 68.472 22.9994C68.4332 23.0109 68.3918 23.0109 68.353 22.9994C68.318 22.9762 68.2905 22.9437 68.2736 22.9057C68.2702 22.8902 68.2702 22.8742 68.2736 22.8588C68.2635 22.823 68.2635 22.7852 68.2736 22.7494C68.313 22.6951 68.3612 22.6475 68.4164 22.6088L68.5831 22.5229C68.637 22.4902 68.696 22.4664 68.7577 22.4525C68.8223 22.4332 68.8914 22.4332 68.956 22.4525C69.023 22.4691 69.0836 22.5044 69.1306 22.5541C69.175 22.602 69.21 22.6577 69.2338 22.7182C69.2493 22.7824 69.2493 22.8493 69.2338 22.9135C69.2414 22.9758 69.2414 23.0387 69.2338 23.101C69.1917 23.2148 69.13 23.3205 69.0513 23.4135C69.0065 23.4612 68.9558 23.5031 68.9005 23.5385C68.8453 23.5687 68.7867 23.5923 68.7259 23.6088C68.663 23.6204 68.5984 23.6204 68.5355 23.6088C68.469 23.6091 68.4035 23.593 68.345 23.5619C68.3135 23.5482 68.2862 23.5267 68.2657 23.4994H68.226V23.4369V23.3979L68.2736 23.3588L68.353 23.3197L68.4323 23.2807C68.4846 23.2483 68.5405 23.2221 68.599 23.2025C68.6542 23.1762 68.713 23.1578 68.7735 23.1479H68.964C69.0245 23.1696 69.0808 23.2013 69.1306 23.2416C69.1562 23.2651 69.1754 23.2947 69.1862 23.3275C69.1898 23.3613 69.1898 23.3953 69.1862 23.4291L69.2655 23.3588C69.27 23.3873 69.27 23.4163 69.2655 23.4447C69.2591 23.5059 69.2458 23.5662 69.2258 23.6244C69.1998 23.681 69.1587 23.7296 69.1068 23.765L68.9402 23.8432C68.8849 23.8695 68.8261 23.8879 68.7656 23.8979H68.5831L68.4164 23.8354L68.2419 23.7885H68.1625H68.0752C68.0466 23.7812 68.0166 23.7812 67.988 23.7885C67.988 23.7885 67.9324 23.7885 67.9007 23.7885C67.8689 23.7885 67.9562 23.7885 67.988 23.7885H68.0752H68.1625H68.2498C68.309 23.8005 68.3673 23.8161 68.4244 23.8354C68.4788 23.8546 68.5345 23.8702 68.591 23.8822C68.7061 23.9003 68.824 23.8782 68.9243 23.8197L69.0751 23.7416C69.1238 23.7138 69.1605 23.6693 69.1782 23.6166C69.1827 23.562 69.1827 23.5071 69.1782 23.4525C69.182 23.3953 69.182 23.3379 69.1782 23.2807C69.1828 23.2564 69.1809 23.2313 69.1725 23.208C69.1642 23.1847 69.1497 23.1639 69.1306 23.1479C69.0916 23.1129 69.0457 23.0863 68.9957 23.0697C68.886 23.0444 68.7707 23.0583 68.6704 23.1088L68.5196 23.1869L68.472 23.2025L68.3926 23.2416C68.3876 23.2595 68.3876 23.2784 68.3926 23.2963H68.4561C68.5038 23.3175 68.5548 23.3307 68.6069 23.3354C68.6622 23.3429 68.7183 23.3429 68.7735 23.3354C68.8269 23.3227 68.8778 23.3016 68.9243 23.2729C68.9718 23.2459 69.0147 23.2116 69.0513 23.1713C69.1234 23.0894 69.1775 22.9936 69.21 22.89C69.2136 22.8354 69.2136 22.7806 69.21 22.726C69.2176 22.6768 69.2176 22.6267 69.21 22.5775C69.1915 22.5273 69.1616 22.4819 69.1227 22.4447C69.0896 22.4101 69.0488 22.3834 69.0036 22.3666C68.8953 22.3531 68.7856 22.3781 68.6942 22.4369L68.5513 22.5229C68.5048 22.548 68.4642 22.5826 68.4323 22.6244C68.4289 22.6425 68.4289 22.661 68.4323 22.6791C68.4296 22.6999 68.4296 22.7209 68.4323 22.7416C68.4323 22.7807 68.4323 22.7885 68.5196 22.7807C68.5711 22.7698 68.6197 22.7485 68.6624 22.7182C68.711 22.6892 68.7562 22.6551 68.7973 22.6166L68.8529 22.5619C68.8736 22.5452 68.89 22.5237 68.9005 22.4994C68.9296 22.4565 68.9511 22.4089 68.964 22.3588C68.9719 22.247 68.9719 22.1347 68.964 22.0229V21.9369C68.9685 21.9137 68.9685 21.8898 68.964 21.8666C68.9485 21.8234 68.9174 21.7873 68.8767 21.765H68.718C68.6627 21.7576 68.6066 21.7576 68.5513 21.765C68.4475 21.8071 68.3511 21.8651 68.2657 21.9369L68.2022 21.9916L68.1387 22.0463C68.1387 22.0463 68.1387 22.0463 68.1387 22.101C68.1367 22.1218 68.1367 22.1427 68.1387 22.1635C68.1387 22.1635 68.1387 22.2025 68.1863 22.2104H68.2419C68.2952 22.1977 68.3462 22.1766 68.3926 22.1479C68.4411 22.1219 68.4821 22.0843 68.5117 22.0385C68.5423 21.9935 68.5639 21.9431 68.5752 21.89C68.5945 21.7789 68.5945 21.6653 68.5752 21.5541C68.5833 21.4997 68.5833 21.4444 68.5752 21.39C68.5543 21.3412 68.5181 21.3002 68.472 21.2729C68.4203 21.2572 68.365 21.2572 68.3133 21.2729C68.2569 21.2792 68.2027 21.2979 68.1546 21.3275C68.0638 21.3972 67.986 21.4818 67.9245 21.5775C67.8874 21.6252 67.853 21.6747 67.8213 21.726L67.6785 21.9525L67.5912 22.101C67.5657 22.1536 67.5307 22.2012 67.488 22.2416Z" fill="white"/>
<path d="M67.4559 21.1244C67.5244 21.0778 67.5992 21.041 67.6781 21.0151C67.7568 20.9833 67.8396 20.9623 67.9241 20.9526C68.1089 20.9198 68.2994 20.9416 68.4716 21.0151C68.6255 21.0965 68.7584 21.2114 68.8605 21.351C68.9075 21.4239 68.9499 21.4996 68.9874 21.5776C69.0271 21.6557 69.0509 21.7338 69.0826 21.812C69.2096 22.1245 69.3366 22.4448 69.4477 22.7573C69.5111 22.9213 69.5667 23.0776 69.6143 23.2416L69.6936 23.4838C69.7141 23.5662 69.73 23.6497 69.7413 23.7338C69.7276 23.6488 69.7064 23.5652 69.6778 23.4838C69.6778 23.4057 69.6302 23.3276 69.5984 23.2495C69.5667 23.1713 69.4873 22.9291 69.4238 22.7651C69.3048 22.4526 69.1779 22.1401 69.0509 21.8276L68.9557 21.5854C68.9211 21.5108 68.8785 21.4401 68.8287 21.3744C68.7445 21.2254 68.6212 21.1012 68.4716 21.0151C68.318 20.9452 68.1471 20.9208 67.9797 20.9448C67.7932 20.9635 67.6138 21.0251 67.4559 21.1244Z" fill="white"/>
<path d="M50.2613 23.0306C50.2613 23.0306 48.5949 23.7649 49.5233 25.929C49.5233 25.929 52.007 31.6868 54.1098 37.8587C54.1583 38.0746 54.2514 38.2784 54.3834 38.4574C54.5154 38.6363 54.6834 38.7866 54.877 38.8987C55.0706 39.0109 55.2856 39.0826 55.5086 39.1093C55.7315 39.136 55.9577 39.1172 56.173 39.054C56.173 39.054 65.2508 37.4212 70.0595 33.9602C70.5005 33.6587 70.8209 33.2153 70.9657 32.7062C71.1106 32.1972 71.0707 31.6544 70.853 31.1712C69.9309 26.9959 68.3853 22.9783 66.2665 19.2493C66.1377 19.0067 65.9616 18.7916 65.7482 18.6163C65.5347 18.4409 65.2882 18.3088 65.0228 18.2275C64.7574 18.1462 64.4782 18.1173 64.2014 18.1425C63.9246 18.1677 63.6556 18.2465 63.4098 18.3743C58.8982 19.5482 54.4987 21.1061 50.2613 23.0306Z" fill="#AC69E0"/>
<path opacity="0.25" d="M64.4009 18.304V18.4055L70.0587 33.6165C70.0587 33.6165 71.6457 32.343 70.8522 31.1711C70.546 29.4517 70.0593 27.7682 69.4001 26.1477C68.5025 23.9483 67.4934 21.7945 66.3768 19.6946C66.2218 19.2979 65.952 18.9546 65.6008 18.7074C65.2495 18.4603 64.8324 18.32 64.4009 18.304Z" fill="white"/>
<path opacity="0.25" d="M50.0626 23.3589L50.1419 23.4214L56.8709 38.8823C56.8709 38.8823 54.4904 39.523 54.292 38.1636L49.4754 25.7026C49.3246 25.2989 49.3 24.8599 49.4046 24.4423C49.5093 24.0246 49.7384 23.6473 50.0626 23.3589Z" fill="black"/>
<path d="M50.3401 23.9211L50.4512 23.8899L50.5306 24.1399L50.4195 24.1711L50.3401 23.929" fill="#848484"/>
<path d="M50.3484 23.8978C50.3221 23.9168 50.3006 23.9415 50.2855 23.9699C50.2704 23.9984 50.262 24.0298 50.2611 24.0619C50.2627 24.0838 50.2691 24.1051 50.2801 24.1243C50.291 24.1435 50.3061 24.16 50.3244 24.1727C50.3426 24.1854 50.3635 24.194 50.3854 24.1978C50.4074 24.2016 50.43 24.2005 50.4516 24.1947L50.3484 23.8978Z" fill="#848484"/>
<path d="M50.4352 23.8664L50.5463 24.1711C50.574 24.1554 50.5968 24.1325 50.6122 24.105C50.6276 24.0774 50.635 24.0463 50.6336 24.0148C50.6258 23.97 50.601 23.9297 50.5642 23.9021C50.5273 23.8746 50.4813 23.8618 50.4352 23.8664Z" fill="#848484"/>
<path d="M50.3401 23.9211L50.4512 23.8899L50.5306 24.1399L50.4195 24.1711L50.3401 23.929" fill="#B9B9B8"/>
<path d="M50.4031 23.9056L50.4825 24.1556L50.5222 24.14L50.4269 23.8978L50.4031 23.9056Z" fill="#A09F9F"/>
<path d="M50.3474 23.8978C50.3245 23.9135 50.3059 23.9346 50.2935 23.9592C50.281 23.9837 50.275 24.011 50.276 24.0385C50.277 24.06 50.2823 24.0811 50.2917 24.1007C50.301 24.1202 50.3141 24.1377 50.3304 24.1522C50.3466 24.1667 50.3655 24.178 50.3862 24.1853C50.4068 24.1925 50.4287 24.1958 50.4506 24.1947L50.3474 23.8978Z" fill="#D5CDD3"/>
<path d="M50.4352 23.8664L50.5463 24.1711C50.574 24.1554 50.5968 24.1325 50.6122 24.105C50.6276 24.0774 50.635 24.0463 50.6336 24.0148C50.6258 23.97 50.601 23.9297 50.5642 23.9021C50.5273 23.8746 50.4813 23.8618 50.4352 23.8664Z" fill="#D5CDD3"/>
<path d="M64.9086 19.1793L65.0197 19.1481L65.0991 19.3981L64.988 19.4293L64.9086 19.1793Z" fill="#848484"/>
<path d="M64.9248 19.156C64.8975 19.1746 64.8748 19.199 64.8583 19.2274C64.8418 19.2558 64.832 19.2875 64.8296 19.3201C64.8311 19.342 64.8376 19.3633 64.8486 19.3825C64.8595 19.4017 64.8746 19.4182 64.8928 19.4309C64.9111 19.4436 64.9319 19.4522 64.9539 19.456C64.9759 19.4598 64.9985 19.4587 65.02 19.4529L64.9248 19.156Z" fill="#848484"/>
<path d="M65.0038 19.1246L65.1149 19.4292C65.151 19.4131 65.1802 19.3848 65.197 19.3495C65.2139 19.3141 65.2173 19.274 65.2068 19.2363C65.1963 19.1986 65.1725 19.1659 65.1396 19.144C65.1067 19.122 65.067 19.1124 65.0276 19.1167L65.0038 19.1246Z" fill="#848484"/>
<path d="M64.9086 19.1793L65.0197 19.1481L65.0991 19.3981L64.988 19.4293L64.9086 19.1793Z" fill="#B9B9B8"/>
<path d="M64.9729 19.1638L65.0523 19.406L65.0919 19.3982L64.9967 19.156L64.9729 19.1638Z" fill="#A09F9F"/>
<path d="M64.925 19.156C64.9011 19.1713 64.8814 19.1921 64.8676 19.2166C64.8537 19.2411 64.8462 19.2686 64.8456 19.2966C64.8496 19.3395 64.8697 19.3793 64.9021 19.4082C64.9344 19.4371 64.9765 19.4531 65.0202 19.4529L64.925 19.156Z" fill="#D5CDD3"/>
<path d="M65.0038 19.1246L65.1149 19.4292C65.151 19.4131 65.1802 19.3848 65.197 19.3495C65.2139 19.3141 65.2173 19.274 65.2068 19.2363C65.1963 19.1986 65.1725 19.1659 65.1396 19.144C65.1067 19.122 65.067 19.1124 65.0276 19.1167L65.0038 19.1246Z" fill="#D5CDD3"/>
<path d="M53.1802 31.1948L53.2913 31.1714L53.3707 31.4136L53.2596 31.4448L53.1802 31.2026" fill="#848484"/>
<path d="M53.1965 31.1714C53.1692 31.19 53.1464 31.2144 53.1299 31.2428C53.1135 31.2712 53.1037 31.3028 53.1013 31.3354C53.1012 31.358 53.1067 31.3802 53.1172 31.4002C53.1277 31.4202 53.1429 31.4374 53.1615 31.4504C53.1802 31.4634 53.2018 31.4719 53.2244 31.475C53.2471 31.4781 53.2701 31.4758 53.2917 31.4683L53.1965 31.1714Z" fill="#848484"/>
<path d="M53.2766 31.1714L53.3876 31.4761C53.419 31.4575 53.4433 31.4294 53.4567 31.3959C53.4702 31.3625 53.4721 31.3256 53.4622 31.2909C53.4523 31.2563 53.4311 31.2258 53.4018 31.2042C53.3726 31.1826 53.3369 31.1711 53.3004 31.1714H53.2766Z" fill="#848484"/>
<path d="M53.1802 31.1948L53.2913 31.1714L53.3707 31.4136L53.2596 31.4448L53.1802 31.2026" fill="#B9B9B8"/>
<path d="M53.2443 31.1792L53.3237 31.4292L53.3634 31.4214L53.2681 31.1714L53.2443 31.1792Z" fill="#A09F9F"/>
<path d="M53.1967 31.1714C53.1726 31.1859 53.1532 31.2068 53.1406 31.2316C53.1279 31.2565 53.1226 31.2843 53.1253 31.312C53.1253 31.3332 53.1296 31.3542 53.1381 31.3737C53.1466 31.3932 53.159 31.4107 53.1746 31.4254C53.1901 31.44 53.2086 31.4513 53.2288 31.4587C53.249 31.4661 53.2704 31.4693 53.2919 31.4683L53.1967 31.1714Z" fill="#D5CDD3"/>
<path d="M53.2766 31.1714L53.3876 31.4761C53.419 31.4575 53.4433 31.4294 53.4567 31.3959C53.4702 31.3625 53.4721 31.3256 53.4622 31.2909C53.4523 31.2563 53.4311 31.2258 53.4018 31.2042C53.3726 31.1826 53.3369 31.1711 53.3004 31.1714H53.2766Z" fill="#D5CDD3"/>
<path d="M56.0933 37.9214L56.2044 37.8901L56.2837 38.1401L56.1726 38.1714L56.0933 37.9214Z" fill="#848484"/>
<path d="M56.1093 37.8981C56.082 37.9167 56.0593 37.9411 56.0428 37.9695C56.0263 37.9978 56.0165 38.0295 56.0141 38.0621C56.0156 38.0841 56.0221 38.1054 56.0331 38.1246C56.044 38.1437 56.0591 38.1603 56.0774 38.173C56.0956 38.1857 56.1164 38.1942 56.1384 38.198C56.1604 38.2018 56.183 38.2008 56.2045 38.1949L56.1093 37.8981Z" fill="#848484"/>
<path d="M56.1883 37.867L56.2994 38.1717C56.3265 38.1554 56.3488 38.1324 56.3641 38.105C56.3794 38.0776 56.3872 38.0467 56.3867 38.0154C56.3849 37.9923 56.3781 37.9698 56.3669 37.9495C56.3556 37.9291 56.3401 37.9114 56.3214 37.8973C56.3026 37.8833 56.2811 37.8734 56.2581 37.8681C56.2352 37.8629 56.2114 37.8625 56.1883 37.867Z" fill="#848484"/>
<path d="M56.0933 37.9214L56.2044 37.8901L56.2837 38.1401L56.1726 38.1714L56.0933 37.9214Z" fill="#B9B9B8"/>
<path d="M56.1562 37.9059L56.2355 38.1481L56.2752 38.1403L56.18 37.8981L56.1562 37.9059Z" fill="#A09F9F"/>
<path d="M56.1095 37.8981C56.0856 37.9134 56.0659 37.9342 56.0521 37.9587C56.0383 37.9832 56.0307 38.0107 56.0302 38.0387C56.0341 38.0815 56.0543 38.1213 56.0866 38.1502C56.1189 38.1792 56.161 38.1951 56.2047 38.1949L56.1095 37.8981Z" fill="#D5CDD3"/>
<path d="M56.1883 37.867L56.2994 38.1717C56.3265 38.1554 56.3488 38.1324 56.3641 38.105C56.3794 38.0776 56.3872 38.0467 56.3867 38.0154C56.3849 37.9923 56.3781 37.9698 56.3669 37.9495C56.3556 37.9291 56.3401 37.9114 56.3214 37.8973C56.3026 37.8833 56.2811 37.8734 56.2581 37.8681C56.2352 37.8629 56.2114 37.8625 56.1883 37.867Z" fill="#D5CDD3"/>
<path d="M67.6709 26.1794L67.782 26.1482L67.8613 26.3982L67.7503 26.4294L67.6709 26.1873" fill="#848484"/>
<path d="M67.6784 26.1561C67.6511 26.1747 67.6284 26.1991 67.6119 26.2275C67.5954 26.2559 67.5856 26.2876 67.5832 26.3202C67.5847 26.3421 67.5912 26.3634 67.6022 26.3826C67.6131 26.4018 67.6282 26.4183 67.6464 26.431C67.6647 26.4437 67.6855 26.4523 67.7075 26.4561C67.7295 26.4599 67.7521 26.4588 67.7736 26.453L67.6784 26.1561Z" fill="#848484"/>
<path d="M67.766 26.1244L67.8771 26.4291C67.9061 26.415 67.93 26.3924 67.9456 26.3645C67.9612 26.3365 67.9677 26.3046 67.9644 26.2729C67.9626 26.2498 67.9558 26.2273 67.9446 26.2069C67.9333 26.1866 67.9178 26.1688 67.899 26.1548C67.8803 26.1408 67.8588 26.1308 67.8358 26.1256C67.8129 26.1203 67.7891 26.12 67.766 26.1244Z" fill="#848484"/>
<path d="M67.6709 26.1794L67.782 26.1482L67.8613 26.3982L67.7503 26.4294L67.6709 26.1873" fill="#B9B9B8"/>
<path d="M67.7339 26.1639L67.8132 26.4139L67.8529 26.3983L67.7577 26.1561L67.7339 26.1639Z" fill="#A09F9F"/>
<path d="M67.6786 26.1561C67.6547 26.1714 67.635 26.1922 67.6212 26.2167C67.6073 26.2412 67.5998 26.2687 67.5992 26.2968C67.6003 26.3183 67.6056 26.3394 67.6149 26.359C67.6242 26.3785 67.6374 26.396 67.6536 26.4105C67.6698 26.425 67.6888 26.4363 67.7094 26.4436C67.73 26.4508 67.7519 26.4541 67.7738 26.453L67.6786 26.1561Z" fill="#D5CDD3"/>
<path d="M67.766 26.1244L67.8771 26.4291C67.9061 26.415 67.93 26.3924 67.9456 26.3645C67.9612 26.3365 67.9677 26.3046 67.9644 26.2729C67.9626 26.2498 67.9558 26.2273 67.9446 26.2069C67.9333 26.1866 67.9178 26.1688 67.899 26.1548C67.8803 26.1408 67.8588 26.1308 67.8358 26.1256C67.8129 26.1203 67.7891 26.12 67.766 26.1244Z" fill="#D5CDD3"/>
<path d="M69.75 32.9293L69.8532 32.8981L69.9404 33.1481L69.8294 33.1793L69.75 32.9371" fill="#848484"/>
<path d="M69.757 32.906C69.7302 32.9246 69.7084 32.9491 69.6932 32.9777C69.678 33.0062 69.67 33.0379 69.6697 33.0701C69.6697 33.1638 69.7411 33.2263 69.8601 33.2029L69.757 32.906Z" fill="#848484"/>
<path d="M69.8365 32.8823L69.9396 33.187C69.9686 33.1728 69.9925 33.1503 70.0081 33.1223C70.0238 33.0944 70.0303 33.0625 70.0269 33.0308C70.0262 33.008 70.0205 32.9856 70.0101 32.9653C69.9997 32.9449 69.9849 32.927 69.9668 32.9129C69.9487 32.8988 69.9276 32.8887 69.9051 32.8834C69.8826 32.8781 69.8592 32.8778 69.8365 32.8823Z" fill="#848484"/>
<path d="M69.75 32.9293L69.8532 32.8981L69.9404 33.1481L69.8294 33.1793L69.75 32.9371" fill="#B9B9B8"/>
<path d="M69.813 32.9138L69.8844 33.1638L69.9241 33.1482L69.8368 32.906L69.813 32.9138Z" fill="#A09F9F"/>
<path d="M69.7572 32.906C69.7283 32.9266 69.7068 32.9558 69.696 32.9893C69.6852 33.0228 69.6857 33.0588 69.6972 33.092C69.7088 33.1252 69.7308 33.154 69.7602 33.1739C69.7896 33.1939 69.8247 33.204 69.8603 33.2029L69.7572 32.906Z" fill="#D5CDD3"/>
<path d="M69.8365 32.8823L69.9396 33.187C69.9686 33.1728 69.9925 33.1503 70.0081 33.1223C70.0238 33.0944 70.0303 33.0625 70.0269 33.0308C70.0262 33.008 70.0205 32.9856 70.0101 32.9653C69.9997 32.9449 69.9849 32.927 69.9668 32.9129C69.9487 32.8988 69.9276 32.8887 69.9051 32.8834C69.8826 32.8781 69.8592 32.8778 69.8365 32.8823Z" fill="#D5CDD3"/>
<g opacity="0.2">
<path d="M65.6151 18.8275C65.9008 19.351 66.1706 19.8744 66.4086 20.39C66.6467 20.9056 66.9244 21.4525 67.2021 21.9525C67.4799 22.4525 67.6862 23.0385 67.9163 23.5853C68.1464 24.1322 68.3765 24.6791 68.5987 25.2338C68.8209 25.7885 69.0193 26.3431 69.2177 26.8978C69.416 27.4525 69.5986 28.0228 69.7731 28.5931C69.9477 29.1635 70.0985 29.7338 70.2413 30.3119C70.3841 30.89 70.4952 31.4681 70.5746 32.0541C70.3141 30.9006 69.9936 29.7611 69.6144 28.64C69.424 28.0775 69.2335 27.5228 69.0272 26.9681C68.8209 26.4135 68.6146 25.8588 68.3924 25.3041C68.1702 24.7494 67.956 24.2103 67.7338 23.6635C67.5116 23.1166 67.2736 22.5697 67.0434 22.0228C66.5779 20.9707 66.1018 19.9056 65.6151 18.8275Z" fill="white"/>
</g>
<path d="M67.0354 20.6172L66.2419 21.5313C66.0699 21.7375 65.9639 21.9893 65.937 22.2549C65.9102 22.5204 65.9638 22.7878 66.0911 23.0234C66.3176 23.6023 66.4593 24.21 66.5117 24.8281C66.5117 24.8281 66.591 25.7656 68.0987 25.4922L69.0985 25.2656C68.499 23.6796 67.8103 22.1277 67.0354 20.6172Z" fill="#4F2976"/>
<path d="M67.1386 20.7417L66.3451 21.6011C66.1901 21.7986 66.0983 22.037 66.0814 22.286C66.0644 22.5351 66.1231 22.7834 66.2499 22.9995C66.4626 23.5434 66.5962 24.1141 66.6467 24.6948C66.6467 24.6948 66.7181 25.5776 68.1147 25.3276L69.051 25.1089C68.4979 23.6187 67.8594 22.1607 67.1386 20.7417Z" fill="#5E2E8C"/>
<path d="M66.8292 21.5541L66.7975 21.4525L67.0435 21.3588L67.0831 21.4681L66.8372 21.5541" fill="#848484"/>
<path d="M66.8049 21.5463C66.8262 21.5719 66.8528 21.5928 66.8829 21.6077C66.913 21.6225 66.9459 21.6308 66.9795 21.6322C67.002 21.6299 67.0237 21.6226 67.0429 21.6109C67.0622 21.5992 67.0785 21.5834 67.0907 21.5646C67.1029 21.5458 67.1106 21.5246 67.1134 21.5025C67.1161 21.4804 67.1137 21.458 67.1065 21.4369L66.8049 21.5463Z" fill="#848484"/>
<path d="M66.7742 21.4683L67.0757 21.3511C67.0605 21.3233 67.0374 21.3003 67.0092 21.2851C66.9811 21.2698 66.949 21.2629 66.917 21.2652C66.8934 21.2678 66.8706 21.2754 66.8502 21.2874C66.8298 21.2994 66.8123 21.3156 66.7987 21.3348C66.7852 21.3541 66.776 21.3759 66.7718 21.399C66.7675 21.422 66.7684 21.4456 66.7742 21.4683Z" fill="#848484"/>
<path d="M66.8292 21.5541L66.7975 21.4525L67.0435 21.3588L67.0831 21.4681L66.8372 21.5541" fill="#B9B9B8"/>
<path d="M66.8129 21.4917L67.0589 21.4058L67.043 21.3667L66.8049 21.4683L66.8129 21.4917Z" fill="#A09F9F"/>
<path d="M66.8049 21.5463C66.8213 21.5699 66.8442 21.5883 66.871 21.5994C66.8977 21.6105 66.9271 21.6137 66.9557 21.6088C66.9985 21.6048 67.0381 21.5847 67.0662 21.5527C67.0943 21.5206 67.1087 21.4792 67.1065 21.4369L66.8049 21.5463Z" fill="#D5CDD3"/>
<path d="M66.7742 21.4683L67.0757 21.3511C67.0605 21.3233 67.0374 21.3003 67.0092 21.2851C66.9811 21.2698 66.949 21.2629 66.917 21.2652C66.8934 21.2678 66.8706 21.2754 66.8502 21.2874C66.8298 21.2994 66.8123 21.3156 66.7987 21.3348C66.7852 21.3541 66.776 21.3759 66.7718 21.399C66.7675 21.422 66.7684 21.4456 66.7742 21.4683Z" fill="#D5CDD3"/>
<path d="M68.1304 24.9839L68.1701 24.8823L68.424 24.9683L68.3844 25.0698L68.1384 24.9917" fill="#848484"/>
<path d="M68.1224 24.9684C68.1197 25.0002 68.1255 25.0322 68.1395 25.061C68.1534 25.0899 68.1749 25.1145 68.2018 25.1324C68.2732 25.1871 68.3684 25.1324 68.424 25.0621L68.1224 24.9684Z" fill="#848484"/>
<path d="M68.1465 24.9214L68.456 25.023C68.4605 24.9918 68.4562 24.9601 68.4436 24.9311C68.431 24.9022 68.4106 24.8772 68.3846 24.8589C68.3651 24.8466 68.3432 24.8384 68.3203 24.8349C68.2974 24.8313 68.274 24.8325 68.2515 24.8384C68.2291 24.8443 68.2082 24.8547 68.1901 24.869C68.1721 24.8833 68.1572 24.9012 68.1465 24.9214Z" fill="#848484"/>
<path d="M68.1304 24.9839L68.1701 24.8823L68.424 24.9683L68.3844 25.0698L68.1384 24.9917" fill="#B9B9B8"/>
<path d="M68.1539 24.929L68.4079 25.0149L68.4237 24.9758L68.1698 24.9055L68.1539 24.929Z" fill="#A09F9F"/>
<path d="M68.1224 24.9684C68.1198 24.9961 68.1251 25.0239 68.1377 25.0488C68.1503 25.0736 68.1698 25.0945 68.1939 25.109C68.2307 25.1327 68.2756 25.1411 68.3187 25.1323C68.3619 25.1235 68.3997 25.0983 68.424 25.0621L68.1224 24.9684Z" fill="#D5CDD3"/>
<path d="M68.1465 24.9214L68.456 25.023C68.4605 24.9918 68.4562 24.9601 68.4436 24.9311C68.431 24.9022 68.4106 24.8772 68.3846 24.8589C68.3651 24.8466 68.3432 24.8384 68.3203 24.8349C68.2974 24.8313 68.274 24.8325 68.2515 24.8384C68.2291 24.8443 68.2082 24.8547 68.1901 24.869C68.1721 24.8833 68.1572 24.9012 68.1465 24.9214Z" fill="#D5CDD3"/>
<path d="M67.384 21.3197L66.1699 22.4603C66.1893 22.5965 66.2239 22.7301 66.2731 22.8588L67.5427 21.6478C67.4951 21.5385 67.4395 21.4291 67.384 21.3197Z" fill="#FFB418"/>
<path d="M67.9479 22.4916L66.5751 23.7806C66.5751 23.9056 66.6307 24.0385 66.6545 24.1947L68.0987 22.8197L67.9479 22.4916Z" fill="#FFB418"/>
<path d="M68.5115 23.7806L67.0593 25.14L67.1228 25.3041C67.1853 25.3402 67.2519 25.3691 67.3212 25.39L68.6543 24.14L68.5115 23.7806Z" fill="#FFB418"/>
<path d="M66.7579 23.4055L66.869 23.3821L66.9404 23.6321L66.8294 23.6633L66.7579 23.4133" fill="#848484"/>
<path d="M66.7734 23.3589C66.7463 23.3766 66.7231 23.3996 66.7054 23.4265C66.6877 23.4534 66.6757 23.4835 66.6703 23.5151C66.6698 23.5376 66.6744 23.5598 66.6839 23.5802C66.6934 23.6006 66.7074 23.6186 66.725 23.6329C66.7425 23.6472 66.7632 23.6574 66.7853 23.6627C66.8074 23.668 66.8305 23.6683 66.8528 23.6636L66.7734 23.3589Z" fill="#848484"/>
<path d="M66.8852 23.3584L66.9725 23.6709C67.0016 23.6584 67.0263 23.6376 67.0433 23.6111C67.0602 23.5846 67.0688 23.5538 67.0677 23.5225C67.0678 23.4995 67.063 23.4769 67.0537 23.4559C67.0443 23.4349 67.0306 23.416 67.0134 23.4006C66.9962 23.3851 66.9759 23.3734 66.9538 23.3661C66.9318 23.3589 66.9084 23.3562 66.8852 23.3584Z" fill="#848484"/>
<path d="M66.7579 23.4055L66.869 23.3821L66.9404 23.6321L66.8294 23.6633L66.7579 23.4133" fill="#B9B9B8"/>
<path d="M66.8296 23.3899L66.8851 23.6477L66.9248 23.6399L66.8534 23.3899H66.8296Z" fill="#A09F9F"/>
<path d="M66.7735 23.3589C66.7427 23.3771 66.7187 23.4045 66.705 23.4372C66.6914 23.47 66.6888 23.5061 66.6977 23.5404C66.7066 23.5746 66.7266 23.6051 66.7545 23.6273C66.7825 23.6495 66.817 23.6622 66.8529 23.6636L66.7735 23.3589Z" fill="#D5CDD3"/>
<path d="M66.8852 23.3584L66.9725 23.6709C67.0016 23.6584 67.0263 23.6376 67.0433 23.6111C67.0602 23.5846 67.0688 23.5538 67.0677 23.5225C67.0678 23.4995 67.063 23.4769 67.0537 23.4559C67.0443 23.4349 67.0306 23.416 67.0134 23.4006C66.9962 23.3851 66.9759 23.3734 66.9538 23.3661C66.9318 23.3589 66.9084 23.3562 66.8852 23.3584Z" fill="#D5CDD3"/>
<path opacity="0.1" d="M55.8465 22.3744C55.8465 22.3744 51.9583 27.1556 54.0532 30.1322C55.9576 32.8353 59.9569 32.2494 62.9008 29.0697L62.2263 24.3822L55.8465 22.3744Z" fill="black"/>
<path d="M64.338 25.3594C64.3885 26.3007 64.1543 27.2357 63.665 28.046C63.1758 28.8563 62.4534 29.5055 61.5893 29.9115C60.7253 30.3176 59.7583 30.4622 58.8107 30.3271C57.8631 30.1921 56.9775 29.7834 56.2659 29.1527C55.5543 28.522 55.0486 27.6977 54.8129 26.7841C54.5772 25.8705 54.6219 24.9085 54.9415 24.0199C55.2611 23.1313 55.8412 22.356 56.6084 21.7921C57.3756 21.2281 58.2954 20.9008 59.2516 20.8516C60.5326 20.7877 61.7872 21.2262 62.7405 22.0711C63.6938 22.916 64.2683 24.0984 64.338 25.3594Z" fill="#D0D0D0"/>
<path opacity="0.25" d="M64.3063 25.3743C64.3552 26.3154 64.1196 27.2497 63.6294 28.059C63.1391 28.8683 62.4161 29.5163 61.5518 29.9212C60.6875 30.326 59.7207 30.4695 58.7736 30.3335C57.8264 30.1975 56.9415 29.7881 56.2307 29.157C55.5199 28.526 55.0151 27.7016 54.78 26.7881C54.545 25.8746 54.5903 24.913 54.9102 24.0249C55.2301 23.1368 55.8103 22.3619 56.5774 21.7984C57.3445 21.2348 58.2641 20.9078 59.2199 20.8587C59.8551 20.826 60.4906 20.9169 61.0901 21.1263C61.6896 21.3356 62.2413 21.6592 62.7137 22.0786C63.1861 22.4979 63.5699 23.0049 63.8432 23.5704C64.1164 24.1359 64.2738 24.7489 64.3063 25.3743Z" fill="white"/>
<path d="M55.6805 27.9214L55.7916 27.8901L55.871 28.1323L55.7599 28.1714L55.6805 27.9214Z" fill="#848484"/>
<path d="M55.6889 27.8981C55.6612 27.9156 55.6385 27.94 55.6232 27.9688C55.6079 27.9975 55.6005 28.0297 55.6016 28.0621C55.6016 28.1481 55.673 28.2106 55.7921 28.1949L55.6889 27.8981Z" fill="#848484"/>
<path d="M55.7757 27.8664L55.8789 28.1711C55.9199 28.1607 55.9551 28.1347 55.9766 28.0988C55.9982 28.0629 56.0044 28.0201 55.9939 27.9797C55.9834 27.9393 55.957 27.9046 55.9205 27.8834C55.8841 27.8621 55.8405 27.856 55.7995 27.8664H55.7757Z" fill="#848484"/>
<path d="M55.6805 27.9214L55.7916 27.8901L55.871 28.1323L55.7599 28.1714L55.6805 27.9214Z" fill="#B9B9B8"/>
<path d="M55.7436 27.8981L55.815 28.1481L55.8547 28.1403L55.7674 27.8981H55.7436Z" fill="#A09F9F"/>
<path d="M55.6884 27.8979C55.6643 27.9125 55.6448 27.9333 55.6322 27.9582C55.6196 27.9831 55.6143 28.0109 55.6169 28.0386C55.618 28.0601 55.6233 28.0813 55.6326 28.1008C55.6419 28.1203 55.6551 28.1378 55.6713 28.1524C55.6875 28.1669 55.7065 28.1781 55.7271 28.1854C55.7477 28.1927 55.7696 28.1959 55.7915 28.1948L55.6884 27.8979Z" fill="#59584E"/>
<path d="M55.7757 27.8664L55.8789 28.1711C55.9199 28.1607 55.9551 28.1347 55.9766 28.0988C55.9982 28.0629 56.0044 28.0201 55.9939 27.9797C55.9834 27.9393 55.957 27.9046 55.9205 27.8834C55.8841 27.8621 55.8405 27.856 55.7995 27.8664H55.7757Z" fill="#59584E"/>
<path d="M63.441 25.179C63.4839 25.9692 63.2877 26.7542 62.8774 27.4346C62.467 28.115 61.8609 28.6603 61.1357 29.0015C60.4105 29.3426 59.5988 29.4644 58.8033 29.3513C58.0078 29.2382 57.2643 28.8953 56.6668 28.3661C56.0693 27.8368 55.6446 27.145 55.4465 26.3781C55.2485 25.6112 55.2859 24.8036 55.5541 24.0577C55.8222 23.3117 56.3091 22.6608 56.9531 22.1873C57.5971 21.7139 58.3693 21.4391 59.1719 21.3978C60.2472 21.3425 61.3008 21.7096 62.1013 22.4186C62.9017 23.1276 63.3836 24.1205 63.441 25.179Z" fill="#82828A"/>
<path d="M63.5204 25.1404C63.5616 25.93 63.3642 26.7139 62.9531 27.3931C62.542 28.0723 61.9357 28.6163 61.2107 28.9564C60.4858 29.2966 59.6747 29.4175 58.8799 29.3041C58.0852 29.1906 57.3424 28.8478 56.7454 28.3189C56.1485 27.7901 55.7241 27.0989 55.5259 26.3327C55.3277 25.5665 55.3646 24.7597 55.6319 24.0141C55.8992 23.2685 56.3849 22.6177 57.0277 22.1437C57.6705 21.6698 58.4415 21.394 59.2434 21.3513C59.7771 21.3229 60.3113 21.3984 60.8153 21.5735C61.3193 21.7487 61.7832 22.02 62.1806 22.372C62.5779 22.724 62.9007 23.1497 63.1307 23.6247C63.3606 24.0998 63.493 24.6148 63.5204 25.1404Z" fill="#F5F4F4"/>
<path d="M61.7751 24.9762C61.7996 25.4283 61.6873 25.8775 61.4525 26.2668C61.2177 26.6561 60.8708 26.9681 60.4559 27.1634C60.0409 27.3586 59.5765 27.4283 59.1213 27.3636C58.6661 27.2989 58.2406 27.1028 57.8987 26.8C57.5567 26.4972 57.3137 26.1014 57.2002 25.6626C57.0868 25.2238 57.1081 24.7617 57.2614 24.3348C57.4148 23.908 57.6933 23.5354 58.0617 23.2644C58.4301 22.9933 58.8718 22.836 59.3311 22.8121C59.9466 22.7802 60.5498 22.9902 61.0081 23.396C61.4664 23.8018 61.7423 24.3702 61.7751 24.9762Z" fill="#FFAD00"/>
<g opacity="0.35">
<path d="M58.9975 23.6793C59.0347 23.7488 59.064 23.8222 59.0848 23.8981C59.1108 23.9716 59.1294 24.0475 59.1403 24.1246C59.1065 24.0536 59.0773 23.9806 59.053 23.9059C59.0299 23.8315 59.0113 23.7559 58.9975 23.6793Z" fill="white"/>
<path d="M59.6237 23.6091C59.6318 23.6897 59.6318 23.7708 59.6237 23.8513C59.6189 23.928 59.6056 24.004 59.5841 24.0779C59.5761 23.9999 59.5761 23.9214 59.5841 23.8435C59.5895 23.7643 59.6028 23.6858 59.6237 23.6091Z" fill="white"/>
<path d="M60.0848 23.7263C60.0655 23.8041 60.0389 23.8799 60.0054 23.9529C59.9747 24.0263 59.9376 24.0968 59.8943 24.1638C59.916 24.0868 59.9425 24.0111 59.9737 23.9373C60.0044 23.8639 60.0416 23.7933 60.0848 23.7263Z" fill="white"/>
<path d="M60.4893 23.9686C60.449 24.0386 60.4011 24.1041 60.3465 24.1639C60.295 24.2225 60.2393 24.2773 60.1799 24.328C60.2184 24.2593 60.2665 24.1962 60.3227 24.1405C60.372 24.0776 60.4278 24.02 60.4893 23.9686Z" fill="white"/>
<path d="M60.7981 24.3202C60.7401 24.3738 60.6762 24.4209 60.6077 24.4608C60.5415 24.5064 60.4694 24.5431 60.3934 24.5702L60.5839 24.4296L60.7981 24.3202Z" fill="white"/>
<path d="M60.9883 24.7499L60.7582 24.828C60.6832 24.8492 60.606 24.8623 60.5281 24.8671C60.5997 24.8366 60.6741 24.8131 60.7503 24.7968C60.8279 24.7736 60.9076 24.7579 60.9883 24.7499Z" fill="white"/>
<path d="M61.0443 25.2183C60.9625 25.2262 60.8801 25.2262 60.7983 25.2183C60.7191 25.226 60.6394 25.226 60.5602 25.2183C60.6418 25.2067 60.7247 25.2067 60.8062 25.2183C60.8851 25.2065 60.9654 25.2065 61.0443 25.2183Z" fill="white"/>
<path d="M60.9494 25.7026L60.7193 25.6401L60.5367 25.5073C60.6929 25.5464 60.8445 25.6014 60.989 25.6714L60.9494 25.7026Z" fill="white"/>
<path d="M60.5363 26.1168C60.472 26.0716 60.411 26.022 60.3538 25.9684C60.2941 25.9123 60.2385 25.8522 60.1871 25.7887C60.2536 25.8343 60.3172 25.8839 60.3776 25.9371C60.4346 25.9933 60.4877 26.0534 60.5363 26.1168Z" fill="white"/>
<path d="M60.0366 26.4844C59.9934 26.4174 59.9562 26.3468 59.9255 26.2734C59.8909 26.201 59.8643 26.125 59.8462 26.0469C59.8859 26.1172 59.9255 26.1875 59.9573 26.2578C59.992 26.3303 60.0186 26.4063 60.0366 26.4844Z" fill="white"/>
<path d="M59.5769 26.5937C59.5553 26.5199 59.542 26.4439 59.5372 26.3672C59.5292 26.2867 59.5292 26.2055 59.5372 26.125C59.5581 26.2017 59.5714 26.2802 59.5769 26.3594C59.5848 26.4373 59.5848 26.5158 59.5769 26.5937Z" fill="white"/>
<path d="M59.1 26.578C59.1 26.4999 59.1 26.4218 59.1 26.3436C59.1165 26.2669 59.1377 26.1912 59.1635 26.1171C59.1635 26.1952 59.1635 26.2733 59.1635 26.3514C59.1471 26.4282 59.1259 26.5038 59.1 26.578Z" fill="white"/>
<path d="M58.6566 26.4219C58.6828 26.3455 58.7174 26.2722 58.7597 26.2031C58.7597 26.1406 58.8391 26.0703 58.8867 26.0078C58.8598 26.0827 58.8279 26.1557 58.7915 26.2266L58.6566 26.4219Z" fill="white"/>
<path d="M58.2748 26.1406C58.3239 26.0752 58.3798 26.015 58.4415 25.9609C58.499 25.9077 58.56 25.8581 58.624 25.8125C58.5754 25.8759 58.5223 25.936 58.4653 25.9922C58.4053 26.0459 58.3417 26.0955 58.2748 26.1406Z" fill="white"/>
<path d="M58.0055 25.7573C58.0696 25.7108 58.1388 25.6715 58.2118 25.6401C58.2822 25.601 58.3567 25.5695 58.434 25.5464L58.2277 25.6714L58.0055 25.7573Z" fill="white"/>
<path d="M57.8548 25.3201C57.9287 25.2918 58.0061 25.2734 58.0849 25.2654C58.1667 25.2577 58.2491 25.2577 58.3309 25.2654L58.0929 25.3201C58.0135 25.3045 57.9341 25.3201 57.8548 25.3201Z" fill="white"/>
<path d="M57.8622 24.8589C57.9413 24.8511 58.0211 24.8511 58.1002 24.8589C58.1809 24.8669 58.2607 24.8826 58.3383 24.9057H58.1002L57.8622 24.8589Z" fill="white"/>
<path d="M57.9969 24.4294C58.0762 24.4472 58.1534 24.4734 58.227 24.5076C58.3015 24.5378 58.3732 24.5744 58.4413 24.6169L58.2111 24.5388L57.9969 24.4294Z" fill="white"/>
<path d="M58.244 24.0547C58.315 24.0944 58.3815 24.1416 58.4423 24.1953C58.5059 24.2412 58.5644 24.2936 58.6169 24.3516C58.549 24.3137 58.4852 24.2692 58.4265 24.2188C58.36 24.1704 58.2989 24.1154 58.244 24.0547Z" fill="white"/>
<path d="M58.601 23.7574C58.6574 23.8149 58.7079 23.8777 58.7517 23.9449C58.8006 24.007 58.8407 24.0753 58.8707 24.1481L58.72 23.9606C58.6757 23.8956 58.6359 23.8277 58.601 23.7574Z" fill="white"/>
</g>
<path d="M60.6397 25.0311C60.6535 25.2626 60.5972 25.493 60.4779 25.693C60.3586 25.893 60.1817 26.0537 59.9696 26.1546C59.7575 26.2556 59.5198 26.2923 59.2864 26.2602C59.0531 26.228 58.8348 26.1284 58.659 25.974C58.4832 25.8195 58.3579 25.6172 58.299 25.3926C58.2401 25.168 58.2502 24.9313 58.3281 24.7124C58.4059 24.4935 58.548 24.3022 58.7363 24.1629C58.9247 24.0235 59.1508 23.9423 59.386 23.9295C59.7005 23.9124 60.009 24.0188 60.244 24.2253C60.479 24.4317 60.6213 24.7215 60.6397 25.0311Z" fill="black"/>
<path d="M60.5369 23.6402C60.543 23.7314 60.5215 23.8224 60.475 23.9015C60.4285 23.9806 60.3592 24.0444 60.2758 24.0846C60.1924 24.1249 60.0988 24.1398 60.0068 24.1275C59.9147 24.1152 59.8285 24.0762 59.759 24.0156C59.6896 23.9549 59.64 23.8753 59.6166 23.7868C59.5933 23.6983 59.5971 23.605 59.6278 23.5187C59.6584 23.4324 59.7144 23.357 59.7887 23.3021C59.863 23.2472 59.9522 23.2153 60.0449 23.2105C60.106 23.2062 60.1673 23.2141 60.2253 23.2335C60.2833 23.2529 60.3368 23.2835 60.3826 23.3235C60.4284 23.3635 60.4657 23.4121 60.4922 23.4665C60.5187 23.5209 60.5339 23.5799 60.5369 23.6402Z" fill="white"/>
<path d="M59.0048 26.7649C59.007 26.7898 59.0039 26.8148 58.9957 26.8385C58.9875 26.8621 58.9745 26.8838 58.9573 26.9022C58.9401 26.9206 58.9192 26.9352 58.896 26.9452C58.8727 26.9552 58.8476 26.9603 58.8223 26.9602C58.7718 26.9602 58.7233 26.9405 58.6876 26.9053C58.6519 26.8701 58.6318 26.8224 58.6318 26.7727C58.6318 26.723 58.6519 26.6753 58.6876 26.6401C58.7233 26.605 58.7718 26.5852 58.8223 26.5852C58.8707 26.5852 58.9171 26.6041 58.9513 26.6378C58.9856 26.6715 59.0048 26.7172 59.0048 26.7649Z" fill="white"/>
<path opacity="0.5" d="M60.2986 25.0542C60.3093 25.2194 60.2699 25.384 60.1855 25.5272C60.1011 25.6704 59.9754 25.7856 59.8244 25.8584C59.6734 25.9311 59.5038 25.9581 59.3372 25.9359C59.1706 25.9136 59.0145 25.8432 58.8885 25.7335C58.7626 25.6238 58.6726 25.4798 58.63 25.3197C58.5873 25.1596 58.5939 24.9906 58.6489 24.8341C58.7038 24.6777 58.8048 24.5409 58.9388 24.441C59.0729 24.3411 59.234 24.2826 59.4019 24.273C59.6254 24.2622 59.8442 24.3379 60.0118 24.4839C60.1793 24.6298 60.2823 24.8345 60.2986 25.0542Z" fill="#231E20"/>
<path d="M58.2359 29.5619L58.3231 29.6244L58.1724 29.8353L58.0771 29.765L58.2359 29.5619Z" fill="#848484"/>
<path d="M58.2677 29.5543C58.2383 29.5392 58.2057 29.5314 58.1725 29.5314C58.1394 29.5314 58.1067 29.5392 58.0773 29.5543C58.0593 29.5674 58.0446 29.5844 58.0345 29.6041C58.0244 29.6238 58.0191 29.6455 58.0191 29.6676C58.0191 29.6896 58.0244 29.7114 58.0345 29.7311C58.0446 29.7507 58.0593 29.7678 58.0773 29.7809L58.2677 29.5543Z" fill="#848484"/>
<path d="M58.3392 29.6089L58.1488 29.8745C58.1753 29.8896 58.2054 29.8975 58.2361 29.8975C58.2667 29.8975 58.2968 29.8896 58.3234 29.8745C58.3456 29.8606 58.3642 29.8416 58.3776 29.8192C58.391 29.7968 58.3988 29.7716 58.4003 29.7457C58.4019 29.7198 58.3971 29.6938 58.3865 29.67C58.3759 29.6463 58.3597 29.6253 58.3392 29.6089Z" fill="#848484"/>
<path d="M58.2359 29.5619L58.3231 29.6244L58.1724 29.8353L58.0771 29.765L58.2359 29.5619Z" fill="#B9B9B8"/>
<path d="M58.2907 29.6016L58.1241 29.8047L58.1638 29.8281L58.3066 29.6172L58.2907 29.6016Z" fill="#A09F9F"/>
<path d="M58.2671 29.5539C58.2436 29.5384 58.216 29.5302 58.1878 29.5302C58.1595 29.5302 58.1319 29.5384 58.1084 29.5539C58.0788 29.5844 58.0623 29.6249 58.0623 29.6671C58.0623 29.7093 58.0788 29.7499 58.1084 29.7804L58.2671 29.5539Z" fill="#59584E"/>
<path d="M58.3392 29.6089L58.1488 29.8745C58.1753 29.8896 58.2054 29.8975 58.2361 29.8975C58.2667 29.8975 58.2968 29.8896 58.3234 29.8745C58.3456 29.8606 58.3642 29.8416 58.3776 29.8192C58.391 29.7968 58.3988 29.7716 58.4003 29.7457C58.4019 29.7198 58.3971 29.6938 58.3865 29.67C58.3759 29.6463 58.3597 29.6253 58.3392 29.6089Z" fill="#59584E"/>
<path d="M61.4336 29.359L61.4891 29.2653L61.7193 29.3903L61.6637 29.4918L61.4336 29.359Z" fill="#848484"/>
<path d="M61.4253 29.3354C61.4167 29.3669 61.4166 29.4 61.4249 29.4315C61.4333 29.463 61.4498 29.4918 61.4729 29.5151C61.4862 29.5329 61.5035 29.5473 61.5235 29.5573C61.5435 29.5673 61.5656 29.5724 61.588 29.5724C61.6104 29.5724 61.6325 29.5673 61.6524 29.5573C61.6724 29.5473 61.6898 29.5329 61.703 29.5151L61.4253 29.3354Z" fill="#848484"/>
<path d="M61.4657 29.2575L61.7514 29.4137C61.7684 29.3882 61.7775 29.3583 61.7775 29.3278C61.7775 29.2972 61.7684 29.2674 61.7514 29.2419C61.734 29.2201 61.7116 29.2028 61.686 29.1914C61.6604 29.18 61.6324 29.1749 61.6044 29.1764C61.5764 29.1779 61.5491 29.1861 61.525 29.2002C61.5008 29.2143 61.4805 29.234 61.4657 29.2575Z" fill="#848484"/>
<path d="M61.4336 29.359L61.4891 29.2653L61.7193 29.3903L61.6637 29.4918L61.4336 29.359Z" fill="#B9B9B8"/>
<path d="M61.4657 29.3046L61.6958 29.4374L61.7117 29.3983L61.4816 29.2811L61.4657 29.3046Z" fill="#A09F9F"/>
<path d="M61.4259 29.3354C61.4183 29.3627 61.418 29.3913 61.425 29.4187C61.4319 29.4461 61.4459 29.4712 61.4656 29.4917C61.4979 29.5214 61.5405 29.5378 61.5846 29.5378C61.6288 29.5378 61.6713 29.5214 61.7037 29.4917L61.4259 29.3354Z" fill="#59584E"/>
<path d="M61.4657 29.2575L61.7514 29.4137C61.7684 29.3882 61.7775 29.3583 61.7775 29.3278C61.7775 29.2972 61.7684 29.2674 61.7514 29.2419C61.734 29.2201 61.7116 29.2028 61.686 29.1914C61.6604 29.18 61.6324 29.1749 61.6044 29.1764C61.5764 29.1779 61.5491 29.1861 61.525 29.2002C61.5008 29.2143 61.4805 29.234 61.4657 29.2575Z" fill="#59584E"/>
<path d="M63.719 26.6321L63.8301 26.6243L63.8698 26.8743L63.7507 26.8899L63.719 26.6399" fill="#848484"/>
<path d="M63.7115 26.609C63.6831 26.6243 63.6585 26.6455 63.6393 26.6711C63.6201 26.6968 63.6068 26.7262 63.6004 26.7574C63.6004 26.8434 63.648 26.9215 63.767 26.9215L63.7115 26.609Z" fill="#848484"/>
<path d="M63.8141 26.5931L63.8618 26.9135C63.8941 26.9053 63.923 26.8873 63.9444 26.8621C63.9657 26.8369 63.9785 26.8056 63.9808 26.7728C63.9819 26.7503 63.9784 26.7277 63.9706 26.7064C63.9628 26.6852 63.9508 26.6656 63.9353 26.649C63.9198 26.6323 63.9012 26.6187 63.8804 26.6092C63.8596 26.5996 63.8371 26.5941 63.8141 26.5931Z" fill="#848484"/>
<path d="M63.719 26.6321L63.8301 26.6243L63.8698 26.8743L63.7507 26.8899L63.719 26.6399" fill="#B9B9B8"/>
<path d="M63.782 26.6243L63.8137 26.8821H63.8534L63.8058 26.6243H63.782Z" fill="#A09F9F"/>
<path d="M63.711 26.609C63.6776 26.6242 63.6502 26.6498 63.6331 26.6818C63.616 26.7139 63.6102 26.7506 63.6165 26.7863C63.6228 26.822 63.641 26.8546 63.6681 26.8791C63.6953 26.9035 63.7299 26.9184 63.7665 26.9215L63.711 26.609Z" fill="#59584E"/>
<path d="M63.8141 26.5931L63.8618 26.9135C63.8941 26.9053 63.923 26.8873 63.9444 26.8621C63.9657 26.8369 63.9785 26.8056 63.9808 26.7728C63.9819 26.7503 63.9784 26.7277 63.9706 26.7064C63.9628 26.6852 63.9508 26.6656 63.9353 26.649C63.9198 26.6323 63.9012 26.6187 63.8804 26.6092C63.8596 26.5996 63.8371 26.5941 63.8141 26.5931Z" fill="#59584E"/>
<path d="M63.021 23.1479L63.0686 23.0464L63.3146 23.1245L63.2749 23.2339L63.0289 23.1479" fill="#848484"/>
<path d="M63.0125 23.1245C63.0113 23.1573 63.0178 23.1898 63.0316 23.2197C63.0454 23.2495 63.066 23.2758 63.0919 23.2964C63.1106 23.3083 63.1319 23.316 63.154 23.3189C63.1761 23.3218 63.1986 23.3198 63.2199 23.3131C63.2412 23.3063 63.2606 23.295 63.2769 23.28C63.2932 23.265 63.3059 23.2465 63.3141 23.2261L63.0125 23.1245Z" fill="#848484"/>
<path d="M63.0358 23.0385L63.3453 23.1323C63.3501 23.1022 63.346 23.0714 63.3333 23.0436C63.3206 23.0159 63.2999 22.9924 63.2739 22.976C63.2544 22.9637 63.2325 22.9555 63.2096 22.9519C63.1866 22.9484 63.1632 22.9496 63.1408 22.9555C63.1184 22.9614 63.0975 22.9718 63.0794 22.9861C63.0614 23.0004 63.0465 23.0182 63.0358 23.0385Z" fill="#848484"/>
<path d="M63.021 23.1479L63.0686 23.0464L63.3146 23.1245L63.2749 23.2339L63.0289 23.1479" fill="#B9B9B8"/>
<path d="M63.0519 23.0857L63.2979 23.1794L63.3137 23.1404L63.0598 23.0623L63.0519 23.0857Z" fill="#A09F9F"/>
<path d="M63.0131 23.1245C63.0104 23.1522 63.0157 23.18 63.0283 23.2049C63.0409 23.2298 63.0604 23.2506 63.0845 23.2651C63.1204 23.2896 63.1646 23.2992 63.2077 23.2919C63.2507 23.2846 63.2891 23.261 63.3146 23.2261L63.0131 23.1245Z" fill="#59584E"/>
<path d="M63.0358 23.0385L63.3453 23.1323C63.3501 23.1022 63.346 23.0714 63.3333 23.0436C63.3206 23.0159 63.2999 22.9924 63.2739 22.976C63.2544 22.9637 63.2325 22.9555 63.2096 22.9519C63.1866 22.9484 63.1632 22.9496 63.1408 22.9555C63.1184 22.9614 63.0975 22.9718 63.0794 22.9861C63.0614 23.0004 63.0465 23.0182 63.0358 23.0385Z" fill="#59584E"/>
<path d="M60.632 21.1479L60.7351 21.1323L60.7986 21.3823L60.6875 21.4058L60.632 21.1558" fill="#848484"/>
<path d="M60.6399 21.1244C60.6121 21.1413 60.5884 21.1641 60.5706 21.1912C60.5527 21.2182 60.5412 21.2487 60.5367 21.2806C60.5367 21.3744 60.6002 21.4369 60.7193 21.4291L60.6399 21.1244Z" fill="#848484"/>
<path d="M60.727 21.109L60.8063 21.4215C60.8358 21.4085 60.861 21.3878 60.8792 21.3616C60.8974 21.3354 60.9079 21.3048 60.9095 21.2731C60.911 21.2498 60.9071 21.2264 60.8982 21.2048C60.8893 21.1832 60.8756 21.1638 60.8581 21.148C60.8406 21.1323 60.8197 21.1206 60.797 21.1139C60.7744 21.1071 60.7504 21.1054 60.727 21.109Z" fill="#848484"/>
<path d="M60.632 21.1479L60.7351 21.1323L60.7986 21.3823L60.6875 21.4058L60.632 21.1558" fill="#B9B9B8"/>
<path d="M60.6961 21.1401L60.7517 21.3901L60.7913 21.3823L60.7199 21.1323L60.6961 21.1401Z" fill="#A09F9F"/>
<path d="M60.64 21.1243C60.6159 21.14 60.5956 21.1608 60.5805 21.1851C60.5654 21.2094 60.5559 21.2366 60.5527 21.2649C60.5527 21.3084 60.5702 21.3501 60.6015 21.3809C60.6327 21.4117 60.6751 21.429 60.7193 21.429L60.64 21.1243Z" fill="#59584E"/>
<path d="M60.727 21.109L60.8063 21.4215C60.8358 21.4085 60.861 21.3878 60.8792 21.3616C60.8974 21.3354 60.9079 21.3048 60.9095 21.2731C60.911 21.2498 60.9071 21.2264 60.8982 21.2048C60.8893 21.1832 60.8756 21.1638 60.8581 21.148C60.8406 21.1323 60.8197 21.1206 60.797 21.1139C60.7744 21.1071 60.7504 21.1054 60.727 21.109Z" fill="#59584E"/>
<path d="M57.2599 21.5382L57.3551 21.6085L57.1964 21.8195L57.1012 21.7491L57.2599 21.546" fill="#848484"/>
<path d="M57.2906 21.5384C57.2607 21.525 57.2282 21.5181 57.1954 21.5181C57.1625 21.5181 57.1301 21.525 57.1002 21.5384C57.082 21.5523 57.0674 21.57 57.0573 21.5903C57.0472 21.6106 57.0419 21.633 57.0419 21.6556C57.0419 21.6782 57.0472 21.7005 57.0573 21.7208C57.0674 21.7411 57.082 21.7589 57.1002 21.7727L57.2906 21.5384Z" fill="#848484"/>
<path d="M57.3633 21.5852L57.1729 21.843C57.2047 21.8606 57.2421 21.8656 57.2775 21.8569C57.313 21.8482 57.3436 21.8264 57.3633 21.7961C57.3885 21.7666 57.4023 21.7293 57.4023 21.6907C57.4023 21.6521 57.3885 21.6148 57.3633 21.5852Z" fill="#848484"/>
<path d="M57.2599 21.5382L57.3551 21.6085L57.1964 21.8195L57.1012 21.7491L57.2599 21.546" fill="#B9B9B8"/>
<path d="M57.3148 21.5852L57.1482 21.7883L57.1879 21.8118L57.3307 21.6008L57.3148 21.5852Z" fill="#A09F9F"/>
<path d="M57.2912 21.5387C57.2677 21.5233 57.2401 21.515 57.2119 21.515C57.1836 21.515 57.156 21.5233 57.1325 21.5387C57.1029 21.5692 57.0864 21.6098 57.0864 21.652C57.0864 21.6942 57.1029 21.7348 57.1325 21.7653L57.2912 21.5387Z" fill="#59584E"/>
<path d="M57.3633 21.5852L57.1729 21.843C57.2047 21.8606 57.2421 21.8656 57.2775 21.8569C57.313 21.8482 57.3436 21.8264 57.3633 21.7961C57.3885 21.7666 57.4023 21.7293 57.4023 21.6907C57.4023 21.6521 57.3885 21.6148 57.3633 21.5852Z" fill="#59584E"/>
<path d="M55.1487 24.1792L55.236 24.2495L55.0773 24.4604L54.99 24.3901L55.1487 24.187" fill="#848484"/>
<path d="M55.1727 24.1403C55.1141 24.1173 55.0488 24.1173 54.9902 24.1403C54.972 24.1542 54.9574 24.172 54.9473 24.1923C54.9372 24.2126 54.9319 24.2349 54.9319 24.2575C54.9319 24.2801 54.9372 24.3024 54.9473 24.3227C54.9574 24.3431 54.972 24.3608 54.9902 24.3747L55.1727 24.1403Z" fill="#848484"/>
<path d="M55.2447 24.2262L55.0543 24.484C55.0814 24.5015 55.1131 24.5108 55.1455 24.5108C55.1779 24.5108 55.2096 24.5015 55.2368 24.484C55.2571 24.4693 55.2737 24.4502 55.2854 24.4282C55.2971 24.4062 55.3036 24.3818 55.3043 24.357C55.3051 24.3322 55.3001 24.3075 55.2898 24.2848C55.2795 24.2622 55.2641 24.2421 55.2447 24.2262Z" fill="#848484"/>
<path d="M55.1487 24.1792L55.236 24.2495L55.0773 24.4604L54.99 24.3901L55.1487 24.187" fill="#B9B9B8"/>
<path d="M55.1969 24.2183L55.0382 24.4292L55.0699 24.4526L55.2207 24.2417L55.1969 24.2183Z" fill="#A09F9F"/>
<path d="M55.1728 24.1401C55.1479 24.1289 55.1208 24.123 55.0934 24.123C55.066 24.123 55.039 24.1289 55.0141 24.1401C54.9982 24.1554 54.9857 24.1736 54.9771 24.1937C54.9685 24.2139 54.9641 24.2355 54.9641 24.2573C54.9641 24.2791 54.9685 24.3007 54.9771 24.3208C54.9857 24.341 54.9982 24.3592 55.0141 24.3745L55.1728 24.1401Z" fill="#59584E"/>
<path d="M55.2447 24.2262L55.0543 24.484C55.0814 24.5015 55.1131 24.5108 55.1455 24.5108C55.1779 24.5108 55.2096 24.5015 55.2368 24.484C55.2571 24.4693 55.2737 24.4502 55.2854 24.4282C55.2971 24.4062 55.3036 24.3818 55.3043 24.357C55.3051 24.3322 55.3001 24.3075 55.2898 24.2848C55.2795 24.2622 55.2641 24.2421 55.2447 24.2262Z" fill="#59584E"/>
<path opacity="0.1" d="M55.9343 23.2727C55.9343 23.2727 55.2678 28.9055 61.8381 28.5774L61.3937 30.1399C60.5634 30.4241 59.6742 30.4993 58.8068 30.3586C56.5136 29.968 53.6966 28.2883 54.8869 23.9836C54.8869 23.9524 55.2519 23.7024 55.9343 23.2727Z" fill="#231E20"/>
<path d="M57.7915 32.101C57.7915 32.101 55.4109 32.6947 57.6724 34.6479C57.6724 34.6479 58.9182 35.9838 62.4811 35.476C62.4811 35.476 66.5995 34.9369 66.655 31.5697C66.655 31.5697 66.8772 29.226 65.433 28.7494C65.433 28.7494 64.4808 28.5307 63.5524 29.7885C63.2455 30.196 62.8792 30.5567 62.4652 30.8588C62.0681 31.1644 61.6076 31.3804 61.1163 31.4916C60.4894 31.6713 59.3071 31.7494 58.9341 31.8432C58.5483 31.9064 58.1667 31.9925 57.7915 32.101Z" fill="#202426"/>
<path d="M66.1871 29.3045C66.0089 29.0356 65.743 28.8345 65.4333 28.7342C65.4333 28.7342 64.5049 28.5154 63.5527 29.7732C63.2458 30.1808 62.8795 30.5415 62.4655 30.8435C62.0683 31.1491 61.6078 31.3652 61.1166 31.4764C60.4897 31.656 59.3074 31.7342 58.9344 31.8279C58.5483 31.8963 58.1667 31.9876 57.7917 32.1014C57.7917 32.1014 56.0857 32.531 56.9506 33.8514C59.2201 33.5154 64.1319 32.4217 66.1871 29.3045Z" fill="white"/>
<path d="M62.4806 35.4761C62.4806 35.4761 65.8689 35.0308 66.5355 32.4214C64.6941 33.8927 62.5538 34.9583 60.2588 35.5464C60.9997 35.6084 61.7453 35.5848 62.4806 35.4761Z" fill="white"/>
<path d="M64.6001 29.6559C63.8064 30.5791 62.7958 31.2978 61.6562 31.7497C60.0682 32.3655 58.4113 32.793 56.7206 33.0231C56.6873 33.3179 56.7696 33.6141 56.9507 33.8512C59.0932 33.5309 63.5924 32.5465 65.8222 29.8122C65.5524 29.4918 65.0683 29.1012 64.6001 29.6559Z" fill="white"/>
<path d="M63.3219 35.4914C63.0214 35.5882 62.7136 35.6614 62.4014 35.7102C58.8941 36.2102 57.5848 34.9289 57.4737 34.8352C56.6802 34.1711 56.3786 33.5695 56.4897 33.0539C56.6008 32.5383 57.3784 32.1399 57.6006 32.0774H57.6562C58.0337 31.9613 58.4179 31.8674 58.8068 31.7961C58.9734 31.757 59.2511 31.7258 59.6003 31.6789C60.0731 31.6345 60.5423 31.5588 61.0048 31.4524C61.472 31.3444 61.9103 31.1393 62.2903 30.8508C62.6926 30.5606 63.046 30.21 63.3377 29.8117C63.6597 29.3374 64.1266 28.9762 64.6708 28.7805C64.8943 28.7005 65.1356 28.6816 65.3691 28.7258C66.8847 29.2024 66.7022 31.5227 66.6943 31.6789C66.6546 34.1086 64.5677 35.0774 63.3219 35.4914ZM57.6879 32.3664C57.553 32.4055 56.8944 32.6399 56.7674 33.1477C56.6405 33.6555 56.9896 34.0852 57.672 34.6711C57.974 34.9309 58.3282 35.1253 58.7116 35.2414C60.1818 35.6916 61.7563 35.6916 63.2266 35.2414C64.401 34.882 66.4007 33.9367 66.4007 31.6555C66.4007 31.6555 66.5991 29.4055 65.2818 28.9914C65.0982 28.9613 64.9099 28.9774 64.7343 29.0383C64.2505 29.2177 63.8367 29.5431 63.552 29.968C63.244 30.3914 62.8689 30.7633 62.4411 31.0695C62.0273 31.382 61.5515 31.6056 61.0445 31.7258C60.569 31.8377 60.0866 31.9186 59.6003 31.968C59.3498 31.9909 59.1008 32.0274 58.8544 32.0774C58.4755 32.1432 58.1017 32.2346 57.7355 32.3508L57.6879 32.3664Z" fill="#7A3C94"/>
<path d="M54.3315 20.8359C55.5883 19.6625 57.2217 18.9579 58.9498 18.8437C58.9498 18.8437 55.4583 17.4687 54.3315 20.8359Z" fill="white"/>
<path opacity="0.15" d="M58.8863 18.8352C58.5213 18.6946 55.3949 17.6712 54.3315 20.8352C54.7427 20.1216 55.3581 19.5428 56.1011 19.1712C56.9992 18.8852 57.9446 18.7712 58.8863 18.8352Z" fill="white"/>
<path d="M48.8954 27.2182C48.8485 27.3035 48.8163 27.3959 48.8002 27.4916C48.7173 27.4317 48.6173 27.399 48.5145 27.3979C48.1529 26.2166 47.6353 25.0872 46.9751 24.0385C46.9173 23.858 46.9173 23.6643 46.9751 23.4838C47.05 23.2286 47.05 22.9577 46.9751 22.7026C46.6629 22.7221 46.3498 22.6796 46.0546 22.5776V22.1713C46.1503 22.1992 46.2515 22.204 46.3494 22.1851C46.4474 22.1662 46.5393 22.1243 46.6172 22.0629C46.6952 22.0015 46.7569 21.9225 46.7971 21.8325C46.8373 21.7426 46.8548 21.6444 46.8481 21.5463C46.8525 21.4601 46.8384 21.374 46.8069 21.2936C46.7753 21.2131 46.727 21.14 46.665 21.079C46.603 21.0181 46.5287 20.9706 46.4469 20.9396C46.3651 20.9087 46.2776 20.895 46.1901 20.8994C46.1026 20.9037 46.017 20.9262 45.9388 20.9651C45.8607 21.0041 45.7917 21.0588 45.7363 21.1256C45.6809 21.1925 45.6403 21.27 45.6173 21.3532C45.5942 21.4365 45.5891 21.5235 45.6023 21.6088C45.6093 21.7076 45.6394 21.8035 45.6904 21.8889C45.7413 21.9743 45.8117 22.0469 45.8959 22.101L45.8483 22.7572C46.1858 22.853 46.5402 22.877 46.8878 22.8276C46.8878 22.8276 46.8878 22.9213 46.8085 23.1479C46.755 23.3159 46.7379 23.4932 46.7584 23.6681C46.7789 23.8431 46.8365 24.0118 46.9275 24.1635L47.6258 25.601C47.9132 26.1862 48.1392 26.7987 48.3003 27.4291C48.2242 27.4682 48.1613 27.528 48.1191 27.6015C48.0768 27.675 48.0571 27.7589 48.0622 27.8432C48.0695 27.9405 48.1081 28.0331 48.1722 28.1075C48.2364 28.1819 48.3229 28.2343 48.4193 28.2572C48.6335 28.3197 48.8795 28.1635 48.9192 28.2572C49.0679 28.4749 49.2698 28.6522 49.5064 28.7729C49.4168 28.2179 49.2086 27.688 48.8954 27.2182Z" fill="white"/>
<path d="M50.0862 28.9529C50.0984 28.5691 50.0284 28.1871 49.8808 27.8318C49.7331 27.4764 49.5111 27.1557 49.2292 26.8904C49.2292 26.8904 49.2292 26.8904 49.1895 26.8904C49.1046 26.9543 49.0366 27.0373 48.9911 27.1326C49.3359 27.641 49.5559 28.2214 49.6339 28.8279C49.7694 28.8959 49.9135 28.9458 50.0624 28.9763C50.0624 28.9763 50.0862 28.9607 50.0862 28.9529Z" fill="white"/>
<path d="M46.8489 21.5771V21.4443C46.6605 21.3665 46.4582 21.3264 46.2538 21.3264C46.0494 21.3264 45.8471 21.3665 45.6587 21.4443C45.6465 21.5193 45.6465 21.5958 45.6587 21.6708C45.6671 21.7696 45.6968 21.8655 45.7459 21.9521C46.0793 22.0572 46.4346 22.076 46.7775 22.0068C46.8557 21.8776 46.8812 21.724 46.8489 21.5771Z" fill="white"/>
<path d="M46.7772 21.937C46.8429 21.8288 46.8733 21.7034 46.8645 21.5776C46.8688 21.5335 46.8688 21.489 46.8645 21.4448C46.6701 21.3515 46.4579 21.2998 46.2418 21.2931C46.0258 21.2864 45.8107 21.3248 45.6107 21.4058C45.5947 21.4831 45.5947 21.5628 45.6107 21.6401C45.6122 21.7238 45.6311 21.8062 45.6663 21.8823C46.0235 22.0053 46.4092 22.0243 46.7772 21.937Z" fill="white"/>
<path opacity="0.7" d="M46.8086 21.5382C46.8086 21.5382 46.8086 21.6007 46.8086 21.6085C46.8086 21.6163 46.8086 21.6085 46.8086 21.5538C46.8086 21.4991 46.7689 21.4991 46.8086 21.4913C46.8483 21.4835 46.8007 21.4991 46.8086 21.5382Z" fill="white"/>
</g>
</g>
<defs>
<filter id="filter0_b_451_2013" x="-71.4" y="-71.0724" width="321.8" height="199.8" filterUnits="userSpaceOnUse" color-interpolation-filters="sRGB">
<feFlood flood-opacity="0" result="BackgroundImageFix"/>
<feGaussianBlur in="BackgroundImageFix" stdDeviation="35.7"/>
<feComposite in2="SourceAlpha" operator="in" result="effect1_backgroundBlur_451_2013"/>
<feBlend mode="normal" in="SourceGraphic" in2="effect1_backgroundBlur_451_2013" result="shape"/>
</filter>
<linearGradient id="paint0_linear_451_2013" x1="91.1662" y1="27.429" x2="93.5864" y2="27.429" gradientUnits="userSpaceOnUse">
<stop stop-color="#FF5700"/>
<stop offset="1" stop-color="#FFAD00"/>
</linearGradient>
<linearGradient id="paint1_linear_451_2013" x1="121.28" y1="29.078" x2="127.231" y2="29.078" gradientUnits="userSpaceOnUse">
<stop stop-color="#FF5700"/>
<stop offset="1" stop-color="#FFAD00"/>
</linearGradient>
<linearGradient id="paint2_linear_451_2013" x1="85.9532" y1="28.9603" x2="89.5875" y2="28.9603" gradientUnits="userSpaceOnUse">
<stop stop-color="#FF5700"/>
<stop offset="1" stop-color="#FFAD00"/>
</linearGradient>
<linearGradient id="paint3_linear_451_2013" x1="83.763" y1="29.0778" x2="85.7468" y2="29.0778" gradientUnits="userSpaceOnUse">
<stop stop-color="#FF5700"/>
<stop offset="1" stop-color="#FFAD00"/>
</linearGradient>
<linearGradient id="paint4_linear_451_2013" x1="101.355" y1="28.9686" x2="105.053" y2="28.9686" gradientUnits="userSpaceOnUse">
<stop stop-color="#FF5700"/>
<stop offset="1" stop-color="#FFAD00"/>
</linearGradient>
<linearGradient id="paint5_linear_451_2013" x1="97.7362" y1="28.9682" x2="101.355" y2="28.9682" gradientUnits="userSpaceOnUse">
<stop stop-color="#FF5700"/>
<stop offset="1" stop-color="#FFAD00"/>
</linearGradient>
<linearGradient id="paint6_linear_451_2013" x1="95.4515" y1="29.085" x2="97.7368" y2="29.085" gradientUnits="userSpaceOnUse">
<stop stop-color="#FF5700"/>
<stop offset="1" stop-color="#FFAD00"/>
</linearGradient>
<linearGradient id="paint7_linear_451_2013" x1="106.331" y1="29.0933" x2="110.981" y2="29.0933" gradientUnits="userSpaceOnUse">
<stop stop-color="#FF5700"/>
<stop offset="1" stop-color="#FFAD00"/>
</linearGradient>
<linearGradient id="paint8_linear_451_2013" x1="110.337" y1="29.085" x2="112.631" y2="29.085" gradientUnits="userSpaceOnUse">
<stop stop-color="#FF5700"/>
<stop offset="1" stop-color="#FFAD00"/>
</linearGradient>
<linearGradient id="paint9_linear_451_2013" x1="116.701" y1="29.0859" x2="120.653" y2="29.0859" gradientUnits="userSpaceOnUse">
<stop stop-color="#FF5700"/>
<stop offset="1" stop-color="#FFAD00"/>
</linearGradient>
<linearGradient id="paint10_linear_451_2013" x1="114.385" y1="27.187" x2="116.702" y2="27.187" gradientUnits="userSpaceOnUse">
<stop stop-color="#FF5700"/>
<stop offset="1" stop-color="#FFAD00"/>
</linearGradient>
<linearGradient id="paint11_linear_451_2013" x1="130.865" y1="27.2104" x2="132.897" y2="27.2104" gradientUnits="userSpaceOnUse">
<stop stop-color="#FF5700"/>
<stop offset="1" stop-color="#FFAD00"/>
</linearGradient>
<linearGradient id="paint12_linear_451_2013" x1="128.573" y1="29.0856" x2="130.866" y2="29.0856" gradientUnits="userSpaceOnUse">
<stop stop-color="#FF5700"/>
<stop offset="1" stop-color="#FFAD00"/>
</linearGradient>
<linearGradient id="paint13_linear_451_2013" x1="74.3831" y1="27.4292" x2="81.8342" y2="27.4292" gradientUnits="userSpaceOnUse">
<stop stop-color="#FF5700"/>
<stop offset="1" stop-color="#FFAD00"/>
</linearGradient>
<clipPath id="clip0_451_2013">
<rect width="92" height="25" fill="white" transform="translate(43.5 16.3276)"/>
</clipPath>
</defs>
</svg>
