<svg width="234" height="73" viewBox="0 0 234 73" fill="none" xmlns="http://www.w3.org/2000/svg">
<g filter="url(#filter0_b_430_197)">
<rect x="0.946838" y="0.107422" width="232.215" height="72" rx="15" fill="#333437" fill-opacity="0.7"/>
<rect x="1.19684" y="0.357422" width="231.715" height="71.5" rx="14.75" stroke="url(#paint0_linear_430_197)" stroke-width="0.5"/>
<g clip-path="url(#clip0_430_197)">
<path d="M90.7465 39.1449C90.2368 36.5517 89.5108 34.0054 88.5761 31.5324C88.5413 31.4554 88.512 31.376 88.4883 31.2949L88.5635 31.1824C88.934 30.6396 89.177 30.0207 89.2748 29.3715C89.3725 28.7224 89.3224 28.0596 89.1281 27.4324C88.7072 25.8439 88.114 24.3056 87.3592 22.8449C87.0238 22.1053 86.4828 21.4768 85.8003 21.0338C85.1178 20.5907 84.3222 20.3517 83.5076 20.3449H83.3571C83.2732 20.113 83.1726 19.8874 83.056 19.6699C82.5372 18.6117 81.7333 17.7182 80.7341 17.0891C79.7349 16.4599 78.5798 16.1201 77.3979 16.1074C76.4835 16.1176 75.5784 16.2911 74.7257 16.6199C74.1611 16.7699 72.5051 17.2199 70.2218 17.8699C69.65 17.5628 68.998 17.4364 68.3525 17.5074C67.3964 17.2036 66.3944 17.0683 65.3917 17.1074C65.2247 17.0945 65.0569 17.0945 64.8899 17.1074C64.4691 17.0609 64.0433 17.0948 63.6353 17.2074C63.4863 17.2445 63.3397 17.2904 63.1962 17.3449L62.9202 17.4449L62.594 17.5949L62.4309 17.6699L62.0796 17.8574L61.904 17.9699L61.5527 18.1949L61.3896 18.3199L61.1011 18.5449L60.9129 18.7074L60.6243 18.9824C60.5639 19.0302 60.5091 19.0847 60.4612 19.1449C60.3558 19.2402 60.2593 19.3448 60.1727 19.4574L60.0221 19.6324C59.9343 19.7324 59.859 19.8449 59.7712 19.9574L59.6332 20.1574C59.5466 20.2734 59.467 20.3945 59.3948 20.5199C59.3486 20.5837 59.3066 20.6505 59.2694 20.7199C59.1941 20.8449 59.1314 20.9699 59.0561 21.1199L58.9432 21.3324C58.8701 21.4693 58.8072 21.6113 58.755 21.7574L58.6547 21.9574C56.9484 22.6574 55.2422 23.4074 53.6364 24.2074C53.4083 24.3208 53.1864 24.446 52.9715 24.5824C52.9539 24.3125 52.9119 24.0448 52.846 23.7824C52.7638 23.488 52.6414 23.2062 52.4822 22.9449C52.1251 22.2559 51.5857 21.6774 50.9222 21.272C50.2588 20.8666 49.4967 20.6497 48.7185 20.6449H48.5052C47.867 20.6664 47.242 20.8316 46.677 21.1282C46.1121 21.4248 45.6219 21.8451 45.2433 22.3574C44.9288 22.6933 44.6931 23.0947 44.5533 23.5324C44.3765 24.0421 44.304 24.5819 44.34 25.1199C44.3589 25.4804 44.4221 25.8373 44.5282 26.1824C44.5654 26.6898 44.6973 27.1858 44.9171 27.6449C45.0058 28.11 45.197 28.5497 45.4769 28.9323C45.7567 29.3149 46.1183 29.6309 46.5355 29.8574C46.5812 29.992 46.64 30.1218 46.7112 30.2449C46.7478 30.3267 46.7897 30.4061 46.8366 30.4824L47.8905 32.6949C48.1288 33.1949 48.2919 33.5949 48.4048 33.9449C48.3164 34.3258 48.2784 34.7167 48.2919 35.1074C48.344 35.9289 48.6508 36.7141 49.1699 37.3545C49.689 37.9949 50.3949 38.4589 51.19 38.6824H51.4158C51.6782 38.8914 51.9596 39.0756 52.2564 39.2324C52.535 39.3694 52.8302 39.4702 53.1346 39.5324L53.3855 39.6199L57.0237 49.1074C57.3248 49.9408 57.6259 50.8158 57.927 51.7324C58.1158 52.4429 58.4348 53.1125 58.8679 53.7074C59.2847 54.3168 59.8335 54.8251 60.4738 55.1949C61.4132 55.7688 62.4958 56.0677 63.5976 56.0574C64.0631 56.0707 64.5289 56.0456 64.9902 55.9824C65.5924 55.8574 80.045 53.1449 88.1872 47.3449C89.0582 46.7554 89.7793 45.9717 90.2932 45.056C90.8072 44.1404 91.0998 43.118 91.1479 42.0699C91.3013 41.0768 91.1618 40.0606 90.7465 39.1449Z" fill="#292839"/>
<path d="M186.47 26.5324C186.012 26.4383 185.546 26.3881 185.078 26.3824C184.207 26.392 183.349 26.5971 182.569 26.9824C181.937 26.8002 181.282 26.7076 180.624 26.7074H180.561C179.253 26.7006 177.982 27.1419 176.961 27.9574L176.735 27.7949C175.446 26.9014 173.931 26.3867 172.363 26.3093C170.795 26.232 169.236 26.5951 167.865 27.3574C167.058 26.9168 166.151 26.6887 165.231 26.6949H164.101V26.3949C164.098 24.861 163.485 23.3908 162.397 22.3062C161.308 21.2215 159.832 20.6107 158.293 20.6074H158.08C156.538 20.6074 155.059 21.2168 153.968 22.3018C152.876 23.3868 152.262 24.8588 152.258 26.3949V26.7074H151.907H151.681C151.099 26.7087 150.519 26.7716 149.95 26.8949C149.086 26.5233 148.156 26.3319 147.215 26.3324C145.746 26.3215 144.313 26.7914 143.138 27.6699C141.978 26.7776 140.551 26.2979 139.085 26.3074C138.046 26.3014 137.016 26.5099 136.062 26.9199C135.166 26.5079 134.189 26.2987 133.201 26.3074C132.204 26.3137 131.219 26.5355 130.316 26.9574C129.677 26.7889 129.019 26.7048 128.359 26.7074H128.146C127.953 26.6946 127.761 26.6946 127.568 26.7074C127.419 25.3427 126.808 24.069 125.837 23.0949C125.053 22.3145 124.067 21.765 122.99 21.5069C121.912 21.2487 120.783 21.292 119.729 21.632C118.674 21.9719 117.734 22.5953 117.012 23.4335C116.29 24.2717 115.815 25.2921 115.638 26.3824C115.282 26.3176 114.921 26.2841 114.559 26.2824C113.55 26.2774 112.553 26.4907 111.635 26.9074C111.001 26.739 110.347 26.6549 109.691 26.6574H109.478C108.214 26.6601 106.985 27.0726 105.977 27.8324V27.7574C105.137 24.6199 102.477 21.4324 99.0145 21.4324C95.5519 21.4324 92.8797 24.6199 92.0391 27.7574L89.3669 37.7574C89.0283 38.7954 88.9281 39.8959 89.0736 40.9777C89.2191 42.0595 89.6066 43.0949 90.2075 44.0074C90.6601 44.6394 91.2487 45.1626 91.9302 45.5389C92.6118 45.9152 93.3691 46.1351 94.1468 46.1824H94.6612C95.4698 46.2063 96.2751 46.0706 97.0308 45.7831C97.7866 45.4956 98.4778 45.0621 99.0647 44.5074C100.265 45.5803 101.818 46.1764 103.431 46.1824H103.845C104.739 46.1459 105.612 45.8973 106.391 45.4574C107.309 46.0288 108.37 46.3319 109.453 46.3324H109.666C110.635 46.3308 111.589 46.0857 112.438 45.6199C113.288 46.0857 114.241 46.3308 115.211 46.3324H115.437C116.486 46.3309 117.515 46.0411 118.41 45.4949C119.323 46.055 120.374 46.3534 121.446 46.3574H121.672C122.826 46.358 123.953 46.0141 124.909 45.3699C125.858 46.0063 126.976 46.3458 128.12 46.3449H128.334C129.295 46.3434 130.241 46.0982 131.081 45.6324C131.931 46.0982 132.884 46.3433 133.854 46.3449H134.092C135.063 46.3438 136.018 46.0942 136.865 45.6199C137.719 46.0973 138.683 46.347 139.663 46.3449H139.888C141.028 46.344 142.142 46.0046 143.087 45.3699C144.267 46.2598 145.71 46.7346 147.19 46.7199C148.152 46.7242 149.104 46.515 149.975 46.1074C150.549 46.2511 151.139 46.3225 151.731 46.3199H151.932C153.025 46.3153 154.095 46.0033 155.018 45.4199C155.94 46.0065 157.011 46.3187 158.105 46.3199H158.318C159.371 46.3169 160.404 46.0273 161.304 45.4824C162.281 46.0182 163.375 46.3058 164.49 46.3199H165.268C166.193 46.325 167.103 46.0971 167.915 45.6574C169.179 46.3378 170.594 46.6903 172.03 46.6824C173.774 46.6679 175.462 46.0691 176.823 44.9824C177.879 45.8577 179.213 46.3316 180.586 46.3199H180.8C182.341 46.3166 183.819 45.7041 184.908 44.6167C185.997 43.5294 186.608 42.056 186.608 40.5199V37.7699C187.623 37.2915 188.469 36.5188 189.036 35.5529C189.602 34.5871 189.862 33.4732 189.782 32.3574V30.5574C189.779 29.6095 189.447 28.6918 188.844 27.9587C188.241 27.2257 187.403 26.722 186.47 26.5324Z" fill="#292839"/>
<path d="M119.689 27.3571C119.684 27.1036 119.732 26.8518 119.829 26.6174C119.926 26.383 120.071 26.171 120.253 25.9946C120.43 25.8166 120.64 25.6752 120.871 25.5788C121.103 25.4823 121.351 25.4326 121.602 25.4326C121.853 25.4326 122.101 25.4823 122.333 25.5788C122.564 25.6752 122.774 25.8166 122.951 25.9946C123.133 26.171 123.278 26.383 123.375 26.6174C123.472 26.8518 123.52 27.1036 123.515 27.3571C123.516 27.6082 123.466 27.857 123.37 28.0888C123.273 28.3206 123.13 28.5308 122.951 28.7071C122.774 28.8851 122.564 29.0265 122.333 29.1229C122.101 29.2194 121.853 29.2691 121.602 29.2691C121.351 29.2691 121.103 29.2194 120.871 29.1229C120.64 29.0265 120.43 28.8851 120.253 28.7071C120.074 28.5308 119.931 28.3206 119.835 28.0888C119.738 27.857 119.688 27.6082 119.689 27.3571ZM119.789 32.4821C119.799 32.0463 119.976 31.6307 120.284 31.3213C120.592 31.0119 121.008 30.8323 121.445 30.8196H121.671C122.121 30.8229 122.552 31.0035 122.869 31.3219C123.187 31.6404 123.365 32.0709 123.365 32.5196V40.5571C123.365 41.0058 123.187 41.4363 122.869 41.7548C122.552 42.0732 122.121 42.2538 121.671 42.2571H121.445C120.993 42.2571 120.559 42.078 120.239 41.7592C119.919 41.4404 119.739 41.008 119.739 40.5571L119.789 32.4821Z" fill="url(#paint1_linear_430_197)"/>
<path d="M172.882 39.6206C172.773 39.7283 172.644 39.8136 172.502 39.8715C172.36 39.9294 172.208 39.9589 172.054 39.9581C171.8 39.9548 171.554 39.865 171.358 39.7036C171.162 39.5422 171.027 39.3188 170.975 39.0706C170.914 38.8636 170.904 38.645 170.946 38.4333C170.988 38.2217 171.08 38.0232 171.216 37.855C171.352 37.6868 171.526 37.5537 171.724 37.4672C171.923 37.3807 172.139 37.3432 172.355 37.3581H176.709C176.749 35.9628 176.545 34.5712 176.106 33.2456C175.77 32.3863 175.174 31.6525 174.4 31.1456C173.685 30.6401 172.831 30.3653 171.954 30.3581C171.3 30.3396 170.652 30.4789 170.065 30.764C169.477 31.0491 168.967 31.4717 168.579 31.9956C167.682 33.2591 167.24 34.7876 167.324 36.3331C167.221 37.9507 167.662 39.5565 168.579 40.8956C168.974 41.4324 169.495 41.8646 170.096 42.1544C170.698 42.4442 171.361 42.5828 172.029 42.5581C172.775 42.4916 173.493 42.2408 174.117 41.8283C174.742 41.4157 175.253 40.8546 175.605 40.1956C176.044 39.3706 175.504 38.8081 174.701 38.6956C173.898 38.5831 172.882 39.6206 172.882 39.6206ZM170.687 35.4456C170.641 34.829 170.748 34.2106 171 33.6456C171.099 33.4629 171.249 33.3126 171.431 33.2128C171.614 33.113 171.821 33.0679 172.029 33.0831C172.137 33.0689 172.247 33.0689 172.355 33.0831C172.501 33.1166 172.638 33.1823 172.755 33.2753C172.872 33.3683 172.967 33.4863 173.033 33.6206C173.088 33.7377 173.134 33.8589 173.171 33.9831C173.285 34.4457 173.348 34.9193 173.359 35.3956H170.674L170.687 35.4456Z" fill="url(#paint2_linear_430_197)"/>
<path d="M116.49 31.2197C116.253 30.9529 115.958 30.7425 115.628 30.6041C115.298 30.4656 114.941 30.4026 114.583 30.4197C113.879 30.4001 113.194 30.6456 112.664 31.1072C112.024 31.7572 111.497 32.2947 111.409 32.3572V34.8572C111.416 34.7171 111.45 34.5796 111.511 34.4529C111.571 34.3262 111.657 34.2129 111.762 34.1197C111.867 34.0265 111.99 33.9552 112.123 33.9101C112.257 33.8651 112.398 33.8471 112.538 33.8572C112.677 33.8533 112.814 33.8845 112.937 33.9479C113.06 34.0113 113.164 34.1049 113.241 34.2197L113.429 34.4697C113.429 34.8572 113.517 35.9447 113.517 36.8822V40.5322C113.517 40.9831 113.697 41.4155 114.017 41.7343C114.337 42.0531 114.771 42.2322 115.223 42.2322H115.449C115.901 42.2322 116.335 42.0531 116.655 41.7343C116.975 41.4155 117.155 40.9831 117.155 40.5322V33.3697C117.208 32.5958 116.971 31.8299 116.49 31.2197Z" fill="url(#paint3_linear_430_197)"/>
<path d="M111.409 32.3576C111.382 32.1 111.382 31.8403 111.409 31.5826C111.409 31.1576 110.644 30.8076 109.715 30.8076H109.502C109.05 30.8076 108.616 30.9867 108.296 31.3055C107.976 31.6243 107.796 32.0567 107.796 32.5076V40.5451C107.796 40.996 107.976 41.4284 108.296 41.7472C108.616 42.066 109.05 42.2451 109.502 42.2451H109.715C109.939 42.2435 110.161 42.1979 110.367 42.1109C110.574 42.024 110.761 41.8974 110.918 41.7384C111.075 41.5794 111.2 41.391 111.284 41.1841C111.368 40.9773 111.411 40.7559 111.409 40.5326V35.3076C111.409 35.1451 111.409 34.9951 111.409 34.8576V32.3576Z" fill="url(#paint4_linear_430_197)"/>
<path d="M139.11 30.4079C138.487 30.3953 137.873 30.5601 137.341 30.8829C136.764 31.2759 136.244 31.7471 135.798 32.2829V40.8954C135.811 40.7791 135.811 40.6617 135.798 40.5454V35.4704C135.798 34.3829 136.162 33.8454 136.902 33.8454H137.617C137.829 34.9502 137.946 36.0708 137.968 37.1954V40.5454C137.968 40.9963 138.148 41.4287 138.468 41.7475C138.788 42.0663 139.222 42.2454 139.674 42.2454H139.9C140.353 42.2454 140.787 42.0663 141.107 41.7475C141.427 41.4287 141.606 40.9963 141.606 40.5454V33.9329C141.644 31.5829 140.791 30.4079 139.11 30.4079Z" fill="url(#paint5_linear_430_197)"/>
<path d="M135.797 32.2822L135.709 32.3822C135.606 31.8042 135.293 31.284 134.831 30.9201C134.368 30.5561 133.788 30.3737 133.2 30.4072C132.523 30.4314 131.872 30.6725 131.343 31.0947C130.641 31.7072 130.089 31.8947 130.089 31.5072C130.087 31.4864 130.087 31.4656 130.089 31.4447V40.6822C130.089 40.6822 130.089 40.5947 130.089 40.5447V35.3197C130.064 34.9357 130.165 34.554 130.377 34.2322C130.464 34.1085 130.581 34.0083 130.717 33.9406C130.853 33.873 131.003 33.8401 131.155 33.8447C131.306 33.8412 131.456 33.8761 131.59 33.9461C131.723 34.0161 131.837 34.1188 131.92 34.2447L132.108 34.5197C132.108 34.9447 132.209 36.0572 132.209 37.0197V40.5822C132.209 41.031 132.387 41.4615 132.704 41.7799C133.021 42.0984 133.452 42.2789 133.902 42.2822H134.141C134.53 42.2791 134.906 42.1436 135.208 41.898C135.509 41.6525 135.717 41.3117 135.797 40.9322V32.2822Z" fill="url(#paint6_linear_430_197)"/>
<path d="M130.077 31.4441C130.002 31.0941 129.274 30.8066 128.383 30.8066H128.17C127.946 30.8066 127.724 30.8506 127.517 30.936C127.31 31.0215 127.122 31.1467 126.964 31.3046C126.805 31.4624 126.679 31.6498 126.594 31.8561C126.508 32.0623 126.464 32.2834 126.464 32.5066V40.5441C126.464 40.995 126.644 41.4274 126.964 41.7462C127.284 42.065 127.718 42.2441 128.17 42.2441H128.383C128.811 42.2424 129.222 42.0809 129.536 41.7915C129.849 41.5022 130.042 41.1061 130.077 40.6816V31.4441Z" fill="url(#paint7_linear_430_197)"/>
<path d="M148.708 30.8575C148.275 30.5672 147.762 30.4186 147.24 30.4325C146.701 30.4441 146.174 30.6013 145.717 30.8875C145.259 31.1736 144.888 31.578 144.643 32.0575C143.93 33.4024 143.592 34.9132 143.665 36.4325C143.585 38.003 143.918 39.567 144.631 40.97C144.868 41.4611 145.238 41.8766 145.699 42.1702C146.16 42.4638 146.693 42.6239 147.24 42.6325C147.754 42.6444 148.257 42.4861 148.671 42.1825C148.848 42.0537 149.012 41.9071 149.16 41.745L149.687 41.07C150.309 40.0318 150.698 38.872 150.828 37.67C151.068 35.822 150.731 33.9454 149.862 32.295C149.554 31.7596 149.165 31.2747 148.708 30.8575ZM149.963 36.4575C149.963 38.4325 149.511 39.42 148.62 39.42C147.73 39.42 147.153 38.4325 147.153 36.4575C147.153 34.4825 147.692 33.6075 148.62 33.6075C149.549 33.6075 150.026 34.57 150.026 36.4575H149.963Z" fill="url(#paint8_linear_430_197)"/>
<path d="M151.931 30.8066H151.705C150.764 30.8066 149.999 31.1316 149.999 31.5191V35.7691C149.999 35.9816 149.999 36.2066 149.999 36.4566C149.999 36.7066 149.999 36.9691 149.999 37.1941V40.7316C150.014 40.9814 150.014 41.2319 149.999 41.4816C149.999 41.9066 150.764 42.2441 151.705 42.2441H151.906C152.356 42.2408 152.787 42.0603 153.104 41.7418C153.422 41.4234 153.6 40.9929 153.6 40.5441V32.5066C153.6 32.0622 153.425 31.6354 153.113 31.3176C152.801 30.9999 152.377 30.8164 151.931 30.8066Z" fill="url(#paint9_linear_430_197)"/>
<path d="M164.1 37.3582C163.87 36.9156 163.76 36.4207 163.782 35.9228C163.804 35.4249 163.957 34.9414 164.225 34.5207L165.931 32.1582C166.471 31.4082 166.145 30.7832 165.216 30.7832H164.275C163.762 30.811 163.261 30.9562 162.813 31.2077C162.365 31.4591 161.981 31.81 161.691 32.2332L160.976 33.4082C160.524 34.1707 160.135 34.7832 160.085 34.8457V36.6457C160.085 36.7207 160.461 37.3707 160.838 38.1582L162.092 40.6582C162.34 41.1096 162.702 41.4887 163.142 41.7583C163.582 42.0279 164.085 42.1787 164.601 42.1957H165.379C166.308 42.1957 166.634 41.5332 166.207 40.7332L164.1 37.3582Z" fill="url(#paint10_linear_430_197)"/>
<path d="M160.062 34.8574C160.062 34.8574 160.062 34.0949 160.062 33.1699V26.4199C160.056 25.9722 159.873 25.5449 159.554 25.2295C159.236 24.9141 158.805 24.7356 158.356 24.7324H158.143C157.692 24.7324 157.26 24.9098 156.941 25.2259C156.621 25.542 156.44 25.9712 156.437 26.4199V40.5449C156.437 40.9958 156.616 41.4282 156.936 41.747C157.256 42.0658 157.69 42.2449 158.143 42.2449H158.356C158.808 42.2416 159.24 42.0615 159.559 41.7434C159.878 41.4253 160.059 40.9948 160.062 40.5449V38.3574C160.062 37.4199 160.062 36.6574 160.062 36.6574V34.8574Z" fill="url(#paint11_linear_430_197)"/>
<path d="M183.408 31.3824C182.83 32.1199 182.479 32.7449 182.454 32.7449V36.5574C182.454 34.8449 183.119 33.9824 184.449 33.9824H184.825C185.289 34.0449 185.666 33.3324 185.666 32.4074V30.5574C185.472 30.5138 185.275 30.4887 185.076 30.4824C184.423 30.5533 183.824 30.8764 183.408 31.3824Z" fill="url(#paint12_linear_430_197)"/>
<path d="M182.456 32.6201C182.456 32.4451 182.456 32.1451 182.456 31.7951C182.456 31.4451 181.553 30.8076 180.612 30.8076H180.549C180.096 30.8076 179.662 30.9867 179.343 31.3055C179.023 31.6243 178.843 32.0567 178.843 32.5076V40.5451C178.843 40.996 179.023 41.4284 179.343 41.7472C179.662 42.066 180.096 42.2451 180.549 42.2451H180.762C181.215 42.2451 181.649 42.066 181.969 41.7472C182.289 41.4284 182.468 40.996 182.468 40.5451V32.6201H182.456Z" fill="url(#paint13_linear_430_197)"/>
<path d="M104.671 38.8824L101.999 28.8824C101.522 27.0824 100.18 25.6074 99.013 25.6074C97.8463 25.6074 96.5039 27.0824 96.0146 28.8824L93.3424 38.8824C92.8656 40.6824 93.3424 42.0949 94.3962 42.1574C95.9519 42.2574 96.4788 41.5449 96.6544 40.7824C96.8088 40.0171 97.0885 39.2822 97.4824 38.6074C97.9185 38.3411 98.42 38.2001 98.9315 38.2001C99.4429 38.2001 99.9444 38.3411 100.38 38.6074C100.816 39.2664 101.126 39.9993 101.296 40.7699C101.474 41.2159 101.794 41.5916 102.206 41.8399C102.618 42.0881 103.101 42.1952 103.58 42.1449C105.06 42.0699 105.135 40.6824 104.671 38.8824ZM100.192 36.3824H97.6079C97.5509 36.3869 97.4937 36.3774 97.4413 36.3549C97.3888 36.3323 97.3427 36.2974 97.3068 36.2531C97.271 36.2087 97.2465 36.1564 97.2356 36.1005C97.2247 36.0446 97.2276 35.9869 97.2441 35.9324C97.2441 35.9324 98.047 32.7824 98.5614 30.8324L98.6366 30.5574C98.6366 30.3949 98.7872 30.2824 98.9377 30.2824C99.0182 30.2862 99.0951 30.3165 99.1564 30.3686C99.2177 30.4206 99.2599 30.4914 99.2765 30.5699L100.531 35.9449C100.552 35.9981 100.56 36.0558 100.553 36.1126C100.546 36.1694 100.524 36.2235 100.49 36.2697C100.456 36.316 100.411 36.3529 100.359 36.377C100.307 36.4011 100.25 36.4116 100.192 36.4074V36.3824Z" fill="url(#paint14_linear_430_197)"/>
<path d="M81.3875 23.795C81.2956 23.8424 81.2075 23.8967 81.124 23.9575C81.4502 23.8575 82.8553 23.345 83.1815 23.295C83.3057 23.2506 83.4377 23.2319 83.5694 23.2402C83.7011 23.2485 83.8297 23.2836 83.9472 23.3434C84.0648 23.4031 84.1688 23.4862 84.2529 23.5875C84.337 23.6888 84.3993 23.8063 84.4361 23.9325C85.0959 25.207 85.6174 26.5479 85.9917 27.9325C85.9917 27.9325 86.3681 29.1825 85.5025 29.1825C84.9001 29.4082 84.2842 29.5961 83.6583 29.745L81.3875 23.82" fill="#FFAD00"/>
<path d="M82.2529 25.5698C82.3709 25.4232 82.4719 25.2639 82.554 25.0948C82.554 25.0198 82.6544 24.9448 82.7046 24.8573L82.8426 24.6198C82.9483 24.4581 83.0797 24.3146 83.2315 24.1948C83.3105 24.1335 83.4044 24.0943 83.5036 24.0811C83.6028 24.068 83.7037 24.0813 83.7961 24.1198C83.8846 24.1724 83.9547 24.251 83.9968 24.3448C84.0409 24.4346 84.0665 24.5324 84.0721 24.6323C84.1036 24.8226 84.1036 25.0169 84.0721 25.2073V25.3448C84.0768 25.3905 84.0768 25.4366 84.0721 25.4823C84.0163 25.5712 83.9385 25.6444 83.8462 25.6948C83.7636 25.7465 83.6752 25.7885 83.5828 25.8198H83.4824H83.3946C83.3467 25.7847 83.3044 25.7425 83.2691 25.6948C83.2569 25.6455 83.2569 25.594 83.2691 25.5448V25.4698C83.2626 25.441 83.2626 25.4111 83.2691 25.3823C83.3057 25.3522 83.3393 25.3187 83.3695 25.2823L83.4824 25.1948C83.5733 25.0665 83.6833 24.9527 83.8086 24.8573C84.0043 24.7942 84.215 24.7942 84.4108 24.8573C84.4666 24.8744 84.5152 24.9096 84.5488 24.9573C84.5893 24.9949 84.6195 25.0423 84.6366 25.0948C84.6479 25.1441 84.6479 25.1954 84.6366 25.2448C84.6425 25.2694 84.6425 25.2951 84.6366 25.3198V25.3948C84.6616 25.5856 84.6616 25.7789 84.6366 25.9698C84.6222 26.0712 84.5881 26.1689 84.5362 26.2573L84.4359 26.3823L84.3355 26.4823C84.2617 26.5516 84.1819 26.6143 84.0971 26.6698C84.0102 26.7275 83.9118 26.7659 83.8086 26.7823C83.7472 26.8007 83.6818 26.8007 83.6204 26.7823C83.5652 26.7451 83.5216 26.6931 83.495 26.6323C83.4895 26.6076 83.4895 26.582 83.495 26.5573C83.4789 26.5 83.4789 26.4395 83.495 26.3823C83.5572 26.2953 83.6335 26.2193 83.7208 26.1573L83.9842 26.0198C84.0694 25.9675 84.1627 25.9295 84.2602 25.9073C84.3625 25.8763 84.4716 25.8763 84.5739 25.9073C84.6797 25.9337 84.7756 25.9902 84.8499 26.0698C84.9201 26.1464 84.9754 26.2355 85.013 26.3323C85.0375 26.435 85.0375 26.542 85.013 26.6448C85.0251 26.7444 85.0251 26.8451 85.013 26.9448C84.9465 27.1268 84.8489 27.296 84.7244 27.4448C84.6536 27.5211 84.5736 27.5882 84.4861 27.6448C84.3989 27.6931 84.3062 27.7308 84.2101 27.7573C84.1106 27.7759 84.0085 27.7759 83.909 27.7573C83.8039 27.7578 83.7003 27.732 83.6079 27.6823C83.558 27.6604 83.5148 27.6259 83.4824 27.5823H83.4197V27.4823V27.4198L83.495 27.3573L83.6204 27.2948L83.7459 27.2323C83.8285 27.1805 83.9169 27.1386 84.0093 27.1073C84.0967 27.0651 84.1896 27.0357 84.2853 27.0198H84.5864C84.6821 27.0546 84.7712 27.1053 84.8499 27.1698C84.8904 27.2074 84.9206 27.2548 84.9377 27.3073C84.9434 27.3613 84.9434 27.4158 84.9377 27.4698L85.0632 27.3573C85.0702 27.4028 85.0702 27.4492 85.0632 27.4948C85.053 27.5926 85.032 27.6891 85.0004 27.7823C84.9593 27.8728 84.8942 27.9506 84.8122 28.0073L84.5488 28.1323C84.4615 28.1744 84.3685 28.2039 84.2728 28.2198H83.9842L83.7208 28.1198L83.4448 28.0448H83.3193H83.1813C83.1361 28.0331 83.0886 28.0331 83.0433 28.0448C83.0433 28.0448 82.9555 28.0448 82.9053 28.0448C82.8551 28.0448 82.9931 28.0448 83.0433 28.0448H83.1813H83.3193H83.4573C83.5508 28.0639 83.643 28.089 83.7333 28.1198C83.8194 28.1505 83.9074 28.1756 83.9968 28.1948C84.1788 28.2237 84.3651 28.1883 84.5237 28.0948L84.7621 27.9698C84.8392 27.9253 84.8972 27.8541 84.9252 27.7698C84.9323 27.6824 84.9323 27.5946 84.9252 27.5073C84.9311 27.4157 84.9311 27.3238 84.9252 27.2323C84.9325 27.1934 84.9294 27.1533 84.9161 27.116C84.9029 27.0787 84.8801 27.0455 84.8499 27.0198C84.7882 26.9638 84.7156 26.9213 84.6366 26.8948C84.4631 26.8543 84.2809 26.8764 84.1222 26.9573L83.8839 27.0823L83.8086 27.1073L83.6831 27.1698C83.6751 27.1984 83.6751 27.2287 83.6831 27.2573H83.7835C83.8589 27.2912 83.9395 27.3124 84.0219 27.3198C84.1093 27.3319 84.1979 27.3319 84.2853 27.3198C84.3697 27.2995 84.4502 27.2657 84.5237 27.2198C84.5989 27.1766 84.6666 27.1217 84.7244 27.0573C84.8385 26.9262 84.9239 26.773 84.9753 26.6073C84.9811 26.5199 84.9811 26.4322 84.9753 26.3448C84.9874 26.2661 84.9874 26.186 84.9753 26.1073C84.9461 26.0269 84.8989 25.9542 84.8373 25.8948C84.785 25.8394 84.7206 25.7966 84.6492 25.7698C84.4778 25.7482 84.3044 25.7881 84.1599 25.8823L83.9341 26.0198C83.8604 26.06 83.7963 26.1154 83.7459 26.1823C83.7404 26.2112 83.7404 26.2409 83.7459 26.2698C83.7415 26.303 83.7415 26.3366 83.7459 26.3698C83.7459 26.4323 83.7459 26.4448 83.8839 26.4323C83.9653 26.4149 84.0422 26.3808 84.1097 26.3323C84.1864 26.2859 84.2579 26.2314 84.323 26.1698L84.4108 26.0823C84.4436 26.0555 84.4694 26.0212 84.4861 25.9823C84.5321 25.9135 84.5661 25.8374 84.5864 25.7573C84.5989 25.5783 84.5989 25.3987 84.5864 25.2198V25.0823C84.5935 25.0451 84.5935 25.0069 84.5864 24.9698C84.5619 24.9006 84.5128 24.8428 84.4484 24.8073H84.1975C84.1101 24.7954 84.0215 24.7954 83.9341 24.8073C83.7699 24.8746 83.6174 24.9674 83.4824 25.0823L83.382 25.1698L83.2817 25.2573C83.2817 25.2573 83.2817 25.2573 83.2817 25.3448C83.2784 25.378 83.2784 25.4115 83.2817 25.4448C83.2817 25.4448 83.2817 25.5073 83.357 25.5198H83.4448C83.5291 25.4995 83.6096 25.4657 83.6831 25.4198C83.7597 25.3783 83.8245 25.3181 83.8713 25.2448C83.9198 25.1728 83.9539 25.0921 83.9717 25.0073C84.0024 24.8294 84.0024 24.6476 83.9717 24.4698C83.9846 24.3827 83.9846 24.2943 83.9717 24.2073C83.9386 24.1291 83.8815 24.0635 83.8086 24.0198C83.7268 23.9947 83.6394 23.9947 83.5577 24.0198C83.4685 24.03 83.3828 24.0598 83.3068 24.1073C83.1633 24.2188 83.0402 24.3541 82.9429 24.5073C82.8843 24.5835 82.8299 24.6627 82.7799 24.7448L82.554 25.1073L82.416 25.3448C82.3757 25.4289 82.3204 25.5052 82.2529 25.5698Z" fill="white"/>
<path d="M82.2021 23.7823C82.3104 23.7077 82.4286 23.6488 82.5534 23.6073C82.6779 23.5565 82.8087 23.5229 82.9423 23.5073C83.2345 23.4549 83.5356 23.4897 83.808 23.6073C84.0512 23.7377 84.2614 23.9215 84.4227 24.1448C84.4971 24.2614 84.5641 24.3825 84.6235 24.5073C84.6862 24.6323 84.7238 24.7573 84.774 24.8823C84.9747 25.3823 85.1755 25.8948 85.3511 26.3948C85.4515 26.6573 85.5393 26.9073 85.6146 27.1698L85.74 27.5573C85.7724 27.6892 85.7975 27.8227 85.8153 27.9573C85.7937 27.8213 85.7602 27.6874 85.7149 27.5573C85.7149 27.4323 85.6397 27.3073 85.5895 27.1823C85.5393 27.0573 85.4138 26.6698 85.3135 26.4073C85.1253 25.9073 84.9246 25.4073 84.7238 24.9073L84.5733 24.5198C84.5186 24.4006 84.4513 24.2874 84.3725 24.1823C84.2394 23.9438 84.0444 23.7452 83.808 23.6073C83.5651 23.4955 83.2949 23.4564 83.0302 23.4948C82.7354 23.5248 82.4518 23.6233 82.2021 23.7823Z" fill="white"/>
<path d="M55.0169 26.8321C55.0169 26.8321 52.3823 28.0071 53.8501 31.4696C53.8501 31.4696 57.7769 40.6821 61.1015 50.5571C61.1781 50.9026 61.3253 51.2287 61.534 51.515C61.7427 51.8013 62.0084 52.0417 62.3144 52.2212C62.6205 52.4006 62.9604 52.5153 63.313 52.558C63.6655 52.6008 64.0231 52.5707 64.3634 52.4696C64.3634 52.4696 78.7157 49.8571 86.3184 44.3196C87.0156 43.8371 87.5222 43.1276 87.7512 42.3132C87.9802 41.4987 87.9171 40.6302 87.5729 39.8571C86.1151 33.1767 83.6714 26.7485 80.3215 20.7821C80.118 20.394 79.8395 20.0498 79.502 19.7692C79.1646 19.4887 78.7749 19.2773 78.3552 19.1472C77.9356 19.0171 77.4943 18.9709 77.0566 19.0112C76.619 19.0515 76.1937 19.1776 75.8051 19.3821C68.672 21.2603 61.7164 23.753 55.0169 26.8321Z" fill="#AC69E0"/>
<path opacity="0.25" d="M77.3721 19.2695V19.432L86.3171 43.7695C86.3171 43.7695 88.8263 41.732 87.5717 39.857C87.0875 37.106 86.3181 34.4124 85.2758 31.8195C83.8567 28.3005 82.2614 24.8545 80.4959 21.4945C80.2509 20.8598 79.8243 20.3106 79.269 19.9151C78.7137 19.5196 78.0542 19.2951 77.3721 19.2695Z" fill="white"/>
<path opacity="0.25" d="M54.7028 27.3574L54.8282 27.4574L65.467 52.1949C65.467 52.1949 61.7033 53.2199 61.3896 51.0449L53.7744 31.1074C53.5361 30.4614 53.4971 29.7591 53.6625 29.0908C53.828 28.4226 54.1902 27.8189 54.7028 27.3574Z" fill="black"/>
<path d="M55.1416 28.257L55.3172 28.207L55.4427 28.607L55.2671 28.657L55.1416 28.2695" fill="#848484"/>
<path d="M55.1546 28.2197C55.1131 28.2501 55.0791 28.2896 55.0551 28.3351C55.0312 28.3806 55.018 28.4309 55.0166 28.4822C55.0191 28.5173 55.0293 28.5514 55.0466 28.5821C55.0639 28.6128 55.0878 28.6392 55.1166 28.6596C55.1454 28.6799 55.1784 28.6936 55.2132 28.6997C55.248 28.7058 55.2837 28.7041 55.3177 28.6947L55.1546 28.2197Z" fill="#848484"/>
<path d="M55.292 28.1694L55.4676 28.657C55.5114 28.6318 55.5474 28.5953 55.5717 28.5512C55.5961 28.5071 55.6078 28.4572 55.6056 28.4069C55.5933 28.3351 55.554 28.2707 55.4958 28.2266C55.4376 28.1825 55.3647 28.1621 55.292 28.1694Z" fill="#848484"/>
<path d="M55.1416 28.257L55.3172 28.207L55.4427 28.607L55.2671 28.657L55.1416 28.2695" fill="#B9B9B8"/>
<path d="M55.2412 28.2322L55.3667 28.6322L55.4294 28.6072L55.2788 28.2197L55.2412 28.2322Z" fill="#A09F9F"/>
<path d="M55.1531 28.2197C55.1169 28.2448 55.0876 28.2786 55.0679 28.3179C55.0481 28.3572 55.0386 28.4008 55.0402 28.4447C55.0418 28.4792 55.0502 28.513 55.065 28.5443C55.0797 28.5755 55.1005 28.6035 55.1262 28.6268C55.1518 28.65 55.1818 28.6679 55.2144 28.6796C55.247 28.6913 55.2816 28.6964 55.3162 28.6947L55.1531 28.2197Z" fill="#D5CDD3"/>
<path d="M55.292 28.1694L55.4676 28.657C55.5114 28.6318 55.5474 28.5953 55.5717 28.5512C55.5961 28.5071 55.6078 28.4572 55.6056 28.4069C55.5933 28.3351 55.554 28.2707 55.4958 28.2266C55.4376 28.1825 55.3647 28.1621 55.292 28.1694Z" fill="#D5CDD3"/>
<path d="M78.1748 20.6701L78.3504 20.6201L78.4759 21.0201L78.3003 21.0701L78.1748 20.6701Z" fill="#848484"/>
<path d="M78.2004 20.6328C78.1572 20.6626 78.1212 20.7016 78.0952 20.747C78.0691 20.7925 78.0536 20.8431 78.0498 20.8953C78.0523 20.9304 78.0625 20.9645 78.0798 20.9952C78.0971 21.0259 78.121 21.0523 78.1498 21.0726C78.1786 21.093 78.2116 21.1067 78.2464 21.1128C78.2812 21.1188 78.3169 21.1172 78.3509 21.1078L78.2004 20.6328Z" fill="#848484"/>
<path d="M78.3252 20.5825L78.5008 21.07C78.558 21.0442 78.604 20.9989 78.6307 20.9423C78.6573 20.8858 78.6628 20.8215 78.6462 20.7613C78.6296 20.701 78.5919 20.6486 78.5399 20.6135C78.488 20.5785 78.4252 20.563 78.3628 20.57L78.3252 20.5825Z" fill="#848484"/>
<path d="M78.1748 20.6701L78.3504 20.6201L78.4759 21.0201L78.3003 21.0701L78.1748 20.6701Z" fill="#B9B9B8"/>
<path d="M78.2764 20.6453L78.4018 21.0328L78.4646 21.0203L78.314 20.6328L78.2764 20.6453Z" fill="#A09F9F"/>
<path d="M78.2007 20.6328C78.1629 20.6573 78.1317 20.6906 78.1099 20.7298C78.088 20.769 78.0761 20.813 78.0752 20.8578C78.0815 20.9263 78.1133 20.99 78.1644 21.0363C78.2155 21.0826 78.2821 21.1081 78.3512 21.1078L78.2007 20.6328Z" fill="#D5CDD3"/>
<path d="M78.3252 20.5825L78.5008 21.07C78.558 21.0442 78.604 20.9989 78.6307 20.9423C78.6573 20.8858 78.6628 20.8215 78.6462 20.7613C78.6296 20.701 78.5919 20.6486 78.5399 20.6135C78.488 20.5785 78.4252 20.563 78.3628 20.57L78.3252 20.5825Z" fill="#D5CDD3"/>
<path d="M59.6318 39.8949L59.8075 39.8574L59.9329 40.2449L59.7573 40.2949L59.6318 39.9074" fill="#848484"/>
<path d="M59.6576 39.8574C59.6144 39.8872 59.5784 39.9262 59.5524 39.9716C59.5263 40.0171 59.5108 40.0677 59.507 40.1199C59.507 40.1559 59.5156 40.1915 59.5322 40.2235C59.5488 40.2555 59.5728 40.2831 59.6023 40.3039C59.6318 40.3247 59.6659 40.3382 59.7017 40.3431C59.7375 40.3481 59.774 40.3444 59.8081 40.3324L59.6576 39.8574Z" fill="#848484"/>
<path d="M59.7842 39.8574L59.9598 40.3449C60.0094 40.3153 60.0477 40.2702 60.069 40.2167C60.0904 40.1631 60.0934 40.1041 60.0777 40.0487C60.062 39.9932 60.0285 39.9445 59.9822 39.9099C59.936 39.8754 59.8796 39.8569 59.8218 39.8574H59.7842Z" fill="#848484"/>
<path d="M59.6318 39.8949L59.8075 39.8574L59.9329 40.2449L59.7573 40.2949L59.6318 39.9074" fill="#B9B9B8"/>
<path d="M59.7332 39.8699L59.8587 40.2699L59.9214 40.2574L59.7709 39.8574L59.7332 39.8699Z" fill="#A09F9F"/>
<path d="M59.658 39.8574C59.6199 39.8806 59.5891 39.914 59.5692 39.9538C59.5492 39.9936 59.5409 40.0381 59.5451 40.0824C59.545 40.1163 59.5519 40.1499 59.5653 40.1811C59.5787 40.2122 59.5983 40.2404 59.6229 40.2638C59.6476 40.2872 59.6767 40.3053 59.7087 40.3171C59.7406 40.3289 59.7745 40.3341 59.8085 40.3324L59.658 39.8574Z" fill="#D5CDD3"/>
<path d="M59.7842 39.8574L59.9598 40.3449C60.0094 40.3153 60.0477 40.2702 60.069 40.2167C60.0904 40.1631 60.0934 40.1041 60.0777 40.0487C60.062 39.9932 60.0285 39.9445 59.9822 39.9099C59.936 39.8754 59.8796 39.8569 59.8218 39.8574H59.7842Z" fill="#D5CDD3"/>
<path d="M64.2375 50.6573L64.4131 50.6073L64.5386 51.0073L64.3629 51.0573L64.2375 50.6573Z" fill="#848484"/>
<path d="M64.2629 50.6201C64.2197 50.6499 64.1837 50.6889 64.1577 50.7343C64.1316 50.7798 64.1161 50.8304 64.1123 50.8826C64.1148 50.9177 64.125 50.9518 64.1423 50.9825C64.1596 51.0132 64.1835 51.0396 64.2123 51.06C64.2411 51.0803 64.2741 51.094 64.3089 51.1001C64.3437 51.1061 64.3794 51.1045 64.4134 51.0951L64.2629 50.6201Z" fill="#848484"/>
<path d="M64.3877 50.5704L64.5633 51.0579C64.6062 51.0318 64.6415 50.995 64.6657 50.9511C64.6899 50.9073 64.7022 50.8579 64.7013 50.8079C64.6985 50.7709 64.6878 50.735 64.67 50.7024C64.6522 50.6698 64.6277 50.6414 64.5981 50.6189C64.5684 50.5965 64.5344 50.5806 64.4981 50.5722C64.4618 50.5638 64.4242 50.5632 64.3877 50.5704Z" fill="#848484"/>
<path d="M64.2375 50.6573L64.4131 50.6073L64.5386 51.0073L64.3629 51.0573L64.2375 50.6573Z" fill="#B9B9B8"/>
<path d="M64.3369 50.6326L64.4624 51.0201L64.5251 51.0076L64.3746 50.6201L64.3369 50.6326Z" fill="#A09F9F"/>
<path d="M64.2632 50.6201C64.2254 50.6446 64.1942 50.6779 64.1724 50.7171C64.1505 50.7563 64.1386 50.8003 64.1377 50.8451C64.144 50.9136 64.1758 50.9773 64.2269 51.0236C64.278 51.0699 64.3446 51.0954 64.4137 51.0951L64.2632 50.6201Z" fill="#D5CDD3"/>
<path d="M64.3877 50.5704L64.5633 51.0579C64.6062 51.0318 64.6415 50.995 64.6657 50.9511C64.6899 50.9073 64.7022 50.8579 64.7013 50.8079C64.6985 50.7709 64.6878 50.735 64.67 50.7024C64.6522 50.6698 64.6277 50.6414 64.5981 50.6189C64.5684 50.5965 64.5344 50.5806 64.4981 50.5722C64.4618 50.5638 64.4242 50.5632 64.3877 50.5704Z" fill="#D5CDD3"/>
<path d="M82.542 31.8703L82.7176 31.8203L82.8431 32.2203L82.6674 32.2703L82.542 31.8828" fill="#848484"/>
<path d="M82.5539 31.833C82.5107 31.8628 82.4747 31.9018 82.4487 31.9472C82.4226 31.9927 82.4071 32.0433 82.4033 32.0955C82.4058 32.1306 82.416 32.1647 82.4333 32.1954C82.4506 32.2261 82.4745 32.2525 82.5033 32.2728C82.5321 32.2932 82.5651 32.3069 82.5999 32.313C82.6347 32.319 82.6704 32.3173 82.7044 32.308L82.5539 31.833Z" fill="#848484"/>
<path d="M82.6924 31.7823L82.868 32.2698C82.9139 32.2471 82.9517 32.211 82.9763 32.1663C83.001 32.1217 83.0114 32.0705 83.006 32.0198C83.0032 31.9828 82.9925 31.9469 82.9747 31.9143C82.9569 31.8817 82.9324 31.8533 82.9027 31.8309C82.8731 31.8084 82.839 31.7925 82.8028 31.7841C82.7665 31.7757 82.7289 31.7751 82.6924 31.7823Z" fill="#848484"/>
<path d="M82.542 31.8703L82.7176 31.8203L82.8431 32.2203L82.6674 32.2703L82.542 31.8828" fill="#B9B9B8"/>
<path d="M82.6416 31.8455L82.7671 32.2455L82.8298 32.2205L82.6792 31.833L82.6416 31.8455Z" fill="#A09F9F"/>
<path d="M82.5542 31.833C82.5164 31.8575 82.4853 31.8908 82.4634 31.93C82.4415 31.9692 82.4296 32.0132 82.4287 32.058C82.4303 32.0925 82.4387 32.1263 82.4535 32.1576C82.4682 32.1888 82.489 32.2168 82.5147 32.2401C82.5403 32.2633 82.5703 32.2812 82.6029 32.2929C82.6355 32.3046 82.6701 32.3097 82.7047 32.308L82.5542 31.833Z" fill="#D5CDD3"/>
<path d="M82.6924 31.7823L82.868 32.2698C82.9139 32.2471 82.9517 32.211 82.9763 32.1663C83.001 32.1217 83.0114 32.0705 83.006 32.0198C83.0032 31.9828 82.9925 31.9469 82.9747 31.9143C82.9569 31.8817 82.9324 31.8533 82.9027 31.8309C82.8731 31.8084 82.839 31.7925 82.8028 31.7841C82.7665 31.7757 82.7289 31.7751 82.6924 31.7823Z" fill="#D5CDD3"/>
<path d="M85.8291 42.6701L85.9922 42.6201L86.1302 43.0201L85.9546 43.0701L85.8291 42.6826" fill="#848484"/>
<path d="M85.8402 42.6328C85.7979 42.6625 85.7634 42.7018 85.7394 42.7475C85.7154 42.7931 85.7026 42.8438 85.7021 42.8953C85.7021 43.0453 85.8151 43.1453 86.0032 43.1078L85.8402 42.6328Z" fill="#848484"/>
<path d="M85.9658 42.5949L86.1289 43.0824C86.1748 43.0597 86.2126 43.0236 86.2372 42.979C86.2619 42.9343 86.2722 42.8831 86.2669 42.8324C86.2658 42.796 86.2568 42.7602 86.2403 42.7276C86.2239 42.6951 86.2005 42.6665 86.1719 42.6438C86.1432 42.6212 86.1099 42.6051 86.0743 42.5967C86.0387 42.5882 86.0017 42.5876 85.9658 42.5949Z" fill="#848484"/>
<path d="M85.8291 42.6701L85.9922 42.6201L86.1302 43.0201L85.9546 43.0701L85.8291 42.6826" fill="#B9B9B8"/>
<path d="M85.9287 42.6453L86.0416 43.0453L86.1043 43.0203L85.9663 42.6328L85.9287 42.6453Z" fill="#A09F9F"/>
<path d="M85.8404 42.6328C85.7947 42.6658 85.7609 42.7125 85.7438 42.766C85.7267 42.8196 85.7274 42.8772 85.7456 42.9304C85.7639 42.9836 85.7988 43.0295 85.8452 43.0615C85.8916 43.0934 85.9471 43.1097 86.0035 43.1078L85.8404 42.6328Z" fill="#D5CDD3"/>
<path d="M85.9658 42.5949L86.1289 43.0824C86.1748 43.0597 86.2126 43.0236 86.2372 42.979C86.2619 42.9343 86.2722 42.8831 86.2669 42.8324C86.2658 42.796 86.2568 42.7602 86.2403 42.7276C86.2239 42.6951 86.2005 42.6665 86.1719 42.6438C86.1432 42.6212 86.1099 42.6051 86.0743 42.5967C86.0387 42.5882 86.0017 42.5876 85.9658 42.5949Z" fill="#D5CDD3"/>
<g opacity="0.2">
<path d="M79.2918 20.1073C79.7435 20.9448 80.17 21.7823 80.5464 22.6073C80.9227 23.4323 81.3618 24.3073 81.8009 25.1073C82.24 25.9073 82.5662 26.8448 82.9301 27.7198C83.2939 28.5948 83.6577 29.4698 84.009 30.3573C84.3603 31.2448 84.6739 32.1323 84.9875 33.0198C85.3012 33.9073 85.5897 34.8198 85.8657 35.7323C86.1417 36.6448 86.3801 37.5573 86.6059 38.4823C86.8318 39.4073 87.0074 40.3323 87.1329 41.2698C86.721 39.4243 86.2143 37.601 85.6148 35.8073C85.3137 34.9073 85.0126 34.0198 84.6864 33.1323C84.3603 32.2448 84.0341 31.3573 83.6828 30.4698C83.3315 29.5823 82.9928 28.7198 82.6415 27.8448C82.2902 26.9698 81.9139 26.0948 81.55 25.2198C80.814 23.5365 80.0613 21.8323 79.2918 20.1073Z" fill="white"/>
</g>
<path d="M81.5372 22.9707L80.2827 24.4332C80.0108 24.7633 79.8431 25.1661 79.8007 25.591C79.7583 26.0159 79.843 26.4438 80.0443 26.8207C80.4025 27.7469 80.6263 28.7191 80.7092 29.7082C80.7092 29.7082 80.8347 31.2082 83.2184 30.7707L84.7991 30.4082C83.8513 27.8706 82.7623 25.3876 81.5372 22.9707Z" fill="#4F2976"/>
<path d="M81.7005 23.17L80.4459 24.545C80.2009 24.861 80.0557 25.2425 80.0289 25.641C80.0021 26.0394 80.0948 26.4368 80.2954 26.7825C80.6316 27.6528 80.8428 28.566 80.9227 29.495C80.9227 29.495 81.0356 30.9075 83.2436 30.5075L84.724 30.1575C83.8495 27.7733 82.8401 25.4404 81.7005 23.17Z" fill="#5E2E8C"/>
<path d="M81.2113 24.4697L81.1611 24.3072L81.55 24.1572L81.6128 24.3322L81.2239 24.4697" fill="#848484"/>
<path d="M81.1729 24.4572C81.2065 24.4983 81.2485 24.5318 81.2961 24.5555C81.3436 24.5792 81.3957 24.5925 81.4489 24.5947C81.4844 24.591 81.5187 24.5793 81.5491 24.5606C81.5795 24.5419 81.6053 24.5166 81.6246 24.4866C81.6439 24.4565 81.6562 24.4226 81.6605 24.3872C81.6648 24.3519 81.6611 24.316 81.6496 24.2822L81.1729 24.4572Z" fill="#848484"/>
<path d="M81.1242 24.3325L81.6009 24.145C81.5769 24.1004 81.5404 24.0637 81.4959 24.0393C81.4514 24.0149 81.4007 24.0039 81.35 24.0075C81.3127 24.0117 81.2767 24.0238 81.2444 24.0431C81.2122 24.0623 81.1844 24.0881 81.1631 24.1189C81.1417 24.1497 81.1271 24.1847 81.1204 24.2215C81.1137 24.2584 81.115 24.2962 81.1242 24.3325Z" fill="#848484"/>
<path d="M81.2113 24.4697L81.1611 24.3072L81.55 24.1572L81.6128 24.3322L81.2239 24.4697" fill="#B9B9B8"/>
<path d="M81.1854 24.3699L81.5743 24.2324L81.5492 24.1699L81.1729 24.3324L81.1854 24.3699Z" fill="#A09F9F"/>
<path d="M81.1729 24.4572C81.1987 24.495 81.235 24.5245 81.2772 24.5422C81.3195 24.56 81.366 24.5652 81.4112 24.5572C81.4789 24.5509 81.5415 24.5187 81.5859 24.4675C81.6303 24.4162 81.6531 24.3498 81.6496 24.2822L81.1729 24.4572Z" fill="#D5CDD3"/>
<path d="M81.1242 24.3325L81.6009 24.145C81.5769 24.1004 81.5404 24.0637 81.4959 24.0393C81.4514 24.0149 81.4007 24.0039 81.35 24.0075C81.3127 24.0117 81.2767 24.0238 81.2444 24.0431C81.2122 24.0623 81.1844 24.0881 81.1631 24.1189C81.1417 24.1497 81.1271 24.1847 81.1204 24.2215C81.1137 24.2584 81.115 24.2962 81.1242 24.3325Z" fill="#D5CDD3"/>
<path d="M83.2686 29.9574L83.3313 29.7949L83.7327 29.9324L83.67 30.0949L83.2811 29.9699" fill="#848484"/>
<path d="M83.2559 29.9326C83.2516 29.9835 83.2609 30.0347 83.2829 30.0808C83.305 30.127 83.339 30.1664 83.3814 30.1951C83.4943 30.2826 83.6449 30.1951 83.7327 30.0826L83.2559 29.9326Z" fill="#848484"/>
<path d="M83.294 29.8574L83.7833 30.0199C83.7904 29.97 83.7836 29.9192 83.7637 29.8729C83.7438 29.8266 83.7115 29.7866 83.6704 29.7574C83.6395 29.7376 83.6049 29.7245 83.5687 29.7189C83.5325 29.7132 83.4954 29.7152 83.46 29.7246C83.4246 29.734 83.3915 29.7506 83.3629 29.7735C83.3344 29.7964 83.3109 29.825 83.294 29.8574Z" fill="#848484"/>
<path d="M83.2686 29.9574L83.3313 29.7949L83.7327 29.9324L83.67 30.0949L83.2811 29.9699" fill="#B9B9B8"/>
<path d="M83.3057 29.8695L83.7071 30.007L83.7322 29.9445L83.3308 29.832L83.3057 29.8695Z" fill="#A09F9F"/>
<path d="M83.2559 29.9326C83.2517 29.9769 83.2601 30.0215 83.28 30.0612C83.3 30.101 83.3308 30.1344 83.3689 30.1576C83.4271 30.1955 83.4981 30.2089 83.5663 30.1949C83.6345 30.1808 83.6943 30.1405 83.7327 30.0826L83.2559 29.9326Z" fill="#D5CDD3"/>
<path d="M83.294 29.8574L83.7833 30.0199C83.7904 29.97 83.7836 29.9192 83.7637 29.8729C83.7438 29.8266 83.7115 29.7866 83.6704 29.7574C83.6395 29.7376 83.6049 29.7245 83.5687 29.7189C83.5325 29.7132 83.4954 29.7152 83.46 29.7246C83.4246 29.734 83.3915 29.7506 83.3629 29.7735C83.3344 29.7964 83.3109 29.825 83.294 29.8574Z" fill="#D5CDD3"/>
<path d="M82.0884 24.0947L80.1689 25.9197C80.1996 26.1376 80.2543 26.3514 80.332 26.5572L82.3394 24.6197C82.2641 24.4447 82.1763 24.2697 82.0884 24.0947Z" fill="#FFB418"/>
<path d="M82.98 25.9697L80.8096 28.0322C80.8096 28.2322 80.8974 28.4447 80.935 28.6947L83.2183 26.4947L82.98 25.9697Z" fill="#FFB418"/>
<path d="M83.871 28.0322L81.5751 30.2072L81.6755 30.4697C81.7743 30.5276 81.8796 30.5738 81.9891 30.6072L84.0968 28.6072L83.871 28.0322Z" fill="#FFB418"/>
<path d="M81.0986 27.432L81.2743 27.3945L81.3872 27.7945L81.2115 27.8445L81.0986 27.4445" fill="#848484"/>
<path d="M81.1231 27.3574C81.0802 27.3858 81.0436 27.4226 81.0156 27.4656C80.9875 27.5086 80.9686 27.5569 80.96 27.6074C80.9592 27.6433 80.9666 27.6789 80.9816 27.7115C80.9965 27.7442 81.0187 27.773 81.0465 27.7959C81.0743 27.8187 81.1069 27.835 81.1419 27.8435C81.1769 27.852 81.2134 27.8525 81.2486 27.8449L81.1231 27.3574Z" fill="#848484"/>
<path d="M81.2998 27.3567L81.4378 27.8567C81.4839 27.8367 81.5229 27.8033 81.5497 27.761C81.5766 27.7186 81.59 27.6692 81.5884 27.6192C81.5885 27.5825 81.581 27.5462 81.5662 27.5126C81.5514 27.479 81.5297 27.4488 81.5025 27.4241C81.4754 27.3994 81.4433 27.3806 81.4083 27.369C81.3734 27.3574 81.3365 27.3532 81.2998 27.3567Z" fill="#848484"/>
<path d="M81.0986 27.432L81.2743 27.3945L81.3872 27.7945L81.2115 27.8445L81.0986 27.4445" fill="#B9B9B8"/>
<path d="M81.2119 27.4071L81.2997 27.8196L81.3625 27.8071L81.2496 27.4071H81.2119Z" fill="#A09F9F"/>
<path d="M81.1232 27.3574C81.0745 27.3865 81.0365 27.4305 81.0149 27.4828C80.9933 27.5351 80.9893 27.593 81.0034 27.6478C81.0175 27.7026 81.049 27.7514 81.0932 27.7869C81.1374 27.8224 81.1919 27.8428 81.2486 27.8449L81.1232 27.3574Z" fill="#D5CDD3"/>
<path d="M81.2998 27.3567L81.4378 27.8567C81.4839 27.8367 81.5229 27.8033 81.5497 27.761C81.5766 27.7186 81.59 27.6692 81.5884 27.6192C81.5885 27.5825 81.581 27.5462 81.5662 27.5126C81.5514 27.479 81.5297 27.4488 81.5025 27.4241C81.4754 27.3994 81.4433 27.3806 81.4083 27.369C81.3734 27.3574 81.3365 27.3532 81.2998 27.3567Z" fill="#D5CDD3"/>
<path opacity="0.1" d="M63.8473 25.7822C63.8473 25.7822 57.6999 33.4322 61.012 38.1947C64.0229 42.5197 70.3459 41.5822 75.0004 36.4947L73.934 28.9947L63.8473 25.7822Z" fill="black"/>
<path d="M77.2726 30.5582C77.3524 32.0644 76.9822 33.5603 76.2086 34.8567C75.4351 36.1532 74.293 37.192 72.9269 37.8417C71.5608 38.4913 70.0319 38.7228 68.5338 38.5066C67.0357 38.2905 65.6355 37.6366 64.5104 36.6275C63.3853 35.6184 62.5859 34.2996 62.2131 32.8378C61.8404 31.376 61.9112 29.8368 62.4165 28.4151C62.9218 26.9933 63.8389 25.7528 65.0519 24.8505C66.2648 23.9481 67.7191 23.4245 69.2308 23.3457C71.2562 23.2435 73.2397 23.9452 74.7469 25.297C76.2542 26.6488 77.1624 28.5406 77.2726 30.5582Z" fill="#D0D0D0"/>
<path opacity="0.25" d="M77.2225 30.582C77.2998 32.0878 76.9274 33.5826 76.1522 34.8776C75.377 36.1725 74.234 37.2093 72.8675 37.8571C71.501 38.5049 69.9724 38.7345 68.475 38.5168C66.9776 38.2992 65.5786 37.6442 64.4547 36.6345C63.3309 35.6248 62.5327 34.3058 62.1611 32.8442C61.7895 31.3826 61.8611 29.8441 62.3669 28.423C62.8727 27.002 63.79 25.7623 65.0028 24.8606C66.2156 23.9589 67.6695 23.4356 69.1807 23.357C70.185 23.3048 71.1898 23.4503 72.1376 23.7852C73.0854 24.1201 73.9576 24.6379 74.7045 25.3089C75.4514 25.9799 76.0582 26.791 76.4902 27.6958C76.9223 28.6006 77.1711 29.5814 77.2225 30.582Z" fill="white"/>
<path d="M63.585 34.6574L63.7606 34.6074L63.8861 34.9949L63.7104 35.0574L63.585 34.6574Z" fill="#848484"/>
<path d="M63.5981 34.6201C63.5543 34.6482 63.5185 34.6872 63.4943 34.7332C63.4701 34.7792 63.4584 34.8307 63.4601 34.8826C63.4601 35.0201 63.573 35.1201 63.7612 35.0951L63.5981 34.6201Z" fill="#848484"/>
<path d="M63.7354 34.5694L63.8984 35.0569C63.9633 35.0403 64.0189 34.9988 64.0531 34.9413C64.0872 34.8839 64.097 34.8153 64.0804 34.7507C64.0637 34.686 64.022 34.6306 63.9643 34.5966C63.9067 34.5626 63.8379 34.5528 63.773 34.5694H63.7354Z" fill="#848484"/>
<path d="M63.585 34.6574L63.7606 34.6074L63.8861 34.9949L63.7104 35.0574L63.585 34.6574Z" fill="#B9B9B8"/>
<path d="M63.6846 34.6201L63.7975 35.0201L63.8602 35.0076L63.7222 34.6201H63.6846Z" fill="#A09F9F"/>
<path d="M63.5973 34.6199C63.5592 34.6431 63.5285 34.6765 63.5085 34.7163C63.4885 34.756 63.4802 34.8006 63.4844 34.8449C63.486 34.8794 63.4944 34.9132 63.5092 34.9444C63.5239 34.9757 63.5447 35.0037 63.5704 35.0269C63.596 35.0501 63.626 35.0681 63.6586 35.0798C63.6912 35.0914 63.7258 35.0966 63.7604 35.0949L63.5973 34.6199Z" fill="#59584E"/>
<path d="M63.7354 34.5694L63.8984 35.0569C63.9633 35.0403 64.0189 34.9988 64.0531 34.9413C64.0872 34.8839 64.097 34.8153 64.0804 34.7507C64.0637 34.686 64.022 34.6306 63.9643 34.5966C63.9067 34.5626 63.8379 34.5528 63.773 34.5694H63.7354Z" fill="#59584E"/>
<path d="M75.8545 30.2697C75.9222 31.534 75.6121 32.7899 74.9633 33.8785C74.3145 34.9672 73.3562 35.8397 72.2097 36.3855C71.0631 36.9314 69.7798 37.1262 68.5221 36.9452C67.2645 36.7643 66.0889 36.2157 65.1442 35.3689C64.1995 34.5221 63.5281 33.4152 63.2149 32.1881C62.9018 30.9611 62.961 29.669 63.385 28.4755C63.809 27.2819 64.5787 26.2405 65.5969 25.483C66.6151 24.7254 67.8359 24.2858 69.1049 24.2197C70.8049 24.1311 72.4707 24.7186 73.7363 25.853C75.0018 26.9874 75.7637 28.5759 75.8545 30.2697Z" fill="#82828A"/>
<path d="M75.98 30.2077C76.0451 31.4711 75.7329 32.7254 75.083 33.8121C74.433 34.8988 73.4744 35.7692 72.3282 36.3134C71.1821 36.8576 69.8997 37.0512 68.6432 36.8696C67.3867 36.6881 66.2123 36.1396 65.2685 35.2934C64.3247 34.4472 63.6537 33.3413 63.3404 32.1154C63.027 30.8895 63.0853 29.5986 63.5079 28.4057C63.9305 27.2127 64.6985 26.1714 65.7147 25.4131C66.731 24.6548 67.9501 24.2136 69.2179 24.1452C70.0617 24.0997 70.9062 24.2205 71.703 24.5008C72.4999 24.781 73.2334 25.2152 73.8616 25.7783C74.4897 26.3415 75.0002 27.0227 75.3637 27.7827C75.7272 28.5428 75.9367 29.3669 75.98 30.2077Z" fill="#F5F4F4"/>
<path d="M73.2206 29.9451C73.2593 30.6686 73.0818 31.3872 72.7105 32.0101C72.3392 32.633 71.7909 33.1322 71.1349 33.4446C70.4788 33.757 69.7445 33.8685 69.0248 33.765C68.3052 33.6615 67.6325 33.3477 67.0919 32.8632C66.5512 32.3788 66.1669 31.7455 65.9876 31.0434C65.8082 30.3413 65.8419 29.602 66.0843 28.919C66.3268 28.2359 66.767 27.6399 67.3495 27.2062C67.9319 26.7726 68.6304 26.5207 69.3565 26.4826C70.3297 26.4315 71.2834 26.7676 72.008 27.4168C72.7325 28.0661 73.1687 28.9755 73.2206 29.9451Z" fill="#FFAD00"/>
<g opacity="0.35">
<path d="M68.8291 27.8701C68.888 27.9813 68.9342 28.0987 68.9671 28.2201C69.0082 28.3378 69.0376 28.4592 69.0549 28.5826C69.0014 28.469 68.9553 28.3521 68.9169 28.2326C68.8803 28.1137 68.851 27.9926 68.8291 27.8701Z" fill="white"/>
<path d="M69.8192 27.7578C69.8319 27.8867 69.8319 28.0165 69.8192 28.1453C69.8116 28.2681 69.7905 28.3896 69.7564 28.5078C69.7439 28.3831 69.7439 28.2575 69.7564 28.1328C69.7651 28.0061 69.7861 27.8805 69.8192 27.7578Z" fill="white"/>
<path d="M70.5482 27.9453C70.5177 28.0697 70.4757 28.1911 70.4227 28.3078C70.3742 28.4252 70.3154 28.5381 70.2471 28.6453C70.2813 28.522 70.3232 28.4009 70.3725 28.2828C70.4211 28.1654 70.4798 28.0525 70.5482 27.9453Z" fill="white"/>
<path d="M71.1878 28.333C71.1239 28.4449 71.0482 28.5497 70.9619 28.6455C70.8805 28.7392 70.7925 28.8269 70.6985 28.908C70.7594 28.798 70.8354 28.6971 70.9243 28.608C71.0022 28.5074 71.0905 28.4152 71.1878 28.333Z" fill="white"/>
<path d="M71.676 28.8955C71.5842 28.9813 71.4832 29.0567 71.3749 29.1205C71.2702 29.1934 71.1563 29.2522 71.0361 29.2955L71.3372 29.0705L71.676 28.8955Z" fill="white"/>
<path d="M71.9767 29.583L71.6128 29.708C71.4942 29.742 71.3722 29.7629 71.249 29.7705C71.3622 29.7218 71.4798 29.6841 71.6003 29.658C71.723 29.621 71.8491 29.5959 71.9767 29.583Z" fill="white"/>
<path d="M72.0651 30.3325C71.9358 30.345 71.8055 30.345 71.6762 30.3325C71.551 30.3448 71.425 30.3448 71.2998 30.3325C71.4288 30.3139 71.5598 30.3139 71.6887 30.3325C71.8135 30.3136 71.9403 30.3136 72.0651 30.3325Z" fill="white"/>
<path d="M71.9151 31.1074L71.5512 31.0074L71.2627 30.7949C71.5095 30.8575 71.7492 30.9455 71.9778 31.0574L71.9151 31.1074Z" fill="white"/>
<path d="M71.262 31.7701C71.1603 31.6978 71.0639 31.6185 70.9734 31.5326C70.8792 31.4429 70.7911 31.3468 70.71 31.2451C70.8151 31.3181 70.9156 31.3974 71.0111 31.4826C71.1013 31.5726 71.1851 31.6686 71.262 31.7701Z" fill="white"/>
<path d="M70.472 32.3582C70.4037 32.251 70.3449 32.1381 70.2964 32.0207C70.2415 31.9047 70.1995 31.7832 70.1709 31.6582C70.2336 31.7707 70.2964 31.8832 70.3465 31.9957C70.4014 32.1117 70.4434 32.2332 70.472 32.3582Z" fill="white"/>
<path d="M69.7451 32.5332C69.711 32.415 69.69 32.2935 69.6824 32.1707C69.6697 32.0418 69.6697 31.9121 69.6824 31.7832C69.7155 31.9059 69.7365 32.0315 69.7451 32.1582C69.7576 32.2829 69.7576 32.4085 69.7451 32.5332Z" fill="white"/>
<path d="M68.9912 32.508C68.9912 32.383 68.9912 32.258 68.9912 32.133C69.0172 32.0102 69.0507 31.8892 69.0916 31.7705C69.0916 31.8955 69.0916 32.0205 69.0916 32.1455C69.0656 32.2683 69.0321 32.3893 68.9912 32.508Z" fill="white"/>
<path d="M68.29 32.2582C68.3316 32.136 68.3863 32.0187 68.4531 31.9082C68.4531 31.8082 68.5786 31.6957 68.6539 31.5957C68.6113 31.7155 68.561 31.8324 68.5033 31.9457L68.29 32.2582Z" fill="white"/>
<path d="M67.6865 31.8082C67.7642 31.7036 67.8525 31.6072 67.95 31.5207C68.041 31.4355 68.1374 31.3561 68.2385 31.2832C68.1617 31.3847 68.0778 31.4808 67.9876 31.5707C67.8928 31.6566 67.7922 31.736 67.6865 31.8082Z" fill="white"/>
<path d="M67.2607 31.1949C67.3621 31.1205 67.4715 31.0576 67.5869 31.0074C67.6982 30.9448 67.816 30.8944 67.9382 30.8574L67.612 31.0574L67.2607 31.1949Z" fill="white"/>
<path d="M67.0225 30.4953C67.1392 30.4499 67.2616 30.4205 67.3863 30.4078C67.5156 30.3955 67.6459 30.3955 67.7752 30.4078L67.3988 30.4953C67.2734 30.4703 67.1479 30.4953 67.0225 30.4953Z" fill="white"/>
<path d="M67.0342 29.7574C67.1593 29.7449 67.2854 29.7449 67.4106 29.7574C67.5381 29.7703 67.6642 29.7954 67.7869 29.8324H67.4106L67.0342 29.7574Z" fill="white"/>
<path d="M67.2471 29.0703C67.3725 29.0988 67.4945 29.1407 67.6109 29.1953C67.7287 29.2437 67.8421 29.3022 67.9496 29.3703L67.5858 29.2453L67.2471 29.0703Z" fill="white"/>
<path d="M67.6377 28.4707C67.75 28.5343 67.8552 28.6097 67.9513 28.6957C68.0519 28.7692 68.1444 28.853 68.2273 28.9457C68.1201 28.8851 68.0192 28.814 67.9262 28.7332C67.8212 28.6558 67.7245 28.5679 67.6377 28.4707Z" fill="white"/>
<path d="M68.2021 27.9951C68.2913 28.087 68.3712 28.1875 68.4405 28.2951C68.5179 28.3944 68.5812 28.5037 68.6287 28.6201L68.3903 28.3201C68.3203 28.2162 68.2574 28.1076 68.2021 27.9951Z" fill="white"/>
</g>
<path d="M71.4255 30.0329C71.4473 30.4034 71.3583 30.772 71.1696 31.092C70.981 31.412 70.7014 31.6691 70.366 31.8306C70.0307 31.9922 69.6548 32.0509 69.2859 31.9995C68.9171 31.948 68.5718 31.7886 68.2939 31.5415C68.016 31.2944 67.8179 30.9707 67.7248 30.6114C67.6317 30.2521 67.6477 29.8733 67.7707 29.523C67.8938 29.1727 68.1185 28.8667 68.4162 28.6438C68.7139 28.4208 69.0714 28.2909 69.4433 28.2704C69.9405 28.2431 70.4283 28.4133 70.7999 28.7436C71.1714 29.074 71.3964 29.5376 71.4255 30.0329Z" fill="black"/>
<path d="M71.2629 27.8075C71.2727 27.9534 71.2386 28.099 71.1651 28.2256C71.0917 28.3522 70.982 28.4542 70.8502 28.5186C70.7184 28.583 70.5703 28.6069 70.4248 28.5872C70.2793 28.5675 70.143 28.5052 70.0332 28.4081C69.9233 28.311 69.845 28.1836 69.808 28.042C69.7711 27.9005 69.7772 27.7511 69.8256 27.6131C69.8741 27.475 69.9627 27.3544 70.0801 27.2665C70.1975 27.1787 70.3385 27.1277 70.4851 27.12C70.5817 27.1132 70.6787 27.1257 70.7704 27.1567C70.8621 27.1878 70.9466 27.2368 71.0191 27.3008C71.0915 27.3648 71.1504 27.4426 71.1923 27.5296C71.2341 27.6166 71.2582 27.7111 71.2629 27.8075Z" fill="white"/>
<path d="M68.8406 32.807C68.8441 32.8468 68.8392 32.8869 68.8263 32.9247C68.8134 32.9626 68.7927 32.9973 68.7655 33.0267C68.7384 33.0561 68.7054 33.0795 68.6686 33.0955C68.6319 33.1115 68.5922 33.1197 68.5521 33.1195C68.4722 33.1195 68.3956 33.0879 68.3392 33.0317C68.2827 32.9754 68.251 32.8991 68.251 32.8195C68.251 32.74 68.2827 32.6637 68.3392 32.6074C68.3956 32.5511 68.4722 32.5195 68.5521 32.5195C68.6286 32.5195 68.702 32.5498 68.7561 32.6037C68.8102 32.6577 68.8406 32.7308 68.8406 32.807Z" fill="white"/>
<path opacity="0.5" d="M70.8861 30.07C70.9031 30.3343 70.8409 30.5977 70.7074 30.8267C70.574 31.0558 70.3753 31.2402 70.1365 31.3566C69.8977 31.473 69.6296 31.5162 69.3662 31.4806C69.1028 31.445 68.8559 31.3324 68.6569 31.1568C68.4578 30.9813 68.3155 30.7509 68.2481 30.4947C68.1806 30.2385 68.191 29.9681 68.2779 29.7178C68.3648 29.4675 68.5244 29.2486 68.7363 29.0888C68.9483 28.9289 69.2031 28.8354 69.4685 28.82C69.8218 28.8027 70.1679 28.9238 70.4328 29.1574C70.6976 29.391 70.8604 29.7185 70.8861 30.07Z" fill="#231E20"/>
<path d="M67.6249 37.2822L67.7629 37.3822L67.5246 37.7197L67.374 37.6072L67.6249 37.2822Z" fill="#848484"/>
<path d="M67.6753 37.2701C67.6288 37.246 67.5772 37.2334 67.5248 37.2334C67.4724 37.2334 67.4207 37.246 67.3742 37.2701C67.3457 37.291 67.3225 37.3183 67.3065 37.3498C67.2906 37.3813 67.2822 37.4161 67.2822 37.4513C67.2822 37.4866 67.2906 37.5214 67.3065 37.5529C67.3225 37.5844 67.3457 37.6117 67.3742 37.6326L67.6753 37.2701Z" fill="#848484"/>
<path d="M67.7884 37.3574L67.4873 37.7824C67.5293 37.8066 67.5769 37.8193 67.6253 37.8193C67.6738 37.8193 67.7214 37.8066 67.7633 37.7824C67.7985 37.7601 67.8279 37.7298 67.8491 37.694C67.8702 37.6581 67.8825 37.6178 67.885 37.5763C67.8874 37.5348 67.8799 37.4933 67.8631 37.4553C67.8464 37.4172 67.8207 37.3837 67.7884 37.3574Z" fill="#848484"/>
<path d="M67.6249 37.2822L67.7629 37.3822L67.5246 37.7197L67.374 37.6072L67.6249 37.2822Z" fill="#B9B9B8"/>
<path d="M67.7117 37.3457L67.4482 37.6707L67.511 37.7082L67.7368 37.3707L67.7117 37.3457Z" fill="#A09F9F"/>
<path d="M67.6744 37.2694C67.6372 37.2446 67.5936 37.2314 67.5489 37.2314C67.5043 37.2314 67.4606 37.2446 67.4235 37.2694C67.3767 37.3182 67.3506 37.3831 67.3506 37.4506C67.3506 37.5181 67.3767 37.583 67.4235 37.6319L67.6744 37.2694Z" fill="#59584E"/>
<path d="M67.7884 37.3574L67.4873 37.7824C67.5293 37.8066 67.5769 37.8193 67.6253 37.8193C67.6738 37.8193 67.7214 37.8066 67.7633 37.7824C67.7985 37.7601 67.8279 37.7298 67.8491 37.694C67.8702 37.6581 67.8825 37.6178 67.885 37.5763C67.8874 37.5348 67.8799 37.4933 67.8631 37.4553C67.8464 37.4172 67.8207 37.3837 67.7884 37.3574Z" fill="#59584E"/>
<path d="M72.6807 36.9576L72.7685 36.8076L73.1323 37.0076L73.0445 37.1701L72.6807 36.9576Z" fill="#848484"/>
<path d="M72.6676 36.9199C72.654 36.9702 72.6538 37.0232 72.667 37.0736C72.6802 37.124 72.7063 37.1701 72.7428 37.2074C72.7638 37.2358 72.7912 37.259 72.8228 37.2749C72.8544 37.2908 72.8893 37.2991 72.9248 37.2991C72.9602 37.2991 72.9951 37.2908 73.0267 37.2749C73.0583 37.259 73.0857 37.2358 73.1067 37.2074L72.6676 36.9199Z" fill="#848484"/>
<path d="M72.7314 36.7952L73.1831 37.0452C73.2101 37.0043 73.2244 36.9565 73.2244 36.9077C73.2244 36.8588 73.2101 36.811 73.1831 36.7702C73.1557 36.7354 73.1202 36.7077 73.0798 36.6895C73.0393 36.6712 72.9951 36.663 72.9507 36.6655C72.9064 36.6679 72.8633 36.681 72.8252 36.7036C72.787 36.7261 72.7548 36.7576 72.7314 36.7952Z" fill="#848484"/>
<path d="M72.6807 36.9576L72.7685 36.8076L73.1323 37.0076L73.0445 37.1701L72.6807 36.9576Z" fill="#B9B9B8"/>
<path d="M72.7314 36.8705L73.0953 37.083L73.1204 37.0205L72.7565 36.833L72.7314 36.8705Z" fill="#A09F9F"/>
<path d="M72.6686 36.9199C72.6566 36.9635 72.6561 37.0093 72.667 37.0531C72.678 37.0969 72.7002 37.1371 72.7313 37.1699C72.7824 37.2174 72.8497 37.2438 72.9195 37.2438C72.9893 37.2438 73.0566 37.2174 73.1077 37.1699L72.6686 36.9199Z" fill="#59584E"/>
<path d="M72.7314 36.7952L73.1831 37.0452C73.2101 37.0043 73.2244 36.9565 73.2244 36.9077C73.2244 36.8588 73.2101 36.811 73.1831 36.7702C73.1557 36.7354 73.1202 36.7077 73.0798 36.6895C73.0393 36.6712 72.9951 36.663 72.9507 36.6655C72.9064 36.6679 72.8633 36.681 72.8252 36.7036C72.787 36.7261 72.7548 36.7576 72.7314 36.7952Z" fill="#59584E"/>
<path d="M76.2939 32.5945L76.4696 32.582L76.5323 32.982L76.3441 33.007L76.2939 32.607" fill="#848484"/>
<path d="M76.2821 32.5576C76.2372 32.5821 76.1983 32.616 76.1679 32.657C76.1376 32.6981 76.1166 32.7452 76.1064 32.7951C76.1064 32.9326 76.1817 33.0576 76.3699 33.0576L76.2821 32.5576Z" fill="#848484"/>
<path d="M76.4443 32.5322L76.5196 33.0447C76.5707 33.0317 76.6164 33.003 76.6502 32.9626C76.684 32.9222 76.7042 32.8722 76.7078 32.8197C76.7095 32.7836 76.704 32.7475 76.6917 32.7135C76.6793 32.6795 76.6604 32.6482 76.6359 32.6215C76.6114 32.5948 76.5819 32.5732 76.549 32.5579C76.5162 32.5425 76.4806 32.5338 76.4443 32.5322Z" fill="#848484"/>
<path d="M76.2939 32.5945L76.4696 32.582L76.5323 32.982L76.3441 33.007L76.2939 32.607" fill="#B9B9B8"/>
<path d="M76.3936 32.582L76.4437 32.9945H76.5065L76.4312 32.582H76.3936Z" fill="#A09F9F"/>
<path d="M76.2813 32.5576C76.2285 32.5818 76.1852 32.6228 76.1581 32.6741C76.1311 32.7255 76.1219 32.7842 76.1319 32.8413C76.142 32.8984 76.1707 32.9506 76.2136 32.9897C76.2565 33.0288 76.3112 33.0527 76.3691 33.0576L76.2813 32.5576Z" fill="#59584E"/>
<path d="M76.4443 32.5322L76.5196 33.0447C76.5707 33.0317 76.6164 33.003 76.6502 32.9626C76.684 32.9222 76.7042 32.8722 76.7078 32.8197C76.7095 32.7836 76.704 32.7475 76.6917 32.7135C76.6793 32.6795 76.6604 32.6482 76.6359 32.6215C76.6114 32.5948 76.5819 32.5732 76.549 32.5579C76.5162 32.5425 76.4806 32.5338 76.4443 32.5322Z" fill="#59584E"/>
<path d="M75.1904 27.0199L75.2657 26.8574L75.6546 26.9824L75.5919 27.1574L75.203 27.0199" fill="#848484"/>
<path d="M75.177 26.9824C75.175 27.0348 75.1853 27.087 75.2071 27.1347C75.2289 27.1824 75.2615 27.2244 75.3025 27.2574C75.3321 27.2765 75.3656 27.2888 75.4006 27.2934C75.4356 27.2981 75.4712 27.2949 75.5048 27.2841C75.5385 27.2733 75.5693 27.2553 75.595 27.2312C75.6207 27.2071 75.6408 27.1777 75.6537 27.1449L75.177 26.9824Z" fill="#848484"/>
<path d="M75.2139 26.8448L75.7031 26.9948C75.7108 26.9467 75.7042 26.8974 75.6842 26.853C75.6641 26.8086 75.6315 26.771 75.5902 26.7448C75.5594 26.7251 75.5248 26.7119 75.4885 26.7063C75.4523 26.7006 75.4153 26.7026 75.3799 26.712C75.3445 26.7214 75.3114 26.7381 75.2828 26.7609C75.2542 26.7838 75.2307 26.8124 75.2139 26.8448Z" fill="#848484"/>
<path d="M75.1904 27.0199L75.2657 26.8574L75.6546 26.9824L75.5919 27.1574L75.203 27.0199" fill="#B9B9B8"/>
<path d="M75.2393 26.9203L75.6282 27.0703L75.6533 27.0078L75.2518 26.8828L75.2393 26.9203Z" fill="#A09F9F"/>
<path d="M75.1778 26.9824C75.1736 27.0267 75.182 27.0713 75.2019 27.111C75.2219 27.1508 75.2527 27.1842 75.2907 27.2074C75.3475 27.2466 75.4174 27.262 75.4855 27.2503C75.5535 27.2386 75.6142 27.2008 75.6546 27.1449L75.1778 26.9824Z" fill="#59584E"/>
<path d="M75.2139 26.8448L75.7031 26.9948C75.7108 26.9467 75.7042 26.8974 75.6842 26.853C75.6641 26.8086 75.6315 26.771 75.5902 26.7448C75.5594 26.7251 75.5248 26.7119 75.4885 26.7063C75.4523 26.7006 75.4153 26.7026 75.3799 26.712C75.3445 26.7214 75.3114 26.7381 75.2828 26.7609C75.2542 26.7838 75.2307 26.8124 75.2139 26.8448Z" fill="#59584E"/>
<path d="M71.4133 23.8199L71.5764 23.7949L71.6767 24.1949L71.5011 24.2324L71.4133 23.8324" fill="#848484"/>
<path d="M71.4258 23.7822C71.3818 23.8094 71.3444 23.8458 71.3162 23.8891C71.288 23.9323 71.2697 23.9812 71.2627 24.0322C71.2627 24.1822 71.3631 24.2822 71.5512 24.2697L71.4258 23.7822Z" fill="#848484"/>
<path d="M71.5635 23.7577L71.689 24.2577C71.7355 24.2369 71.7754 24.2038 71.8042 24.1619C71.833 24.1199 71.8496 24.0709 71.8521 24.0202C71.8544 23.9829 71.8483 23.9456 71.8342 23.911C71.8202 23.8764 71.7985 23.8453 71.7708 23.8201C71.7432 23.795 71.7102 23.7763 71.6743 23.7655C71.6384 23.7547 71.6006 23.752 71.5635 23.7577Z" fill="#848484"/>
<path d="M71.4133 23.8199L71.5764 23.7949L71.6767 24.1949L71.5011 24.2324L71.4133 23.8324" fill="#B9B9B8"/>
<path d="M71.5146 23.8074L71.6025 24.2074L71.6652 24.1949L71.5523 23.7949L71.5146 23.8074Z" fill="#A09F9F"/>
<path d="M71.4259 23.7821C71.3878 23.8073 71.3558 23.8405 71.3319 23.8794C71.3081 23.9183 71.2931 23.9618 71.2879 24.0071C71.2879 24.0767 71.3157 24.1435 71.3651 24.1927C71.4145 24.2419 71.4815 24.2696 71.5514 24.2696L71.4259 23.7821Z" fill="#59584E"/>
<path d="M71.5635 23.7577L71.689 24.2577C71.7355 24.2369 71.7754 24.2038 71.8042 24.1619C71.833 24.1199 71.8496 24.0709 71.8521 24.0202C71.8544 23.9829 71.8483 23.9456 71.8342 23.911C71.8202 23.8764 71.7985 23.8453 71.7708 23.8201C71.7432 23.795 71.7102 23.7763 71.6743 23.7655C71.6384 23.7547 71.6006 23.752 71.5635 23.7577Z" fill="#59584E"/>
<path d="M66.082 24.4443L66.2325 24.5568L65.9816 24.8943L65.8311 24.7818L66.082 24.4568" fill="#848484"/>
<path d="M66.1305 24.4446C66.0832 24.4232 66.0319 24.4121 65.9799 24.4121C65.928 24.4121 65.8766 24.4232 65.8294 24.4446C65.8007 24.4668 65.7775 24.4952 65.7616 24.5277C65.7456 24.5602 65.7373 24.5959 65.7373 24.6321C65.7373 24.6683 65.7456 24.704 65.7616 24.7365C65.7775 24.769 65.8007 24.7974 65.8294 24.8196L66.1305 24.4446Z" fill="#848484"/>
<path d="M66.2454 24.5195L65.9443 24.932C65.9946 24.9602 66.0539 24.9682 66.1099 24.9542C66.1659 24.9403 66.2144 24.9055 66.2454 24.857C66.2853 24.8098 66.3071 24.75 66.3071 24.6883C66.3071 24.6266 66.2853 24.5668 66.2454 24.5195Z" fill="#848484"/>
<path d="M66.082 24.4443L66.2325 24.5568L65.9816 24.8943L65.8311 24.7818L66.082 24.4568" fill="#B9B9B8"/>
<path d="M66.1687 24.5195L65.9053 24.8445L65.968 24.882L66.1938 24.5445L66.1687 24.5195Z" fill="#A09F9F"/>
<path d="M66.1314 24.4451C66.0943 24.4204 66.0506 24.4072 66.006 24.4072C65.9613 24.4072 65.9176 24.4204 65.8805 24.4451C65.8337 24.494 65.8076 24.5589 65.8076 24.6264C65.8076 24.6939 65.8337 24.7588 65.8805 24.8076L66.1314 24.4451Z" fill="#59584E"/>
<path d="M66.2454 24.5195L65.9443 24.932C65.9946 24.9602 66.0539 24.9682 66.1099 24.9542C66.1659 24.9403 66.2144 24.9055 66.2454 24.857C66.2853 24.8098 66.3071 24.75 66.3071 24.6883C66.3071 24.6266 66.2853 24.5668 66.2454 24.5195Z" fill="#59584E"/>
<path d="M62.7441 28.6699L62.8821 28.7824L62.6312 29.1199L62.4932 29.0074L62.7441 28.6824" fill="#848484"/>
<path d="M62.782 28.6077C62.6894 28.5709 62.5861 28.5709 62.4934 28.6077C62.4648 28.6299 62.4416 28.6584 62.4256 28.6909C62.4097 28.7234 62.4014 28.7591 62.4014 28.7952C62.4014 28.8314 62.4097 28.8671 62.4256 28.8996C62.4416 28.9321 62.4648 28.9605 62.4934 28.9827L62.782 28.6077Z" fill="#848484"/>
<path d="M62.8958 28.7451L62.5947 29.1576C62.6376 29.1856 62.6877 29.2005 62.739 29.2005C62.7903 29.2005 62.8404 29.1856 62.8833 29.1576C62.9154 29.134 62.9416 29.1035 62.9602 29.0683C62.9787 29.0331 62.9889 28.9941 62.9901 28.9544C62.9913 28.9147 62.9835 28.8752 62.9671 28.839C62.9508 28.8027 62.9264 28.7706 62.8958 28.7451Z" fill="#848484"/>
<path d="M62.7441 28.6699L62.8821 28.7824L62.6312 29.1199L62.4932 29.0074L62.7441 28.6824" fill="#B9B9B8"/>
<path d="M62.8202 28.7324L62.5693 29.0699L62.6195 29.1074L62.8579 28.7699L62.8202 28.7324Z" fill="#A09F9F"/>
<path d="M62.7821 28.6074C62.7428 28.5894 62.7 28.5801 62.6567 28.5801C62.6134 28.5801 62.5706 28.5894 62.5312 28.6074C62.5062 28.6318 62.4863 28.661 62.4727 28.6932C62.4591 28.7254 62.4521 28.7599 62.4521 28.7949C62.4521 28.8298 62.4591 28.8644 62.4727 28.8966C62.4863 28.9287 62.5062 28.9579 62.5312 28.9824L62.7821 28.6074Z" fill="#59584E"/>
<path d="M62.8958 28.7451L62.5947 29.1576C62.6376 29.1856 62.6877 29.2005 62.739 29.2005C62.7903 29.2005 62.8404 29.1856 62.8833 29.1576C62.9154 29.134 62.9416 29.1035 62.9602 29.0683C62.9787 29.0331 62.9889 28.9941 62.9901 28.9544C62.9913 28.9147 62.9835 28.8752 62.9671 28.839C62.9508 28.8027 62.9264 28.7706 62.8958 28.7451Z" fill="#59584E"/>
<path opacity="0.1" d="M63.9862 27.2196C63.9862 27.2196 62.9324 36.2321 73.3202 35.7071L72.6176 38.2071C71.305 38.6619 69.899 38.7822 68.5277 38.5571C64.902 37.9321 60.4483 35.2446 62.3302 28.3571C62.3302 28.3071 62.9073 27.9071 63.9862 27.2196Z" fill="#231E20"/>
<path d="M66.9223 41.3448C66.9223 41.3448 63.1586 42.2948 66.7341 45.4198C66.7341 45.4198 68.7038 47.5573 74.3368 46.7448C74.3368 46.7448 80.848 45.8823 80.9358 40.4948C80.9358 40.4948 81.2871 36.7448 79.0038 35.9823C79.0038 35.9823 77.4983 35.6323 76.0305 37.6448C75.5454 38.2969 74.9662 38.874 74.3117 39.3573C73.6837 39.8463 72.9557 40.1919 72.179 40.3698C71.1879 40.6573 69.3185 40.7823 68.7289 40.9323C68.1189 41.0335 67.5156 41.1712 66.9223 41.3448Z" fill="#202426"/>
<path d="M80.1961 36.8704C79.9143 36.4402 79.494 36.1184 79.0042 35.9579C79.0042 35.9579 77.5364 35.6079 76.0309 37.6204C75.5458 38.2725 74.9666 38.8495 74.3121 39.3329C73.6842 39.8218 72.9561 40.1675 72.1794 40.3454C71.1883 40.6329 69.319 40.7579 68.7293 40.9079C68.1188 41.0173 67.5155 41.1634 66.9227 41.3454C66.9227 41.3454 64.2254 42.0329 65.5929 44.1454C69.181 43.6079 76.9467 41.8579 80.1961 36.8704Z" fill="white"/>
<path d="M74.336 46.7449C74.336 46.7449 79.693 46.0324 80.7469 41.8574C77.8356 44.2115 74.4517 45.9165 70.8232 46.8574C71.9946 46.9567 73.1735 46.9189 74.336 46.7449Z" fill="white"/>
<path d="M77.6871 37.4327C76.4321 38.9098 74.8344 40.0597 73.0326 40.7827C70.5219 41.7681 67.9023 42.4521 65.2292 42.8202C65.1766 43.2919 65.3067 43.7658 65.593 44.1452C68.9804 43.6327 76.0938 42.0577 79.6191 37.6827C79.1925 37.1702 78.4273 36.5452 77.6871 37.4327Z" fill="white"/>
<path d="M75.6661 46.7695C75.1911 46.9244 74.7044 47.0414 74.2108 47.1195C68.6656 47.9195 66.5956 45.8695 66.4199 45.7195C65.1654 44.657 64.6886 43.6945 64.8643 42.8695C65.0399 42.0445 66.2694 41.407 66.6207 41.307H66.7085C67.3054 41.1213 67.9128 40.971 68.5276 40.857C68.7911 40.7945 69.2302 40.7445 69.7822 40.6695C70.5297 40.5984 71.2716 40.4773 72.0028 40.307C72.7414 40.1342 73.4343 39.806 74.0352 39.3445C74.6711 38.8801 75.23 38.3191 75.6912 37.682C76.2002 36.923 76.9383 36.3451 77.7989 36.032C78.1522 35.9041 78.5337 35.8738 78.9029 35.9445C81.2991 36.707 81.0105 40.4195 80.998 40.6695C80.9353 44.557 77.6358 46.107 75.6661 46.7695ZM66.7587 41.7695C66.5454 41.832 65.5041 42.207 65.3034 43.0195C65.1026 43.832 65.6546 44.5195 66.7336 45.457C67.211 45.8727 67.771 46.1836 68.3771 46.3695C70.7016 47.0898 73.191 47.0898 75.5155 46.3695C77.3723 45.7945 80.5338 44.282 80.5338 40.632C80.5338 40.632 80.8475 37.032 78.7649 36.3695C78.4746 36.3213 78.1768 36.3471 77.8992 36.4445C77.1343 36.7316 76.48 37.2522 76.0299 37.932C75.543 38.6095 74.95 39.2045 74.2735 39.6945C73.6193 40.1944 72.8671 40.5521 72.0655 40.7445C71.3138 40.9236 70.551 41.053 69.7822 41.132C69.3861 41.1686 68.9924 41.2271 68.6029 41.307C68.0039 41.4124 67.4129 41.5586 66.8339 41.7445L66.7587 41.7695Z" fill="#7A3C94"/>
<path d="M61.4521 23.3206C63.4391 21.4432 66.0215 20.3158 68.7537 20.1331C68.7537 20.1331 63.2336 17.9331 61.4521 23.3206Z" fill="white"/>
<path opacity="0.15" d="M68.6534 20.1196C68.0763 19.8946 63.1333 18.2571 61.4521 23.3196C62.1022 22.1777 63.0752 21.2517 64.2498 20.6571C65.6698 20.1995 67.1645 20.0171 68.6534 20.1196Z" fill="white"/>
<path d="M52.8574 33.5323C52.7833 33.6688 52.7324 33.8166 52.7069 33.9698C52.5758 33.874 52.4178 33.8215 52.2552 33.8198C51.6834 31.9298 50.8652 30.1227 49.8214 28.4448C49.7299 28.156 49.7299 27.8461 49.8214 27.5573C49.9399 27.149 49.9399 26.7156 49.8214 26.3073C49.3277 26.3385 48.8328 26.2705 48.3661 26.1073V25.4573C48.5174 25.502 48.6773 25.5096 48.8322 25.4794C48.9871 25.4492 49.1323 25.3821 49.2556 25.2839C49.3788 25.1856 49.4764 25.0592 49.54 24.9152C49.6035 24.7713 49.6312 24.6142 49.6206 24.4573C49.6275 24.3194 49.6053 24.1817 49.5554 24.0529C49.5055 23.9241 49.4291 23.8072 49.3311 23.7096C49.2331 23.6121 49.1156 23.5361 48.9863 23.4866C48.857 23.4371 48.7187 23.4152 48.5803 23.4222C48.442 23.4292 48.3066 23.465 48.183 23.5274C48.0594 23.5898 47.9503 23.6772 47.8628 23.7842C47.7752 23.8912 47.7111 24.0152 47.6746 24.1484C47.6381 24.2815 47.6301 24.4208 47.651 24.5573C47.662 24.7154 47.7096 24.8688 47.7902 25.0054C47.8707 25.142 47.982 25.2582 48.1152 25.3448L48.0399 26.3948C48.5735 26.548 49.1337 26.5864 49.6834 26.5073C49.6834 26.5073 49.6834 26.6573 49.5579 27.0198C49.4734 27.2887 49.4464 27.5723 49.4788 27.8522C49.5113 28.1321 49.6023 28.4021 49.7461 28.6448L50.8501 30.9448C51.3046 31.8811 51.6619 32.8612 51.9165 33.8698C51.7963 33.9323 51.6968 34.0281 51.63 34.1456C51.5632 34.2632 51.532 34.3975 51.5401 34.5323C51.5517 34.6881 51.6126 34.8361 51.7141 34.9552C51.8155 35.0743 51.9523 35.1582 52.1047 35.1948C52.4434 35.2948 52.8323 35.0448 52.8951 35.1948C53.1301 35.5431 53.4494 35.8268 53.8235 36.0198C53.6818 35.1318 53.3526 34.284 52.8574 33.5323Z" fill="white"/>
<path d="M54.7401 36.3078C54.7594 35.6938 54.6488 35.0826 54.4153 34.514C54.1819 33.9455 53.8309 33.4323 53.3852 33.0078C53.3852 33.0078 53.3852 33.0078 53.3224 33.0078C53.1882 33.1101 53.0806 33.243 53.0088 33.3953C53.5539 34.2088 53.9018 35.1374 54.025 36.1078C54.2392 36.2166 54.4671 36.2964 54.7025 36.3453C54.7025 36.3453 54.7401 36.3203 54.7401 36.3078Z" fill="white"/>
<path d="M49.6219 24.5065V24.294C49.3239 24.1696 49.004 24.1055 48.6809 24.1055C48.3578 24.1055 48.038 24.1696 47.74 24.294C47.7208 24.4141 47.7208 24.5364 47.74 24.6565C47.7533 24.8146 47.8003 24.968 47.878 25.1065C48.4051 25.2747 48.9668 25.3048 49.509 25.194C49.6326 24.9874 49.673 24.7417 49.6219 24.5065Z" fill="white"/>
<path d="M49.5085 25.0825C49.6123 24.9093 49.6605 24.7087 49.6465 24.5075C49.6534 24.4368 49.6534 24.3656 49.6465 24.295C49.3392 24.1457 49.0037 24.063 48.6621 24.0522C48.3205 24.0415 47.9804 24.1029 47.6643 24.2325C47.6389 24.3562 47.6389 24.4837 47.6643 24.6075C47.6665 24.7413 47.6964 24.8732 47.7521 24.995C48.3169 25.1918 48.9268 25.2222 49.5085 25.0825Z" fill="white"/>
<path opacity="0.7" d="M49.5582 24.4443C49.5582 24.4443 49.5582 24.5443 49.5582 24.5568C49.5582 24.5693 49.5582 24.5568 49.5582 24.4693C49.5582 24.3818 49.4954 24.3818 49.5582 24.3693C49.6209 24.3568 49.5456 24.3818 49.5582 24.4443Z" fill="white"/>
</g>
</g>
<defs>
<filter id="filter0_b_430_197" x="-70.4532" y="-71.2926" width="375.015" height="214.8" filterUnits="userSpaceOnUse" color-interpolation-filters="sRGB">
<feFlood flood-opacity="0" result="BackgroundImageFix"/>
<feGaussianBlur in="BackgroundImageFix" stdDeviation="35.7"/>
<feComposite in2="SourceAlpha" operator="in" result="effect1_backgroundBlur_430_197"/>
<feBlend mode="normal" in="SourceGraphic" in2="effect1_backgroundBlur_430_197" result="shape"/>
</filter>
<linearGradient id="paint0_linear_430_197" x1="-87.0164" y1="36.1074" x2="273.109" y2="36.1074" gradientUnits="userSpaceOnUse">
<stop stop-color="#3B3B3B" stop-opacity="0.69"/>
<stop offset="0.53125" stop-color="white" stop-opacity="0.64"/>
<stop offset="1" stop-color="#3B3B3B" stop-opacity="0.69"/>
</linearGradient>
<linearGradient id="paint1_linear_430_197" x1="119.689" y1="33.8696" x2="123.515" y2="33.8696" gradientUnits="userSpaceOnUse">
<stop stop-color="#FF5700"/>
<stop offset="1" stop-color="#FFAD00"/>
</linearGradient>
<linearGradient id="paint2_linear_430_197" x1="167.299" y1="36.5081" x2="176.709" y2="36.5081" gradientUnits="userSpaceOnUse">
<stop stop-color="#FF5700"/>
<stop offset="1" stop-color="#FFAD00"/>
</linearGradient>
<linearGradient id="paint3_linear_430_197" x1="111.447" y1="36.3197" x2="117.193" y2="36.3197" gradientUnits="userSpaceOnUse">
<stop stop-color="#FF5700"/>
<stop offset="1" stop-color="#FFAD00"/>
</linearGradient>
<linearGradient id="paint4_linear_430_197" x1="107.984" y1="36.5076" x2="111.121" y2="36.5076" gradientUnits="userSpaceOnUse">
<stop stop-color="#FF5700"/>
<stop offset="1" stop-color="#FFAD00"/>
</linearGradient>
<linearGradient id="paint5_linear_430_197" x1="135.798" y1="36.3329" x2="141.644" y2="36.3329" gradientUnits="userSpaceOnUse">
<stop stop-color="#FF5700"/>
<stop offset="1" stop-color="#FFAD00"/>
</linearGradient>
<linearGradient id="paint6_linear_430_197" x1="130.076" y1="36.3322" x2="135.797" y2="36.3322" gradientUnits="userSpaceOnUse">
<stop stop-color="#FF5700"/>
<stop offset="1" stop-color="#FFAD00"/>
</linearGradient>
<linearGradient id="paint7_linear_430_197" x1="126.464" y1="36.5191" x2="130.077" y2="36.5191" gradientUnits="userSpaceOnUse">
<stop stop-color="#FF5700"/>
<stop offset="1" stop-color="#FFAD00"/>
</linearGradient>
<linearGradient id="paint8_linear_430_197" x1="143.665" y1="36.5325" x2="151.017" y2="36.5325" gradientUnits="userSpaceOnUse">
<stop stop-color="#FF5700"/>
<stop offset="1" stop-color="#FFAD00"/>
</linearGradient>
<linearGradient id="paint9_linear_430_197" x1="149.999" y1="36.5191" x2="153.625" y2="36.5191" gradientUnits="userSpaceOnUse">
<stop stop-color="#FF5700"/>
<stop offset="1" stop-color="#FFAD00"/>
</linearGradient>
<linearGradient id="paint10_linear_430_197" x1="160.06" y1="36.5207" x2="166.308" y2="36.5207" gradientUnits="userSpaceOnUse">
<stop stop-color="#FF5700"/>
<stop offset="1" stop-color="#FFAD00"/>
</linearGradient>
<linearGradient id="paint11_linear_430_197" x1="156.399" y1="33.4824" x2="160.062" y2="33.4824" gradientUnits="userSpaceOnUse">
<stop stop-color="#FF5700"/>
<stop offset="1" stop-color="#FFAD00"/>
</linearGradient>
<linearGradient id="paint12_linear_430_197" x1="182.454" y1="33.5199" x2="185.666" y2="33.5199" gradientUnits="userSpaceOnUse">
<stop stop-color="#FF5700"/>
<stop offset="1" stop-color="#FFAD00"/>
</linearGradient>
<linearGradient id="paint13_linear_430_197" x1="178.83" y1="36.5201" x2="182.456" y2="36.5201" gradientUnits="userSpaceOnUse">
<stop stop-color="#FF5700"/>
<stop offset="1" stop-color="#FFAD00"/>
</linearGradient>
<linearGradient id="paint14_linear_430_197" x1="93.1542" y1="33.8699" x2="104.935" y2="33.8699" gradientUnits="userSpaceOnUse">
<stop stop-color="#FF5700"/>
<stop offset="1" stop-color="#FFAD00"/>
</linearGradient>
<clipPath id="clip0_430_197">
<rect width="145.455" height="40" fill="white" transform="translate(44.3271 16.1074)"/>
</clipPath>
</defs>
</svg>
